<?xml version="1.0" encoding="utf-8"?>
<!-- Generator: Adobe Illustrator 16.0.3, SVG Export Plug-In . SVG Version: 6.00 Build 0)  -->
<!DOCTYPE svg PUBLIC "-//W3C//DTD SVG 1.1//EN" "http://www.w3.org/Graphics/SVG/1.1/DTD/svg11.dtd">
<svg version="1.1" id="Layer_1" xmlns="http://www.w3.org/2000/svg" xmlns:xlink="http://www.w3.org/1999/xlink" x="0px" y="0px"
	 width="60px" height="60px" viewBox="0 0 60 60" enable-background="new 0 0 60 60" xml:space="preserve">
<g>
	<path  d="M32.308,4.615c-0.899,0-1.629,0.729-1.629,1.629v24.435H6.244c-0.899,0-1.629,0.729-1.629,1.629
		C4.615,47.577,17.038,60,32.308,60S60,47.577,60,32.308S47.577,4.615,32.308,4.615z M32.308,56.742
		c-12.926,0-23.539-10.09-24.381-22.806h24.381c0.899,0,1.629-0.729,1.629-1.629V7.927c12.716,0.842,22.806,11.455,22.806,24.381
		C56.742,45.781,45.781,56.742,32.308,56.742z"/>
	<path  d="M27.692,26.878V0.814C27.692,0.365,27.327,0,26.878,0C12.058,0,0,12.058,0,26.878
		c0,0.449,0.365,0.814,0.814,0.814h26.063C27.327,27.692,27.692,27.327,27.692,26.878z M26.063,26.063H1.642
		C2.065,12.788,12.788,2.065,26.063,1.642V26.063z"/>
</g>
</svg>
