<?xml version="1.0" encoding="utf-8"?>
<!-- Generator: Adobe Illustrator 16.0.3, SVG Export Plug-In . SVG Version: 6.00 Build 0)  -->
<!DOCTYPE svg PUBLIC "-//W3C//DTD SVG 1.1//EN" "http://www.w3.org/Graphics/SVG/1.1/DTD/svg11.dtd">
<svg version="1.1" id="Layer_1" xmlns="http://www.w3.org/2000/svg" xmlns:xlink="http://www.w3.org/1999/xlink" x="0px" y="0px"
	 width="60px" height="60px" viewBox="0 0 60 60" enable-background="new 0 0 60 60" xml:space="preserve">
<g>
	<path  d="M58.399,56.185h-8.79v-4.8c0-0.295-0.239-0.533-0.533-0.533c-0.295,0-0.534,0.238-0.534,0.533v4.8H30.533
		v-4.8c0-0.295-0.238-0.533-0.533-0.533s-0.533,0.238-0.533,0.533v4.8H14.141v-4.8c0-0.295-0.238-0.533-0.533-0.533
		s-0.533,0.238-0.533,0.533v4.8H3.199V2.215c0-0.884-0.716-1.6-1.6-1.6S0,1.331,0,2.215v55.57c0,0.884,0.716,1.6,1.6,1.6h56.8
		c0.884,0,1.601-0.716,1.601-1.6S59.283,56.185,58.399,56.185z"/>
	<path  d="M29.467,38.584v6.4c0,0.295,0.238,0.533,0.533,0.533s0.533-0.238,0.533-0.533v-6.4
		c0-0.295-0.238-0.533-0.533-0.533S29.467,38.289,29.467,38.584z"/>
	<path  d="M49.609,25.784c0-0.295-0.239-0.534-0.533-0.534c-0.295,0-0.534,0.239-0.534,0.534v6.399
		c0,0.295,0.239,0.534,0.534,0.534c0.294,0,0.533-0.239,0.533-0.534V25.784z"/>
	<path  d="M49.076,38.051c-0.295,0-0.534,0.238-0.534,0.533v6.4c0,0.295,0.239,0.533,0.534,0.533
		c0.294,0,0.533-0.238,0.533-0.533v-6.4C49.609,38.289,49.37,38.051,49.076,38.051z"/>
	<path  d="M13.074,42.978v2.007c0,0.295,0.238,0.533,0.533,0.533s0.533-0.238,0.533-0.533v-2.006
		c0.269-0.049,0.535-0.132,0.792-0.258c1.241-0.609,1.873-1.962,1.628-3.259l11.203-5.498c0.073,0.082,0.139,0.17,0.223,0.245
		c1.233,1.112,3.137,1.013,4.248-0.221c0.925-1.026,1-2.511,0.292-3.623l15.211-16.882c0.258,0.129,0.528,0.223,0.805,0.271v5.629
		c0,0.295,0.239,0.533,0.534,0.533c0.294,0,0.533-0.238,0.533-0.533v-5.632c0.633-0.114,1.236-0.419,1.701-0.935
		c1.111-1.233,1.013-3.137-0.222-4.248c-1.233-1.112-3.136-1.013-4.248,0.221c-0.925,1.026-1,2.512-0.292,3.623L31.338,29.295
		c-1.18-0.589-2.647-0.36-3.572,0.666c-0.653,0.725-0.877,1.678-0.711,2.567l-11.199,5.497c-0.876-0.987-2.331-1.314-3.573-0.705
		c-1.491,0.731-2.106,2.534-1.375,4.025C11.345,42.237,12.166,42.812,13.074,42.978z"/>
</g>
</svg>
