<?xml version="1.0" encoding="utf-8"?>
<!-- Generator: Adobe Illustrator 16.0.3, SVG Export Plug-In . SVG Version: 6.00 Build 0)  -->
<!DOCTYPE svg PUBLIC "-//W3C//DTD SVG 1.1//EN" "http://www.w3.org/Graphics/SVG/1.1/DTD/svg11.dtd">
<svg version="1.1" id="Layer_1" xmlns="http://www.w3.org/2000/svg" xmlns:xlink="http://www.w3.org/1999/xlink" x="0px" y="0px"
	 width="60px" height="60px" viewBox="0 0 60 60" enable-background="new 0 0 60 60" xml:space="preserve">
<g>
	<path  d="M16.813,43.835c-0.279,0-0.506,0.226-0.506,0.506v2.527c0,0.279,0.227,0.505,0.506,0.505
		s0.506-0.226,0.506-0.505v-2.527C17.319,44.061,17.093,43.835,16.813,43.835z"/>
	<path  d="M23.155,43.835c-0.279,0-0.505,0.226-0.505,0.506v2.527c0,0.279,0.226,0.505,0.505,0.505
		c0.28,0,0.506-0.226,0.506-0.505v-2.527C23.661,44.061,23.436,43.835,23.155,43.835z"/>
	<path  d="M30.536,38.779c-0.28,0-0.506,0.227-0.506,0.506v2.527c0,0.279,0.226,0.506,0.506,0.506
		c0.279,0,0.505-0.227,0.505-0.506v-2.527C31.041,39.006,30.815,38.779,30.536,38.779z"/>
	<path  d="M30.536,43.835c-0.28,0-0.506,0.226-0.506,0.506v2.527c0,0.279,0.226,0.505,0.506,0.505
		c0.279,0,0.505-0.226,0.505-0.505v-2.527C31.041,44.061,30.815,43.835,30.536,43.835z"/>
	<path  d="M30.536,33.725c-0.28,0-0.506,0.227-0.506,0.506v2.527c0,0.279,0.226,0.506,0.506,0.506
		c0.279,0,0.505-0.227,0.505-0.506V34.23C31.041,33.951,30.815,33.725,30.536,33.725z"/>
	<path  d="M17.651,42.526c0.783-0.385,1.177-1.237,1.022-2.056l3.068-1.507c0.047,0.053,0.088,0.107,0.142,0.155
		c0.227,0.205,0.49,0.337,0.767,0.412v2.281c0,0.279,0.226,0.506,0.505,0.506c0.28,0,0.506-0.227,0.506-0.506v-2.277
		c0.338-0.093,0.654-0.276,0.906-0.556c0.585-0.648,0.632-1.586,0.185-2.288l4.938-5.48c0.11,0.056,0.223,0.1,0.34,0.131v0.361
		c0,0.279,0.226,0.505,0.506,0.505c0.279,0,0.505-0.226,0.505-0.505v-0.357c0.338-0.092,0.655-0.276,0.906-0.556
		c0.434-0.48,0.574-1.122,0.437-1.708l3.611-1.978c0.58,0.597,1.504,0.767,2.27,0.347c0.92-0.504,1.258-1.659,0.754-2.58
		c-0.105-0.192-0.244-0.353-0.398-0.492l3.875-7.751c0.045,0.234,0.24,0.415,0.488,0.415c0.279,0,0.505-0.227,0.505-0.506v-0.189
		c0.501-0.139,0.944-0.475,1.194-0.975c0.47-0.939,0.089-2.081-0.85-2.551c-0.939-0.469-2.081-0.088-2.551,0.851
		c-0.39,0.78-0.186,1.697,0.433,2.255l-4,8c-0.421-0.083-0.871-0.032-1.276,0.189c-0.766,0.42-1.12,1.29-0.93,2.101l-3.617,1.981
		c-0.029-0.03-0.053-0.064-0.084-0.093c-0.779-0.702-1.981-0.641-2.684,0.14c-0.585,0.648-0.632,1.586-0.185,2.289l-4.938,5.479
		c-0.745-0.372-1.673-0.229-2.257,0.421c-0.412,0.457-0.554,1.06-0.449,1.623l-3.066,1.505c-0.554-0.623-1.468-0.834-2.252-0.449
		c-0.942,0.463-1.331,1.602-0.869,2.544C15.57,42.601,16.709,42.989,17.651,42.526z"/>
	<path  d="M47.206,4.088h-14.57v-3.33C32.636,0.34,32.296,0,31.878,0h-3.755c-0.419,0-0.759,0.34-0.759,0.758v3.33
		h-14.57c-0.838,0-1.516,0.679-1.516,1.517v44.456c0,0.838,0.678,1.517,1.516,1.517h5.62l-4.474,4.474
		c-0.143,0.143-0.223,0.336-0.223,0.536c0,0.201,0.08,0.395,0.223,0.536l2.654,2.654C16.743,59.926,16.938,60,17.131,60
		c0.194,0,0.389-0.074,0.536-0.223l8.199-8.2h8.515l8.2,8.2C42.724,59.92,42.916,60,43.117,60s0.394-0.08,0.536-0.223l2.654-2.654
		c0.296-0.296,0.296-0.775,0-1.072l-4.473-4.474h5.371c0.838,0,1.516-0.679,1.516-1.517V5.604
		C48.722,4.767,48.044,4.088,47.206,4.088z M28.882,1.517h2.237v2.571h-2.237V1.517z M17.131,58.17l-1.582-1.583l5.009-5.01h3.164
		L17.131,58.17z M44.699,56.587l-1.582,1.583l-6.592-6.593h3.165L44.699,56.587z M45.689,48.545H14.311V7.121h31.379V48.545z"/>
	<path  d="M37.352,28.425c-0.279,0-0.505,0.226-0.505,0.505v2.528c0,0.279,0.226,0.505,0.505,0.505
		s0.506-0.226,0.506-0.505V28.93C37.857,28.65,37.631,28.425,37.352,28.425z"/>
	<path  d="M37.352,33.479c-0.279,0-0.505,0.227-0.505,0.506v2.527c0,0.279,0.226,0.506,0.505,0.506
		s0.506-0.227,0.506-0.506v-2.527C37.857,33.706,37.631,33.479,37.352,33.479z"/>
	<path  d="M37.352,38.535c-0.279,0-0.505,0.226-0.505,0.505v2.528c0,0.279,0.226,0.505,0.505,0.505
		s0.506-0.226,0.506-0.505V39.04C37.857,38.761,37.631,38.535,37.352,38.535z"/>
	<path  d="M37.352,43.59c-0.279,0-0.505,0.227-0.505,0.506v2.527c0,0.279,0.226,0.506,0.505,0.506
		s0.506-0.227,0.506-0.506v-2.527C37.857,43.816,37.631,43.59,37.352,43.59z"/>
	<path  d="M42.983,18.56c-0.28,0-0.506,0.226-0.506,0.505v2.528c0,0.279,0.226,0.505,0.506,0.505
		c0.279,0,0.505-0.226,0.505-0.505v-2.528C43.488,18.785,43.263,18.56,42.983,18.56z"/>
	<path  d="M42.983,23.614c-0.28,0-0.506,0.227-0.506,0.506v2.527c0,0.279,0.226,0.506,0.506,0.506
		c0.279,0,0.505-0.227,0.505-0.506V24.12C43.488,23.841,43.263,23.614,42.983,23.614z"/>
	<path  d="M42.983,43.835c-0.28,0-0.506,0.226-0.506,0.506v2.527c0,0.279,0.226,0.505,0.506,0.505
		c0.279,0,0.505-0.226,0.505-0.505v-2.527C43.488,44.061,43.263,43.835,42.983,43.835z"/>
	<path  d="M42.983,38.779c-0.28,0-0.506,0.227-0.506,0.506v2.527c0,0.279,0.226,0.506,0.506,0.506
		c0.279,0,0.505-0.227,0.505-0.506v-2.527C43.488,39.006,43.263,38.779,42.983,38.779z"/>
	<path  d="M42.983,33.725c-0.28,0-0.506,0.227-0.506,0.506v2.527c0,0.279,0.226,0.506,0.506,0.506
		c0.279,0,0.505-0.227,0.505-0.506V34.23C43.488,33.951,43.263,33.725,42.983,33.725z"/>
	<path  d="M42.983,28.67c-0.28,0-0.506,0.226-0.506,0.505v2.528c0,0.279,0.226,0.505,0.506,0.505
		c0.279,0,0.505-0.226,0.505-0.505v-2.528C43.488,28.896,43.263,28.67,42.983,28.67z"/>
</g>
</svg>
