<?xml version="1.0" encoding="utf-8"?>
<!-- Generator: Adobe Illustrator 16.0.3, SVG Export Plug-In . SVG Version: 6.00 Build 0)  -->
<!DOCTYPE svg PUBLIC "-//W3C//DTD SVG 1.1//EN" "http://www.w3.org/Graphics/SVG/1.1/DTD/svg11.dtd">
<svg version="1.1" id="Layer_1" xmlns="http://www.w3.org/2000/svg" xmlns:xlink="http://www.w3.org/1999/xlink" x="0px" y="0px"
	 width="60px" height="60px" viewBox="0 0 60 60" enable-background="new 0 0 60 60" xml:space="preserve">
<g>
	<path  d="M33.734,7.082c-0.854,0-1.546,0.691-1.546,1.545v23.176H9.013c-0.854,0-1.545,0.691-1.545,1.545
		c0,14.482,11.783,26.266,26.267,26.266C48.217,59.613,60,47.83,60,33.348S48.217,7.082,33.734,7.082z M33.734,56.523
		c-12.261,0-22.327-9.568-23.126-21.631h23.126c0.854,0,1.545-0.691,1.545-1.545V10.223C47.34,11.02,56.91,21.088,56.91,33.348
		C56.91,46.127,46.514,56.523,33.734,56.523z"/>
	<path  d="M28.678,25.918c0.098,0.141,0.257,0.219,0.421,0.219c0.052,0,0.104-0.008,0.155-0.023
		c0.215-0.068,0.359-0.268,0.359-0.492V0.9c0-0.283-0.23-0.514-0.515-0.514c-5.229,0-10.251,1.59-14.521,4.602
		c-0.232,0.164-0.288,0.484-0.124,0.717L28.678,25.918z M28.584,1.422v22.572L15.596,5.537C19.455,2.936,23.925,1.52,28.584,1.422z"
		/>
	<path  d="M26.179,29.068c0.133-0.256,0.112-0.564-0.054-0.801L11.902,8.055c-0.118-0.168-0.299-0.281-0.5-0.316
		c-0.204-0.037-0.41,0.012-0.577,0.129C4.047,12.646,0,20.439,0,28.713c0,0.205,0.082,0.4,0.227,0.547
		c0.145,0.145,0.342,0.225,0.546,0.225h24.721C25.781,29.484,26.046,29.324,26.179,29.068z M1.558,27.939
		c0.234-7.225,3.747-13.988,9.533-18.354l12.915,18.354H1.558z"/>
</g>
</svg>
