<?xml version="1.0" encoding="utf-8"?>
<!-- Generator: Adobe Illustrator 16.0.3, SVG Export Plug-In . SVG Version: 6.00 Build 0)  -->
<!DOCTYPE svg PUBLIC "-//W3C//DTD SVG 1.1//EN" "http://www.w3.org/Graphics/SVG/1.1/DTD/svg11.dtd">
<svg version="1.1" id="Layer_1" xmlns="http://www.w3.org/2000/svg" xmlns:xlink="http://www.w3.org/1999/xlink" x="0px" y="0px"
	 width="60px" height="60px" viewBox="0 0 60 60" enable-background="new 0 0 60 60" xml:space="preserve">
<g>
	<path  d="M36.092,36.889H8.566c-3.034,0-5.502-2.469-5.502-5.502V15.638h44.771v9.922
		c0,0.846,0.686,1.533,1.532,1.533s1.532-0.688,1.532-1.533V14.872c0-4.724-3.844-8.566-8.567-8.566H8.566
		C3.844,6.305,0,10.148,0,14.872v16.515c0,4.723,3.844,8.566,8.566,8.566h27.525c0.847,0,1.532-0.686,1.532-1.533
		C37.624,37.574,36.938,36.889,36.092,36.889z M8.566,9.369h33.767c2.774,0,5.068,2.065,5.443,4.737H3.124
		C3.499,11.434,5.793,9.369,8.566,9.369z"/>
	<path  d="M29.206,19.135c0-0.423-0.343-0.766-0.767-0.766H7.512c-0.423,0-0.766,0.343-0.766,0.766
		s0.343,0.766,0.766,0.766h20.928C28.863,19.901,29.206,19.558,29.206,19.135z"/>
	<path  d="M44.507,19.135c0-0.423-0.344-0.766-0.767-0.766h-5.628c-0.423,0-0.766,0.343-0.766,0.766
		s0.343,0.766,0.766,0.766h5.628C44.163,19.901,44.507,19.558,44.507,19.135z"/>
	<path  d="M7.512,23.168c-0.423,0-0.766,0.344-0.766,0.766c0,0.424,0.343,0.768,0.766,0.768h7.21
		c0.423,0,0.767-0.344,0.767-0.768c0-0.422-0.344-0.766-0.767-0.766H7.512z"/>
	<path  d="M58.468,37.676h-0.792v-1.027c0-4.643-3.777-8.422-8.422-8.422s-8.423,3.779-8.423,8.422v1.027H40.04
		c-0.847,0-1.532,0.686-1.532,1.533v12.953c0,0.846,0.686,1.533,1.532,1.533h18.428c0.847,0,1.532-0.688,1.532-1.533V39.209
		C60,38.361,59.314,37.676,58.468,37.676z M43.896,36.648c0-2.953,2.404-5.357,5.358-5.357c2.955,0,5.358,2.404,5.358,5.357v1.027
		H43.896V36.648z M56.936,50.631H41.572V40.74h15.363V50.631z"/>
	<path  d="M48.291,46.113v2.82h1.985v-2.768c0.809-0.363,1.375-1.172,1.375-2.115c0-1.279-1.04-2.318-2.319-2.318
		s-2.319,1.039-2.319,2.318C47.013,44.953,47.536,45.73,48.291,46.113z"/>
</g>
</svg>
