<?xml version="1.0" encoding="utf-8"?>
<!-- Generator: Adobe Illustrator 16.0.3, SVG Export Plug-In . SVG Version: 6.00 Build 0)  -->
<!DOCTYPE svg PUBLIC "-//W3C//DTD SVG 1.1//EN" "http://www.w3.org/Graphics/SVG/1.1/DTD/svg11.dtd">
<svg version="1.1" id="Layer_1" xmlns="http://www.w3.org/2000/svg" xmlns:xlink="http://www.w3.org/1999/xlink" x="0px" y="0px"
	 width="60px" height="60px" viewBox="0 0 60 60" enable-background="new 0 0 60 60" xml:space="preserve">
<g>
	<path  d="M54.902,53.915h-3.026V41.807c0-0.834-0.676-1.51-1.51-1.51h-7.328c-0.834,0-1.51,0.676-1.51,1.51v12.108
		h-2.39V33.09c0-0.834-0.676-1.51-1.51-1.51h-7.328c-0.834,0-1.51,0.676-1.51,1.51v20.825H26.75V24.644
		c0-0.834-0.676-1.51-1.51-1.51h-7.328c-0.834,0-1.51,0.676-1.51,1.51v29.271h-2.216V19.131c0-0.834-0.676-1.51-1.51-1.51H5.349
		c-0.834,0-1.51,0.676-1.51,1.51v34.784H1.51c-0.834,0-1.51,0.676-1.51,1.51s0.676,1.51,1.51,1.51h3.839h7.328h5.235h7.328h5.061
		h7.328h5.409h7.328h4.536c0.834,0,1.51-0.676,1.51-1.51S55.736,53.915,54.902,53.915z M6.858,53.915V20.641h4.309v33.274H6.858z
		 M19.422,53.915V26.153h4.309v27.762H19.422z M31.811,53.915V34.6h4.309v19.315H31.811z M44.548,53.915V43.316h4.309v10.599H44.548
		z"/>
	<path  d="M8.879,5.906l45.063,24.097l-12.249,3.23l0.773,2.922L60,31.526l-5.889-17.149l-2.859,0.979l4.119,11.986
		l-45.067-24.1C9.567,2.851,8.653,3.128,8.26,3.862C7.866,4.599,8.144,5.513,8.879,5.906z"/>
</g>
</svg>
