<?xml version="1.0" encoding="utf-8"?>
<!-- Generator: Adobe Illustrator 16.0.3, SVG Export Plug-In . SVG Version: 6.00 Build 0)  -->
<!DOCTYPE svg PUBLIC "-//W3C//DTD SVG 1.1//EN" "http://www.w3.org/Graphics/SVG/1.1/DTD/svg11.dtd">
<svg version="1.1" id="Layer_1" xmlns="http://www.w3.org/2000/svg" xmlns:xlink="http://www.w3.org/1999/xlink" x="0px" y="0px"
	 width="60px" height="60px" viewBox="0 0 60 60" enable-background="new 0 0 60 60" xml:space="preserve">
<g>
	<path  d="M50.11,10.274H9.89c-5.453,0-9.89,4.437-9.89,9.89v19.672c0,5.453,4.437,9.891,9.89,9.891H50.11
		c5.453,0,9.89-4.438,9.89-9.891V20.164C60,14.711,55.563,10.274,50.11,10.274z M9.89,13.296H50.11c3.531,0,6.446,2.68,6.823,6.112
		H3.066C3.443,15.976,6.358,13.296,9.89,13.296z M50.11,46.703H9.89c-3.787,0-6.867-3.08-6.867-6.867V20.92h53.955v18.916
		C56.978,43.623,53.897,46.703,50.11,46.703z"/>
	<path  d="M33.562,24.486H8.633c-0.417,0-0.755,0.34-0.755,0.756c0,0.418,0.338,0.756,0.755,0.756h24.929
		c0.417,0,0.755-0.338,0.755-0.756C34.316,24.826,33.979,24.486,33.562,24.486z"/>
	<path  d="M51.785,24.738h-6.703c-0.278,0-0.504,0.227-0.504,0.504c0,0.279,0.226,0.504,0.504,0.504h6.703
		c0.278,0,0.504-0.225,0.504-0.504C52.289,24.965,52.063,24.738,51.785,24.738z"/>
	<path  d="M17.222,30.203H8.633c-0.417,0-0.755,0.338-0.755,0.756s0.338,0.756,0.755,0.756h8.589
		c0.417,0,0.755-0.338,0.755-0.756S17.639,30.203,17.222,30.203z"/>
</g>
</svg>
