<?xml version="1.0" encoding="utf-8"?>
<!-- Generator: Adobe Illustrator 16.0.3, SVG Export Plug-In . SVG Version: 6.00 Build 0)  -->
<!DOCTYPE svg PUBLIC "-//W3C//DTD SVG 1.1//EN" "http://www.w3.org/Graphics/SVG/1.1/DTD/svg11.dtd">
<svg version="1.1" id="Layer_1" xmlns="http://www.w3.org/2000/svg" xmlns:xlink="http://www.w3.org/1999/xlink" x="0px" y="0px"
	 width="60px" height="60px" viewBox="0 0 60 60" enable-background="new 0 0 60 60" xml:space="preserve">
<g>
	<path  d="M57.844,56.851h-2.43V20.572c0-0.87-0.705-1.575-1.574-1.575h-7.643c-0.869,0-1.574,0.705-1.574,1.575
		v36.278h-2.311V40.906c0-0.869-0.705-1.574-1.576-1.574h-7.643c-0.871,0-1.576,0.705-1.576,1.574v15.944h-2.127V32.947
		c0-0.87-0.705-1.575-1.574-1.575h-7.644c-0.87,0-1.575,0.705-1.575,1.575v23.903h-2.493V44.223c0-0.87-0.705-1.575-1.575-1.575
		H6.887c-0.87,0-1.575,0.705-1.575,1.575v12.628H2.156c-0.869,0-1.574,0.705-1.574,1.575S1.287,60,2.156,60h4.731h7.644h5.642h7.644
		h5.277h7.643h5.461h7.643h4.004c0.869,0,1.574-0.704,1.574-1.574S58.713,56.851,57.844,56.851z M8.462,56.851V45.797h4.495v11.054
		H8.462z M21.748,56.851V34.521h4.494v22.329H21.748z M34.668,56.851V42.481h4.494v14.369H34.668z M47.771,56.851V22.146h4.494
		v34.704H47.771z"/>
	<path  d="M13.537,32.511C11.958,34.07,15.116,30.952,13.537,32.511L13.537,32.511z"/>
	<path  d="M13.537,32.511c1.182-1.166,1.488-2.89,0.914-4.345l8.018-7.916c1.286,0.528,2.74,0.347,3.846-0.432
		l6.625,4.101c-0.23,1.526,0.428,3.117,1.809,4c1.869,1.195,4.363,0.646,5.559-1.224c0.895-1.399,0.811-3.147-0.07-4.439
		l9.115-14.264c1.543,0.257,3.164-0.402,4.059-1.802c1.195-1.869,0.646-4.363-1.225-5.558c-1.869-1.195-4.363-0.646-5.557,1.224
		c-0.895,1.399-0.812,3.147,0.068,4.439L37.582,20.56c-1.043-0.174-2.119,0.072-2.986,0.682l-6.623-4.101
		c0.234-1.546-0.448-3.157-1.86-4.032c-1.887-1.168-4.372-0.582-5.54,1.305c-0.694,1.121-0.765,2.452-0.315,3.595l-8.019,7.917
		c-1.448-0.592-3.175-0.309-4.356,0.858c-1.579,1.559-1.596,4.112-0.037,5.691S11.958,34.07,13.537,32.511z"/>
	<path  d="M40.576,26.271c0.02-0.029,0.035-0.053,0.047-0.07C40.611,26.22,40.594,26.244,40.576,26.271z"/>
	<path  d="M40.307,26.695c0.053-0.082,0.094-0.149,0.135-0.21C40.398,26.552,40.354,26.623,40.307,26.695z"/>
	<path  d="M40.441,26.485c0.053-0.083,0.1-0.156,0.135-0.214C40.545,26.322,40.5,26.394,40.441,26.485z"/>
	<path  d="M40.307,26.695c-0.035,0.054-0.064,0.102-0.094,0.146C40.244,26.794,40.275,26.745,40.307,26.695z"/>
	<path  d="M40.623,26.201C40.656,26.146,40.662,26.138,40.623,26.201L40.623,26.201z"/>
	<path  d="M39.988,27.193C39.951,27.25,39.957,27.243,39.988,27.193L39.988,27.193z"/>
	<path  d="M40.137,26.961c-0.064,0.101-0.119,0.186-0.148,0.232C40.014,27.153,40.062,27.078,40.137,26.961z"/>
	<path  d="M40.156,26.931c-0.008,0.01-0.014,0.021-0.02,0.03C40.143,26.951,40.148,26.941,40.156,26.931z"/>
	<path  d="M40.213,26.842c-0.02,0.03-0.039,0.061-0.057,0.089C40.174,26.902,40.191,26.874,40.213,26.842z"/>
	<path  d="M53.682,5.767c0.018-0.028,0.033-0.053,0.045-0.07C53.715,5.715,53.699,5.739,53.682,5.767z"/>
	<path  d="M53.545,5.98c0.053-0.082,0.1-0.156,0.137-0.214C53.648,5.818,53.604,5.889,53.545,5.98z"/>
	<path  d="M53.41,6.19c0.053-0.081,0.096-0.148,0.135-0.21C53.502,6.048,53.457,6.119,53.41,6.19z"/>
	<path  d="M53.727,5.696C53.762,5.642,53.766,5.634,53.727,5.696L53.727,5.696z"/>
	<path  d="M53.26,6.427c-0.006,0.01-0.014,0.021-0.02,0.03C53.246,6.447,53.252,6.437,53.26,6.427z"/>
	<path  d="M53.41,6.19c-0.035,0.055-0.064,0.103-0.094,0.146C53.348,6.289,53.379,6.24,53.41,6.19z"/>
	<path  d="M53.24,6.457c-0.064,0.101-0.117,0.185-0.148,0.231C53.117,6.648,53.166,6.573,53.24,6.457z"/>
	<path  d="M53.092,6.688C53.055,6.746,53.061,6.739,53.092,6.688L53.092,6.688z"/>
	<path  d="M53.316,6.337c-0.02,0.031-0.039,0.061-0.057,0.09C53.277,6.398,53.295,6.37,53.316,6.337z"/>
</g>
</svg>
