<?xml version="1.0" encoding="utf-8"?>
<!-- Generator: Adobe Illustrator 16.0.3, SVG Export Plug-In . SVG Version: 6.00 Build 0)  -->
<!DOCTYPE svg PUBLIC "-//W3C//DTD SVG 1.1//EN" "http://www.w3.org/Graphics/SVG/1.1/DTD/svg11.dtd">
<svg version="1.1" id="Layer_1" xmlns="http://www.w3.org/2000/svg" xmlns:xlink="http://www.w3.org/1999/xlink" x="0px" y="0px"
	 width="60px" height="60px" viewBox="0 0 60 60" enable-background="new 0 0 60 60" xml:space="preserve">
<path  d="M58.583,48.012h-2.692v-37.44c0-0.783-0.635-1.418-1.418-1.418h-7.846c-0.783,0-1.418,0.635-1.418,1.418
	v37.44h-2.77V31.445c0-0.782-0.635-1.417-1.417-1.417h-7.847c-0.783,0-1.417,0.635-1.417,1.417v16.566h-2.583V23.274
	c0-0.783-0.635-1.417-1.417-1.417h-7.847c-0.783,0-1.418,0.634-1.418,1.417v24.737h-2.956V34.849c0-0.782-0.635-1.417-1.417-1.417
	H6.275c-0.783,0-1.418,0.635-1.418,1.417v13.163H1.418C0.635,48.012,0,48.646,0,49.429c0,0.783,0.635,1.418,1.418,1.418h4.857h7.846
	h5.791h7.847h5.417h7.847h5.604h7.846h4.11c0.782,0,1.417-0.635,1.417-1.418C60,48.646,59.365,48.012,58.583,48.012z M7.692,48.012
	V36.267h5.011v11.745H7.692z M21.329,48.012v-23.32h5.013v23.32H21.329z M34.594,48.012V32.862h5.012v15.149H34.594z M48.044,48.012
	V11.988h5.013v36.023H48.044z"/>
</svg>
