<?xml version="1.0" encoding="utf-8"?>
<!-- Generator: Adobe Illustrator 16.0.0, SVG Export Plug-In . SVG Version: 6.00 Build 0)  -->
<!DOCTYPE svg PUBLIC "-//W3C//DTD SVG 1.1//EN" "http://www.w3.org/Graphics/SVG/1.1/DTD/svg11.dtd">
<svg version="1.1" id="Layer_1" xmlns="http://www.w3.org/2000/svg" xmlns:xlink="http://www.w3.org/1999/xlink" x="0px" y="0px"
	 width="60px" height="60px" viewBox="0 0 60 60" style="enable-background:new 0 0 60 60;" xml:space="preserve">
<style type="text/css">
<![CDATA[
	.st0{enable-background:new    ;}
	
		.st1{fill-rule:evenodd;clip-rule:evenodd;fill:none;stroke:#231F20;stroke-width:1.5;stroke-linecap:round;stroke-linejoin:round;stroke-miterlimit:10;}
	.st2{fill:none;stroke:#231F20;stroke-width:1.3767;stroke-linecap:round;stroke-linejoin:round;stroke-miterlimit:10;}
	.st3{fill:none;stroke:#231F20;stroke-width:1.5269;stroke-linecap:round;stroke-linejoin:round;stroke-miterlimit:10;}
	.st4{fill:none;stroke:#231F20;stroke-width:1.5;stroke-linecap:round;stroke-linejoin:round;stroke-miterlimit:10;}
]]>
</style>
<g>
	<g>
		<g>
			<g>
				<g>
					<g>
						<g>
							<g>
								<line class="st4" x1="55.987" y1="7.06" x2="55.987" y2="34.833"/>
								<line class="st4" x1="4.592" y1="34.833" x2="4.592" y2="7.06"/>
							</g>
						</g>
					</g>
				</g>
			</g>
			<g>
				<g>
					<g>
						<g>
							<g>
								<g>
									<g>
										<path class="st4" d="M58.586,4.585c0,0.957-1.086,1.732-2.428,1.732H3.842c-1.34,0-2.428-0.775-2.428-1.732l0,0
											c0-0.958,1.088-1.732,2.428-1.732h52.316C57.5,2.853,58.586,3.627,58.586,4.585L58.586,4.585z"/>
									</g>
								</g>
							</g>
						</g>
					</g>
				</g>
			</g>
			<g>
				<g>
					<g>
						<g>
							<g>
								<path class="st4" d="M58.586,36.676c0,0.957-1.086,1.733-2.428,1.733H3.842c-1.34,0-2.428-0.776-2.428-1.733l0,0
									c0-0.956,1.088-1.732,2.428-1.732h52.316C57.5,34.944,58.586,35.72,58.586,36.676L58.586,36.676z"/>
							</g>
						</g>
					</g>
				</g>
			</g>
		</g>
		<g>
			<g>
				<g>
					<path class="st4" d="M17.521,21.008v9.342c5.475-0.036,9.676-4.354,9.676-9.674c0-2.643-1.094-5.037-2.811-6.783"/>
					<path class="st4" d="M24.482,13.894c-1.755-1.784-4.195-2.893-6.897-2.893c-2.69,0-5.123,1.1-6.878,2.874l6.943,7.133
						L24.482,13.894z"/>
					<path class="st4" d="M10.644,13.875c-1.729,1.747-2.795,4.148-2.795,6.802c0,5.343,4.199,9.675,9.672,9.675v-0.001v-9.342"/>
				</g>
			</g>
		</g>
	</g>
	<g>
		<circle class="st4" cx="33.539" cy="21.592" r="2.148"/>
		<circle class="st4" cx="39.652" cy="15.479" r="2.148"/>
		<circle class="st4" cx="45.001" cy="24.648" r="2.149"/>
		<circle class="st4" cx="50.35" cy="19.3" r="2.148"/>
		<line class="st4" x1="34.945" y1="20.038" x2="38.361" y2="17.288"/>
		<line class="st4" x1="40.779" y1="17.538" x2="43.861" y2="22.871"/>
		<line class="st4" x1="46.529" y1="23.121" x2="48.945" y2="21.121"/>
	</g>
</g>
<line class="st4" x1="29.834" y1="45" x2="29.834" y2="38.667"/>
<line class="st4" x1="29.834" y1="45" x2="40.75" y2="55.917"/>
<line class="st4" x1="29.749" y1="45" x2="18.833" y2="55.917"/>
</svg>
