<?xml version="1.0" encoding="utf-8"?>
<!-- Generator: Adobe Illustrator 16.0.0, SVG Export Plug-In . SVG Version: 6.00 Build 0)  -->
<!DOCTYPE svg PUBLIC "-//W3C//DTD SVG 1.1//EN" "http://www.w3.org/Graphics/SVG/1.1/DTD/svg11.dtd">
<svg version="1.1" id="Layer_1" xmlns="http://www.w3.org/2000/svg" xmlns:xlink="http://www.w3.org/1999/xlink" x="0px" y="0px"
	 width="60px" height="60px" viewBox="0 0 60 60" style="enable-background:new 0 0 60 60;" xml:space="preserve">
<style type="text/css">
<![CDATA[
	.st0{enable-background:new    ;}
	
		.st1{fill-rule:evenodd;clip-rule:evenodd;fill:none;stroke:#231F20;stroke-width:1.5;stroke-linecap:round;stroke-linejoin:round;stroke-miterlimit:10;}
	.st2{fill:none;stroke:#231F20;stroke-width:1.3767;stroke-linecap:round;stroke-linejoin:round;stroke-miterlimit:10;}
	.st3{fill:none;stroke:#231F20;stroke-width:1.5269;stroke-linecap:round;stroke-linejoin:round;stroke-miterlimit:10;}
	.st4{fill:none;stroke:#231F20;stroke-width:1.5;stroke-linecap:round;stroke-linejoin:round;stroke-miterlimit:10;}
]]>
</style>
<g>
	<g>
		<g>
			<g class="st0">
				<g>
					<path class="st3" d="M27.949,1.371l0.006,10.358c-0.1-0.003-0.341,0.022-0.544,0.022c-8.6,0-15.521,7.173-16.666,15.715H1
						C2.184,12.721,13.453,1.404,27.411,1.404C27.636,1.404,27.909,1.371,27.949,1.371z"/>
				</g>
			</g>
			<g class="st0">
				<g>
					<path class="st3" d="M27.949,58.629l0.006-10.358c-0.1,0.003-0.341-0.022-0.544-0.022c-8.6,0-15.521-7.173-16.666-15.715H1
						c1.184,14.746,12.453,26.062,26.411,26.062C27.636,58.596,27.909,58.629,27.949,58.629z"/>
				</g>
			</g>
			<g class="st0">
				<g>
					<path class="st3" d="M32.051,58.629l-0.006-10.358c0.1,0.003,0.341-0.022,0.544-0.022c8.6,0,15.521-7.173,16.666-15.715H59
						c-1.184,14.746-12.453,26.062-26.411,26.062C32.364,58.596,32.091,58.629,32.051,58.629z"/>
				</g>
			</g>
		</g>
		<g>
			<g class="st0">
				<g>
					<path class="st4" d="M35.834,1.939c23.422,0,22.305,19.77,22.305,21.782H35.834V1.939z"/>
				</g>
			</g>
		</g>
	</g>
</g>
</svg>
