<?xml version="1.0" encoding="utf-8"?>
<!-- Generator: Adobe Illustrator 16.0.0, SVG Export Plug-In . SVG Version: 6.00 Build 0)  -->
<!DOCTYPE svg PUBLIC "-//W3C//DTD SVG 1.1//EN" "http://www.w3.org/Graphics/SVG/1.1/DTD/svg11.dtd">
<svg version="1.1" id="Layer_1" xmlns="http://www.w3.org/2000/svg" xmlns:xlink="http://www.w3.org/1999/xlink" x="0px" y="0px"
	 width="60px" height="60px" viewBox="0 0 60 60" style="enable-background:new 0 0 60 60;" xml:space="preserve">
<style type="text/css">
<![CDATA[
	.st0{enable-background:new    ;}
	
		.st1{fill-rule:evenodd;clip-rule:evenodd;fill:none;stroke:#231F20;stroke-width:1.5;stroke-linecap:round;stroke-linejoin:round;stroke-miterlimit:10;}
	.st2{fill:none;stroke:#231F20;stroke-width:1.3767;stroke-linecap:round;stroke-linejoin:round;stroke-miterlimit:10;}
	.st3{fill:none;stroke:#231F20;stroke-width:1.5269;stroke-linecap:round;stroke-linejoin:round;stroke-miterlimit:10;}
	.st4{fill:none;stroke:#231F20;stroke-width:1.5;stroke-linecap:round;stroke-linejoin:round;stroke-miterlimit:10;}
]]>
</style>
<g>
	<g>
		<g>
			<g>
				<path class="st4" d="M39.953,10.952c-3.648,0-7.056,1.026-9.952,2.806c5.456,3.35,9.095,9.371,9.095,16.242
					S35.456,42.891,30,46.242c2.896,1.779,6.304,2.806,9.952,2.806C50.472,49.048,59,40.519,59,30
					C59,19.48,50.472,10.952,39.953,10.952z"/>
			</g>
		</g>
		<g>
			<g>
				<path class="st4" d="M20.904,30c0-6.872,3.64-12.892,9.096-16.242c-2.897-1.779-6.305-2.806-9.952-2.806
					C9.528,10.952,1,19.48,1,30c0,10.519,8.528,19.048,19.049,19.048c3.647,0,7.055-1.026,9.952-2.806
					C24.544,42.891,20.904,36.872,20.904,30z"/>
			</g>
		</g>
	</g>
</g>
</svg>
