<?xml version="1.0" encoding="utf-8"?>
<!-- Generator: Adobe Illustrator 16.0.0, SVG Export Plug-In . SVG Version: 6.00 Build 0)  -->
<!DOCTYPE svg PUBLIC "-//W3C//DTD SVG 1.1//EN" "http://www.w3.org/Graphics/SVG/1.1/DTD/svg11.dtd">
<svg version="1.1" id="Layer_1" xmlns="http://www.w3.org/2000/svg" xmlns:xlink="http://www.w3.org/1999/xlink" x="0px" y="0px"
	 width="60px" height="60px" viewBox="0 0 60 60" style="enable-background:new 0 0 60 60;" xml:space="preserve">
<style type="text/css">
<![CDATA[
	.st0{enable-background:new    ;}
	
		.st1{fill-rule:evenodd;clip-rule:evenodd;fill:none;stroke:#231F20;stroke-width:1.5;stroke-linecap:round;stroke-linejoin:round;stroke-miterlimit:10;}
	.st2{fill:none;stroke:#231F20;stroke-width:1.3767;stroke-linecap:round;stroke-linejoin:round;stroke-miterlimit:10;}
	.st3{fill:none;stroke:#231F20;stroke-width:1.5269;stroke-linecap:round;stroke-linejoin:round;stroke-miterlimit:10;}
	.st4{fill:none;stroke:#231F20;stroke-width:1.5;stroke-linecap:round;stroke-linejoin:round;stroke-miterlimit:10;}
]]>
</style>
<g>
	<g>
		<g>
			<g>
				<g>
					<g class="st0">
						<g>
							<path class="st4" d="M1.672,7.913"/>
							<line class="st4" x1="58.441" y1="52.877" x2="2.249" y2="52.686"/>
						</g>
					</g>
				</g>
			</g>
		</g>
		<g>
			<line class="st4" x1="2.249" y1="47.017" x2="58.441" y2="47.017"/>
			<line class="st4" x1="32.642" y1="41.335" x2="58.441" y2="41.335"/>
			<line class="st4" x1="2.249" y1="41.335" x2="27.425" y2="41.335"/>
		</g>
		<g>
			<line class="st4" x1="15.354" y1="35.655" x2="58.441" y2="35.655"/>
			<line class="st4" x1="2.249" y1="35.655" x2="9.829" y2="35.655"/>
			<line class="st4" x1="21.663" y1="29.974" x2="58.441" y2="29.974"/>
			<line class="st4" x1="2.249" y1="29.974" x2="15.982" y2="29.974"/>
		</g>
		<g>
			<line class="st4" x1="49.682" y1="24.293" x2="58.441" y2="24.293"/>
			<line class="st4" x1="2.249" y1="24.293" x2="44.457" y2="24.293"/>
			<line class="st4" x1="2.249" y1="18.611" x2="58.441" y2="18.611"/>
		</g>
		<g>
			<line class="st4" x1="2.249" y1="12.931" x2="58.441" y2="12.931"/>
			<line class="st4" x1="2.249" y1="7.249" x2="58.441" y2="7.249"/>
		</g>
		<g>
			<line class="st2" x1="7.337" y1="7.214" x2="7.337" y2="52.735"/>
			<line class="st2" x1="13.019" y1="38.259" x2="13.019" y2="52.735"/>
			<line class="st2" x1="13.019" y1="7.214" x2="13.019" y2="32.97"/>
		</g>
		<g>
			<line class="st2" x1="18.698" y1="32.746" x2="18.698" y2="52.735"/>
			<line class="st2" x1="18.698" y1="7.214" x2="18.698" y2="27.29"/>
			<line class="st2" x1="24.382" y1="7.214" x2="24.382" y2="52.735"/>
		</g>
		<g>
			<line class="st2" x1="30.062" y1="43.859" x2="30.062" y2="52.735"/>
			<line class="st2" x1="30.062" y1="7.214" x2="30.062" y2="38.722"/>
			<line class="st2" x1="35.741" y1="7.214" x2="35.741" y2="52.735"/>
		</g>
		<g>
			<line class="st2" x1="41.423" y1="7.214" x2="41.423" y2="52.735"/>
			<line class="st2" x1="47.105" y1="26.905" x2="47.105" y2="52.735"/>
			<line class="st2" x1="47.105" y1="7.214" x2="47.105" y2="21.677"/>
			<line class="st2" x1="52.629" y1="7.214" x2="52.629" y2="52.735"/>
		</g>
	</g>
	<g>
		<path class="st4" d="M10.127,35.677c0-1.443,1.171-2.612,2.615-2.612c1.439,0,2.611,1.169,2.611,2.612
			c0,1.446-1.172,2.615-2.611,2.615C11.298,38.292,10.127,37.123,10.127,35.677z"/>
		<circle class="st4" cx="18.822" cy="30.131" r="2.611"/>
		<circle class="st4" cx="30.027" cy="41.335" r="2.614"/>
		<circle class="st4" cx="47.069" cy="24.293" r="2.612"/>
		<line class="st4" x1="14.8" y1="33.524" x2="16.773" y2="31.788"/>
		<line class="st4" x1="20.952" y1="31.788" x2="28.056" y2="39.362"/>
		<line class="st4" x1="32" y1="39.44" x2="45.493" y2="26.422"/>
	</g>
	<g>
		<g>
			<g>
				<g class="st0">
					<g>
						<line class="st4" x1="58.441" y1="52.686" x2="58.441" y2="7.249"/>
					</g>
				</g>
			</g>
		</g>
	</g>
	<g>
		<g>
			<g>
				<g class="st0">
					<g>
						<line class="st4" x1="2.249" y1="52.686" x2="2.249" y2="7.249"/>
					</g>
				</g>
			</g>
		</g>
	</g>
</g>
</svg>
