<?xml version="1.0" encoding="utf-8"?>
<!-- Generator: Adobe Illustrator 16.0.0, SVG Export Plug-In . SVG Version: 6.00 Build 0)  -->
<!DOCTYPE svg PUBLIC "-//W3C//DTD SVG 1.1//EN" "http://www.w3.org/Graphics/SVG/1.1/DTD/svg11.dtd">
<svg version="1.1" id="Layer_1" xmlns="http://www.w3.org/2000/svg" xmlns:xlink="http://www.w3.org/1999/xlink" x="0px" y="0px"
	 width="60px" height="60px" viewBox="0 0 60 60" style="enable-background:new 0 0 60 60;" xml:space="preserve">
<style type="text/css">
<![CDATA[
	.st0{enable-background:new    ;}
	
		.st1{fill-rule:evenodd;clip-rule:evenodd;fill:none;stroke:#231F20;stroke-width:1.5;stroke-linecap:round;stroke-linejoin:round;stroke-miterlimit:10;}
	.st2{fill:none;stroke:#231F20;stroke-width:1.3767;stroke-linecap:round;stroke-linejoin:round;stroke-miterlimit:10;}
	.st3{fill:none;stroke:#231F20;stroke-width:1.5269;stroke-linecap:round;stroke-linejoin:round;stroke-miterlimit:10;}
	.st4{fill:none;stroke:#231F20;stroke-width:1.5;stroke-linecap:round;stroke-linejoin:round;stroke-miterlimit:10;}
]]>
</style>
<g>
	<g>
		<g>
			<g>
				<g>
					<g>
						<g>
							<g>
								<g>
									<path class="st4" d="M11.327,1C9.574,1,8.149,2.422,8.149,4.178v50.839c0,1.753,1.425,3.175,3.178,3.175h36.542
										c1.753,0,3.177-1.422,3.177-3.175V15.713L35.729,1H11.327z"/>
								</g>
							</g>
						</g>
						<g>
							<g>
								<path class="st4" d="M50.417,15.5h-11.51c-1.756,0-3.177-1.421-3.177-3.175V1"/>
							</g>
						</g>
					</g>
				</g>
			</g>
		</g>
		<g>
			<rect x="14.144" y="15.644" class="st4" width="6.662" height="16.655"/>
			<rect x="24.336" y="20.64" class="st4" width="4.997" height="11.658"/>
			<rect x="32.866" y="23.971" class="st4" width="4.163" height="8.327"/>
			<polygon class="st4" points="44.35,28.967 44.724,28.967 44.724,32.298 40.561,32.298 40.561,28.967 			"/>
		</g>
		<line class="st4" x1="25.502" y1="38.333" x2="14.002" y2="38.333"/>
		<line class="st4" x1="22.835" y1="44.63" x2="14.002" y2="44.63"/>
		<line class="st4" x1="25.502" y1="50.333" x2="14.002" y2="50.333"/>
		<line class="st4" x1="44.833" y1="38.333" x2="33.333" y2="38.333"/>
		<line class="st4" x1="42.167" y1="44.63" x2="33.333" y2="44.63"/>
		<line class="st4" x1="44.833" y1="50.333" x2="33.333" y2="50.333"/>
	</g>
</g>
</svg>
