<?xml version="1.0" encoding="utf-8"?>
<!-- Generator: Adobe Illustrator 16.0.0, SVG Export Plug-In . SVG Version: 6.00 Build 0)  -->
<!DOCTYPE svg PUBLIC "-//W3C//DTD SVG 1.1//EN" "http://www.w3.org/Graphics/SVG/1.1/DTD/svg11.dtd">
<svg version="1.1" id="Layer_1" xmlns="http://www.w3.org/2000/svg" xmlns:xlink="http://www.w3.org/1999/xlink" x="0px" y="0px"
	 width="60px" height="60px" viewBox="0 0 60 60" style="enable-background:new 0 0 60 60;" xml:space="preserve">
<style type="text/css">
<![CDATA[
	.st0{enable-background:new    ;}
	
		.st1{fill-rule:evenodd;clip-rule:evenodd;fill:none;stroke:#231F20;stroke-width:1.5;stroke-linecap:round;stroke-linejoin:round;stroke-miterlimit:10;}
	.st2{fill:none;stroke:#231F20;stroke-width:1.3767;stroke-linecap:round;stroke-linejoin:round;stroke-miterlimit:10;}
	.st3{fill:none;stroke:#231F20;stroke-width:1.5269;stroke-linecap:round;stroke-linejoin:round;stroke-miterlimit:10;}
	.st4{fill:none;stroke:#231F20;stroke-width:1.5;stroke-linecap:round;stroke-linejoin:round;stroke-miterlimit:10;}
]]>
</style>
<g>
	<g>
		<g>
			<g>
				<g class="st0">
					<g>
						<polyline class="st4" points="58.844,54.113 1.156,53.91 1.156,5.887 						"/>
					</g>
				</g>
			</g>
		</g>
	</g>
	<g>
		<g>
			<g>
				<g class="st0">
					<g>
						<line class="st4" x1="58.844" y1="53.91" x2="58.844" y2="5.924"/>
					</g>
				</g>
			</g>
		</g>
	</g>
	<g>
		<line class="st4" x1="39.978" y1="41.924" x2="58.844" y2="41.924"/>
		<line class="st4" x1="1.769" y1="41.924" x2="33.978" y2="41.924"/>
	</g>
	<g>
		<line class="st4" x1="51.853" y1="29.924" x2="58.844" y2="29.924"/>
		<line class="st4" x1="28.103" y1="29.924" x2="45.478" y2="29.924"/>
		<line class="st4" x1="1.769" y1="29.924" x2="22.103" y2="29.924"/>
	</g>
	<g>
		<line class="st4" x1="16.103" y1="17.924" x2="58.844" y2="17.924"/>
		<line class="st4" x1="1.769" y1="17.924" x2="10.103" y2="17.924"/>
	</g>
	<g>
		<line class="st4" x1="1.156" y1="5.887" x2="58.844" y2="5.924"/>
	</g>
	<g>
		<path class="st2" d="M7.14,53.962"/>
		<path class="st2" d="M7.14,5.887"/>
		<line class="st2" x1="13.14" y1="21.007" x2="13.14" y2="53.962"/>
		<line class="st2" x1="13.14" y1="5.887" x2="13.14" y2="15.007"/>
	</g>
	<g>
		<line class="st2" x1="25.14" y1="32.757" x2="25.14" y2="53.962"/>
		<line class="st2" x1="25.14" y1="5.887" x2="25.14" y2="26.757"/>
	</g>
	<g>
		<line class="st2" x1="37.14" y1="45.008" x2="37.14" y2="53.962"/>
		<line class="st2" x1="37.14" y1="5.887" x2="37.14" y2="39.007"/>
	</g>
	<g>
		<line class="st2" x1="49.14" y1="33.257" x2="49.14" y2="53.962"/>
		<line class="st2" x1="49.14" y1="5.887" x2="49.14" y2="26.882"/>
	</g>
	<circle class="st4" cx="13.103" cy="18.007" r="3"/>
	<circle class="st4" cx="25.103" cy="29.757" r="3"/>
	<circle class="st4" cx="36.978" cy="42.007" r="3"/>
	<circle class="st4" cx="48.853" cy="30.007" r="3"/>
	<line class="st4" x1="15.228" y1="20.132" x2="22.54" y2="27.444"/>
	<line class="st4" x1="26.978" y1="32.007" x2="34.853" y2="39.507"/>
	<line class="st4" x1="39.228" y1="40.007" x2="46.603" y2="32.382"/>
</g>
</svg>
