<?xml version="1.0" encoding="utf-8"?>
<!-- Generator: Adobe Illustrator 16.0.0, SVG Export Plug-In . SVG Version: 6.00 Build 0)  -->
<!DOCTYPE svg PUBLIC "-//W3C//DTD SVG 1.1//EN" "http://www.w3.org/Graphics/SVG/1.1/DTD/svg11.dtd">
<svg version="1.1" id="Layer_1" xmlns="http://www.w3.org/2000/svg" xmlns:xlink="http://www.w3.org/1999/xlink" x="0px" y="0px"
	 width="60px" height="60px" viewBox="0 0 60 60" style="enable-background:new 0 0 60 60;" xml:space="preserve">
<style type="text/css">
<![CDATA[
	.st0{enable-background:new    ;}
	
		.st1{fill-rule:evenodd;clip-rule:evenodd;fill:none;stroke:#231F20;stroke-width:1.5;stroke-linecap:round;stroke-linejoin:round;stroke-miterlimit:10;}
	.st2{fill:none;stroke:#231F20;stroke-width:1.3767;stroke-linecap:round;stroke-linejoin:round;stroke-miterlimit:10;}
	.st3{fill:none;stroke:#231F20;stroke-width:1.5269;stroke-linecap:round;stroke-linejoin:round;stroke-miterlimit:10;}
	.st4{fill:none;stroke:#231F20;stroke-width:1.5;stroke-linecap:round;stroke-linejoin:round;stroke-miterlimit:10;}
]]>
</style>
<g>
	<path class="st1" d="M21.526,11.976c2.74,0,5.536-2.588,5.536-5.333c0-2.739-2.663-5.532-5.406-5.532
		c-2.741,0-5.465,2.859-5.465,5.599C16.191,9.453,18.781,11.976,21.526,11.976z M32.328,20.38c0-2.692,0.178-2.432,0-4.113
		c-0.688-2.058-2.057-2.743-3.428-2.743c-2.933,0-3.904,0-6.172,0c-2.75,0-4.087-0.005-6.832-0.005
		c-1.372,0-2.264-0.093-3.281,0.833c-1.387,1.571-1.249,1.711-1.249,6.094c0,2.17,0,5.955,0,8.373c0,2.167-0.366,5.536,1.805,5.536
		c2.054,0,2.038-1.465,2.038-3.654c0-3.089-0.008-3.894-0.008-5.717c0-1.996-0.114-2.335,0.288-2.335
		c0.406,0,0.402,0.024,0.402,2.146c0,1.963-0.016,29.639-0.016,31.237c0,1.372,0.73,2.838,2.793,2.838
		c2.06,0,2.919-1.201,2.919-2.572c0-2.47,0-13.229,0-14.4c0-1.371,0.048-2.035,0.386-2.035c0.347,0,0.3,0.664,0.3,2.035
		c0,1.238,0,11.865,0,14.4c0,0.853,0.906,2.704,2.961,2.704c1.372,0,2.633-1.762,2.633-2.678c0-5.483,0.03-29.886,0.03-31.61
		c0-0.934-0.077-2.124,0.271-2.124c0.349,0,0.345,0.318,0.345,1.67c0,1.543,0,3.111,0,5.279c0,3.605,0.559,4.553,1.929,4.553
		c2.056,0,1.884-3.522,1.884-5.483C32.328,25.933,32.328,23.101,32.328,20.38z"/>
</g>
<g>
	<path class="st4" d="M45.934,6.012c0.764,0,1.407,0.256,1.934,0.768c0.528,0.514,0.79,1.149,0.79,1.915
		c0,0.735-0.262,1.366-0.79,1.892c-0.526,0.526-1.17,0.792-1.934,0.792h-2.287v2.286c0,0.764-0.265,1.409-0.789,1.933
		c-0.527,0.528-1.158,0.79-1.895,0.79c-0.763,0-1.4-0.262-1.915-0.79c-0.511-0.524-0.769-1.169-0.769-1.933v-2.286h-2.328
		c-0.763,0-1.394-0.266-1.893-0.792c-0.5-0.526-0.75-1.157-0.75-1.892c0-0.766,0.25-1.401,0.75-1.915
		c0.5-0.512,1.13-0.768,1.893-0.768h2.328V3.684c0-0.763,0.257-1.403,0.769-1.915C39.563,1.255,40.201,1,40.964,1
		c0.736,0,1.368,0.255,1.895,0.769c0.524,0.512,0.789,1.151,0.789,1.915v2.328H45.934z"/>
</g>
</svg>
