<?xml version="1.0" encoding="utf-8"?>
<!-- Generator: Adobe Illustrator 16.0.0, SVG Export Plug-In . SVG Version: 6.00 Build 0)  -->
<!DOCTYPE svg PUBLIC "-//W3C//DTD SVG 1.1//EN" "http://www.w3.org/Graphics/SVG/1.1/DTD/svg11.dtd">
<svg version="1.1" id="Layer_1" xmlns="http://www.w3.org/2000/svg" xmlns:xlink="http://www.w3.org/1999/xlink" x="0px" y="0px"
	 width="60px" height="60px" viewBox="0 0 60 60" style="enable-background:new 0 0 60 60;" xml:space="preserve">
<style type="text/css">
<![CDATA[
	.st0{enable-background:new    ;}
	
		.st1{fill-rule:evenodd;clip-rule:evenodd;fill:none;stroke:#231F20;stroke-width:1.5;stroke-linecap:round;stroke-linejoin:round;stroke-miterlimit:10;}
	.st2{fill:none;stroke:#231F20;stroke-width:1.3767;stroke-linecap:round;stroke-linejoin:round;stroke-miterlimit:10;}
	.st3{fill:none;stroke:#231F20;stroke-width:1.5269;stroke-linecap:round;stroke-linejoin:round;stroke-miterlimit:10;}
	.st4{fill:none;stroke:#231F20;stroke-width:1.5;stroke-linecap:round;stroke-linejoin:round;stroke-miterlimit:10;}
]]>
</style>
<g>
	<g>
		<g>
			<g>
				<rect x="1.75" y="9.449" class="st4" width="5.138" height="41.102"/>
				<rect x="10.848" y="9.449" class="st4" width="4.405" height="41.102"/>
				<rect x="18.922" y="9.449" class="st4" width="4.403" height="41.102"/>
				<rect x="27.286" y="9.449" class="st4" width="4.403" height="41.102"/>
				<rect x="35.359" y="9.449" class="st4" width="4.405" height="41.102"/>
				<rect x="43.724" y="9.449" class="st4" width="5.138" height="41.102"/>
				<rect x="53.113" y="9.449" class="st4" width="5.137" height="41.102"/>
				<line class="st4" x1="1.75" y1="30" x2="6.888" y2="30"/>
				<line class="st4" x1="10.848" y1="21.194" x2="15.253" y2="21.194"/>
				<line class="st4" x1="18.922" y1="14.588" x2="23.325" y2="14.588"/>
				<line class="st4" x1="27.286" y1="17.523" x2="31.689" y2="17.523"/>
				<line class="st4" x1="35.359" y1="21.194" x2="39.764" y2="21.194"/>
				<line class="st4" x1="43.724" y1="28.533" x2="48.862" y2="28.533"/>
				<line class="st4" x1="53.113" y1="35.871" x2="58.25" y2="35.871"/>
			</g>
		</g>
	</g>
</g>
</svg>
