<?xml version="1.0" encoding="utf-8"?>
<!-- Generator: Adobe Illustrator 16.0.0, SVG Export Plug-In . SVG Version: 6.00 Build 0)  -->
<!DOCTYPE svg PUBLIC "-//W3C//DTD SVG 1.1//EN" "http://www.w3.org/Graphics/SVG/1.1/DTD/svg11.dtd">
<svg version="1.1" id="Layer_1" xmlns="http://www.w3.org/2000/svg" xmlns:xlink="http://www.w3.org/1999/xlink" x="0px" y="0px"
	 width="60px" height="60px" viewBox="0 0 60 60" style="enable-background:new 0 0 60 60;" xml:space="preserve">
<style type="text/css">
<![CDATA[
	.st0{enable-background:new    ;}
	
		.st1{fill-rule:evenodd;clip-rule:evenodd;fill:none;stroke:#231F20;stroke-width:1.5;stroke-linecap:round;stroke-linejoin:round;stroke-miterlimit:10;}
	.st2{fill:none;stroke:#231F20;stroke-width:1.3767;stroke-linecap:round;stroke-linejoin:round;stroke-miterlimit:10;}
	.st3{fill:none;stroke:#231F20;stroke-width:1.5269;stroke-linecap:round;stroke-linejoin:round;stroke-miterlimit:10;}
	.st4{fill:none;stroke:#231F20;stroke-width:1.5;stroke-linecap:round;stroke-linejoin:round;stroke-miterlimit:10;}
]]>
</style>
<g>
	<g>
		<g>
			<path class="st4" d="M7.433,52.067"/>
			<g>
				<line class="st4" x1="11.221" y1="51.834" x2="11.221" y2="25.91"/>
				<line class="st4" x1="22.5" y1="51.834" x2="22.5" y2="24.382"/>
				<line class="st4" x1="33.833" y1="51.834" x2="33.833" y2="27.437"/>
				<line class="st4" x1="45.312" y1="51.834" x2="45.312" y2="24.382"/>
				<line class="st4" x1="16.833" y1="51.834" x2="16.833" y2="37.372"/>
				<line class="st4" x1="28.25" y1="51.834" x2="28.25" y2="36.607"/>
				<line class="st4" x1="39.625" y1="51.834" x2="39.625" y2="38.134"/>
				<line class="st4" x1="50.812" y1="51.834" x2="50.812" y2="36.607"/>
			</g>
			<circle class="st4" cx="11.996" cy="13.637" r="2.149"/>
			<circle class="st4" cx="17.344" cy="18.221" r="2.148"/>
			<circle class="st4" cx="23.457" cy="12.109" r="2.149"/>
			<circle class="st4" cx="28.806" cy="21.278" r="2.149"/>
			<circle class="st4" cx="34.154" cy="15.93" r="2.149"/>
			<circle class="st4" cx="40.266" cy="23.57" r="2.149"/>
			<circle class="st4" cx="45.615" cy="15.93" r="2.149"/>
			<circle class="st4" cx="51.727" cy="23.57" r="2.149"/>
			<line class="st4" x1="13.5" y1="15.083" x2="15.417" y2="16.75"/>
			<line class="st4" x1="18.75" y1="16.667" x2="22.167" y2="13.917"/>
			<line class="st4" x1="24.583" y1="14.167" x2="27.667" y2="19.5"/>
			<line class="st4" x1="30.333" y1="19.75" x2="32.75" y2="17.75"/>
			<line class="st4" x1="35.75" y1="17.583" x2="38.583" y2="21.667"/>
			<line class="st4" x1="41.417" y1="21.5" x2="44.333" y2="17.917"/>
			<line class="st4" x1="47.083" y1="17.583" x2="50.417" y2="21.75"/>
			<g>
				<g>
					<g>
						<path class="st4" d="M5.631,6.763H3.242 M5.631,3v49.066H1.382 M5.631,46.487H3.242 M5.631,40.812H3.242 M5.631,35.139H3.242
							 M5.631,29.463H3.242 M5.631,23.789H3.242 M5.631,18.111H3.242 M5.631,12.442H3.242 M50.932,54.457v-2.389 M5.629,56.317
							v-4.249h49.065 M11.208,54.457v-2.389 M16.882,54.457v-2.389 M22.556,54.457v-2.389 M28.232,54.457v-2.389 M33.907,54.457
							v-2.389 M39.583,54.457v-2.389 M45.253,54.457v-2.389"/>
					</g>
				</g>
			</g>
		</g>
	</g>
</g>
</svg>
