<?xml version="1.0" encoding="utf-8"?>
<!-- Generator: Adobe Illustrator 16.0.0, SVG Export Plug-In . SVG Version: 6.00 Build 0)  -->
<!DOCTYPE svg PUBLIC "-//W3C//DTD SVG 1.1//EN" "http://www.w3.org/Graphics/SVG/1.1/DTD/svg11.dtd">
<svg version="1.1" id="Layer_1" xmlns="http://www.w3.org/2000/svg" xmlns:xlink="http://www.w3.org/1999/xlink" x="0px" y="0px"
	 width="60px" height="60px" viewBox="0 0 60 60" style="enable-background:new 0 0 60 60;" xml:space="preserve">
<style type="text/css">
<![CDATA[
	.st0{enable-background:new    ;}
	
		.st1{fill-rule:evenodd;clip-rule:evenodd;fill:none;stroke:#231F20;stroke-width:1.5;stroke-linecap:round;stroke-linejoin:round;stroke-miterlimit:10;}
	.st2{fill:none;stroke:#231F20;stroke-width:1.3767;stroke-linecap:round;stroke-linejoin:round;stroke-miterlimit:10;}
	.st3{fill:none;stroke:#231F20;stroke-width:1.5269;stroke-linecap:round;stroke-linejoin:round;stroke-miterlimit:10;}
	.st4{fill:none;stroke:#231F20;stroke-width:1.5;stroke-linecap:round;stroke-linejoin:round;stroke-miterlimit:10;}
]]>
</style>
<g>
	<g id="XMLID_17_">
		<g id="XMLID_2_">
			<g>
				<g>
					<g>
						<path class="st4" d="M55.215,1c1.42,0,2.572,1.155,2.572,2.574v37.978c0,1.419-1.152,2.577-2.572,2.577H42.428H18.205H4.787
							c-1.42,0-2.574-1.157-2.574-2.577V3.574C2.213,2.155,3.367,1,4.787,1H55.215z"/>
						<path class="st4" d="M40.447,44.5c-1.072,1.637-3.123,5.836-2.17,7.699c0.393,0.769,1.189,1.157,2.371,1.157
							c4.008,0,6.059,0.963,6.674,1.314v2.804H12.68l-0.002-2.29c0.053-0.507,1.297-1.829,6.346-1.829
							c1.754,0,2.891-0.516,3.379-1.532c0.943-1.966-1.002-5.792-2.092-7.324"/>
					</g>
				</g>
			</g>
		</g>
	</g>
	<g id="XMLID_16_">
		<g id="XMLID_1_">
			<g>
				<g>
					<g>
						<line class="st4" x1="54.561" y1="37.536" x2="5.439" y2="37.536"/>
					</g>
				</g>
			</g>
		</g>
	</g>
	<polyline class="st4" points="33.129,31.846 11.648,31.846 11.648,10.366 	"/>
	<g>
		<g>
			<g>
				<path class="st4" d="M44.025,13.382h5.682c0-3.137-2.543-5.681-5.682-5.681V13.382z"/>
				<path class="st4" d="M43.314,7.751c-2.801,0.35-4.973,2.736-4.973,5.631c0,3.137,2.547,5.683,5.684,5.683
					c2.896,0,5.281-2.17,5.633-4.972"/>
			</g>
		</g>
		<g>
			<g>
				<path class="st4" d="M44.025,28.216h5.682c0-3.137-2.543-5.681-5.682-5.681V28.216z"/>
				<path class="st4" d="M43.314,22.584c-2.801,0.35-4.973,2.736-4.973,5.631c0,3.137,2.547,5.683,5.684,5.683
					c2.896,0,5.281-2.17,5.633-4.972"/>
			</g>
		</g>
	</g>
</g>
<g>
	<g>
		<circle class="st4" cx="16.907" cy="21.913" r="1.773"/>
		<circle class="st4" cx="26.992" cy="22.07" r="1.773"/>
		<circle class="st4" cx="26.939" cy="12.09" r="1.773"/>
		<line class="st4" x1="18.632" y1="22.069" x2="25.059" y2="21.913"/>
		<line class="st4" x1="27.097" y1="20.293" x2="26.991" y2="14.023"/>
	</g>
	<g>
		<circle class="st4" cx="31.956" cy="17.105" r="1.773"/>
		<circle class="st4" cx="21.871" cy="16.949" r="1.773"/>
		<circle class="st4" cx="21.923" cy="26.929" r="1.774"/>
		<line class="st4" x1="30.231" y1="16.949" x2="23.804" y2="17.105"/>
		<line class="st4" x1="21.767" y1="18.725" x2="21.872" y2="24.996"/>
	</g>
</g>
</svg>
