<?xml version="1.0" encoding="utf-8"?>
<!-- Generator: Adobe Illustrator 16.0.0, SVG Export Plug-In . SVG Version: 6.00 Build 0)  -->
<!DOCTYPE svg PUBLIC "-//W3C//DTD SVG 1.1//EN" "http://www.w3.org/Graphics/SVG/1.1/DTD/svg11.dtd">
<svg version="1.1" id="Layer_1" xmlns="http://www.w3.org/2000/svg" xmlns:xlink="http://www.w3.org/1999/xlink" x="0px" y="0px"
	 width="60px" height="60px" viewBox="0 0 60 60" style="enable-background:new 0 0 60 60;" xml:space="preserve">
<style type="text/css">
<![CDATA[
	.st0{enable-background:new    ;}
	
		.st1{fill-rule:evenodd;clip-rule:evenodd;fill:none;stroke:#231F20;stroke-width:1.5;stroke-linecap:round;stroke-linejoin:round;stroke-miterlimit:10;}
	.st2{fill:none;stroke:#231F20;stroke-width:1.3767;stroke-linecap:round;stroke-linejoin:round;stroke-miterlimit:10;}
	.st3{fill:none;stroke:#231F20;stroke-width:1.5269;stroke-linecap:round;stroke-linejoin:round;stroke-miterlimit:10;}
	.st4{fill:none;stroke:#231F20;stroke-width:1.5;stroke-linecap:round;stroke-linejoin:round;stroke-miterlimit:10;}
]]>
</style>
<g>
	<g>
		<g>
			<g>
				<polyline class="st4" points="54.686,49.13 51.013,44.803 36.666,32.056 17.573,19.117 15.143,21.429 8.235,47.72 				"/>
			</g>
		</g>
		<g>
			<g>
				<polyline class="st4" points="54.686,49.13 54.688,45.555 33.426,17.94 21.276,30.636 8.235,47.72 				"/>
			</g>
		</g>
		<g>
			<g>
				<polyline class="st4" points="54.68,49.13 54.688,46.017 38.401,42.882 17.573,41.678 8.083,20.382 				"/>
			</g>
		</g>
		<g>
			<g>
				<g>
					<path class="st4" d="M5.631,6.763H3.242 M5.631,3v49.066H1.382 M5.631,46.487H3.242 M5.631,40.812H3.242 M5.631,35.139H3.242
						 M5.631,29.463H3.242 M5.631,23.789H3.242 M5.631,18.111H3.242 M5.631,12.442H3.242 M50.932,54.457v-2.389 M5.629,56.317
						v-4.249h49.065 M11.208,54.457v-2.389 M16.882,54.457v-2.389 M22.556,54.457v-2.389 M28.232,54.457v-2.389 M33.907,54.457
						v-2.389 M39.583,54.457v-2.389 M45.253,54.457v-2.389"/>
				</g>
			</g>
		</g>
	</g>
</g>
</svg>
