<?xml version="1.0" encoding="utf-8"?>
<!-- Generator: Adobe Illustrator 16.0.0, SVG Export Plug-In . SVG Version: 6.00 Build 0)  -->
<!DOCTYPE svg PUBLIC "-//W3C//DTD SVG 1.1//EN" "http://www.w3.org/Graphics/SVG/1.1/DTD/svg11.dtd">
<svg version="1.1" id="Layer_1" xmlns="http://www.w3.org/2000/svg" xmlns:xlink="http://www.w3.org/1999/xlink" x="0px" y="0px"
	 width="60px" height="60px" viewBox="0 0 60 60" style="enable-background:new 0 0 60 60;" xml:space="preserve">
<style type="text/css">
<![CDATA[
	.st0{enable-background:new    ;}
	
		.st1{fill-rule:evenodd;clip-rule:evenodd;fill:none;stroke:#231F20;stroke-width:1.5;stroke-linecap:round;stroke-linejoin:round;stroke-miterlimit:10;}
	.st2{fill:none;stroke:#231F20;stroke-width:1.3767;stroke-linecap:round;stroke-linejoin:round;stroke-miterlimit:10;}
	.st3{fill:none;stroke:#231F20;stroke-width:1.5269;stroke-linecap:round;stroke-linejoin:round;stroke-miterlimit:10;}
	.st4{fill:none;stroke:#231F20;stroke-width:1.5;stroke-linecap:round;stroke-linejoin:round;stroke-miterlimit:10;}
]]>
</style>
<g>
	<g>
		<path class="st4" d="M15.438,43.796c0,0,3.848-0.568,5.771-11.341c0,0,0.245-1.369,0.736-2.965
			c-0.131-0.622-0.258-1.27-0.379-1.947c0,0-2.366-11.339-6.371-11.339c-4.004,0-6.005,11.339-6.005,11.339
			C6.459,42.832,1,43.796,1,43.796"/>
		<path class="st4" d="M30.529,35.266c-0.213-0.85-0.414-1.783-0.598-2.811c0,0-1.667-7.878-4.489-7.878
			c-1.646,0-2.811,2.68-3.497,4.913c1.447,6.877,3.46,12.399,5.081,14.26C28.114,42.502,29.378,38.539,30.529,35.266z"/>
		<path class="st4" d="M44.506,32.455c0,0,0.246-1.369,0.736-2.964c-0.131-0.623-0.258-1.271-0.379-1.948
			c0,0-2.366-11.339-6.37-11.339c-4.004,0-6.007,11.339-6.007,11.339c-0.561,3.14-1.236,5.675-1.957,7.723
			c2.025,8.065,5.174,8.531,5.174,8.531h3.032C38.735,43.796,42.582,43.229,44.506,32.455z"/>
		<path class="st4" d="M59,43.796c0,0-3.849-0.568-5.772-11.341c0,0-1.667-7.878-4.489-7.878c-1.646,0-2.811,2.68-3.497,4.914
			c2.825,13.422,7.812,14.305,7.812,14.305"/>
	</g>
</g>
<line class="st4" x1="1" y1="43.796" x2="59" y2="43.796"/>
</svg>
