<?xml version="1.0" encoding="utf-8"?>
<!-- Generator: Adobe Illustrator 16.0.0, SVG Export Plug-In . SVG Version: 6.00 Build 0)  -->
<!DOCTYPE svg PUBLIC "-//W3C//DTD SVG 1.1//EN" "http://www.w3.org/Graphics/SVG/1.1/DTD/svg11.dtd">
<svg version="1.1" id="Layer_1" xmlns="http://www.w3.org/2000/svg" xmlns:xlink="http://www.w3.org/1999/xlink" x="0px" y="0px"
	 width="60px" height="60px" viewBox="0 0 60 60" style="enable-background:new 0 0 60 60;" xml:space="preserve">
<style type="text/css">
<![CDATA[
	.st0{enable-background:new    ;}
	
		.st1{fill-rule:evenodd;clip-rule:evenodd;fill:none;stroke:#231F20;stroke-width:1.5;stroke-linecap:round;stroke-linejoin:round;stroke-miterlimit:10;}
	.st2{fill:none;stroke:#231F20;stroke-width:1.3767;stroke-linecap:round;stroke-linejoin:round;stroke-miterlimit:10;}
	.st3{fill:none;stroke:#231F20;stroke-width:1.5269;stroke-linecap:round;stroke-linejoin:round;stroke-miterlimit:10;}
	.st4{fill:none;stroke:#231F20;stroke-width:1.5;stroke-linecap:round;stroke-linejoin:round;stroke-miterlimit:10;}
]]>
</style>
<g>
	<g>
		<g>
			<path class="st4" d="M22.246,4.287l-0.021,51.278c0.025,1.345,3.695,3.256,8.223,3.256c4.525,0,8.197-1.152,8.219-2.896l0,0
				l0.041-51.327"/>
			<ellipse class="st4" cx="30.445" cy="4.088" rx="8.221" ry="3.088"/>
			<path class="st4" d="M42.354,15.543L42.279,55.25l-0.059-0.12v0.024v0.77h0.113C42.355,57.668,46.027,59,50.553,59
				c4.529,0,8.199-1.332,8.223-3.076l0,0l0.039-40.071"/>
			<path class="st4" d="M42.334,15.346c0-1.706,3.68-3.09,8.219-3.09c4.543,0,8.223,1.384,8.223,3.09
				c0,1.708-3.68,3.093-8.223,3.093C46.014,18.439,42.334,17.054,42.334,15.346z"/>
			<path class="st4" d="M1.223,15.37L1.186,55.564c0.021,1.345,3.777,2.909,8.305,2.909c4.529,0,8.307-1.408,8.307-3.161v-0.042
				l-0.035-39.765"/>
			<path class="st4" d="M1.186,15.346c0-1.706,3.68-3.09,8.219-3.09c4.543,0,8.223,1.384,8.223,3.09c0,1.708-3.68,3.093-8.223,3.093
				C4.865,18.439,1.186,17.054,1.186,15.346z"/>
		</g>
	</g>
</g>
</svg>
