<?xml version="1.0" encoding="utf-8"?>
<!-- Generator: Adobe Illustrator 16.0.3, SVG Export Plug-In . SVG Version: 6.00 Build 0)  -->
<!DOCTYPE svg PUBLIC "-//W3C//DTD SVG 1.1//EN" "http://www.w3.org/Graphics/SVG/1.1/DTD/svg11.dtd">
<svg version="1.1" id="Layer_1" xmlns="http://www.w3.org/2000/svg" xmlns:xlink="http://www.w3.org/1999/xlink" x="0px" y="0px"
	 width="60px" height="60px" viewBox="0 0 60 60" enable-background="new 0 0 60 60" xml:space="preserve">
<g>
	<path  d="M36.358,39.785H3.796c-0.36,0-0.653-0.293-0.653-0.652V12.406l24.505,17.111
		c0.135,0.096,0.292,0.143,0.449,0.143c0.158,0,0.317-0.047,0.452-0.143l24.502-17.23v12.637c0,0.869,0.704,1.572,1.572,1.572
		c0.867,0,1.571-0.703,1.571-1.572V12.219c0-1.102-0.477-2.146-1.308-2.867c-0.69-0.6-1.573-0.93-2.488-0.93H3.796
		C1.703,8.422,0,10.125,0,12.219v26.914c0,2.094,1.703,3.795,3.796,3.795h32.562c0.868,0,1.571-0.703,1.571-1.57
		C37.93,40.488,37.227,39.785,36.358,39.785z M28.096,27.914L4.682,11.564h46.664L28.096,27.914z"/>
	<path  d="M58.429,36.238h-0.617V35.4c0-4.445-3.615-8.061-8.059-8.061c-4.444,0-8.06,3.615-8.06,8.061v0.838h-0.616
		c-0.868,0-1.571,0.703-1.571,1.57v12.197c0,0.869,0.703,1.572,1.571,1.572h17.352c0.868,0,1.571-0.703,1.571-1.572V37.809
		C60,36.941,59.297,36.238,58.429,36.238z M44.836,35.4c0-2.711,2.206-4.918,4.917-4.918s4.916,2.207,4.916,4.918v0.838h-9.833V35.4
		z M56.857,48.436H42.648v-9.055h14.209V48.436z"/>
	<path  d="M48.803,44.434v2.576h1.956v-2.527c0.811-0.359,1.38-1.17,1.38-2.113c0-1.275-1.037-2.312-2.312-2.312
		s-2.312,1.037-2.312,2.312C47.514,43.275,48.042,44.055,48.803,44.434z M49.826,41.539c0.458,0,0.83,0.373,0.83,0.83
		c0,0.008-0.002,0.016-0.002,0.023h-0.089c0-0.008,0.002-0.016,0.002-0.023c0-0.408-0.331-0.742-0.741-0.742
		c-0.409,0-0.741,0.334-0.741,0.742c0,0.008,0.002,0.016,0.002,0.023h-0.089c0-0.008-0.002-0.016-0.002-0.023
		C48.996,41.912,49.368,41.539,49.826,41.539z"/>
</g>
</svg>
