<?xml version="1.0" encoding="utf-8"?>
<!-- Generator: Adobe Illustrator 16.0.3, SVG Export Plug-In . SVG Version: 6.00 Build 0)  -->
<!DOCTYPE svg PUBLIC "-//W3C//DTD SVG 1.1//EN" "http://www.w3.org/Graphics/SVG/1.1/DTD/svg11.dtd">
<svg version="1.1" id="Layer_1" xmlns="http://www.w3.org/2000/svg" xmlns:xlink="http://www.w3.org/1999/xlink" x="0px" y="0px"
	 width="60px" height="60px" viewBox="0 0 60 60" enable-background="new 0 0 60 60" xml:space="preserve">
<g>
	<path  d="M53.822,26.927c-0.652-0.566-1.486-0.878-2.348-0.878H8.525c-1.977,0-3.584,1.607-3.584,3.584v23.784
		C4.941,55.393,6.549,57,8.525,57h42.949c1.976,0,3.584-1.607,3.584-3.583V29.633C55.059,28.592,54.606,27.605,53.822,26.927z
		 M50.018,29.284L29.997,43.363L9.834,29.284H50.018z M51.475,53.764H8.525c-0.191,0-0.348-0.155-0.348-0.347V30.102l21.359,14.913
		c0.139,0.098,0.301,0.146,0.462,0.146c0.163,0,0.326-0.048,0.466-0.146l21.356-15.019v23.422
		C51.821,53.608,51.666,53.764,51.475,53.764z"/>
	<path  d="M38.804,13.842l-1.577-1.476l-6.175,6.619l0.026-14.904C31.079,3.485,30.597,3.002,30.001,3
		c0,0-0.001,0-0.002,0c-0.595,0-1.077,0.482-1.078,1.077l-0.026,14.909l-6.153-6.646l-1.584,1.469l8.806,9.506L38.804,13.842z"/>
</g>
</svg>
