<?xml version="1.0" encoding="utf-8"?>
<!-- Generator: Adobe Illustrator 16.0.3, SVG Export Plug-In . SVG Version: 6.00 Build 0)  -->
<!DOCTYPE svg PUBLIC "-//W3C//DTD SVG 1.1//EN" "http://www.w3.org/Graphics/SVG/1.1/DTD/svg11.dtd">
<svg version="1.1" id="Layer_1" xmlns="http://www.w3.org/2000/svg" xmlns:xlink="http://www.w3.org/1999/xlink" x="0px" y="0px"
	 width="60px" height="60px" viewBox="0 0 60 60" enable-background="new 0 0 60 60" xml:space="preserve">
<g>
	<path  d="M35.266,40.256H3.682c-0.349,0-0.633-0.283-0.633-0.633V13.701l23.767,16.596
		c0.132,0.092,0.284,0.139,0.437,0.139c0.153,0,0.308-0.047,0.438-0.139l23.766-16.713v12.258c0,0.842,0.683,1.523,1.524,1.523
		s1.524-0.682,1.524-1.523V13.518c0-1.068-0.463-2.082-1.269-2.781c-0.669-0.582-1.526-0.9-2.413-0.9H3.682
		C1.651,9.836,0,11.486,0,13.518v26.105c0,2.029,1.651,3.682,3.682,3.682h31.584c0.842,0,1.523-0.682,1.523-1.525
		C36.789,40.938,36.107,40.256,35.266,40.256z M27.251,28.742L4.541,12.883h45.261L27.251,28.742z"/>
	<path  d="M56.798,31.471c-2.068-2.068-4.818-3.207-7.744-3.207c-2.925,0-5.675,1.139-7.745,3.207
		c-4.269,4.27-4.268,11.217,0.002,15.486c2.068,2.068,4.819,3.207,7.744,3.207c2.926,0,5.675-1.139,7.743-3.207
		C61.067,42.688,61.067,35.74,56.798,31.471z M54.643,44.803c-1.492,1.492-3.477,2.314-5.588,2.314c-2.11,0-4.096-0.822-5.589-2.316
		c-3.081-3.08-3.081-8.094-0.001-11.174c1.493-1.494,3.479-2.316,5.589-2.316c2.111,0,4.096,0.822,5.589,2.314
		C57.723,36.707,57.723,41.721,54.643,44.803z"/>
	<path  d="M54.229,37.098l-4.354,4.684V34.33c0-0.422-0.341-0.764-0.762-0.764s-0.763,0.342-0.763,0.764v7.455
		l-4.354-4.688l-1.117,1.041l6.232,6.703l6.234-6.703L54.229,37.098z"/>
</g>
</svg>
