<?xml version="1.0" encoding="utf-8"?>
<!-- Generator: Adobe Illustrator 16.0.3, SVG Export Plug-In . SVG Version: 6.00 Build 0)  -->
<!DOCTYPE svg PUBLIC "-//W3C//DTD SVG 1.1//EN" "http://www.w3.org/Graphics/SVG/1.1/DTD/svg11.dtd">
<svg version="1.1" id="Layer_1" xmlns="http://www.w3.org/2000/svg" xmlns:xlink="http://www.w3.org/1999/xlink" x="0px" y="0px"
	 width="60px" height="60px" viewBox="0 0 60 60" enable-background="new 0 0 60 60" xml:space="preserve">
<g>
	<path  d="M16.875,8.911h5.582c0.293,0,0.529-0.237,0.529-0.53s-0.236-0.53-0.529-0.53h-5.582
		c-0.293,0-0.531,0.237-0.531,0.53S16.582,8.911,16.875,8.911z"/>
	<path  d="M23.811,11.702h18.943c0.293,0,0.529-0.237,0.529-0.53c0-0.294-0.236-0.531-0.529-0.531H23.811
		c-0.295,0-0.531,0.237-0.531,0.531C23.279,11.465,23.516,11.702,23.811,11.702z"/>
	<path  d="M16.875,17.453h25.879c0.293,0,0.529-0.237,0.529-0.53s-0.236-0.53-0.529-0.53H16.875
		c-0.293,0-0.531,0.237-0.531,0.53S16.582,17.453,16.875,17.453z"/>
	<path  d="M16.875,23.457h25.879c0.293,0,0.529-0.236,0.529-0.53c0-0.293-0.236-0.53-0.529-0.53H16.875
		c-0.293,0-0.531,0.237-0.531,0.53C16.344,23.221,16.582,23.457,16.875,23.457z"/>
	<path  d="M43.283,28.425c0-0.294-0.236-0.53-0.529-0.53H16.875c-0.293,0-0.531,0.236-0.531,0.53
		c0,0.293,0.238,0.53,0.531,0.53h25.879C43.047,28.955,43.283,28.718,43.283,28.425z"/>
	<path  d="M40.648,39.875c-0.145-0.126-0.33-0.194-0.521-0.194h-0.002l-20.213,0.037
		c-0.188,0-0.369,0.066-0.512,0.187l-7.82,6.59c-0.336,0.283-0.379,0.785-0.098,1.121c0.158,0.187,0.383,0.283,0.609,0.283
		c0.182,0,0.363-0.062,0.514-0.188l7.598-6.402l19.627-0.037l7.346,6.369c0.332,0.289,0.834,0.253,1.121-0.079
		c0.289-0.332,0.252-0.835-0.08-1.122L40.648,39.875z"/>
	<path  d="M58.965,27.522c0.076-0.538-0.117-1.101-0.57-1.467L49.92,19.22c-0.406-0.328-0.924-0.418-1.395-0.297
		V1.591c0-0.879-0.711-1.591-1.59-1.591H13.066c-0.879,0-1.592,0.712-1.592,1.591v17.526c-0.512-0.195-1.109-0.128-1.566,0.24
		l-8.303,6.698c-0.453,0.366-0.648,0.929-0.57,1.467c-0.01,0.073-0.021,0.147-0.021,0.224v27.463C1.014,57.851,3.162,60,5.805,60
		h48.391c2.643,0,4.791-2.149,4.791-4.791V27.746C58.986,27.67,58.975,27.596,58.965,27.522z M54.195,56.817H5.805
		c-0.889,0-1.609-0.721-1.609-1.608V29.345L18.238,39.4c0.141,0.101,0.303,0.148,0.463,0.148c0.248,0,0.492-0.115,0.646-0.332
		c0.256-0.357,0.174-0.854-0.184-1.11L4.633,27.701l6.842-5.519v8.304c0,0.879,0.713,1.591,1.592,1.591s1.59-0.712,1.59-1.591V3.183
		h30.688v27.304c0,0.879,0.713,1.591,1.592,1.591s1.59-0.712,1.59-1.591v-8.303l6.701,5.404L40.781,38.11
		c-0.355,0.259-0.434,0.757-0.176,1.111c0.156,0.214,0.398,0.327,0.645,0.327c0.162,0,0.326-0.049,0.467-0.152l14.088-10.262v26.074
		C55.805,56.097,55.082,56.817,54.195,56.817z"/>
</g>
</svg>
