<?xml version="1.0" encoding="utf-8"?>
<!-- Generator: Adobe Illustrator 16.0.3, SVG Export Plug-In . SVG Version: 6.00 Build 0)  -->
<!DOCTYPE svg PUBLIC "-//W3C//DTD SVG 1.1//EN" "http://www.w3.org/Graphics/SVG/1.1/DTD/svg11.dtd">
<svg version="1.1" id="Layer_1" xmlns="http://www.w3.org/2000/svg" xmlns:xlink="http://www.w3.org/1999/xlink" x="0px" y="0px"
	 width="60px" height="60px" viewBox="0 0 60 60" enable-background="new 0 0 60 60" xml:space="preserve">
<g>
	<path  d="M34.758,40.257H3.682c-0.35,0-0.633-0.284-0.633-0.633V13.701l23.768,16.597
		c0.131,0.092,0.283,0.138,0.437,0.138s0.307-0.046,0.438-0.139l23.765-16.713v12.259c0,0.842,0.683,1.523,1.524,1.523
		c0.843,0,1.524-0.682,1.524-1.523V13.518c0-1.067-0.462-2.081-1.269-2.78c-0.669-0.582-1.525-0.902-2.413-0.902H3.682
		C1.651,9.835,0,11.487,0,13.518v26.106c0,2.029,1.651,3.681,3.682,3.681h31.076c0.842,0,1.524-0.682,1.524-1.524
		C36.282,40.938,35.6,40.257,34.758,40.257z M27.251,28.742L4.541,12.884h45.261L27.251,28.742z"/>
	<path  d="M56.797,31.471c-2.068-2.068-4.817-3.207-7.743-3.207c-2.925,0-5.675,1.139-7.743,3.207
		s-3.208,4.818-3.208,7.744c0,2.925,1.139,5.674,3.207,7.742c2.069,2.069,4.819,3.208,7.744,3.208s5.675-1.139,7.743-3.207
		C61.067,42.688,61.067,35.741,56.797,31.471z M54.642,44.803c-1.492,1.492-3.478,2.314-5.588,2.314s-4.096-0.822-5.589-2.315
		c-1.492-1.492-2.313-3.477-2.313-5.587c0-2.111,0.822-4.096,2.314-5.589c1.493-1.492,3.478-2.314,5.588-2.314
		c2.111,0,4.096,0.821,5.588,2.314C57.723,36.707,57.723,41.722,54.642,44.803z"/>
	<path  d="M50.191,39.273l3.178-3.178c0.298-0.297,0.298-0.779,0-1.077s-0.78-0.298-1.077,0l-3.179,3.178
		l-3.177-3.177c-0.298-0.298-0.779-0.298-1.077,0s-0.298,0.78,0,1.077l3.177,3.177l-3.178,3.178c-0.298,0.298-0.298,0.78,0,1.078
		c0.148,0.148,0.344,0.223,0.538,0.223c0.195,0,0.391-0.074,0.539-0.223l3.178-3.178l3.179,3.178
		c0.148,0.149,0.344,0.224,0.539,0.224s0.39-0.074,0.539-0.224c0.297-0.297,0.297-0.779,0-1.077L50.191,39.273z"/>
</g>
</svg>
