<?xml version="1.0" encoding="utf-8"?>
<!-- Generator: Adobe Illustrator 16.0.3, SVG Export Plug-In . SVG Version: 6.00 Build 0)  -->
<!DOCTYPE svg PUBLIC "-//W3C//DTD SVG 1.1//EN" "http://www.w3.org/Graphics/SVG/1.1/DTD/svg11.dtd">
<svg version="1.1" id="Layer_1" xmlns="http://www.w3.org/2000/svg" xmlns:xlink="http://www.w3.org/1999/xlink" x="0px" y="0px"
	 width="60px" height="60px" viewBox="0 0 60 60" enable-background="new 0 0 60 60" xml:space="preserve">
<g>
	<path  d="M21.544,13.74c0.244,0,0.49-0.08,0.697-0.243l6.975-5.51v23.622c0,0.622,0.504,1.126,1.126,1.126
		c0.621,0,1.125-0.504,1.125-1.126v-23.5l6.258,5.359c0.213,0.182,0.473,0.271,0.731,0.271c0.317,0,0.633-0.134,0.855-0.395
		c0.404-0.472,0.349-1.182-0.123-1.586l-8.115-6.95c-0.001-0.001-0.001-0.001-0.002-0.001c-0.018-0.016-0.038-0.027-0.056-0.041
		c-0.029-0.021-0.059-0.041-0.089-0.061c-0.013-0.008-0.023-0.018-0.036-0.024c-0.002-0.001-0.003-0.003-0.005-0.003
		c-0.018-0.011-0.038-0.017-0.057-0.025c-0.032-0.016-0.064-0.03-0.099-0.043c-0.008-0.002-0.016-0.007-0.023-0.01
		c-0.027-0.009-0.055-0.016-0.083-0.022c-0.034-0.009-0.067-0.017-0.103-0.022c-0.017-0.003-0.033-0.008-0.049-0.01
		c-0.023-0.003-0.047,0-0.07-0.002c-0.021-0.001-0.04-0.006-0.061-0.006c-0.014,0-0.027,0.003-0.041,0.004
		c-0.04,0.001-0.08,0.006-0.119,0.012c-0.035,0.005-0.068,0.01-0.103,0.018c-0.035,0.009-0.07,0.021-0.105,0.033
		s-0.07,0.024-0.103,0.04c-0.032,0.014-0.062,0.031-0.093,0.049c-0.033,0.021-0.065,0.039-0.097,0.062
		c-0.011,0.008-0.022,0.014-0.032,0.021c-0.002,0.002-0.004,0.002-0.006,0.004l-8.798,6.95c-0.487,0.386-0.57,1.093-0.186,1.581
		C20.882,13.593,21.211,13.74,21.544,13.74z"/>
	<path  d="M59.992,37.661c-0.003-0.061-0.009-0.12-0.019-0.182c-0.009-0.054-0.021-0.106-0.034-0.159
		c-0.014-0.051-0.029-0.103-0.048-0.153c-0.021-0.059-0.046-0.113-0.073-0.168c-0.013-0.026-0.021-0.054-0.035-0.079l-9.207-16.352
		c-0.299-0.531-0.861-0.859-1.471-0.859H42.54c-0.933,0-1.688,0.756-1.688,1.688c0,0.933,0.756,1.688,1.688,1.688h5.579
		l7.307,12.975H42.005c-0.933,0-1.688,0.756-1.688,1.688v3.561c0,0.052-0.042,0.094-0.093,0.094H19.776
		c-0.052,0-0.093-0.042-0.093-0.094v-3.561c0-0.933-0.755-1.688-1.688-1.688H4.639l7.631-12.975h5.543
		c0.933,0,1.688-0.756,1.688-1.688c0-0.932-0.755-1.688-1.688-1.688h-6.509c-0.599,0-1.151,0.316-1.455,0.832L0.233,36.893
		c-0.017,0.028-0.025,0.059-0.04,0.088c-0.029,0.057-0.057,0.111-0.079,0.171c-0.02,0.051-0.033,0.102-0.048,0.154
		s-0.028,0.104-0.037,0.159c-0.011,0.062-0.016,0.122-0.019,0.184C0.009,37.682,0,37.714,0,37.748v16.025
		c0,0.933,0.756,1.688,1.688,1.688h56.624c0.933,0,1.688-0.755,1.688-1.688V37.748C60,37.718,59.993,37.69,59.992,37.661z
		 M56.625,52.086H3.376v-12.65h12.933v1.873c0,1.913,1.556,3.469,3.468,3.469h20.448c1.912,0,3.469-1.556,3.469-3.469v-1.873h12.932
		V52.086z"/>
</g>
</svg>
