<?xml version="1.0" encoding="utf-8"?>
<!-- Generator: Adobe Illustrator 16.0.3, SVG Export Plug-In . SVG Version: 6.00 Build 0)  -->
<!DOCTYPE svg PUBLIC "-//W3C//DTD SVG 1.1//EN" "http://www.w3.org/Graphics/SVG/1.1/DTD/svg11.dtd">
<svg version="1.1" id="Layer_1" xmlns="http://www.w3.org/2000/svg" xmlns:xlink="http://www.w3.org/1999/xlink" x="0px" y="0px"
	 width="60px" height="60px" viewBox="0 0 60 60" enable-background="new 0 0 60 60" xml:space="preserve">
<g>
	<path  d="M41.021,38.355c-0.15-0.131-0.342-0.202-0.54-0.202H40.48l-20.922,0.039c-0.193,0-0.38,0.068-0.528,0.193
		l-8.095,6.82c-0.348,0.293-0.392,0.812-0.099,1.16c0.163,0.193,0.396,0.293,0.63,0.293c0.188,0,0.376-0.064,0.53-0.193l7.864-6.628
		l20.313-0.037l7.602,6.592c0.343,0.299,0.864,0.261,1.161-0.083c0.298-0.344,0.261-0.863-0.083-1.161L41.021,38.355z"/>
	<path  d="M59.977,25.57c0.08-0.557-0.12-1.139-0.589-1.518L31.034,1.181c-0.604-0.486-1.465-0.486-2.068,0
		L0.612,24.053c-0.469,0.379-0.669,0.961-0.589,1.518C0.013,25.646,0,25.724,0,25.803v28.422c0,2.734,2.225,4.959,4.959,4.959
		h50.083c2.733,0,4.958-2.225,4.958-4.959V25.803C60,25.724,59.987,25.646,59.977,25.57z M55.042,55.89H4.959
		c-0.918,0-1.666-0.746-1.666-1.665V27.456l14.535,10.408c0.145,0.104,0.312,0.153,0.479,0.153c0.256,0,0.509-0.119,0.67-0.344
		c0.265-0.369,0.18-0.884-0.19-1.148L3.747,25.756L30,4.578l26.107,21.061l-14.95,10.89c-0.368,0.269-0.448,0.783-0.182,1.15
		c0.161,0.222,0.413,0.339,0.667,0.339c0.168,0,0.338-0.051,0.483-0.157l14.581-10.62v26.984
		C56.707,55.144,55.96,55.89,55.042,55.89z"/>
</g>
</svg>
