<?xml version="1.0" encoding="utf-8"?>
<!-- Generator: Adobe Illustrator 16.0.3, SVG Export Plug-In . SVG Version: 6.00 Build 0)  -->
<!DOCTYPE svg PUBLIC "-//W3C//DTD SVG 1.1//EN" "http://www.w3.org/Graphics/SVG/1.1/DTD/svg11.dtd">
<svg version="1.1" id="Layer_1" xmlns="http://www.w3.org/2000/svg" xmlns:xlink="http://www.w3.org/1999/xlink" x="0px" y="0px"
	 width="60px" height="60px" viewBox="0 0 60 60" enable-background="new 0 0 60 60" xml:space="preserve">
<g>
	<path  d="M53.993,37.881c-0.003-0.049-0.007-0.098-0.015-0.146c-0.008-0.042-0.016-0.085-0.027-0.127
		s-0.023-0.083-0.038-0.123c-0.017-0.047-0.037-0.091-0.06-0.135c-0.01-0.021-0.016-0.042-0.027-0.063l-7.366-13.08
		c-0.239-0.425-0.688-0.688-1.177-0.688h-1.034V9.229c0-0.745-0.604-1.35-1.351-1.35H17.383c-0.746,0-1.351,0.604-1.351,1.35V23.52
		h-0.99c-0.478,0-0.921,0.253-1.163,0.666L6.187,37.265c-0.014,0.023-0.021,0.049-0.032,0.072c-0.023,0.044-0.046,0.089-0.062,0.136
		c-0.016,0.041-0.027,0.081-0.039,0.123c-0.012,0.043-0.022,0.085-0.03,0.129c-0.008,0.048-0.012,0.097-0.015,0.146
		C6.007,37.897,6,37.923,6,37.949v12.821c0,0.746,0.604,1.351,1.35,1.351H52.65c0.745,0,1.35-0.604,1.35-1.351V37.949
		C54,37.926,53.994,37.904,53.993,37.881z M15.814,26.22h0.218v6.227c0,0.745,0.604,1.35,1.351,1.35s1.35-0.604,1.35-1.35V10.58
		h22.816v21.866c0,0.745,0.604,1.35,1.35,1.35s1.351-0.604,1.351-1.35V26.22h0.245L50.34,36.6H39.604c-0.746,0-1.35,0.604-1.35,1.35
		v2.85c0,0.041-0.033,0.074-0.075,0.074H21.819c-0.04,0-0.073-0.033-0.073-0.074v-2.85c0-0.745-0.604-1.35-1.35-1.35H9.711
		L15.814,26.22z M51.299,49.42H8.701V39.301h10.344v1.498c0,1.53,1.245,2.775,2.774,2.775h16.359c1.53,0,2.775-1.245,2.775-2.775
		v-1.498h10.345V49.42z"/>
	<path  d="M20.93,14.851h3.913c0.373,0,0.675-0.303,0.675-0.677c0-0.371-0.302-0.675-0.675-0.675H20.93
		c-0.373,0-0.675,0.304-0.675,0.675C20.255,14.548,20.557,14.851,20.93,14.851z"/>
	<path  d="M25.116,16.277c0,0.373,0.303,0.675,0.675,0.675h13.28c0.372,0,0.675-0.302,0.675-0.675
		c0-0.372-0.303-0.675-0.675-0.675h-13.28C25.419,15.603,25.116,15.905,25.116,16.277z"/>
	<path  d="M20.93,21.285h18.142c0.372,0,0.675-0.302,0.675-0.675c0-0.372-0.303-0.675-0.675-0.675H20.93
		c-0.373,0-0.675,0.303-0.675,0.675C20.255,20.983,20.557,21.285,20.93,21.285z"/>
	<path  d="M20.93,25.809h18.142c0.372,0,0.675-0.302,0.675-0.675c0-0.372-0.303-0.675-0.675-0.675H20.93
		c-0.373,0-0.675,0.303-0.675,0.675C20.255,25.507,20.557,25.809,20.93,25.809z"/>
	<path  d="M20.93,29.951h18.142c0.372,0,0.675-0.304,0.675-0.676c0-0.373-0.303-0.675-0.675-0.675H20.93
		c-0.373,0-0.675,0.302-0.675,0.675C20.255,29.647,20.557,29.951,20.93,29.951z"/>
</g>
</svg>
