<?xml version="1.0" encoding="utf-8"?>
<!-- Generator: Adobe Illustrator 16.0.3, SVG Export Plug-In . SVG Version: 6.00 Build 0)  -->
<!DOCTYPE svg PUBLIC "-//W3C//DTD SVG 1.1//EN" "http://www.w3.org/Graphics/SVG/1.1/DTD/svg11.dtd">
<svg version="1.1" id="Layer_1" xmlns="http://www.w3.org/2000/svg" xmlns:xlink="http://www.w3.org/1999/xlink" x="0px" y="0px"
	 width="60px" height="60px" viewBox="0 0 60 60" enable-background="new 0 0 60 60" xml:space="preserve">
<g>
	<path  d="M20.846,25.542l8.798,6.951c0.004,0.003,0.008,0.003,0.012,0.006c0.012,0.009,0.023,0.018,0.036,0.026
		c0.041,0.029,0.087,0.054,0.132,0.078c0.022,0.012,0.044,0.026,0.067,0.036c0.021,0.009,0.043,0.016,0.065,0.022
		c0.02,0.008,0.039,0.014,0.059,0.02c0.018,0.005,0.033,0.011,0.05,0.015c0.016,0.004,0.03,0.012,0.045,0.015
		c0.074,0.016,0.151,0.024,0.231,0.024l0,0c0,0,0,0,0.001,0l0,0l0,0l0,0c0.07,0,0.142-0.008,0.211-0.021
		c0.01-0.002,0.018-0.003,0.027-0.005c0.018-0.004,0.034-0.012,0.053-0.016c0.04-0.012,0.08-0.023,0.12-0.038
		c0.018-0.007,0.034-0.014,0.05-0.021c0.02-0.008,0.036-0.019,0.055-0.028c0.027-0.014,0.054-0.028,0.08-0.045
		c0.023-0.015,0.047-0.03,0.069-0.047c0.017-0.012,0.032-0.023,0.049-0.037c0.006-0.004,0.013-0.008,0.018-0.013l8.115-6.95
		c0.473-0.403,0.527-1.114,0.123-1.586s-1.114-0.528-1.587-0.123l-6.258,5.36V5.664c0-0.621-0.504-1.125-1.125-1.125
		s-1.125,0.504-1.125,1.125v23.623l-6.976-5.511c-0.487-0.385-1.195-0.302-1.581,0.186C20.275,24.449,20.358,25.157,20.846,25.542z"
		/>
	<path  d="M59.991,37.661c-0.003-0.061-0.009-0.12-0.019-0.182c-0.008-0.054-0.02-0.106-0.033-0.159
		c-0.014-0.051-0.029-0.103-0.049-0.153c-0.021-0.059-0.046-0.113-0.073-0.168c-0.013-0.026-0.021-0.054-0.034-0.079l-9.208-16.352
		c-0.299-0.531-0.861-0.859-1.471-0.859H42.54c-0.932,0-1.688,0.756-1.688,1.688c0,0.933,0.756,1.688,1.688,1.688h5.578
		l7.307,12.975h-13.42c-0.932,0-1.688,0.756-1.688,1.688v3.561c0,0.052-0.041,0.094-0.093,0.094H19.776
		c-0.052,0-0.093-0.042-0.093-0.094v-3.561c0-0.933-0.756-1.688-1.688-1.688H4.639l7.631-12.975h5.543
		c0.932,0,1.688-0.756,1.688-1.688c0-0.932-0.756-1.688-1.688-1.688h-6.509c-0.599,0-1.151,0.316-1.455,0.832L0.232,36.893
		c-0.017,0.028-0.025,0.059-0.04,0.088c-0.028,0.057-0.056,0.111-0.079,0.17c-0.019,0.052-0.033,0.103-0.047,0.155
		c-0.015,0.053-0.028,0.104-0.038,0.159c-0.011,0.062-0.015,0.122-0.019,0.184C0.008,37.682,0,37.714,0,37.748v16.025
		c0,0.932,0.756,1.688,1.688,1.688h56.625c0.932,0,1.688-0.756,1.688-1.688V37.748C60,37.718,59.993,37.69,59.991,37.661z
		 M56.624,52.085H3.376V39.436h12.932v1.873c0,1.913,1.557,3.469,3.469,3.469h20.448c1.912,0,3.469-1.556,3.469-3.469v-1.873h12.931
		V52.085z"/>
</g>
</svg>
