<?xml version="1.0" encoding="utf-8"?>
<!-- Generator: Adobe Illustrator 16.0.3, SVG Export Plug-In . SVG Version: 6.00 Build 0)  -->
<!DOCTYPE svg PUBLIC "-//W3C//DTD SVG 1.1//EN" "http://www.w3.org/Graphics/SVG/1.1/DTD/svg11.dtd">
<svg version="1.1" id="Layer_1" xmlns="http://www.w3.org/2000/svg" xmlns:xlink="http://www.w3.org/1999/xlink" x="0px" y="0px"
	 width="60px" height="60px" viewBox="0 0 60 60" enable-background="new 0 0 60 60" xml:space="preserve">
<g>
	<path  d="M35.267,40.257H3.683c-0.35,0-0.635-0.284-0.635-0.633V13.7l23.769,16.598
		c0.131,0.092,0.283,0.138,0.437,0.138c0.152,0,0.307-0.046,0.438-0.139l23.766-16.712v12.258c0,0.842,0.683,1.523,1.524,1.523
		s1.524-0.682,1.524-1.523V13.518c0-1.066-0.462-2.08-1.268-2.78c-0.668-0.581-1.526-0.902-2.414-0.902H3.683
		C1.651,9.835,0,11.487,0,13.518v26.106c0,2.029,1.651,3.681,3.683,3.681h31.584c0.842,0,1.523-0.682,1.523-1.524
		C36.79,40.938,36.108,40.257,35.267,40.257z M27.251,28.742L4.542,12.884h45.26L27.251,28.742z"/>
	<path  d="M56.798,31.471c-2.068-2.068-4.818-3.207-7.743-3.207s-5.675,1.139-7.743,3.207s-3.208,4.818-3.209,7.744
		c0,2.925,1.14,5.675,3.208,7.742c2.068,2.069,4.819,3.208,7.743,3.208c2.926,0,5.676-1.139,7.744-3.207
		C61.067,42.688,61.067,35.74,56.798,31.471z M54.643,44.803c-1.493,1.492-3.478,2.314-5.589,2.314c-2.11,0-4.094-0.822-5.588-2.316
		c-1.492-1.491-2.314-3.476-2.314-5.586c0-2.111,0.822-4.096,2.315-5.589c1.493-1.492,3.478-2.314,5.588-2.314
		s4.095,0.821,5.588,2.314C57.724,36.707,57.724,41.721,54.643,44.803z"/>
	<path  d="M49.116,33.587l-6.234,6.703l1.116,1.04l4.354-4.685v7.453c0,0.42,0.341,0.762,0.762,0.762
		s0.762-0.342,0.762-0.762l0.001-7.456l4.354,4.688l1.117-1.04L49.116,33.587z"/>
</g>
</svg>
