<?xml version="1.0" encoding="utf-8"?>
<!-- Generator: Adobe Illustrator 16.0.3, SVG Export Plug-In . SVG Version: 6.00 Build 0)  -->
<!DOCTYPE svg PUBLIC "-//W3C//DTD SVG 1.1//EN" "http://www.w3.org/Graphics/SVG/1.1/DTD/svg11.dtd">
<svg version="1.1" id="Layer_1" xmlns="http://www.w3.org/2000/svg" xmlns:xlink="http://www.w3.org/1999/xlink" x="0px" y="0px"
	 width="60px" height="60px" viewBox="0 0 60 60" enable-background="new 0 0 60 60" xml:space="preserve">
<g>
	<path  d="M54.311,26.313c-0.664-0.577-1.518-0.896-2.397-0.896H8.088c-2.016,0-3.657,1.642-3.657,3.657v24.27
		C4.431,55.36,6.072,57,8.088,57h43.825c2.016,0,3.656-1.64,3.656-3.656v-24.27C55.569,28.012,55.108,27.005,54.311,26.313z
		 M50.427,28.721L29.998,43.085L9.425,28.721H50.427z M51.913,53.698H8.088c-0.195,0-0.354-0.159-0.354-0.354V29.552L29.528,44.77
		c0.142,0.101,0.307,0.15,0.472,0.15c0.166,0,0.333-0.051,0.476-0.15l21.792-15.326v23.9C52.268,53.539,52.107,53.698,51.913,53.698
		z"/>
	<path  d="M28.873,7.421l0.026,15.21c0.001,0.605,0.493,1.098,1.101,1.098c0,0,0.001,0,0.003,0
		c0.606,0,1.099-0.494,1.099-1.103L31.074,7.414l6.303,6.758l1.609-1.505L29.969,3l-8.988,9.699l1.615,1.498L28.873,7.421z"/>
</g>
</svg>
