<?xml version="1.0" encoding="utf-8"?>
<!-- Generator: Adobe Illustrator 16.0.3, SVG Export Plug-In . SVG Version: 6.00 Build 0)  -->
<!DOCTYPE svg PUBLIC "-//W3C//DTD SVG 1.1//EN" "http://www.w3.org/Graphics/SVG/1.1/DTD/svg11.dtd">
<svg version="1.1" id="Layer_1" xmlns="http://www.w3.org/2000/svg" xmlns:xlink="http://www.w3.org/1999/xlink" x="0px" y="0px"
	 width="60px" height="60px" viewBox="0 0 60 60" enable-background="new 0 0 60 60" xml:space="preserve">
<g>
	<path  d="M35.421,45.875H6.898v-28.65h45.707v11.873c0,0.803,0.649,1.451,1.451,1.451
		c0.803,0,1.453-0.648,1.453-1.451V16.839c0-1.389-1.13-2.519-2.52-2.519h-1.476v-2.066c0-1.389-1.13-2.518-2.518-2.518H18.562
		l-2.882-2.79c-0.271-0.262-0.634-0.409-1.01-0.409H2.518C1.129,6.539,0,7.668,0,9.057v33.9c0,3.9,2.266,5.717,3.797,5.717
		c0.438,0,0.825-0.197,1.092-0.502c0.439,0.373,1.001,0.607,1.623,0.607h28.909c0.803,0,1.452-0.648,1.452-1.451
		S36.224,45.875,35.421,45.875z M3.994,16.839v28.946c-0.01,0-0.019-0.004-0.028-0.006c-0.177-0.102-1.062-0.719-1.062-2.822V9.443
		h11.179l2.883,2.79c0.271,0.262,0.633,0.409,1.01,0.409h30.636v1.68h-42.1C5.123,14.321,3.994,15.451,3.994,16.839z"/>
	<path  d="M47.976,29.416c-6.629,0-12.022,5.395-12.022,12.023s5.394,12.021,12.022,12.021
		c6.63,0,12.024-5.393,12.024-12.021S54.605,29.416,47.976,29.416z M47.976,50.557L47.976,50.557c-5.027,0-9.118-4.09-9.118-9.117
		c0-5.029,4.091-9.119,9.118-9.119c5.029,0,9.12,4.09,9.12,9.119C57.096,46.467,53.005,50.557,47.976,50.557z"/>
	<path  d="M48.045,35.143l-8.315,8.941l1.489,1.387l5.372-5.779l-0.001,7.213c0,0.801,0.65,1.451,1.452,1.451
		s1.452-0.65,1.452-1.451l0.001-7.217l5.373,5.783l1.489-1.387L48.045,35.143z"/>
</g>
</svg>
