<?xml version="1.0" encoding="utf-8"?>
<!-- Generator: Adobe Illustrator 16.0.3, SVG Export Plug-In . SVG Version: 6.00 Build 0)  -->
<!DOCTYPE svg PUBLIC "-//W3C//DTD SVG 1.1//EN" "http://www.w3.org/Graphics/SVG/1.1/DTD/svg11.dtd">
<svg version="1.1" id="Layer_1" xmlns="http://www.w3.org/2000/svg" xmlns:xlink="http://www.w3.org/1999/xlink" x="0px" y="0px"
	 width="60px" height="60px" viewBox="0 0 60 60" enable-background="new 0 0 60 60" xml:space="preserve">
<g>
	<path  d="M12.021,7.298H5.585c-0.588,0-1.064,0.478-1.064,1.065s0.477,1.064,1.064,1.064h6.436
		c0.589,0,1.065-0.477,1.065-1.064S12.609,7.298,12.021,7.298z"/>
	<path  d="M36.342,10.816h-6.437c-0.588,0-1.064,0.477-1.064,1.064s0.477,1.065,1.064,1.065h6.437
		c0.588,0,1.064-0.478,1.064-1.065S36.93,10.816,36.342,10.816z"/>
	<path  d="M2.13,42.961v-6.436c0-0.589-0.477-1.065-1.064-1.065C0.477,35.46,0,35.937,0,36.525v6.436
		c0,0.588,0.477,1.065,1.065,1.065C1.653,44.026,2.13,43.549,2.13,42.961z"/>
	<path  d="M23.47,10.816h-3.796l-1.278-1.237c-0.423-0.409-1.097-0.398-1.506,0.025
		c-0.408,0.423-0.397,1.097,0.025,1.506l1.587,1.536c0.199,0.192,0.465,0.3,0.741,0.3h4.227c0.588,0,1.064-0.478,1.064-1.065
		S24.058,10.816,23.47,10.816z"/>
	<path  d="M1.065,18.282c0.588,0,1.064-0.477,1.064-1.064v-6.436c0-0.589-0.477-1.065-1.064-1.065
		C0.477,9.717,0,10.193,0,10.782v6.436C0,17.806,0.477,18.282,1.065,18.282z"/>
	<path  d="M49.213,10.816h-6.436c-0.589,0-1.065,0.477-1.065,1.064s0.477,1.065,1.065,1.065h6.436
		c0.588,0,1.065-0.478,1.065-1.065S49.801,10.816,49.213,10.816z"/>
	<path  d="M1.065,31.154c0.588,0,1.064-0.477,1.064-1.064v-6.437c0-0.588-0.477-1.064-1.064-1.064
		C0.477,22.589,0,23.065,0,23.653v6.437C0,30.678,0.477,31.154,1.065,31.154z"/>
	<path  d="M5.458,31.622c0.588,0,1.064-0.477,1.064-1.064V24.33c0-0.588-0.477-1.064-1.064-1.064
		s-1.064,0.477-1.064,1.064v6.228C4.394,31.146,4.87,31.622,5.458,31.622z"/>
	<path  d="M5.458,44.076c0.588,0,1.064-0.477,1.064-1.064v-6.228c0-0.588-0.477-1.064-1.064-1.064
		s-1.064,0.477-1.064,1.064v6.228C4.394,43.6,4.87,44.076,5.458,44.076z"/>
	<path  d="M11.008,15.859H6.631c-1.234,0-2.237,1.003-2.237,2.237v0.007c0,0.588,0.477,1.062,1.064,1.062
		s1.064-0.48,1.064-1.068c0-0.06,0.049-0.107,0.108-0.107h4.377c0.588,0,1.065-0.478,1.065-1.065S11.596,15.859,11.008,15.859z"/>
	<path  d="M22.243,50.572h-6.227c-0.589,0-1.065,0.477-1.065,1.064s0.477,1.065,1.065,1.065h6.227
		c0.588,0,1.064-0.478,1.064-1.065S22.831,50.572,22.243,50.572z"/>
	<path  d="M9.789,50.572H6.631c-0.06,0-0.108-0.049-0.108-0.108v-1.226c0-0.588-0.477-1.064-1.064-1.064
		s-1.064,0.477-1.064,1.064v1.226c0,0.115,0.017,0.226,0.033,0.336c-0.184-0.2-0.442-0.33-0.732-0.344
		c-0.176-0.052-0.807-0.415-1.215-1.482c-0.21-0.55-0.827-0.823-1.375-0.614c-0.55,0.21-0.824,0.826-0.614,1.375
		c0.716,1.871,2.129,2.851,3.154,2.851c0.567,0,1.026-0.445,1.059-1.003c0.388,0.666,1.103,1.12,1.928,1.12h3.158
		c0.588,0,1.065-0.478,1.065-1.065S10.377,50.572,9.789,50.572z"/>
	<path  d="M58.935,24.478c-0.588,0-1.064,0.477-1.064,1.065v6.227c0,0.588,0.477,1.065,1.064,1.065
		c0.589,0,1.065-0.478,1.065-1.065v-6.227C60,24.954,59.523,24.478,58.935,24.478z"/>
	<path  d="M58.935,36.932c-0.588,0-1.064,0.477-1.064,1.065v6.227c0,0.588,0.477,1.064,1.064,1.064
		c0.589,0,1.065-0.477,1.065-1.064v-6.227C60,37.408,59.523,36.932,58.935,36.932z"/>
	<path  d="M58.935,49.393c-0.588,0-1.064,0.483-1.064,1.071c0,0.06-0.049,0.108-0.108,0.108h-4.384
		c-0.588,0-1.065,0.477-1.065,1.064s0.478,1.065,1.065,1.065h4.384c1.234,0,2.238-1.004,2.238-2.238V50.45
		C60,49.862,59.523,49.393,58.935,49.393z"/>
	<path  d="M57.762,15.859h-2.155v-2.364c0-0.589-0.477-1.065-1.064-1.065c-0.589,0-1.065,0.477-1.065,1.065v3.194
		c0,0.129,0.026,0.251,0.068,0.365c0.064,0.525,0.509,0.935,1.052,0.935h3.165c0.06,0,0.108,0.048,0.108,0.107v1.219
		c0,0.588,0.477,1.065,1.064,1.065c0.589,0,1.065-0.478,1.065-1.065v-1.219C60,16.862,58.996,15.859,57.762,15.859z"/>
	<path  d="M47.15,50.572h-6.227c-0.588,0-1.064,0.477-1.064,1.064s0.477,1.065,1.064,1.065h6.227
		c0.589,0,1.065-0.478,1.065-1.065S47.739,50.572,47.15,50.572z"/>
	<path  d="M34.697,50.572H28.47c-0.588,0-1.064,0.477-1.064,1.064s0.477,1.065,1.064,1.065h6.228
		c0.588,0,1.065-0.478,1.065-1.065S35.285,50.572,34.697,50.572z"/>
	<path  d="M35.916,15.859h-6.227c-0.589,0-1.065,0.477-1.065,1.064s0.477,1.065,1.065,1.065h6.227
		c0.588,0,1.065-0.478,1.065-1.065S36.504,15.859,35.916,15.859z"/>
	<path  d="M23.462,15.859h-6.227c-0.589,0-1.065,0.477-1.065,1.064s0.477,1.065,1.065,1.065h6.227
		c0.588,0,1.065-0.478,1.065-1.065S24.05,15.859,23.462,15.859z"/>
	<path  d="M48.37,15.859h-6.227c-0.589,0-1.065,0.477-1.065,1.064s0.477,1.065,1.065,1.065h6.227
		c0.588,0,1.064-0.478,1.064-1.065S48.958,15.859,48.37,15.859z"/>
</g>
</svg>
