<?xml version="1.0" encoding="utf-8"?>
<!-- Generator: Adobe Illustrator 16.0.3, SVG Export Plug-In . SVG Version: 6.00 Build 0)  -->
<!DOCTYPE svg PUBLIC "-//W3C//DTD SVG 1.1//EN" "http://www.w3.org/Graphics/SVG/1.1/DTD/svg11.dtd">
<svg version="1.1" id="Layer_1" xmlns="http://www.w3.org/2000/svg" xmlns:xlink="http://www.w3.org/1999/xlink" x="0px" y="0px"
	 width="60px" height="60px" viewBox="0 0 60 60" enable-background="new 0 0 60 60" xml:space="preserve">
<g>
	<path  d="M35.423,45.876H6.898V17.225h45.708v11.872c0,0.803,0.65,1.452,1.452,1.452s1.452-0.649,1.452-1.452V16.839
		c0-1.389-1.13-2.519-2.518-2.519h-1.478v-2.066c0-1.388-1.129-2.518-2.518-2.518H18.563l-2.883-2.79
		c-0.271-0.262-0.633-0.409-1.01-0.409H2.519C1.13,6.538,0,7.668,0,9.057v33.9c0,3.899,2.267,5.717,3.798,5.717
		c0.438,0,0.825-0.197,1.092-0.503c0.438,0.374,1.001,0.609,1.622,0.609h28.911c0.802,0,1.451-0.65,1.451-1.452
		C36.874,46.525,36.225,45.876,35.423,45.876z M3.994,16.839v28.946c-0.009-0.001-0.018-0.005-0.027-0.006
		c-0.177-0.102-1.062-0.72-1.062-2.822V9.442h11.18l2.883,2.789c0.271,0.262,0.633,0.409,1.01,0.409h30.635v1.68h-42.1
		C5.124,14.32,3.994,15.45,3.994,16.839z"/>
	<path  d="M47.977,29.416c-6.63,0-12.022,5.394-12.022,12.022c0,6.63,5.394,12.023,12.023,12.023
		C54.606,53.462,60,48.068,60,41.438C60,34.81,54.606,29.416,47.977,29.416z M47.978,50.558L47.978,50.558
		c-5.029,0-9.119-4.091-9.119-9.119c0-5.027,4.09-9.118,9.118-9.118s9.119,4.091,9.119,9.118
		C57.096,46.467,53.005,50.558,47.978,50.558z"/>
	<path  d="M54.799,37.148c-0.284-0.284-0.743-0.284-1.026,0l-7.862,7.86l-3.736-3.618
		c-0.288-0.278-0.747-0.271-1.026,0.016c-0.279,0.289-0.271,0.748,0.016,1.027l4.24,4.106c0.001,0,0.001,0.001,0.001,0.002
		c0,0,0.001,0.001,0.003,0.001l0.006,0.007c0.035,0.034,0.08,0.052,0.119,0.077c0.039,0.024,0.074,0.059,0.116,0.075
		c0.071,0.028,0.147,0.038,0.223,0.043c0.016,0.001,0.031,0.009,0.047,0.009l0,0h0.001c0.092,0,0.184-0.018,0.271-0.053
		c0.001,0,0.001,0,0.001,0c0.088-0.035,0.168-0.088,0.238-0.157c0-0.001,0.002-0.001,0.002-0.002l0.004-0.003
		c0.001-0.002,0.004-0.004,0.006-0.006c0.001-0.001,0.001-0.002,0.002-0.003l8.356-8.355C55.083,37.892,55.083,37.432,54.799,37.148
		z"/>
</g>
</svg>
