<?xml version="1.0" encoding="utf-8"?>
<!-- Generator: Adobe Illustrator 16.0.3, SVG Export Plug-In . SVG Version: 6.00 Build 0)  -->
<!DOCTYPE svg PUBLIC "-//W3C//DTD SVG 1.1//EN" "http://www.w3.org/Graphics/SVG/1.1/DTD/svg11.dtd">
<svg version="1.1" id="Layer_1" xmlns="http://www.w3.org/2000/svg" xmlns:xlink="http://www.w3.org/1999/xlink" x="0px" y="0px"
	 width="60px" height="60px" viewBox="0 0 60 60" enable-background="new 0 0 60 60" xml:space="preserve">
<g>
	<path  d="M57.276,15.583h-1.595V13.35c0-1.501-1.221-2.722-2.722-2.722H20.064l-3.115-3.015
		c-0.293-0.283-0.684-0.441-1.091-0.441H2.721C1.221,7.172,0,8.392,0,9.893v36.643c0,4.215,2.449,6.179,4.104,6.179
		c0.473,0,0.892-0.214,1.18-0.545c0.476,0.405,1.083,0.659,1.755,0.659h50.237c1.502,0,2.724-1.221,2.724-2.722V18.305
		C60,16.804,58.778,15.583,57.276,15.583z M4.317,18.305v31.286c-0.011-0.001-0.021-0.005-0.03-0.006
		c-0.19-0.109-1.148-0.777-1.148-3.05V10.311h12.084l3.116,3.015c0.292,0.283,0.684,0.441,1.091,0.441h33.112v1.816H7.039
		C5.538,15.583,4.317,16.804,4.317,18.305z M56.86,49.689H7.456V18.722H56.86V49.689z"/>
	<path  d="M37.573,29.044c2.047,0,3.713-1.666,3.713-3.712c0-2.048-1.666-3.713-3.713-3.713
		c-2.048,0-3.714,1.665-3.714,3.713C33.859,27.378,35.525,29.044,37.573,29.044z M37.573,23.188c1.182,0,2.144,0.962,2.144,2.144
		s-0.962,2.143-2.144,2.143c-1.183,0-2.144-0.961-2.144-2.143S36.391,23.188,37.573,23.188z"/>
	<path  d="M14.509,47.945h33.249c0.275,0,0.53-0.144,0.672-0.379c0.143-0.236,0.15-0.529,0.021-0.772l-4.515-8.537
		c-0.119-0.226-0.34-0.379-0.593-0.412c-0.251-0.034-0.505,0.06-0.678,0.246l-3.428,3.715L26.502,30.958
		c-0.166-0.142-0.384-0.209-0.6-0.183c-0.216,0.025-0.412,0.14-0.541,0.315L13.877,46.696c-0.176,0.237-0.202,0.555-0.068,0.818
		C13.942,47.779,14.213,47.945,14.509,47.945z M26.126,32.699L38.795,43.49c0.321,0.274,0.801,0.244,1.086-0.065l3.187-3.454
		l3.388,6.405H16.061L26.126,32.699z"/>
</g>
</svg>
