<?xml version="1.0" encoding="utf-8"?>
<!-- Generator: Adobe Illustrator 16.0.3, SVG Export Plug-In . SVG Version: 6.00 Build 0)  -->
<!DOCTYPE svg PUBLIC "-//W3C//DTD SVG 1.1//EN" "http://www.w3.org/Graphics/SVG/1.1/DTD/svg11.dtd">
<svg version="1.1" id="Layer_1" xmlns="http://www.w3.org/2000/svg" xmlns:xlink="http://www.w3.org/1999/xlink" x="0px" y="0px"
	 width="60px" height="60px" viewBox="0 0 60 60" enable-background="new 0 0 60 60" xml:space="preserve">
<g>
	<path  d="M57.278,11.352h-1.595V9.118c0-1.501-1.221-2.722-2.722-2.722H20.064l-3.115-3.016
		c-0.293-0.282-0.684-0.441-1.092-0.441H2.723C1.221,2.939,0,4.16,0,5.661v36.644c0,4.215,2.449,6.179,4.104,6.179
		c0.473,0,0.892-0.214,1.18-0.545c0.476,0.405,1.083,0.659,1.755,0.659h24.072v6.369H20.038c-0.577,0-1.046,0.469-1.046,1.047
		s0.469,1.047,1.046,1.047H44.28c0.577,0,1.046-0.469,1.046-1.047s-0.469-1.047-1.046-1.047H33.205v-6.369h24.073
		c1.501,0,2.722-1.221,2.722-2.722V14.073C60,12.572,58.779,11.352,57.278,11.352z M4.317,14.073v31.288
		c-0.011-0.002-0.021-0.006-0.03-0.007c-0.19-0.109-1.148-0.777-1.148-3.05V6.079h12.084l3.115,3.015
		c0.293,0.283,0.685,0.441,1.092,0.441h33.115v1.816H7.039C5.538,11.352,4.317,12.572,4.317,14.073z M56.861,45.459H7.457V14.49
		h49.404V45.459z"/>
	<path  d="M50.529,54.967h-3.139c-0.578,0-1.047,0.469-1.047,1.047s0.469,1.047,1.047,1.047h3.139
		c0.578,0,1.047-0.469,1.047-1.047S51.107,54.967,50.529,54.967z"/>
	<path  d="M55.851,54.967h-3.14c-0.577,0-1.046,0.469-1.046,1.047s0.469,1.047,1.046,1.047h3.14
		c0.578,0,1.046-0.469,1.046-1.047S56.429,54.967,55.851,54.967z"/>
	<path  d="M16.627,54.967h-3.139c-0.344,0-0.646,0.168-0.837,0.424c-0.19-0.256-0.493-0.424-0.837-0.424H8.676
		c-0.578,0-1.047,0.469-1.047,1.047s0.469,1.047,1.047,1.047h3.139c0.344,0,0.646-0.168,0.837-0.424
		c0.19,0.256,0.493,0.424,0.837,0.424h3.139c0.578,0,1.047-0.469,1.047-1.047S17.205,54.967,16.627,54.967z"/>
</g>
</svg>
