<?xml version="1.0" encoding="utf-8"?>
<!-- Generator: Adobe Illustrator 16.0.3, SVG Export Plug-In . SVG Version: 6.00 Build 0)  -->
<!DOCTYPE svg PUBLIC "-//W3C//DTD SVG 1.1//EN" "http://www.w3.org/Graphics/SVG/1.1/DTD/svg11.dtd">
<svg version="1.1" id="Layer_1" xmlns="http://www.w3.org/2000/svg" xmlns:xlink="http://www.w3.org/1999/xlink" x="0px" y="0px"
	 width="60px" height="60px" viewBox="0 0 60 60" enable-background="new 0 0 60 60" xml:space="preserve">
<g>
	<path  d="M35.434,45.881H6.9v-28.66h45.723v11.876c0,0.803,0.65,1.453,1.453,1.453s1.452-0.65,1.452-1.453V16.834
		c0-1.389-1.13-2.519-2.518-2.519h-1.477v-2.067c0-1.389-1.131-2.519-2.52-2.519H18.569l-2.884-2.791
		c-0.271-0.262-0.633-0.409-1.01-0.409H2.519C1.13,6.53,0,7.661,0,9.05v33.912c0,3.901,2.267,5.719,3.799,5.719
		c0.438,0,0.825-0.197,1.092-0.503c0.439,0.374,1.002,0.608,1.623,0.608h28.92c0.803,0,1.453-0.65,1.453-1.452
		C36.887,46.531,36.236,45.881,35.434,45.881z M3.995,16.834V45.79c-0.01-0.001-0.019-0.004-0.028-0.005
		c-0.176-0.102-1.062-0.719-1.062-2.823V9.436h11.184l2.884,2.791c0.271,0.262,0.633,0.409,1.01,0.409h30.647v1.681H6.514
		C5.125,14.315,3.995,15.445,3.995,16.834z"/>
	<path  d="M56.477,32.938c-2.271-2.271-5.292-3.522-8.504-3.522c-3.213,0-6.232,1.251-8.504,3.522
		c-2.272,2.271-3.523,5.292-3.524,8.504c0,3.213,1.251,6.233,3.523,8.505c2.271,2.271,5.291,3.522,8.504,3.522
		c3.212,0,6.232-1.25,8.505-3.521C58.748,47.676,60,44.655,60,41.443C60,38.23,58.748,35.21,56.477,32.938z M54.422,47.894
		c-1.723,1.723-4.014,2.671-6.45,2.671s-4.728-0.948-6.45-2.671c-1.723-1.724-2.672-4.014-2.672-6.45
		c0.001-2.437,0.949-4.728,2.673-6.45c1.723-1.724,4.014-2.672,6.45-2.672s4.727,0.948,6.449,2.671
		c1.724,1.724,2.672,4.015,2.672,6.451S56.146,46.171,54.422,47.894z"/>
	<path  d="M53.936,40.784H42.144c-0.401,0-0.727,0.325-0.727,0.726c0,0.401,0.325,0.727,0.727,0.727h11.792
		c0.4,0,0.726-0.325,0.726-0.727C54.661,41.109,54.336,40.784,53.936,40.784z"/>
</g>
</svg>
