<?xml version="1.0" encoding="utf-8"?>
<!-- Generator: Adobe Illustrator 16.0.3, SVG Export Plug-In . SVG Version: 6.00 Build 0)  -->
<!DOCTYPE svg PUBLIC "-//W3C//DTD SVG 1.1//EN" "http://www.w3.org/Graphics/SVG/1.1/DTD/svg11.dtd">
<svg version="1.1" id="Layer_1" xmlns="http://www.w3.org/2000/svg" xmlns:xlink="http://www.w3.org/1999/xlink" x="0px" y="0px"
	 width="60px" height="60px" viewBox="0 0 60 60" enable-background="new 0 0 60 60" xml:space="preserve">
<g>
	<path  d="M35.541,46.252H6.922V17.506h45.86v11.91c0,0.807,0.652,1.457,1.457,1.457s1.457-0.65,1.457-1.457V17.117
		c0-1.393-1.134-2.525-2.527-2.525h-1.48v-2.074c0-1.393-1.133-2.525-2.526-2.525H18.626l-2.892-2.799
		c-0.271-0.264-0.635-0.41-1.014-0.41H2.526C1.134,6.783,0,7.916,0,9.309v34.014c0,3.914,2.274,5.736,3.811,5.736
		c0.439,0,0.828-0.197,1.095-0.506c0.441,0.377,1.006,0.613,1.63,0.613h29.006c0.805,0,1.457-0.652,1.457-1.457
		S36.346,46.252,35.541,46.252z M4.008,17.117V46.16c-0.01-0.002-0.019-0.006-0.028-0.006c-0.177-0.102-1.065-0.721-1.065-2.832
		V9.697h11.218l2.892,2.799c0.271,0.262,0.635,0.41,1.013,0.41h30.738v1.686H6.535C5.142,14.592,4.008,15.725,4.008,17.117z"/>
	<path  d="M59.84,44.195c-0.154-0.234-0.402-0.391-0.681-0.428c-0.896-0.123-1.573-0.896-1.573-1.803
		s0.677-1.68,1.573-1.803c0.278-0.037,0.526-0.193,0.681-0.428c0.155-0.236,0.2-0.525,0.124-0.795
		c-0.508-1.818-1.476-3.494-2.799-4.846c-0.195-0.199-0.471-0.303-0.75-0.289c-0.28,0.016-0.539,0.152-0.712,0.373
		c-0.534,0.691-1.582,0.904-2.347,0.463c-0.785-0.453-1.117-1.428-0.772-2.266c0.107-0.26,0.096-0.555-0.03-0.805
		c-0.126-0.252-0.355-0.436-0.627-0.506c-1.821-0.467-3.779-0.467-5.594-0.002c-0.271,0.07-0.5,0.254-0.627,0.504
		c-0.126,0.252-0.138,0.545-0.031,0.805c0.344,0.84,0.011,1.814-0.772,2.266c-0.771,0.443-1.814,0.229-2.35-0.463
		c-0.173-0.221-0.432-0.357-0.712-0.375c-0.278-0.012-0.555,0.092-0.75,0.291c-1.328,1.355-2.297,3.033-2.802,4.85
		c-0.075,0.27-0.03,0.561,0.124,0.795c0.155,0.234,0.403,0.391,0.681,0.428c0.898,0.123,1.574,0.896,1.574,1.803
		s-0.676,1.68-1.574,1.803c-0.277,0.037-0.526,0.193-0.681,0.428s-0.199,0.523-0.124,0.795c0.506,1.816,1.474,3.492,2.798,4.846
		c0.196,0.199,0.467,0.307,0.75,0.289c0.28-0.016,0.54-0.152,0.712-0.375c0.535-0.689,1.581-0.902,2.348-0.461
		c0.785,0.455,1.117,1.428,0.773,2.268c-0.107,0.26-0.096,0.553,0.03,0.805c0.126,0.25,0.354,0.436,0.627,0.504
		c0.91,0.234,1.852,0.352,2.799,0.352c0.942,0,1.882-0.117,2.792-0.35c0.273-0.068,0.502-0.252,0.628-0.504
		c0.127-0.252,0.139-0.545,0.031-0.805c-0.344-0.84-0.011-1.814,0.774-2.266c0.768-0.443,1.813-0.23,2.348,0.461
		c0.172,0.223,0.432,0.359,0.712,0.375c0.278,0.021,0.554-0.088,0.751-0.289c1.324-1.352,2.294-3.029,2.803-4.85
		C60.04,44.721,59.994,44.43,59.84,44.195z M56.398,47.775c-1.155-0.795-2.775-0.881-4.018-0.166
		c-1.28,0.738-1.979,2.148-1.868,3.562c-0.919,0.137-1.862,0.137-2.777,0c0.112-1.414-0.586-2.824-1.867-3.564
		c-1.238-0.715-2.86-0.631-4.017,0.164c-0.582-0.73-1.053-1.543-1.392-2.408c1.279-0.611,2.151-1.922,2.151-3.398
		c0-1.479-0.872-2.787-2.152-3.398c0.34-0.867,0.812-1.682,1.396-2.412c1.157,0.795,2.774,0.881,4.018,0.166
		c1.28-0.738,1.979-2.148,1.868-3.562c0.914-0.137,1.86-0.137,2.778,0c-0.112,1.414,0.585,2.824,1.866,3.564
		c1.239,0.715,2.86,0.631,4.016-0.164c0.582,0.729,1.053,1.543,1.393,2.408c-1.279,0.611-2.15,1.922-2.15,3.398
		s0.871,2.787,2.151,3.396C57.452,46.23,56.981,47.045,56.398,47.775z"/>
	<path  d="M49.126,37.061c-2.704,0-4.904,2.199-4.904,4.904c0,2.703,2.2,4.904,4.904,4.904s4.904-2.201,4.904-4.904
		C54.03,39.26,51.83,37.061,49.126,37.061z M49.126,45.412c-1.9,0-3.447-1.547-3.447-3.447s1.547-3.447,3.447-3.447
		c1.901,0,3.447,1.547,3.447,3.447S51.027,45.412,49.126,45.412z"/>
</g>
</svg>
