<?xml version="1.0" encoding="utf-8"?>
<!-- Generator: Adobe Illustrator 16.0.3, SVG Export Plug-In . SVG Version: 6.00 Build 0)  -->
<!DOCTYPE svg PUBLIC "-//W3C//DTD SVG 1.1//EN" "http://www.w3.org/Graphics/SVG/1.1/DTD/svg11.dtd">
<svg version="1.1" id="Layer_1" xmlns="http://www.w3.org/2000/svg" xmlns:xlink="http://www.w3.org/1999/xlink" x="0px" y="0px"
	 width="60px" height="60px" viewBox="0 0 60 60" enable-background="new 0 0 60 60" xml:space="preserve">
<g>
	<path  d="M34.564,47.943H6.402V19.655h45.129v11.722c0,0.793,0.642,1.435,1.434,1.435s1.434-0.642,1.434-1.435
		V19.274c0-1.371-1.116-2.486-2.487-2.486h-1.047v-2.04c0-1.371-1.115-2.486-2.487-2.486H18.329l-2.846-2.754
		c-0.267-0.259-0.625-0.403-0.997-0.403h-12C1.115,9.104,0,10.22,0,11.59v33.473c0,3.85,2.237,5.644,3.75,5.644
		c0.337,0,0.644-0.121,0.889-0.316c0.396,0.266,0.871,0.421,1.382,0.421h28.544c0.792,0,1.434-0.642,1.434-1.434
		S35.356,47.943,34.564,47.943z M3.534,19.274v28.228c-0.305-0.377-0.667-1.104-0.667-2.439V11.972h11.039l2.845,2.754
		c0.268,0.259,0.625,0.403,0.997,0.403h30.248v1.659H6.021C4.649,16.788,3.534,17.903,3.534,19.274z"/>
	<path  d="M59.744,48.645l-10.29-18.945c-0.253-0.465-0.745-0.765-1.27-0.749c-0.529,0.004-1.014,0.298-1.26,0.767
		l-10.03,19.078c-0.234,0.444-0.218,0.979,0.041,1.408c0.261,0.43,0.726,0.692,1.228,0.692h20.394c0.004,0.001,0.007,0.001,0.01,0
		c0.792,0,1.434-0.642,1.434-1.434C60,49.158,59.905,48.877,59.744,48.645z M40.537,48.028l7.678-14.603l7.932,14.603H40.537z"/>
	<rect x="47.312" y="37.211"  width="1.773" height="6.909"/>
	<path  d="M48.199,44.885c-0.304,0-0.563,0.106-0.777,0.321c-0.215,0.214-0.321,0.474-0.321,0.777
		c0,0.305,0.106,0.563,0.321,0.778c0.214,0.214,0.474,0.321,0.777,0.321s0.564-0.108,0.781-0.325
		c0.216-0.216,0.324-0.475,0.324-0.774c0-0.304-0.108-0.563-0.324-0.777C48.764,44.991,48.503,44.885,48.199,44.885z"/>
</g>
</svg>
