<?xml version="1.0" encoding="utf-8"?>
<!-- Generator: Adobe Illustrator 16.0.3, SVG Export Plug-In . SVG Version: 6.00 Build 0)  -->
<!DOCTYPE svg PUBLIC "-//W3C//DTD SVG 1.1//EN" "http://www.w3.org/Graphics/SVG/1.1/DTD/svg11.dtd">
<svg version="1.1" id="Layer_1" xmlns="http://www.w3.org/2000/svg" xmlns:xlink="http://www.w3.org/1999/xlink" x="0px" y="0px"
	 width="60px" height="60px" viewBox="0 0 60 60" enable-background="new 0 0 60 60" xml:space="preserve">
<g>
	<path  d="M35.422,45.876H6.897V17.225h45.709v11.872c0,0.803,0.649,1.452,1.451,1.452
		c0.803,0,1.453-0.649,1.453-1.452V16.839c0-1.389-1.13-2.519-2.52-2.519h-1.476v-2.066c0-1.388-1.13-2.518-2.518-2.518H18.563
		l-2.883-2.79c-0.271-0.262-0.633-0.409-1.01-0.409H2.519C1.13,6.538,0,7.668,0,9.057v33.9c0,3.899,2.266,5.717,3.797,5.717
		c0.438,0,0.825-0.197,1.091-0.503c0.44,0.374,1.002,0.609,1.624,0.609h28.91c0.802,0,1.452-0.65,1.452-1.452
		C36.874,46.525,36.224,45.876,35.422,45.876z M3.993,16.839v28.946c-0.01-0.001-0.018-0.005-0.027-0.006
		c-0.176-0.102-1.062-0.72-1.062-2.822V9.442h11.18l2.882,2.789c0.271,0.262,0.633,0.409,1.01,0.409h30.636v1.68h-42.1
		C5.123,14.32,3.993,15.45,3.993,16.839z"/>
	<path  d="M47.977,29.416c-6.63,0-12.022,5.394-12.022,12.022c0,6.63,5.393,12.023,12.022,12.023S60,48.068,60,41.438
		C60,34.81,54.606,29.416,47.977,29.416z M47.977,50.558L47.977,50.558c-5.028,0-9.118-4.091-9.118-9.119
		c0-5.027,4.09-9.118,9.118-9.118s9.119,4.091,9.119,9.118C57.096,46.467,53.005,50.558,47.977,50.558z"/>
	<path  d="M48.046,35.143l-8.314,8.94l1.488,1.387l5.372-5.778l-0.001,7.212c0,0.802,0.65,1.452,1.453,1.452
		c0.801,0,1.451-0.65,1.451-1.452l0.001-7.216l5.373,5.783l1.489-1.388L48.046,35.143z"/>
</g>
</svg>
