<?xml version="1.0" encoding="utf-8"?>
<!-- Generator: Adobe Illustrator 16.0.3, SVG Export Plug-In . SVG Version: 6.00 Build 0)  -->
<!DOCTYPE svg PUBLIC "-//W3C//DTD SVG 1.1//EN" "http://www.w3.org/Graphics/SVG/1.1/DTD/svg11.dtd">
<svg version="1.1" id="Layer_1" xmlns="http://www.w3.org/2000/svg" xmlns:xlink="http://www.w3.org/1999/xlink" x="0px" y="0px"
	 width="60px" height="60px" viewBox="0 0 60 60" enable-background="new 0 0 60 60" xml:space="preserve">
<g>
	<path  d="M38.061,46.572H6.459V18.03h45.533v16.287c0,0.799,0.646,1.446,1.447,1.446
		c0.799,0,1.445-0.647,1.445-1.446V17.646c0-1.383-1.125-2.509-2.508-2.509H51.32v-2.059c0-1.383-1.127-2.508-2.51-2.508H18.492
		l-2.871-2.779c-0.27-0.261-0.631-0.407-1.006-0.407H2.508C1.125,7.384,0,8.51,0,9.894v33.771c0,3.885,2.258,5.694,3.783,5.694
		c0.34,0,0.648-0.122,0.896-0.319c0.398,0.268,0.879,0.425,1.395,0.425h31.986c0.799,0,1.445-0.647,1.445-1.446
		S38.859,46.572,38.061,46.572z M3.564,17.646v28.48c-0.307-0.38-0.672-1.113-0.672-2.461V10.277h11.137l2.873,2.779
		c0.27,0.261,0.629,0.406,1.006,0.406h30.52v1.674H6.074C4.691,15.137,3.564,16.263,3.564,17.646z"/>
	<path  d="M59.93,39.103c-0.172-0.523-0.623-0.905-1.168-0.984l-6.078-0.883l-2.717-5.507
		c-0.244-0.494-0.746-0.807-1.297-0.807s-1.055,0.312-1.297,0.807l-2.719,5.507l-6.078,0.883c-0.545,0.079-0.996,0.46-1.168,0.984
		c-0.17,0.523-0.027,1.099,0.367,1.483l4.396,4.286l-1.037,6.053c-0.094,0.543,0.129,1.092,0.576,1.415
		c0.252,0.183,0.549,0.276,0.85,0.276c0.23,0,0.461-0.056,0.672-0.166l5.438-2.857l5.436,2.857c0.488,0.255,1.078,0.214,1.523-0.11
		c0.445-0.323,0.67-0.872,0.576-1.415l-1.039-6.053l4.396-4.286C59.957,40.201,60.1,39.626,59.93,39.103z M52.602,43.331
		c-0.342,0.332-0.496,0.812-0.416,1.28l0.672,3.914l-3.516-1.848c-0.42-0.222-0.924-0.222-1.346,0l-3.514,1.848l0.67-3.914
		c0.08-0.469-0.074-0.948-0.416-1.28l-2.842-2.771l3.93-0.57c0.471-0.068,0.877-0.365,1.088-0.792l1.758-3.56l1.756,3.56
		c0.211,0.427,0.619,0.724,1.09,0.792l3.928,0.57L52.602,43.331z"/>
</g>
</svg>
