<?xml version="1.0" encoding="utf-8"?>
<!-- Generator: Adobe Illustrator 16.0.3, SVG Export Plug-In . SVG Version: 6.00 Build 0)  -->
<!DOCTYPE svg PUBLIC "-//W3C//DTD SVG 1.1//EN" "http://www.w3.org/Graphics/SVG/1.1/DTD/svg11.dtd">
<svg version="1.1" id="Layer_1" xmlns="http://www.w3.org/2000/svg" xmlns:xlink="http://www.w3.org/1999/xlink" x="0px" y="0px"
	 width="60px" height="60px" viewBox="0 0 60 60" enable-background="new 0 0 60 60" xml:space="preserve">
<path  d="M57.278,15.583h-1.595V13.35c0-1.501-1.222-2.722-2.723-2.722H20.064l-3.115-3.016
	c-0.292-0.283-0.684-0.441-1.091-0.441H2.722C1.221,7.171,0,8.392,0,9.893v36.643c0,4.216,2.449,6.18,4.104,6.18
	c0.473,0,0.892-0.214,1.18-0.545c0.475,0.405,1.083,0.659,1.755,0.659h50.239c1.501,0,2.722-1.222,2.722-2.722V18.305
	C60,16.804,58.779,15.583,57.278,15.583z M4.317,18.305v31.288c-0.01-0.002-0.02-0.006-0.031-0.007
	c-0.19-0.109-1.147-0.777-1.147-3.051V10.31h12.083l3.115,3.016c0.292,0.283,0.684,0.441,1.091,0.441h33.116v1.816H7.039
	C5.538,15.583,4.317,16.804,4.317,18.305z M56.861,49.689H7.457V18.722h49.405V49.689z"/>
</svg>
