<?xml version="1.0" encoding="utf-8"?>
<!-- Generator: Adobe Illustrator 16.0.3, SVG Export Plug-In . SVG Version: 6.00 Build 0)  -->
<!DOCTYPE svg PUBLIC "-//W3C//DTD SVG 1.1//EN" "http://www.w3.org/Graphics/SVG/1.1/DTD/svg11.dtd">
<svg version="1.1" id="Layer_1" xmlns="http://www.w3.org/2000/svg" xmlns:xlink="http://www.w3.org/1999/xlink" x="0px" y="0px"
	 width="60px" height="60px" viewBox="0 0 60 60" enable-background="new 0 0 60 60" xml:space="preserve">
<g>
	<path  d="M56.439,32.76c-0.002-0.002-0.003-0.003-0.005-0.005c-0.001-0.002-0.002-0.003-0.004-0.005
		c-0.001-0.002-0.004-0.002-0.006-0.004c-2.292-2.285-5.337-3.545-8.575-3.545c-3.245,0-6.297,1.264-8.592,3.56
		c-2.295,2.295-3.56,5.346-3.56,8.591c0,3.246,1.265,6.297,3.56,8.592c0.037,0.038,0.077,0.073,0.115,0.11
		c0.011,0.012,0.018,0.024,0.029,0.035c0.016,0.016,0.033,0.025,0.049,0.039c2.272,2.177,5.242,3.375,8.398,3.375
		c3.244,0,6.296-1.264,8.59-3.559C58.735,47.649,60,44.598,60,41.352C60,38.106,58.735,35.055,56.439,32.76z M41.303,34.806
		c1.749-1.749,4.074-2.712,6.547-2.712c1.987,0,3.873,0.632,5.447,1.783L40.474,46.934c-1.216-1.6-1.883-3.537-1.883-5.582
		C38.591,38.88,39.554,36.555,41.303,34.806z M54.395,47.899c-1.748,1.748-4.073,2.711-6.545,2.711
		c-1.922,0-3.751-0.588-5.293-1.668L55.34,35.926c1.142,1.57,1.768,3.448,1.768,5.426C57.107,43.825,56.144,46.15,54.395,47.899z"/>
	<path  d="M34.039,45.675H6.871V17.141h45.521v10.584c0,0.799,0.646,1.446,1.445,1.446c0.8,0,1.447-0.647,1.447-1.446
		V16.756c0-1.383-1.126-2.508-2.508-2.508h-1.471V12.19c0-1.383-1.125-2.508-2.508-2.508H18.488l-2.871-2.778
		c-0.27-0.261-0.631-0.407-1.006-0.407H2.508C1.125,6.497,0,7.622,0,9.006v33.763c0,3.884,2.256,5.693,3.781,5.693
		c0.437,0,0.822-0.196,1.088-0.502c0.438,0.374,0.998,0.607,1.617,0.607h27.553c0.799,0,1.446-0.647,1.446-1.446
		S34.838,45.675,34.039,45.675z M3.979,16.756v28.829C3.969,45.584,3.96,45.58,3.95,45.58c-0.176-0.102-1.058-0.718-1.058-2.812
		V9.39h11.134l2.871,2.778c0.27,0.261,0.63,0.407,1.005,0.407h30.512v1.673H6.486C5.104,14.248,3.979,15.373,3.979,16.756z"/>
</g>
</svg>
