<?xml version="1.0" encoding="utf-8"?>
<!-- Generator: Adobe Illustrator 16.0.3, SVG Export Plug-In . SVG Version: 6.00 Build 0)  -->
<!DOCTYPE svg PUBLIC "-//W3C//DTD SVG 1.1//EN" "http://www.w3.org/Graphics/SVG/1.1/DTD/svg11.dtd">
<svg version="1.1" id="Layer_1" xmlns="http://www.w3.org/2000/svg" xmlns:xlink="http://www.w3.org/1999/xlink" x="0px" y="0px"
	 width="60px" height="60px" viewBox="0 0 60 60" enable-background="new 0 0 60 60" xml:space="preserve">
<g>
	<path  d="M57.278,15.583h-1.596V13.35c0-1.501-1.221-2.722-2.723-2.722H20.064L16.95,7.613
		c-0.293-0.283-0.685-0.442-1.092-0.442H2.722C1.221,7.171,0,8.392,0,9.893v36.643c0,4.215,2.45,6.179,4.105,6.179
		c0.473,0,0.892-0.213,1.179-0.544c0.476,0.405,1.084,0.659,1.756,0.659h50.238c1.5,0,2.722-1.222,2.722-2.723V18.305
		C60,16.804,58.778,15.583,57.278,15.583z M4.317,18.305v31.286c-0.01-0.001-0.02-0.005-0.029-0.006
		c-0.19-0.109-1.148-0.776-1.148-3.05V10.311h12.084l3.114,3.015c0.292,0.283,0.685,0.441,1.092,0.441h33.114v1.816H7.04
		C5.538,15.583,4.317,16.804,4.317,18.305z M56.86,49.689H7.456V18.722H56.86V49.689z"/>
	<path  d="M37.735,42.979c-0.434,0-0.785,0.352-0.785,0.785c0,0.433,0.352,0.784,0.785,0.784h4.156
		c0.434,0,0.785-0.352,0.785-0.784V24.646c0-0.434-0.352-0.785-0.785-0.785h-4.156c-0.434,0-0.785,0.352-0.785,0.785
		s0.352,0.785,0.785,0.785h3.371v17.548H37.735z"/>
	<path  d="M22.426,44.549h4.156c0.433,0,0.784-0.352,0.784-0.784c0-0.434-0.352-0.785-0.784-0.785H23.21V25.432h3.372
		c0.433,0,0.784-0.352,0.784-0.785s-0.352-0.785-0.784-0.785h-4.156c-0.434,0-0.785,0.352-0.785,0.785v19.118
		C21.641,44.197,21.992,44.549,22.426,44.549z"/>
</g>
</svg>
