<?xml version="1.0" encoding="utf-8"?>
<!-- Generator: Adobe Illustrator 16.0.3, SVG Export Plug-In . SVG Version: 6.00 Build 0)  -->
<!DOCTYPE svg PUBLIC "-//W3C//DTD SVG 1.1//EN" "http://www.w3.org/Graphics/SVG/1.1/DTD/svg11.dtd">
<svg version="1.1" id="Layer_1" xmlns="http://www.w3.org/2000/svg" xmlns:xlink="http://www.w3.org/1999/xlink" x="0px" y="0px"
	 width="60px" height="60px" viewBox="0 0 60 60" enable-background="new 0 0 60 60" xml:space="preserve">
<g>
	<path  d="M35.435,45.881H6.901v-28.66h45.723v11.876c0,0.803,0.65,1.453,1.453,1.453c0.802,0,1.452-0.65,1.452-1.453
		V16.834c0-1.389-1.13-2.519-2.52-2.519h-1.476v-2.067c0-1.389-1.13-2.519-2.519-2.519H18.569l-2.883-2.791
		c-0.271-0.262-0.633-0.409-1.01-0.409H2.519C1.13,6.53,0,7.661,0,9.05v33.912c0,3.901,2.267,5.719,3.799,5.719
		c0.438,0,0.826-0.197,1.092-0.504c0.439,0.375,1.003,0.609,1.624,0.609h28.92c0.802,0,1.452-0.65,1.452-1.452
		C36.887,46.531,36.236,45.881,35.435,45.881z M3.996,16.834v28.957c-0.01-0.002-0.019-0.005-0.029-0.006
		c-0.176-0.102-1.062-0.719-1.062-2.823V9.436h11.185l2.883,2.791c0.271,0.262,0.634,0.409,1.011,0.409h30.646v1.681H6.515
		C5.126,14.315,3.996,15.445,3.996,16.834z"/>
	<path  d="M56.477,32.938c-2.271-2.271-5.291-3.522-8.503-3.522c-3.213,0-6.233,1.251-8.505,3.522
		c-2.272,2.271-3.523,5.292-3.523,8.504c0,3.213,1.25,6.233,3.521,8.506c2.272,2.271,5.293,3.521,8.506,3.521
		c3.212,0,6.232-1.25,8.503-3.521C58.748,47.676,60,44.656,60,41.443S58.748,35.21,56.477,32.938z M54.422,47.894
		c-1.723,1.723-4.013,2.671-6.449,2.671c-2.438,0-4.729-0.948-6.451-2.671c-1.723-1.724-2.671-4.014-2.671-6.45
		s0.949-4.728,2.673-6.45c1.723-1.724,4.014-2.672,6.45-2.672c2.436,0,4.726,0.948,6.448,2.671c1.724,1.724,2.672,4.015,2.672,6.451
		S56.146,46.171,54.422,47.894z"/>
	<path  d="M53.936,40.784h-5.169v-5.169c0-0.401-0.325-0.727-0.727-0.727c-0.4,0-0.726,0.325-0.726,0.727v5.169
		h-5.171c-0.4,0-0.726,0.325-0.726,0.726c0,0.401,0.325,0.727,0.726,0.727h5.171v5.171c0,0.4,0.325,0.727,0.726,0.727
		c0.401,0,0.727-0.326,0.727-0.727v-5.171h5.169c0.401,0,0.727-0.325,0.727-0.727C54.662,41.109,54.337,40.784,53.936,40.784z"/>
</g>
</svg>
