<?xml version="1.0" encoding="utf-8"?>
<!-- Generator: Adobe Illustrator 16.0.3, SVG Export Plug-In . SVG Version: 6.00 Build 0)  -->
<!DOCTYPE svg PUBLIC "-//W3C//DTD SVG 1.1//EN" "http://www.w3.org/Graphics/SVG/1.1/DTD/svg11.dtd">
<svg version="1.1" id="Layer_1" xmlns="http://www.w3.org/2000/svg" xmlns:xlink="http://www.w3.org/1999/xlink" x="0px" y="0px"
	 width="60px" height="60px" viewBox="0 0 60 60" enable-background="new 0 0 60 60" xml:space="preserve">
<path  d="M57.277,15.582h-1.595V13.35c0-1.501-1.221-2.722-2.723-2.722H20.065l-3.116-3.016
	c-0.293-0.283-0.685-0.441-1.091-0.441H2.722C1.222,7.171,0,8.392,0,9.893v36.643c0,4.216,2.449,6.179,4.104,6.179
	c0.473,0,0.892-0.213,1.179-0.543c0.476,0.404,1.083,0.658,1.755,0.658h50.239c1.501,0,2.723-1.221,2.723-2.722V18.304
	C60,16.804,58.778,15.582,57.277,15.582z M4.315,18.304v31.288c-0.01-0.002-0.019-0.005-0.028-0.006
	c-0.19-0.11-1.147-0.778-1.147-3.051V10.311h12.083l3.116,3.015c0.292,0.283,0.684,0.441,1.091,0.441h33.114v1.815H7.038
	C5.537,15.582,4.315,16.804,4.315,18.304z M44.123,18.722h6.513v23.239l-2.779-3.388c-0.149-0.182-0.372-0.287-0.606-0.287
	c-0.005,0-0.009,0-0.013,0c-0.239,0.004-0.464,0.117-0.609,0.307l-2.505,3.255V18.722z M56.86,49.689H7.455V18.722h35.099v25.434
	c0,0.336,0.214,0.634,0.531,0.742c0.084,0.028,0.169,0.042,0.254,0.042c0.238,0,0.471-0.109,0.621-0.306l3.31-4.301l3.545,4.319
	c0.21,0.257,0.56,0.354,0.87,0.241c0.312-0.111,0.521-0.407,0.521-0.738V18.722h4.654V49.689z"/>
</svg>
