<?xml version="1.0" encoding="utf-8"?>
<!-- Generator: Adobe Illustrator 16.0.3, SVG Export Plug-In . SVG Version: 6.00 Build 0)  -->
<!DOCTYPE svg PUBLIC "-//W3C//DTD SVG 1.1//EN" "http://www.w3.org/Graphics/SVG/1.1/DTD/svg11.dtd">
<svg version="1.1" id="Layer_1" xmlns="http://www.w3.org/2000/svg" xmlns:xlink="http://www.w3.org/1999/xlink" x="0px" y="0px"
	 width="60px" height="60px" viewBox="0 0 60 60" enable-background="new 0 0 60 60" xml:space="preserve">
<g>
	<path  d="M57.279,15.582h-1.596v-2.233c0-1.5-1.221-2.722-2.722-2.722H20.065L16.95,7.612
		c-0.293-0.283-0.685-0.441-1.092-0.441H2.723C1.222,7.171,0,8.392,0,9.892v36.644c0,4.216,2.449,6.179,4.104,6.179
		c0.473,0,0.892-0.213,1.18-0.544c0.476,0.405,1.083,0.659,1.755,0.659h50.24c1.5,0,2.721-1.221,2.721-2.722V18.304
		C60,16.804,58.779,15.582,57.279,15.582z M4.317,18.304v31.288c-0.011-0.001-0.02-0.005-0.03-0.006
		c-0.189-0.11-1.147-0.778-1.147-3.051V10.31h12.084l3.115,3.016c0.293,0.283,0.685,0.441,1.092,0.441h33.114v1.815H7.039
		C5.539,15.582,4.317,16.804,4.317,18.304z M56.861,49.69H7.457V18.722h49.404V49.69z"/>
	<path  d="M25.338,43.43c0.115,0.062,0.242,0.091,0.368,0.091c0.154,0,0.308-0.045,0.439-0.135l12.906-8.74
		c0.216-0.146,0.345-0.389,0.345-0.649s-0.129-0.504-0.345-0.65l-12.906-8.739c-0.24-0.162-0.551-0.18-0.808-0.043
		c-0.257,0.136-0.417,0.402-0.417,0.693v17.479C24.921,43.026,25.081,43.293,25.338,43.43z M26.49,26.735l10.723,7.261L26.49,41.257
		V26.735z"/>
</g>
</svg>
