<?xml version="1.0" encoding="utf-8"?>
<!-- Generator: Adobe Illustrator 16.0.3, SVG Export Plug-In . SVG Version: 6.00 Build 0)  -->
<!DOCTYPE svg PUBLIC "-//W3C//DTD SVG 1.1//EN" "http://www.w3.org/Graphics/SVG/1.1/DTD/svg11.dtd">
<svg version="1.1" id="Layer_1" xmlns="http://www.w3.org/2000/svg" xmlns:xlink="http://www.w3.org/1999/xlink" x="0px" y="0px"
	 width="60px" height="60px" viewBox="0 0 60 60" enable-background="new 0 0 60 60" xml:space="preserve">
<g>
	<path  d="M55.479,29.848h-1.678v-0.934c0-1.115-0.907-2.021-2.022-2.021H39.488c0.195-0.232,0.317-0.527,0.317-0.854
		V14.174c0-1.113-0.907-2.021-2.022-2.021h-1.267v-0.934c0-1.115-0.906-2.021-2.021-2.021H15.031L13.287,7.51
		c-0.249-0.24-0.582-0.375-0.929-0.375H4.523C3.408,7.135,2.5,8.041,2.5,9.156v21.861c0,2.785,1.699,4.084,2.847,4.084
		c0.426,0,0.802-0.205,1.046-0.516c0.365,0.361,0.866,0.586,1.418,0.586h11.976v13.541c0,2.787,1.698,4.084,2.847,4.084
		c0.546,0,1.012-0.328,1.219-0.797c0.367,0.521,0.971,0.865,1.654,0.865h29.974c1.114,0,2.021-0.906,2.021-2.021V31.871
		C57.5,30.756,56.594,29.848,55.479,29.848z M5.789,14.174V32.51c-0.062-0.021-0.124-0.041-0.189-0.055
		c-0.15-0.125-0.43-0.545-0.43-1.438V9.803h6.648l1.744,1.688c0.249,0.24,0.582,0.375,0.929,0.375h19.356v0.287H7.811
		C6.695,12.152,5.789,13.061,5.789,14.174z M8.457,32.502v-17.68h28.68v11.217c0,0.326,0.122,0.621,0.316,0.854h-5.138l-1.743-1.688
		c-0.248-0.24-0.581-0.375-0.928-0.375h-7.836c-1.116,0-2.022,0.908-2.022,2.021v5.65H8.457z M23.484,31.871v18.566
		c-0.17-0.141-0.374-0.242-0.599-0.285c-0.15-0.127-0.431-0.545-0.431-1.439V33.865c0-0.01,0.003-0.018,0.003-0.029
		c0-0.01-0.003-0.02-0.003-0.029v-6.309h6.649l1.743,1.688c0.25,0.24,0.582,0.377,0.928,0.377h19.357v0.285H25.506
		C24.392,29.848,23.484,30.756,23.484,31.871z M54.83,50.197H26.153v-17.68H54.83V50.197z"/>
	<path  d="M16.919,47.287h-0.222c-0.193,0-0.992-0.072-1.354-0.436c-0.352-0.352-0.434-0.998-0.437-1.215v-7.938
		c0-0.367-0.299-0.668-0.667-0.668s-0.668,0.301-0.668,0.668v7.938c0,0.137,0.023,1.354,0.827,2.158
		c0.805,0.805,2.148,0.828,2.299,0.828h0.222v1.354l2.025-2.027l-2.025-2.027V47.287z"/>
	<path  d="M45.522,15.35h0.221c0.194,0,0.993,0.074,1.354,0.436c0.352,0.354,0.436,0.998,0.438,1.215v7.938
		c0,0.367,0.299,0.666,0.666,0.666c0.369,0,0.668-0.299,0.668-0.666V17c0-0.137-0.023-1.354-0.828-2.158s-2.147-0.828-2.298-0.828
		h-0.221V12.66l-2.026,2.027l2.026,2.027V15.35z"/>
</g>
</svg>
