<?xml version="1.0" encoding="utf-8"?>
<!-- Generator: Adobe Illustrator 16.0.3, SVG Export Plug-In . SVG Version: 6.00 Build 0)  -->
<!DOCTYPE svg PUBLIC "-//W3C//DTD SVG 1.1//EN" "http://www.w3.org/Graphics/SVG/1.1/DTD/svg11.dtd">
<svg version="1.1" id="Layer_1" xmlns="http://www.w3.org/2000/svg" xmlns:xlink="http://www.w3.org/1999/xlink" x="0px" y="0px"
	 width="60px" height="60px" viewBox="0 0 60 60" enable-background="new 0 0 60 60" xml:space="preserve">
<g>
	<path  d="M35.435,45.882H6.9V17.221h45.725v11.876c0,0.803,0.65,1.453,1.452,1.453c0.803,0,1.453-0.65,1.453-1.453
		V16.834c0-1.389-1.13-2.519-2.52-2.519h-1.477v-2.067c0-1.389-1.13-2.52-2.519-2.52H18.57l-2.884-2.79
		c-0.271-0.262-0.633-0.409-1.01-0.409H2.52C1.13,6.529,0,7.66,0,9.049v33.913c0,3.901,2.267,5.719,3.799,5.719
		c0.438,0,0.825-0.197,1.092-0.504c0.439,0.375,1.002,0.61,1.624,0.61h28.92c0.802,0,1.452-0.65,1.452-1.453
		S36.236,45.882,35.435,45.882z M3.995,16.834v28.957c-0.009-0.001-0.019-0.005-0.027-0.006c-0.177-0.102-1.063-0.72-1.063-2.823
		V9.436h11.185l2.884,2.79c0.271,0.262,0.633,0.409,1.01,0.409h30.646v1.681H6.515C5.125,14.315,3.995,15.445,3.995,16.834z"/>
	<path  d="M56.478,32.938c-2.271-2.271-5.292-3.522-8.504-3.522c-6.633,0-12.029,5.396-12.029,12.027
		s5.396,12.027,12.029,12.027C54.604,53.471,60,48.075,60,41.443C60,38.23,58.749,35.21,56.478,32.938z M47.974,50.565
		L47.974,50.565c-5.031,0-9.124-4.093-9.124-9.122c0-5.03,4.093-9.122,9.124-9.122c2.437,0,4.727,0.949,6.449,2.672
		c1.724,1.723,2.672,4.014,2.671,6.45C57.094,46.473,53.002,50.565,47.974,50.565z"/>
	<path  d="M52.655,36.856c-0.283-0.283-0.743-0.283-1.027,0l-3.654,3.655l-3.656-3.656
		c-0.284-0.284-0.743-0.284-1.027,0c-0.283,0.283-0.283,0.743,0,1.027l3.656,3.655l-3.656,3.656c-0.283,0.284-0.283,0.744,0,1.027
		c0.142,0.143,0.328,0.213,0.514,0.213s0.372-0.07,0.514-0.213l3.656-3.656l3.654,3.655c0.143,0.142,0.328,0.213,0.514,0.213
		c0.187,0,0.372-0.071,0.514-0.213c0.284-0.283,0.284-0.743,0-1.026l-3.654-3.656l3.654-3.654
		C52.939,37.601,52.939,37.141,52.655,36.856z"/>
</g>
</svg>
