<?xml version="1.0" encoding="utf-8"?>
<!-- Generator: Adobe Illustrator 16.0.3, SVG Export Plug-In . SVG Version: 6.00 Build 0)  -->
<!DOCTYPE svg PUBLIC "-//W3C//DTD SVG 1.1//EN" "http://www.w3.org/Graphics/SVG/1.1/DTD/svg11.dtd">
<svg version="1.1" id="Layer_1" xmlns="http://www.w3.org/2000/svg" xmlns:xlink="http://www.w3.org/1999/xlink" x="0px" y="0px"
	 width="60px" height="60px" viewBox="0 0 60 60" enable-background="new 0 0 60 60" xml:space="preserve">
<g>
	<path  d="M30,0C13.458,0,0,13.459,0,30c0,16.543,13.458,30,30,30s30-13.457,30-30C60,13.459,46.542,0,30,0z
		 M22.768,38c1.79,1.617,4.116,2.639,6.68,2.77v15.9c-6.943-0.141-13.24-2.945-17.915-7.436L22.768,38z M30,37.482
		c-4.134,0-7.497-3.361-7.497-7.496S25.866,22.49,30,22.49s7.496,3.361,7.496,7.496S34.134,37.482,30,37.482z M37.231,21.973
		c-1.789-1.617-4.115-2.639-6.679-2.77V3.33c6.937,0.141,13.229,2.939,17.9,7.422L37.231,21.973z M3.315,30
		c0-14.529,11.673-26.375,26.132-26.67v15.873c-5.704,0.289-10.259,5.008-10.259,10.783c0,2.783,1.065,5.314,2.798,7.232
		L10.752,48.453C6.151,43.656,3.315,37.156,3.315,30z M30.553,56.67v-15.9c5.704-0.289,10.259-5.008,10.259-10.783
		c0-2.783-1.065-5.314-2.799-7.232l11.223-11.221C53.843,16.33,56.685,22.838,56.685,30C56.685,44.529,45.012,56.375,30.553,56.67z"
		/>
	<path  d="M30,25.99c-2.212,0-4.011,1.799-4.011,4.01s1.799,4.01,4.011,4.01c2.211,0,4.01-1.799,4.01-4.01
		S32.211,25.99,30,25.99z M30,32.904c-1.602,0-2.905-1.303-2.905-2.904s1.304-2.904,2.905-2.904s2.905,1.303,2.905,2.904
		S31.602,32.904,30,32.904z"/>
</g>
</svg>
