<?xml version="1.0" encoding="utf-8"?>
<!-- Generator: Adobe Illustrator 16.0.3, SVG Export Plug-In . SVG Version: 6.00 Build 0)  -->
<!DOCTYPE svg PUBLIC "-//W3C//DTD SVG 1.1//EN" "http://www.w3.org/Graphics/SVG/1.1/DTD/svg11.dtd">
<svg version="1.1" id="Layer_1" xmlns="http://www.w3.org/2000/svg" xmlns:xlink="http://www.w3.org/1999/xlink" x="0px" y="0px"
	 width="60px" height="60px" viewBox="0 0 60 60" enable-background="new 0 0 60 60" xml:space="preserve">
<g>
	<path  d="M46.912,45.012H43.77c6.54-4.43,10.847-11.919,10.847-20.396C54.616,11.043,43.573,0,30,0
		S5.384,11.043,5.384,24.616c0,8.477,4.307,15.966,10.847,20.396h-3.143c-4.133,0-7.495,3.361-7.495,7.494
		c0,4.132,3.362,7.494,7.495,7.494h33.824c4.132,0,7.494-3.362,7.494-7.494C54.406,48.373,51.044,45.012,46.912,45.012z
		 M9.752,24.616C9.752,13.452,18.836,4.369,30,4.369c11.165,0,20.248,9.083,20.248,20.248c0,11.165-9.083,20.248-20.248,20.248
		C18.836,44.864,9.752,35.781,9.752,24.616z M46.912,55.631H13.088c-1.724,0-3.126-1.402-3.126-3.125
		c0-1.724,1.402-3.125,3.126-3.125h33.824c1.723,0,3.125,1.401,3.125,3.125C50.037,54.229,48.635,55.631,46.912,55.631z"/>
	<path  d="M42.896,24.616c0-7.11-5.785-12.896-12.896-12.896s-12.896,5.785-12.896,12.896
		c0,7.111,5.785,12.897,12.896,12.897S42.896,31.728,42.896,24.616z M19.288,24.616c0-5.906,4.806-10.711,10.712-10.711
		s10.712,4.805,10.712,10.711c0,5.907-4.806,10.713-10.712,10.713S19.288,30.523,19.288,24.616z"/>
	<path  d="M38.791,24.616c0-4.847-3.943-8.79-8.791-8.79s-8.792,3.943-8.792,8.79c0,4.849,3.944,8.792,8.792,8.792
		S38.791,29.465,38.791,24.616z M22.665,24.616c0-4.044,3.29-7.333,7.335-7.333s7.335,3.29,7.335,7.333
		c0,4.045-3.29,7.336-7.335,7.336S22.665,28.661,22.665,24.616z"/>
</g>
</svg>
