<?xml version="1.0" encoding="utf-8"?>
<!-- Generator: Adobe Illustrator 16.0.3, SVG Export Plug-In . SVG Version: 6.00 Build 0)  -->
<!DOCTYPE svg PUBLIC "-//W3C//DTD SVG 1.1//EN" "http://www.w3.org/Graphics/SVG/1.1/DTD/svg11.dtd">
<svg version="1.1" id="Layer_1" xmlns="http://www.w3.org/2000/svg" xmlns:xlink="http://www.w3.org/1999/xlink" x="0px" y="0px"
	 width="60px" height="60px" viewBox="0 0 60 60" enable-background="new 0 0 60 60" xml:space="preserve">
<g>
	<path  d="M58.408,0H1.592C0.713,0,0,0.713,0,1.593v56.814C0,59.287,0.713,60,1.592,60h56.816
		C59.287,60,60,59.287,60,58.407V1.593C60,0.713,59.287,0,58.408,0z M10.136,3.185h27.012v8.867c0,1.151,0.937,2.089,2.088,2.089
		h5.192c1.151,0,2.089-0.938,2.089-2.089V3.185h3.346v14.511c0,0.42-0.341,0.762-0.762,0.762H10.898
		c-0.42,0-0.762-0.342-0.762-0.762V3.185z M38.21,3.185h7.246v8.867c0,0.566-0.461,1.026-1.027,1.026h-5.192
		c-0.565,0-1.026-0.46-1.026-1.026V3.185z M56.815,56.815H3.185V3.185h5.359v14.511c0,1.298,1.056,2.354,2.354,2.354h38.203
		c1.298,0,2.354-1.056,2.354-2.354V3.185h5.359V56.815z"/>
	<path  d="M49.102,24.701H10.898c-1.298,0-2.354,1.056-2.354,2.354V50.47c0,1.298,1.056,2.354,2.354,2.354h38.203
		c1.298,0,2.354-1.057,2.354-2.354V27.055C51.456,25.757,50.399,24.701,49.102,24.701z M49.863,50.47
		c0,0.421-0.341,0.763-0.762,0.763H10.898c-0.42,0-0.762-0.342-0.762-0.763V27.055c0-0.42,0.342-0.761,0.762-0.761h38.203
		c0.421,0,0.762,0.341,0.762,0.761V50.47z"/>
	<path  d="M45.987,29.469H13.535c-0.293,0-0.531,0.238-0.531,0.531s0.238,0.531,0.531,0.531h32.453
		c0.293,0,0.53-0.238,0.53-0.531S46.28,29.469,45.987,29.469z"/>
	<path  d="M45.987,35.268H13.535c-0.293,0-0.531,0.238-0.531,0.531s0.238,0.53,0.531,0.53h32.453
		c0.293,0,0.53-0.237,0.53-0.53S46.28,35.268,45.987,35.268z"/>
	<path  d="M45.987,41.432H13.535c-0.293,0-0.531,0.237-0.531,0.53c0,0.294,0.238,0.531,0.531,0.531h32.453
		c0.293,0,0.53-0.237,0.53-0.531C46.518,41.669,46.28,41.432,45.987,41.432z"/>
	<path  d="M45.987,47.076H13.535c-0.293,0-0.531,0.237-0.531,0.531c0,0.293,0.238,0.53,0.531,0.53h32.453
		c0.293,0,0.53-0.237,0.53-0.53C46.518,47.313,46.28,47.076,45.987,47.076z"/>
</g>
</svg>
