<?xml version="1.0" encoding="utf-8"?>
<!-- Generator: Adobe Illustrator 16.0.3, SVG Export Plug-In . SVG Version: 6.00 Build 0)  -->
<!DOCTYPE svg PUBLIC "-//W3C//DTD SVG 1.1//EN" "http://www.w3.org/Graphics/SVG/1.1/DTD/svg11.dtd">
<svg version="1.1" id="Layer_1" xmlns="http://www.w3.org/2000/svg" xmlns:xlink="http://www.w3.org/1999/xlink" x="0px" y="0px"
	 width="60px" height="60px" viewBox="0 0 60 60" enable-background="new 0 0 60 60" xml:space="preserve">
<g>
	<path  d="M37.411,14.76H22.604c-4.322,0-7.838,3.516-7.838,7.837v14.808c0,4.321,3.516,7.838,7.838,7.838h14.808
		c4.321,0,7.838-3.517,7.838-7.838V22.597C45.249,18.275,41.732,14.76,37.411,14.76z M41.689,37.404c0,2.358-1.92,4.278-4.278,4.278
		H22.604c-2.359,0-4.278-1.92-4.278-4.278V22.597c0-2.358,1.919-4.277,4.278-4.277h14.808c2.358,0,4.278,1.919,4.278,4.277V37.404z"
		/>
	<path  d="M11.876,22.754H1.78C0.797,22.754,0,23.55,0,24.533s0.797,1.78,1.78,1.78h10.096
		c0.983,0,1.78-0.797,1.78-1.78S12.859,22.754,11.876,22.754z"/>
	<path  d="M11.876,33.783H1.78c-0.983,0-1.78,0.797-1.78,1.78s0.797,1.779,1.78,1.779h10.096
		c0.983,0,1.78-0.796,1.78-1.779S12.859,33.783,11.876,33.783z"/>
	<path  d="M11.876,28.349H1.78c-0.983,0-1.78,0.797-1.78,1.78s0.797,1.779,1.78,1.779h10.096
		c0.983,0,1.78-0.796,1.78-1.779S12.859,28.349,11.876,28.349z"/>
	<path  d="M48.124,26.313H58.22c0.983,0,1.78-0.797,1.78-1.78s-0.797-1.779-1.78-1.779H48.124
		c-0.983,0-1.78,0.796-1.78,1.779S47.141,26.313,48.124,26.313z"/>
	<path  d="M58.22,33.783H48.124c-0.983,0-1.78,0.797-1.78,1.78s0.797,1.779,1.78,1.779H58.22
		c0.983,0,1.78-0.796,1.78-1.779S59.203,33.783,58.22,33.783z"/>
	<path  d="M58.22,28.349H48.124c-0.983,0-1.78,0.797-1.78,1.78s0.797,1.779,1.78,1.779H58.22
		c0.983,0,1.78-0.796,1.78-1.779S59.203,28.349,58.22,28.349z"/>
	<path  d="M24.492,46.344c-0.983,0-1.78,0.797-1.78,1.78v10.097c0,0.983,0.797,1.779,1.78,1.779
		c0.982,0,1.779-0.796,1.779-1.779V48.124C26.271,47.141,25.475,46.344,24.492,46.344z"/>
	<path  d="M35.522,46.344c-0.983,0-1.78,0.797-1.78,1.78v10.097c0,0.983,0.797,1.779,1.78,1.779
		s1.78-0.796,1.78-1.779V48.124C37.303,47.141,36.506,46.344,35.522,46.344z"/>
	<path  d="M30.088,46.344c-0.983,0-1.779,0.797-1.779,1.78v10.097c0,0.983,0.796,1.779,1.779,1.779
		s1.78-0.796,1.78-1.779V48.124C31.868,47.141,31.071,46.344,30.088,46.344z"/>
	<path  d="M24.492,13.657c0.982,0,1.779-0.797,1.779-1.779V1.78c0-0.983-0.797-1.78-1.779-1.78
		c-0.983,0-1.78,0.797-1.78,1.78v10.098C22.712,12.86,23.509,13.657,24.492,13.657z"/>
	<path  d="M35.522,13.657c0.983,0,1.78-0.797,1.78-1.779V1.78c0-0.983-0.797-1.78-1.78-1.78s-1.78,0.797-1.78,1.78
		v10.098C33.742,12.86,34.539,13.657,35.522,13.657z"/>
	<path  d="M30.088,13.657c0.983,0,1.78-0.797,1.78-1.779V1.78c0-0.983-0.797-1.78-1.78-1.78s-1.779,0.797-1.779,1.78
		v10.098C28.309,12.86,29.104,13.657,30.088,13.657z"/>
</g>
</svg>
