<?xml version="1.0" encoding="utf-8"?>
<!-- Generator: Adobe Illustrator 16.0.3, SVG Export Plug-In . SVG Version: 6.00 Build 0)  -->
<!DOCTYPE svg PUBLIC "-//W3C//DTD SVG 1.1//EN" "http://www.w3.org/Graphics/SVG/1.1/DTD/svg11.dtd">
<svg version="1.1" id="Layer_1" xmlns="http://www.w3.org/2000/svg" xmlns:xlink="http://www.w3.org/1999/xlink" x="0px" y="0px"
	 width="60px" height="60px" viewBox="0 0 60 60" enable-background="new 0 0 60 60" xml:space="preserve">
<g>
	<path  d="M12.502,10.623H1.873C0.838,10.623,0,11.461,0,12.496s0.838,1.873,1.873,1.873h10.629
		c1.035,0,1.874-0.838,1.874-1.873S13.537,10.623,12.502,10.623z"/>
	<path  d="M12.502,22.234H1.873C0.838,22.234,0,23.074,0,24.107c0,1.035,0.838,1.875,1.873,1.875h10.629
		c1.035,0,1.874-0.84,1.874-1.875C14.376,23.074,13.537,22.234,12.502,22.234z"/>
	<path  d="M12.502,34.18H1.873C0.838,34.18,0,35.018,0,36.053s0.838,1.873,1.873,1.873h10.629
		c1.035,0,1.874-0.838,1.874-1.873S13.537,34.18,12.502,34.18z"/>
	<path  d="M12.502,45.598H1.873C0.838,45.598,0,46.438,0,47.473s0.838,1.873,1.873,1.873h10.629
		c1.035,0,1.874-0.838,1.874-1.873S13.537,45.598,12.502,45.598z"/>
	<path  d="M47.496,14.369h10.63c1.035,0,1.874-0.838,1.874-1.873s-0.839-1.873-1.874-1.873h-10.63
		c-1.035,0-1.873,0.838-1.873,1.873S46.461,14.369,47.496,14.369z"/>
	<path  d="M58.126,22.234h-10.63c-1.035,0-1.873,0.84-1.873,1.873c0,1.035,0.838,1.875,1.873,1.875h10.63
		c1.035,0,1.874-0.84,1.874-1.875C60,23.074,59.161,22.234,58.126,22.234z"/>
	<path  d="M58.126,34.18h-10.63c-1.035,0-1.873,0.838-1.873,1.873s0.838,1.873,1.873,1.873h10.63
		c1.035,0,1.874-0.838,1.874-1.873S59.161,34.18,58.126,34.18z"/>
	<path  d="M58.126,45.598h-10.63c-1.035,0-1.873,0.84-1.873,1.875s0.838,1.873,1.873,1.873h10.63
		c1.035,0,1.874-0.838,1.874-1.873S59.161,45.598,58.126,45.598z"/>
	<path  d="M37.551,4.816h-15.4c-3.402,0-6.171,2.77-6.171,6.172v38.023c0,3.402,2.769,6.172,6.171,6.172h15.4
		c3.402,0,6.172-2.77,6.172-6.172V10.988C43.723,7.586,40.953,4.816,37.551,4.816z M39.975,49.012c0,1.336-1.088,2.424-2.424,2.424
		h-15.4c-1.336,0-2.424-1.088-2.424-2.424V10.988c0-1.336,1.088-2.424,2.424-2.424h15.4c1.336,0,2.424,1.088,2.424,2.424V49.012z"/>
</g>
</svg>
