<?xml version="1.0" encoding="utf-8"?>
<!-- Generator: Adobe Illustrator 16.0.3, SVG Export Plug-In . SVG Version: 6.00 Build 0)  -->
<!DOCTYPE svg PUBLIC "-//W3C//DTD SVG 1.1//EN" "http://www.w3.org/Graphics/SVG/1.1/DTD/svg11.dtd">
<svg version="1.1" id="Layer_1" xmlns="http://www.w3.org/2000/svg" xmlns:xlink="http://www.w3.org/1999/xlink" x="0px" y="0px"
	 width="60px" height="60px" viewBox="0 0 60 60" enable-background="new 0 0 60 60" xml:space="preserve">
<g>
	<path  d="M57.888,0H2.111C0.945,0,0,0.946,0,2.112v55.777C0,59.055,0.945,60,2.111,60h55.776
		C59.055,60,60,59.055,60,57.889V2.112C60,0.946,59.055,0,57.888,0z M55.776,55.777H4.223V4.223h51.554V55.777z"/>
	<path  d="M30,53.812c13.13,0,23.812-10.682,23.812-23.812S43.13,6.189,30,6.189S6.188,16.871,6.188,30.001
		S16.87,53.812,30,53.812z M30,8.3c11.965,0,21.7,9.735,21.7,21.701C51.7,41.966,41.965,51.7,30,51.7
		c-11.966,0-21.701-9.734-21.701-21.699C8.299,18.035,18.034,8.3,30,8.3z"/>
	<path  d="M11.366,30.77l16.46,3.013l-5.441,1.837c-0.161,0.055-0.297,0.166-0.383,0.313l-4.797,8.259
		c-0.094,0.162-0.119,0.354-0.071,0.534s0.166,0.334,0.327,0.429l2.969,1.724c0.111,0.063,0.232,0.095,0.354,0.095
		c0.2,0,0.397-0.085,0.535-0.246l10.871-12.723l-1.072,5.42c-0.033,0.168-0.004,0.342,0.082,0.489l4.775,8.27
		c0.131,0.226,0.367,0.352,0.611,0.352c0.119,0,0.24-0.03,0.351-0.094l2.974-1.717c0.294-0.17,0.426-0.526,0.311-0.847
		l-5.598-15.688l4.217,3.692c0.129,0.113,0.293,0.175,0.464,0.175h9.551c0.39,0,0.704-0.314,0.704-0.704v-3.434
		c0-0.34-0.242-0.631-0.578-0.692L32.716,26.25l5.091-1.719c0.162-0.054,0.299-0.165,0.385-0.313l4.796-8.259
		c0.094-0.161,0.119-0.354,0.071-0.534c-0.048-0.181-0.166-0.334-0.327-0.428l-2.97-1.725c-0.296-0.172-0.668-0.107-0.888,0.152
		L28.082,26.054l1.093-5.524c0.033-0.167,0.005-0.341-0.081-0.488l-4.777-8.27c-0.195-0.336-0.627-0.453-0.962-0.257l-2.973,1.717
		c-0.294,0.17-0.426,0.526-0.311,0.846l5.595,15.679l-4.158-3.641c-0.128-0.113-0.293-0.175-0.463-0.175h-9.552
		c-0.39,0-0.704,0.315-0.704,0.704v3.434C10.789,30.417,11.031,30.709,11.366,30.77z M29.562,27.314
		c0.148-0.025,0.298-0.046,0.453-0.046c1.506,0,2.73,1.225,2.73,2.73c0,1.505-1.225,2.729-2.73,2.729
		c-0.525,0-1.012-0.156-1.429-0.415l-0.656-0.574c-0.387-0.463-0.628-1.047-0.64-1.693l0.225-1.137
		c0.253-0.578,0.704-1.043,1.263-1.33L29.562,27.314z M20.629,45.366l-1.852-1.076l4.309-7.422l6.753-2.279L20.629,45.366z
		 M36.842,46.869l-4.292-7.431l1.384-6.993l4.765,13.353L36.842,46.869z M48.15,30.506v2.144h-8.582l-5.362-4.695L48.15,30.506z
		 M39.562,14.785l1.854,1.076l-4.31,7.421l-6.753,2.279L39.562,14.785z M23.449,13.085l4.293,7.431l-1.384,6.993l-4.765-13.352
		L23.449,13.085z M12.197,27.349h8.582l5.362,4.695L12.197,29.49V27.349z"/>
	<path  d="M7.244,9.013c0.975,0,1.768-0.793,1.768-1.769S8.219,5.477,7.244,5.477S5.476,6.27,5.476,7.245
		S6.27,9.013,7.244,9.013z M7.244,6.884c0.198,0,0.36,0.162,0.36,0.361s-0.162,0.361-0.36,0.361c-0.199,0-0.36-0.162-0.36-0.361
		S7.045,6.884,7.244,6.884z"/>
	<path  d="M30.016,31.816c0.92,0,1.668-0.748,1.668-1.667c0-0.92-0.748-1.668-1.668-1.668s-1.668,0.748-1.668,1.668
		C28.348,31.068,29.096,31.816,30.016,31.816z M30.016,29.889c0.144,0,0.261,0.117,0.261,0.261c0,0.143-0.117,0.259-0.261,0.259
		c-0.143,0-0.26-0.116-0.26-0.259C29.756,30.006,29.873,29.889,30.016,29.889z"/>
	<path  d="M52.756,9.013c0.975,0,1.768-0.793,1.768-1.769s-0.793-1.768-1.768-1.768s-1.769,0.793-1.769,1.768
		S51.781,9.013,52.756,9.013z M52.756,6.884c0.199,0,0.36,0.162,0.36,0.361s-0.161,0.361-0.36,0.361
		c-0.198,0-0.361-0.162-0.361-0.361S52.558,6.884,52.756,6.884z"/>
	<path  d="M7.244,54.524c0.975,0,1.768-0.793,1.768-1.769c0-0.975-0.793-1.768-1.768-1.768s-1.769,0.793-1.769,1.768
		C5.476,53.731,6.27,54.524,7.244,54.524z M7.244,52.396c0.198,0,0.36,0.161,0.36,0.359c0,0.199-0.162,0.361-0.36,0.361
		c-0.199,0-0.36-0.162-0.36-0.361C6.884,52.558,7.045,52.396,7.244,52.396z"/>
	<path  d="M52.756,50.988c-0.975,0-1.769,0.793-1.769,1.768c0,0.976,0.794,1.769,1.769,1.769s1.768-0.793,1.768-1.769
		C54.523,51.781,53.73,50.988,52.756,50.988z M52.756,53.117c-0.198,0-0.361-0.162-0.361-0.361c0-0.198,0.163-0.359,0.361-0.359
		c0.199,0,0.36,0.161,0.36,0.359C53.116,52.955,52.955,53.117,52.756,53.117z"/>
</g>
</svg>
