<?xml version="1.0" encoding="utf-8"?>
<!-- Generator: Adobe Illustrator 16.0.3, SVG Export Plug-In . SVG Version: 6.00 Build 0)  -->
<!DOCTYPE svg PUBLIC "-//W3C//DTD SVG 1.1//EN" "http://www.w3.org/Graphics/SVG/1.1/DTD/svg11.dtd">
<svg version="1.1" id="Layer_1" xmlns="http://www.w3.org/2000/svg" xmlns:xlink="http://www.w3.org/1999/xlink" x="0px" y="0px"
	 width="60px" height="60px" viewBox="0 0 60 60" enable-background="new 0 0 60 60" xml:space="preserve">
<g>
	<path  d="M54.75,27.714c-0.206,0-0.408,0.015-0.608,0.038c0.513-1.738,0.809-3.341,0.809-4.555
		c0-0.992-0.175-1.774-0.533-2.393c-0.5-0.859-1.36-1.354-2.361-1.354H8.021c-1.007,0-1.873,0.496-2.377,1.359
		c-0.363,0.623-0.54,1.412-0.54,2.413c0,1.21,0.296,2.806,0.807,4.536c-0.218-0.027-0.438-0.046-0.663-0.046
		C2.354,27.714,0,30.068,0,32.962c0,2.895,2.354,5.249,5.248,5.249c1.807,0,3.401-0.916,4.347-2.309
		c1.731,2.684,3.763,4.646,5.718,4.646h29.452c1.939,0,3.952-1.942,5.673-4.604c0.947,1.367,2.526,2.266,4.312,2.266
		c2.895,0,5.25-2.354,5.25-5.249C60,30.068,57.645,27.714,54.75,27.714z M5.248,35.237c-1.254,0-2.273-1.021-2.273-2.275
		c0-1.254,1.02-2.274,2.273-2.274c1.256,0,2.276,1.021,2.276,2.274C7.524,34.217,6.504,35.237,5.248,35.237z M44.765,37.575H15.312
		c-0.589,0-2.241-1.335-4.166-4.917c-2.603-4.844-3.377-9.19-2.99-10.232h43.748c0.367,1.073-0.472,5.578-3.092,10.394
		C46.928,36.284,45.329,37.575,44.765,37.575z M54.75,35.237c-1.254,0-2.274-1.021-2.274-2.275c0-1.254,1.021-2.274,2.274-2.274
		c1.255,0,2.275,1.021,2.275,2.274C57.025,34.217,56.005,35.237,54.75,35.237z"/>
	<path  d="M12.739,25.138c-0.896,0-1.624,0.729-1.624,1.625c0,0.896,0.729,1.625,1.624,1.625
		c0.896,0,1.626-0.729,1.626-1.625C14.365,25.866,13.636,25.138,12.739,25.138z M12.739,27.396c-0.349,0-0.633-0.284-0.633-0.634
		s0.284-0.634,0.633-0.634c0.35,0,0.634,0.284,0.634,0.634S13.089,27.396,12.739,27.396z"/>
	<path  d="M20.99,25.138c-0.896,0-1.625,0.729-1.625,1.625c0,0.896,0.729,1.625,1.625,1.625
		c0.896,0,1.626-0.729,1.626-1.625C22.616,25.866,21.887,25.138,20.99,25.138z M20.99,27.396c-0.35,0-0.633-0.284-0.633-0.634
		s0.283-0.634,0.633-0.634s0.635,0.284,0.635,0.634S21.34,27.396,20.99,27.396z"/>
	<path  d="M16.617,31.337c-0.896,0-1.626,0.729-1.626,1.625c0,0.896,0.729,1.625,1.626,1.625
		c0.896,0,1.625-0.729,1.625-1.625C18.242,32.066,17.513,31.337,16.617,31.337z M16.617,33.596c-0.35,0-0.635-0.284-0.635-0.634
		s0.285-0.634,0.635-0.634s0.633,0.284,0.633,0.634S16.967,33.596,16.617,33.596z"/>
	<path  d="M25.518,31.337c-0.896,0-1.625,0.729-1.625,1.625c0,0.896,0.729,1.625,1.625,1.625s1.625-0.729,1.625-1.625
		C27.143,32.066,26.414,31.337,25.518,31.337z M25.518,33.596c-0.35,0-0.635-0.284-0.635-0.634s0.285-0.634,0.635-0.634
		s0.634,0.284,0.634,0.634S25.867,33.596,25.518,33.596z"/>
	<path  d="M34.752,31.337c-0.896,0-1.625,0.729-1.625,1.625c0,0.896,0.729,1.625,1.625,1.625
		c0.896,0,1.626-0.729,1.626-1.625C36.378,32.066,35.648,31.337,34.752,31.337z M34.752,33.596c-0.35,0-0.633-0.284-0.633-0.634
		s0.283-0.634,0.633-0.634s0.635,0.284,0.635,0.634S35.102,33.596,34.752,33.596z"/>
	<path  d="M43.653,31.337c-0.896,0-1.625,0.729-1.625,1.625c0,0.896,0.729,1.625,1.625,1.625
		c0.896,0,1.626-0.729,1.626-1.625C45.279,32.066,44.55,31.337,43.653,31.337z M43.653,33.596c-0.35,0-0.634-0.284-0.634-0.634
		s0.284-0.634,0.634-0.634s0.634,0.284,0.634,0.634S44.003,33.596,43.653,33.596z"/>
	<path  d="M30.027,25.138c-0.896,0-1.626,0.729-1.626,1.625c0,0.896,0.729,1.625,1.626,1.625
		c0.896,0,1.625-0.729,1.625-1.625C31.652,25.866,30.923,25.138,30.027,25.138z M30.027,27.396c-0.35,0-0.635-0.284-0.635-0.634
		s0.285-0.634,0.635-0.634s0.633,0.284,0.633,0.634S30.377,27.396,30.027,27.396z"/>
	<path  d="M39.045,25.138c-0.896,0-1.625,0.729-1.625,1.625c0,0.896,0.729,1.625,1.625,1.625
		c0.896,0,1.626-0.729,1.626-1.625C40.671,25.866,39.941,25.138,39.045,25.138z M39.045,27.396c-0.349,0-0.633-0.284-0.633-0.634
		s0.284-0.634,0.633-0.634c0.35,0,0.635,0.284,0.635,0.634S39.395,27.396,39.045,27.396z"/>
	<path  d="M47.78,25.138c-0.896,0-1.624,0.729-1.624,1.625c0,0.896,0.729,1.625,1.624,1.625
		c0.896,0,1.626-0.729,1.626-1.625C49.406,25.866,48.677,25.138,47.78,25.138z M47.78,27.396c-0.349,0-0.633-0.284-0.633-0.634
		s0.284-0.634,0.633-0.634c0.35,0,0.634,0.284,0.634,0.634S48.13,27.396,47.78,27.396z"/>
	<path  d="M54.592,31.337c-0.896,0-1.624,0.729-1.624,1.625c0,0.896,0.729,1.625,1.624,1.625
		c0.896,0,1.626-0.729,1.626-1.625C56.218,32.066,55.488,31.337,54.592,31.337z M54.592,33.596c-0.349,0-0.633-0.284-0.633-0.634
		s0.284-0.634,0.633-0.634c0.35,0,0.635,0.284,0.635,0.634S54.941,33.596,54.592,33.596z"/>
	<path  d="M5.09,31.337c-0.896,0-1.624,0.729-1.624,1.625c0,0.896,0.729,1.625,1.624,1.625
		c0.896,0,1.626-0.729,1.626-1.625C6.716,32.066,5.986,31.337,5.09,31.337z M5.09,33.596c-0.349,0-0.633-0.284-0.633-0.634
		s0.284-0.634,0.633-0.634c0.35,0,0.635,0.284,0.635,0.634S5.439,33.596,5.09,33.596z"/>
</g>
</svg>
