<?xml version="1.0" encoding="utf-8"?>
<!-- Generator: Adobe Illustrator 16.0.3, SVG Export Plug-In . SVG Version: 6.00 Build 0)  -->
<!DOCTYPE svg PUBLIC "-//W3C//DTD SVG 1.1//EN" "http://www.w3.org/Graphics/SVG/1.1/DTD/svg11.dtd">
<svg version="1.1" id="Layer_1" xmlns="http://www.w3.org/2000/svg" xmlns:xlink="http://www.w3.org/1999/xlink" x="0px" y="0px"
	 width="60px" height="60px" viewBox="0 0 60 60" enable-background="new 0 0 60 60" xml:space="preserve">
<g>
	<path  d="M44.569,30.025c0.872-0.956,3.226-3.87,3.254-7.499c0.019-2.396-0.952-4.59-2.884-6.522
		c-1.853-1.854-3.943-2.793-6.213-2.793c-0.014,0-0.029,0-0.043,0c-3.791,0.021-6.679,2.736-7.062,3.115
		c-0.403,0.363-3.203,2.694-5.989-0.092c-2.253-2.253-1.619-4.182-0.398-7.142c1.041-2.526,2.468-5.985-1.065-8.747
		c-0.71-0.555-1.736-0.429-2.292,0.281c-0.556,0.711-0.431,1.736,0.28,2.292c1.458,1.14,1.208,2.138,0.058,4.929
		c-1.182,2.864-2.799,6.788,1.109,10.696c4.064,4.064,8.667,1.886,10.532,0.164c0.021-0.019,0.041-0.038,0.06-0.058
		c0.021-0.021,2.187-2.159,4.784-2.174c1.402-0.031,2.687,0.594,3.93,1.837c1.304,1.304,1.934,2.668,1.927,4.17
		c-0.011,2.379-1.633,4.47-2.3,5.229l-1.521-1.521c-0.493-0.494-1.245-0.619-1.871-0.312l-7.402,3.614
		c-0.162,0.079-0.311,0.185-0.438,0.312L20.151,40.679c-0.307,0.307-0.479,0.722-0.479,1.154c0,0.434,0.172,0.849,0.479,1.155
		l8.951,8.951c0.319,0.318,0.737,0.479,1.155,0.479c0.417,0,0.835-0.16,1.154-0.479l10.873-10.873
		c0.128-0.128,0.233-0.276,0.312-0.438l3.615-7.401c0.306-0.627,0.181-1.378-0.313-1.871L44.569,30.025z M39.782,38.95l-9.524,9.525
		l-6.643-6.643l9.525-9.525l6.109-2.983l3.516,3.517L39.782,38.95z"/>
	<path  d="M25.836,51.563l-4.494,4.494l-5.223-5.222l4.494-4.495c0.639-0.638,0.639-1.672,0-2.31
		c-0.638-0.638-1.672-0.638-2.309,0l-5.649,5.649c-0.318,0.319-0.479,0.737-0.479,1.155s0.16,0.835,0.479,1.154l7.531,7.531
		C20.506,59.84,20.924,60,21.342,60c0.417,0,0.835-0.16,1.154-0.479l5.648-5.648c0.639-0.638,0.639-1.672,0-2.31
		C27.507,50.926,26.474,50.926,25.836,51.563z"/>
	<path  d="M21.866,47.464l-2.89,2.89c-0.213,0.213-0.213,0.558,0,0.771c0.106,0.106,0.246,0.159,0.385,0.159
		c0.14,0,0.279-0.053,0.385-0.159l2.89-2.89c0.213-0.213,0.213-0.558,0-0.771C22.423,47.252,22.079,47.252,21.866,47.464z"/>
	<path  d="M20.989,53.135c0.106,0.106,0.245,0.16,0.385,0.16c0.139,0,0.278-0.054,0.385-0.16l2.89-2.889
		c0.212-0.213,0.212-0.558,0-0.77c-0.213-0.213-0.558-0.213-0.771,0l-2.889,2.889C20.776,52.578,20.776,52.923,20.989,53.135z"/>
</g>
</svg>
