<?xml version="1.0" encoding="utf-8"?>
<!-- Generator: Adobe Illustrator 16.0.3, SVG Export Plug-In . SVG Version: 6.00 Build 0)  -->
<!DOCTYPE svg PUBLIC "-//W3C//DTD SVG 1.1//EN" "http://www.w3.org/Graphics/SVG/1.1/DTD/svg11.dtd">
<svg version="1.1" id="Layer_1" xmlns="http://www.w3.org/2000/svg" xmlns:xlink="http://www.w3.org/1999/xlink" x="0px" y="0px"
	 width="60px" height="60px" viewBox="0 0 60 60" enable-background="new 0 0 60 60" xml:space="preserve">
<g>
	<path  d="M59.207,55.843l-6.427-6.428c0.326-0.779,0.5-1.623,0.5-2.494c0-1.719-0.67-3.335-1.885-4.552l-1.394-1.393
		c2.799-4.834,2.093-11.143-1.976-15.21L37.07,14.81c0.81-2.991-0.012-6.23-2.273-8.491c-0.913-0.914-2.53-0.914-3.443,0
		L6.239,31.432c-0.951,0.95-0.951,2.493,0,3.443c1.658,1.658,3.862,2.571,6.207,2.571c0.771,0,1.539-0.103,2.282-0.302l10.959,10.96
		c2.373,2.374,5.529,3.681,8.886,3.681c2.234,0,4.417-0.595,6.325-1.703l1.392,1.392c1.216,1.216,2.833,1.886,4.552,1.886
		c0.871,0,1.715-0.173,2.494-0.501l6.428,6.428C56.239,59.762,56.862,60,57.485,60s1.246-0.238,1.722-0.714
		C60.158,58.336,60.158,56.794,59.207,55.843z M45.733,48.029l-2.838-2.839c-0.474-0.474-1.098-0.713-1.723-0.713
		c-0.562,0-1.127,0.194-1.584,0.586c-1.394,1.194-3.175,1.852-5.016,1.852c-2.056,0-3.988-0.801-5.442-2.254L17.064,32.593
		c-0.747-0.746-1.89-0.928-2.832-0.445c-0.678,0.347-1.47,0.486-2.225,0.404l20.468-20.469c0.086,0.748-0.045,1.522-0.407,2.229
		c-0.501,0.978-0.281,2.154,0.503,2.887L44.583,29.21c2.826,2.827,3.004,7.42,0.401,10.457c-0.827,0.967-0.771,2.407,0.127,3.307
		l2.84,2.84c0.296,0.296,0.459,0.689,0.459,1.107c0,0.419-0.163,0.812-0.459,1.108C47.359,48.621,46.328,48.622,45.733,48.029z"/>
	<path  d="M11.046,24.801c0.623,0,1.247-0.238,1.722-0.714c0.951-0.951,0.951-2.493,0-3.443l-8.531-8.53
		c-0.951-0.95-2.493-0.951-3.443,0c-0.951,0.951-0.951,2.493,0,3.444l8.531,8.529C9.8,24.562,10.423,24.801,11.046,24.801z"/>
	<path  d="M20.725,12.688c0.476,0.475,1.099,0.713,1.722,0.713s1.246-0.238,1.722-0.714
		c0.951-0.95,0.951-2.492,0-3.443l-8.53-8.53c-0.951-0.95-2.492-0.951-3.443,0c-0.952,0.951-0.952,2.493,0,3.444L20.725,12.688z"/>
</g>
</svg>
