<?xml version="1.0" encoding="utf-8"?>
<!-- Generator: Adobe Illustrator 16.0.3, SVG Export Plug-In . SVG Version: 6.00 Build 0)  -->
<!DOCTYPE svg PUBLIC "-//W3C//DTD SVG 1.1//EN" "http://www.w3.org/Graphics/SVG/1.1/DTD/svg11.dtd">
<svg version="1.1" id="Layer_1" xmlns="http://www.w3.org/2000/svg" xmlns:xlink="http://www.w3.org/1999/xlink" x="0px" y="0px"
	 width="60px" height="60px" viewBox="0 0 60 60" enable-background="new 0 0 60 60" xml:space="preserve">
<g>
	<path  d="M52.109,5.63H7.889C3.539,5.63,0,9.169,0,13.52v26.974c0,4.35,3.539,7.889,7.889,7.889h14.062
		c-0.06,0.035-0.121,0.072-0.185,0.111c-0.557,0.344-1.715,1.06-5.977,2.541c-0.018,0.006-0.031,0.016-0.048,0.022
		c-0.059,0.022-0.114,0.05-0.169,0.078c-0.047,0.024-0.094,0.047-0.138,0.074c-0.048,0.03-0.091,0.065-0.136,0.101
		c-0.043,0.034-0.087,0.067-0.127,0.104c-0.039,0.038-0.074,0.08-0.11,0.122c-0.036,0.041-0.072,0.081-0.104,0.125
		c-0.033,0.046-0.061,0.096-0.089,0.146c-0.026,0.046-0.053,0.091-0.075,0.139c-0.022,0.051-0.04,0.104-0.058,0.157
		c-0.019,0.053-0.037,0.105-0.05,0.16c-0.012,0.05-0.019,0.101-0.025,0.151c-0.009,0.062-0.017,0.125-0.019,0.189
		c-0.001,0.018-0.006,0.033-0.006,0.051c0,0.034,0.009,0.067,0.011,0.102c0.004,0.062,0.008,0.122,0.019,0.185
		c0.01,0.06,0.025,0.116,0.042,0.174c0.009,0.034,0.013,0.069,0.024,0.104c0.006,0.018,0.016,0.031,0.022,0.049
		c0.021,0.058,0.049,0.111,0.077,0.166c0.024,0.048,0.048,0.096,0.076,0.141s0.062,0.087,0.095,0.129
		c0.036,0.047,0.071,0.093,0.111,0.135c0.035,0.036,0.074,0.068,0.112,0.103c0.044,0.038,0.087,0.077,0.136,0.111
		c0.043,0.03,0.088,0.056,0.134,0.082c0.05,0.028,0.098,0.057,0.149,0.08c0.049,0.022,0.1,0.039,0.151,0.057
		c0.054,0.019,0.107,0.038,0.163,0.051c0.05,0.012,0.102,0.019,0.153,0.025c0.062,0.009,0.123,0.017,0.187,0.019
		c0.018,0.001,0.035,0.006,0.053,0.006h27.635c0.002,0,0.004,0,0.006,0c0.106,0,0.21-0.013,0.313-0.031
		c0.031-0.007,0.062-0.015,0.093-0.022c0.069-0.017,0.137-0.038,0.203-0.062c0.033-0.014,0.066-0.025,0.098-0.041
		c0.07-0.031,0.138-0.068,0.203-0.109c0.02-0.013,0.041-0.022,0.06-0.035c0.083-0.058,0.161-0.121,0.233-0.192
		c0.016-0.015,0.028-0.032,0.043-0.048c0.055-0.058,0.104-0.118,0.15-0.184c0.02-0.027,0.038-0.056,0.056-0.085
		c0.036-0.057,0.067-0.116,0.097-0.179c0.017-0.034,0.032-0.069,0.047-0.105c0.007-0.02,0.018-0.037,0.025-0.058
		c0.012-0.034,0.015-0.069,0.024-0.104c0.017-0.058,0.031-0.114,0.041-0.174c0.011-0.062,0.016-0.123,0.02-0.185
		c0.001-0.034,0.01-0.067,0.01-0.102c0-0.018-0.005-0.033-0.005-0.051c-0.002-0.064-0.01-0.127-0.02-0.189
		c-0.007-0.051-0.013-0.102-0.024-0.151c-0.013-0.055-0.031-0.107-0.05-0.16c-0.019-0.054-0.035-0.106-0.059-0.157
		c-0.022-0.048-0.049-0.093-0.075-0.139c-0.028-0.05-0.056-0.1-0.088-0.146c-0.032-0.044-0.068-0.084-0.104-0.125
		c-0.036-0.042-0.07-0.084-0.11-0.122c-0.039-0.037-0.084-0.07-0.127-0.104c-0.044-0.035-0.088-0.07-0.136-0.101
		c-0.044-0.027-0.091-0.05-0.137-0.074c-0.056-0.028-0.11-0.056-0.169-0.078c-0.018-0.007-0.031-0.017-0.049-0.022
		c-4.262-1.481-5.42-2.197-5.976-2.541c-0.063-0.039-0.125-0.076-0.186-0.111h13.713c4.351,0,7.891-3.539,7.891-7.889V13.52
		C60,9.169,56.46,5.63,52.109,5.63z M56.569,40.493c0,2.458-2.001,4.459-4.46,4.459H7.889c-2.458,0-4.459-2.001-4.459-4.459V13.52
		c0-2.459,2.001-4.459,4.459-4.459h44.221c2.459,0,4.46,2,4.46,4.459V40.493z"/>
	<path  d="M42.693,21.129H17.655c-0.474,0-0.858,0.384-0.858,0.857s0.385,0.857,0.858,0.857h25.038
		c0.474,0,0.857-0.384,0.857-0.857S43.167,21.129,42.693,21.129z"/>
	<path  d="M42.693,29.809H17.655c-0.474,0-0.858,0.385-0.858,0.858c0,0.473,0.385,0.857,0.858,0.857h25.038
		c0.474,0,0.857-0.385,0.857-0.857C43.551,30.193,43.167,29.809,42.693,29.809z"/>
</g>
</svg>
