<?xml version="1.0" encoding="utf-8"?>
<!-- Generator: Adobe Illustrator 16.0.3, SVG Export Plug-In . SVG Version: 6.00 Build 0)  -->
<!DOCTYPE svg PUBLIC "-//W3C//DTD SVG 1.1//EN" "http://www.w3.org/Graphics/SVG/1.1/DTD/svg11.dtd">
<svg version="1.1" id="Layer_1" xmlns="http://www.w3.org/2000/svg" xmlns:xlink="http://www.w3.org/1999/xlink" x="0px" y="0px"
	 width="60px" height="60px" viewBox="0 0 60 60" enable-background="new 0 0 60 60" xml:space="preserve">
<g>
	<path  d="M23.105,7.333h13.789c0.371,0,0.67-0.301,0.67-0.671c0-0.371-0.299-0.672-0.67-0.672H23.105
		c-0.371,0-0.67,0.301-0.67,0.672C22.436,7.032,22.734,7.333,23.105,7.333z"/>
	<path  d="M24.535,39.078h10.93c4.1,0,7.436-3.119,7.436-6.954V16.713c0-3.834-3.336-6.953-7.436-6.953h-10.93
		c-4.1,0-7.436,3.119-7.436,6.953v15.411C17.1,35.959,20.436,39.078,24.535,39.078z M19.113,16.713c0-2.724,2.432-4.939,5.422-4.939
		h10.93c2.99,0,5.422,2.216,5.422,4.939v15.411c0,2.725-2.432,4.94-5.422,4.94h-10.93c-2.99,0-5.422-2.216-5.422-4.94V16.713z"/>
	<path  d="M38.182,0H21.82c-6.416,0-11.637,4.896-11.637,10.915v38.171C10.184,55.104,15.404,60,21.82,60h16.361
		c6.416,0,11.635-4.896,11.635-10.914V10.915C49.816,4.896,44.598,0,38.182,0z M45.789,49.086c0,3.798-3.412,6.888-7.607,6.888
		H21.82c-4.197,0-7.609-3.09-7.609-6.888V10.915c0-3.798,3.412-6.888,7.609-6.888h16.361c4.195,0,7.607,3.09,7.607,6.888V49.086z"/>
	<path  d="M30,41.565c-3.246,0-5.887,2.642-5.887,5.888S26.754,53.34,30,53.34s5.887-2.641,5.887-5.887
		S33.246,41.565,30,41.565z M30,51.998c-2.506,0-4.545-2.039-4.545-4.545s2.039-4.545,4.545-4.545s4.545,2.039,4.545,4.545
		S32.506,51.998,30,51.998z"/>
	<path  d="M40.834,43.827c-1.637,0-2.969,1.332-2.969,2.969c0,1.638,1.332,2.97,2.969,2.97s2.971-1.332,2.971-2.97
		C43.805,45.159,42.471,43.827,40.834,43.827z M40.834,48.423c-0.896,0-1.627-0.729-1.627-1.627s0.73-1.626,1.627-1.626
		s1.627,0.729,1.627,1.626S41.73,48.423,40.834,48.423z"/>
	<path  d="M19.494,43.827c-1.637,0-2.969,1.332-2.969,2.969c0,1.638,1.332,2.97,2.969,2.97s2.969-1.332,2.969-2.97
		C22.463,45.159,21.131,43.827,19.494,43.827z M19.494,48.423c-0.898,0-1.627-0.729-1.627-1.627s0.729-1.626,1.627-1.626
		c0.896,0,1.627,0.729,1.627,1.626S20.391,48.423,19.494,48.423z"/>
	<path  d="M30,45.14c-1.275,0-2.312,1.038-2.312,2.313c0,1.274,1.037,2.312,2.312,2.312s2.312-1.038,2.312-2.312
		C32.312,46.178,31.275,45.14,30,45.14z M30,48.423c-0.535,0-0.971-0.435-0.971-0.97s0.436-0.971,0.971-0.971
		s0.971,0.436,0.971,0.971S30.535,48.423,30,48.423z"/>
</g>
</svg>
