<?xml version="1.0" encoding="utf-8"?>
<!-- Generator: Adobe Illustrator 16.0.3, SVG Export Plug-In . SVG Version: 6.00 Build 0)  -->
<!DOCTYPE svg PUBLIC "-//W3C//DTD SVG 1.1//EN" "http://www.w3.org/Graphics/SVG/1.1/DTD/svg11.dtd">
<svg version="1.1" id="Layer_1" xmlns="http://www.w3.org/2000/svg" xmlns:xlink="http://www.w3.org/1999/xlink" x="0px" y="0px"
	 width="60px" height="60px" viewBox="0 0 60 60" enable-background="new 0 0 60 60" xml:space="preserve">
<g>
	<path  d="M54.558,11.129h-8.26c-3.001,0-5.441,2.441-5.441,5.442v26.856c0,3.002,2.44,5.443,5.441,5.443h8.26
		c3.001,0,5.442-2.441,5.442-5.443V16.572C60,13.571,57.559,11.129,54.558,11.129z M56.857,43.428c0,1.268-1.032,2.299-2.3,2.299
		h-8.26c-1.268,0-2.299-1.031-2.299-2.299V16.572c0-1.268,1.031-2.299,2.299-2.299h8.26c1.268,0,2.3,1.031,2.3,2.299V43.428z"/>
	<path  d="M38.786,42.805c-2.756-1.301-4.169-2.039-5.013-2.48c-1.049-0.551-1.442-0.756-2.244-0.756
		c-0.084,0-0.178,0.002-0.289,0.006c-0.121,0.004-0.269,0.008-0.455,0.008h-5.831c0.017-0.092,0.028-0.188,0.028-0.283
		c0-0.131-0.02-0.254-0.05-0.375h8.231c3.001,0,5.442-2.441,5.442-5.441V16.572c0-3.001-2.441-5.442-5.442-5.442H5.442
		c-3,0-5.442,2.441-5.442,5.442v16.911c0,3,2.441,5.441,5.442,5.441h8.231c-0.03,0.121-0.05,0.244-0.05,0.375
		c0,0.096,0.012,0.191,0.028,0.283H8.515c-0.188,0-0.334-0.004-0.456-0.008c-0.11-0.004-0.203-0.006-0.286-0.006
		c-0.812,0-1.199,0.219-2.135,0.744c-0.732,0.41-2.094,1.176-4.767,2.506C0.337,43.086,0,43.631,0,44.227v0.387
		c0,1.766,0.873,3.869,5.031,3.869h29.625c4.158,0,5.031-2.104,5.031-3.869v-0.387C39.688,43.617,39.336,43.064,38.786,42.805z
		 M3.143,33.482V16.572c0-1.268,1.031-2.299,2.299-2.299h27.722c1.268,0,2.299,1.031,2.299,2.299v16.911
		c0,1.268-1.031,2.299-2.299,2.299H5.442C4.174,35.781,3.143,34.75,3.143,33.482z M34.656,45.34H5.031
		c-0.987,0-1.458-0.1-1.683-0.248c2.048-1.039,3.179-1.674,3.828-2.039c0.256-0.145,0.501-0.281,0.623-0.34
		c0.051,0,0.108,0.002,0.172,0.004c0.145,0.004,0.32,0.008,0.543,0.008h22.271c0.223,0,0.397-0.004,0.542-0.008
		c0.067-0.002,0.144,0.012,0.206-0.004c0.133,0.055,0.449,0.221,0.783,0.396c0.74,0.387,1.908,0.998,3.996,2
		C36.077,45.246,35.605,45.34,34.656,45.34z"/>
	<path  d="M53.685,17.538h-6.514c-0.434,0-0.785,0.352-0.785,0.786s0.352,0.786,0.785,0.786h6.514
		c0.434,0,0.786-0.352,0.786-0.786S54.118,17.538,53.685,17.538z"/>
	<path  d="M53.685,21.43h-6.514c-0.434,0-0.785,0.352-0.785,0.785c0,0.436,0.352,0.787,0.785,0.787h6.514
		c0.434,0,0.786-0.352,0.786-0.787C54.471,21.781,54.118,21.43,53.685,21.43z"/>
	<path  d="M50.428,40.111c-0.781,0-1.417,0.635-1.417,1.416s0.636,1.418,1.417,1.418s1.417-0.637,1.417-1.418
		S51.209,40.111,50.428,40.111z M50.428,41.896c-0.203,0-0.369-0.164-0.369-0.369c0-0.203,0.166-0.369,0.369-0.369
		c0.204,0,0.369,0.166,0.369,0.369C50.797,41.732,50.632,41.896,50.428,41.896z"/>
	<path  d="M50.428,33.908c-1.265,0-2.294,1.029-2.294,2.293c0,1.266,1.029,2.295,2.294,2.295
		c1.266,0,2.295-1.029,2.295-2.295C52.723,34.938,51.693,33.908,50.428,33.908z M50.428,36.926c-0.398,0-0.723-0.326-0.723-0.725
		s0.324-0.723,0.723-0.723s0.723,0.324,0.723,0.723S50.826,36.926,50.428,36.926z"/>
</g>
</svg>
