<?xml version="1.0" encoding="utf-8"?>
<!-- Generator: Adobe Illustrator 16.0.3, SVG Export Plug-In . SVG Version: 6.00 Build 0)  -->
<!DOCTYPE svg PUBLIC "-//W3C//DTD SVG 1.1//EN" "http://www.w3.org/Graphics/SVG/1.1/DTD/svg11.dtd">
<svg version="1.1" id="Layer_1" xmlns="http://www.w3.org/2000/svg" xmlns:xlink="http://www.w3.org/1999/xlink" x="0px" y="0px"
	 width="60px" height="60px" viewBox="0 0 60 60" enable-background="new 0 0 60 60" xml:space="preserve">
<path  d="M54.275,3.209c-3.143,0-4.527,2.717-5.749,5.114c-1.469,2.882-2.856,5.604-6.922,5.604
	c-4.074,0-4.476-3.68-4.515-4.406c-0.001-0.029-0.003-0.06-0.006-0.09C36.78,6.17,34.464,0,27.867,0
	c-3.452,0-6.147,1.027-8.013,3.054c-1.794,1.948-2.348,4.36-2.507,5.951c-7.49,0.826-13.337,7.19-13.337,14.897V45.01
	c0,8.266,6.725,14.99,14.991,14.99c8.266,0,14.99-6.725,14.99-14.99V23.902c0-7.658-5.774-13.989-13.196-14.879
	c0.143-1.058,0.535-2.513,1.581-3.648c1.189-1.291,3.036-1.946,5.49-1.946c4.978,0,5.739,5.754,5.8,6.289
	c0.131,2.676,1.945,7.638,7.938,7.638c6.166,0,8.368-4.321,9.977-7.476c1.148-2.255,1.751-3.243,2.694-3.243
	c0.946,0,1.714-0.768,1.714-1.714C55.989,3.976,55.222,3.209,54.275,3.209z M30.564,23.902V45.01
	c0,6.376-5.187,11.562-11.562,11.562S7.439,51.386,7.439,45.01V23.902c0-6.183,4.881-11.232,10.991-11.533v4.194
	c-0.665,0.236-1.144,0.864-1.144,1.609v7.687c0,0.745,0.479,1.373,1.144,1.609v3.716c0,0.315,0.255,0.571,0.571,0.571
	c0.315,0,0.571-0.256,0.571-0.571v-3.716c0.664-0.236,1.143-0.864,1.143-1.609v-7.687c0-0.745-0.479-1.373-1.143-1.609v-4.194
	C25.683,12.67,30.564,17.72,30.564,23.902z"/>
</svg>
