<?xml version="1.0" encoding="utf-8"?>
<!-- Generator: Adobe Illustrator 16.0.3, SVG Export Plug-In . SVG Version: 6.00 Build 0)  -->
<!DOCTYPE svg PUBLIC "-//W3C//DTD SVG 1.1//EN" "http://www.w3.org/Graphics/SVG/1.1/DTD/svg11.dtd">
<svg version="1.1" id="Layer_1" xmlns="http://www.w3.org/2000/svg" xmlns:xlink="http://www.w3.org/1999/xlink" x="0px" y="0px"
	 width="60px" height="60px" viewBox="0 0 60 60" enable-background="new 0 0 60 60" xml:space="preserve">
<g>
	<path  d="M16.042,42.534c-1.256-0.973-2.109-2.345-2.409-3.916c-0.223-1.167-0.118-2.344,0.278-3.433
		c0.664,0.113,1.363-0.154,1.767-0.748c0.551-0.81,0.34-1.913-0.47-2.463c-0.811-0.55-1.913-0.34-2.463,0.471
		c-0.49,0.72-0.375,1.671,0.227,2.259c-0.498,1.299-0.636,2.711-0.367,4.11c0.352,1.847,1.362,3.456,2.848,4.587l-2.166,3.19
		c-1.005-0.394-2.184-0.061-2.815,0.87c-0.733,1.08-0.452,2.551,0.627,3.284c1.081,0.733,2.551,0.452,3.284-0.628
		c0.633-0.931,0.507-2.148-0.229-2.938l6.119-9.012c1.162,0.679,2.463,1.031,3.791,1.031c0.477,0,0.955-0.045,1.434-0.137
		c1.463-0.279,2.779-0.97,3.827-1.984l0.988,0.672l1.749-2.575l-2.576-1.749l-1.748,2.575l0.693,0.472
		c-0.874,0.79-1.944,1.335-3.131,1.562c-1.535,0.292-3.09,0.028-4.435-0.738l5.184-7.633l1.716,1.165l0.381-5.211l-4.703,2.275
		l1.74,1.182L16.042,42.534z"/>
	<path  d="M41.26,29.683c-0.079-0.409-0.315-0.771-0.661-1.005L20.554,15.064c-0.719-0.487-1.696-0.301-2.184,0.417
		L4.756,35.527c-2.055,3.024-2.808,6.668-2.121,10.26c0.687,3.591,2.729,6.699,5.754,8.753c2.278,1.548,4.935,2.365,7.68,2.366
		h0.001c4.545,0,8.782-2.243,11.332-5.999l13.615-20.046C41.251,30.517,41.338,30.093,41.26,29.683z M24.802,49.141
		c-1.966,2.895-5.23,4.622-8.732,4.622h-0.001c-2.113-0.001-4.157-0.631-5.913-1.823c-2.33-1.582-3.904-3.977-4.433-6.743
		s0.052-5.573,1.634-7.902l12.73-18.745l17.445,11.847L24.802,49.141z"/>
	<path  d="M56.04,39.174H37.586c-0.868,0-1.571,0.704-1.571,1.572s0.703,1.571,1.571,1.571h16.882v3.996
		c0,5.813-4.729,10.543-10.543,10.543c-4.869,0-9.08-3.297-10.239-8.018c-0.207-0.843-1.06-1.361-1.901-1.151
		c-0.844,0.207-1.359,1.058-1.152,1.901C32.139,55.719,37.604,60,43.925,60c7.547,0,13.688-6.14,13.688-13.687v-5.567
		C57.612,39.878,56.909,39.174,56.04,39.174z"/>
	<path  d="M22.397,15.089c0.72,0.488,1.697,0.301,2.184-0.417l7.414-10.916l14.826,10.068l-7.414,10.917
		c-0.488,0.719-0.301,1.695,0.417,2.184c0.271,0.184,0.577,0.271,0.882,0.271c0.504,0,0.998-0.241,1.302-0.688l8.297-12.218
		c0.488-0.718,0.301-1.695-0.417-2.183L32.461,0.271c-0.345-0.234-0.767-0.322-1.179-0.243c-0.409,0.078-0.771,0.315-1.005,0.66
		l-8.296,12.218C21.493,13.624,21.681,14.602,22.397,15.089z"/>
	<path  d="M32.097,10.852l-4.147,6.108c-0.163,0.239-0.101,0.564,0.139,0.728c0.091,0.062,0.192,0.091,0.294,0.091
		c0.168,0,0.332-0.081,0.434-0.23l4.148-6.108c0.162-0.239,0.1-0.564-0.139-0.728C32.585,10.55,32.26,10.612,32.097,10.852z"/>
	<path  d="M40.274,16.283c-0.239-0.162-0.565-0.1-0.729,0.14l-4.147,6.108c-0.163,0.239-0.101,0.564,0.14,0.728
		c0.09,0.062,0.191,0.091,0.293,0.091c0.168,0,0.333-0.081,0.434-0.23l4.148-6.107C40.576,16.771,40.514,16.446,40.274,16.283z"/>
</g>
</svg>
