<?xml version="1.0" encoding="utf-8"?>
<!-- Generator: Adobe Illustrator 16.0.3, SVG Export Plug-In . SVG Version: 6.00 Build 0)  -->
<!DOCTYPE svg PUBLIC "-//W3C//DTD SVG 1.1//EN" "http://www.w3.org/Graphics/SVG/1.1/DTD/svg11.dtd">
<svg version="1.1" id="Layer_1" xmlns="http://www.w3.org/2000/svg" xmlns:xlink="http://www.w3.org/1999/xlink" x="0px" y="0px"
	 width="60px" height="60px" viewBox="0 0 60 60" enable-background="new 0 0 60 60" xml:space="preserve">
<g>
	<path  d="M49.993,0H25.472c-0.477,0-0.928,0.217-1.227,0.589L7.243,21.801c-0.224,0.278-0.346,0.625-0.346,0.982
		v34.107c0,1.715,1.396,3.109,3.11,3.109h39.985c1.715,0,3.109-1.395,3.109-3.109V3.11C53.103,1.396,51.708,0,49.993,0z
		 M49.959,56.856l-39.918,0.034V23.336L26.228,3.143L49.959,3.11V56.856z"/>
	<path  d="M46.233,16.889c0.29,0,0.524-0.234,0.524-0.523V5.815c0-0.29-0.234-0.524-0.524-0.524
		s-0.524,0.234-0.524,0.524v10.55C45.709,16.654,45.943,16.889,46.233,16.889z"/>
	<path  d="M32.905,16.889c0.29,0,0.524-0.234,0.524-0.523V5.815c0-0.29-0.234-0.524-0.524-0.524
		c-0.289,0-0.523,0.234-0.523,0.524v10.55C32.382,16.654,32.616,16.889,32.905,16.889z"/>
	<path  d="M37.582,16.889c0.29,0,0.523-0.234,0.523-0.523V5.815c0-0.29-0.233-0.524-0.523-0.524
		s-0.524,0.234-0.524,0.524v10.55C37.058,16.654,37.292,16.889,37.582,16.889z"/>
	<path  d="M42.024,16.889c0.29,0,0.524-0.234,0.524-0.523V5.815c0-0.29-0.234-0.524-0.524-0.524
		c-0.289,0-0.523,0.234-0.523,0.524v10.55C41.501,16.654,41.735,16.889,42.024,16.889z"/>
	<path  d="M13.322,28.353v22.752c0,1.281,1.043,2.324,2.324,2.324h29.049c1.282,0,2.324-1.043,2.324-2.324V28.353
		c0-1.281-1.042-2.323-2.324-2.323H15.646C14.365,26.029,13.322,27.071,13.322,28.353z M45.447,28.353v22.752
		c0,0.415-0.337,0.752-0.752,0.752H15.646c-0.415,0-0.752-0.337-0.752-0.752V28.353c0-0.414,0.337-0.751,0.752-0.751h29.049
		C45.11,27.602,45.447,27.938,45.447,28.353z"/>
</g>
</svg>
