<?xml version="1.0" encoding="utf-8"?>
<!-- Generator: Adobe Illustrator 16.0.3, SVG Export Plug-In . SVG Version: 6.00 Build 0)  -->
<!DOCTYPE svg PUBLIC "-//W3C//DTD SVG 1.1//EN" "http://www.w3.org/Graphics/SVG/1.1/DTD/svg11.dtd">
<svg version="1.1" id="Layer_1" xmlns="http://www.w3.org/2000/svg" xmlns:xlink="http://www.w3.org/1999/xlink" x="0px" y="0px"
	 width="60px" height="60px" viewBox="0 0 60 60" enable-background="new 0 0 60 60" xml:space="preserve">
<g>
	<path  d="M57.413,18.108H2.588C1.161,18.108,0,19.27,0,20.696v18.607c0,1.427,1.161,2.588,2.588,2.588h54.825
		c1.426,0,2.587-1.161,2.587-2.588V20.696C60,19.27,58.839,18.108,57.413,18.108z M56.97,38.862H3.03V21.138H56.97V38.862z"/>
	<path  d="M5.687,32.426h47.912c1.009,0,1.83-0.821,1.83-1.831v-6.493c0-1.009-0.821-1.83-1.83-1.83H5.687
		c-1.01,0-1.83,0.821-1.83,1.83v6.493C3.856,31.604,4.677,32.426,5.687,32.426z M5.371,24.102c0-0.173,0.142-0.314,0.315-0.314
		h47.912c0.174,0,0.315,0.142,0.315,0.314v6.493c0,0.175-0.142,0.316-0.315,0.316H5.687c-0.174,0-0.315-0.142-0.315-0.316V24.102z"
		/>
	<path  d="M53.098,34.584H42.419c-0.914,0-1.658,0.744-1.658,1.658s0.744,1.658,1.658,1.658h10.679
		c0.914,0,1.658-0.744,1.658-1.658S54.012,34.584,53.098,34.584z"/>
	<path  d="M8.629,34.44H5.843c-0.753,0-1.553,0.581-1.553,1.658s0.8,1.658,1.553,1.658h2.786
		c0.752,0,1.552-0.581,1.552-1.658S9.381,34.44,8.629,34.44z M7.235,36.529c-0.055-0.142-0.084-0.288-0.084-0.431
		s0.029-0.289,0.084-0.43c0.056,0.141,0.084,0.287,0.084,0.43S7.291,36.388,7.235,36.529z"/>
	<path  d="M14.588,34.44h-2.786c-0.752,0-1.553,0.581-1.553,1.658s0.801,1.658,1.553,1.658h2.786
		c0.753,0,1.553-0.581,1.553-1.658S15.341,34.44,14.588,34.44z M13.195,36.529c-0.056-0.142-0.085-0.288-0.085-0.431
		s0.029-0.289,0.085-0.43c0.055,0.141,0.084,0.287,0.084,0.43S13.25,36.388,13.195,36.529z"/>
	<path  d="M9.224,29.387c0.537,0,0.956-0.105,1.166-0.21l-0.118-0.452c-0.229,0.111-0.583,0.184-0.93,0.184
		c-1.074,0-1.696-0.694-1.696-1.774c0-1.159,0.688-1.821,1.723-1.821c0.366,0,0.674,0.079,0.891,0.184l0.137-0.465
		c-0.15-0.079-0.497-0.196-1.047-0.196c-1.369,0-2.306,0.937-2.306,2.318C7.043,28.601,7.979,29.387,9.224,29.387z"/>
	<path  d="M14.088,28.725c0.412-0.405,0.636-0.995,0.636-1.716c0-0.714-0.229-1.225-0.623-1.584
		c-0.386-0.361-0.969-0.551-1.788-0.551c-0.451,0-0.864,0.039-1.212,0.092v4.342c0.289,0.033,0.629,0.053,1.035,0.053
		C12.994,29.36,13.675,29.138,14.088,28.725z M11.671,25.385c0.15-0.032,0.373-0.06,0.668-0.06c1.205,0,1.795,0.662,1.788,1.704
		c0,1.191-0.661,1.872-1.879,1.872c-0.224,0-0.433-0.006-0.577-0.032V25.385z"/>
	<rect x="16.548" y="27.337"  width="1.617" height="0.426"/>
	<path  d="M23.233,28.725c0.412-0.405,0.635-0.995,0.635-1.716c0-0.714-0.229-1.225-0.622-1.584
		c-0.387-0.361-0.97-0.551-1.788-0.551c-0.452,0-0.865,0.039-1.212,0.092v4.342c0.288,0.033,0.629,0.053,1.035,0.053
		C22.14,29.36,22.82,29.138,23.233,28.725z M20.816,25.385c0.15-0.032,0.373-0.06,0.668-0.06c1.204,0,1.794,0.662,1.787,1.704
		c0,1.191-0.661,1.872-1.879,1.872c-0.223,0-0.433-0.006-0.576-0.032V25.385z"/>
	<path  d="M26.204,29.321l1.579-4.415h-0.609l-0.746,2.182c-0.197,0.576-0.381,1.133-0.505,1.644h-0.014
		c-0.117-0.518-0.281-1.055-0.471-1.65l-0.688-2.175h-0.616l1.44,4.415H26.204z"/>
	<path  d="M31.245,28.725c0.413-0.405,0.636-0.995,0.636-1.716c0-0.714-0.229-1.225-0.622-1.584
		c-0.387-0.361-0.969-0.551-1.788-0.551c-0.452,0-0.864,0.039-1.212,0.092v4.342c0.289,0.033,0.629,0.053,1.035,0.053
		C30.151,29.36,30.833,29.138,31.245,28.725z M28.829,25.385c0.15-0.032,0.373-0.06,0.668-0.06c1.205,0,1.795,0.662,1.787,1.704
		c0,1.191-0.661,1.872-1.879,1.872c-0.223,0-0.433-0.006-0.576-0.032V25.385z"/>
</g>
</svg>
