<?xml version="1.0" encoding="utf-8"?>
<!-- Generator: Adobe Illustrator 16.0.3, SVG Export Plug-In . SVG Version: 6.00 Build 0)  -->
<!DOCTYPE svg PUBLIC "-//W3C//DTD SVG 1.1//EN" "http://www.w3.org/Graphics/SVG/1.1/DTD/svg11.dtd">
<svg version="1.1" id="Layer_1" xmlns="http://www.w3.org/2000/svg" xmlns:xlink="http://www.w3.org/1999/xlink" x="0px" y="0px"
	 width="60px" height="60px" viewBox="0 0 60 60" enable-background="new 0 0 60 60" xml:space="preserve">
<g>
	<path  d="M24.555,13.584h-4.957c-0.014,0-0.027-0.004-0.039-0.004H14.27c-5.898,0-10.699,4.8-10.699,10.699v6.123
		c-0.043,0.166-0.074,0.336-0.074,0.514v13.478c0,0.067,0.004,0.134,0.01,0.2C3.742,53.104,10.812,60,19.344,60
		c8.529,0,15.598-6.891,15.838-15.396c0.008-0.068,0.012-0.139,0.012-0.21V31.393c0.031-0.145,0.053-0.293,0.053-0.446v-6.664
		C35.246,18.383,30.449,13.584,24.555,13.584z M31.234,24.282v4.628h-9.67V17.597h2.99C28.236,17.597,31.234,20.596,31.234,24.282z
		 M14.27,17.593h3.281V28.91H7.584v-4.631C7.584,20.592,10.582,17.593,14.27,17.593z M31.174,44.359
		c-0.111,6.412-5.418,11.628-11.83,11.628S7.625,50.771,7.516,44.359c-0.002-0.04-0.004-0.08-0.006-0.119V32.949h12.016
		c0.012,0,0.021,0.003,0.033,0.003H31.18v11.279C31.178,44.273,31.176,44.316,31.174,44.359z"/>
	<path  d="M54.498,3.19c-3.402,0-4.678,2.97-5.703,5.354c-1.402,3.265-2.443,5.266-6.027,5.266
		c-3.893,0-4.904-3.524-5.072-4.25C37.434,6.161,34.99,0,27.449,0c-6.582,0-9.41,5.734-9.986,8.767
		c-0.207,1.089,0.508,2.139,1.596,2.346c1.088,0.209,2.139-0.508,2.346-1.597c0.043-0.225,1.104-5.504,6.045-5.504
		c5.67,0,6.211,5.346,6.252,5.944c0.006,0.083,0.016,0.166,0.031,0.249c0.49,2.635,3.012,7.618,9.035,7.618
		c6.41,0,8.398-4.631,9.715-7.694c0.928-2.159,1.371-2.926,2.016-2.926c1.107,0,2.006-0.898,2.006-2.007
		C56.504,4.089,55.605,3.19,54.498,3.19z"/>
</g>
</svg>
