<?xml version="1.0" encoding="utf-8"?>
<!-- Generator: Adobe Illustrator 16.0.3, SVG Export Plug-In . SVG Version: 6.00 Build 0)  -->
<!DOCTYPE svg PUBLIC "-//W3C//DTD SVG 1.1//EN" "http://www.w3.org/Graphics/SVG/1.1/DTD/svg11.dtd">
<svg version="1.1" id="Layer_1" xmlns="http://www.w3.org/2000/svg" xmlns:xlink="http://www.w3.org/1999/xlink" x="0px" y="0px"
	 width="60px" height="60px" viewBox="0 0 60 60" enable-background="new 0 0 60 60" xml:space="preserve">
<path  d="M47.149,16.707h-9.95v9.949h1.981c-0.44,0.773-0.979,1.497-1.626,2.143c-1.498,1.5-3.391,2.457-5.443,2.798
	V14.461h6.629L30.392,0l-8.351,14.461h6.722v25.075c-3.155-0.472-5.837-2.402-7.321-5.092c1.641-0.993,2.742-2.79,2.742-4.848
	c0-3.129-2.537-5.666-5.666-5.666s-5.667,2.537-5.667,5.666c0,2.985,2.312,5.428,5.242,5.646c1.935,4.152,5.933,7.155,10.67,7.682
	v2.158c-3.366,0.764-5.881,3.768-5.881,7.363c0,4.172,3.383,7.555,7.556,7.555c4.172,0,7.555-3.383,7.555-7.555
	c0-3.596-2.515-6.6-5.881-7.363V34.987c2.951-0.364,5.678-1.687,7.812-3.819c1.308-1.309,2.309-2.842,2.975-4.512h4.251V16.707z"/>
</svg>
