<?xml version="1.0" encoding="utf-8"?>
<!-- Generator: Adobe Illustrator 16.0.3, SVG Export Plug-In . SVG Version: 6.00 Build 0)  -->
<!DOCTYPE svg PUBLIC "-//W3C//DTD SVG 1.1//EN" "http://www.w3.org/Graphics/SVG/1.1/DTD/svg11.dtd">
<svg version="1.1" id="Layer_1" xmlns="http://www.w3.org/2000/svg" xmlns:xlink="http://www.w3.org/1999/xlink" x="0px" y="0px"
	 width="60px" height="60px" viewBox="0 0 60 60" enable-background="new 0 0 60 60" xml:space="preserve">
<g>
	<path  d="M17.259,36.1h23.795c2.244,0,4.069-1.826,4.069-4.068c0-0.02-0.001-0.039-0.003-0.059l-1.024-13.119
		c-0.02-2.154-2.072-4.037-4.411-4.037H18.628c-2.339,0-4.392,1.883-4.411,4.037l-1.024,13.119c-0.001,0.02-0.002,0.039-0.002,0.059
		C13.19,34.273,15.016,36.1,17.259,36.1z M15.706,18.943c0.002-0.019,0.003-0.038,0.003-0.058c0-1.475,1.541-2.576,2.919-2.576
		h21.057c1.378,0,2.92,1.102,2.92,2.576c0,0.02,0.001,0.039,0.002,0.058l1.024,13.116c-0.015,1.408-1.165,2.549-2.577,2.549H17.259
		c-1.412,0-2.562-1.141-2.577-2.549L15.706,18.943z"/>
	<path  d="M59.145,41.957c-4.317-2.039-6.532-3.197-7.855-3.889c-0.746-0.391-1.242-0.648-1.669-0.814
		c0.602-0.918,0.955-2.014,0.955-3.189c0-0.039-0.002-0.078-0.005-0.117L49.229,16.79c-0.039-3.085-2.961-5.777-6.289-5.777H15.373
		c-3.329,0-6.251,2.692-6.29,5.777L7.742,33.947c-0.002,0.039-0.004,0.078-0.004,0.117c0,1.355,0.469,2.602,1.248,3.596
		c-0.204,0.109-0.423,0.232-0.682,0.377c-1.148,0.645-3.287,1.846-7.479,3.934C0.32,42.223,0,42.74,0,43.305v0.605
		c0,3.369,2.318,5.078,6.89,5.078h46.22c4.572,0,6.891-1.709,6.891-5.078v-0.605C60,42.729,59.667,42.203,59.145,41.957z
		 M12.062,16.969c0.003-0.039,0.004-0.077,0.004-0.116c0-1.469,1.607-2.858,3.308-2.858H42.94c1.699,0,3.307,1.389,3.307,2.858
		c0,0.039,0.001,0.077,0.005,0.116l1.34,17.148c-0.028,1.551-1.3,2.805-2.859,2.805H13.58c-1.559,0-2.83-1.254-2.858-2.807
		L12.062,16.969z M53.109,46.004H6.89c-3.476,0-3.859-0.92-3.901-1.779c3.714-1.867,5.685-2.973,6.777-3.586
		c1.166-0.656,1.18-0.656,1.401-0.656c0.098,0,0.207,0.004,0.337,0.008c0.218,0.006,0.483,0.014,0.821,0.014H47.07
		c0.337,0,0.602-0.008,0.82-0.014c0.131-0.004,0.242-0.008,0.342-0.008c0.261,0,0.282,0,1.674,0.729
		c1.252,0.654,3.291,1.723,7.104,3.535C56.963,45.1,56.557,46.004,53.109,46.004z"/>
	<path  d="M36.775,42.652l-2.689-1.721c-0.08-0.051-0.173-0.078-0.269-0.078h-8.964c-0.096,0-0.188,0.027-0.268,0.078
		l-2.689,1.721c-0.187,0.119-0.271,0.346-0.21,0.559c0.062,0.213,0.257,0.357,0.478,0.357h14.343c0.221,0,0.415-0.145,0.478-0.357
		S36.961,42.771,36.775,42.652z M23.863,42.574l1.136-0.727h8.673l1.136,0.727H23.863z"/>
</g>
</svg>
