<?xml version="1.0" encoding="utf-8"?>
<!-- Generator: Adobe Illustrator 16.0.3, SVG Export Plug-In . SVG Version: 6.00 Build 0)  -->
<!DOCTYPE svg PUBLIC "-//W3C//DTD SVG 1.1//EN" "http://www.w3.org/Graphics/SVG/1.1/DTD/svg11.dtd">
<svg version="1.1" id="Layer_1" xmlns="http://www.w3.org/2000/svg" xmlns:xlink="http://www.w3.org/1999/xlink" x="0px" y="0px"
	 width="60px" height="60px" viewBox="0 0 60 60" enable-background="new 0 0 60 60" xml:space="preserve">
<g>
	<path  d="M58.529,16.505c-2.534,0-3.249,2.076-3.722,3.451c-0.553,1.606-0.837,2.259-2.322,2.259
		c-2.194,0-2.514-1.438-2.557-1.862c-0.144-1.922-1.471-5.558-5.468-5.558c-2.001,0-3.575,0.608-4.679,1.807
		c-0.975,1.059-1.33,2.316-1.453,3.239H2.96c-1.633,0-2.96,1.327-2.96,2.96v19.444c0,1.632,1.327,2.96,2.96,2.96h40.649
		c1.632,0,2.96-1.328,2.96-2.96V22.801c0-1.633-1.328-2.96-2.96-2.96h-2.29c0.1-0.415,0.287-0.884,0.64-1.261
		c0.524-0.56,1.366-0.843,2.502-0.843c2.177,0,2.493,2.368,2.534,2.829c0.112,1.588,1.404,4.59,5.49,4.59
		c3.644,0,4.558-2.656,5.104-4.243c0.505-1.467,0.632-1.467,0.94-1.467c0.812,0,1.471-0.658,1.471-1.471
		S59.342,16.505,58.529,16.505z M43.628,22.801v19.444c0,0.011-0.008,0.018-0.019,0.018L2.941,42.245L2.96,22.782L43.628,22.801z"/>
	<path  d="M6.061,27.936h1.497c0.721,0,1.307-0.586,1.307-1.306v-1.497c0-0.721-0.586-1.307-1.307-1.307H6.061
		c-0.721,0-1.307,0.586-1.307,1.307v1.497C4.754,27.35,5.34,27.936,6.061,27.936z M5.734,25.133c0-0.181,0.146-0.326,0.326-0.326
		h1.497c0.18,0,0.326,0.146,0.326,0.326v1.497c0,0.179-0.146,0.325-0.326,0.325H6.061c-0.18,0-0.326-0.146-0.326-0.325V25.133z"/>
	<path  d="M10.687,27.936h1.496c0.722,0,1.309-0.586,1.309-1.306v-1.497c0-0.721-0.587-1.307-1.309-1.307h-1.496
		c-0.721,0-1.307,0.586-1.307,1.307v1.497C9.38,27.35,9.966,27.936,10.687,27.936z M10.36,25.133c0-0.181,0.146-0.326,0.326-0.326
		h1.496c0.182,0,0.328,0.146,0.328,0.326v1.497c0,0.179-0.146,0.325-0.328,0.325h-1.496c-0.18,0-0.326-0.146-0.326-0.325V25.133z"/>
	<path  d="M15.04,27.936h1.497c0.72,0,1.306-0.586,1.306-1.306v-1.497c0-0.721-0.586-1.307-1.306-1.307H15.04
		c-0.72,0-1.307,0.586-1.307,1.307v1.497C13.733,27.35,14.32,27.936,15.04,27.936z M14.714,25.133c0-0.181,0.146-0.326,0.326-0.326
		h1.497c0.18,0,0.325,0.146,0.325,0.326v1.497c0,0.179-0.146,0.325-0.325,0.325H15.04c-0.18,0-0.326-0.146-0.326-0.325V25.133z"/>
	<path  d="M19.871,27.936h1.496c0.72,0,1.307-0.586,1.307-1.306v-1.497c0-0.721-0.587-1.307-1.307-1.307h-1.496
		c-0.721,0-1.308,0.586-1.308,1.307v1.497C18.563,27.35,19.15,27.936,19.871,27.936z M19.544,25.133
		c0-0.181,0.146-0.326,0.327-0.326h1.496c0.18,0,0.326,0.146,0.326,0.326v1.497c0,0.179-0.146,0.325-0.326,0.325h-1.496
		c-0.181,0-0.327-0.146-0.327-0.325V25.133z"/>
	<path  d="M24.837,27.936h1.496c0.721,0,1.307-0.586,1.307-1.306v-1.497c0-0.721-0.586-1.307-1.307-1.307h-1.496
		c-0.721,0-1.308,0.586-1.308,1.307v1.497C23.529,27.35,24.116,27.936,24.837,27.936z M24.51,25.133
		c0-0.181,0.146-0.326,0.327-0.326h1.496c0.18,0,0.326,0.146,0.326,0.326v1.497c0,0.179-0.146,0.325-0.326,0.325h-1.496
		c-0.181,0-0.327-0.146-0.327-0.325V25.133z"/>
	<path  d="M29.462,27.936h1.497c0.721,0,1.307-0.586,1.307-1.306v-1.497c0-0.721-0.586-1.307-1.307-1.307h-1.497
		c-0.72,0-1.307,0.586-1.307,1.307v1.497C28.155,27.35,28.742,27.936,29.462,27.936z M29.136,25.133
		c0-0.181,0.147-0.326,0.326-0.326h1.497c0.18,0,0.326,0.146,0.326,0.326v1.497c0,0.179-0.146,0.325-0.326,0.325h-1.497
		c-0.179,0-0.326-0.146-0.326-0.325V25.133z"/>
	<path  d="M18.714,28.322h-1.497c-0.721,0-1.307,0.587-1.307,1.307v1.497c0,0.72,0.586,1.306,1.307,1.306h1.497
		c0.721,0,1.307-0.586,1.307-1.306v-1.497C20.021,28.909,19.435,28.322,18.714,28.322z M19.04,31.126
		c0,0.179-0.146,0.325-0.326,0.325h-1.497c-0.18,0-0.326-0.146-0.326-0.325v-1.497c0-0.18,0.146-0.326,0.326-0.326h1.497
		c0.18,0,0.326,0.146,0.326,0.326V31.126z"/>
	<path  d="M23.544,28.322h-1.497c-0.72,0-1.306,0.587-1.306,1.307v1.497c0,0.72,0.586,1.306,1.306,1.306h1.497
		c0.721,0,1.307-0.586,1.307-1.306v-1.497C24.851,28.909,24.265,28.322,23.544,28.322z M23.87,31.126
		c0,0.179-0.146,0.325-0.326,0.325h-1.497c-0.179,0-0.325-0.146-0.325-0.325v-1.497c0-0.18,0.146-0.326,0.325-0.326h1.497
		c0.18,0,0.326,0.146,0.326,0.326V31.126z"/>
	<path  d="M28.51,28.322h-1.497c-0.72,0-1.306,0.587-1.306,1.307v1.497c0,0.72,0.586,1.306,1.306,1.306h1.497
		c0.721,0,1.307-0.586,1.307-1.306v-1.497C29.816,28.909,29.23,28.322,28.51,28.322z M28.836,31.126
		c0,0.179-0.146,0.325-0.326,0.325h-1.497c-0.18,0-0.325-0.146-0.325-0.325v-1.497c0-0.18,0.146-0.326,0.325-0.326h1.497
		c0.181,0,0.326,0.146,0.326,0.326V31.126z"/>
	<path  d="M31.64,32.432h1.496c0.721,0,1.307-0.586,1.307-1.306v-1.497c0-0.72-0.586-1.307-1.307-1.307H31.64
		c-0.721,0-1.307,0.587-1.307,1.307v1.497C30.333,31.846,30.919,32.432,31.64,32.432z M31.313,29.629
		c0-0.18,0.146-0.326,0.326-0.326h1.496c0.18,0,0.326,0.146,0.326,0.326v1.497c0,0.179-0.146,0.325-0.326,0.325H31.64
		c-0.181,0-0.326-0.146-0.326-0.325V29.629z"/>
	<path  d="M34.132,27.936h1.496c0.721,0,1.307-0.586,1.307-1.306v-1.497c0-0.721-0.586-1.307-1.307-1.307h-1.496
		c-0.721,0-1.307,0.586-1.307,1.307v1.497C32.825,27.35,33.411,27.936,34.132,27.936z M33.806,25.133
		c0-0.181,0.146-0.326,0.326-0.326h1.496c0.181,0,0.326,0.146,0.326,0.326v1.497c0,0.179-0.146,0.325-0.326,0.325h-1.496
		c-0.18,0-0.326-0.146-0.326-0.325V25.133z"/>
	<path  d="M38.714,27.936h1.496c0.721,0,1.308-0.586,1.308-1.306v-1.497c0-0.721-0.587-1.307-1.308-1.307h-1.496
		c-0.721,0-1.307,0.586-1.307,1.307v1.497C37.407,27.35,37.993,27.936,38.714,27.936z M38.388,25.133
		c0-0.181,0.146-0.326,0.326-0.326h1.496c0.18,0,0.326,0.146,0.326,0.326v1.497c0,0.179-0.146,0.325-0.326,0.325h-1.496
		c-0.18,0-0.326-0.146-0.326-0.325V25.133z"/>
	<path  d="M6.061,32.432h7.892c0.721,0,1.307-0.586,1.307-1.306v-1.497c0-0.72-0.586-1.307-1.307-1.307H6.061
		c-0.721,0-1.307,0.587-1.307,1.307v1.497C4.754,31.846,5.34,32.432,6.061,32.432z M5.734,29.629c0-0.18,0.146-0.326,0.326-0.326
		h7.892c0.18,0,0.326,0.146,0.326,0.326v1.497c0,0.179-0.146,0.325-0.326,0.325H6.061c-0.18,0-0.326-0.146-0.326-0.325V29.629z"/>
	<path  d="M15.993,36.775c0.72,0,1.307-0.586,1.307-1.307v-1.496c0-0.721-0.587-1.307-1.307-1.307h-1.496
		c-0.721,0-1.308,0.586-1.308,1.307v1.496c0,0.721,0.587,1.307,1.308,1.307H15.993z M14.17,35.469v-1.496
		c0-0.181,0.146-0.326,0.327-0.326h1.496c0.18,0,0.326,0.146,0.326,0.326v1.496c0,0.18-0.146,0.326-0.326,0.326h-1.496
		C14.316,35.795,14.17,35.648,14.17,35.469z"/>
	<path  d="M18.02,33.973v1.496c0,0.721,0.586,1.307,1.307,1.307h1.497c0.72,0,1.306-0.586,1.306-1.307v-1.496
		c0-0.721-0.586-1.307-1.306-1.307h-1.497C18.605,32.666,18.02,33.252,18.02,33.973z M21.148,33.973v1.496
		c0,0.18-0.146,0.326-0.325,0.326h-1.497c-0.18,0-0.326-0.146-0.326-0.326v-1.496c0-0.181,0.146-0.326,0.326-0.326h1.497
		C21.003,33.646,21.148,33.792,21.148,33.973z"/>
	<path  d="M22.985,33.973v1.496c0,0.721,0.586,1.307,1.307,1.307h1.497c0.72,0,1.307-0.586,1.307-1.307v-1.496
		c0-0.721-0.587-1.307-1.307-1.307h-1.497C23.571,32.666,22.985,33.252,22.985,33.973z M26.114,33.973v1.496
		c0,0.18-0.146,0.326-0.325,0.326h-1.497c-0.18,0-0.326-0.146-0.326-0.326v-1.496c0-0.181,0.146-0.326,0.326-0.326h1.497
		C25.969,33.646,26.114,33.792,26.114,33.973z"/>
	<path  d="M27.611,33.973v1.496c0,0.721,0.586,1.307,1.307,1.307h1.497c0.72,0,1.306-0.586,1.306-1.307v-1.496
		c0-0.721-0.586-1.307-1.306-1.307h-1.497C28.197,32.666,27.611,33.252,27.611,33.973z M30.74,33.973v1.496
		c0,0.18-0.146,0.326-0.325,0.326h-1.497c-0.18,0-0.326-0.146-0.326-0.326v-1.496c0-0.181,0.146-0.326,0.326-0.326h1.497
		C30.595,33.646,30.74,33.792,30.74,33.973z"/>
	<path  d="M12.382,37.251H6.407c-0.622,0-1.108,0.574-1.108,1.307v1.497c0,0.732,0.486,1.307,1.108,1.307h5.975
		c0.621,0,1.109-0.574,1.109-1.307v-1.497C13.491,37.825,13.003,37.251,12.382,37.251z M12.511,40.055
		c0,0.197-0.095,0.313-0.131,0.326H6.41c-0.036-0.01-0.131-0.127-0.131-0.326v-1.497c0-0.199,0.095-0.315,0.128-0.325l5.971-0.001
		c0.036,0.011,0.133,0.127,0.133,0.326V40.055z"/>
	<path  d="M40.181,37.251h-5.975c-0.622,0-1.109,0.574-1.109,1.307v1.497c0,0.732,0.487,1.307,1.109,1.307h5.975
		c0.621,0,1.108-0.574,1.108-1.307v-1.497C41.289,37.825,40.802,37.251,40.181,37.251z M40.309,40.055
		c0,0.196-0.093,0.312-0.13,0.326h-5.97c-0.036-0.011-0.132-0.128-0.132-0.326v-1.497c0-0.198,0.096-0.315,0.129-0.325l5.971-0.001
		c0.036,0.011,0.132,0.127,0.132,0.326V40.055z"/>
	<path  d="M40.181,28.69h-4.062c-0.622,0-1.108,0.574-1.108,1.307v2.669h-0.805c-0.622,0-1.109,0.574-1.109,1.307
		v1.496c0,0.732,0.487,1.307,1.109,1.307h5.975c0.621,0,1.108-0.574,1.108-1.307v-5.472C41.289,29.265,40.802,28.69,40.181,28.69z
		 M40.309,35.469c0,0.197-0.093,0.313-0.131,0.326l-5.969,0.001c-0.036-0.012-0.132-0.128-0.132-0.327v-1.496
		c0-0.199,0.096-0.315,0.129-0.326h1.295c0.271,0,0.49-0.22,0.49-0.49v-3.159c0-0.199,0.096-0.315,0.128-0.326h4.058
		c0.036,0.011,0.132,0.127,0.132,0.326V35.469z"/>
	<path  d="M6.337,36.775h5.298c0.582,0,1.039-0.574,1.039-1.307v-1.496c0-0.732-0.457-1.307-1.039-1.307H6.337
		c-0.582,0-1.038,0.574-1.038,1.307v1.496C5.299,36.201,5.755,36.775,6.337,36.775z M6.279,33.973c0-0.178,0.06-0.289,0.094-0.326
		H11.6c0.033,0.037,0.093,0.148,0.093,0.326v1.496c0,0.177-0.06,0.288-0.093,0.326H6.373c-0.034-0.038-0.094-0.148-0.094-0.326
		V33.973z"/>
	<path  d="M30.317,37.384H16.227c-1.11,0-1.948,0.562-1.948,1.307v1.497c0,0.744,0.838,1.307,1.948,1.307h14.091
		c1.111,0,1.948-0.562,1.948-1.307V38.69C32.266,37.945,31.429,37.384,30.317,37.384z M30.317,40.514H16.227
		c-0.614,0-0.946-0.252-0.968-0.326v-1.492c0.021-0.079,0.354-0.331,0.968-0.331h14.091c0.613,0,0.946,0.252,0.968,0.326
		l0.001,1.492C31.264,40.262,30.931,40.514,30.317,40.514z"/>
</g>
</svg>
