<?xml version="1.0" encoding="utf-8"?>
<!-- Generator: Adobe Illustrator 16.0.3, SVG Export Plug-In . SVG Version: 6.00 Build 0)  -->
<!DOCTYPE svg PUBLIC "-//W3C//DTD SVG 1.1//EN" "http://www.w3.org/Graphics/SVG/1.1/DTD/svg11.dtd">
<svg version="1.1" id="Layer_1" xmlns="http://www.w3.org/2000/svg" xmlns:xlink="http://www.w3.org/1999/xlink" x="0px" y="0px"
	 width="60px" height="60px" viewBox="0 0 60 60" enable-background="new 0 0 60 60" xml:space="preserve">
<g>
	<path  d="M57.873,0H2.128C0.953,0,0.001,0.952,0.001,2.127v55.746C0.001,59.048,0.953,60,2.128,60h55.745
		c1.175,0,2.126-0.952,2.126-2.127V2.127C59.999,0.952,59.048,0,57.873,0z M55.746,55.747H4.254V4.253h51.492V55.747z"/>
	<path  d="M9.247,39.252h5.954v6.156c0,0.587,0.476,1.062,1.063,1.062h6.564v4.896c0,0.587,0.476,1.062,1.062,1.062
		h12.217c0.587,0,1.063-0.476,1.063-1.062v-4.896h6.564c0.587,0,1.063-0.476,1.063-1.062v-6.156h5.953
		c0.587,0,1.063-0.477,1.063-1.063V9.184c0-0.588-0.477-1.063-1.063-1.063H9.247c-0.587,0-1.063,0.476-1.063,1.063v29.005
		C8.184,38.775,8.66,39.252,9.247,39.252z M10.311,10.246h39.379v26.879h-5.953c-0.587,0-1.062,0.477-1.062,1.063v6.156h-6.565
		c-0.587,0-1.063,0.476-1.063,1.063v4.895h-10.09v-4.895c0-0.588-0.476-1.063-1.063-1.063h-6.564v-6.156
		c0-0.587-0.476-1.063-1.062-1.063h-5.954V10.246z"/>
	<path  d="M17.053,25.537v-11.18c0-0.393-0.317-0.709-0.709-0.709s-0.709,0.316-0.709,0.709v11.18
		c0,0.392,0.317,0.709,0.709,0.709S17.053,25.929,17.053,25.537z"/>
	<path  d="M22.978,26.246c0.392,0,0.709-0.317,0.709-0.709v-11.18c0-0.393-0.317-0.709-0.709-0.709
		s-0.709,0.316-0.709,0.709v11.18C22.269,25.929,22.586,26.246,22.978,26.246z"/>
	<path  d="M30.329,26.246c0.393,0,0.709-0.317,0.709-0.709v-11.18c0-0.393-0.316-0.709-0.709-0.709
		c-0.392,0-0.708,0.316-0.708,0.709v11.18C29.621,25.929,29.938,26.246,30.329,26.246z"/>
	<path  d="M37.45,26.246c0.392,0,0.708-0.317,0.708-0.709v-11.18c0-0.393-0.316-0.709-0.708-0.709
		c-0.393,0-0.709,0.316-0.709,0.709v11.18C36.741,25.929,37.058,26.246,37.45,26.246z"/>
	<path  d="M44.083,26.246c0.392,0,0.709-0.317,0.709-0.709v-11.18c0-0.393-0.317-0.709-0.709-0.709
		s-0.709,0.316-0.709,0.709v11.18C43.374,25.929,43.691,26.246,44.083,26.246z"/>
</g>
</svg>
