<?xml version="1.0" encoding="utf-8"?>
<!-- Generator: Adobe Illustrator 16.0.3, SVG Export Plug-In . SVG Version: 6.00 Build 0)  -->
<!DOCTYPE svg PUBLIC "-//W3C//DTD SVG 1.1//EN" "http://www.w3.org/Graphics/SVG/1.1/DTD/svg11.dtd">
<svg version="1.1" id="Layer_1" xmlns="http://www.w3.org/2000/svg" xmlns:xlink="http://www.w3.org/1999/xlink" x="0px" y="0px"
	 width="60px" height="60px" viewBox="0 0 60 60" enable-background="new 0 0 60 60" xml:space="preserve">
<path  d="M49.167,40.83c-0.671,0-1.324,0.07-1.955,0.202l-9.094-23.241c2.785-1.679,4.658-4.724,4.658-8.206
	C42.776,4.3,38.477,0,33.192,0c-5.285,0-9.586,4.3-9.586,9.585c0,3.049,1.437,5.765,3.663,7.521l-13.005,24.37
	c-1.067-0.412-2.221-0.646-3.432-0.646c-5.284,0-9.584,4.3-9.584,9.585S5.549,60,10.833,60c4.74,0,8.677-3.462,9.441-7.987h19.451
	C40.49,56.538,44.427,60,49.167,60c5.284,0,9.584-4.3,9.584-9.585S54.451,40.83,49.167,40.83z M33.192,3.195
	c3.523,0,6.39,2.867,6.39,6.39s-2.866,6.39-6.39,6.39c-3.524,0-6.391-2.866-6.391-6.39S29.668,3.195,33.192,3.195z M30.073,18.639
	c0.979,0.338,2.026,0.531,3.119,0.531c0.67,0,1.323-0.07,1.955-0.202l9.093,23.24c-2.349,1.416-4.041,3.806-4.515,6.609H20.274
	c-0.385-2.275-1.566-4.281-3.258-5.714L30.073,18.639z M10.833,56.805c-3.523,0-6.39-2.866-6.39-6.39s2.866-6.39,6.39-6.39
	c3.524,0,6.391,2.866,6.391,6.39S14.357,56.805,10.833,56.805z M49.167,56.805c-3.523,0-6.391-2.866-6.391-6.39
	s2.867-6.39,6.391-6.39s6.39,2.866,6.39,6.39S52.69,56.805,49.167,56.805z"/>
</svg>
