<?xml version="1.0" encoding="utf-8"?>
<!-- Generator: Adobe Illustrator 16.0.3, SVG Export Plug-In . SVG Version: 6.00 Build 0)  -->
<!DOCTYPE svg PUBLIC "-//W3C//DTD SVG 1.1//EN" "http://www.w3.org/Graphics/SVG/1.1/DTD/svg11.dtd">
<svg version="1.1" id="Layer_1" xmlns="http://www.w3.org/2000/svg" xmlns:xlink="http://www.w3.org/1999/xlink" x="0px" y="0px"
	 width="60px" height="60px" viewBox="0 0 60 60" enable-background="new 0 0 60 60" xml:space="preserve">
<path  d="M56.672,41.035c1.835,0,3.328-1.432,3.328-3.19v-4.958c0-1.759-1.493-3.19-3.328-3.19H43.354V26.88
	c0-2.727-2.342-4.944-5.22-4.944H21.866c-1.294,0-2.347-0.93-2.347-2.072v-5.041h13.317c1.835,0,3.328-1.432,3.328-3.19V6.674
	c0-1.76-1.493-3.19-3.328-3.19H3.328C1.493,3.483,0,4.914,0,6.674v4.958c0,1.759,1.493,3.19,3.328,3.19h13.318v5.041
	c0,2.727,2.342,4.944,5.22,4.944h16.268c1.294,0,2.347,0.93,2.347,2.072v2.816H27.163c-1.835,0-3.328,1.432-3.328,3.19v4.958
	c0,1.759,1.493,3.19,3.328,3.19H40.48v4.145H27.163c-1.835,0-3.328,1.431-3.328,3.189v4.958c0,1.759,1.493,3.189,3.328,3.189h29.509
	c1.835,0,3.328-1.431,3.328-3.189v-4.958c0-1.759-1.493-3.189-3.328-3.189H43.354v-4.145H56.672z M2.872,11.632V6.674
	c0-0.15,0.188-0.318,0.456-0.318h29.509c0.269,0,0.456,0.168,0.456,0.318v4.958c0,0.15-0.188,0.317-0.456,0.317H3.328
	C3.06,11.949,2.872,11.782,2.872,11.632z M57.128,48.369v4.958c0,0.15-0.188,0.317-0.456,0.317H27.163
	c-0.269,0-0.456-0.167-0.456-0.317v-4.958c0-0.15,0.188-0.317,0.456-0.317h29.509C56.94,48.052,57.128,48.219,57.128,48.369z
	 M26.707,37.845v-4.958c0-0.15,0.188-0.317,0.456-0.317h29.509c0.269,0,0.456,0.167,0.456,0.317v4.958
	c0,0.15-0.188,0.318-0.456,0.318H27.163C26.895,38.163,26.707,37.995,26.707,37.845z"/>
</svg>
