<?xml version="1.0" encoding="utf-8"?>
<!-- Generator: Adobe Illustrator 16.0.3, SVG Export Plug-In . SVG Version: 6.00 Build 0)  -->
<!DOCTYPE svg PUBLIC "-//W3C//DTD SVG 1.1//EN" "http://www.w3.org/Graphics/SVG/1.1/DTD/svg11.dtd">
<svg version="1.1" id="Layer_1" xmlns="http://www.w3.org/2000/svg" xmlns:xlink="http://www.w3.org/1999/xlink" x="0px" y="0px"
	 width="60px" height="60px" viewBox="0 0 60 60" enable-background="new 0 0 60 60" xml:space="preserve">
<path  d="M52.304,2.487c-4.244,0-7.697,3.453-7.697,7.697c0,2.607,1.306,4.911,3.294,6.304l-7.859,19.734
	c-0.721-0.224-1.485-0.344-2.277-0.344c-0.986,0-1.927,0.192-2.794,0.532l-7.235-6.884c0.088-0.467,0.14-0.947,0.14-1.439
	c0-4.244-3.453-7.697-7.696-7.697c-4.244,0-7.697,3.453-7.697,7.697c0,2.29,1.01,4.343,2.603,5.754l-4.476,8.853
	c-0.899-0.368-1.881-0.575-2.911-0.575C3.453,42.119,0,45.572,0,49.816s3.453,7.696,7.696,7.696c4.244,0,7.697-3.452,7.697-7.696
	c0-2.16-0.897-4.112-2.335-5.511l4.538-8.976c0.808,0.289,1.675,0.454,2.581,0.454c2.641,0,4.975-1.338,6.361-3.371l5.902,5.615
	c-1.461,1.401-2.375,3.368-2.375,5.548c0,4.244,3.453,7.696,7.697,7.696c4.243,0,7.696-3.452,7.696-7.696
	c0-2.401-1.107-4.55-2.836-5.962l7.94-19.938c0.56,0.13,1.14,0.205,1.739,0.205c4.243,0,7.696-3.453,7.696-7.697
	S56.547,2.487,52.304,2.487z M7.696,54.599c-2.637,0-4.782-2.146-4.782-4.782c0-2.638,2.146-4.783,4.782-4.783
	c2.638,0,4.784,2.146,4.784,4.783C12.48,52.453,10.334,54.599,7.696,54.599z M20.178,32.871c-2.638,0-4.784-2.146-4.784-4.783
	c0-2.637,2.146-4.783,4.784-4.783c2.637,0,4.782,2.146,4.782,4.783C24.96,30.726,22.814,32.871,20.178,32.871z M37.764,48.359
	c-2.638,0-4.784-2.146-4.784-4.783s2.146-4.784,4.784-4.784c2.637,0,4.782,2.146,4.782,4.784S40.4,48.359,37.764,48.359z
	 M52.304,14.967c-2.638,0-4.784-2.146-4.784-4.783c0-2.637,2.146-4.783,4.784-4.783c2.637,0,4.782,2.146,4.782,4.783
	C57.086,12.822,54.94,14.967,52.304,14.967z"/>
</svg>
