<?xml version="1.0" encoding="utf-8"?>
<!-- Generator: Adobe Illustrator 16.0.3, SVG Export Plug-In . SVG Version: 6.00 Build 0)  -->
<!DOCTYPE svg PUBLIC "-//W3C//DTD SVG 1.1//EN" "http://www.w3.org/Graphics/SVG/1.1/DTD/svg11.dtd">
<svg version="1.1" id="Layer_1" xmlns="http://www.w3.org/2000/svg" xmlns:xlink="http://www.w3.org/1999/xlink" x="0px" y="0px"
	 width="60px" height="60px" viewBox="0 0 60 60" enable-background="new 0 0 60 60" xml:space="preserve">
<path  d="M55.055,12.016c2.727,0,4.945-2.218,4.945-4.945s-2.219-4.945-4.945-4.945s-4.945,2.218-4.945,4.945
	c0,0.873,0.23,1.693,0.629,2.406L38.285,22.756c-1.283-0.823-2.804-1.308-4.438-1.308c-2.49,0-4.721,1.114-6.232,2.866l-8.145-4.746
	c0.077-0.346,0.121-0.704,0.121-1.072c0-2.728-2.219-4.946-4.945-4.946c-2.728,0-4.946,2.218-4.946,4.946
	c0,2.726,2.219,4.945,4.946,4.945c1.271,0,2.43-0.486,3.307-1.279L26.1,26.91c-0.312,0.869-0.491,1.803-0.491,2.777
	c0,1.412,0.357,2.74,0.986,3.904L7.673,48.807c-0.782-0.52-1.72-0.822-2.728-0.822C2.219,47.984,0,50.201,0,52.93
	c0,2.727,2.219,4.945,4.945,4.945c2.728,0,4.946-2.219,4.946-4.945c0-0.629-0.122-1.227-0.336-1.779L28.484,35.93
	c0.796,0.684,1.723,1.219,2.738,1.561l-1.497,10.568c-2.333,0.396-4.117,2.426-4.117,4.871c0,2.727,2.218,4.945,4.945,4.945
	S35.5,55.656,35.5,52.93c0-1.957-1.146-3.646-2.799-4.447L34.2,37.908c2.346-0.1,4.438-1.18,5.878-2.846l8.137,4.746
	c-0.077,0.346-0.121,0.705-0.121,1.074c0,2.727,2.219,4.945,4.945,4.945c2.728,0,4.945-2.219,4.945-4.945
	c0-2.729-2.218-4.945-4.945-4.945c-1.271,0-2.428,0.486-3.305,1.277l-8.141-4.75c0.312-0.869,0.492-1.801,0.492-2.777
	c0-1.824-0.604-3.506-1.609-4.873l12.456-13.283C53.576,11.839,54.295,12.016,55.055,12.016z M14.646,20.436
	c-1.07,0-1.94-0.87-1.94-1.939c0-1.07,0.87-1.94,1.94-1.94c1.069,0,1.939,0.87,1.939,1.94
	C16.586,19.566,15.716,20.436,14.646,20.436z M53.039,38.943c1.07,0,1.939,0.869,1.939,1.939c0,1.068-0.869,1.939-1.939,1.939
	c-1.069,0-1.939-0.871-1.939-1.939C51.1,39.812,51.97,38.943,53.039,38.943z M55.055,5.131c1.069,0,1.939,0.87,1.939,1.939
	c0,1.069-0.87,1.939-1.939,1.939s-1.939-0.87-1.939-1.939C53.115,6.001,53.985,5.131,55.055,5.131z M4.945,54.869
	c-1.069,0-1.939-0.871-1.939-1.939c0-1.07,0.87-1.939,1.939-1.939c1.07,0,1.94,0.869,1.94,1.939
	C6.886,53.998,6.016,54.869,4.945,54.869z M30.554,54.869c-1.069,0-1.939-0.871-1.939-1.939c0-1.07,0.87-1.939,1.939-1.939
	s1.939,0.869,1.939,1.939C32.493,53.998,31.623,54.869,30.554,54.869z M33.848,34.92c-2.887,0-5.233-2.348-5.233-5.232
	c0-2.887,2.347-5.234,5.233-5.234c2.885,0,5.232,2.348,5.232,5.234C39.08,32.572,36.732,34.92,33.848,34.92z"/>
</svg>
