<?xml version="1.0" encoding="utf-8"?>
<!-- Generator: Adobe Illustrator 16.0.3, SVG Export Plug-In . SVG Version: 6.00 Build 0)  -->
<!DOCTYPE svg PUBLIC "-//W3C//DTD SVG 1.1//EN" "http://www.w3.org/Graphics/SVG/1.1/DTD/svg11.dtd">
<svg version="1.1" id="Layer_1" xmlns="http://www.w3.org/2000/svg" xmlns:xlink="http://www.w3.org/1999/xlink" x="0px" y="0px"
	 width="60px" height="60px" viewBox="0 0 60 60" enable-background="new 0 0 60 60" xml:space="preserve">
<path  d="M50.616,43.37v-8.074c0-3.796-3.089-6.884-6.884-6.884H31.647V16.63c3.87-0.745,6.805-4.153,6.805-8.237
	C38.452,3.765,34.687,0,30.059,0s-8.393,3.765-8.393,8.393c0,4.084,2.934,7.492,6.804,8.237v11.782H16.269
	c-3.796,0-6.885,3.088-6.885,6.884v8.074c-3.869,0.745-6.804,4.153-6.804,8.237C2.58,56.235,6.346,60,10.973,60
	c4.628,0,8.394-3.765,8.394-8.393c0-4.084-2.935-7.492-6.805-8.237v-8.074c0-2.044,1.663-3.707,3.707-3.707H28.47V43.37
	c-3.87,0.745-6.804,4.153-6.804,8.237c0,4.628,3.765,8.393,8.393,8.393s8.394-3.765,8.394-8.393c0-4.084-2.935-7.492-6.805-8.237
	V31.589h12.085c2.043,0,3.706,1.663,3.706,3.707v8.074c-3.87,0.745-6.805,4.153-6.805,8.237c0,4.628,3.766,8.393,8.394,8.393
	s8.393-3.765,8.393-8.393C57.42,47.523,54.486,44.115,50.616,43.37z M24.844,8.393c0-2.876,2.339-5.216,5.215-5.216
	s5.216,2.34,5.216,5.216c0,2.875-2.34,5.215-5.216,5.215S24.844,11.269,24.844,8.393z M16.188,51.607
	c0,2.876-2.34,5.215-5.216,5.215c-2.875,0-5.215-2.339-5.215-5.215s2.34-5.216,5.215-5.216
	C13.849,46.392,16.188,48.731,16.188,51.607z M35.274,51.607c0,2.876-2.34,5.215-5.216,5.215s-5.215-2.339-5.215-5.215
	s2.339-5.216,5.215-5.216S35.274,48.731,35.274,51.607z M49.027,56.822c-2.876,0-5.216-2.339-5.216-5.215s2.34-5.216,5.216-5.216
	s5.216,2.34,5.216,5.216S51.903,56.822,49.027,56.822z"/>
</svg>
