<?xml version="1.0" encoding="utf-8"?>
<!-- Generator: Adobe Illustrator 16.0.3, SVG Export Plug-In . SVG Version: 6.00 Build 0)  -->
<!DOCTYPE svg PUBLIC "-//W3C//DTD SVG 1.1//EN" "http://www.w3.org/Graphics/SVG/1.1/DTD/svg11.dtd">
<svg version="1.1" id="Layer_1" xmlns="http://www.w3.org/2000/svg" xmlns:xlink="http://www.w3.org/1999/xlink" x="0px" y="0px"
	 width="60px" height="60px" viewBox="0 0 60 60" enable-background="new 0 0 60 60" xml:space="preserve">
<path  d="M56.672,29.696H43.354V26.88c0-2.727-2.342-4.944-5.22-4.944H21.866c-1.294,0-2.347-0.93-2.347-2.072v-5.041
	h13.317c1.835,0,3.328-1.432,3.328-3.19V6.674c0-1.76-1.493-3.19-3.328-3.19H3.328C1.492,3.483,0,4.914,0,6.674v4.958
	c0,1.759,1.492,3.19,3.328,3.19h13.318v5.041c0,2.727,2.342,4.944,5.22,4.944h16.268c1.294,0,2.347,0.93,2.347,2.072v2.816H27.163
	c-1.835,0-3.328,1.432-3.328,3.19v4.958c0,1.759,1.493,3.19,3.328,3.19h13.821v6.305c0,1.143-1.053,2.072-2.347,2.072h-2.473v-1.043
	c0-1.759-1.492-3.189-3.327-3.189H3.328C1.493,45.18,0,46.61,0,48.369v4.958c0,1.759,1.493,3.189,3.328,3.189h29.51
	c1.835,0,3.327-1.431,3.327-3.189v-1.043h2.473c2.878,0,5.22-2.218,5.22-4.944v-6.305h12.814c1.836,0,3.328-1.432,3.328-3.19v-4.958
	C60,31.128,58.508,29.696,56.672,29.696z M2.872,11.632V6.674c0-0.15,0.188-0.318,0.456-0.318h29.509
	c0.269,0,0.456,0.168,0.456,0.318v4.958c0,0.15-0.188,0.317-0.456,0.317H3.328C3.06,11.949,2.872,11.782,2.872,11.632z
	 M32.838,53.645H3.328c-0.269,0-0.455-0.167-0.455-0.317v-4.958c0-0.15,0.187-0.317,0.455-0.317h29.51
	c0.269,0,0.455,0.167,0.455,0.317v2.475c0,0.001,0,0.003,0,0.005c0,0.001,0,0.003,0,0.004v2.475
	C33.293,53.478,33.106,53.645,32.838,53.645z M57.128,37.845c0,0.15-0.188,0.318-0.456,0.318H27.163
	c-0.269,0-0.456-0.168-0.456-0.318v-4.958c0-0.15,0.188-0.317,0.456-0.317h29.509c0.269,0,0.456,0.167,0.456,0.317V37.845z"/>
</svg>
