<?xml version="1.0" encoding="utf-8"?>
<!-- Generator: Adobe Illustrator 16.0.3, SVG Export Plug-In . SVG Version: 6.00 Build 0)  -->
<!DOCTYPE svg PUBLIC "-//W3C//DTD SVG 1.1//EN" "http://www.w3.org/Graphics/SVG/1.1/DTD/svg11.dtd">
<svg version="1.1" id="Layer_1" xmlns="http://www.w3.org/2000/svg" xmlns:xlink="http://www.w3.org/1999/xlink" x="0px" y="0px"
	 width="60px" height="60px" viewBox="0 0 60 60" enable-background="new 0 0 60 60" xml:space="preserve">
<g>
	<path  d="M46.924,13.207c-0.003-0.053-0.007-0.105-0.016-0.157c-0.009-0.047-0.021-0.092-0.032-0.137
		c-0.014-0.046-0.025-0.093-0.043-0.138c-0.019-0.047-0.04-0.091-0.063-0.135c-0.021-0.041-0.04-0.081-0.063-0.119
		c-0.03-0.047-0.063-0.09-0.098-0.133c-0.02-0.023-0.033-0.05-0.054-0.072l-4.446-4.932c-0.311-0.345-0.747-0.501-1.178-0.477
		c-0.03-0.002-0.059-0.009-0.09-0.009h-9.863c-0.812,0-1.47,0.658-1.47,1.47V19.08h-1.47c-0.406,0-0.735,0.329-0.735,0.735
		s0.329,0.735,0.735,0.735h1.47v9.188c0,0.812,0.657,1.47,1.47,1.47h14.486c0.812,0,1.47-0.658,1.47-1.47V13.301
		C46.934,13.269,46.926,13.238,46.924,13.207z M40.903,10.438l2.609,2.895h-2.609V10.438z M32.447,28.27V9.839h5.516v4.963
		c0,0.812,0.658,1.47,1.47,1.47h4.561V28.27H32.447z"/>
	<path  d="M46.908,41.84c-0.009-0.047-0.021-0.092-0.033-0.137c-0.013-0.047-0.024-0.093-0.042-0.138
		c-0.019-0.047-0.041-0.091-0.063-0.136c-0.021-0.04-0.04-0.08-0.063-0.118c-0.03-0.047-0.064-0.091-0.1-0.134
		c-0.018-0.023-0.031-0.049-0.052-0.071l-4.446-4.932c-0.311-0.345-0.746-0.501-1.176-0.477c-0.031-0.002-0.061-0.009-0.092-0.009
		h-9.863c-0.812,0-1.47,0.657-1.47,1.47v8.495h-1.47c-0.406,0-0.735,0.329-0.735,0.734c0,0.406,0.329,0.735,0.735,0.735h1.47v11.405
		c0,0.812,0.657,1.471,1.47,1.471h14.486c0.812,0,1.47-0.658,1.47-1.471V42.091c0-0.032-0.008-0.062-0.01-0.094
		C46.921,41.944,46.917,41.892,46.908,41.84z M40.903,39.228l2.609,2.896h-2.609V39.228z M32.447,57.06V38.629h5.516v4.964
		c0,0.812,0.658,1.47,1.47,1.47h4.561V57.06H32.447z"/>
	<path  d="M24.272,45.654h-3.766c-0.406,0-0.734,0.329-0.734,0.734c0,0.406,0.328,0.735,0.734,0.735h3.766
		c0.405,0,0.734-0.329,0.734-0.735C25.007,45.983,24.678,45.654,24.272,45.654z"/>
	<path  d="M16.741,45.654h-2.205v-2.205c0-0.405-0.329-0.734-0.734-0.734c-0.406,0-0.735,0.329-0.735,0.734v2.939
		c0,0.406,0.329,0.735,0.735,0.735h2.939c0.406,0,0.734-0.329,0.734-0.735C17.476,45.983,17.147,45.654,16.741,45.654z"/>
	<path  d="M13.802,15.773c0.405,0,0.734-0.329,0.734-0.734V9.356c0-0.406-0.329-0.735-0.734-0.735
		c-0.406,0-0.735,0.329-0.735,0.735v5.683C13.066,15.444,13.396,15.773,13.802,15.773z"/>
	<path  d="M13.802,38.502c0.405,0,0.734-0.329,0.734-0.734v-5.683c0-0.405-0.329-0.735-0.734-0.735
		c-0.406,0-0.735,0.33-0.735,0.735v5.683C13.066,38.173,13.396,38.502,13.802,38.502z"/>
	<path  d="M13.802,4.409c0.405,0,0.734-0.329,0.734-0.734v-2.94C14.536,0.329,14.207,0,13.802,0
		c-0.406,0-0.735,0.329-0.735,0.734v2.94C13.066,4.08,13.396,4.409,13.802,4.409z"/>
	<path  d="M16.741,19.08h-2.939c-0.406,0-0.735,0.329-0.735,0.735c0,0.172,0.062,0.327,0.16,0.452
		c-0.099,0.126-0.16,0.281-0.16,0.453v5.682c0,0.406,0.329,0.735,0.735,0.735c0.405,0,0.734-0.329,0.734-0.735v-5.682
		c0-0.059-0.008-0.115-0.021-0.17h2.227c0.406,0,0.734-0.329,0.734-0.735S17.147,19.08,16.741,19.08z"/>
	<path  d="M24.272,19.08h-3.766c-0.406,0-0.734,0.329-0.734,0.735s0.328,0.735,0.734,0.735h3.766
		c0.405,0,0.734-0.329,0.734-0.735S24.678,19.08,24.272,19.08z"/>
</g>
</svg>
