<?xml version="1.0" encoding="utf-8"?>
<!-- Generator: Adobe Illustrator 16.0.3, SVG Export Plug-In . SVG Version: 6.00 Build 0)  -->
<!DOCTYPE svg PUBLIC "-//W3C//DTD SVG 1.1//EN" "http://www.w3.org/Graphics/SVG/1.1/DTD/svg11.dtd">
<svg version="1.1" id="Layer_1" xmlns="http://www.w3.org/2000/svg" xmlns:xlink="http://www.w3.org/1999/xlink" x="0px" y="0px"
	 width="60px" height="60px" viewBox="0 0 60 60" enable-background="new 0 0 60 60" xml:space="preserve">
<g>
	<path  d="M52.441,34.877h-2.494c-0.014-3.687-3.016-6.682-6.706-6.682H31.469v-3.072h10.396
		c2.276,0,4.128-1.852,4.128-4.127V4.127C45.993,1.852,44.142,0,41.865,0H26.131c-2.275,0-4.127,1.852-4.127,4.127v16.869
		c0,2.275,1.852,4.127,4.127,4.127h2.242v3.072H16.486c-3.689,0-6.692,2.995-6.706,6.682H7.559c-2.275,0-4.127,1.852-4.127,4.128
		v16.868C3.432,58.148,5.283,60,7.559,60h15.734c2.276,0,4.128-1.852,4.128-4.127V39.005c0-2.276-1.852-4.128-4.128-4.128H12.876
		c0.014-1.979,1.627-3.587,3.61-3.587h26.755c1.983,0,3.597,1.607,3.61,3.587H36.707c-2.276,0-4.128,1.852-4.128,4.128v16.868
		c0,2.275,1.852,4.127,4.128,4.127h15.734c2.275,0,4.127-1.852,4.127-4.127V39.005C56.568,36.729,54.717,34.877,52.441,34.877z
		 M25.099,20.996V4.127c0-0.569,0.463-1.032,1.032-1.032h15.734c0.569,0,1.032,0.463,1.032,1.032v16.869
		c0,0.568-0.463,1.031-1.032,1.031H26.131C25.562,22.027,25.099,21.564,25.099,20.996z M24.325,39.005v16.868
		c0,0.568-0.463,1.031-1.032,1.031H7.559c-0.569,0-1.032-0.463-1.032-1.031V39.005c0-0.569,0.463-1.032,1.032-1.032h15.734
		C23.862,37.973,24.325,38.436,24.325,39.005z M53.474,55.873c0,0.568-0.463,1.031-1.032,1.031H36.707
		c-0.569,0-1.032-0.463-1.032-1.031V39.005c0-0.569,0.463-1.032,1.032-1.032h15.734c0.569,0,1.032,0.463,1.032,1.032V55.873z"/>
	<path  d="M8.935,43.828h12.381c0.428,0,0.774-0.347,0.774-0.774c0-0.427-0.347-0.773-0.774-0.773H8.935
		c-0.428,0-0.773,0.347-0.773,0.773C8.161,43.481,8.507,43.828,8.935,43.828z"/>
	<path  d="M50.464,42.28H38.083c-0.428,0-0.774,0.347-0.774,0.773c0,0.428,0.347,0.774,0.774,0.774h12.381
		c0.428,0,0.773-0.347,0.773-0.774C51.237,42.627,50.892,42.28,50.464,42.28z"/>
	<path  d="M40.317,7.199H27.937c-0.428,0-0.773,0.346-0.773,0.774c0,0.427,0.346,0.774,0.773,0.774h12.381
		c0.428,0,0.774-0.347,0.774-0.774C41.092,7.545,40.745,7.199,40.317,7.199z"/>
</g>
</svg>
