<?xml version="1.0" encoding="utf-8"?>
<!-- Generator: Adobe Illustrator 16.0.3, SVG Export Plug-In . SVG Version: 6.00 Build 0)  -->
<!DOCTYPE svg PUBLIC "-//W3C//DTD SVG 1.1//EN" "http://www.w3.org/Graphics/SVG/1.1/DTD/svg11.dtd">
<svg version="1.1" id="Layer_1" xmlns="http://www.w3.org/2000/svg" xmlns:xlink="http://www.w3.org/1999/xlink" x="0px" y="0px"
	 width="127.999px" height="128px" viewBox="0 0 127.999 128" style="enable-background:new 0 0 127.999 128;" xml:space="preserve"
	>
<style type="text/css">
<![CDATA[
	.st0{;}
]]>
</style>
<g>
	<path class="st0" d="M101.72,22.807C99.447,16.685,92.822,6.8,73.864,9.296l-0.522,0.001c-0.089,0-0.177,0.007-0.265,0.021
		c-1.222,0.183-2.45,0.444-3.653,0.777c-0.446,0.086-0.926,0.172-1.426,0.259c-8.996-2.316-15.569-1.521-19.543,2.364
		c-5.897,5.764-3.529,15.94-3.426,16.371c0.146,0.605,0.596,1.094,1.188,1.288c8.64,2.842,15.361,2.682,19.979-0.474
		c4.297-2.938,5.691-7.698,6.118-11.048c9.96-1.823,17.021,0.863,19.876,7.567c2.873,6.751,0.578,15.503-3.243,18.253
		c-1.461,1.06-3.133,1.956-4.957,2.744c3.874-5.906,5.172-11.592,5.237-11.883c0.146-0.661-0.092-1.349-0.614-1.779
		c-0.525-0.431-1.245-0.531-1.865-0.259c-24.528,10.73-54.841-0.158-55.143-0.268c-0.609-0.226-1.286-0.103-1.78,0.312
		c-0.494,0.417-0.728,1.064-0.611,1.7c0.577,3.169,5.584,16.678,18.13,22.574c-2.817,1.116-5.571,2.409-8.237,4.279
		c-6.821,5.249-9.746,9.84-8.941,14.033c1.246,6.502,10.935,9.258,18.009,11.27c0.963,0.274,1.86,0.529,2.641,0.769l3.312,1.04
		v2.942l-11.603,11.602c-0.516,0.515-0.669,1.289-0.391,1.962s0.936,1.111,1.663,1.111h30.863c0.728,0,1.385-0.438,1.663-1.111
		s0.125-1.446-0.391-1.962L64.712,92.534l1.685,0.528c9.703,3.461,13.052,6.999,11.559,12.213c-0.014,0.048-0.025,0.098-0.035,0.146
		c-1.278,6.468-9.245,7.784-14.005,8.57c-0.524,0.086-1.01,0.166-1.445,0.246c-3.969,0.517-6.623,0.717-7.76,0.804
		c-0.226,0.017-0.434,0.032-0.626,0.061c-0.227,0.02-0.447,0.074-0.669,0.195c-0.205,0.104-0.395,0.257-0.574,0.489l1.425,1.102
		h-0.001h0.002l0.054,0.042l-0.099,1.755c0.061,0.004,0.175,0.014,0.344,0.028c1.062,0.093,3.887,0.34,8.279,0.387
		c2.696-0.015,6.388-0.034,10.598-1.116c2.311-0.533,9.972-2.882,11.973-10.732c2.209-5.797-0.011-14.826-6.768-18.689
		c-2.36-1.625-7.87-3.778-12.307-5.513c-0.73-0.286-1.409-0.551-2.011-0.79V65.29c10.462-2.674,21.121-5.809,31.112-12.319
		C101.776,48.843,105.917,34.113,101.72,22.807z M52.538,77.743c-9.601-3.02-9.84-4.644-9.835-4.819
		c0.001-0.021,0.364-2.143,11.422-5.046v12.391l-0.451-0.171c0.012-0.033,0.03-0.062,0.041-0.096
		C54.013,79.053,53.486,78.042,52.538,77.743z M57.199,17.579c0,1.619-1.317,2.936-2.935,2.936c-1.619,0-2.937-1.316-2.937-2.936
		c0-1.618,1.317-2.934,2.937-2.934C55.882,14.646,57.199,15.961,57.199,17.579z"/>
	<path class="st0" d="M37.079,31.675h6.083c0.994,0,1.8-0.806,1.8-1.8s-0.806-1.8-1.8-1.8h-6.083c-0.994,0-1.8,0.806-1.8,1.8
		S36.085,31.675,37.079,31.675z"/>
</g>
</svg>
