<?xml version="1.0" encoding="utf-8"?>
<!-- Generator: Adobe Illustrator 16.0.3, SVG Export Plug-In . SVG Version: 6.00 Build 0)  -->
<!DOCTYPE svg PUBLIC "-//W3C//DTD SVG 1.1//EN" "http://www.w3.org/Graphics/SVG/1.1/DTD/svg11.dtd">
<svg version="1.1" id="Layer_1" xmlns="http://www.w3.org/2000/svg" xmlns:xlink="http://www.w3.org/1999/xlink" x="0px" y="0px"
	 width="127.999px" height="128px" viewBox="0 0 127.999 128" style="enable-background:new 0 0 127.999 128;" xml:space="preserve"
	>
<style type="text/css">
<![CDATA[
	.st0{;}
]]>
</style>
<path class="st0" d="M105.556,12.219l-2.854-2.415c-0.066-0.062-0.136-0.119-0.208-0.174c-0.449-0.358-1-0.556-1.567-0.577
	l-3.491-0.582c-1.111-0.185-2.228,0.341-2.788,1.323l-6.603,11.553l-2.3,1.592c-0.396,0.273-0.711,0.647-0.913,1.084l-0.333,0.719
	H46.664v-8.125c0-1.491-1.208-2.7-2.699-2.7H30.83c-1.491,0-2.7,1.209-2.7,2.7v86.966l-5.195,12.209
	c-0.354,0.834-0.267,1.791,0.232,2.547c0.5,0.756,1.346,1.211,2.252,1.211l55.472,0.017h0.001c0.912,0,1.763-0.461,2.262-1.226
	c0.498-0.764,0.577-1.729,0.209-2.563l-5.611-12.731c-0.431-0.979-1.399-1.611-2.47-1.611h-4.289V91.48H95.91
	c1.492,0,2.7-1.208,2.7-2.699v-6.225c0-1.492-1.208-2.7-2.7-2.7H54.344c-1.492,0-2.7,1.208-2.7,2.7v6.225
	c0,1.491,1.208,2.699,2.7,2.699h5.619v9.953H46.664V38.765h31.329l-9.777,21.078c-0.165,0.356-0.25,0.744-0.25,1.137v3.188
	l-2.209,6.023c-0.362,0.987-0.118,2.095,0.626,2.84l3.452,3.451c0.553,0.552,1.315,0.811,2.101,0.754l4.424,0.413
	c0.084,0.008,0.169,0.012,0.252,0.012c0.965,0,1.865-0.519,2.348-1.368l3.165-5.578l2.433-2.062c0.3-0.254,0.541-0.57,0.705-0.926
	l16.58-35.837c0.201-0.437,0.283-0.919,0.236-1.397l-0.273-2.784l4.544-12.506C106.734,14.14,106.418,12.949,105.556,12.219z"/>
</svg>
