<?xml version="1.0" encoding="utf-8"?>
<!-- Generator: Adobe Illustrator 16.0.3, SVG Export Plug-In . SVG Version: 6.00 Build 0)  -->
<!DOCTYPE svg PUBLIC "-//W3C//DTD SVG 1.1//EN" "http://www.w3.org/Graphics/SVG/1.1/DTD/svg11.dtd">
<svg version="1.1" id="Layer_1" xmlns="http://www.w3.org/2000/svg" xmlns:xlink="http://www.w3.org/1999/xlink" x="0px" y="0px"
	 width="127.999px" height="128px" viewBox="0 0 127.999 128" style="enable-background:new 0 0 127.999 128;" xml:space="preserve"
	>
<style type="text/css">
<![CDATA[
	.st0{;}
]]>
</style>
<path class="st0" d="M122.502,42.769c-1.126-1.126-2.916-1.158-4.095-0.12L86.23,10.473c1.157-1.174,1.154-3.061-0.013-4.227
	c-1.172-1.172-3.07-1.172-4.242,0c-11.031,11.031-8.25,23.49-3.82,35.088c-10.142-4.11-22.565-8.705-34.043,2.775
	c-10.083,10.081-8.062,22.005-4.173,33.452C28.488,73.506,17.07,71.15,7.679,80.543c-1.172,1.172-1.172,3.071,0,4.242
	c1.172,1.172,3.072,1.172,4.242,0c0.147-0.146,0.297-0.281,0.445-0.421l32.103,32.104c-0.303,0.351-0.611,0.7-0.954,1.044
	c-1.172,1.171-1.172,3.07,0,4.242c0.586,0.586,1.354,0.879,2.121,0.879s1.535-0.293,2.121-0.879
	c9.896-9.895,6.685-22.196,2.348-34.01c5.805,2.06,11.797,3.763,17.633,3.763c6.176,0,12.177-1.908,17.586-7.318
	c10.098-10.096,7.494-21.87,3.298-32.901c5.041,1.866,10.438,3.409,15.861,3.409c6.139,0,12.309-1.975,18.02-7.686
	C123.674,45.84,123.674,43.94,122.502,42.769z M113.361,46.491L82.416,15.544c0.505-0.951,1.114-1.889,1.83-2.814l31.899,31.899
	C115.231,45.352,114.305,45.976,113.361,46.491z M108.619,48.27L80.688,20.338c0.125-0.607,0.279-1.211,0.47-1.811l29.258,29.26
	C109.822,47.982,109.224,48.139,108.619,48.27z M92.145,46.18l-9.214-9.214c-0.384-1.079-0.739-2.15-1.059-3.215l13.446,13.445
	C94.278,46.893,93.223,46.557,92.145,46.18z M80.615,47.451c0.431,1.043,0.855,2.074,1.269,3.094l-3.191-3.191
	c0.577-0.158,1.096-0.485,1.49-0.951C80.327,46.753,80.472,47.104,80.615,47.451z M72.772,45.677l11.653,11.651
	c0.312,0.945,0.594,1.88,0.842,2.803L69.743,44.606C70.729,44.93,71.737,45.288,72.772,45.677z M64.053,43.158L86.26,65.365
	c0.109,1.126,0.14,2.233,0.075,3.322L60.507,42.86C61.661,42.855,62.841,42.961,64.053,43.158z M84.33,75.698L53.27,44.638
	c1.137-0.599,2.286-1.03,3.454-1.318L85.726,72.32C85.399,73.468,84.942,74.594,84.33,75.698z M81.081,79.946
	c-0.305,0.305-0.612,0.595-0.923,0.87l-32.12-32.119c0.109-0.114,0.203-0.231,0.316-0.345c0.776-0.776,1.554-1.459,2.332-2.056
	l31.936,31.936C82.158,78.811,81.646,79.381,81.081,79.946z M74.874,84.147L44.497,53.771c0.441-0.942,0.972-1.863,1.611-2.761
	l31.64,31.639C76.811,83.252,75.852,83.748,74.874,84.147z M66.939,85.494L42.81,61.365c0.027-1.541,0.214-3.028,0.574-4.466
	l28.225,28.225C70.09,85.423,68.532,85.536,66.939,85.494z M57.896,83.963L43.943,70.01c-0.35-1.4-0.623-2.761-0.818-4.087
	L62.17,84.967C60.766,84.708,59.341,84.367,57.896,83.963z M45.855,76.321c-0.027-0.08-0.052-0.157-0.079-0.237l5.827,5.827
	c-1.795-0.647-3.608-1.337-5.437-2.033c-0.358-0.137-0.718-0.273-1.077-0.41C45.911,78.682,46.252,77.466,45.855,76.321z
	 M24.045,80.031l24.153,24.151c0.075,0.949,0.089,1.865,0.048,2.754L21.447,80.138C22.297,80.043,23.164,80.013,24.045,80.031z
	 M45.524,92.809c0.758,2.239,1.378,4.332,1.839,6.297L28.834,80.577c1.957,0.381,3.979,0.935,6.062,1.604L45.524,92.809z
	 M14.742,82.498c1.045-0.675,2.125-1.199,3.239-1.584l29.699,29.699c-0.329,1.177-0.816,2.297-1.444,3.379L14.742,82.498z
	 M44.216,87.258l-2.743-2.744c0.845,0.319,1.697,0.644,2.559,0.972c0.358,0.137,0.719,0.273,1.08,0.411
	C44.687,86.262,44.383,86.733,44.216,87.258z M86.161,45.162c-0.17-0.412-0.339-0.822-0.508-1.232l1.951,1.952
	c-0.315,0.218-0.59,0.497-0.806,0.829C86.586,46.192,86.373,45.676,86.161,45.162z M100.78,48.416L80.598,28.234
	c-0.206-1.365-0.312-2.715-0.303-4.047l24.5,24.5C103.488,48.708,102.15,48.613,100.78,48.416z"/>
</svg>
