<?xml version="1.0" encoding="utf-8"?>
<!-- Generator: Adobe Illustrator 16.0.3, SVG Export Plug-In . SVG Version: 6.00 Build 0)  -->
<!DOCTYPE svg PUBLIC "-//W3C//DTD SVG 1.1//EN" "http://www.w3.org/Graphics/SVG/1.1/DTD/svg11.dtd">
<svg version="1.1" id="Layer_1" xmlns="http://www.w3.org/2000/svg" xmlns:xlink="http://www.w3.org/1999/xlink" x="0px" y="0px"
	 width="127.999px" height="128px" viewBox="0 0 127.999 128" style="enable-background:new 0 0 127.999 128;" xml:space="preserve"
	>
<style type="text/css">
<![CDATA[
	.st0{;}
]]>
</style>
<path class="st0" d="M111.105,74.874c0-5.509-4.482-9.991-9.991-9.991s-9.991,4.482-9.991,9.991c0,4.276,2.706,7.923,6.491,9.346
	v7.187c0,10.842-8.82,19.662-19.661,19.662s-19.661-8.82-19.661-19.662V75.972c18.485-1.768,32.993-17.379,32.993-36.32v-26.22
	c0-1.933-1.567-3.5-3.5-3.5h-4.916c-1.933,0-3.5,1.567-3.5,3.5s1.567,3.5,3.5,3.5h1.416v22.72c0,16.262-13.23,29.492-29.493,29.492
	s-29.494-13.23-29.494-29.492v-22.72h1.416c1.933,0,3.5-1.567,3.5-3.5s-1.567-3.5-3.5-3.5h-4.916c-1.933,0-3.5,1.567-3.5,3.5v26.22
	c0,18.941,14.508,34.553,32.994,36.32v15.435c0,14.701,11.96,26.662,26.661,26.662s26.661-11.961,26.661-26.662V84.22
	C108.399,82.797,111.105,79.15,111.105,74.874z"/>
</svg>
