<?xml version="1.0" encoding="utf-8"?>
<!-- Generator: Adobe Illustrator 16.0.3, SVG Export Plug-In . SVG Version: 6.00 Build 0)  -->
<!DOCTYPE svg PUBLIC "-//W3C//DTD SVG 1.1//EN" "http://www.w3.org/Graphics/SVG/1.1/DTD/svg11.dtd">
<svg version="1.1" id="Layer_1" xmlns="http://www.w3.org/2000/svg" xmlns:xlink="http://www.w3.org/1999/xlink" x="0px" y="0px"
	 width="128px" height="128px" viewBox="0 0 128 128" style="enable-background:new 0 0 128 128;" xml:space="preserve">
<style type="text/css">
<![CDATA[
	.st0{;}
]]>
</style>
<g>
	<path class="st0" d="M80.488,71.334c-1.63,0-3.098-0.989-3.708-2.501l-2.712-6.706l-8.144,22.001
		c-0.583,1.576-2.085,2.611-3.749,2.611c-0.08,0-0.16-0.002-0.241-0.007c-1.758-0.105-3.241-1.349-3.651-3.062L52.474,59.4
		l-2.943,10.073c-0.498,1.705-2.062,2.878-3.839,2.878H20.669l9.008,8.722c13.66,13.13,31.308,29.932,31.484,30.1
		c0.579,0.552,1.323,0.827,2.068,0.827s1.491-0.276,2.07-0.829c0.312-0.297,28.896-27.566,41.561-39.837H80.488z"/>
	<path class="st0" d="M42.693,64.352l6.325-21.653c0.508-1.741,2.126-2.914,3.938-2.877c1.813,0.045,3.369,1.304,3.792,3.068
		l6.249,26.104l7.156-19.334c0.573-1.549,2.04-2.586,3.691-2.611c0.021,0,0.04,0,0.06,0c1.629,0,3.097,0.987,3.708,2.501
		l5.573,13.785h30.617c2.892-4.773,4.488-10.543,4.488-16.591C118.291,29.791,105.268,16,89.261,16
		c-11.398,0-21.283,6.992-26.031,17.139C58.483,22.992,48.599,16,37.202,16c-16.007,0-29.03,13.791-29.03,30.743
		c0,6.495,1.828,12.662,5.124,17.608H42.693z"/>
</g>
</svg>
