<?xml version="1.0" encoding="utf-8"?>
<!-- Generator: Adobe Illustrator 16.0.3, SVG Export Plug-In . SVG Version: 6.00 Build 0)  -->
<!DOCTYPE svg PUBLIC "-//W3C//DTD SVG 1.1//EN" "http://www.w3.org/Graphics/SVG/1.1/DTD/svg11.dtd">
<svg version="1.1" id="Layer_1" xmlns="http://www.w3.org/2000/svg" xmlns:xlink="http://www.w3.org/1999/xlink" x="0px" y="0px"
	 width="60px" height="60px" viewBox="0 0 60 60" enable-background="new 0 0 60 60" xml:space="preserve">
<g>
	<path  d="M39.538,21.425c0-0.429-0.171-0.84-0.474-1.143l-8.854-8.852c-0.461-0.462-1.156-0.602-1.761-0.351
		c-0.604,0.25-0.997,0.839-0.997,1.493v13.804l-6.095-6.095c-0.631-0.631-1.653-0.631-2.285,0c-0.631,0.631-0.631,1.654,0,2.285
		l7.71,7.711l-7.71,7.71c-0.631,0.631-0.631,1.654,0,2.285c0.315,0.315,0.729,0.474,1.143,0.474s0.827-0.158,1.143-0.474
		l6.095-6.095v13.805c0,0.653,0.393,1.243,0.997,1.493c0.2,0.083,0.409,0.123,0.618,0.123c0.421,0,0.834-0.164,1.143-0.474
		l8.854-8.853c0.303-0.303,0.474-0.714,0.474-1.143s-0.171-0.84-0.474-1.143l-7.711-7.71l7.711-7.711
		C39.367,22.265,39.538,21.854,39.538,21.425z M30.685,44.082v-9.903l4.952,4.952L30.685,44.082z M30.685,26.377v-9.903l4.952,4.951
		L30.685,26.377z"/>
	<path  d="M30,0C13.457,0,0,13.458,0,29.999C0,46.541,13.457,60,30,60c16.541,0,30-13.459,30-30.001
		C60,13.458,46.541,0,30,0z M30,56.768c-14.76,0-26.769-12.008-26.769-26.769C3.231,15.239,15.24,3.231,30,3.231
		s26.768,12.008,26.768,26.768C56.768,44.76,44.76,56.768,30,56.768z"/>
</g>
</svg>
