<?xml version="1.0" encoding="utf-8"?>
<!-- Generator: Adobe Illustrator 16.0.3, SVG Export Plug-In . SVG Version: 6.00 Build 0)  -->
<!DOCTYPE svg PUBLIC "-//W3C//DTD SVG 1.1//EN" "http://www.w3.org/Graphics/SVG/1.1/DTD/svg11.dtd">
<svg version="1.1" id="Layer_1" xmlns="http://www.w3.org/2000/svg" xmlns:xlink="http://www.w3.org/1999/xlink" x="0px" y="0px"
	 width="60px" height="60px" viewBox="0 0 60 60" enable-background="new 0 0 60 60" xml:space="preserve">
<g>
	<path  d="M30.465,40.606c-3.472,0-6.295,2.824-6.295,6.296s2.823,6.296,6.295,6.296s6.296-2.824,6.296-6.296
		S33.937,40.606,30.465,40.606z M30.465,49.967c-1.689,0-3.063-1.375-3.063-3.064s1.374-3.064,3.063-3.064s3.064,1.375,3.064,3.064
		S32.154,49.967,30.465,49.967z"/>
	<path  d="M30.464,32.615c-3.132,0-6.159,1.143-8.525,3.22c-0.671,0.588-0.737,1.609-0.148,2.28
		c0.319,0.363,0.766,0.55,1.215,0.55c0.379,0,0.759-0.132,1.065-0.401c1.776-1.559,4.047-2.417,6.394-2.417
		c2.248,0,4.439,0.785,6.171,2.211c0.689,0.568,1.708,0.468,2.274-0.22c0.567-0.689,0.469-1.708-0.22-2.274
		C36.381,33.661,33.459,32.615,30.464,32.615z"/>
	<path  d="M30.463,22.714c-5.54,0-10.815,2.094-14.854,5.896c-0.649,0.612-0.681,1.635-0.068,2.285
		c0.318,0.337,0.747,0.508,1.177,0.508c0.397,0,0.796-0.146,1.107-0.439c3.437-3.236,7.926-5.019,12.639-5.019
		c4.493,0,8.824,1.638,12.196,4.61c0.67,0.59,1.691,0.525,2.281-0.144c0.59-0.67,0.526-1.69-0.144-2.281
		C40.834,24.638,35.744,22.714,30.463,22.714z"/>
	<path  d="M51.867,19.527c-5.917-5.217-13.519-8.09-21.405-8.09c-8.273,0-16.15,3.128-22.181,8.806
		c-0.65,0.612-0.681,1.635-0.069,2.284c0.318,0.338,0.747,0.508,1.178,0.508c0.397,0,0.795-0.146,1.107-0.439
		c5.429-5.111,12.519-7.926,19.965-7.926c7.1,0,13.942,2.586,19.268,7.281c0.67,0.591,1.691,0.526,2.28-0.143
		C52.601,21.139,52.536,20.117,51.867,19.527z"/>
	<path  d="M30,0C13.458,0,0,13.458,0,29.999C0,46.541,13.458,60,30,60s30-13.459,30-30.001C60,13.458,46.542,0,30,0z
		 M30,56.768c-14.76,0-26.768-12.008-26.768-26.769C3.232,15.239,15.24,3.231,30,3.231s26.768,12.008,26.768,26.768
		C56.768,44.76,44.76,56.768,30,56.768z"/>
</g>
</svg>
