<?xml version="1.0" encoding="utf-8"?>
<!-- Generator: Adobe Illustrator 16.0.3, SVG Export Plug-In . SVG Version: 6.00 Build 0)  -->
<!DOCTYPE svg PUBLIC "-//W3C//DTD SVG 1.1//EN" "http://www.w3.org/Graphics/SVG/1.1/DTD/svg11.dtd">
<svg version="1.1" id="Layer_1" xmlns="http://www.w3.org/2000/svg" xmlns:xlink="http://www.w3.org/1999/xlink" x="0px" y="0px"
	 width="60px" height="60px" viewBox="0 0 60 60" enable-background="new 0 0 60 60" xml:space="preserve">
<g>
	<path  d="M30.504,41.551c-4.547,0-8.246,3.699-8.246,8.247c0,4.547,3.699,8.247,8.246,8.247
		c4.548,0,8.248-3.7,8.248-8.247C38.752,45.25,35.052,41.551,30.504,41.551z M30.504,54.256c-2.458,0-4.458-2-4.458-4.458
		c0-2.459,2-4.459,4.458-4.459c2.459,0,4.46,2,4.46,4.459C34.964,52.256,32.963,54.256,30.504,54.256z"/>
	<path  d="M30.503,30.702c-4.179,0-8.219,1.526-11.375,4.297c-0.787,0.69-0.865,1.887-0.175,2.673
		c0.374,0.427,0.898,0.645,1.425,0.645c0.443,0,0.889-0.154,1.248-0.47c2.467-2.164,5.618-3.356,8.877-3.356
		c3.12,0,6.162,1.09,8.567,3.07c0.808,0.665,2.001,0.548,2.666-0.259c0.665-0.808,0.549-2.002-0.259-2.666
		C38.396,32.1,34.499,30.702,30.503,30.702z"/>
	<path  d="M30.501,17.263c-7.443,0-14.531,2.813-19.958,7.923c-0.762,0.717-0.798,1.916-0.081,2.678
		c0.373,0.396,0.876,0.596,1.38,0.596c0.466,0,0.933-0.171,1.298-0.515c4.722-4.446,10.887-6.894,17.361-6.894
		c6.174,0,12.124,2.249,16.755,6.332c0.784,0.692,1.982,0.616,2.673-0.168c0.692-0.785,0.617-1.981-0.167-2.674
		C44.438,19.848,37.598,17.263,30.501,17.263z"/>
	<path  d="M59.358,12.862C51.382,5.828,41.133,1.955,30.5,1.955c-11.153,0-21.773,4.216-29.904,11.872
		c-0.762,0.717-0.798,1.916-0.081,2.678c0.373,0.396,0.876,0.596,1.38,0.596c0.466,0,0.933-0.171,1.298-0.516
		C10.618,9.594,20.315,5.743,30.5,5.743c9.71,0,19.068,3.537,26.353,9.96c0.785,0.692,1.982,0.617,2.674-0.168
		C60.218,14.751,60.143,13.554,59.358,12.862z"/>
</g>
</svg>
