<?xml version="1.0" encoding="utf-8"?>
<!-- Generator: Adobe Illustrator 16.0.3, SVG Export Plug-In . SVG Version: 6.00 Build 0)  -->
<!DOCTYPE svg PUBLIC "-//W3C//DTD SVG 1.1//EN" "http://www.w3.org/Graphics/SVG/1.1/DTD/svg11.dtd">
<svg version="1.1" id="Layer_1" xmlns="http://www.w3.org/2000/svg" xmlns:xlink="http://www.w3.org/1999/xlink" x="0px" y="0px"
	 width="60px" height="60px" viewBox="0 0 60 60" enable-background="new 0 0 60 60" xml:space="preserve">
<path  d="M51.341,37.684c-2.886,0-5.439,1.424-7.015,3.601L22.395,30.612c0.387-1.149,0.6-2.379,0.6-3.657
	c0-1.255-0.205-2.464-0.578-3.595l16.939-8.125c1.15,1.403,2.896,2.302,4.849,2.302c3.457,0,6.27-2.812,6.27-6.27
	c0-3.456-2.812-6.269-6.27-6.269s-6.269,2.812-6.269,6.269c0,0.445,0.048,0.88,0.137,1.3l-16.941,8.125
	c-2.053-3.147-5.604-5.234-9.635-5.234C5.156,15.458,0,20.615,0,26.955s5.156,11.497,11.496,11.497c4.008,0,7.541-2.062,9.6-5.18
	l21.931,10.672c-0.221,0.763-0.345,1.565-0.345,2.398c0,4.774,3.885,8.658,8.659,8.658S60,51.117,60,46.343
	C60,41.567,56.115,37.684,51.341,37.684z M44.204,7.959c1.824,0,3.309,1.484,3.309,3.309s-1.484,3.309-3.309,3.309
	s-3.309-1.484-3.309-3.309S42.38,7.959,44.204,7.959z M11.496,35.491c-4.707,0-8.536-3.829-8.536-8.536s3.829-8.536,8.536-8.536
	s8.537,3.829,8.537,8.536S16.203,35.491,11.496,35.491z M51.341,52.041c-3.143,0-5.699-2.557-5.699-5.698
	c0-3.143,2.557-5.699,5.699-5.699c3.142,0,5.698,2.557,5.698,5.699C57.039,49.484,54.482,52.041,51.341,52.041z"/>
</svg>
