<?xml version="1.0" encoding="utf-8"?>
<!-- Generator: Adobe Illustrator 16.0.3, SVG Export Plug-In . SVG Version: 6.00 Build 0)  -->
<!DOCTYPE svg PUBLIC "-//W3C//DTD SVG 1.1//EN" "http://www.w3.org/Graphics/SVG/1.1/DTD/svg11.dtd">
<svg version="1.1" id="Layer_1" xmlns="http://www.w3.org/2000/svg" xmlns:xlink="http://www.w3.org/1999/xlink" x="0px" y="0px"
	 width="60px" height="60px" viewBox="0 0 60 60" enable-background="new 0 0 60 60" xml:space="preserve">
<g>
	<path  d="M18.711,26.84c-1.871,0-3.393,1.522-3.393,3.394s1.521,3.393,3.393,3.393s3.394-1.521,3.394-3.393
		S20.582,26.84,18.711,26.84z M18.711,32.14c-1.052,0-1.907-0.854-1.907-1.906s0.855-1.907,1.907-1.907s1.907,0.855,1.907,1.907
		S19.763,32.14,18.711,32.14z"/>
	<path  d="M44.582,30.233c0-1.871-1.522-3.394-3.394-3.394s-3.394,1.522-3.394,3.394s1.522,3.393,3.394,3.393
		S44.582,32.104,44.582,30.233z M41.188,32.14c-1.052,0-1.907-0.854-1.907-1.906s0.855-1.907,1.907-1.907s1.907,0.855,1.907,1.907
		S42.24,32.14,41.188,32.14z"/>
	<path  d="M29.966,26.84c-1.871,0-3.394,1.522-3.394,3.394s1.522,3.393,3.394,3.393s3.394-1.521,3.394-3.393
		S31.837,26.84,29.966,26.84z M29.966,32.14c-1.052,0-1.907-0.854-1.907-1.906s0.855-1.907,1.907-1.907s1.907,0.855,1.907,1.907
		S31.018,32.14,29.966,32.14z"/>
	<path  d="M3.588,30l13.479-13.479c0.581-0.58,0.581-1.521,0-2.102c-0.58-0.58-1.521-0.58-2.101,0l-14.53,14.53
		c-0.581,0.58-0.581,1.521,0,2.102l14.53,14.53c0.29,0.29,0.67,0.436,1.051,0.436c0.38,0,0.76-0.146,1.05-0.436
		c0.581-0.58,0.581-1.521,0-2.102L3.588,30z"/>
	<path  d="M59.564,28.949l-14.53-14.53c-0.58-0.58-1.521-0.58-2.102,0c-0.58,0.58-0.58,1.521,0,2.102L56.412,30
		L42.933,43.479c-0.58,0.58-0.58,1.521,0,2.102c0.29,0.29,0.671,0.436,1.051,0.436c0.381,0,0.761-0.146,1.051-0.436l14.53-14.53
		C60.145,30.471,60.145,29.529,59.564,28.949z"/>
</g>
</svg>
