<?xml version="1.0" encoding="utf-8"?>
<!-- Generator: Adobe Illustrator 16.0.3, SVG Export Plug-In . SVG Version: 6.00 Build 0)  -->
<!DOCTYPE svg PUBLIC "-//W3C//DTD SVG 1.1//EN" "http://www.w3.org/Graphics/SVG/1.1/DTD/svg11.dtd">
<svg version="1.1" id="Layer_1" xmlns="http://www.w3.org/2000/svg" xmlns:xlink="http://www.w3.org/1999/xlink" x="0px" y="0px"
	 width="60px" height="60px" viewBox="0 0 60 60" enable-background="new 0 0 60 60" xml:space="preserve">
<g>
	<path  d="M59.162,42.747c-3.061-1.444-4.629-2.265-5.566-2.756c-0.318-0.166-0.574-0.299-0.801-0.408
		c0.322-0.625,0.508-1.33,0.508-2.08c0-0.038-0.002-0.076-0.005-0.114l-0.951-12.18c-0.04-2.399-2.3-4.49-4.872-4.49H27.886
		c-2.573,0-4.832,2.091-4.872,4.49l-0.069,0.881c-0.231-0.502-0.735-0.853-1.325-0.853h-0.352c-0.117-0.03-0.238-0.051-0.365-0.051
		H7.853c-0.446,0-0.812-0.353-0.836-0.795l0.705-9.026c0.003-0.038,0.005-0.076,0.005-0.114c0-0.398,0.562-0.836,1.073-0.836h14.571
		c0.512,0,1.074,0.438,1.074,0.836c0,0.038,0.001,0.076,0.004,0.114l0.32,4.101c0.063,0.806,0.77,1.413,1.572,1.344
		c0.806-0.062,1.407-0.767,1.345-1.572l-0.316-4.052c-0.041-1.977-1.892-3.696-3.999-3.696H8.8c-2.106,0-3.958,1.72-3.998,3.696
		l-0.707,9.049c-0.003,0.038-0.004,0.075-0.004,0.113c0,0.595,0.143,1.155,0.389,1.656c-0.648,0.361-1.747,0.963-3.669,1.92
		C0.314,28.173,0,28.68,0,29.234v0.319c0,1.254,0.562,3.357,4.316,3.357h16.586c0.809,0,1.463-0.654,1.463-1.462
		c0-0.809-0.654-1.463-1.463-1.463H4.316c-0.447,0-0.754-0.031-0.96-0.069c1.472-0.754,2.312-1.226,2.811-1.505
		c0.188-0.106,0.368-0.207,0.471-0.26c0.03,0.001,0.062,0.002,0.1,0.003c0.12,0.004,0.266,0.008,0.452,0.008h6.131l-1.214,0.87
		c-0.173,0.123-0.245,0.344-0.181,0.545c0.064,0.202,0.252,0.339,0.464,0.339h7.581c0.212,0,0.399-0.137,0.465-0.339
		c0.064-0.201-0.009-0.422-0.181-0.545l-1.214-0.87h2.578c0.506,0,0.952-0.258,1.215-0.648l-0.771,9.874
		c-0.003,0.038-0.005,0.076-0.005,0.114c0,0.889,0.26,1.717,0.703,2.419c-0.033,0.019-0.062,0.034-0.096,0.053
		c-0.813,0.457-2.327,1.308-5.296,2.786c-0.497,0.248-0.811,0.755-0.811,1.31v0.429c0,2.661,1.782,4.011,5.299,4.011h32.845
		c3.516,0,5.298-1.35,5.298-4.011V44.07C60,43.504,59.674,42.989,59.162,42.747z M13.907,28.941l0.061-0.044h4.425l0.061,0.044
		H13.907z M25.935,25.387c0.003-0.038,0.004-0.076,0.004-0.114c0-0.821,0.964-1.628,1.947-1.628h19.589
		c0.983,0,1.947,0.807,1.947,1.628c0,0.038,0.001,0.076,0.004,0.114l0.951,12.164c-0.025,0.875-0.746,1.58-1.628,1.58H26.611
		c-0.882,0-1.603-0.705-1.628-1.58L25.935,25.387z M54.702,45.585H21.857c-1.699,0-2.182-0.283-2.319-0.64
		c2.472-1.247,3.808-1.997,4.559-2.419c0.332-0.187,0.646-0.362,0.768-0.414c0.006,0,0.011,0,0.017,0
		c0.064,0.001,0.149,0.002,0.244,0.004c0.158,0.005,0.35,0.01,0.595,0.01h24.69c0.244,0,0.436-0.005,0.594-0.01
		c0.089-0.002,0.165-0.004,0.232-0.004c0.025,0,0.048-0.001,0.047-0.003c0.108,0.031,0.502,0.236,0.956,0.475
		c0.86,0.449,2.241,1.172,4.773,2.381C56.865,45.312,56.369,45.585,54.702,45.585z"/>
	<path  d="M41.303,42.587c-0.087-0.073-0.196-0.112-0.311-0.112h-6.37c-0.113,0-0.223,0.039-0.311,0.112l-1.91,1.578
		c-0.158,0.131-0.218,0.347-0.148,0.541c0.069,0.193,0.253,0.322,0.459,0.322h10.191c0.206,0,0.389-0.129,0.459-0.322
		c0.069-0.194,0.01-0.41-0.148-0.541L41.303,42.587z M34.067,44.053l0.73-0.604h6.02l0.73,0.604H34.067z"/>
</g>
</svg>
