<?xml version="1.0" encoding="utf-8"?>
<!-- Generator: Adobe Illustrator 16.0.3, SVG Export Plug-In . SVG Version: 6.00 Build 0)  -->
<!DOCTYPE svg PUBLIC "-//W3C//DTD SVG 1.1//EN" "http://www.w3.org/Graphics/SVG/1.1/DTD/svg11.dtd">
<svg version="1.1" id="Layer_1" xmlns="http://www.w3.org/2000/svg" xmlns:xlink="http://www.w3.org/1999/xlink" x="0px" y="0px"
	 width="60px" height="60px" viewBox="0 0 60 60" enable-background="new 0 0 60 60" xml:space="preserve">
<path  d="M53.932,47.027c-1.297,0-2.496,0.412-3.483,1.107L40.636,40c1.011-1.658,1.604-3.597,1.604-5.676
	c0-5.494-4.071-10.044-9.354-10.821V12.752c2.573-0.703,4.473-3.056,4.473-5.849c0-3.346-2.723-6.067-6.068-6.067
	c-3.347,0-6.069,2.722-6.069,6.067c0,2.793,1.899,5.146,4.473,5.849v10.751c-5.282,0.777-9.354,5.327-9.354,10.821
	c0,1.876,0.475,3.642,1.31,5.187L9.805,48.324c-1.031-0.81-2.327-1.297-3.736-1.297C2.722,47.027,0,49.75,0,53.097
	c0,3.346,2.722,6.067,6.068,6.067c3.346,0,6.068-2.722,6.068-6.067c0-0.781-0.153-1.525-0.424-2.212l11.843-8.814
	c1.982,1.979,4.717,3.205,7.732,3.205c2.81,0,5.367-1.073,7.309-2.818l9.813,8.136c-0.349,0.764-0.547,1.61-0.547,2.504
	c0,3.346,2.723,6.067,6.068,6.067S60,56.442,60,53.097C60,49.75,57.277,47.027,53.932,47.027z M28.413,6.903
	c0-1.585,1.29-2.875,2.876-2.875c1.585,0,2.875,1.29,2.875,2.875c0,1.586-1.29,2.876-2.875,2.876
	C29.703,9.779,28.413,8.489,28.413,6.903z M6.068,55.972c-1.586,0-2.876-1.29-2.876-2.875c0-1.586,1.29-2.876,2.876-2.876
	c0.942,0,1.777,0.458,2.302,1.16c0.001,0.001,0.001,0.001,0.001,0.001h0.001c0.357,0.48,0.571,1.072,0.571,1.715
	C8.943,54.682,7.653,55.972,6.068,55.972z M31.288,42.082c-4.277,0-7.758-3.48-7.758-7.758s3.48-7.758,7.758-7.758
	c4.278,0,7.759,3.48,7.759,7.758S35.566,42.082,31.288,42.082z M53.932,55.972c-1.586,0-2.876-1.29-2.876-2.875
	c0-1.586,1.29-2.876,2.876-2.876c1.585,0,2.875,1.29,2.875,2.876C56.807,54.682,55.517,55.972,53.932,55.972z"/>
</svg>
