<?xml version="1.0" encoding="utf-8"?>
<!-- Generator: Adobe Illustrator 16.0.3, SVG Export Plug-In . SVG Version: 6.00 Build 0)  -->
<!DOCTYPE svg PUBLIC "-//W3C//DTD SVG 1.1//EN" "http://www.w3.org/Graphics/SVG/1.1/DTD/svg11.dtd">
<svg version="1.1" id="Layer_1" xmlns="http://www.w3.org/2000/svg" xmlns:xlink="http://www.w3.org/1999/xlink" x="0px" y="0px"
	 width="60px" height="60px" viewBox="0 0 60 60" enable-background="new 0 0 60 60" xml:space="preserve">
<path  d="M32.324,30l9.266-9.267c0.642-0.642,0.642-1.682,0-2.323L31.162,7.981c-0.47-0.47-1.177-0.611-1.791-0.356
	c-0.615,0.254-1.015,0.854-1.015,1.518v16.889l-7.622-7.622c-0.643-0.643-1.683-0.643-2.325,0c-0.642,0.642-0.642,1.682,0,2.323
	L27.676,30l-9.267,9.266c-0.642,0.642-0.642,1.683,0,2.324c0.321,0.321,0.742,0.481,1.163,0.481c0.42,0,0.841-0.16,1.162-0.481
	l7.622-7.622v16.889c0,0.665,0.399,1.264,1.015,1.518c0.203,0.085,0.417,0.126,0.628,0.126c0.429,0,0.849-0.167,1.163-0.481
	L41.59,41.59c0.642-0.642,0.642-1.683,0-2.324L32.324,30z M31.644,13.112l6.46,6.459l-6.46,6.461V13.112z M31.644,46.888v-12.92
	l6.46,6.46L31.644,46.888z"/>
</svg>
