<?xml version="1.0" encoding="utf-8"?>
<!-- Generator: Adobe Illustrator 16.0.3, SVG Export Plug-In . SVG Version: 6.00 Build 0)  -->
<!DOCTYPE svg PUBLIC "-//W3C//DTD SVG 1.1//EN" "http://www.w3.org/Graphics/SVG/1.1/DTD/svg11.dtd">
<svg version="1.1" id="Layer_1" xmlns="http://www.w3.org/2000/svg" xmlns:xlink="http://www.w3.org/1999/xlink" x="0px" y="0px"
	 width="60px" height="60px" viewBox="0 0 60 60" enable-background="new 0 0 60 60" xml:space="preserve">
<path  d="M52.51,20.611c2.977,0,5.4-2.422,5.4-5.399s-2.424-5.399-5.4-5.399s-5.4,2.422-5.4,5.399
	c0,0.667,0.127,1.304,0.35,1.894l-9.9,7.369c-1.469-2.215-3.826-3.782-6.559-4.21v-9.681c2.252-0.651,3.904-2.727,3.904-5.185
	c0-2.978-2.424-5.399-5.4-5.399c-2.979,0-5.4,2.422-5.4,5.399c0,2.458,1.652,4.533,3.904,5.185v9.681
	c-2.156,0.337-4.076,1.385-5.512,2.901l-8.674-7.19c0.289-0.662,0.453-1.391,0.453-2.157c0-2.978-2.424-5.4-5.4-5.4
	s-5.4,2.423-5.4,5.4s2.424,5.399,5.4,5.399c1.125,0,2.17-0.347,3.037-0.938l8.883,7.364c-0.604,1.261-0.953,2.666-0.953,4.154
	c0,1.622,0.406,3.15,1.117,4.494l-10.207,7.597c-0.908-0.691-2.035-1.106-3.262-1.106c-2.979,0-5.4,2.422-5.4,5.399
	s2.422,5.4,5.4,5.4c2.977,0,5.4-2.423,5.4-5.4c0-0.667-0.127-1.304-0.35-1.894l10.207-7.598c1.42,1.393,3.266,2.342,5.322,2.649
	v10.076c-2.25,0.651-3.902,2.727-3.902,5.185c0,2.978,2.422,5.399,5.398,5.399c2.979,0,5.4-2.422,5.4-5.399
	c0-2.458-1.652-4.533-3.902-5.185V39.32c1.809-0.296,3.449-1.092,4.775-2.247l8.943,7.416c-0.289,0.661-0.451,1.391-0.451,2.157
	c0,2.978,2.422,5.399,5.4,5.399c2.977,0,5.398-2.422,5.398-5.399s-2.422-5.399-5.398-5.399c-1.127,0-2.172,0.347-3.037,0.938
	l-8.932-7.403c0.883-1.457,1.4-3.159,1.4-4.983c0-0.877-0.127-1.722-0.346-2.529l10.43-7.764
	C50.156,20.195,51.283,20.611,52.51,20.611z M6.469,13.818c0-1.327,1.08-2.407,2.406-2.407s2.406,1.08,2.406,2.407
	s-1.08,2.406-2.406,2.406S6.469,15.146,6.469,13.818z M27.098,5.399c0-1.327,1.08-2.406,2.406-2.406s2.406,1.079,2.406,2.406
	s-1.08,2.406-2.406,2.406S27.098,6.727,27.098,5.399z M7.49,48.589c-1.326,0-2.406-1.08-2.406-2.407s1.08-2.406,2.406-2.406
	s2.406,1.079,2.406,2.406S8.816,48.589,7.49,48.589z M31.975,54.601c0,1.327-1.08,2.406-2.408,2.406
	c-1.326,0-2.406-1.079-2.406-2.406s1.08-2.406,2.406-2.406C30.895,52.194,31.975,53.273,31.975,54.601z M29.504,36.466
	c-3.678,0-6.668-2.991-6.668-6.668c0-3.678,2.99-6.669,6.668-6.669c2.729,0,5.076,1.649,6.107,4.001
	c0.027,0.095,0.062,0.186,0.109,0.275c0.287,0.743,0.451,1.549,0.451,2.393C36.172,33.475,33.18,36.466,29.504,36.466z
	 M52.139,46.646c0,1.327-1.08,2.406-2.406,2.406c-1.328,0-2.408-1.079-2.408-2.406s1.08-2.406,2.408-2.406
	C51.059,44.24,52.139,45.319,52.139,46.646z M52.51,12.806c1.326,0,2.406,1.079,2.406,2.406s-1.08,2.406-2.406,2.406
	s-2.406-1.079-2.406-2.406S51.184,12.806,52.51,12.806z"/>
</svg>
