<?xml version="1.0" encoding="utf-8"?>
<!-- Generator: Adobe Illustrator 16.0.3, SVG Export Plug-In . SVG Version: 6.00 Build 0)  -->
<!DOCTYPE svg PUBLIC "-//W3C//DTD SVG 1.1//EN" "http://www.w3.org/Graphics/SVG/1.1/DTD/svg11.dtd">
<svg version="1.1" id="Layer_1" xmlns="http://www.w3.org/2000/svg" xmlns:xlink="http://www.w3.org/1999/xlink" x="0px" y="0px"
	 width="60px" height="60px" viewBox="0 0 60 60" enable-background="new 0 0 60 60" xml:space="preserve">
<g>
	<path  d="M53.959,13.226l-6.58-12.404C47.109,0.315,46.584,0,46.014,0H13.988c-0.572,0-1.098,0.315-1.365,0.821
		L6.041,13.226c-0.117,0.223-0.18,0.471-0.18,0.724v22.252v17.866c0,3.271,2.662,5.933,5.934,5.933h36.41
		c3.271,0,5.934-2.661,5.934-5.933V36.201V13.949C54.139,13.696,54.076,13.448,53.959,13.226z M51.047,15.765v7.793H8.953v-7.793
		H51.047z M8.953,34.656v-8.008h42.094v8.008H8.953z M8.953,37.747h42.094v8.061H8.953V37.747z M14.918,3.091h30.166l5.082,9.583
		H9.834L14.918,3.091z M48.205,56.909h-36.41c-1.568,0-2.842-1.275-2.842-2.842v-5.169h42.094v5.169
		C51.047,55.634,49.773,56.909,48.205,56.909z"/>
	<path  d="M13.402,38.358c-1.762,0-3.195,1.434-3.195,3.195c0,1.763,1.434,3.196,3.195,3.196s3.195-1.434,3.195-3.196
		C16.598,39.792,15.164,38.358,13.402,38.358z M13.402,43.205c-0.91,0-1.65-0.74-1.65-1.651c0-0.91,0.74-1.649,1.65-1.649
		s1.65,0.739,1.65,1.649C15.053,42.465,14.312,43.205,13.402,43.205z"/>
	<path  d="M35.932,40.232c-0.727,0-1.32,0.593-1.32,1.321c0,0.729,0.594,1.322,1.32,1.322
		c0.73,0,1.322-0.593,1.322-1.322C37.254,40.825,36.662,40.232,35.932,40.232z M35.932,41.846c-0.16,0-0.289-0.131-0.289-0.292
		c0-0.16,0.129-0.291,0.289-0.291c0.162,0,0.293,0.131,0.293,0.291C36.225,41.715,36.094,41.846,35.932,41.846z"/>
	<path  d="M35.932,51.674c-0.727,0-1.32,0.592-1.32,1.321c0,0.729,0.594,1.321,1.32,1.321
		c0.73,0,1.322-0.593,1.322-1.321C37.254,52.266,36.662,51.674,35.932,51.674z M35.932,53.286c-0.16,0-0.289-0.13-0.289-0.291
		s0.129-0.292,0.289-0.292c0.162,0,0.293,0.131,0.293,0.292S36.094,53.286,35.932,53.286z"/>
	<path  d="M41.041,40.232c-0.729,0-1.322,0.593-1.322,1.321c0,0.729,0.594,1.322,1.322,1.322s1.32-0.593,1.32-1.322
		C42.361,40.825,41.77,40.232,41.041,40.232z M41.041,41.846c-0.16,0-0.291-0.131-0.291-0.292c0-0.16,0.131-0.291,0.291-0.291
		s0.291,0.131,0.291,0.291C41.332,41.715,41.201,41.846,41.041,41.846z"/>
	<path  d="M41.041,51.674c-0.729,0-1.322,0.592-1.322,1.321c0,0.729,0.594,1.321,1.322,1.321s1.32-0.593,1.32-1.321
		C42.361,52.266,41.77,51.674,41.041,51.674z M41.041,53.286c-0.16,0-0.291-0.13-0.291-0.291s0.131-0.292,0.291-0.292
		s0.291,0.131,0.291,0.292S41.201,53.286,41.041,53.286z"/>
	<path  d="M46.084,40.232c-0.729,0-1.322,0.593-1.322,1.321c0,0.729,0.594,1.322,1.322,1.322s1.32-0.593,1.32-1.322
		C47.404,40.825,46.812,40.232,46.084,40.232z M46.084,41.846c-0.16,0-0.291-0.131-0.291-0.292c0-0.16,0.131-0.291,0.291-0.291
		s0.291,0.131,0.291,0.291C46.375,41.715,46.244,41.846,46.084,41.846z"/>
	<path  d="M46.084,51.674c-0.729,0-1.322,0.592-1.322,1.321c0,0.729,0.594,1.321,1.322,1.321s1.32-0.593,1.32-1.321
		C47.404,52.266,46.812,51.674,46.084,51.674z M46.084,53.286c-0.16,0-0.291-0.13-0.291-0.291s0.131-0.292,0.291-0.292
		s0.291,0.131,0.291,0.292S46.244,53.286,46.084,53.286z"/>
	<path  d="M13.402,49.799c-1.762,0-3.195,1.434-3.195,3.196c0,1.762,1.434,3.195,3.195,3.195s3.195-1.434,3.195-3.195
		C16.598,51.232,15.164,49.799,13.402,49.799z M13.402,54.646c-0.91,0-1.65-0.741-1.65-1.65c0-0.91,0.74-1.65,1.65-1.65
		s1.65,0.74,1.65,1.65C15.053,53.904,14.312,54.646,13.402,54.646z"/>
	<path  d="M13.402,22.945c1.762,0,3.195-1.433,3.195-3.194c0-1.763-1.434-3.196-3.195-3.196s-3.195,1.434-3.195,3.196
		C10.207,21.513,11.641,22.945,13.402,22.945z M13.402,18.1c0.91,0,1.65,0.741,1.65,1.651c0,0.909-0.74,1.649-1.65,1.649
		s-1.65-0.74-1.65-1.649C11.752,18.841,12.492,18.1,13.402,18.1z"/>
	<path  d="M35.932,21.072c0.73,0,1.322-0.593,1.322-1.321c0-0.729-0.592-1.322-1.322-1.322
		c-0.727,0-1.32,0.593-1.32,1.322C34.611,20.479,35.205,21.072,35.932,21.072z M35.932,19.459c0.162,0,0.293,0.131,0.293,0.292
		c0,0.16-0.131,0.291-0.293,0.291c-0.16,0-0.289-0.131-0.289-0.291C35.643,19.59,35.771,19.459,35.932,19.459z"/>
	<path  d="M35.932,29.431c-0.727,0-1.32,0.593-1.32,1.322c0,0.729,0.594,1.321,1.32,1.321
		c0.73,0,1.322-0.593,1.322-1.321C37.254,30.023,36.662,29.431,35.932,29.431z M35.932,31.044c-0.16,0-0.289-0.131-0.289-0.291
		c0-0.161,0.129-0.292,0.289-0.292c0.162,0,0.293,0.131,0.293,0.292C36.225,30.913,36.094,31.044,35.932,31.044z"/>
	<path  d="M41.041,21.072c0.729,0,1.32-0.593,1.32-1.321c0-0.729-0.592-1.322-1.32-1.322s-1.322,0.593-1.322,1.322
		C39.719,20.479,40.312,21.072,41.041,21.072z M41.041,19.459c0.16,0,0.291,0.131,0.291,0.292c0,0.16-0.131,0.291-0.291,0.291
		s-0.291-0.131-0.291-0.291C40.75,19.59,40.881,19.459,41.041,19.459z"/>
	<path  d="M41.041,29.431c-0.729,0-1.322,0.593-1.322,1.322c0,0.729,0.594,1.321,1.322,1.321s1.32-0.593,1.32-1.321
		C42.361,30.023,41.77,29.431,41.041,29.431z M41.041,31.044c-0.16,0-0.291-0.131-0.291-0.291c0-0.161,0.131-0.292,0.291-0.292
		s0.291,0.131,0.291,0.292C41.332,30.913,41.201,31.044,41.041,31.044z"/>
	<path  d="M46.084,21.072c0.729,0,1.32-0.593,1.32-1.321c0-0.729-0.592-1.322-1.32-1.322s-1.322,0.593-1.322,1.322
		C44.762,20.479,45.355,21.072,46.084,21.072z M46.084,19.459c0.16,0,0.291,0.131,0.291,0.292c0,0.16-0.131,0.291-0.291,0.291
		s-0.291-0.131-0.291-0.291C45.793,19.59,45.924,19.459,46.084,19.459z"/>
	<path  d="M46.084,29.431c-0.729,0-1.322,0.593-1.322,1.322c0,0.729,0.594,1.321,1.322,1.321s1.32-0.593,1.32-1.321
		C47.404,30.023,46.812,29.431,46.084,29.431z M46.084,31.044c-0.16,0-0.291-0.131-0.291-0.291c0-0.161,0.131-0.292,0.291-0.292
		s0.291,0.131,0.291,0.292C46.375,30.913,46.244,31.044,46.084,31.044z"/>
	<path  d="M13.402,27.557c-1.762,0-3.195,1.434-3.195,3.196c0,1.762,1.434,3.195,3.195,3.195s3.195-1.434,3.195-3.195
		C16.598,28.99,15.164,27.557,13.402,27.557z M13.402,32.402c-0.91,0-1.65-0.739-1.65-1.649c0-0.911,0.74-1.651,1.65-1.651
		s1.65,0.74,1.65,1.651C15.053,31.663,14.312,32.402,13.402,32.402z"/>
</g>
</svg>
