<?xml version="1.0" encoding="utf-8"?>
<!-- Generator: Adobe Illustrator 16.0.3, SVG Export Plug-In . SVG Version: 6.00 Build 0)  -->
<!DOCTYPE svg PUBLIC "-//W3C//DTD SVG 1.1//EN" "http://www.w3.org/Graphics/SVG/1.1/DTD/svg11.dtd">
<svg version="1.1" id="Layer_1" xmlns="http://www.w3.org/2000/svg" xmlns:xlink="http://www.w3.org/1999/xlink" x="0px" y="0px"
	 width="60px" height="60px" viewBox="0 0 60 60" enable-background="new 0 0 60 60" xml:space="preserve">
<g>
	<path  d="M23.06,25.136h13.812c0.331,0,0.6-0.269,0.6-0.601v-8.308c0-0.332-0.269-0.6-0.6-0.6H23.06
		c-0.331,0-0.6,0.268-0.6,0.6v8.308C22.46,24.867,22.729,25.136,23.06,25.136z M23.66,16.827h12.611v7.109H23.66V16.827z"/>
	<path  d="M53.513,40.408c0.117-0.329,0.185-0.681,0.185-1.049V30.92c0-1.727-1.404-3.13-3.132-3.13H41.19
		c0.073-0.156,0.119-0.33,0.119-0.514c0-0.767-0.535-1.331-1.487-1.638c0.117-0.328,0.185-0.68,0.185-1.049v-8.438
		c0-1.727-1.405-3.132-3.132-3.132H23.041c-1.727,0-3.131,1.405-3.131,3.132v8.438c0,0.369,0.066,0.721,0.184,1.049
		c-0.953,0.307-1.489,0.871-1.489,1.638c0,0.184,0.046,0.357,0.12,0.514H9.435c-1.727,0-3.131,1.403-3.131,3.13v8.439
		c0,0.368,0.067,0.72,0.185,1.049C5.535,40.714,5,41.279,5,42.045v3.04c0,1.186,1.277,1.896,3.416,1.896h15.872
		c2.139,0,3.416-0.71,3.416-1.896v-3.04c0-0.766-0.535-1.331-1.488-1.637c0.117-0.329,0.185-0.681,0.185-1.049v-7.415
		c0.205,0.165,0.461,0.267,0.744,0.267h5.795c0.244,0,0.47-0.074,0.66-0.198v7.347c0,0.368,0.067,0.72,0.185,1.049
		c-0.954,0.306-1.488,0.87-1.488,1.637v3.04c0,1.186,1.276,1.896,3.415,1.896h15.872c2.139,0,3.416-0.71,3.416-1.896v-3.04
		C55,41.279,54.465,40.714,53.513,40.408z M51.298,30.92v8.439c0,0.404-0.329,0.731-0.732,0.731H36.73
		c-0.403,0-0.731-0.327-0.731-0.731V30.92c0-0.403,0.328-0.731,0.731-0.731h13.835C50.969,30.188,51.298,30.517,51.298,30.92z
		 M22.309,16.151c0-0.404,0.328-0.732,0.732-0.732h13.834c0.403,0,0.731,0.329,0.731,0.732v8.438c0,0.403-0.328,0.731-0.731,0.731
		H23.041c-0.404,0-0.732-0.328-0.732-0.731V16.151z M8.703,30.92c0-0.403,0.329-0.731,0.732-0.731H23.27
		c0.403,0,0.731,0.328,0.731,0.731v8.439c0,0.404-0.328,0.731-0.731,0.731H9.435c-0.403,0-0.732-0.327-0.732-0.731V30.92z
		 M25.305,44.483c-0.236,0.052-0.581,0.098-1.017,0.098H8.416c-0.436,0-0.781-0.046-1.017-0.098v-1.836
		c0.236-0.052,0.581-0.098,1.017-0.098h15.872c0.436,0,0.781,0.046,1.017,0.098V44.483z M27.145,29.812
		c-0.329,0-0.626,0.132-0.842,0.346c-0.342-1.358-1.571-2.368-3.034-2.368h-1.523c0.089-0.006,0.177-0.01,0.276-0.01h15.872
		c0.101,0,0.187,0.004,0.276,0.01H36.73c-1.441,0-2.656,0.98-3.019,2.31c-0.208-0.177-0.476-0.287-0.771-0.287H27.145z
		 M52.601,44.483c-0.236,0.052-0.581,0.098-1.017,0.098H35.712c-0.436,0-0.78-0.046-1.017-0.098v-1.836
		c0.236-0.052,0.581-0.098,1.017-0.098h15.872c0.436,0,0.78,0.046,1.017,0.098V44.483z"/>
	<path  d="M36.151,30.997v8.31c0,0.331,0.268,0.6,0.599,0.6h13.812c0.33,0,0.601-0.269,0.601-0.6v-8.31
		c0-0.332-0.271-0.6-0.601-0.6H36.75C36.419,30.397,36.151,30.665,36.151,30.997z M37.351,31.596h12.611v7.111H37.351V31.596z"/>
	<path  d="M9.455,39.906h13.812c0.331,0,0.6-0.269,0.6-0.6v-8.31c0-0.332-0.269-0.6-0.6-0.6H9.455
		c-0.332,0-0.599,0.268-0.599,0.6v8.31C8.855,39.638,9.123,39.906,9.455,39.906z M10.054,31.596h12.613v7.111H10.054V31.596z"/>
</g>
</svg>
