<?xml version="1.0" encoding="utf-8"?>
<!-- Generator: Adobe Illustrator 16.0.3, SVG Export Plug-In . SVG Version: 6.00 Build 0)  -->
<!DOCTYPE svg PUBLIC "-//W3C//DTD SVG 1.1//EN" "http://www.w3.org/Graphics/SVG/1.1/DTD/svg11.dtd">
<svg version="1.1" id="Layer_1" xmlns="http://www.w3.org/2000/svg" xmlns:xlink="http://www.w3.org/1999/xlink" x="0px" y="0px"
	 width="60px" height="60px" viewBox="0 0 60 60" enable-background="new 0 0 60 60" xml:space="preserve">
<g>
	<path  d="M38.729,44.553c-3.772,0.701-8.457,1.088-13.191,1.088c-14.627,0-22.606-3.553-22.606-5.377v-2.762
		c4.515,2.787,13.598,4.227,22.606,4.227c3.428,0,6.551-0.197,9.828-0.619c0.803-0.104,1.369-0.838,1.266-1.641
		s-0.839-1.367-1.641-1.266c-3.149,0.406-6.153,0.596-9.453,0.596c-14.627,0-22.606-3.553-22.606-5.377V30.66
		c4.515,2.785,13.598,4.227,22.606,4.227c3.537,0,6.954-0.211,10.155-0.623c0.802-0.105,1.368-0.84,1.265-1.643
		c-0.104-0.801-0.834-1.365-1.641-1.266c-3.077,0.398-6.367,0.6-9.779,0.6c-14.627,0-22.606-3.551-22.606-5.377v-2.76
		c4.515,2.785,13.598,4.225,22.606,4.225c9.023,0,18.121-1.443,22.628-4.238c0.102,0.711,0.706,1.258,1.444,1.258
		c0.81,0,1.465-0.656,1.465-1.465v-3.861c0-5.454-12.847-8.308-25.537-8.308C12.848,11.429,0,14.283,0,19.737v20.527
		c0,5.453,12.848,8.307,25.537,8.307c4.908,0,9.783-0.402,13.728-1.137c0.796-0.148,1.32-0.912,1.173-1.709
		C40.289,44.93,39.527,44.4,38.729,44.553z M25.537,14.36c14.628,0,22.607,3.552,22.607,5.377c0,1.824-7.979,5.376-22.607,5.376
		c-14.627,0-22.606-3.553-22.606-5.376C2.931,17.912,10.91,14.36,25.537,14.36z"/>
	<path  d="M56.617,28.676c-2.181-2.182-5.08-3.383-8.164-3.383c-3.085,0-5.985,1.203-8.167,3.383
		c-2.181,2.182-3.383,5.082-3.383,8.166c0,3.086,1.2,5.986,3.382,8.166c2.182,2.182,5.082,3.383,8.167,3.383
		s5.984-1.201,8.165-3.383c2.182-2.18,3.383-5.08,3.383-8.166C60,33.758,58.799,30.857,56.617,28.676z M54.546,42.936
		c-1.628,1.629-3.792,2.525-6.094,2.525s-4.467-0.896-6.095-2.525c-1.628-1.627-2.524-3.791-2.524-6.094
		c0-2.301,0.897-4.465,2.525-6.094c1.628-1.627,3.792-2.523,6.095-2.523c2.302,0,4.465,0.896,6.093,2.523s2.524,3.793,2.524,6.094
		C57.07,39.145,56.174,41.309,54.546,42.936z"/>
	<path  d="M54.138,35.441h-4.156v-4.156c0-0.809-0.655-1.465-1.465-1.465s-1.465,0.656-1.465,1.465v4.156h-4.158
		c-0.809,0-1.465,0.656-1.465,1.465s0.656,1.465,1.465,1.465h4.158v4.158c0,0.809,0.655,1.465,1.465,1.465s1.465-0.656,1.465-1.465
		v-4.156h4.156c0.81,0,1.466-0.656,1.466-1.467C55.604,36.098,54.947,35.441,54.138,35.441z"/>
</g>
</svg>
