<?xml version="1.0" encoding="utf-8"?>
<!-- Generator: Adobe Illustrator 16.0.3, SVG Export Plug-In . SVG Version: 6.00 Build 0)  -->
<!DOCTYPE svg PUBLIC "-//W3C//DTD SVG 1.1//EN" "http://www.w3.org/Graphics/SVG/1.1/DTD/svg11.dtd">
<svg version="1.1" id="Layer_1" xmlns="http://www.w3.org/2000/svg" xmlns:xlink="http://www.w3.org/1999/xlink" x="0px" y="0px"
	 width="60px" height="60px" viewBox="0 0 60 60" enable-background="new 0 0 60 60" xml:space="preserve">
<g>
	<path  d="M38.728,44.553c-3.772,0.701-8.457,1.088-13.191,1.088c-14.627,0-22.605-3.553-22.605-5.377v-2.762
		c4.514,2.787,13.597,4.227,22.605,4.227c3.429,0,6.552-0.197,9.828-0.619c0.803-0.104,1.37-0.838,1.267-1.641
		c-0.104-0.803-0.841-1.367-1.642-1.266c-3.149,0.406-6.153,0.596-9.453,0.596c-14.627,0-22.605-3.553-22.605-5.377V30.66
		c4.514,2.785,13.597,4.227,22.605,4.227c3.537,0,6.953-0.211,10.154-0.623c0.803-0.105,1.369-0.84,1.266-1.643
		c-0.104-0.801-0.835-1.365-1.642-1.266c-3.077,0.398-6.367,0.6-9.778,0.6c-14.627,0-22.605-3.551-22.605-5.377v-2.76
		c4.514,2.785,13.597,4.225,22.605,4.225c9.023,0,18.12-1.443,22.627-4.236c0.102,0.709,0.706,1.256,1.444,1.256
		c0.81,0,1.466-0.656,1.466-1.465v-3.861c0-5.454-12.847-8.308-25.537-8.308C12.847,11.429,0,14.283,0,19.737v20.527
		c0,5.453,12.847,8.307,25.536,8.307c4.908,0,9.783-0.402,13.728-1.137c0.796-0.148,1.32-0.912,1.173-1.709
		C40.288,44.93,39.526,44.4,38.728,44.553z M25.536,14.36c14.627,0,22.606,3.552,22.606,5.377c0,1.824-7.979,5.376-22.606,5.376
		S2.931,21.561,2.931,19.737C2.931,17.912,10.909,14.36,25.536,14.36z"/>
	<path  d="M56.617,28.676c-2.181-2.18-5.081-3.381-8.167-3.381h-0.002c-6.366,0-11.547,5.18-11.547,11.547
		c0,6.369,5.182,11.549,11.549,11.549h0.002c6.367,0,11.548-5.18,11.548-11.549C60,33.758,58.799,30.857,56.617,28.676z
		 M48.452,45.461H48.45c-4.752,0-8.618-3.867-8.618-8.619s3.865-8.617,8.618-8.617c0,0,0.001,0,0.002,0
		c2.302,0,4.466,0.896,6.094,2.523c1.628,1.629,2.523,3.791,2.523,6.094C57.069,41.594,53.204,45.461,48.452,45.461z"/>
	<path  d="M55.505,32.295c-0.572-0.572-1.5-0.572-2.072,0l-6.962,6.961l-3.019-2.924
		c-0.58-0.562-1.509-0.547-2.072,0.033c-0.562,0.582-0.548,1.51,0.033,2.072l4.055,3.926c0.037,0.037,0.079,0.064,0.119,0.096
		c0.033,0.027,0.065,0.057,0.102,0.08c0.049,0.031,0.101,0.055,0.152,0.08c0.033,0.018,0.065,0.037,0.1,0.053
		c0.058,0.021,0.117,0.035,0.177,0.051c0.03,0.01,0.062,0.021,0.093,0.027c0.085,0.016,0.17,0.023,0.256,0.025
		c0.008,0,0.014,0.002,0.021,0.002l0,0h0.001c0.007,0,0.015-0.002,0.021-0.002c0.088-0.002,0.174-0.01,0.26-0.025
		c0.037-0.008,0.072-0.023,0.108-0.033c0.056-0.016,0.111-0.027,0.166-0.049c0.043-0.018,0.082-0.045,0.124-0.066
		c0.044-0.023,0.09-0.043,0.131-0.07c0.045-0.029,0.084-0.068,0.125-0.102c0.033-0.027,0.068-0.051,0.1-0.082l0.015-0.014
		c0.001-0.002,0.002-0.002,0.003-0.004c0,0,0.001,0,0.002-0.002l7.963-7.961C56.077,33.795,56.077,32.867,55.505,32.295z"/>
</g>
</svg>
