<?xml version="1.0" encoding="utf-8"?>
<!-- Generator: Adobe Illustrator 16.0.3, SVG Export Plug-In . SVG Version: 6.00 Build 0)  -->
<!DOCTYPE svg PUBLIC "-//W3C//DTD SVG 1.1//EN" "http://www.w3.org/Graphics/SVG/1.1/DTD/svg11.dtd">
<svg version="1.1" id="Layer_1" xmlns="http://www.w3.org/2000/svg" xmlns:xlink="http://www.w3.org/1999/xlink" x="0px" y="0px"
	 width="60px" height="60px" viewBox="0 0 60 60" enable-background="new 0 0 60 60" xml:space="preserve">
<path  d="M56.576,28.561c-0.002-0.002-0.004-0.004-0.006-0.006c-0.001-0.001-0.002-0.003-0.003-0.004
	c-0.002-0.002-0.005-0.003-0.006-0.005c-2.206-2.198-5.133-3.407-8.247-3.407c-3.121,0-6.056,1.215-8.263,3.422
	s-3.423,5.141-3.423,8.263c0,2.98,1.111,5.79,3.134,7.959c-0.315-0.238-0.724-0.351-1.145-0.271
	c-3.762,0.699-8.434,1.085-13.153,1.085c-14.586,0-22.543-3.543-22.543-5.362v-2.753c4.501,2.777,13.559,4.214,22.543,4.214
	c3.417,0,6.531-0.196,9.801-0.618c0.8-0.104,1.365-0.836,1.262-1.636c-0.104-0.801-0.836-1.363-1.636-1.263
	c-3.142,0.405-6.138,0.594-9.427,0.594c-14.586,0-22.543-3.542-22.543-5.361v-2.753c4.501,2.778,13.559,4.214,22.543,4.214
	c3.526,0,6.933-0.209,10.126-0.622c0.8-0.104,1.365-0.836,1.262-1.637c-0.103-0.8-0.829-1.362-1.637-1.262
	c-3.068,0.397-6.35,0.599-9.751,0.599c-14.586,0-22.543-3.543-22.543-5.362v-2.753c4.501,2.778,13.559,4.214,22.543,4.214
	c8.997,0,18.068-1.44,22.563-4.227c0.101,0.708,0.704,1.255,1.44,1.255c0.807,0,1.461-0.654,1.461-1.462v-3.85
	c0-5.438-12.811-8.284-25.465-8.284C12.81,11.481,0,14.327,0,19.766v20.469c0,5.438,12.81,8.284,25.465,8.284
	c4.895,0,9.755-0.403,13.688-1.135c0.794-0.147,1.316-0.91,1.17-1.703c-0.039-0.207-0.121-0.394-0.232-0.558
	c0.025,0.025,0.051,0.048,0.076,0.072c0.009,0.009,0.015,0.021,0.024,0.029c0.013,0.014,0.028,0.021,0.042,0.033
	c2.186,2.096,5.045,3.25,8.082,3.25c3.121,0,6.055-1.215,8.262-3.421C58.784,42.879,60,39.944,60,36.823
	C60,33.701,58.784,30.767,56.576,28.561z M25.465,14.403c14.586,0,22.542,3.542,22.542,5.362c0,1.819-7.956,5.36-22.542,5.36
	s-22.543-3.541-22.543-5.36C2.922,17.945,10.879,14.403,25.465,14.403z M42.117,30.627c1.656-1.655,3.856-2.566,6.197-2.566
	c1.85,0,3.607,0.577,5.082,1.633L41.278,42.032c-1.115-1.5-1.728-3.306-1.728-5.209C39.551,34.482,40.463,32.282,42.117,30.627z
	 M54.51,43.02c-1.654,1.654-3.855,2.566-6.195,2.566c-1.787,0-3.49-0.535-4.935-1.522l12.081-12.301
	c1.045,1.471,1.616,3.22,1.616,5.061C57.077,39.164,56.166,41.365,54.51,43.02z"/>
</svg>
