<?xml version="1.0" encoding="utf-8"?>
<!-- Generator: Adobe Illustrator 16.0.3, SVG Export Plug-In . SVG Version: 6.00 Build 0)  -->
<!DOCTYPE svg PUBLIC "-//W3C//DTD SVG 1.1//EN" "http://www.w3.org/Graphics/SVG/1.1/DTD/svg11.dtd">
<svg version="1.1" id="Layer_1" xmlns="http://www.w3.org/2000/svg" xmlns:xlink="http://www.w3.org/1999/xlink" x="0px" y="0px"
	 width="60px" height="60px" viewBox="0 0 60 60" enable-background="new 0 0 60 60" xml:space="preserve">
<path  d="M30,8.183c-14.908,0-30,3.353-30,9.76v24.114c0,6.408,15.092,9.76,30,9.76s30-3.352,30-9.76V17.943
	C60,11.536,44.908,8.183,30,8.183z M56.558,34.02c0,2.143-9.374,6.316-26.558,6.316S3.442,36.162,3.442,34.02v-3.244
	C8.746,34.049,19.416,35.74,30,35.74s21.254-1.691,26.558-4.965V34.02z M56.558,25.98c0,2.145-9.374,6.316-26.558,6.316
	S3.442,28.125,3.442,25.98v-3.242C8.746,26.01,19.416,27.701,30,27.701s21.254-1.691,26.558-4.963V25.98z M30,11.626
	c17.184,0,26.558,4.173,26.558,6.317S47.184,24.26,30,24.26S3.442,20.086,3.442,17.943S12.816,11.626,30,11.626z M30,48.375
	c-17.184,0-26.558-4.174-26.558-6.318v-3.242C8.746,42.086,19.416,43.777,30,43.777s21.254-1.691,26.558-4.963v3.242
	C56.558,44.201,47.184,48.375,30,48.375z"/>
</svg>
