<?xml version="1.0" encoding="utf-8"?>
<!-- Generator: Adobe Illustrator 16.0.3, SVG Export Plug-In . SVG Version: 6.00 Build 0)  -->
<!DOCTYPE svg PUBLIC "-//W3C//DTD SVG 1.1//EN" "http://www.w3.org/Graphics/SVG/1.1/DTD/svg11.dtd">
<svg version="1.1" id="Layer_1" xmlns="http://www.w3.org/2000/svg" xmlns:xlink="http://www.w3.org/1999/xlink" x="0px" y="0px"
	 width="60px" height="60px" viewBox="0 0 60 60" enable-background="new 0 0 60 60" xml:space="preserve">
<g>
	<path  d="M38.803,44.396c-3.78,0.703-8.474,1.09-13.216,1.09c-14.656,0-22.65-3.559-22.65-5.388v-2.766
		c4.523,2.791,13.624,4.233,22.65,4.233c3.707,0,7.719-0.232,10.734-0.62c0.805-0.104,1.372-0.84,1.269-1.645
		c-0.104-0.804-0.842-1.371-1.644-1.268c-2.897,0.373-6.771,0.597-10.359,0.597c-14.656,0-22.65-3.56-22.65-5.388v-2.767
		c4.523,2.792,13.624,4.234,22.65,4.234c3.879,0,11.101,0,14.629-1.295c0.762-0.279,1.151-1.123,0.873-1.884
		c-0.279-0.762-1.124-1.151-1.884-0.872c-3.04,1.115-10.453,1.115-13.619,1.115c-14.656,0-22.65-3.56-22.65-5.388v-2.766
		c4.523,2.791,13.624,4.233,22.65,4.233c9.04,0,18.154-1.446,22.669-4.246c0.103,0.711,0.708,1.26,1.447,1.26
		c0.812,0,1.468-0.657,1.468-1.468v-3.868c0-5.465-12.87-8.324-25.584-8.324C12.872,11.208,0,14.067,0,19.532v20.565
		c0,5.465,12.872,8.324,25.586,8.324c4.917,0,9.802-0.405,13.753-1.14c0.797-0.148,1.322-0.915,1.174-1.712
		C40.366,44.773,39.602,44.249,38.803,44.396z M25.586,14.144c14.655,0,22.649,3.56,22.649,5.389c0,1.828-7.994,5.387-22.649,5.387
		c-14.656,0-22.65-3.559-22.65-5.387C2.936,17.703,10.931,14.144,25.586,14.144z"/>
	<path  d="M58.532,34.345h-0.597v-0.809c0-4.186-3.405-7.592-7.592-7.592s-7.592,3.406-7.592,7.592v0.809h-0.596
		c-0.812,0-1.469,0.656-1.469,1.468v11.512c0,0.811,0.657,1.468,1.469,1.468h16.376c0.811,0,1.468-0.657,1.468-1.468V35.812
		C60,35.001,59.343,34.345,58.532,34.345z M45.688,33.536c0-2.567,2.088-4.656,4.655-4.656S55,30.969,55,33.536v0.809h-9.312V33.536
		z M57.064,45.855h-13.44V37.28h13.44V45.855z"/>
	<path  d="M49.452,42.048v2.441h1.836v-2.395c0.76-0.337,1.293-1.096,1.293-1.979c0-1.195-0.973-2.169-2.168-2.169
		c-1.194,0-2.167,0.974-2.167,2.169C48.246,40.964,48.74,41.691,49.452,42.048z M50.413,39.347c0.424,0,0.769,0.345,0.769,0.769
		c0,0.009-0.002,0.018-0.003,0.026H51.11c0-0.009,0.003-0.018,0.003-0.026c0-0.387-0.312-0.7-0.7-0.7
		c-0.387,0-0.699,0.313-0.699,0.7c0,0.009,0.002,0.018,0.003,0.026h-0.069c0-0.009-0.003-0.018-0.003-0.026
		C49.645,39.691,49.989,39.347,50.413,39.347z"/>
</g>
</svg>
