<?xml version="1.0" encoding="utf-8"?>
<!-- Generator: Adobe Illustrator 16.0.3, SVG Export Plug-In . SVG Version: 6.00 Build 0)  -->
<!DOCTYPE svg PUBLIC "-//W3C//DTD SVG 1.1//EN" "http://www.w3.org/Graphics/SVG/1.1/DTD/svg11.dtd">
<svg version="1.1" id="Layer_1" xmlns="http://www.w3.org/2000/svg" xmlns:xlink="http://www.w3.org/1999/xlink" x="0px" y="0px"
	 width="60px" height="60px" viewBox="0 0 60 60" enable-background="new 0 0 60 60" xml:space="preserve">
<g>
	<path  d="M38.728,44.554c-3.772,0.701-8.458,1.088-13.191,1.088c-14.627,0-22.605-3.553-22.605-5.378v-2.761
		c4.514,2.786,13.597,4.226,22.605,4.226c3.427,0,6.55-0.196,9.829-0.619c0.803-0.104,1.369-0.838,1.266-1.641
		c-0.104-0.803-0.841-1.366-1.641-1.266c-3.152,0.406-6.156,0.596-9.454,0.596c-14.626,0-22.605-3.553-22.605-5.378v-2.76
		c4.514,2.785,13.597,4.226,22.605,4.226c3.536,0,6.953-0.21,10.155-0.624c0.802-0.104,1.368-0.838,1.265-1.641
		s-0.835-1.366-1.641-1.266c-3.077,0.398-6.368,0.6-9.779,0.6c-14.627,0-22.605-3.552-22.605-5.377v-2.761
		c4.514,2.786,13.597,4.226,22.605,4.226c9.022,0,18.12-1.443,22.627-4.238c0.102,0.71,0.706,1.258,1.444,1.258
		c0.81,0,1.465-0.656,1.465-1.465v-3.861c0-5.454-12.847-8.309-25.536-8.309S0,14.283,0,19.737v20.526
		c0,5.454,12.847,8.308,25.536,8.308c4.907,0,9.782-0.403,13.728-1.137c0.796-0.148,1.32-0.913,1.172-1.709
		C40.288,44.931,39.526,44.4,38.728,44.554z M25.536,14.359c14.627,0,22.606,3.553,22.606,5.378c0,1.824-7.979,5.376-22.606,5.376
		S2.931,21.562,2.931,19.737C2.931,17.912,10.909,14.359,25.536,14.359z"/>
	<path  d="M56.617,28.677c-2.182-2.181-5.082-3.382-8.166-3.382c-6.367,0-11.549,5.181-11.551,11.549
		c0.002,6.367,5.182,11.548,11.549,11.548h0.002C54.818,48.392,60,43.211,60,36.844C60,33.759,58.799,30.858,56.617,28.677z
		 M48.451,28.226c3.466,0,6.452,2.06,7.819,5.017l-0.872-0.812l-5.42,5.83v-6.628c0-0.81-0.655-1.466-1.465-1.466
		s-1.465,0.656-1.465,1.466v6.632l-5.422-5.834L40.53,33.45C41.852,30.381,44.904,28.226,48.451,28.226z M48.45,45.461l-0.001,1.465
		L48.45,45.461c-4.752,0-8.618-3.866-8.619-8.617c0.001-0.985,0.175-1.93,0.481-2.812l8.199,8.819l8.112-8.725
		c0.285,0.855,0.445,1.768,0.445,2.718C57.069,41.596,53.203,45.461,48.45,45.461z"/>
</g>
</svg>
