<?xml version="1.0" encoding="utf-8"?>
<!-- Generator: Adobe Illustrator 16.0.3, SVG Export Plug-In . SVG Version: 6.00 Build 0)  -->
<!DOCTYPE svg PUBLIC "-//W3C//DTD SVG 1.1//EN" "http://www.w3.org/Graphics/SVG/1.1/DTD/svg11.dtd">
<svg version="1.1" id="Layer_1" xmlns="http://www.w3.org/2000/svg" xmlns:xlink="http://www.w3.org/1999/xlink" x="0px" y="0px"
	 width="60px" height="60px" viewBox="0 0 60 60" enable-background="new 0 0 60 60" xml:space="preserve">
<g>
	<path  d="M59.574,26.127l-4.302-4.303c-0.568-0.566-1.488-0.566-2.056,0L40.726,34.316
		c-0.031,0.031-0.056,0.068-0.083,0.102c-0.024,0.029-0.05,0.057-0.071,0.088c-0.059,0.082-0.109,0.17-0.148,0.262
		c-0.004,0.006-0.008,0.01-0.011,0.018l-0.003,0.006c-0.002,0.004-0.003,0.008-0.004,0.01l-3.07,7.363
		c-0.227,0.543-0.103,1.17,0.314,1.588c0.277,0.277,0.648,0.424,1.027,0.424c0.188,0,0.378-0.035,0.559-0.111l7.375-3.074
		l0.003-0.002h0.002c0.002-0.002,0.003-0.002,0.005-0.004c0.099-0.041,0.189-0.096,0.277-0.156c0.029-0.021,0.055-0.045,0.082-0.068
		c0.035-0.029,0.072-0.053,0.104-0.086l12.491-12.492C60.142,27.613,60.142,26.693,59.574,26.127z M41.376,40.023l0.884-2.119
		l1.235,1.236L41.376,40.023z M46.056,37.592l-2.248-2.248l10.438-10.438l2.246,2.248L46.056,37.592z"/>
	<path  d="M38.411,44.434c-3.742,0.695-8.389,1.078-13.084,1.078c-14.507,0-22.421-3.521-22.421-5.332v-2.738
		c4.478,2.764,13.485,4.191,22.421,4.191c3.671,0,7.643-0.23,10.627-0.615c0.795-0.102,1.357-0.83,1.255-1.627
		c-0.103-0.795-0.835-1.355-1.627-1.256c-2.868,0.371-6.701,0.592-10.255,0.592c-14.507,0-22.421-3.523-22.421-5.334v-2.738
		c4.478,2.764,13.485,4.191,22.421,4.191c3.841,0,10.989,0,14.483-1.281c0.754-0.277,1.14-1.111,0.864-1.865
		c-0.276-0.754-1.112-1.139-1.865-0.863c-3.01,1.104-10.349,1.104-13.482,1.104c-14.507,0-22.421-3.523-22.421-5.334v-2.736
		c4.478,2.762,13.485,4.189,22.421,4.189c8.949,0,17.972-1.432,22.441-4.201c0.102,0.703,0.701,1.246,1.433,1.246
		c0.803,0,1.453-0.65,1.453-1.453v-3.83c0-5.409-12.741-8.239-25.327-8.239S0,14.412,0,19.821V40.18
		c0,5.408,12.741,8.238,25.327,8.238c4.868,0,9.703-0.4,13.615-1.127c0.789-0.146,1.309-0.906,1.162-1.695
		S39.202,44.281,38.411,44.434z M25.327,14.488c14.508,0,22.421,3.523,22.421,5.333c0,1.81-7.913,5.332-22.421,5.332
		c-14.507,0-22.421-3.521-22.421-5.332C2.906,18.011,10.82,14.488,25.327,14.488z"/>
</g>
</svg>
