<?xml version="1.0" encoding="utf-8"?>
<!-- Generator: Adobe Illustrator 16.0.3, SVG Export Plug-In . SVG Version: 6.00 Build 0)  -->
<!DOCTYPE svg PUBLIC "-//W3C//DTD SVG 1.1//EN" "http://www.w3.org/Graphics/SVG/1.1/DTD/svg11.dtd">
<svg version="1.1" id="Layer_1" xmlns="http://www.w3.org/2000/svg" xmlns:xlink="http://www.w3.org/1999/xlink" x="0px" y="0px"
	 width="60px" height="60px" viewBox="0 0 60 60" enable-background="new 0 0 60 60" xml:space="preserve">
<g>
	<path  d="M38.728,44.553c-3.772,0.701-8.458,1.088-13.191,1.088c-14.627,0-22.605-3.553-22.605-5.377v-2.762
		c4.514,2.787,13.597,4.227,22.605,4.227c3.428,0,6.551-0.197,9.829-0.619c0.803-0.104,1.369-0.838,1.266-1.641
		s-0.84-1.367-1.641-1.266c-3.151,0.406-6.155,0.596-9.454,0.596c-14.626,0-22.605-3.553-22.605-5.377V30.66
		c4.514,2.785,13.597,4.227,22.605,4.227c3.536,0,6.954-0.211,10.155-0.623c0.802-0.105,1.368-0.84,1.265-1.643
		c-0.104-0.801-0.831-1.365-1.641-1.266c-3.077,0.398-6.367,0.6-9.779,0.6c-14.627,0-22.605-3.551-22.605-5.377v-2.76
		c4.514,2.785,13.597,4.225,22.605,4.225c9.022,0,18.12-1.443,22.628-4.236c0.102,0.709,0.705,1.256,1.443,1.256
		c0.81,0,1.466-0.656,1.466-1.465v-3.861c0-5.454-12.847-8.308-25.537-8.308C12.847,11.429,0,14.283,0,19.737v20.527
		c0,5.453,12.847,8.307,25.536,8.307c4.908,0,9.783-0.402,13.728-1.137c0.796-0.148,1.32-0.912,1.172-1.709
		C40.288,44.93,39.523,44.4,38.728,44.553z M25.536,14.36c14.627,0,22.606,3.552,22.606,5.377c0,1.824-7.979,5.376-22.606,5.376
		c-14.626,0-22.605-3.553-22.605-5.376C2.931,17.912,10.91,14.36,25.536,14.36z"/>
	<path  d="M56.617,28.676c-2.182-2.18-5.08-3.381-8.168-3.381l0,0c-6.367,0-11.547,5.18-11.547,11.547
		c0,6.369,5.18,11.549,11.547,11.549c0.001,0,0.003,0,0.003,0c6.367,0,11.548-5.18,11.548-11.549
		C60,33.758,58.799,30.857,56.617,28.676z M48.451,28.225L48.451,28.225c2.303,0,4.467,0.896,6.094,2.523
		c1.628,1.629,2.524,3.791,2.524,6.094c0,0.949-0.16,1.861-0.444,2.717l-8.107-8.723l-8.203,8.82
		c-0.307-0.883-0.481-1.828-0.481-2.814C39.833,32.09,43.698,28.225,48.451,28.225z M48.452,45.461H48.45
		c-3.549,0-6.602-2.158-7.921-5.23l1.1,1.025l5.421-5.83l-0.001,6.629c0,0.811,0.656,1.467,1.465,1.467
		c0.81,0,1.466-0.656,1.466-1.467l0.001-6.633l5.421,5.836l0.866-0.807C54.898,43.404,51.914,45.461,48.452,45.461z"/>
</g>
</svg>
