<?xml version="1.0" encoding="utf-8"?>
<!-- Generator: Adobe Illustrator 16.0.3, SVG Export Plug-In . SVG Version: 6.00 Build 0)  -->
<!DOCTYPE svg PUBLIC "-//W3C//DTD SVG 1.1//EN" "http://www.w3.org/Graphics/SVG/1.1/DTD/svg11.dtd">
<svg version="1.1" id="Layer_1" xmlns="http://www.w3.org/2000/svg" xmlns:xlink="http://www.w3.org/1999/xlink" x="0px" y="0px"
	 width="60px" height="60px" viewBox="0 0 60 60" enable-background="new 0 0 60 60" xml:space="preserve">
<g>
	<path  d="M38.729,44.553c-3.773,0.701-8.459,1.088-13.192,1.088c-14.627,0-22.605-3.553-22.605-5.377v-2.762
		c4.514,2.787,13.596,4.227,22.605,4.227c3.427,0,6.55-0.197,9.828-0.619c0.803-0.104,1.37-0.838,1.267-1.641
		s-0.839-1.367-1.642-1.266c-3.15,0.406-6.154,0.596-9.453,0.596c-14.627,0-22.605-3.553-22.605-5.377V30.66
		c4.514,2.785,13.596,4.227,22.605,4.227c3.537,0,6.953-0.211,10.154-0.623c0.803-0.105,1.369-0.84,1.266-1.643
		c-0.104-0.801-0.834-1.365-1.641-1.266c-3.078,0.398-6.367,0.6-9.779,0.6c-14.627,0-22.605-3.551-22.605-5.377v-2.76
		c4.514,2.785,13.596,4.225,22.605,4.225c9.022,0,18.12-1.443,22.627-4.238c0.102,0.711,0.706,1.258,1.444,1.258
		c0.81,0,1.466-0.656,1.466-1.465v-3.861c0-5.454-12.848-8.308-25.537-8.308C12.846,11.429,0,14.283,0,19.737v20.527
		c0,5.453,12.846,8.307,25.536,8.307c4.907,0,9.783-0.402,13.729-1.137c0.795-0.148,1.32-0.912,1.172-1.709
		C40.289,44.93,39.525,44.4,38.729,44.553z M25.536,14.36c14.627,0,22.606,3.552,22.606,5.377c0,1.824-7.979,5.376-22.606,5.376
		S2.931,21.561,2.931,19.737C2.931,17.912,10.909,14.36,25.536,14.36z"/>
	<path  d="M56.617,28.676c-2.182-2.18-5.081-3.381-8.167-3.381l0,0c-6.367,0-11.549,5.18-11.549,11.549
		c0,6.367,5.182,11.547,11.549,11.547h0.002c6.367,0,11.548-5.18,11.548-11.549C60,33.758,58.799,30.857,56.617,28.676z
		 M48.452,45.461H48.45c-4.751,0-8.618-3.867-8.619-8.617c0.001-4.752,3.867-8.619,8.621-8.619l0,0c2.302,0,4.466,0.896,6.093,2.523
		c1.628,1.629,2.524,3.791,2.524,6.094C57.069,41.594,53.204,45.461,48.452,45.461z"/>
	<path  d="M53.462,31.922c-0.572-0.572-1.5-0.572-2.072,0l-2.939,2.939l-2.939-2.939c-0.572-0.572-1.5-0.572-2.072,0
		s-0.572,1.5,0,2.072l2.94,2.939l-2.94,2.939c-0.572,0.572-0.572,1.5,0,2.072c0.287,0.285,0.662,0.43,1.036,0.43
		c0.375,0,0.75-0.145,1.036-0.43l2.939-2.939l2.939,2.939c0.286,0.285,0.661,0.428,1.036,0.428s0.749-0.143,1.036-0.428
		c0.572-0.572,0.572-1.5,0-2.072l-2.939-2.939l2.939-2.939C54.034,33.422,54.034,32.494,53.462,31.922z"/>
</g>
</svg>
