<?xml version="1.0" encoding="utf-8"?>
<!-- Generator: Adobe Illustrator 16.0.3, SVG Export Plug-In . SVG Version: 6.00 Build 0)  -->
<!DOCTYPE svg PUBLIC "-//W3C//DTD SVG 1.1//EN" "http://www.w3.org/Graphics/SVG/1.1/DTD/svg11.dtd">
<svg version="1.1" id="Layer_1" xmlns="http://www.w3.org/2000/svg" xmlns:xlink="http://www.w3.org/1999/xlink" x="0px" y="0px"
	 width="60px" height="60px" viewBox="0 0 60 60" enable-background="new 0 0 60 60" xml:space="preserve">
<g>
	<path  d="M38.728,44.553c-3.772,0.701-8.457,1.088-13.191,1.088c-14.627,0-22.605-3.553-22.605-5.377v-2.762
		c4.514,2.787,13.597,4.227,22.605,4.227c3.428,0,6.551-0.197,9.829-0.619c0.803-0.104,1.369-0.838,1.266-1.641
		s-0.838-1.367-1.641-1.266c-3.15,0.406-6.154,0.596-9.454,0.596c-14.627,0-22.605-3.553-22.605-5.377V30.66
		c4.514,2.785,13.597,4.227,22.605,4.227c3.537,0,6.954-0.211,10.154-0.623c0.803-0.105,1.369-0.84,1.266-1.643
		c-0.104-0.801-0.833-1.365-1.641-1.266c-3.077,0.398-6.367,0.6-9.779,0.6c-14.627,0-22.605-3.551-22.605-5.377v-2.76
		c4.514,2.785,13.597,4.225,22.605,4.225c9.023,0,18.121-1.443,22.628-4.238c0.102,0.711,0.706,1.258,1.444,1.258
		c0.81,0,1.465-0.656,1.465-1.465v-3.861c0-5.454-12.847-8.308-25.537-8.308C12.847,11.429,0,14.283,0,19.737v20.527
		c0,5.453,12.847,8.307,25.536,8.307c4.909,0,9.784-0.402,13.728-1.137c0.796-0.148,1.32-0.912,1.173-1.709
		C40.288,44.93,39.525,44.404,38.728,44.553z M25.536,14.36c14.628,0,22.607,3.552,22.607,5.377c0,1.824-7.979,5.376-22.607,5.376
		c-14.627,0-22.605-3.553-22.605-5.376C2.931,17.912,10.909,14.36,25.536,14.36z"/>
	<path  d="M56.617,28.676c-2.182-2.182-5.081-3.383-8.165-3.383c-3.085,0-5.985,1.203-8.167,3.383
		c-2.182,2.182-3.383,5.082-3.384,8.166c0,3.086,1.201,5.986,3.383,8.166c2.182,2.182,5.082,3.383,8.166,3.383
		c3.086,0,5.985-1.201,8.167-3.383c2.182-2.18,3.383-5.08,3.383-8.166C60,33.758,58.799,30.857,56.617,28.676z M54.545,42.938
		c-1.628,1.627-3.792,2.523-6.095,2.523c-2.301,0-4.466-0.896-6.094-2.523c-1.628-1.629-2.524-3.793-2.524-6.096
		c0-2.301,0.896-4.465,2.525-6.094c1.628-1.627,3.792-2.523,6.095-2.523c2.301,0,4.465,0.896,6.093,2.523s2.524,3.793,2.524,6.094
		C57.069,39.145,56.173,41.309,54.545,42.938z"/>
	<path  d="M54.138,35.441H42.894c-0.809,0-1.465,0.656-1.465,1.465s0.656,1.465,1.465,1.465l11.244,0.002
		c0.809,0,1.465-0.656,1.465-1.467C55.603,36.098,54.946,35.441,54.138,35.441z"/>
</g>
</svg>
