<?xml version="1.0" encoding="utf-8"?>
<!-- Generator: Adobe Illustrator 16.0.3, SVG Export Plug-In . SVG Version: 6.00 Build 0)  -->
<!DOCTYPE svg PUBLIC "-//W3C//DTD SVG 1.1//EN" "http://www.w3.org/Graphics/SVG/1.1/DTD/svg11.dtd">
<svg version="1.1" id="Layer_1" xmlns="http://www.w3.org/2000/svg" xmlns:xlink="http://www.w3.org/1999/xlink" x="0px" y="0px"
	 width="60px" height="60px" viewBox="0 0 60 60" enable-background="new 0 0 60 60" xml:space="preserve">
<g>
	<path  d="M37.913,43.357c-3.692,0.688-8.278,1.065-12.913,1.065c-14.319,0-22.131-3.478-22.131-5.265v-2.702
		C7.288,39.183,16.18,40.593,25,40.593c3.354,0,6.412-0.192,9.623-0.606c0.785-0.102,1.341-0.82,1.239-1.606
		c-0.102-0.785-0.822-1.34-1.606-1.239c-3.086,0.398-6.027,0.583-9.256,0.583c-14.319,0-22.131-3.478-22.131-5.264v-2.703
		C7.288,32.484,16.18,33.895,25,33.895c3.463,0,6.808-0.206,9.941-0.61c0.785-0.103,1.34-0.821,1.238-1.606
		c-0.102-0.786-0.817-1.337-1.606-1.239c-3.012,0.39-6.232,0.587-9.573,0.587c-14.319,0-22.131-3.478-22.131-5.265v-2.702
		C7.288,25.786,16.18,27.195,25,27.195c8.834,0,17.739-1.413,22.152-4.148c0.1,0.694,0.69,1.23,1.414,1.23
		c0.792,0,1.434-0.642,1.434-1.435v-3.779c0-5.34-12.576-8.134-25-8.134S0,13.724,0,19.063v20.095c0,5.34,12.576,8.134,25,8.134
		c4.806,0,9.578-0.396,13.438-1.114c0.778-0.145,1.292-0.894,1.147-1.672S38.694,43.215,37.913,43.357z M25,13.799
		c14.32,0,22.132,3.478,22.132,5.265c0,1.786-7.812,5.263-22.132,5.263c-14.319,0-22.131-3.477-22.131-5.263
		C2.869,17.276,10.681,13.799,25,13.799z"/>
	<path  d="M59.58,46.622l-8.023-8.023c0.678-1.149,1.072-2.484,1.072-3.913c0-4.273-3.476-7.75-7.748-7.75
		s-7.749,3.477-7.749,7.75s3.477,7.749,7.749,7.749c1.807,0,3.468-0.627,4.787-1.668l7.884,7.884c0.28,0.279,0.646,0.42,1.014,0.42
		s0.734-0.141,1.015-0.42C60.14,48.09,60.14,47.182,59.58,46.622z M40.001,34.686c0-2.691,2.189-4.881,4.88-4.881
		s4.88,2.189,4.88,4.881s-2.189,4.88-4.88,4.88S40.001,37.377,40.001,34.686z"/>
</g>
</svg>
