<?xml version="1.0" encoding="utf-8"?>
<!-- Generator: Adobe Illustrator 16.0.3, SVG Export Plug-In . SVG Version: 6.00 Build 0)  -->
<!DOCTYPE svg PUBLIC "-//W3C//DTD SVG 1.1//EN" "http://www.w3.org/Graphics/SVG/1.1/DTD/svg11.dtd">
<svg version="1.1" id="Layer_1" xmlns="http://www.w3.org/2000/svg" xmlns:xlink="http://www.w3.org/1999/xlink" x="0px" y="0px"
	 width="60px" height="60px" viewBox="0 0 60 60" enable-background="new 0 0 60 60" xml:space="preserve">
<g>
	<path  d="M49.262,26.48c-0.009,0-0.019,0-0.028,0c-4.56,0.012-8.641,3.074-9.924,7.447
		c-0.115,0.395,0.11,0.807,0.505,0.924c0.07,0.02,0.141,0.029,0.21,0.029c0.322,0,0.618-0.211,0.714-0.535
		c1.099-3.744,4.594-6.367,8.499-6.377c0.008,0,0.017,0,0.024,0c3.099,0,5.9,1.576,7.517,4.166l-6.618-1.648l-0.358,1.447
		l8.677,2.158L60,25.281l-1.469-0.256l-0.969,5.619C55.628,28.039,52.592,26.48,49.262,26.48z"/>
	<path  d="M58.78,38.43c-0.399-0.098-0.802,0.146-0.9,0.545c-0.973,3.967-4.509,6.744-8.599,6.754
		c-0.008,0-0.016,0-0.023,0c-3.217,0-6.151-1.74-7.718-4.498l6.534,1.939l0.424-1.428l-8.571-2.545l-1.251,5.705
		c-3.711,0.639-8.191,0.99-12.727,0.99c-14.863,0-22.972-3.609-22.972-5.465v-2.805c4.587,2.832,13.817,4.295,22.972,4.295
		c3.482,0,6.655-0.201,9.986-0.631c0.815-0.104,1.392-0.852,1.286-1.666c-0.105-0.816-0.853-1.391-1.667-1.287
		c-3.202,0.414-6.254,0.605-9.605,0.605c-14.863,0-22.972-3.609-22.972-5.463V30.67c4.587,2.832,13.817,4.295,22.972,4.295
		c3.594,0,7.065-0.213,10.318-0.633c0.814-0.105,1.391-0.854,1.285-1.668c-0.105-0.816-0.848-1.387-1.667-1.285
		c-3.127,0.402-6.47,0.607-9.937,0.607c-14.863,0-22.972-3.609-22.972-5.463v-2.805c4.587,2.83,13.817,4.293,22.972,4.293
		c9.168,0,18.411-1.467,22.991-4.307c0.104,0.723,0.718,1.277,1.468,1.277c0.822,0,1.488-0.666,1.488-1.488v-3.922
		c0-5.543-13.053-8.443-25.947-8.443S0,14.029,0,19.572v20.855c0,5.543,13.055,8.443,25.949,8.443c4.334,0,8.641-0.311,12.324-0.881
		l1.193,0.262l0.105-0.482c0.107-0.018,0.22-0.035,0.325-0.055c0.809-0.15,1.341-0.928,1.191-1.736
		c-0.096-0.51-0.439-0.908-0.884-1.098l0.483-2.205c1.908,2.807,5.098,4.543,8.569,4.543c0.009,0,0.019,0,0.027,0
		c4.774-0.012,8.904-3.256,10.041-7.889C59.424,38.93,59.18,38.527,58.78,38.43z M25.949,14.107c14.862,0,22.97,3.609,22.97,5.465
		c0,1.854-8.107,5.461-22.97,5.461c-14.863,0-22.972-3.607-22.972-5.461C2.978,17.717,11.086,14.107,25.949,14.107z"/>
</g>
</svg>
