<?xml version="1.0" encoding="utf-8"?>
<!-- Generator: Adobe Illustrator 16.0.3, SVG Export Plug-In . SVG Version: 6.00 Build 0)  -->
<!DOCTYPE svg PUBLIC "-//W3C//DTD SVG 1.1//EN" "http://www.w3.org/Graphics/SVG/1.1/DTD/svg11.dtd">
<svg version="1.1" id="Layer_1" xmlns="http://www.w3.org/2000/svg" xmlns:xlink="http://www.w3.org/1999/xlink" x="0px" y="0px"
	 width="60px" height="60px" viewBox="0 0 60 60" enable-background="new 0 0 60 60" xml:space="preserve">
<g>
	<path  d="M37.799,44.198c-3.682,0.685-8.255,1.062-12.875,1.062c-14.276,0-22.063-3.467-22.063-5.248v-2.695
		c4.405,2.72,13.271,4.125,22.063,4.125c3.345,0,6.393-0.192,9.593-0.604c0.784-0.102,1.337-0.818,1.235-1.602
		c-0.101-0.783-0.82-1.334-1.602-1.235c-3.075,0.396-6.007,0.581-9.227,0.581c-14.276,0-22.063-3.467-22.063-5.248v-2.694
		c4.405,2.719,13.271,4.124,22.063,4.124c3.453,0,6.787-0.204,9.912-0.608c0.782-0.102,1.336-0.818,1.234-1.602
		s-0.816-1.334-1.602-1.235c-3.004,0.389-6.215,0.586-9.545,0.586c-14.276,0-22.063-3.468-22.063-5.249V23.96
		c4.405,2.72,13.271,4.124,22.063,4.124c8.807,0,17.686-1.409,22.085-4.136c0.099,0.692,0.688,1.228,1.409,1.228
		c0.791,0,1.431-0.641,1.431-1.431v-3.768c0-5.323-12.538-8.108-24.925-8.108C12.539,11.869,0,14.654,0,19.977v20.035
		c0,5.323,12.539,8.108,24.924,8.108c4.791,0,9.549-0.395,13.398-1.11c0.776-0.145,1.288-0.891,1.145-1.668
		C39.322,44.565,38.576,44.049,37.799,44.198z M24.924,14.729c14.276,0,22.064,3.467,22.064,5.248s-7.788,5.248-22.064,5.248
		S2.86,21.758,2.86,19.977S10.647,14.729,24.924,14.729z"/>
	<path  d="M59.93,33.986c-0.168-0.518-0.615-0.896-1.154-0.974l-6.47-0.94l-2.894-5.861
		c-0.241-0.487-0.738-0.797-1.282-0.797s-1.042,0.31-1.282,0.797l-2.893,5.861l-6.471,0.94c-0.539,0.078-0.986,0.456-1.154,0.974
		s-0.028,1.086,0.361,1.466l4.683,4.563l-1.106,6.443c-0.092,0.537,0.129,1.079,0.569,1.398c0.249,0.182,0.544,0.273,0.841,0.273
		c0.228,0,0.456-0.055,0.665-0.164l5.787-3.042l5.786,3.042c0.482,0.253,1.066,0.211,1.507-0.109
		c0.44-0.319,0.661-0.861,0.569-1.398l-1.105-6.443l4.682-4.563C59.958,35.071,60.098,34.504,59.93,33.986z M52.352,38.492
		c-0.337,0.329-0.491,0.803-0.412,1.267l0.744,4.328l-3.889-2.044c-0.208-0.109-0.437-0.164-0.665-0.164s-0.457,0.055-0.666,0.164
		l-3.887,2.044l0.743-4.328c0.079-0.464-0.074-0.938-0.412-1.267l-3.145-3.065l4.347-0.632c0.466-0.067,0.868-0.36,1.076-0.782
		l1.943-3.938l1.944,3.938c0.208,0.422,0.611,0.715,1.076,0.782l4.347,0.632L52.352,38.492z"/>
</g>
</svg>
