<?xml version="1.0" encoding="utf-8"?>
<!-- Generator: Adobe Illustrator 16.0.3, SVG Export Plug-In . SVG Version: 6.00 Build 0)  -->
<!DOCTYPE svg PUBLIC "-//W3C//DTD SVG 1.1//EN" "http://www.w3.org/Graphics/SVG/1.1/DTD/svg11.dtd">
<svg version="1.1" id="Layer_1" xmlns="http://www.w3.org/2000/svg" xmlns:xlink="http://www.w3.org/1999/xlink" x="0px" y="0px"
	 width="60px" height="60px" viewBox="0 0 60 60" enable-background="new 0 0 60 60" xml:space="preserve">
<g>
	<path  d="M36.409,43.555c-3.533,0.656-7.922,1.019-12.356,1.019c-13.656,0-21.107-3.268-21.107-4.945v-2.365
		c4.376,2.613,12.957,3.838,21.107,3.838c2.538,0,10.789-0.277,15.266-1.508c0.784-0.216,1.245-1.026,1.029-1.811
		c-0.215-0.785-1.028-1.245-1.81-1.03c-3.854,1.06-11.423,1.402-14.485,1.402c-13.656,0-21.107-3.267-21.107-4.945v-2.364
		c4.376,2.612,12.957,3.837,21.107,3.837c3.52,0,12.869,0,19.078-2.105c0.77-0.262,1.183-1.098,0.922-1.868
		c-0.262-0.77-1.097-1.182-1.868-0.922c-5.749,1.95-15.069,1.95-18.132,1.95c-13.656,0-21.107-3.268-21.107-4.946v-2.364
		c4.376,2.613,12.957,3.837,21.107,3.837c8.188,0,16.812-1.235,21.168-3.873c0.174,0.62,0.736,1.077,1.412,1.077
		c0.813,0,1.473-0.659,1.473-1.473v-3.622c0-5.422-12.468-7.891-24.053-7.891C12.469,12.481,0,14.95,0,20.372v19.256
		c0,5.422,12.469,7.891,24.053,7.891c4.61,0,9.189-0.379,12.896-1.068c0.8-0.148,1.327-0.918,1.179-1.717
		C37.978,43.934,37.212,43.403,36.409,43.555z M24.053,15.427c13.657,0,21.107,3.268,21.107,4.945c0,1.679-7.45,4.945-21.107,4.945
		c-13.656,0-21.107-3.267-21.107-4.945C2.945,18.694,10.396,15.427,24.053,15.427z"/>
	<path  d="M59.737,42.936l-9.319-17.153c-0.26-0.478-0.771-0.796-1.304-0.771c-0.544,0.004-1.041,0.307-1.294,0.788
		l-9.09,17.291c-0.24,0.456-0.224,1.005,0.044,1.446c0.267,0.441,0.744,0.711,1.26,0.711h18.483c0.004,0.001,0.007,0.001,0.01,0
		c0.813,0,1.473-0.659,1.473-1.473C60,43.464,59.903,43.174,59.737,42.936z M42.473,42.303l6.673-12.693l6.896,12.693H42.473z"/>
	<rect x="48.325" y="32.672"  width="1.607" height="6.262"/>
	<path  d="M49.129,39.627c-0.275,0-0.511,0.098-0.705,0.291c-0.193,0.194-0.291,0.43-0.291,0.705
		c0,0.276,0.098,0.511,0.291,0.705c0.194,0.194,0.43,0.291,0.705,0.291s0.512-0.098,0.708-0.294c0.195-0.196,0.294-0.43,0.294-0.702
		c0-0.275-0.099-0.511-0.294-0.705C49.641,39.725,49.404,39.627,49.129,39.627z"/>
</g>
</svg>
