<?xml version="1.0" encoding="utf-8"?>
<!-- Generator: Adobe Illustrator 16.0.3, SVG Export Plug-In . SVG Version: 6.00 Build 0)  -->
<!DOCTYPE svg PUBLIC "-//W3C//DTD SVG 1.1//EN" "http://www.w3.org/Graphics/SVG/1.1/DTD/svg11.dtd">
<svg version="1.1" id="Layer_1" xmlns="http://www.w3.org/2000/svg" xmlns:xlink="http://www.w3.org/1999/xlink" x="0px" y="0px"
	 width="60px" height="60px" viewBox="0 0 60 60" enable-background="new 0 0 60 60" xml:space="preserve">
<g>
	<path  d="M44.105,52.571H31.153v-5.646c13.884-0.167,27.565-3.377,27.565-9.369V14.536
		c0-6.155-14.438-9.376-28.7-9.376c-14.261,0-28.697,3.221-28.697,9.376v23.021c0,5.992,13.681,9.202,27.563,9.369v5.646H15.933
		c-0.626,0-1.134,0.508-1.134,1.135c0,0.626,0.508,1.134,1.134,1.134h28.173c0.627,0,1.135-0.508,1.135-1.134
		C45.24,53.079,44.732,52.571,44.105,52.571z M55.316,22.209c0,2.027-8.93,5.973-25.298,5.973c-16.366,0-25.294-3.945-25.294-5.973
		v-3c5.109,3.1,15.241,4.701,25.294,4.701c10.054,0,20.188-1.602,25.298-4.702V22.209z M4.725,26.883
		c5.109,3.1,15.241,4.702,25.294,4.702c10.054,0,20.188-1.603,25.298-4.703v3.002c0,2.026-8.93,5.972-25.298,5.972
		c-16.366,0-25.294-3.945-25.294-5.972V26.883z M30.019,8.563c16.368,0,25.298,3.945,25.298,5.973c0,2.026-8.93,5.971-25.298,5.971
		c-16.366,0-25.294-3.944-25.294-5.971C4.725,12.509,13.652,8.563,30.019,8.563z M4.725,37.557v-3.001
		c5.109,3.101,15.241,4.703,25.294,4.703c10.054,0,20.188-1.603,25.298-4.703v3.001c0,2.027-8.93,5.974-25.298,5.974
		C13.652,43.53,4.725,39.584,4.725,37.557z"/>
	<path  d="M53.234,52.571h-4.562c-0.626,0-1.135,0.508-1.135,1.135c0,0.626,0.509,1.134,1.135,1.134h4.562
		c0.627,0,1.135-0.508,1.135-1.134C54.369,53.079,53.861,52.571,53.234,52.571z"/>
	<path  d="M58.865,52.571h-1.471c-0.626,0-1.134,0.508-1.134,1.135c0,0.626,0.508,1.134,1.134,1.134h1.471
		c0.627,0,1.135-0.508,1.135-1.134C60,53.079,59.492,52.571,58.865,52.571z"/>
	<path  d="M2.607,52.571H1.135C0.508,52.571,0,53.079,0,53.706c0,0.626,0.508,1.134,1.135,1.134h1.473
		c0.627,0,1.135-0.508,1.135-1.134C3.742,53.079,3.234,52.571,2.607,52.571z"/>
	<path  d="M11.327,52.571H6.762c-0.626,0-1.135,0.508-1.135,1.135c0,0.626,0.509,1.134,1.135,1.134h4.565
		c0.627,0,1.135-0.508,1.135-1.134C12.462,53.079,11.954,52.571,11.327,52.571z"/>
</g>
</svg>
