<?xml version="1.0" encoding="utf-8"?>
<!-- Generator: Adobe Illustrator 16.0.3, SVG Export Plug-In . SVG Version: 6.00 Build 0)  -->
<!DOCTYPE svg PUBLIC "-//W3C//DTD SVG 1.1//EN" "http://www.w3.org/Graphics/SVG/1.1/DTD/svg11.dtd">
<svg version="1.1" id="Layer_1" xmlns="http://www.w3.org/2000/svg" xmlns:xlink="http://www.w3.org/1999/xlink" x="0px" y="0px"
	 width="60px" height="60px" viewBox="0 0 60 60" enable-background="new 0 0 60 60" xml:space="preserve">
<g>
	<path  d="M55.408,6.559H4.592C2.06,6.559,0,8.619,0,11.15v29.285c0,2.457,1.938,4.469,4.365,4.586l39.203,8.377
		c0.131,0.027,0.264,0.043,0.397,0.043c3.39,0,4.592-2.111,4.592-3.92v-4.045h6.851c2.531,0,4.592-2.061,4.592-4.594V11.15
		C60,8.619,57.939,6.559,55.408,6.559z M44.759,49.521c0,0.004,0,0.01,0,0.014c-0.102,0.037-0.298,0.088-0.611,0.102L4.988,41.271
		c-0.13-0.029-0.263-0.043-0.396-0.043c-0.438,0-0.793-0.355-0.793-0.793V11.15c0-0.389,0.281-0.713,0.651-0.779l39.118,8.357
		c0.131,0.029,0.243,0.041,0.376,0.041c0.254,0.062,0.814,0.814,0.814,1.467V49.521z M56.201,40.883
		c0,0.438-0.356,0.795-0.793,0.795h-6.851V29.59h3.821c0.524,0,0.949-0.426,0.949-0.949s-0.425-0.949-0.949-0.949h-3.821v-7.455
		c0-2.145-1.466-4.504-3.557-5.111h7.378c0.524,0,0.949-0.426,0.949-0.949c0-0.525-0.425-0.949-0.949-0.949H35.992L22.57,10.357
		h32.838c0.437,0,0.793,0.355,0.793,0.793V40.883z"/>
	<path  d="M37.088,26.818c-2.584,0-4.608,2.906-4.608,6.617c0,3.709,2.024,6.617,4.608,6.617s4.607-2.908,4.607-6.617
		C41.695,29.725,39.672,26.818,37.088,26.818z M37.088,38.152c-1.469,0-2.709-2.16-2.709-4.717c0-2.559,1.24-4.719,2.709-4.719
		c1.468,0,2.708,2.16,2.708,4.719C39.796,35.992,38.556,38.152,37.088,38.152z"/>
</g>
</svg>
