<?xml version="1.0" encoding="utf-8"?>
<!-- Generator: Adobe Illustrator 16.0.3, SVG Export Plug-In . SVG Version: 6.00 Build 0)  -->
<!DOCTYPE svg PUBLIC "-//W3C//DTD SVG 1.1//EN" "http://www.w3.org/Graphics/SVG/1.1/DTD/svg11.dtd">
<svg version="1.1" id="Layer_1" xmlns="http://www.w3.org/2000/svg" xmlns:xlink="http://www.w3.org/1999/xlink" x="0px" y="0px"
	 width="60px" height="60px" viewBox="0 0 60 60" enable-background="new 0 0 60 60" xml:space="preserve">
<g>
	<path  d="M23.473,6.173v9.521c0,0.484,0.394,0.878,0.878,0.878s0.878-0.394,0.878-0.878V6.17l5.018,5.398
		l1.285-1.197l-7.179-7.723l-7.182,7.723l1.286,1.197L23.473,6.173z"/>
	<path  d="M58.244,4.341h-8.224c-0.862,0-1.598,0.627-1.733,1.479l-1.848,11.579H1.756
		c-0.535,0-1.042,0.244-1.375,0.663s-0.457,0.967-0.336,1.488l5.211,22.532c0.184,0.797,0.893,1.36,1.71,1.36h35.317l-0.416,2.611
		H7.732c-0.176,0-0.34,0.033-0.499,0.081c-2.682,0.438-4.735,2.765-4.735,5.568c0,3.114,2.533,5.648,5.647,5.648
		c3.115,0,5.649-2.534,5.649-5.648c0-0.757-0.152-1.478-0.423-2.138h24.101c-0.271,0.66-0.423,1.381-0.423,2.138
		c0,3.114,2.534,5.648,5.648,5.648s5.649-2.534,5.649-5.648c0-2.169-1.23-4.054-3.027-5l6.198-38.851h6.726
		c0.97,0,1.756-0.786,1.756-1.756S59.214,4.341,58.244,4.341z M3.964,20.91h41.915l-3.035,19.021H8.362L3.964,20.91z M10.283,51.703
		c0,1.178-0.959,2.138-2.138,2.138c-1.178,0-2.136-0.96-2.136-2.138c0-1.179,0.958-2.138,2.136-2.138
		C9.324,49.565,10.283,50.524,10.283,51.703z M42.698,53.841c-1.179,0-2.137-0.96-2.137-2.138c0-1.179,0.958-2.138,2.137-2.138
		s2.138,0.959,2.138,2.138C44.836,52.881,43.877,53.841,42.698,53.841z"/>
	<path  d="M11.973,22.303c-0.484,0-0.878,0.393-0.878,0.878v14.48c0,0.484,0.394,0.878,0.878,0.878
		c0.485,0,0.878-0.394,0.878-0.878v-14.48C12.851,22.695,12.458,22.303,11.973,22.303z"/>
	<path  d="M20.556,22.303c-0.485,0-0.878,0.393-0.878,0.878v14.48c0,0.484,0.393,0.878,0.878,0.878
		c0.484,0,0.878-0.394,0.878-0.878v-14.48C21.434,22.695,21.04,22.303,20.556,22.303z"/>
	<path  d="M29.137,22.303c-0.484,0-0.878,0.393-0.878,0.878v14.48c0,0.484,0.394,0.878,0.878,0.878
		s0.878-0.394,0.878-0.878v-14.48C30.015,22.695,29.621,22.303,29.137,22.303z"/>
	<path  d="M37.719,22.303c-0.484,0-0.877,0.393-0.877,0.878v14.48c0,0.484,0.393,0.878,0.877,0.878
		c0.485,0,0.879-0.394,0.879-0.878v-14.48C38.598,22.695,38.204,22.303,37.719,22.303z"/>
</g>
</svg>
