<?xml version="1.0" encoding="utf-8"?>
<!-- Generator: Adobe Illustrator 16.0.3, SVG Export Plug-In . SVG Version: 6.00 Build 0)  -->
<!DOCTYPE svg PUBLIC "-//W3C//DTD SVG 1.1//EN" "http://www.w3.org/Graphics/SVG/1.1/DTD/svg11.dtd">
<svg version="1.1" id="Layer_1" xmlns="http://www.w3.org/2000/svg" xmlns:xlink="http://www.w3.org/1999/xlink" x="0px" y="0px"
	 width="60px" height="60px" viewBox="0 0 60 60" enable-background="new 0 0 60 60" xml:space="preserve">
<g>
	<path  d="M55.897,21.778h-5.133c0.175-0.091,0.342-0.201,0.488-0.348c0.773-0.773,0.773-2.026,0-2.8L38.203,5.58
		c-0.773-0.773-2.026-0.773-2.8,0c-0.772,0.772-0.772,2.025,0,2.799l13.05,13.052c0.146,0.146,0.314,0.257,0.488,0.348H11.073
		c0.175-0.091,0.342-0.201,0.489-0.348L24.613,8.379c0.773-0.772,0.773-2.026,0-2.799c-0.773-0.773-2.026-0.773-2.799,0
		L8.764,18.631c-0.773,0.773-0.773,2.026,0,2.8c0.146,0.146,0.312,0.257,0.488,0.348h-5.15c-1.094,0-1.979,0.886-1.979,1.979v6.096
		c0,1.094,0.885,1.98,1.979,1.98h0.822l3.582,21.512C8.664,54.3,9.49,55,10.458,55h39.389c0.969,0,1.794-0.7,1.953-1.654
		l3.583-21.512h0.515c1.093,0,1.979-0.887,1.979-1.98v-6.096C57.877,22.664,56.99,21.778,55.897,21.778z M6.082,25.737h47.836v2.137
		h-0.213H6.6H6.082V25.737z M48.17,51.041H12.136L8.938,31.834h42.432L48.17,51.041z"/>
	<path  d="M14.331,48.435c0.547,0,0.989-0.443,0.989-0.989V34.475c0-0.547-0.442-0.99-0.989-0.99
		s-0.989,0.443-0.989,0.99v12.971C13.342,47.991,13.784,48.435,14.331,48.435z"/>
	<path  d="M24.672,48.435c0.547,0,0.988-0.443,0.988-0.989V34.475c0-0.547-0.441-0.99-0.988-0.99
		s-0.99,0.443-0.99,0.99v12.971C23.682,47.991,24.125,48.435,24.672,48.435z"/>
	<path  d="M35.012,48.435c0.546,0,0.989-0.443,0.989-0.989V34.475c0-0.547-0.443-0.99-0.989-0.99
		c-0.547,0-0.99,0.443-0.99,0.99v12.971C34.021,47.991,34.465,48.435,35.012,48.435z"/>
	<path  d="M45.352,48.435c0.546,0,0.989-0.443,0.989-0.989V34.475c0-0.547-0.443-0.99-0.989-0.99
		c-0.547,0-0.99,0.443-0.99,0.99v12.971C44.361,47.991,44.805,48.435,45.352,48.435z"/>
</g>
</svg>
