<?xml version="1.0" encoding="utf-8"?>
<!-- Generator: Adobe Illustrator 16.0.3, SVG Export Plug-In . SVG Version: 6.00 Build 0)  -->
<!DOCTYPE svg PUBLIC "-//W3C//DTD SVG 1.1//EN" "http://www.w3.org/Graphics/SVG/1.1/DTD/svg11.dtd">
<svg version="1.1" id="Layer_1" xmlns="http://www.w3.org/2000/svg" xmlns:xlink="http://www.w3.org/1999/xlink" x="0px" y="0px"
	 width="60px" height="60px" viewBox="0 0 60 60" enable-background="new 0 0 60 60" xml:space="preserve">
<g>
	<path  d="M41.86,52.89c0.481,0,0.872-0.391,0.872-0.872V33.409c0-1.81-1.473-3.281-3.282-3.281H21.685
		c-1.809,0-3.281,1.472-3.281,3.281v18.608c0,0.481,0.39,0.872,0.872,0.872s0.872-0.391,0.872-0.872V33.409
		c0-0.848,0.689-1.538,1.538-1.538H39.45c0.849,0,1.538,0.69,1.538,1.538v18.608C40.988,52.499,41.379,52.89,41.86,52.89z"/>
	<path  d="M46.954,22.906c1.357,1.609,3.387,2.636,5.652,2.636c4.076,0,7.394-3.317,7.394-7.395
		c0-0.03-0.008-0.058-0.009-0.087c0.012-0.2-0.006-0.406-0.067-0.61L56.517,6.277c-0.925-3.011-2.727-3.642-4.076-3.642H7.775
		c-2.879,0-3.772,2.717-4.068,3.616l-3.622,11.17c-0.071,0.22-0.094,0.444-0.079,0.661C0.006,18.105,0,18.126,0,18.147
		c0,3.407,2.321,6.277,5.463,7.129c-0.033-0.002-0.064-0.01-0.098-0.01c-0.963,0-1.743,0.781-1.743,1.744v26.2
		c0,2.29,1.863,4.153,4.153,4.153H52.44c2.29,0,4.153-1.863,4.153-4.153v-26.2c0-0.963-0.78-1.744-1.743-1.744
		s-1.743,0.781-1.743,1.744v26.2c0,0.368-0.3,0.667-0.667,0.667H7.775c-0.368,0-0.667-0.299-0.667-0.667v-26.2
		c0-0.715-0.43-1.325-1.044-1.596c0.433,0.08,0.876,0.127,1.331,0.127c2.265,0,4.293-1.026,5.651-2.636
		c1.357,1.609,3.386,2.636,5.652,2.636c2.266,0,4.294-1.026,5.652-2.636c1.357,1.609,3.386,2.636,5.651,2.636
		c2.265,0,4.293-1.026,5.65-2.636c1.357,1.609,3.386,2.636,5.651,2.636S45.597,24.516,46.954,22.906z M41.303,22.055
		c-2.155,0-3.908-1.753-3.908-3.907c0-0.963-0.78-1.744-1.743-1.744s-1.743,0.781-1.743,1.744c0,2.154-1.753,3.907-3.907,3.907
		c-2.155,0-3.908-1.753-3.908-3.907c0-0.963-0.781-1.744-1.743-1.744c-0.963,0-1.744,0.781-1.744,1.744
		c0,2.154-1.753,3.907-3.908,3.907c-2.155,0-3.909-1.753-3.909-3.907c0-0.963-0.78-1.744-1.743-1.744s-1.744,0.781-1.744,1.744
		c0,2.154-1.752,3.907-3.907,3.907c-2.129,0-3.864-1.713-3.904-3.832l3.531-10.89C7.419,6.122,7.65,6.122,7.775,6.122H52.44
		c0.253,0,0.503,0.396,0.743,1.176l3.327,10.91c-0.034,2.127-1.771,3.847-3.904,3.847c-2.156,0-3.909-1.753-3.909-3.907
		c0-0.963-0.78-1.744-1.743-1.744s-1.743,0.781-1.743,1.744C45.211,20.302,43.458,22.055,41.303,22.055z"/>
</g>
</svg>
