<?xml version="1.0" encoding="utf-8"?>
<!-- Generator: Adobe Illustrator 16.0.3, SVG Export Plug-In . SVG Version: 6.00 Build 0)  -->
<!DOCTYPE svg PUBLIC "-//W3C//DTD SVG 1.1//EN" "http://www.w3.org/Graphics/SVG/1.1/DTD/svg11.dtd">
<svg version="1.1" id="Layer_1" xmlns="http://www.w3.org/2000/svg" xmlns:xlink="http://www.w3.org/1999/xlink" x="0px" y="0px"
	 width="60px" height="60px" viewBox="0 0 60 60" enable-background="new 0 0 60 60" xml:space="preserve">
<g>
	<path  d="M30,0C13.458,0,0,13.458,0,30s13.458,30,30,30s30-13.458,30-30S46.542,0,30,0z M30,55.868
		C15.736,55.868,4.132,44.264,4.132,30S15.736,4.132,30,4.132S55.868,15.736,55.868,30S44.264,55.868,30,55.868z"/>
	<path  d="M31.441,20.197c1.903,0,3.501,0.408,4.623,0.952l0.714-2.414c-0.782-0.408-2.583-1.021-5.438-1.021
		c-0.104,0-0.203,0.012-0.307,0.014v-5.182c0-0.57-0.463-1.033-1.033-1.033s-1.033,0.463-1.033,1.033v5.367
		c-5.789,0.966-9.592,5.494-9.592,11.834c0,6.824,4.016,10.803,9.592,11.477v4.29c0,0.57,0.463,1.032,1.033,1.032
		s1.033-0.462,1.033-1.032v-4.184c2.621-0.042,4.669-0.558,5.711-1.079l-0.612-2.346c-1.189,0.578-3.024,0.952-4.826,0.952
		c-0.093,0-0.181-0.01-0.272-0.012V20.214C31.17,20.209,31.303,20.197,31.441,20.197z M28.967,38.611
		c-4.124-0.888-6.465-4.196-6.465-8.965c0-5.033,2.504-8.25,6.465-9.169V38.611z"/>
</g>
</svg>
