<?xml version="1.0" encoding="utf-8"?>
<!-- Generator: Adobe Illustrator 16.0.3, SVG Export Plug-In . SVG Version: 6.00 Build 0)  -->
<!DOCTYPE svg PUBLIC "-//W3C//DTD SVG 1.1//EN" "http://www.w3.org/Graphics/SVG/1.1/DTD/svg11.dtd">
<svg version="1.1" id="Layer_1" xmlns="http://www.w3.org/2000/svg" xmlns:xlink="http://www.w3.org/1999/xlink" x="0px" y="0px"
	 width="60px" height="60px" viewBox="0 0 60 60" enable-background="new 0 0 60 60" xml:space="preserve">
<g>
	<path  d="M51.213,8.788C45.547,3.121,38.014,0,30,0S14.453,3.121,8.787,8.788C3.121,14.454,0,21.987,0,30.001
		c0,8.013,3.121,15.546,8.787,21.213C14.453,56.88,21.986,60,30,60s15.547-3.12,21.213-8.786C56.881,45.547,60,38.014,60,30
		S56.881,14.453,51.213,8.788z M48.293,48.293C43.406,53.178,36.91,55.868,30,55.868c-6.908,0-13.404-2.69-18.291-7.575
		C6.822,43.406,4.131,36.91,4.131,30.001c0-6.91,2.691-13.405,7.578-18.292S23.092,4.132,30,4.132c6.91,0,13.406,2.69,18.293,7.577
		c4.885,4.886,7.574,11.382,7.574,18.291C55.867,36.91,53.178,43.406,48.293,48.293z"/>
	<path  d="M43.688,16.312c-0.807-0.807-2.115-0.807-2.92,0l-5.162,5.163c-1.65-1.09-3.582-1.677-5.605-1.677
		s-3.955,0.587-5.605,1.677l-5.16-5.163c-0.807-0.807-2.115-0.807-2.922,0s-0.807,2.115,0,2.922l5.162,5.162
		c-1.09,1.649-1.676,3.581-1.676,5.604s0.588,3.954,1.676,5.604l-5.273,5.273c-0.805,0.807-0.805,2.114,0,2.921
		c0.404,0.403,0.934,0.605,1.463,0.605c0.527,0,1.057-0.202,1.459-0.605l5.273-5.273c1.648,1.089,3.58,1.677,5.604,1.677
		c1.969,0,3.846-0.562,5.467-1.594l5.189,5.19c0.404,0.403,0.932,0.605,1.461,0.605s1.057-0.202,1.461-0.605
		c0.807-0.807,0.807-2.114,0-2.921l-5.145-5.146c2.314-3.403,2.35-7.904,0.092-11.336l5.162-5.162
		C44.496,18.428,44.496,17.119,43.688,16.312z M25.709,34.293C24.562,33.146,23.93,31.621,23.93,30s0.631-3.146,1.779-4.292
		c1.145-1.146,2.67-1.778,4.291-1.778c1.623,0,3.148,0.633,4.293,1.778c2.367,2.367,2.367,6.218,0,8.585
		C33.146,35.438,31.621,36.07,30,36.07S26.854,35.438,25.709,34.293z"/>
</g>
</svg>
