<?xml version="1.0" encoding="utf-8"?>
<!-- Generator: Adobe Illustrator 16.0.3, SVG Export Plug-In . SVG Version: 6.00 Build 0)  -->
<!DOCTYPE svg PUBLIC "-//W3C//DTD SVG 1.1//EN" "http://www.w3.org/Graphics/SVG/1.1/DTD/svg11.dtd">
<svg version="1.1" id="Layer_1" xmlns="http://www.w3.org/2000/svg" xmlns:xlink="http://www.w3.org/1999/xlink" x="0px" y="0px"
	 width="60px" height="60px" viewBox="0 0 60 60" enable-background="new 0 0 60 60" xml:space="preserve">
<g>
	<path  d="M27.449,43.045H11.309L8.463,26.432H46.32l-0.961,3.643c-0.258,0.978,0.326,1.979,1.303,2.236
		c0.98,0.258,1.978-0.326,2.235-1.304l1.206-4.575h0.562c1.011,0,1.83-0.818,1.83-1.829v-6.067c0-1.01-0.819-1.829-1.83-1.829H4.045
		c-1.011,0-1.83,0.819-1.83,1.829v6.067c0,1.011,0.819,1.829,1.83,1.829H4.75l3.212,18.752c0.15,0.879,0.912,1.521,1.804,1.521
		h17.684c1.01,0,1.829-0.819,1.829-1.829C29.278,43.864,28.459,43.045,27.449,43.045z M5.874,20.365h42.962v2.407h-0.143h-42.4
		H5.874V20.365z"/>
	<path  d="M9.5,15.406c0.468,0,0.936-0.178,1.293-0.535L22.54,3.123c0.715-0.714,0.715-1.873,0-2.587
		c-0.714-0.714-1.872-0.714-2.587,0L8.206,12.284c-0.715,0.714-0.715,1.873,0,2.587C8.563,15.229,9.031,15.406,9.5,15.406z"/>
	<path  d="M43.933,14.871c0.357,0.357,0.825,0.535,1.293,0.535c0.469,0,0.937-0.178,1.294-0.535
		c0.715-0.715,0.715-1.873,0-2.587L34.771,0.536c-0.714-0.714-1.872-0.714-2.587,0c-0.714,0.714-0.714,1.873,0,2.587L43.933,14.871z
		"/>
	<path  d="M48.693,45.871l-8.655,0.002c-0.506,0-0.915,0.41-0.915,0.915c0,0.506,0.41,0.915,0.915,0.915l8.655-0.002
		c0.506,0,0.915-0.41,0.915-0.915C49.608,46.28,49.198,45.871,48.693,45.871z"/>
	<path  d="M44.579,33.595c-7.279,0-13.201,5.923-13.201,13.202c-0.001,3.527,1.372,6.843,3.867,9.337
		C37.739,58.627,41.055,60,44.58,60c7.28,0,13.204-5.923,13.205-13.203C57.784,39.517,51.859,33.594,44.579,33.595z M44.58,56.342
		c-2.549,0-4.945-0.993-6.748-2.796c-1.804-1.803-2.796-4.199-2.795-6.749c0-2.549,0.992-4.945,2.795-6.748s4.199-2.795,6.748-2.795
		c0.001,0,0.001,0,0.001,0c5.263,0,9.544,4.281,9.545,9.543C54.125,52.06,49.843,56.342,44.58,56.342z"/>
</g>
</svg>
