<?xml version="1.0" encoding="utf-8"?>
<!-- Generator: Adobe Illustrator 16.0.3, SVG Export Plug-In . SVG Version: 6.00 Build 0)  -->
<!DOCTYPE svg PUBLIC "-//W3C//DTD SVG 1.1//EN" "http://www.w3.org/Graphics/SVG/1.1/DTD/svg11.dtd">
<svg version="1.1" id="Layer_1" xmlns="http://www.w3.org/2000/svg" xmlns:xlink="http://www.w3.org/1999/xlink" x="0px" y="0px"
	 width="60px" height="60px" viewBox="0 0 60 60" enable-background="new 0 0 60 60" xml:space="preserve">
<g>
	<path  d="M54.751,9.866H5.25C2.355,9.866,0,12.221,0,15.115v29.77c0,2.895,2.355,5.249,5.25,5.249h49.501
		c2.895,0,5.249-2.354,5.249-5.249v-29.77C60,12.221,57.646,9.866,54.751,9.866z M3.977,20.318h52.047v4.488H3.977V20.318z
		 M5.25,13.843h49.501c0.701,0,1.272,0.57,1.272,1.272v3.215H3.977v-3.215C3.977,14.413,4.548,13.843,5.25,13.843z M54.751,46.157
		H5.25c-0.702,0-1.273-0.57-1.273-1.272v-18.09h52.047v18.09C56.023,45.587,55.452,46.157,54.751,46.157z"/>
	<path  d="M11.468,35.554H7.491c-0.549,0-0.994,0.445-0.994,0.994s0.445,0.994,0.994,0.994h3.977
		c0.549,0,0.994-0.445,0.994-0.994S12.017,35.554,11.468,35.554z"/>
	<path  d="M25.814,35.554h-3.977c-0.549,0-0.994,0.445-0.994,0.994s0.445,0.994,0.994,0.994h3.977
		c0.549,0,0.994-0.445,0.994-0.994S26.363,35.554,25.814,35.554z"/>
	<path  d="M45.315,29.337c-1.65,0-3.169,0.562-4.389,1.495c-1.219-0.933-2.737-1.495-4.388-1.495
		c-3.992,0-7.24,3.248-7.24,7.239c0,3.992,3.248,7.24,7.24,7.24c1.65,0,3.169-0.562,4.388-1.496c1.22,0.934,2.738,1.496,4.389,1.496
		c3.991,0,7.239-3.248,7.239-7.24C52.555,32.585,49.307,29.337,45.315,29.337z M40.927,40.526c-0.944-1.048-1.525-2.431-1.525-3.95
		c0-1.519,0.581-2.901,1.525-3.949c0.945,1.048,1.525,2.431,1.525,3.949C42.452,38.096,41.872,39.479,40.927,40.526z M30.624,36.576
		c0-3.261,2.653-5.913,5.915-5.913c1.266,0,2.438,0.403,3.399,1.083c-1.153,1.283-1.862,2.974-1.862,4.83
		c0,1.857,0.709,3.548,1.862,4.831c-0.962,0.68-2.134,1.083-3.399,1.083C33.277,42.49,30.624,39.837,30.624,36.576z M45.315,42.49
		c-1.266,0-2.438-0.403-3.4-1.083c1.154-1.283,1.862-2.974,1.862-4.831c0-1.856-0.708-3.547-1.862-4.83
		c0.963-0.68,2.135-1.083,3.4-1.083c3.261,0,5.914,2.652,5.914,5.913S48.576,42.49,45.315,42.49z"/>
</g>
</svg>
