<?xml version="1.0" encoding="utf-8"?>
<!-- Generator: Adobe Illustrator 16.0.3, SVG Export Plug-In . SVG Version: 6.00 Build 0)  -->
<!DOCTYPE svg PUBLIC "-//W3C//DTD SVG 1.1//EN" "http://www.w3.org/Graphics/SVG/1.1/DTD/svg11.dtd">
<svg version="1.1" id="Layer_1" xmlns="http://www.w3.org/2000/svg" xmlns:xlink="http://www.w3.org/1999/xlink" x="0px" y="0px"
	 width="60px" height="60px" viewBox="0 0 60 60" enable-background="new 0 0 60 60" xml:space="preserve">
<g>
	<path  d="M21.926,45.669c2.41,1.278,5.135,1.953,7.881,1.953c2.657,0,5.2-0.601,7.559-1.786
		c0.373-0.188,0.523-0.643,0.336-1.016c-0.188-0.374-0.643-0.524-1.016-0.336c-2.146,1.078-4.459,1.625-6.879,1.625
		c-2.5,0-4.979-0.614-7.172-1.776c-0.369-0.196-0.826-0.056-1.023,0.313C21.416,45.016,21.557,45.474,21.926,45.669z"/>
	<path  d="M38.757,14.949c-2.677-1.683-5.771-2.571-8.95-2.571c-3.005,0-5.953,0.801-8.528,2.315
		c-0.36,0.212-0.479,0.676-0.269,1.036c0.212,0.36,0.676,0.479,1.036,0.268c2.343-1.378,5.026-2.106,7.761-2.106
		c2.894,0,5.71,0.81,8.146,2.339c0.125,0.079,0.265,0.117,0.402,0.117c0.251,0,0.497-0.126,0.641-0.354
		C39.218,15.639,39.111,15.172,38.757,14.949z"/>
	<path  d="M59.881,41.102l-3.159-10.806l3.199-10.239c0.144-0.46,0.06-0.96-0.226-1.348s-0.737-0.617-1.219-0.617
		h-9.188c-0.661-1.08-1.412-2.113-2.248-3.075c-4.342-4.991-10.624-7.853-17.234-7.853c-6.609,0-12.89,2.861-17.231,7.851
		c-0.836,0.961-1.587,1.995-2.249,3.077H1.513c-0.481,0-0.935,0.229-1.22,0.617c-0.285,0.389-0.368,0.889-0.225,1.349l3.199,10.218
		L0.061,41.267c-0.134,0.458-0.044,0.95,0.241,1.332c0.286,0.381,0.734,0.605,1.211,0.605h9.675
		c0.992,1.397,2.133,2.689,3.414,3.834c4.188,3.739,9.587,5.798,15.205,5.798c5.908,0,11.514-2.248,15.783-6.33
		c1.051-1.006,2-2.117,2.841-3.302h10.046h0.01c0.836,0,1.514-0.678,1.514-1.514C60,41.481,59.957,41.283,59.881,41.102z
		 M14.857,17.002c3.768-4.329,9.216-6.812,14.949-6.812c5.734,0,11.185,2.483,14.951,6.812c0.306,0.353,0.595,0.718,0.875,1.09
		h-31.65C14.263,17.72,14.552,17.354,14.857,17.002z M43.498,44.318c-3.703,3.542-8.566,5.492-13.691,5.492
		c-4.873,0-9.558-1.786-13.189-5.029c-0.554-0.495-1.074-1.025-1.568-1.577h29.518C44.223,43.587,43.87,43.963,43.498,44.318z
		 M3.53,40.178l2.771-9.493c0.084-0.287,0.08-0.592-0.008-0.876l-2.721-8.69h52.847l-2.722,8.712
		c-0.089,0.284-0.092,0.59-0.008,0.876l2.769,9.472H3.53z"/>
	<path  d="M22.023,29.179c0,1.754,0.033,3.123,0.166,4.626l-0.033,0.017c-0.534-1.152-1.186-2.338-2.02-3.657
		l-3.607-5.694h-1.586v11.256h1.369v-4.811c0-1.869-0.034-3.223-0.117-4.642l0.051-0.017c0.566,1.219,1.318,2.505,2.104,3.758
		l3.573,5.711h1.47V24.47h-1.369V29.179z"/>
	<polygon  points="27.385,30.448 31.76,30.448 31.76,29.246 27.385,29.246 27.385,25.689 32.01,25.689 32.01,24.47 
		25.932,24.47 25.932,35.726 32.26,35.726 32.26,34.506 27.385,34.506 	"/>
	<path  d="M44.051,30.147c-0.351,1.403-0.668,2.655-0.902,3.891h-0.033c-0.167-1.185-0.467-2.521-0.785-3.857
		l-1.369-5.711h-1.52l-1.503,5.678c-0.384,1.453-0.734,2.789-0.918,3.908h-0.033c-0.2-1.086-0.501-2.488-0.835-3.892l-1.336-5.694
		h-1.537l2.856,11.256h1.519l1.604-5.862c0.418-1.452,0.668-2.555,0.868-3.673h0.034c0.15,1.135,0.384,2.237,0.734,3.673l1.42,5.862
		h1.52l3.189-11.256h-1.486L44.051,30.147z"/>
</g>
</svg>
