<?xml version="1.0" encoding="utf-8"?>
<!-- Generator: Adobe Illustrator 16.0.3, SVG Export Plug-In . SVG Version: 6.00 Build 0)  -->
<!DOCTYPE svg PUBLIC "-//W3C//DTD SVG 1.1//EN" "http://www.w3.org/Graphics/SVG/1.1/DTD/svg11.dtd">
<svg version="1.1" id="Layer_1" xmlns="http://www.w3.org/2000/svg" xmlns:xlink="http://www.w3.org/1999/xlink" x="0px" y="0px"
	 width="60px" height="60px" viewBox="0 0 60 60" enable-background="new 0 0 60 60" xml:space="preserve">
<g>
	<path  d="M30,0C13.458,0,0,13.458,0,30s13.458,30,30,30s30-13.458,30-30S46.542,0,30,0z M30,55.868
		C15.736,55.868,4.132,44.264,4.132,30S15.736,4.132,30,4.132S55.868,15.736,55.868,30S44.264,55.868,30,55.868z"/>
	<path  d="M34.834,18.421l-3.671,6.934c-0.577,1.156-1.02,2.21-1.358,3.161h-0.103
		c-0.408-1.02-0.815-1.938-1.359-3.093l-3.535-7.002h-3.195l5.711,10.299h-4.419v1.7h5.268v2.447h-5.268v1.699h5.268v5.948h2.822
		v-5.948h5.302v-1.699h-5.302V30.42h5.302v-1.7h-4.418l6.084-10.299H34.834z"/>
</g>
</svg>
