<?xml version="1.0" encoding="utf-8"?>
<!-- Generator: Adobe Illustrator 16.0.3, SVG Export Plug-In . SVG Version: 6.00 Build 0)  -->
<!DOCTYPE svg PUBLIC "-//W3C//DTD SVG 1.1//EN" "http://www.w3.org/Graphics/SVG/1.1/DTD/svg11.dtd">
<svg version="1.1" id="Layer_1" xmlns="http://www.w3.org/2000/svg" xmlns:xlink="http://www.w3.org/1999/xlink" x="0px" y="0px"
	 width="60px" height="60px" viewBox="0 0 60 60" enable-background="new 0 0 60 60" xml:space="preserve">
<g>
	<path  d="M30,0C13.458,0,0,13.458,0,30s13.458,30,30,30s30-13.458,30-30S46.542,0,30,0z M30,55.868
		C15.736,55.868,4.132,44.264,4.132,30S15.736,4.132,30,4.132S55.868,15.736,55.868,30S44.264,55.868,30,55.868z"/>
	<path  d="M30.883,27.904c-2.957-1.225-4.215-2.107-4.215-3.875c0-1.359,0.985-2.924,3.603-2.924
		c2.176,0,3.57,0.748,4.283,1.156l0.85-2.244c-0.985-0.577-2.379-1.121-4.418-1.189v-3.297h-2.107v3.433
		c-3.127,0.51-5.133,2.651-5.133,5.473c0,2.958,2.142,4.521,5.608,5.881c2.516,1.02,3.841,2.176,3.841,4.045
		c0,1.938-1.632,3.331-4.045,3.331c-1.903,0-3.671-0.646-4.895-1.462l-0.815,2.278c1.189,0.849,3.229,1.461,5.2,1.495v3.433h2.142
		v-3.535c3.501-0.577,5.37-3.093,5.37-5.778C36.151,31.1,34.385,29.332,30.883,27.904z"/>
</g>
</svg>
