<?xml version="1.0" encoding="utf-8"?>
<!-- Generator: Adobe Illustrator 16.0.3, SVG Export Plug-In . SVG Version: 6.00 Build 0)  -->
<!DOCTYPE svg PUBLIC "-//W3C//DTD SVG 1.1//EN" "http://www.w3.org/Graphics/SVG/1.1/DTD/svg11.dtd">
<svg version="1.1" id="Layer_1" xmlns="http://www.w3.org/2000/svg" xmlns:xlink="http://www.w3.org/1999/xlink" x="0px" y="0px"
	 width="60px" height="60px" viewBox="0 0 60 60" enable-background="new 0 0 60 60" xml:space="preserve">
<g>
	<path  d="M58.201,3.441h-8.058c-0.907,0-1.673,0.676-1.784,1.576l-4.408,35.462H1.799
		C0.805,40.479,0,41.285,0,42.278s0.805,1.798,1.799,1.798h43.74c0.908,0,1.673-0.676,1.785-1.576l4.408-35.462h6.469
		C59.195,7.038,60,6.232,60,5.24C60,4.247,59.195,3.441,58.201,3.441z"/>
	<path  d="M9.494,45.333c-3.094,0-5.612,2.518-5.612,5.612s2.519,5.613,5.612,5.613c3.096,0,5.613-2.519,5.613-5.613
		S12.59,45.333,9.494,45.333z M9.494,52.962c-1.111,0-2.016-0.904-2.016-2.017c0-1.111,0.904-2.016,2.016-2.016
		c1.112,0,2.017,0.904,2.017,2.016C11.511,52.058,10.606,52.962,9.494,52.962z"/>
	<path  d="M39.516,45.333c-3.096,0-5.613,2.518-5.613,5.612s2.518,5.613,5.613,5.613c3.094,0,5.611-2.519,5.611-5.613
		S42.609,45.333,39.516,45.333z M39.516,52.962c-1.113,0-2.018-0.904-2.018-2.017c0-1.111,0.904-2.016,2.018-2.016
		c1.111,0,2.016,0.904,2.016,2.016C41.531,52.058,40.627,52.962,39.516,52.962z"/>
	<path  d="M6.831,37.322h31.511c2.685,0,4.869-2.185,4.869-4.869v-18.29c0-2.684-2.185-4.867-4.869-4.867h-6.544
		v-0.39c0-2.536-2.184-4.599-4.868-4.599h-7.599c-2.684,0-4.868,2.062-4.868,4.599v0.39H6.831c-2.684,0-4.868,2.184-4.868,4.867
		v18.29C1.963,35.138,4.147,37.322,6.831,37.322z M18.06,8.906c0-0.544,0.583-1.003,1.271-1.003h7.599
		c0.689,0,1.271,0.459,1.271,1.003v0.39H18.06V8.906z M5.56,14.163c0-0.701,0.57-1.271,1.271-1.271h31.511
		c0.701,0,1.272,0.57,1.272,1.271v18.29c0,0.701-0.571,1.272-1.272,1.272H6.831c-0.701,0-1.271-0.571-1.271-1.272V14.163z"/>
	<path  d="M9.494,24.208H35.7c0.497,0,0.899-0.402,0.899-0.899c0-0.496-0.402-0.899-0.899-0.899H9.494
		c-0.496,0-0.898,0.403-0.898,0.899C8.596,23.806,8.998,24.208,9.494,24.208z"/>
	<path  d="M9.494,18.855H35.7c0.497,0,0.899-0.402,0.899-0.899c0-0.496-0.402-0.899-0.899-0.899H9.494
		c-0.496,0-0.898,0.403-0.898,0.899C8.596,18.453,8.998,18.855,9.494,18.855z"/>
	<path  d="M9.494,29.836H35.7c0.497,0,0.899-0.403,0.899-0.899s-0.402-0.899-0.899-0.899H9.494
		c-0.496,0-0.898,0.403-0.898,0.899S8.998,29.836,9.494,29.836z"/>
</g>
</svg>
