<?xml version="1.0" encoding="utf-8"?>
<!-- Generator: Adobe Illustrator 16.0.3, SVG Export Plug-In . SVG Version: 6.00 Build 0)  -->
<!DOCTYPE svg PUBLIC "-//W3C//DTD SVG 1.1//EN" "http://www.w3.org/Graphics/SVG/1.1/DTD/svg11.dtd">
<svg version="1.1" id="Layer_1" xmlns="http://www.w3.org/2000/svg" xmlns:xlink="http://www.w3.org/1999/xlink" x="0px" y="0px"
	 width="60px" height="60px" viewBox="0 0 60 60" enable-background="new 0 0 60 60" xml:space="preserve">
<g>
	<path  d="M30.001,0C13.458,0,0,13.458,0,30s13.458,30,30.001,30C46.543,60,60,46.542,60,30S46.543,0,30.001,0z
		 M30.001,55.868C15.736,55.868,4.132,44.264,4.132,30S15.736,4.132,30.001,4.132c14.264,0,25.867,11.604,25.867,25.868
		S44.265,55.868,30.001,55.868z"/>
	<path  d="M31.878,38.926c-1.836,0-3.535-0.646-4.793-1.971c-0.918-1.02-1.598-2.481-1.869-4.453h9.619v-1.666h-9.857
		c0-0.237,0-0.407,0-0.611c0-0.477,0.034-0.986,0.067-1.428h9.79v-1.7h-9.483c0.34-1.802,1.02-3.33,2.039-4.316
		c1.156-1.224,2.651-1.869,4.487-1.869c1.529,0,2.957,0.441,3.807,0.951l0.68-2.243c-0.951-0.51-2.516-1.088-4.521-1.088
		c-2.787,0-4.997,1.02-6.73,2.821c-1.359,1.394-2.379,3.365-2.787,5.744h-2.243v1.7h2.006c-0.035,0.476-0.068,0.986-0.068,1.529
		c0,0.17,0,0.34,0,0.51h-1.938v1.666h2.107c0.306,2.447,1.155,4.418,2.447,5.846c1.699,1.972,4.146,3.025,6.9,3.025
		c2.243,0,4.011-0.713,5.064-1.428l-0.578-2.141C35.242,38.246,33.679,38.926,31.878,38.926z"/>
</g>
</svg>
