<?xml version="1.0" encoding="utf-8"?>
<!-- Generator: Adobe Illustrator 16.0.3, SVG Export Plug-In . SVG Version: 6.00 Build 0)  -->
<!DOCTYPE svg PUBLIC "-//W3C//DTD SVG 1.1//EN" "http://www.w3.org/Graphics/SVG/1.1/DTD/svg11.dtd">
<svg version="1.1" id="Layer_1" xmlns="http://www.w3.org/2000/svg" xmlns:xlink="http://www.w3.org/1999/xlink" x="0px" y="0px"
	 width="60px" height="60px" viewBox="0 0 60 60" enable-background="new 0 0 60 60" xml:space="preserve">
<g>
	<path  d="M58.213,2.34h-8.335c-0.869,0-1.611,0.625-1.761,1.481l-1.249,7.192H1.787c-0.524,0-1.022,0.23-1.362,0.63
		c-0.339,0.399-0.486,0.928-0.401,1.445l3.148,19.28C3.298,33.146,3.92,33.75,4.7,33.854l37.344,4.956l-0.415,2.39H7.021
		c-0.987,0-1.787,0.8-1.787,1.787s0.8,1.787,1.787,1.787h36.112c0.869,0,1.612-0.625,1.761-1.481l0.99-5.703c0,0,0,0,0-0.001
		l2.658-15.31l2.841-16.363h6.83C59.2,5.915,60,5.114,60,4.128C60,3.141,59.2,2.34,58.213,2.34z M6.485,30.484L3.89,14.589h42.358
		l-3.593,20.695L6.485,30.484z"/>
	<path  d="M38.812,46.195c-3.16,0-5.732,2.571-5.732,5.732s2.572,5.732,5.732,5.732c3.161,0,5.732-2.571,5.732-5.732
		S41.973,46.195,38.812,46.195z M38.812,54.086c-1.19,0-2.158-0.969-2.158-2.158s0.968-2.157,2.158-2.157
		c1.189,0,2.158,0.968,2.158,2.157S40.001,54.086,38.812,54.086z"/>
	<path  d="M8.79,46.195c-3.161,0-5.732,2.571-5.732,5.732S5.629,57.66,8.79,57.66s5.732-2.571,5.732-5.732
		S11.951,46.195,8.79,46.195z M8.79,54.086c-1.189,0-2.157-0.969-2.157-2.158s0.968-2.157,2.157-2.157s2.158,0.968,2.158,2.157
		S9.979,54.086,8.79,54.086z"/>
</g>
</svg>
