<?xml version="1.0" encoding="utf-8"?>
<!-- Generator: Adobe Illustrator 16.0.3, SVG Export Plug-In . SVG Version: 6.00 Build 0)  -->
<!DOCTYPE svg PUBLIC "-//W3C//DTD SVG 1.1//EN" "http://www.w3.org/Graphics/SVG/1.1/DTD/svg11.dtd">
<svg version="1.1" id="Layer_1" xmlns="http://www.w3.org/2000/svg" xmlns:xlink="http://www.w3.org/1999/xlink" x="0px" y="0px"
	 width="60px" height="60px" viewBox="0 0 60 60" enable-background="new 0 0 60 60" xml:space="preserve">
<g>
	<path  d="M23.61,24.037c-3.906-0.646-6.684,0.83-8.022,4.598l-0.373-0.062c-0.559-0.094-1.074,0.275-1.165,0.834
		c-0.093,0.558,0.275,1.073,0.834,1.166l0.163,0.026l-0.17,1.023l-0.163-0.028c-0.557-0.091-1.072,0.277-1.165,0.836
		c-0.092,0.558,0.277,1.073,0.834,1.165l0.396,0.065c0.109,3.961,2.299,6.043,6.134,6.678c2.488,0.41,4.821-0.254,6.184-1.559
		c0.169-0.163,0.303-0.38,0.348-0.657c0.116-0.698-0.351-1.35-1.049-1.466c-0.324-0.053-0.648,0.037-1.084,0.349
		c-1.305,0.953-2.277,1.198-3.997,0.914c-2.326-0.384-3.5-1.512-3.697-3.789l2.814,0.466c0.557,0.092,1.072-0.277,1.164-0.835
		c0.093-0.559-0.276-1.072-0.833-1.166l-3.094-0.511l0.17-1.023l3.092,0.512c0.559,0.093,1.072-0.276,1.166-0.834
		c0.091-0.559-0.277-1.074-0.834-1.165L18.4,29.101c0.904-2.145,2.437-3.037,4.809-2.645c1.699,0.281,2.607,1.004,3.359,2.229
		c0.245,0.398,0.551,0.568,0.877,0.622c0.698,0.115,1.348-0.351,1.459-1.024c0.041-0.255,0.011-0.5-0.129-0.811
		C28.052,25.919,26.423,24.503,23.61,24.037z"/>
	<path  d="M54.228,44.035L38.594,7.256c-0.66-1.555-1.961-2.226-3.197-2.559c-0.395-0.16-0.813-0.263-1.248-0.303
		L14.181,2.519c-2.46-0.225-4.587,1.566-4.816,3.99L5.45,48.204c-0.11,1.176,0.244,2.325,0.998,3.233
		c0.753,0.911,1.815,1.472,2.991,1.583l8.764,0.823c0.449,2.026,2.254,3.427,4.265,3.427c0.279,0,0.561-0.026,0.845-0.082
		l6.086-1.192c0.444,0.519,1.006,0.928,1.654,1.188c0.521,0.211,1.065,0.315,1.609,0.315c0.571,0,1.141-0.114,1.68-0.345
		l17.613-7.487C54.134,48.741,55.152,46.214,54.228,44.035z M42.027,50.134l-7.952,1.559c0.069-0.254,0.12-0.516,0.146-0.785
		l2.924-31.15L42.856,48.9C42.968,49.47,42.597,50.022,42.027,50.134z M9.008,49.317c-0.186-0.226-0.273-0.511-0.247-0.803
		l3.916-41.695c0.052-0.558,0.529-0.994,1.088-0.994c0.034,0,0.07,0.001,0.106,0.005l19.094,1.794
		c0.027,0.007,0.054,0.02,0.08,0.025c0.371,0.077,1.021,0.215,1.435,0.349c0.034,0.032,0.068,0.062,0.099,0.099
		c0.188,0.226,0.275,0.511,0.247,0.802l-3.916,41.698c-0.056,0.591-0.603,1.038-1.192,0.988L9.751,49.71
		C9.459,49.683,9.196,49.543,9.008,49.317z M50.653,46.607l-4.497,1.912c-0.011-0.086-0.02-0.172-0.036-0.258l-5.378-27.448
		l10.424,24.522C51.375,45.829,51.146,46.398,50.653,46.607z"/>
	<path  d="M22.998,15.879c0.097,0.01,0.193,0.013,0.29,0.013c1.595,0,2.911-1.198,3.06-2.788
		c0.157-1.688-1.087-3.19-2.775-3.35c-1.717-0.157-3.19,1.089-3.35,2.774c-0.077,0.818,0.17,1.618,0.695,2.25
		C21.44,15.412,22.18,15.802,22.998,15.879z M23.282,11.402c0.045,0,0.09,0.002,0.135,0.007c0.775,0.073,1.348,0.764,1.274,1.539
		c-0.071,0.774-0.739,1.352-1.538,1.275c-0.376-0.035-0.716-0.215-0.956-0.505c-0.241-0.291-0.354-0.658-0.32-1.033
		C21.947,11.954,22.552,11.402,23.282,11.402z"/>
</g>
</svg>
