<?xml version="1.0" encoding="utf-8"?>
<!-- Generator: Adobe Illustrator 16.0.3, SVG Export Plug-In . SVG Version: 6.00 Build 0)  -->
<!DOCTYPE svg PUBLIC "-//W3C//DTD SVG 1.1//EN" "http://www.w3.org/Graphics/SVG/1.1/DTD/svg11.dtd">
<svg version="1.1" id="Layer_1" xmlns="http://www.w3.org/2000/svg" xmlns:xlink="http://www.w3.org/1999/xlink" x="0px" y="0px"
	 width="60px" height="60px" viewBox="0 0 60 60" enable-background="new 0 0 60 60" xml:space="preserve">
<g>
	<path  d="M40.865,2.5H19.136c-2.653,0-4.812,2.158-4.812,4.812v45.376c0,2.653,2.158,4.812,4.812,4.812h21.729
		c2.652,0,4.811-2.159,4.811-4.812V7.312C45.676,4.658,43.518,2.5,40.865,2.5z M42.03,52.688c0,0.644-0.522,1.167-1.165,1.167
		H19.136c-0.643,0-1.166-0.523-1.166-1.167V7.312c0-0.643,0.523-1.166,1.166-1.166h21.729c0.643,0,1.165,0.523,1.165,1.166V52.688z"
		/>
	<path  d="M30,16.05c1.843,0,3.343-1.5,3.343-3.343c0-1.844-1.5-3.344-3.343-3.344s-3.343,1.5-3.343,3.344
		C26.657,14.55,28.157,16.05,30,16.05z M30,11.187c0.838,0,1.52,0.682,1.52,1.521c0,0.838-0.682,1.52-1.52,1.52
		s-1.52-0.682-1.52-1.52C28.48,11.868,29.162,11.187,30,11.187z"/>
	<path  d="M26.742,29.033c0-1.195,0.928-2.359,3.407-2.359c1.703,0,3.256,0.687,4.184,1.583
		c0.446,0.418,0.864,0.657,1.283,0.657c0.897,0,1.613-0.717,1.613-1.584c0-0.357-0.119-0.686-0.299-0.955
		c-1.016-1.434-2.987-2.391-5.378-2.688v-1.733c0-0.777-0.627-1.403-1.403-1.403c-0.747,0-1.375,0.626-1.375,1.403v1.703
		c-3.823,0.418-5.496,2.719-5.496,5.377c0,7.201,10.904,5.198,10.904,9.561c0,1.852-1.314,2.748-4.033,2.748
		c-2.061,0-3.646-1.016-4.9-2.27c-0.298-0.3-0.656-0.658-1.313-0.658c-0.866,0-1.583,0.718-1.583,1.613
		c0,0.299,0.089,0.598,0.238,0.837c1.015,1.644,3.286,3.196,6.184,3.555v1.673c0,0.777,0.628,1.403,1.375,1.403
		c0.776,0,1.403-0.626,1.403-1.403v-1.673c4.005-0.388,6.095-2.539,6.095-5.825C37.647,31.125,26.742,32.947,26.742,29.033z"/>
</g>
</svg>
