<?xml version="1.0" encoding="utf-8"?>
<!-- Generator: Adobe Illustrator 16.0.3, SVG Export Plug-In . SVG Version: 6.00 Build 0)  -->
<!DOCTYPE svg PUBLIC "-//W3C//DTD SVG 1.1//EN" "http://www.w3.org/Graphics/SVG/1.1/DTD/svg11.dtd">
<svg version="1.1" id="Layer_1" xmlns="http://www.w3.org/2000/svg" xmlns:xlink="http://www.w3.org/1999/xlink" x="0px" y="0px"
	 width="60px" height="60px" viewBox="0 0 60 60" enable-background="new 0 0 60 60" xml:space="preserve">
<g>
	<path  d="M59.882,41.102l-3.159-10.807l3.199-10.238c0.144-0.46,0.06-0.96-0.226-1.348s-0.737-0.617-1.219-0.617
		H49.29c-0.664-1.084-1.415-2.118-2.248-3.075c-4.343-4.99-10.624-7.853-17.235-7.853c-6.608,0-12.889,2.861-17.231,7.851
		c-0.835,0.96-1.585,1.994-2.249,3.077H1.514c-0.481,0-0.934,0.229-1.219,0.617c-0.285,0.389-0.369,0.889-0.225,1.348l3.198,10.219
		L0.061,41.268c-0.133,0.457-0.044,0.949,0.242,1.331c0.286,0.381,0.734,0.604,1.21,0.604h9.675
		c0.993,1.398,2.133,2.691,3.414,3.835c4.186,3.739,9.586,5.798,15.204,5.798c5.909,0,11.515-2.248,15.784-6.331
		c1.052-1.008,2.001-2.118,2.841-3.302h10.046c0.004,0.001,0.008,0.001,0.01,0c0.836,0,1.513-0.677,1.513-1.513
		C60,41.482,59.958,41.282,59.882,41.102z M14.858,17.002c3.767-4.329,9.215-6.812,14.948-6.812c5.735,0,11.185,2.483,14.952,6.813
		c0.306,0.351,0.595,0.717,0.875,1.089H13.982C14.263,17.72,14.552,17.354,14.858,17.002z M43.499,44.318
		c-3.703,3.541-8.565,5.492-13.692,5.492c-4.874,0-9.558-1.786-13.188-5.029c-0.554-0.494-1.074-1.025-1.568-1.578h29.518
		C44.224,43.588,43.871,43.963,43.499,44.318z M3.531,40.178l2.77-9.494c0.083-0.286,0.081-0.591-0.009-0.876l-2.72-8.689H56.42
		l-2.722,8.712c-0.09,0.284-0.093,0.589-0.009,0.875l2.77,9.473H3.531z"/>
	<path  d="M17.922,29.469c-1.421-0.549-2.048-1.023-2.048-1.986c0-0.703,0.535-1.544,1.941-1.544
		c0.933,0,1.621,0.306,1.957,0.489l0.367-1.085c-0.458-0.26-1.222-0.504-2.277-0.504c-2.002,0-3.332,1.191-3.332,2.797
		c0,1.452,1.04,2.323,2.72,2.919c1.391,0.535,1.941,1.085,1.941,2.048c0,1.039-0.794,1.757-2.154,1.757
		c-0.917,0-1.789-0.305-2.384-0.672l-0.336,1.115c0.55,0.367,1.635,0.658,2.629,0.658c2.43,0,3.606-1.376,3.606-2.965
		C20.551,30.982,19.665,30.142,17.922,29.469z"/>
	<path  d="M25.089,25.007l-3.5,10.301h1.376l1.069-3.24h3.653l1.101,3.24h1.421l-3.516-10.301H25.089z M24.309,31.028
		l1.009-2.98c0.199-0.627,0.367-1.253,0.52-1.864h0.031c0.153,0.596,0.305,1.207,0.535,1.88l1.009,2.965H24.309z"/>
	<polygon  points="33.051,25.007 31.721,25.007 31.721,35.308 37.452,35.308 37.452,34.191 33.051,34.191 	"/>
	<polygon  points="40.263,30.478 44.268,30.478 44.268,29.377 40.263,29.377 40.263,26.122 44.497,26.122 
		44.497,25.007 38.934,25.007 38.934,35.308 44.726,35.308 44.726,34.191 40.263,34.191 	"/>
</g>
</svg>
