<?xml version="1.0" encoding="utf-8"?>
<!-- Generator: Adobe Illustrator 16.0.3, SVG Export Plug-In . SVG Version: 6.00 Build 0)  -->
<!DOCTYPE svg PUBLIC "-//W3C//DTD SVG 1.1//EN" "http://www.w3.org/Graphics/SVG/1.1/DTD/svg11.dtd">
<svg version="1.1" id="Layer_1" xmlns="http://www.w3.org/2000/svg" xmlns:xlink="http://www.w3.org/1999/xlink" x="0px" y="0px"
	 width="60px" height="60px" viewBox="0 0 60 60" enable-background="new 0 0 60 60" xml:space="preserve">
<g>
	<path  d="M58.161,4.743h-8.198c-0.904,0-1.674,0.656-1.816,1.549l-1.831,11.471H1.839
		c-0.561,0-1.091,0.255-1.439,0.694c-0.349,0.438-0.479,1.013-0.353,1.559l5.196,22.466c0.192,0.834,0.936,1.425,1.792,1.425h35.109
		l-0.387,2.427H7.799c-0.181,0-0.351,0.034-0.516,0.082c-2.713,0.445-4.792,2.801-4.792,5.639c0,3.154,2.565,5.721,5.72,5.721
		s5.721-2.566,5.721-5.721c0-0.721-0.14-1.407-0.384-2.043h23.776c-0.243,0.636-0.383,1.322-0.383,2.043
		c0,3.154,2.565,5.721,5.72,5.721c3.155,0,5.721-2.566,5.721-5.721c0-2.174-1.219-4.068-3.009-5.035l6.158-38.598h6.63
		C59.177,8.421,60,7.598,60,6.582S59.177,4.743,58.161,4.743z M4.152,21.44h41.577l-2.998,18.788H8.497L4.152,21.44z M10.254,52.054
		c0,1.126-0.917,2.043-2.043,2.043s-2.042-0.917-2.042-2.043s0.916-2.043,2.042-2.043S10.254,50.928,10.254,52.054z M42.661,54.097
		c-1.126,0-2.042-0.917-2.042-2.043s0.916-2.043,2.042-2.043c1.127,0,2.043,0.917,2.043,2.043S43.788,54.097,42.661,54.097z"/>
	<path  d="M32.33,8.062l-1.347-1.254l-5.253,5.65V3.145c0-0.508-0.412-0.919-0.919-0.919
		c-0.508,0-0.92,0.411-0.92,0.919v9.318l-5.255-5.654L17.29,8.062l7.52,8.088L32.33,8.062z"/>
	<path  d="M13.11,22.695c-0.508,0-0.92,0.412-0.92,0.92v14.438c0,0.508,0.412,0.92,0.92,0.92s0.919-0.412,0.919-0.92
		V23.615C14.029,23.107,13.618,22.695,13.11,22.695z"/>
	<path  d="M21.667,22.695c-0.508,0-0.92,0.412-0.92,0.92v14.438c0,0.508,0.412,0.92,0.92,0.92
		c0.507,0,0.919-0.412,0.919-0.92V23.615C22.586,23.107,22.174,22.695,21.667,22.695z"/>
	<path  d="M30.224,22.695c-0.507,0-0.919,0.412-0.919,0.92v14.438c0,0.508,0.412,0.92,0.919,0.92
		c0.508,0,0.92-0.412,0.92-0.92V23.615C31.144,23.107,30.731,22.695,30.224,22.695z"/>
	<path  d="M38.78,22.695c-0.508,0-0.919,0.412-0.919,0.92v14.438c0,0.508,0.411,0.92,0.919,0.92s0.92-0.412,0.92-0.92
		V23.615C39.7,23.107,39.288,22.695,38.78,22.695z"/>
</g>
</svg>
