<?xml version="1.0" encoding="utf-8"?>
<!-- Generator: Adobe Illustrator 16.0.3, SVG Export Plug-In . SVG Version: 6.00 Build 0)  -->
<!DOCTYPE svg PUBLIC "-//W3C//DTD SVG 1.1//EN" "http://www.w3.org/Graphics/SVG/1.1/DTD/svg11.dtd">
<svg version="1.1" id="Layer_1" xmlns="http://www.w3.org/2000/svg" xmlns:xlink="http://www.w3.org/1999/xlink" x="0px" y="0px"
	 width="60px" height="60px" viewBox="0 0 60 60" enable-background="new 0 0 60 60" xml:space="preserve">
<g>
	<path  d="M37.359,26.488c1.03,0,1.864-0.834,1.864-1.864s-0.834-1.864-1.864-1.864H21.807
		c-1.029,0-1.865,0.834-1.865,1.864s0.835,1.864,1.865,1.864H37.359z"/>
	<path  d="M51.662,22.76h-6.615c-0.894,0-1.638,0.629-1.819,1.467V16.65c0-7.802-6.145-14.15-13.697-14.15
		c-7.554,0-13.698,6.349-13.698,14.15v13.466c0,1.03,0.834,1.865,1.864,1.865c1.03,0,1.865-0.835,1.865-1.865V16.65
		c0-5.746,4.472-10.422,9.97-10.422c5.496,0,9.968,4.676,9.968,10.422v13.466c0,1.03,0.834,1.865,1.864,1.865
		c1.029,0,1.865-0.835,1.865-1.865v-5.095c0.182,0.838,0.926,1.467,1.819,1.467h4.75v27.283H9.923V26.488h3.982
		c1.03,0,1.865-0.834,1.865-1.864s-0.835-1.864-1.865-1.864H8.058c-1.029,0-1.864,0.834-1.864,1.864v31.012
		c0,1.03,0.834,1.864,1.864,1.864h43.604c1.029,0,1.864-0.834,1.864-1.864V24.624C53.526,23.594,52.691,22.76,51.662,22.76z"/>
	<path  d="M18.688,36.021v9.414c0,0.515,0.417,0.932,0.932,0.932h19.49c0.515,0,0.933-0.417,0.933-0.932v-9.414
		c0-0.515-0.418-0.933-0.933-0.933H19.62C19.104,35.088,18.688,35.506,18.688,36.021z M20.551,36.953h17.626v7.55H20.551V36.953z"/>
	<path  d="M53.532,14.92l-2.802-2.803c-0.364-0.364-0.954-0.364-1.318,0l-5.256,5.255
		c-0.175,0.174-0.272,0.411-0.272,0.658v2.804c0,0.515,0.418,0.932,0.933,0.932h2.802c0.247,0,0.484-0.098,0.659-0.272l5.255-5.256
		C53.896,15.874,53.896,15.284,53.532,14.92z M47.232,19.901h-1.484v-1.485l4.324-4.321l1.482,1.483L47.232,19.901z"/>
</g>
</svg>
