<?xml version="1.0" encoding="utf-8"?>
<!-- Generator: Adobe Illustrator 16.0.3, SVG Export Plug-In . SVG Version: 6.00 Build 0)  -->
<!DOCTYPE svg PUBLIC "-//W3C//DTD SVG 1.1//EN" "http://www.w3.org/Graphics/SVG/1.1/DTD/svg11.dtd">
<svg version="1.1" id="Layer_1" xmlns="http://www.w3.org/2000/svg" xmlns:xlink="http://www.w3.org/1999/xlink" x="0px" y="0px"
	 width="60px" height="60px" viewBox="0 0 60 60" enable-background="new 0 0 60 60" xml:space="preserve">
<g>
	<path  d="M58.205,4.241h-8.211c-0.883,0-1.634,0.641-1.772,1.512l-1.159,7.261l-4.707-4.553
		c-0.177-0.17-0.414-0.264-0.66-0.251c-0.246,0.01-0.476,0.12-0.639,0.305l-1.705,1.944H24.804c-0.496,0-0.897,0.402-0.897,0.897
		v5.925h-7.74L12.938,3.433c-0.057-0.243-0.211-0.451-0.427-0.575c-0.216-0.124-0.474-0.152-0.712-0.079l-7.774,2.4
		C3.565,5.32,3.299,5.801,3.423,6.267l2.934,11.014H1.795c-0.543,0-1.057,0.245-1.397,0.668c-0.34,0.423-0.472,0.977-0.357,1.507
		L5.245,43.51c0.178,0.826,0.909,1.415,1.754,1.415H41.97l-0.155,0.972H7.763c-0.177,0-0.346,0.033-0.507,0.081
		c-2.696,0.443-4.761,2.782-4.761,5.602c0,3.133,2.549,5.682,5.683,5.682c3.133,0,5.682-2.549,5.682-5.682
		c0-0.74-0.146-1.445-0.404-2.094h23.948c-0.258,0.648-0.404,1.354-0.404,2.094c0,3.133,2.549,5.682,5.682,5.682
		c3.134,0,5.684-2.549,5.684-5.682c0-2.171-1.227-4.061-3.021-5.017l0.416-2.607c0.089-0.171,0.154-0.356,0.185-0.556l1.766-11.661
		l3.815-23.908h6.68C59.196,7.831,60,7.027,60,6.036S59.196,4.241,58.205,4.241z M41.785,10.406l4.933,4.771l-0.336,2.104H35.753
		L41.785,10.406z M25.7,12.253h12.076l-4.41,5.028H25.7V12.253z M5.379,6.639l6.03-1.861l2.914,12.504H8.214L5.379,6.639z
		 M8.446,41.336L4.02,20.871h41.705l-1.549,10.233l-1.633,10.231H8.446z M10.271,51.579c0,1.153-0.939,2.093-2.093,2.093
		c-1.154,0-2.093-0.939-2.093-2.093c0-1.154,0.938-2.094,2.093-2.094C9.331,49.485,10.271,50.425,10.271,51.579z M42.681,53.672
		c-1.153,0-2.092-0.939-2.092-2.093c0-1.154,0.938-2.094,2.092-2.094c1.154,0,2.094,0.939,2.094,2.094
		C44.774,52.732,43.835,53.672,42.681,53.672z"/>
	<path  d="M11.948,22.199c-0.496,0-0.897,0.401-0.897,0.897v14.46c0,0.496,0.401,0.897,0.897,0.897
		c0.495,0,0.897-0.401,0.897-0.897v-14.46C12.846,22.601,12.443,22.199,11.948,22.199z"/>
	<path  d="M20.518,22.199c-0.495,0-0.897,0.401-0.897,0.897v14.46c0,0.496,0.402,0.897,0.897,0.897
		c0.496,0,0.897-0.401,0.897-0.897v-14.46C21.415,22.601,21.014,22.199,20.518,22.199z"/>
	<path  d="M29.088,22.199c-0.495,0-0.897,0.401-0.897,0.897v14.46c0,0.496,0.402,0.897,0.897,0.897
		s0.897-0.401,0.897-0.897v-14.46C29.985,22.601,29.583,22.199,29.088,22.199z"/>
	<path  d="M37.658,22.199c-0.495,0-0.897,0.401-0.897,0.897v14.46c0,0.496,0.402,0.897,0.897,0.897
		c0.496,0,0.897-0.401,0.897-0.897v-14.46C38.556,22.601,38.154,22.199,37.658,22.199z"/>
</g>
</svg>
