<?xml version="1.0" encoding="utf-8"?>
<!-- Generator: Adobe Illustrator 16.0.3, SVG Export Plug-In . SVG Version: 6.00 Build 0)  -->
<!DOCTYPE svg PUBLIC "-//W3C//DTD SVG 1.1//EN" "http://www.w3.org/Graphics/SVG/1.1/DTD/svg11.dtd">
<svg version="1.1" id="Layer_1" xmlns="http://www.w3.org/2000/svg" xmlns:xlink="http://www.w3.org/1999/xlink" x="0px" y="0px"
	 width="60px" height="60px" viewBox="0 0 60 60" enable-background="new 0 0 60 60" xml:space="preserve">
<g>
	<path  d="M10.215,20.57H6.38c-0.529,0-0.959,0.429-0.959,0.958c0,0.53,0.43,0.959,0.959,0.959h3.835
		c0.53,0,0.959-0.429,0.959-0.959C11.174,20.999,10.745,20.57,10.215,20.57z"/>
	<path  d="M36.289,20.57h-6.518c-0.529,0-0.959,0.429-0.959,0.958c0,0.53,0.43,0.959,0.959,0.959h6.518
		c0.529,0,0.959-0.429,0.959-0.959C37.248,20.999,36.818,20.57,36.289,20.57z"/>
	<path  d="M23.252,20.57h-6.518c-0.53,0-0.959,0.429-0.959,0.958c0,0.53,0.429,0.959,0.959,0.959h6.518
		c0.53,0,0.959-0.429,0.959-0.959C24.211,20.999,23.782,20.57,23.252,20.57z"/>
	<path  d="M42.808,22.487h3.835c0.53,0,0.959-0.429,0.959-0.959c0-0.529-0.429-0.958-0.959-0.958h-3.835
		c-0.529,0-0.959,0.429-0.959,0.958C41.849,22.059,42.278,22.487,42.808,22.487z"/>
	<path  d="M10.215,46.224H6.38c-0.529,0-0.959,0.43-0.959,0.959s0.43,0.958,0.959,0.958h3.835
		c0.53,0,0.959-0.429,0.959-0.958S10.745,46.224,10.215,46.224z"/>
	<path  d="M23.252,46.224h-6.518c-0.53,0-0.959,0.43-0.959,0.959s0.429,0.958,0.959,0.958h6.518
		c0.53,0,0.959-0.429,0.959-0.958S23.782,46.224,23.252,46.224z"/>
	<path  d="M36.289,46.224h-6.518c-0.529,0-0.959,0.43-0.959,0.959s0.43,0.958,0.959,0.958h6.518
		c0.529,0,0.959-0.429,0.959-0.958S36.818,46.224,36.289,46.224z"/>
	<path  d="M46.643,46.224h-3.835c-0.529,0-0.959,0.43-0.959,0.959s0.43,0.958,0.959,0.958h3.835
		c0.53,0,0.959-0.429,0.959-0.958S47.173,46.224,46.643,46.224z"/>
	<path  d="M55.741,27.766H53.37v-7.839c0-2.791-2.271-5.062-5.063-5.062h-5.438l-1.104-6.95
		c-0.084-0.529-0.386-0.999-0.832-1.297c-0.446-0.297-0.997-0.393-1.517-0.266L4.347,14.92c-0.003,0-0.007,0.002-0.01,0.003
		C1.889,15.276,0,17.383,0,19.927v28.714c0,2.792,2.271,5.062,5.063,5.062h43.243c2.792,0,5.063-2.271,5.063-5.062v-8.545h2.371
		c2.349,0,4.259-2.079,4.259-4.636v-3.058C60,29.846,58.09,27.766,55.741,27.766z M38.304,10.571l0.681,4.293H20.731L38.304,10.571z
		 M49.535,48.641c0,0.677-0.551,1.228-1.229,1.228H5.063c-0.677,0-1.228-0.551-1.228-1.228V19.927c0-0.677,0.551-1.227,1.228-1.227
		H41.23h0.013h7.063c0.678,0,1.229,0.55,1.229,1.227v7.839h-1.401c-2.348,0-4.258,2.08-4.258,4.637v3.058
		c0,2.557,1.91,4.636,4.258,4.636h1.401V48.641z M56.165,35.46c0,0.488-0.278,0.8-0.424,0.8h-7.607c-0.145,0-0.423-0.312-0.423-0.8
		v-3.058c0-0.489,0.278-0.801,0.423-0.801h7.607c0.146,0,0.424,0.312,0.424,0.801V35.46z"/>
	<path  d="M49.701,32.103c-1.009,0-1.829,0.82-1.829,1.828s0.82,1.828,1.829,1.828s1.828-0.82,1.828-1.828
		S50.71,32.103,49.701,32.103z M49.701,34.48c-0.303,0-0.551-0.247-0.551-0.55s0.248-0.55,0.551-0.55c0.304,0,0.55,0.247,0.55,0.55
		S50.005,34.48,49.701,34.48z"/>
</g>
</svg>
