<?xml version="1.0" encoding="utf-8"?>
<!-- Generator: Adobe Illustrator 16.0.3, SVG Export Plug-In . SVG Version: 6.00 Build 0)  -->
<!DOCTYPE svg PUBLIC "-//W3C//DTD SVG 1.1//EN" "http://www.w3.org/Graphics/SVG/1.1/DTD/svg11.dtd">
<svg version="1.1" id="Layer_1" xmlns="http://www.w3.org/2000/svg" xmlns:xlink="http://www.w3.org/1999/xlink" x="0px" y="0px"
	 width="60px" height="60px" viewBox="0 0 60 60" enable-background="new 0 0 60 60" xml:space="preserve">
<g>
	<path  d="M58.339,23.549h-3.338v-3.939c0-8.413-6.734-15.286-15.614-16.271c-0.57-1.311-1.876-2.229-3.393-2.229
		H24.006c-1.526,0-2.839,0.929-3.404,2.251C11.824,4.424,5.17,11.285,5.17,19.609v3.939H1.66c-0.917,0-1.66,0.743-1.66,1.66v6.67
		c0,0.918,0.743,1.661,1.66,1.661h1.327l3.991,23.963c0.133,0.801,0.826,1.388,1.638,1.388h43.102c0.812,0,1.505-0.587,1.638-1.388
		l3.991-23.963h0.992c0.918,0,1.661-0.743,1.661-1.661v-6.67C60,24.292,59.257,23.549,58.339,23.549z M35.994,4.431
		c0.03,0,0.058,0.011,0.087,0.018c-0.034,0.125-0.059,0.255-0.062,0.391c-0.004,0.116,0.006,0.229,0.025,0.339
		c-0.018,0.003-0.033,0.011-0.051,0.011H24.006c-0.016,0-0.029-0.007-0.044-0.009c0.02-0.114,0.03-0.231,0.026-0.351
		c-0.005-0.133-0.029-0.26-0.063-0.382c0.027-0.006,0.052-0.017,0.081-0.017H35.994z M8.491,19.609
		c0-6.566,5.301-11.993,12.328-12.928c0.644,1.092,1.83,1.828,3.187,1.828h11.988c1.365,0,2.558-0.746,3.199-1.85
		C46.31,7.529,51.68,12.968,51.68,19.609v3.939H8.491V19.609z M3.321,26.869h53.358v3.35H55.94H4.394H3.321V26.869z M50.311,55.569
		H10.023L6.354,33.54H53.98L50.311,55.569z"/>
	<path  d="M14.58,51.96c0.458,0,0.83-0.372,0.83-0.83V36.937c0-0.459-0.372-0.831-0.83-0.831
		c-0.459,0-0.831,0.372-0.831,0.831V51.13C13.749,51.588,14.121,51.96,14.58,51.96z"/>
	<path  d="M24.744,51.96c0.458,0,0.831-0.372,0.831-0.83V36.937c0-0.459-0.372-0.831-0.831-0.831
		s-0.83,0.372-0.83,0.831V51.13C23.914,51.588,24.285,51.96,24.744,51.96z"/>
	<path  d="M34.908,51.96c0.458,0,0.83-0.372,0.83-0.83V36.937c0-0.459-0.372-0.831-0.83-0.831
		c-0.459,0-0.831,0.372-0.831,0.831V51.13C34.077,51.588,34.449,51.96,34.908,51.96z"/>
	<path  d="M45.072,51.96c0.458,0,0.83-0.372,0.83-0.83V36.937c0-0.459-0.372-0.831-0.83-0.831
		c-0.459,0-0.83,0.372-0.83,0.831V51.13C44.242,51.588,44.613,51.96,45.072,51.96z"/>
</g>
</svg>
