<?xml version="1.0" encoding="utf-8"?>
<!-- Generator: Adobe Illustrator 16.0.3, SVG Export Plug-In . SVG Version: 6.00 Build 0)  -->
<!DOCTYPE svg PUBLIC "-//W3C//DTD SVG 1.1//EN" "http://www.w3.org/Graphics/SVG/1.1/DTD/svg11.dtd">
<svg version="1.1" id="Layer_1" xmlns="http://www.w3.org/2000/svg" xmlns:xlink="http://www.w3.org/1999/xlink" x="0px" y="0px"
	 width="60px" height="60px" viewBox="0 0 60 60" enable-background="new 0 0 60 60" xml:space="preserve">
<g>
	<path  d="M20.863,10.741c-0.996,0-1.805,0.807-1.805,1.803s0.809,1.804,1.805,1.804H27.6
		c0.996,0,1.803-0.808,1.803-1.804s-0.807-1.803-1.803-1.803H20.863z"/>
	<path  d="M53.201,10.318H42.447c0.871-0.218,1.467-1.046,1.355-1.96c-0.061-0.488-0.156-0.973-0.287-1.441
		C42.381,2.845,38.717,0,34.602,0c-0.873,0-1.74,0.126-2.576,0.374c-0.955,0.284-1.498,1.288-1.215,2.242
		c0.285,0.954,1.285,1.498,2.242,1.215c0.502-0.148,1.023-0.225,1.549-0.225c2.502,0,4.738,1.759,5.439,4.278
		c0.082,0.296,0.143,0.603,0.182,0.911c0.092,0.759,0.646,1.344,1.346,1.522h-0.004h-5.764c-0.996,0-1.803,0.807-1.803,1.803
		s0.807,1.804,1.803,1.804h4.596v42.469H8.602V13.925h3.852c0.996,0,1.803-0.808,1.803-1.804s-0.807-1.803-1.803-1.803H6.797
		c-0.996,0-1.803,0.807-1.803,1.803v46.076C4.994,59.193,5.801,60,6.797,60h35.402c0,0,0,0,0.002,0l0,0
		c0.107,0,0.217-0.013,0.324-0.033c0.033-0.006,0.066-0.015,0.1-0.022c0.072-0.018,0.143-0.039,0.213-0.066
		c0.035-0.014,0.07-0.026,0.105-0.042c0.066-0.03,0.129-0.066,0.193-0.105c0.029-0.018,0.061-0.033,0.088-0.054
		c0.008-0.004,0.014-0.007,0.02-0.012l4.109-2.925l4.908,2.996c0.559,0.34,1.256,0.352,1.822,0.033
		c0.568-0.319,0.922-0.921,0.922-1.572V12.121C55.006,11.125,54.197,10.318,53.201,10.318z M51.398,54.983l-3.182-1.942
		c-0.617-0.375-1.396-0.349-1.986,0.07l-2.229,1.588V13.925h7.396V54.983z"/>
	<path  d="M16.709,17.153c0.996,0,1.805-0.808,1.805-1.804V9.559c0-3.282,2.541-5.952,5.664-5.952
		c3.125,0,5.666,2.67,5.666,5.952v5.791c0,0.996,0.807,1.804,1.803,1.804s1.805-0.808,1.805-1.804V9.559
		c0-5.271-4.16-9.559-9.273-9.559c-5.111,0-9.271,4.288-9.271,9.559v5.791C14.906,16.346,15.713,17.153,16.709,17.153z"/>
</g>
</svg>
