<?xml version="1.0" encoding="utf-8"?>
<!-- Generator: Adobe Illustrator 16.0.3, SVG Export Plug-In . SVG Version: 6.00 Build 0)  -->
<!DOCTYPE svg PUBLIC "-//W3C//DTD SVG 1.1//EN" "http://www.w3.org/Graphics/SVG/1.1/DTD/svg11.dtd">
<svg version="1.1" id="Layer_1" xmlns="http://www.w3.org/2000/svg" xmlns:xlink="http://www.w3.org/1999/xlink" x="0px" y="0px"
	 width="60px" height="60px" viewBox="0 0 60 60" enable-background="new 0 0 60 60" xml:space="preserve">
<g>
	<path  d="M29.787,49.15c-2.036,0.672-4.165,1.012-6.328,1.012c-11.116,0-20.16-9.045-20.16-20.162
		s9.044-20.162,20.16-20.162c7.902,0,15.115,4.652,18.377,11.852c0.375,0.83,1.353,1.199,2.182,0.822
		c0.83-0.377,1.197-1.354,0.822-2.184C41.046,11.953,32.654,6.539,23.459,6.539C10.523,6.539,0,17.064,0,30
		s10.523,23.461,23.459,23.461c2.516,0,4.992-0.396,7.362-1.18c0.865-0.285,1.335-1.217,1.05-2.082
		C31.584,49.334,30.65,48.863,29.787,49.15z"/>
	<path  d="M46.247,25.953c-7.583,0-13.753,6.17-13.753,13.754s6.17,13.754,13.753,13.754S60,47.291,60,39.707
		S53.83,25.953,46.247,25.953z M46.247,50.162c-5.765,0-10.454-4.689-10.454-10.455s4.689-10.455,10.454-10.455
		s10.455,4.689,10.455,10.455S52.012,50.162,46.247,50.162z"/>
	<path  d="M50.375,42.424c-0.245,0-0.473,0.105-0.754,0.387c-0.842,0.859-1.527,1.158-2.826,1.158
		c-1.755,0-2.755-0.686-3.176-2.334h2.123c0.421,0,0.754-0.334,0.754-0.756s-0.333-0.754-0.754-0.754h-2.334v-0.771h2.334
		c0.421,0,0.754-0.334,0.754-0.756s-0.333-0.754-0.754-0.754h-2.159c0.403-1.686,1.422-2.527,3.212-2.527
		c1.281,0,2.035,0.42,2.738,1.229c0.228,0.262,0.474,0.35,0.721,0.35c0.525,0,0.946-0.42,0.946-0.93c0-0.193-0.053-0.369-0.192-0.58
		c-0.721-1.053-2.09-1.895-4.213-1.895c-2.948,0-4.809,1.422-5.336,4.354H41.18c-0.422,0-0.756,0.332-0.756,0.754
		s0.334,0.756,0.756,0.756h0.123v0.771H41.18c-0.422,0-0.756,0.332-0.756,0.754s0.334,0.756,0.756,0.756h0.298
		c0.562,2.895,2.422,4.158,5.317,4.158c1.879,0,3.51-0.771,4.353-1.895c0.105-0.141,0.177-0.316,0.177-0.527
		C51.324,42.844,50.902,42.424,50.375,42.424z"/>
	<path  d="M23.219,43.156c0.8,0,1.447-0.646,1.447-1.447v-1.727c4.129-0.4,6.286-2.617,6.286-6.008
		c0-7.701-11.246-5.822-11.246-9.859c0-1.232,0.956-2.434,3.513-2.434c1.756,0,3.358,0.709,4.314,1.633
		c0.461,0.432,0.893,0.678,1.324,0.678c0.924,0,1.664-0.738,1.664-1.633c0-0.369-0.125-0.709-0.309-0.984
		c-1.049-1.48-3.082-2.467-5.547-2.773v-1.787c0-0.801-0.647-1.449-1.447-1.449c-0.771,0-1.418,0.648-1.418,1.449v1.756
		c-3.943,0.432-5.668,2.805-5.668,5.545c0,7.426,11.245,5.363,11.245,9.859c0,1.91-1.356,2.834-4.159,2.834
		c-2.125,0-3.76-1.047-5.053-2.342c-0.309-0.307-0.678-0.676-1.355-0.676c-0.894,0-1.633,0.738-1.633,1.664
		c0,0.307,0.092,0.615,0.246,0.861c1.047,1.695,3.389,3.297,6.377,3.666v1.727C21.801,42.51,22.448,43.156,23.219,43.156z"/>
</g>
</svg>
