<?xml version="1.0" encoding="utf-8"?>
<!-- Generator: Adobe Illustrator 16.0.3, SVG Export Plug-In . SVG Version: 6.00 Build 0)  -->
<!DOCTYPE svg PUBLIC "-//W3C//DTD SVG 1.1//EN" "http://www.w3.org/Graphics/SVG/1.1/DTD/svg11.dtd">
<svg version="1.1" id="Layer_1" xmlns="http://www.w3.org/2000/svg" xmlns:xlink="http://www.w3.org/1999/xlink" x="0px" y="0px"
	 width="60px" height="60px" viewBox="0 0 60 60" enable-background="new 0 0 60 60" xml:space="preserve">
<g>
	<path  d="M58.236,3.445h-8.067c-0.891,0-1.641,0.663-1.751,1.546l-4.417,35.538H1.764C0.79,40.529,0,41.318,0,42.293
		s0.79,1.764,1.764,1.764H45.56c0.89,0,1.641-0.663,1.75-1.546l4.418-35.538h6.509C59.21,6.973,60,6.183,60,5.209
		C60,4.234,59.21,3.445,58.236,3.445z"/>
	<path  d="M9.469,45.388c-3.079,0-5.583,2.505-5.583,5.584c0,3.078,2.504,5.583,5.583,5.583s5.583-2.505,5.583-5.583
		C15.052,47.893,12.548,45.388,9.469,45.388z M9.469,53.026c-1.134,0-2.056-0.922-2.056-2.055c0-1.135,0.922-2.057,2.056-2.057
		s2.056,0.922,2.056,2.057C11.524,52.104,10.603,53.026,9.469,53.026z"/>
	<path  d="M39.526,45.388c-3.078,0-5.582,2.505-5.582,5.584c0,3.078,2.504,5.583,5.582,5.583
		c3.079,0,5.584-2.505,5.584-5.583C45.11,47.893,42.605,45.388,39.526,45.388z M39.526,53.026c-1.133,0-2.055-0.922-2.055-2.055
		c0-1.135,0.922-2.057,2.055-2.057c1.134,0,2.057,0.922,2.057,2.057C41.583,52.104,40.66,53.026,39.526,53.026z"/>
	<path  d="M5.004,36.656h21.001h13.916c0.975,0,1.764-0.79,1.764-1.764V6.72c0-0.975-0.789-1.765-1.764-1.765H26.005
		c-0.975,0-1.764,0.79-1.764,1.765v8.948H11.15c-0.974,0-1.764,0.789-1.764,1.764V25.7H5.004c-0.975,0-1.765,0.79-1.765,1.765v7.428
		C3.239,35.866,4.029,36.656,5.004,36.656z M27.769,8.483h10.389v24.645H27.769v-5.663V17.432V8.483z M12.915,19.195h11.326V25.7
		H12.915V19.195z M6.768,29.229h4.383h13.091v3.899H6.768V29.229z"/>
</g>
</svg>
