<?xml version="1.0" encoding="utf-8"?>
<!-- Generator: Adobe Illustrator 16.0.3, SVG Export Plug-In . SVG Version: 6.00 Build 0)  -->
<!DOCTYPE svg PUBLIC "-//W3C//DTD SVG 1.1//EN" "http://www.w3.org/Graphics/SVG/1.1/DTD/svg11.dtd">
<svg version="1.1" id="Layer_1" xmlns="http://www.w3.org/2000/svg" xmlns:xlink="http://www.w3.org/1999/xlink" x="0px" y="0px"
	 width="60px" height="60px" viewBox="0 0 60 60" enable-background="new 0 0 60 60" xml:space="preserve">
<g>
	<path  d="M54.228,44.035L38.594,7.257c-0.666-1.568-1.982-2.238-3.229-2.568c-0.381-0.151-0.788-0.254-1.216-0.294
		L14.181,2.52c-2.465-0.228-4.587,1.566-4.815,3.989L5.451,48.205c-0.111,1.176,0.243,2.325,0.996,3.234
		c0.754,0.91,1.816,1.472,2.993,1.582l8.763,0.822c0.45,2.027,2.254,3.429,4.267,3.429c0.278,0,0.561-0.027,0.843-0.082l6.087-1.192
		c0.442,0.518,1.005,0.927,1.655,1.188c0.52,0.21,1.064,0.313,1.607,0.313c0.57,0,1.14-0.114,1.681-0.345l17.612-7.485
		C54.135,48.743,55.153,46.215,54.228,44.035z M42.029,50.135l-7.953,1.558c0.069-0.253,0.119-0.515,0.146-0.785l2.925-31.149
		l5.71,29.145C42.968,49.471,42.597,50.023,42.029,50.135z M9.009,49.318c-0.188-0.226-0.274-0.51-0.247-0.802L12.676,6.82
		c0.053-0.558,0.531-0.995,1.088-0.995c0.035,0,0.07,0.002,0.106,0.006l19.09,1.791c0.03,0.008,0.057,0.021,0.086,0.028
		c0.371,0.076,1.02,0.213,1.434,0.349c0.239,0.224,0.379,0.549,0.347,0.9L30.91,50.597c-0.056,0.593-0.591,1.053-1.192,0.988
		L9.751,49.71C9.459,49.684,9.195,49.544,9.009,49.318z M50.654,46.609l-4.497,1.911c-0.012-0.086-0.02-0.172-0.037-0.258
		l-5.378-27.449l10.425,24.522C51.376,45.828,51.146,46.399,50.654,46.609z"/>
	<path  d="M22.998,15.879c0.099,0.01,0.194,0.013,0.291,0.013c1.594,0,2.91-1.197,3.059-2.787
		c0.077-0.818-0.169-1.617-0.693-2.249c-0.524-0.634-1.264-1.024-2.082-1.102c-1.718-0.16-3.189,1.09-3.35,2.775
		c-0.077,0.817,0.169,1.617,0.694,2.249C21.441,15.412,22.181,15.803,22.998,15.879z M23.282,11.403c0.045,0,0.09,0.002,0.136,0.007
		c0.376,0.034,0.715,0.215,0.956,0.505c0.24,0.291,0.354,0.658,0.318,1.033c-0.073,0.775-0.753,1.351-1.539,1.274
		c-0.377-0.034-0.716-0.215-0.957-0.504c-0.24-0.291-0.354-0.658-0.318-1.033C21.948,11.955,22.551,11.403,23.282,11.403z"/>
	<path  d="M23.766,23.041l0.15-1.594c0.065-0.713-0.457-1.345-1.17-1.41c-0.687-0.066-1.316,0.457-1.384,1.171
		l-0.146,1.565c-3.551,0.054-5.285,2.023-5.516,4.467c-0.622,6.616,9.572,5.718,9.195,9.727c-0.159,1.701-1.445,2.411-3.943,2.177
		c-1.895-0.178-3.262-1.248-4.307-2.509c-0.248-0.301-0.547-0.661-1.15-0.718c-0.796-0.075-1.518,0.522-1.594,1.346
		c-0.026,0.274,0.03,0.558,0.147,0.79c0.79,1.597,2.743,3.221,5.375,3.8l-0.145,1.538c-0.067,0.713,0.455,1.344,1.143,1.408
		c0.712,0.066,1.344-0.455,1.41-1.169l0.146-1.538c3.711-0.012,5.819-1.808,6.103-4.826c0.645-6.863-9.533-6.13-9.196-9.727
		c0.103-1.099,1.056-2.088,3.333-1.875c1.566,0.147,2.935,0.913,3.708,1.816c0.375,0.423,0.739,0.678,1.124,0.714
		c0.823,0.078,1.544-0.521,1.619-1.315c0.031-0.329-0.051-0.643-0.192-0.903C27.665,24.57,25.935,23.521,23.766,23.041z"/>
</g>
</svg>
