<?xml version="1.0" encoding="utf-8"?>
<!-- Generator: Adobe Illustrator 16.0.3, SVG Export Plug-In . SVG Version: 6.00 Build 0)  -->
<!DOCTYPE svg PUBLIC "-//W3C//DTD SVG 1.1//EN" "http://www.w3.org/Graphics/SVG/1.1/DTD/svg11.dtd">
<svg version="1.1" id="Layer_1" xmlns="http://www.w3.org/2000/svg" xmlns:xlink="http://www.w3.org/1999/xlink" x="0px" y="0px"
	 width="60px" height="60px" viewBox="0 0 60 60" enable-background="new 0 0 60 60" xml:space="preserve">
<g>
	<path  d="M58.278,3.499h-8.233c-0.846,0-1.566,0.615-1.699,1.45L46.49,16.573H1.721c-0.524,0-1.021,0.239-1.348,0.65
		c-0.326,0.41-0.447,0.947-0.329,1.459l5.217,22.56c0.181,0.78,0.876,1.333,1.677,1.333h35.404l-0.43,2.689H7.705
		c-0.172,0-0.334,0.032-0.491,0.079c-2.667,0.436-4.712,2.75-4.712,5.538c0,3.099,2.52,5.619,5.617,5.619s5.618-2.521,5.618-5.619
		c0-0.771-0.157-1.506-0.439-2.176h24.237c-0.283,0.67-0.439,1.405-0.439,2.176c0,3.099,2.52,5.619,5.617,5.619
		c3.099,0,5.619-2.521,5.619-5.619c0-2.165-1.234-4.046-3.035-4.983l6.217-38.957h6.765C59.229,6.941,60,6.171,60,5.221
		S59.229,3.499,58.278,3.499z M3.885,20.016h42.057l-3.051,19.117H8.306L3.885,20.016z M10.295,50.882
		c0,1.201-0.977,2.178-2.176,2.178s-2.176-0.977-2.176-2.178c0-1.199,0.977-2.176,2.176-2.176S10.295,49.683,10.295,50.882z
		 M42.713,53.06c-1.199,0-2.176-0.977-2.176-2.178c0-1.199,0.977-2.176,2.176-2.176c1.201,0,2.178,0.977,2.178,2.176
		C44.891,52.083,43.914,53.06,42.713,53.06z"/>
	<path  d="M12,21.465c-0.475,0-0.86,0.386-0.86,0.861v14.498c0,0.476,0.386,0.86,0.86,0.86
		c0.476,0,0.86-0.385,0.86-0.86V22.326C12.86,21.851,12.476,21.465,12,21.465z"/>
	<path  d="M20.593,21.465c-0.476,0-0.86,0.386-0.86,0.861v14.498c0,0.476,0.385,0.86,0.86,0.86
		c0.475,0,0.86-0.385,0.86-0.86V22.326C21.453,21.851,21.067,21.465,20.593,21.465z"/>
	<path  d="M29.186,21.465c-0.476,0-0.861,0.386-0.861,0.861v14.498c0,0.476,0.386,0.86,0.861,0.86
		c0.475,0,0.86-0.385,0.86-0.86V22.326C30.046,21.851,29.66,21.465,29.186,21.465z"/>
	<path  d="M37.778,21.465c-0.476,0-0.86,0.386-0.86,0.861v14.498c0,0.476,0.385,0.86,0.86,0.86
		c0.475,0,0.86-0.385,0.86-0.86V22.326C38.639,21.851,38.253,21.465,37.778,21.465z"/>
</g>
</svg>
