<?xml version="1.0" encoding="utf-8"?>
<!-- Generator: Adobe Illustrator 16.0.3, SVG Export Plug-In . SVG Version: 6.00 Build 0)  -->
<!DOCTYPE svg PUBLIC "-//W3C//DTD SVG 1.1//EN" "http://www.w3.org/Graphics/SVG/1.1/DTD/svg11.dtd">
<svg version="1.1" id="Layer_1" xmlns="http://www.w3.org/2000/svg" xmlns:xlink="http://www.w3.org/1999/xlink" x="0px" y="0px"
	 width="60px" height="60px" viewBox="0 0 60 60" enable-background="new 0 0 60 60" xml:space="preserve">
<g>
	<path  d="M49.863,0.161c-0.703-0.307-1.52-0.167-2.08,0.354l-3.412,3.17l-3.123-3.12
		c-0.697-0.697-1.809-0.757-2.574-0.133l-4.107,3.337l-3.205-3.204C31.002,0.203,30.512,0,30.002,0c-0.512,0-1,0.203-1.361,0.564
		l-3.121,3.12l-3.414-3.17c-0.738-0.685-1.879-0.686-2.619,0l-3.508,3.258L12.166,0.47c-0.568-0.492-1.375-0.609-2.059-0.295
		c-0.686,0.312-1.125,0.996-1.125,1.75v56.15c0,0.778,0.469,1.48,1.188,1.778C10.408,59.952,10.658,60,10.906,60
		c0.5,0,0.992-0.196,1.361-0.564l3.121-3.121l3.414,3.171c0.738,0.687,1.881,0.686,2.619,0l3.465-3.217l3.465,3.217
		c0.738,0.686,1.879,0.686,2.619,0l3.506-3.258l3.811,3.302c0.766,0.662,1.908,0.621,2.623-0.094l3.162-3.165l3.762,3.259
		c0.568,0.493,1.373,0.61,2.059,0.296c0.686-0.312,1.125-0.996,1.125-1.75V1.925C51.018,1.159,50.564,0.467,49.863,0.161z
		 M47.17,53.861l-1.932-1.673c-0.764-0.662-1.906-0.62-2.621,0.094l-3.162,3.165l-3.762-3.259c-0.742-0.644-1.85-0.624-2.57,0.044
		l-3.463,3.217l-3.465-3.217c-0.738-0.686-1.881-0.686-2.619,0l-3.463,3.217l-3.465-3.217c-0.371-0.343-0.84-0.515-1.311-0.515
		c-0.492,0-0.986,0.188-1.359,0.564l-1.148,1.146V6.138l1.932,1.674c0.744,0.644,1.85,0.624,2.57-0.044l3.463-3.216l3.463,3.216
		c0.76,0.703,1.938,0.684,2.67-0.05L30,4.646l3.07,3.071c0.697,0.697,1.809,0.756,2.574,0.133l4.109-3.338l3.207,3.205
		c0.732,0.733,1.912,0.753,2.67,0.05l1.539-1.429V53.861z"/>
	<path  d="M15.68,23.462h9.883c0.531,0,0.963-0.431,0.963-0.962s-0.432-0.963-0.963-0.963H15.68
		c-0.531,0-0.963,0.432-0.963,0.963S15.148,23.462,15.68,23.462z"/>
	<path  d="M29.658,31.191H15.68c-0.531,0-0.963,0.431-0.963,0.962s0.432,0.963,0.963,0.963h13.979
		c0.531,0,0.963-0.432,0.963-0.963S30.189,31.191,29.658,31.191z"/>
	<path  d="M25.562,41.187H15.68c-0.531,0-0.963,0.431-0.963,0.962s0.432,0.963,0.963,0.963h9.883
		c0.531,0,0.963-0.432,0.963-0.963S26.094,41.187,25.562,41.187z"/>
	<path  d="M35.926,28.329c0-0.976,0.756-1.925,2.777-1.925c1.391,0,2.656,0.56,3.412,1.292
		c0.365,0.341,0.707,0.535,1.049,0.535c0.73,0,1.316-0.584,1.316-1.291c0-0.292-0.098-0.562-0.244-0.78
		c-0.83-1.169-2.438-1.949-4.387-2.192v-1.413c0-0.635-0.512-1.146-1.146-1.146c-0.609,0-1.121,0.512-1.121,1.146v1.389
		c-3.119,0.341-4.482,2.217-4.482,4.386c0,5.873,8.895,4.24,8.895,7.799c0,1.511-1.072,2.241-3.291,2.241
		c-1.68,0-2.973-0.828-3.996-1.852c-0.244-0.244-0.535-0.536-1.072-0.536c-0.707,0-1.291,0.585-1.291,1.315
		c0,0.244,0.074,0.487,0.195,0.683c0.828,1.341,2.68,2.607,5.043,2.9v1.364c0,0.634,0.512,1.146,1.121,1.146
		c0.635,0,1.146-0.512,1.146-1.146V40.88c3.266-0.317,4.971-2.072,4.971-4.752C44.82,30.035,35.926,31.521,35.926,28.329z"/>
</g>
</svg>
