<?xml version="1.0" encoding="utf-8"?>
<!-- Generator: Adobe Illustrator 16.0.3, SVG Export Plug-In . SVG Version: 6.00 Build 0)  -->
<!DOCTYPE svg PUBLIC "-//W3C//DTD SVG 1.1//EN" "http://www.w3.org/Graphics/SVG/1.1/DTD/svg11.dtd">
<svg version="1.1" id="Layer_1" xmlns="http://www.w3.org/2000/svg" xmlns:xlink="http://www.w3.org/1999/xlink" x="0px" y="0px"
	 width="60px" height="60px" viewBox="0 0 60 60" enable-background="new 0 0 60 60" xml:space="preserve">
<g>
	<path  d="M49.863,0.16c-0.703-0.307-1.52-0.167-2.079,0.354L44.37,3.686l-3.123-3.123
		c-0.697-0.695-1.809-0.754-2.574-0.132l-4.108,3.338l-3.202-3.204C31.002,0.203,30.513,0,30.002,0h-0.001
		c-0.51,0-1,0.202-1.36,0.562l-3.123,3.122l-3.412-3.171c-0.737-0.685-1.881-0.685-2.619,0l-3.51,3.259l-3.81-3.302
		c-0.57-0.494-1.375-0.61-2.061-0.297c-0.685,0.312-1.125,0.997-1.125,1.75v56.151c0,0.778,0.47,1.479,1.188,1.777
		c0.238,0.099,0.488,0.146,0.735,0.146c0.502,0,0.994-0.195,1.362-0.563l3.119-3.121l3.416,3.171c0.737,0.686,1.88,0.685,2.618,0
		l3.465-3.217l3.465,3.217c0.738,0.685,1.881,0.685,2.619,0l3.506-3.258l3.812,3.302c0.763,0.662,1.906,0.62,2.621-0.094
		l3.163-3.165l3.762,3.259c0.569,0.492,1.374,0.609,2.06,0.296c0.685-0.312,1.125-0.997,1.125-1.75V1.924
		C51.019,1.158,50.564,0.466,49.863,0.16z M47.169,53.861l-1.932-1.673c-0.763-0.662-1.906-0.621-2.621,0.094l-3.163,3.165
		l-3.762-3.259c-0.742-0.644-1.85-0.624-2.569,0.044l-3.463,3.217l-3.464-3.217c-0.738-0.686-1.881-0.686-2.619,0l-3.465,3.217
		l-3.465-3.217c-0.37-0.344-0.841-0.514-1.31-0.514c-0.493,0-0.986,0.188-1.361,0.563l-1.145,1.146V6.139l1.929,1.672
		c0.741,0.644,1.851,0.625,2.569-0.043l3.466-3.218l3.462,3.217c0.759,0.704,1.938,0.684,2.67-0.049l3.074-3.071l3.068,3.07
		c0.697,0.698,1.809,0.757,2.575,0.134l4.108-3.339l3.207,3.206c0.732,0.732,1.912,0.753,2.67,0.049l1.539-1.429V53.861z"/>
	<path  d="M35.455,11.946H15.68c-0.531,0-0.962,0.431-0.962,0.962s0.431,0.962,0.962,0.962h19.775
		c0.531,0,0.962-0.431,0.962-0.962S35.986,11.946,35.455,11.946z"/>
	<path  d="M15.68,23.461h13.979c0.531,0,0.963-0.431,0.963-0.962s-0.432-0.962-0.963-0.962H15.68
		c-0.531,0-0.962,0.431-0.962,0.962S15.148,23.461,15.68,23.461z"/>
	<path  d="M35.455,31.19H15.68c-0.531,0-0.962,0.432-0.962,0.963s0.431,0.962,0.962,0.962h19.775
		c0.531,0,0.962-0.431,0.962-0.962S35.986,31.19,35.455,31.19z"/>
	<path  d="M29.658,41.187H15.68c-0.531,0-0.962,0.432-0.962,0.962c0,0.531,0.431,0.963,0.962,0.963h13.979
		c0.531,0,0.963-0.432,0.963-0.963C30.621,41.618,30.189,41.187,29.658,41.187z"/>
	<path  d="M44.32,11.946h-3.069c-0.531,0-0.962,0.431-0.962,0.962s0.431,0.962,0.962,0.962h3.069
		c0.531,0,0.962-0.431,0.962-0.962S44.852,11.946,44.32,11.946z"/>
	<path  d="M44.32,21.537h-3.069c-0.531,0-0.962,0.431-0.962,0.962s0.431,0.962,0.962,0.962h3.069
		c0.531,0,0.962-0.431,0.962-0.962S44.852,21.537,44.32,21.537z"/>
	<path  d="M44.32,31.19h-3.069c-0.531,0-0.962,0.432-0.962,0.963s0.431,0.962,0.962,0.962h3.069
		c0.531,0,0.962-0.431,0.962-0.962S44.852,31.19,44.32,31.19z"/>
	<path  d="M44.32,41.187h-3.069c-0.531,0-0.962,0.432-0.962,0.962c0,0.531,0.431,0.963,0.962,0.963h3.069
		c0.531,0,0.962-0.432,0.962-0.963C45.282,41.618,44.852,41.187,44.32,41.187z"/>
</g>
</svg>
