<?xml version="1.0" encoding="utf-8"?>
<!-- Generator: Adobe Illustrator 16.0.3, SVG Export Plug-In . SVG Version: 6.00 Build 0)  -->
<!DOCTYPE svg PUBLIC "-//W3C//DTD SVG 1.1//EN" "http://www.w3.org/Graphics/SVG/1.1/DTD/svg11.dtd">
<svg version="1.1" id="Layer_1" xmlns="http://www.w3.org/2000/svg" xmlns:xlink="http://www.w3.org/1999/xlink" x="0px" y="0px"
	 width="127.999px" height="128px" viewBox="0 0 127.999 128" style="enable-background:new 0 0 127.999 128;" xml:space="preserve"
	>
<style type="text/css">
<![CDATA[
	.st0{;}
]]>
</style>
<g>
	<path class="st0" d="M117.469,7.53H10.529c-1.656,0-3,1.343-3,3v106.94c0,1.656,1.344,3,3,3h106.939c1.658,0,3-1.344,3-3V10.53
		C120.469,8.873,119.127,7.53,117.469,7.53z M103.521,57.359H57.025c-2.486,0-4.5-2.014-4.5-4.5c0-2.485,2.014-4.5,4.5-4.5h46.496
		c2.484,0,4.5,2.015,4.5,4.5C108.021,55.345,106.006,57.359,103.521,57.359z M108.021,95.812c0,2.486-2.016,4.5-4.5,4.5H57.025
		c-2.486,0-4.5-2.014-4.5-4.5c0-2.484,2.014-4.5,4.5-4.5h46.496C106.006,91.312,108.021,93.328,108.021,95.812z M56.811,35.858
		L33.256,55.537c-0.074,0.062-0.156,0.105-0.232,0.162c-0.1,0.074-0.199,0.146-0.305,0.211c-0.143,0.088-0.291,0.162-0.439,0.232
		c-0.102,0.047-0.201,0.1-0.305,0.139c-0.176,0.066-0.354,0.113-0.533,0.158c-0.086,0.021-0.17,0.051-0.256,0.066
		c-0.27,0.051-0.541,0.078-0.812,0.078c0,0,0,0-0.002,0l0,0c-0.307,0-0.611-0.035-0.912-0.098c-0.094-0.02-0.184-0.057-0.277-0.082
		c-0.203-0.055-0.404-0.115-0.598-0.199c-0.111-0.047-0.213-0.111-0.32-0.168c-0.168-0.09-0.334-0.182-0.492-0.295
		c-0.107-0.076-0.207-0.164-0.309-0.252c-0.09-0.076-0.189-0.139-0.275-0.225l-7.139-7.14c-1.758-1.757-1.758-4.606,0-6.364
		c1.758-1.757,4.607-1.757,6.365,0l4.23,4.23l20.396-17.041c1.904-1.593,4.744-1.34,6.338,0.568
		C58.973,31.427,58.717,34.265,56.811,35.858z M20.049,87.027c1.758-1.756,4.607-1.758,6.365,0l4.23,4.23l20.396-17.041
		c1.904-1.592,4.744-1.34,6.338,0.568s1.338,4.746-0.568,6.338l-23.555,19.68c-0.074,0.062-0.156,0.105-0.232,0.162
		c-0.1,0.074-0.199,0.146-0.305,0.211c-0.143,0.088-0.291,0.162-0.439,0.232c-0.102,0.047-0.201,0.1-0.305,0.139
		c-0.176,0.066-0.354,0.113-0.533,0.158c-0.086,0.021-0.17,0.051-0.256,0.066c-0.27,0.051-0.541,0.078-0.812,0.078c0,0,0,0-0.002,0
		l0,0c-0.307,0-0.611-0.035-0.912-0.098c-0.094-0.02-0.184-0.057-0.277-0.082c-0.203-0.055-0.404-0.115-0.598-0.199
		c-0.111-0.047-0.213-0.111-0.32-0.168c-0.168-0.09-0.334-0.182-0.492-0.295c-0.107-0.076-0.207-0.164-0.309-0.252
		c-0.09-0.076-0.189-0.139-0.275-0.225l-7.139-7.141C18.291,91.632,18.291,88.785,20.049,87.027z"/>
</g>
</svg>
