<?xml version="1.0" encoding="utf-8"?>
<!-- Generator: Adobe Illustrator 16.0.3, SVG Export Plug-In . SVG Version: 6.00 Build 0)  -->
<!DOCTYPE svg PUBLIC "-//W3C//DTD SVG 1.1//EN" "http://www.w3.org/Graphics/SVG/1.1/DTD/svg11.dtd">
<svg version="1.1" id="Layer_1" xmlns="http://www.w3.org/2000/svg" xmlns:xlink="http://www.w3.org/1999/xlink" x="0px" y="0px"
	 width="127.999px" height="128px" viewBox="0 0 127.999 128" style="enable-background:new 0 0 127.999 128;" xml:space="preserve"
	>
<style type="text/css">
<![CDATA[
	.st0{;}
]]>
</style>
<g>
	<path class="st0" d="M67.023,82.234c-1.172,1.172-2.707,1.758-4.242,1.758c-1.537,0-3.072-0.586-4.244-1.758
		c-0.002-0.002-0.002-0.004-0.004-0.005L41.404,65.1c-2.344-2.343-2.344-6.142,0-8.484c2.342-2.344,6.143-2.344,8.484,0
		l12.893,12.893l47.551-47.551c-0.924-2.706-3.486-4.661-6.502-4.661H24.17c-3.791,0-6.875,3.084-6.875,6.875v79.659
		c0,3.79,3.084,6.874,6.875,6.874h79.66c3.791,0,6.875-3.084,6.875-6.874V38.554L67.023,82.234z"/>
</g>
</svg>
