<?xml version="1.0" encoding="utf-8"?>
<!-- Generator: Adobe Illustrator 16.0.3, SVG Export Plug-In . SVG Version: 6.00 Build 0)  -->
<!DOCTYPE svg PUBLIC "-//W3C//DTD SVG 1.1//EN" "http://www.w3.org/Graphics/SVG/1.1/DTD/svg11.dtd">
<svg version="1.1" id="Layer_1" xmlns="http://www.w3.org/2000/svg" xmlns:xlink="http://www.w3.org/1999/xlink" x="0px" y="0px"
	 width="127.999px" height="128px" viewBox="0 0 127.999 128" style="enable-background:new 0 0 127.999 128;" xml:space="preserve"
	>
<style type="text/css">
<![CDATA[
	.st0{;}
]]>
</style>
<g>
	<path class="st0" d="M98.588,15.147H29.41c-3.535,0-6.412,2.877-6.412,6.414v40.05c0,39.125,39.771,51.009,40.172,51.124
		c0.271,0.078,0.551,0.117,0.83,0.117c0.363,0,0.729-0.066,1.072-0.198c1.631-0.625,39.93-15.708,39.93-51.043v-40.05
		C105.002,18.024,102.125,15.147,98.588,15.147z M51.855,79.095c-1.15,0-2.303-0.439-3.182-1.318L38.047,67.15
		c-1.758-1.757-1.758-4.606,0-6.363c1.756-1.758,4.607-1.758,6.363,0l7.445,7.445l31.879-31.876c1.756-1.757,4.607-1.757,6.363,0
		c1.758,1.758,1.758,4.607,0,6.364L55.037,77.777C54.16,78.656,53.008,79.095,51.855,79.095z"/>
</g>
</svg>
