<?xml version="1.0" encoding="utf-8"?>
<!-- Generator: Adobe Illustrator 16.0.3, SVG Export Plug-In . SVG Version: 6.00 Build 0)  -->
<!DOCTYPE svg PUBLIC "-//W3C//DTD SVG 1.1//EN" "http://www.w3.org/Graphics/SVG/1.1/DTD/svg11.dtd">
<svg version="1.1" id="Layer_1" xmlns="http://www.w3.org/2000/svg" xmlns:xlink="http://www.w3.org/1999/xlink" x="0px" y="0px"
	 width="128px" height="128px" viewBox="0 0 128 128" style="enable-background:new 0 0 128 128;" xml:space="preserve">
<style type="text/css">
<![CDATA[
	.st0{;}
]]>
</style>
<g>
	<path class="st0" d="M103.83,17.296H24.17c-3.791,0-6.875,3.084-6.875,6.875v79.659c0,3.79,3.084,6.874,6.875,6.874h79.659
		c3.791,0,6.875-3.084,6.875-6.874V24.171C110.705,20.38,107.621,17.296,103.83,17.296z M90.906,84.542
		c1.758,1.757,1.758,4.606,0,6.363c-0.878,0.879-2.03,1.318-3.182,1.318s-2.304-0.439-3.182-1.318L64,70.364L43.458,90.905
		c-0.879,0.879-2.03,1.318-3.182,1.318c-1.152,0-2.304-0.439-3.183-1.318c-1.757-1.757-1.757-4.606,0-6.363l20.542-20.541
		L37.094,43.459c-1.757-1.757-1.757-4.606,0-6.363c1.758-1.758,4.606-1.758,6.364,0L64,57.637l20.542-20.541
		c1.756-1.758,4.607-1.758,6.363,0c1.758,1.757,1.758,4.606,0,6.363L70.364,64.001L90.906,84.542z"/>
</g>
</svg>
