<?xml version="1.0" encoding="utf-8"?>
<!-- Generator: Adobe Illustrator 16.0.3, SVG Export Plug-In . SVG Version: 6.00 Build 0)  -->
<!DOCTYPE svg PUBLIC "-//W3C//DTD SVG 1.1//EN" "http://www.w3.org/Graphics/SVG/1.1/DTD/svg11.dtd">
<svg version="1.1" id="Layer_1" xmlns="http://www.w3.org/2000/svg" xmlns:xlink="http://www.w3.org/1999/xlink" x="0px" y="0px"
	 width="128px" height="128px" viewBox="0 0 128 128" style="enable-background:new 0 0 128 128;" xml:space="preserve">
<g>
	<path d="M90.204,31.025H61.043c-5.685,0-8.58,2.893-8.58,8.577v70.334c0,5.685,2.896,8.577,8.58,8.577l29.161-0.001
		c5.685,0.001,8.577-2.891,8.577-8.576V39.602C98.781,33.917,95.889,31.025,90.204,31.025z M67.774,36.166h15.701
		c0.979,0,1.771,0.792,1.771,1.771c0,0.98-0.792,1.775-1.771,1.775H67.774c-0.979,0-1.777-0.795-1.777-1.775
		C65.997,36.958,66.795,36.166,67.774,36.166z M95.636,106.338H55.395V44.843h40.241V106.338z"/>
	<path d="M58.213,24.002c1.157,0.429,2.442-0.16,2.872-1.316c0.43-1.156-0.16-2.442-1.316-2.872
		c-4.802-1.784-10.711-0.377-15.057,3.583c-4.835,4.407-6.65,11.079-4.415,16.226c0.366,0.841,1.188,1.344,2.05,1.344
		c0.298,0,0.6-0.06,0.89-0.186c1.131-0.491,1.65-1.807,1.159-2.938c-1.487-3.421-0.119-8.003,3.326-11.144
		C50.844,23.853,54.962,22.794,58.213,24.002z"/>
	<path d="M39.892,19.003c4.974-4.534,11.579-6.204,16.826-4.256c1.156,0.43,2.442-0.16,2.872-1.316
		c0.429-1.157-0.16-2.442-1.317-2.872c-6.797-2.525-15.194-0.507-21.391,5.141c-6.888,6.278-9.492,15.74-6.333,23.01
		c0.366,0.842,1.188,1.344,2.05,1.344c0.297,0,0.599-0.06,0.889-0.186c1.132-0.492,1.65-1.808,1.159-2.939
		C32.237,31.386,34.395,24.014,39.892,19.003z"/>
</g>
</svg>
