<?xml version="1.0" encoding="utf-8"?>
<!-- Generator: Adobe Illustrator 16.0.3, SVG Export Plug-In . SVG Version: 6.00 Build 0)  -->
<!DOCTYPE svg PUBLIC "-//W3C//DTD SVG 1.1//EN" "http://www.w3.org/Graphics/SVG/1.1/DTD/svg11.dtd">
<svg version="1.1" id="Layer_1" xmlns="http://www.w3.org/2000/svg" xmlns:xlink="http://www.w3.org/1999/xlink" x="0px" y="0px"
	 width="128px" height="128px" viewBox="0 0 128 128" style="enable-background:new 0 0 128 128;" xml:space="preserve">
<g>
	<path d="M81.716,9.661h-0.314c0,0-7.268-1.665-18.344-1.665c-11.078,0-16.46,1.665-16.46,1.665h-0.313
		c-1.725,0-3.123,1.398-3.123,3.123V116.88c0,1.725,1.398,3.123,3.123,3.123h35.432c1.725,0,3.123-1.398,3.123-3.123V12.784
		C84.839,11.06,83.44,9.661,81.716,9.661z M63.55,60.954c2.335,0,4.229,1.893,4.229,4.228s-1.894,4.228-4.229,4.228
		s-4.229-1.893-4.229-4.228S61.215,60.954,63.55,60.954z M59.321,50.735c0-2.335,1.894-4.228,4.229-4.228s4.229,1.893,4.229,4.228
		c0,2.335-1.894,4.229-4.229,4.229S59.321,53.071,59.321,50.735z M63.987,81.371c3.131,0,6.109,0.981,8.613,2.838
		c0.178,0.132,0.291,0.335,0.307,0.556c0.018,0.222-0.064,0.439-0.221,0.595l-8.161,8.161c-0.149,0.149-0.344,0.224-0.54,0.224
		c-0.194,0-0.389-0.075-0.538-0.224l-8.161-8.16c-0.156-0.157-0.237-0.374-0.221-0.595c0.016-0.222,0.129-0.424,0.307-0.557
		C57.876,82.353,60.854,81.371,63.987,81.371z M63.55,40.704c-2.335,0-4.229-1.893-4.229-4.228c0-2.335,1.894-4.228,4.229-4.228
		s4.229,1.893,4.229,4.228C67.778,38.812,65.885,40.704,63.55,40.704z M46.075,18.676c0-2.518,2.041-4.559,4.559-4.559
		s4.559,2.041,4.559,4.559s-2.041,4.559-4.559,4.559S46.075,21.194,46.075,18.676z M50.632,40.704c-2.336,0-4.229-1.893-4.229-4.228
		c0-2.335,1.893-4.228,4.229-4.228c2.335,0,4.229,1.893,4.229,4.228C54.86,38.812,52.967,40.704,50.632,40.704z M54.86,50.735
		c0,2.335-1.894,4.229-4.229,4.229c-2.336,0-4.229-1.893-4.229-4.229c0-2.335,1.893-4.228,4.229-4.228
		C52.967,46.507,54.86,48.4,54.86,50.735z M46.403,65.182c0-2.335,1.893-4.228,4.229-4.228c2.335,0,4.229,1.893,4.229,4.228
		s-1.894,4.228-4.229,4.228C48.296,69.41,46.403,67.517,46.403,65.182z M51.192,106.539c-0.018,0-0.037-0.001-0.057-0.002
		c-0.221-0.017-0.424-0.128-0.556-0.307c-3.76-5.072-3.76-12.157,0-17.229c0.132-0.178,0.335-0.29,0.556-0.306
		c0.227-0.016,0.439,0.064,0.596,0.221l8.16,8.16c0.298,0.298,0.298,0.781,0,1.079l-8.16,8.16
		C51.589,106.458,51.394,106.539,51.192,106.539z M72.601,111.022c-2.504,1.856-5.482,2.837-8.613,2.837h-0.001
		c-3.132,0-6.11-0.981-8.614-2.837c-0.178-0.132-0.291-0.335-0.307-0.557c-0.017-0.221,0.064-0.439,0.221-0.595l8.161-8.161
		c0.286-0.286,0.792-0.286,1.078,0l8.16,8.161c0.157,0.156,0.238,0.374,0.222,0.595C72.892,110.687,72.778,110.89,72.601,111.022z
		 M77.393,106.23c-0.132,0.178-0.335,0.29-0.556,0.307c-0.02,0.001-0.038,0.002-0.057,0.002c-0.201,0-0.396-0.08-0.539-0.224
		l-8.16-8.16c-0.144-0.143-0.224-0.337-0.224-0.539s0.08-0.396,0.224-0.54l8.161-8.161c0.155-0.157,0.37-0.236,0.595-0.221
		c0.221,0.016,0.424,0.128,0.557,0.307C81.153,94.073,81.153,101.158,77.393,106.23z M76.468,69.41
		c-2.335,0-4.229-1.893-4.229-4.228s1.894-4.228,4.229-4.228c2.336,0,4.229,1.893,4.229,4.228S78.804,69.41,76.468,69.41z
		 M76.468,54.964c-2.335,0-4.229-1.893-4.229-4.229c0-2.335,1.894-4.228,4.229-4.228c2.336,0,4.229,1.893,4.229,4.228
		C80.696,53.071,78.804,54.964,76.468,54.964z M76.468,40.704c-2.335,0-4.229-1.893-4.229-4.228c0-2.335,1.894-4.228,4.229-4.228
		c2.336,0,4.229,1.893,4.229,4.228C80.696,38.812,78.804,40.704,76.468,40.704z"/>
</g>
</svg>
