<?xml version="1.0" encoding="utf-8"?>
<!-- Generator: Adobe Illustrator 16.0.3, SVG Export Plug-In . SVG Version: 6.00 Build 0)  -->
<!DOCTYPE svg PUBLIC "-//W3C//DTD SVG 1.1//EN" "http://www.w3.org/Graphics/SVG/1.1/DTD/svg11.dtd">
<svg version="1.1" id="Layer_1" xmlns="http://www.w3.org/2000/svg" xmlns:xlink="http://www.w3.org/1999/xlink" x="0px" y="0px"
	 width="128px" height="128px" viewBox="0 0 128 128" style="enable-background:new 0 0 128 128;" xml:space="preserve">
<g>
	<path d="M64,93.892c-22.273,0-40.881-5.455-45.389-12.734v15.788h0.014c0.007,0.101,0.019,0.201,0.031,0.302
		c-0.028,0.227-0.045,0.455-0.045,0.685c0,8.719,20.321,15.788,45.389,15.788s45.389-7.068,45.389-15.788
		c0-0.23-0.017-0.458-0.045-0.685c0.028-0.228,0.045-0.456,0.045-0.686c0-0.229-0.017-0.457-0.045-0.684V81.23
		C104.759,88.472,86.2,93.892,64,93.892z"/>
	<path d="M64,89.49c24.52,0,44.495-6.763,45.357-15.218c0.019-0.189,0.032-0.379,0.032-0.569c0-0.229-0.017-0.457-0.045-0.684
		V57.452C104.759,64.694,86.2,70.114,64,70.114c-22.273,0-40.881-5.455-45.389-12.734v16.707h0.014
		c0.004,0.062,0.012,0.124,0.019,0.186C19.505,82.727,39.48,89.49,64,89.49z"/>
	<path d="M18.625,50.843C19.211,59.385,39.301,66.248,64,66.248c24.99,0,45.26-7.024,45.386-15.707c0-0.027,0.003-0.054,0.003-0.082
		c0-0.229-0.017-0.457-0.045-0.684V30.751c0.028-0.227,0.045-0.455,0.045-0.684c0-8.719-20.321-15.788-45.389-15.788
		c-24.513,0-44.485,6.759-45.356,15.212h-0.033v21.054v0.298H18.625z M64,18.237c18.785,0,34.013,5.297,34.013,11.831
		S82.785,41.898,64,41.898s-34.013-5.297-34.013-11.831S45.215,18.237,64,18.237z"/>
</g>
</svg>
