<?xml version="1.0" encoding="utf-8"?>
<!-- Generator: Adobe Illustrator 16.0.3, SVG Export Plug-In . SVG Version: 6.00 Build 0)  -->
<!DOCTYPE svg PUBLIC "-//W3C//DTD SVG 1.1//EN" "http://www.w3.org/Graphics/SVG/1.1/DTD/svg11.dtd">
<svg version="1.1" id="Layer_1" xmlns="http://www.w3.org/2000/svg" xmlns:xlink="http://www.w3.org/1999/xlink" x="0px" y="0px"
	 width="128px" height="128px" viewBox="0 0 128 128" style="enable-background:new 0 0 128 128;" xml:space="preserve">
<g>
	<path d="M101.763,80.693h-0.561V45.232c0-2.226-1.811-4.036-4.036-4.036s-4.036,1.81-4.036,4.036v35.461H16.27
		c-5.077,0-9.192,4.115-9.192,9.192v13.41c0,5.076,4.116,9.192,9.192,9.192h85.494c5.077,0,9.192-4.116,9.192-9.192v-13.41
		C110.955,84.808,106.84,80.693,101.763,80.693z M84.897,96.521c0,2.009-1.628,3.637-3.636,3.637c-2.009,0-3.637-1.628-3.637-3.637
		c0-2.008,1.628-3.636,3.637-3.636C83.269,92.885,84.897,94.513,84.897,96.521z M68.538,96.114v0.951
		c0,0.558-0.454,1.012-1.012,1.012H61.46c-0.558,0-1.012-0.454-1.012-1.012v-0.951c0-0.558,0.454-1.012,1.012-1.012h6.066
		C68.084,95.102,68.538,95.556,68.538,96.114z M57.018,96.114v0.951c0,0.558-0.454,1.012-1.012,1.012H49.94
		c-0.558,0-1.012-0.454-1.012-1.012v-0.951c0-0.558,0.454-1.012,1.012-1.012h6.066C56.564,95.102,57.018,95.556,57.018,96.114z
		 M44.778,96.114v0.951c0,0.558-0.454,1.012-1.012,1.012H37.7c-0.558,0-1.012-0.454-1.012-1.012v-0.951
		c0-0.558,0.454-1.012,1.012-1.012h6.065C44.324,95.102,44.778,95.556,44.778,96.114z M32.778,96.114v0.951
		c0,0.558-0.454,1.012-1.012,1.012H25.7c-0.558,0-1.012-0.454-1.012-1.012v-0.951c0-0.558,0.454-1.012,1.012-1.012h6.065
		C32.324,95.102,32.778,95.556,32.778,96.114z M20.298,96.114v0.951c0,0.558-0.454,1.012-1.012,1.012H13.22
		c-0.558,0-1.012-0.454-1.012-1.012v-0.951c0-0.558,0.454-1.012,1.012-1.012h6.065C19.844,95.102,20.298,95.556,20.298,96.114z
		 M90.86,92.885c2.009,0,3.637,1.628,3.637,3.636c0,2.009-1.628,3.637-3.637,3.637c-2.008,0-3.637-1.628-3.637-3.637
		C87.224,94.513,88.852,92.885,90.86,92.885z M100.46,92.885c2.008,0,3.637,1.628,3.637,3.636c0,2.009-1.628,3.637-3.637,3.637
		s-3.637-1.628-3.637-3.637C96.824,94.513,98.452,92.885,100.46,92.885z"/>
	<path d="M97.091,26.952c-7.918-0.331-15.161,3.731-17.62,9.886c-0.475,1.188,0.104,2.535,1.292,3.01
		c0.282,0.112,0.572,0.166,0.858,0.166c0.919,0,1.79-0.552,2.151-1.458c1.742-4.361,7.142-7.234,13.123-6.977
		c5.423,0.23,10.143,2.93,12.026,6.879c0.55,1.154,1.932,1.645,3.087,1.094c1.154-0.55,1.645-1.932,1.094-3.087
		C110.49,30.987,104.206,27.253,97.091,26.952z"/>
	<path d="M120.696,29.118c-3.726-7.815-12.738-13.144-22.962-13.577c-11.365-0.479-21.742,5.303-25.24,14.066
		c-0.475,1.188,0.104,2.535,1.292,3.01c0.281,0.112,0.572,0.166,0.858,0.166c0.919,0,1.79-0.552,2.151-1.458
		c2.782-6.968,11.31-11.556,20.743-11.156c8.531,0.361,15.98,4.656,18.977,10.942c0.55,1.154,1.932,1.645,3.087,1.094
		C120.757,31.655,121.247,30.272,120.696,29.118z"/>
</g>
</svg>
