<?xml version="1.0" encoding="utf-8"?>
<!-- Generator: Adobe Illustrator 16.0.3, SVG Export Plug-In . SVG Version: 6.00 Build 0)  -->
<!DOCTYPE svg PUBLIC "-//W3C//DTD SVG 1.1//EN" "http://www.w3.org/Graphics/SVG/1.1/DTD/svg11.dtd">
<svg version="1.1" id="Layer_1" xmlns="http://www.w3.org/2000/svg" xmlns:xlink="http://www.w3.org/1999/xlink" x="0px" y="0px"
	 width="128px" height="128px" viewBox="0 0 128 128" style="enable-background:new 0 0 128 128;" xml:space="preserve">
<g>
	<path d="M43.203,63.373c-6.255-2.429-10.624-10.661-10.624-20.021c0-8.48,3.53-16.028,8.994-19.23
		c1.209-0.708,1.616-2.264,0.907-3.473s-2.264-1.616-3.473-0.907c-6.989,4.095-11.504,13.362-11.504,23.61
		c0,11.587,5.571,21.534,13.863,24.754c0.302,0.117,0.613,0.172,0.918,0.172c1.017,0,1.977-0.615,2.367-1.62
		C45.157,65.351,44.509,63.88,43.203,63.373z"/>
	<path d="M30.931,73.959C21.192,70.178,14.39,57.496,14.39,43.118c0-13.006,5.475-24.618,13.947-29.582
		c1.21-0.708,1.616-2.264,0.907-3.473c-0.708-1.21-2.264-1.616-3.473-0.907C15.773,15.014,9.313,28.345,9.313,43.118
		c0,16.424,8.134,31.052,19.781,35.574c0.301,0.117,0.612,0.172,0.918,0.172c1.017,0,1.977-0.615,2.367-1.62
		C32.886,75.937,32.238,74.466,30.931,73.959z"/>
	<path d="M88.994,19.742c-1.209-0.709-2.764-0.303-3.473,0.907s-0.303,2.765,0.907,3.473c5.464,3.202,8.994,10.75,8.994,19.23
		c0,9.36-4.369,17.592-10.624,20.021c-1.307,0.507-1.955,1.978-1.447,3.285c0.39,1.005,1.35,1.62,2.367,1.62
		c0.306,0,0.616-0.056,0.918-0.172c8.292-3.22,13.863-13.167,13.863-24.754C100.498,33.104,95.982,23.837,88.994,19.742z"/>
	<path d="M102.229,9.156c-1.209-0.709-2.765-0.303-3.473,0.907c-0.709,1.209-0.303,2.765,0.907,3.473
		c8.473,4.964,13.947,16.576,13.947,29.582c0,14.377-6.802,27.06-16.541,30.841c-1.307,0.507-1.955,1.978-1.448,3.285
		c0.39,1.005,1.35,1.62,2.367,1.62c0.306,0,0.617-0.056,0.918-0.172c11.647-4.522,19.781-19.15,19.781-35.574
		C118.687,28.345,112.227,15.014,102.229,9.156z"/>
	<path d="M65.029,31.397c-7.57,0-13.707,6.137-13.707,13.707c0,5.755,3.549,10.679,8.576,12.71v56.248
		c0,2.829,2.302,5.13,5.131,5.13s5.131-2.301,5.131-5.13V57.814c5.027-2.031,8.576-6.955,8.576-12.71
		C78.735,37.534,72.598,31.397,65.029,31.397z"/>
</g>
</svg>
