<?xml version="1.0" encoding="utf-8"?>
<!-- Generator: Adobe Illustrator 16.0.3, SVG Export Plug-In . SVG Version: 6.00 Build 0)  -->
<!DOCTYPE svg PUBLIC "-//W3C//DTD SVG 1.1//EN" "http://www.w3.org/Graphics/SVG/1.1/DTD/svg11.dtd">
<svg version="1.1" id="Layer_1" xmlns="http://www.w3.org/2000/svg" xmlns:xlink="http://www.w3.org/1999/xlink" x="0px" y="0px"
	 width="128px" height="128px" viewBox="0 0 128 128" style="enable-background:new 0 0 128 128;" xml:space="preserve">
<g>
	<path d="M69.388,62.193c1.461-1.411,2.371-3.389,2.371-5.581c0-4.286-3.474-7.76-7.76-7.76c-4.285,0-7.76,3.474-7.759,7.76
		c0,2.192,0.91,4.169,2.371,5.581l-19.7,52.974c-0.254,0.682-0.227,1.422,0.076,2.084c0.303,0.662,0.846,1.167,1.528,1.42
		c0.306,0.113,0.625,0.171,0.95,0.171c1.133,0,2.16-0.714,2.555-1.776l3.69-9.923h32.578l3.69,9.922
		c0.395,1.062,1.421,1.777,2.555,1.777c0.325,0,0.644-0.058,0.95-0.171c0.683-0.254,1.226-0.758,1.528-1.42
		c0.303-0.662,0.33-1.402,0.077-2.084L69.388,62.193z M63.621,64.363c0.125,0.006,0.252,0.009,0.379,0.009s0.253-0.003,0.379-0.009
		l6.917,18.599H56.704L63.621,64.363z M49.738,101.692l4.938-13.279h18.646l4.939,13.279H49.738z"/>
	<path d="M64,25.511c-8.308,0-16.119,3.235-21.993,9.109c-5.875,5.875-9.11,13.685-9.109,21.993c0,4.791,1.058,9.384,3.146,13.65
		c0.128,0.262,0.383,0.438,0.673,0.466c0.027,0.003,0.054,0.004,0.08,0.004c0.262,0,0.51-0.122,0.669-0.334l2.301-3.051
		c0.178-0.237,0.219-0.55,0.106-0.823c-1.29-3.14-1.943-6.475-1.943-9.913c0-6.964,2.711-13.511,7.635-18.434
		c4.924-4.924,11.471-7.636,18.435-7.636c14.375,0,26.071,11.695,26.071,26.07c0,3.415-0.658,6.744-1.956,9.895
		c-0.113,0.274-0.073,0.588,0.105,0.824l2.304,3.054c0.176,0.233,0.46,0.361,0.75,0.33c0.29-0.028,0.545-0.204,0.673-0.466
		c2.095-4.274,3.157-8.863,3.157-13.638C95.103,39.463,81.15,25.511,64,25.511z"/>
	<path d="M63.999,9.157c-12.676,0-24.593,4.937-33.557,13.899c-8.963,8.963-13.899,20.881-13.899,33.557
		c0,10.09,3.109,19.707,8.991,27.808c0.156,0.215,0.405,0.344,0.671,0.346c0.002,0,0.005,0,0.007,0c0.263,0,0.511-0.123,0.669-0.333
		l2.12-2.812c0.218-0.288,0.227-0.684,0.021-0.981c-4.873-7.062-7.449-15.37-7.448-24.027c0-11.332,4.412-21.986,12.425-29.999
		c8.013-8.013,18.667-12.425,29.998-12.425c23.394,0,42.425,19.031,42.425,42.423c0,8.615-2.582,16.916-7.465,24.006
		c-0.205,0.297-0.196,0.692,0.021,0.981l2.12,2.811c0.16,0.212,0.42,0.338,0.678,0.333c0.266-0.002,0.515-0.131,0.671-0.346
		c5.894-8.133,9.009-17.74,9.009-27.785C111.457,30.446,90.167,9.157,63.999,9.157z"/>
	<polygon points="64.411,33.278 63.588,33.278 64,33.824 	"/>
</g>
</svg>
