<?xml version="1.0" encoding="utf-8"?>
<!-- Generator: Adobe Illustrator 16.0.3, SVG Export Plug-In . SVG Version: 6.00 Build 0)  -->
<!DOCTYPE svg PUBLIC "-//W3C//DTD SVG 1.1//EN" "http://www.w3.org/Graphics/SVG/1.1/DTD/svg11.dtd">
<svg version="1.1" id="Layer_1" xmlns="http://www.w3.org/2000/svg" xmlns:xlink="http://www.w3.org/1999/xlink" x="0px" y="0px"
	 width="128px" height="128px" viewBox="0 0 128 128" style="enable-background:new 0 0 128 128;" xml:space="preserve">
<g>
	<path d="M72.33,59.626l33.074-33.073c0.063-0.063,0.118-0.133,0.167-0.205c0.072-0.048,0.141-0.104,0.205-0.167
		c0,0,3.906,0.969,10.665-5.791c0.728-0.728,0.001-1.939-1.194-3.134l-4.507-4.508c-1.195-1.194-2.425-1.902-3.134-1.193
		c-7.01,7.011-5.791,10.665-5.791,10.665c-0.063,0.063-0.118,0.132-0.167,0.204c-0.072,0.049-0.141,0.104-0.204,0.167L68.362,55.673
		l-18.208-18.14c0,0,4.491-13.337-2.552-20.38c-7.042-7.042-17.702-5.651-17.702-5.651l-3.653,3.654l8.979,8.98l2.311,7.955
		l-5.625,5.626l-8.954-2.249l-8.513-8.514L11.804,29.6c0,0-1.953,10.094,5.653,17.7s19.376,2.336,19.376,2.336L55.63,68.405
		l-5.137,5.137l-1.616-1.616c-1.907-1.906-5.018-1.887-6.949,0.045L12.73,101.168c-1.932,1.932-1.952,5.043-0.045,6.95l7.192,7.192
		c1.907,1.907,5.019,1.887,6.952-0.045l29.197-29.197c1.931-1.932,1.951-5.043,0.044-6.95l-1.616-1.616l5.14-5.14l42.498,42.432
		c2.163,2.164,7.698,2.33,11.595-1.566s3.49-8.916,1.189-11.216L72.33,59.626z M18.818,105.12l-1.542-1.542
		c-1.335-1.336,23.713-26.386,25.05-25.049l1.541,1.542C45.205,81.407,20.156,106.456,18.818,105.12z M49.253,85.456
		c1.337,1.337-23.712,26.385-25.05,25.049l-0.019-0.019c0,0,0,0,0,0l-0.79-0.79l-0.732-0.732l0,0l-0.019-0.02
		c-1.336-1.336,23.712-26.386,25.049-25.049l0.02,0.019l0,0L49.253,85.456z M47.768,55.184c-2.072-2.072-2.072-5.432,0-7.504
		s5.432-2.072,7.504,0l10.542,10.542l-7.505,7.505L47.768,55.184z M99.616,99.527c-2.072,2.072-5.432,2.072-7.504,0L62.27,69.686
		l7.505-7.504l29.841,29.842C101.689,94.095,101.689,97.455,99.616,99.527z"/>
</g>
</svg>
