<?xml version="1.0" encoding="utf-8"?>
<!-- Generator: Adobe Illustrator 16.0.3, SVG Export Plug-In . SVG Version: 6.00 Build 0)  -->
<!DOCTYPE svg PUBLIC "-//W3C//DTD SVG 1.1//EN" "http://www.w3.org/Graphics/SVG/1.1/DTD/svg11.dtd">
<svg version="1.1" id="Layer_1" xmlns="http://www.w3.org/2000/svg" xmlns:xlink="http://www.w3.org/1999/xlink" x="0px" y="0px"
	 width="128px" height="128px" viewBox="0 0 128 128" style="enable-background:new 0 0 128 128;" xml:space="preserve">
<g>
	<path d="M98.899,30.499c-0.273-1.018-0.742-1.885-1.43-2.565c-5.08-5.034-20.004,1.702-34.027,15.114l-3.555-2.735
		c0.664-1.009,1.051-2.217,1.051-3.515c0-3.541-2.871-6.411-6.412-6.411s-6.41,2.871-6.41,6.411c0,3.541,2.869,6.412,6.41,6.412
		c1.213,0,2.348-0.337,3.316-0.923l2.592,3.759C46.513,60.48,39.47,76.063,44.671,81.218c0.542,0.536,1.201,0.933,1.952,1.208
		l-0.052,0.055c0,0,22.231,7.838,38.248-4.026C88.631,75.632,110.47,53.44,98.899,30.499z M51.388,36.798
		c0-1.733,1.404-3.139,3.139-3.139s3.139,1.405,3.139,3.139s-1.404,3.139-3.139,3.139S51.388,38.531,51.388,36.798z M51.228,74.601
		c-3.822-3.789,1.154-15.075,11.162-25.719l5.791,8.396c0,0,2.371-0.004,4.385-2.017s1.401-4.114,1.401-4.114l-7.81-6.01
		c10.297-9.564,21.037-14.273,24.756-10.587c4.002,3.965-1.637,16.146-12.596,27.206C67.356,72.815,55.229,78.567,51.228,74.601z"/>
	<path d="M87.212,81.424c-1.295,0.959-2.642,1.748-4.016,2.396c-0.272,2.466,1.382,4.773,3.86,5.267
		c2.619,0.521,5.165-1.179,5.687-3.798c0.506-2.542-1.082-5.017-3.572-5.635C88.316,80.515,87.626,81.118,87.212,81.424z"/>
	<path d="M102.3,117.946l-8.274-27.249c-0.05-0.163-0.185-0.284-0.353-0.316c-0.166-0.031-0.338,0.032-0.443,0.166
		c-0.019,0.024-1.9,2.361-4.717,2.361l0,0c-1.566,0-3.146-0.724-4.695-2.151c-0.117-0.107-0.281-0.147-0.434-0.104
		s-0.271,0.161-0.316,0.312l-7.9,26.986c-0.041,0.138-0.014,0.288,0.072,0.402c0.087,0.116,0.223,0.183,0.365,0.183h26.259
		c0.145,0,0.28-0.068,0.366-0.185C102.317,118.235,102.343,118.085,102.3,117.946z"/>
	<path d="M45.021,28.574c4.291-4.29,10.066-6.062,14.048-4.308c0.831,0.367,1.804-0.011,2.169-0.843
		c0.283-0.639,0.124-1.361-0.342-1.827c-0.141-0.14-0.309-0.257-0.5-0.342c-5.277-2.325-12.391-0.319-17.701,4.992
		c-4.697,4.698-6.877,11.016-5.551,16.097c0.23,0.879,1.129,1.406,2.008,1.176c0.881-0.229,1.406-1.128,1.178-2.008
		C39.292,37.54,41.134,32.461,45.021,28.574z"/>
	<path d="M58.296,13.789c0.831,0.367,1.803-0.01,2.17-0.842c0.281-0.64,0.123-1.361-0.343-1.828
		c-0.141-0.141-0.308-0.257-0.499-0.342c-7.412-3.266-17.846-0.29-25.375,7.239c-6.773,6.772-9.922,15.845-8.023,23.113
		c0.229,0.879,1.127,1.406,2.007,1.176s1.407-1.128,1.177-2.008c-1.609-6.16,1.205-13.992,7.167-19.954
		C43.166,13.753,52.099,11.058,58.296,13.789z"/>
</g>
</svg>
