<?xml version="1.0" encoding="utf-8"?>
<!-- Generator: Adobe Illustrator 16.0.3, SVG Export Plug-In . SVG Version: 6.00 Build 0)  -->
<!DOCTYPE svg PUBLIC "-//W3C//DTD SVG 1.1//EN" "http://www.w3.org/Graphics/SVG/1.1/DTD/svg11.dtd">
<svg version="1.1" id="Layer_1" xmlns="http://www.w3.org/2000/svg" xmlns:xlink="http://www.w3.org/1999/xlink" x="0px" y="0px"
	 width="128px" height="128px" viewBox="0 0 128 128" style="enable-background:new 0 0 128 128;" xml:space="preserve">
<g>
	<path d="M112.245,16.876H15.756c-3.613,0-6.541,2.93-6.541,6.542v64.599c0,3.612,2.928,6.54,6.541,6.54h36.688l0.051,7.522
		l-4.061,7.098v1.186c0,0.96,0.779,0.739,1.739,0.739h27.649c0.961,0,1.742,0.221,1.742-0.739v-1.186l-4.054-7.065l0.046-7.555
		h36.688c3.61,0,6.54-2.927,6.54-6.54V23.418C118.785,19.806,115.855,16.876,112.245,16.876z M113.882,80.155v9.691H44.607H13.919
		v-9.691V21.274h78.609h21.354V80.155z"/>
	<path d="M79.973,30.876c-0.343-0.225-0.689-0.443-1.042-0.654C79.283,30.433,79.63,30.651,79.973,30.876z"/>
	<path d="M80,79.579c0.207-0.136,0.413-0.276,0.616-0.417C80.413,79.303,80.207,79.443,80,79.579z"/>
	<path d="M81.512,57.625c-2.169,0.96-4.155,2.146-5.959,3.554c0.06,0.204,0.094,0.42,0.094,0.644c0,0.404-0.106,0.782-0.29,1.111
		c2.066,2.137,4.58,4.032,7.529,5.682c0.252-0.274,0.568-0.485,0.927-0.611c-0.081-3.38-0.392-6.604-0.931-9.655
		C82.341,58.274,81.861,58.01,81.512,57.625z"/>
	<path d="M40.372,62.236c-0.626-0.406-1.041-1.109-1.041-1.91c0-0.526,0.18-1.009,0.479-1.395c-2.157-3.511-3.576-6.74-4.445-9.053
		c-0.322,1.737-0.493,3.528-0.493,5.359c0,5.587,1.574,10.806,4.302,15.24C39.289,68.419,39.599,65.54,40.372,62.236z"/>
	<path d="M62.878,79.606c-0.619-0.407-1.028-1.107-1.028-1.904c0-0.05,0.005-0.098,0.008-0.147
		c-2.127-0.792-4.093-1.717-5.905-2.738c-0.385,0.298-0.867,0.478-1.393,0.478c-0.031,0-0.062-0.003-0.094-0.005
		c-0.92,1.99-2.035,4.013-3.381,6.061c-0.471-0.232-0.933-0.477-1.387-0.734c1.295-1.95,2.406-3.92,3.34-5.908
		c-0.463-0.417-0.756-1.019-0.756-1.691c0-0.168,0.02-0.333,0.055-0.491c-3.64-2.579-6.527-5.493-8.765-8.26
		c-0.472-0.583-0.915-1.167-1.344-1.75c-0.104,0.029-0.21,0.052-0.319,0.066c-1.072,4.611-1.228,8.394-1.23,10.11
		c-0.266-0.353-0.521-0.713-0.771-1.078c4.915,7.217,12.989,12.11,22.233,12.692C62.245,83.179,62.454,81.546,62.878,79.606z"/>
	<path d="M84.362,76.063c-0.27,0.264-0.544,0.524-0.824,0.777C83.818,76.587,84.093,76.327,84.362,76.063z"/>
	<path d="M84.424,76.003c0.271-0.266,0.536-0.537,0.796-0.813C84.96,75.466,84.694,75.737,84.424,76.003z"/>
	<path d="M39.897,71.598c-0.247-0.364-0.486-0.734-0.717-1.109C39.411,70.864,39.65,71.234,39.897,71.598z"/>
	<path d="M83.536,76.842c0.129-1.542,0.216-3.057,0.262-4.545c-0.881-0.315-1.513-1.154-1.513-2.144
		c0-0.026,0.003-0.052,0.004-0.078c-3.19-1.764-5.901-3.807-8.125-6.12c-0.248,0.092-0.515,0.146-0.796,0.146
		c-0.299,0-0.586-0.06-0.848-0.165c-1.979,2.088-3.671,4.519-5.066,7.297c-0.799,1.59-1.428,3.17-1.929,4.674
		c0.458,0.357,0.775,0.886,0.857,1.49c4.576,1.173,9.526,1.622,14.841,1.332c-0.2,0.146-0.402,0.291-0.606,0.433
		C81.64,78.449,82.615,77.675,83.536,76.842z"/>
	<path d="M35.683,48.392c0.052-0.217,0.105-0.434,0.163-0.648C35.788,47.958,35.734,48.175,35.683,48.392z"/>
	<path d="M45.195,47.108c0.416-0.549,1.073-0.906,1.814-0.906c0.209,0,0.411,0.031,0.603,0.083c1.017-1.366,2.166-2.723,3.466-4.044
		c-0.186-0.33-0.293-0.71-0.293-1.115c0-0.599,0.232-1.142,0.61-1.548c-2.072-3.798-4.178-6.43-5.081-7.486
		c0.207-0.159,0.416-0.314,0.628-0.468c-4.088,2.958-7.377,6.95-9.483,11.594C39.219,44.382,41.825,45.862,45.195,47.108z"/>
	<path d="M35.523,49.088c0.045-0.208,0.091-0.416,0.141-0.623C35.614,48.672,35.568,48.88,35.523,49.088z"/>
	<path d="M37.134,43.963c-0.1,0.237-0.195,0.476-0.289,0.715C36.938,44.439,37.034,44.2,37.134,43.963z"/>
	<path d="M35.38,49.803c0.038-0.206,0.079-0.412,0.122-0.617C35.459,49.391,35.418,49.597,35.38,49.803z"/>
	<path d="M59.1,26.52c-0.254,0.043-0.507,0.089-0.758,0.139C58.593,26.609,58.846,26.563,59.1,26.52z"/>
	<path d="M60.717,26.293c1.856,0.76,4.253,1.942,6.828,3.724c0.515-0.496,1.214-0.801,1.984-0.801c0.065,0,0.131,0.005,0.196,0.01
		c0.338-0.88,0.669-1.668,0.97-2.344c-2.149-0.506-4.392-0.774-6.695-0.774c-1.386,0-2.749,0.099-4.083,0.286
		C60.182,26.357,60.448,26.323,60.717,26.293z"/>
	<path d="M70.708,26.885c0.254,0.06,0.506,0.123,0.758,0.19C71.214,27.009,70.962,26.945,70.708,26.885z"/>
	<path d="M59.907,26.396c-0.26,0.037-0.518,0.076-0.773,0.119C59.39,26.472,59.647,26.432,59.907,26.396z"/>
	<path d="M35.854,47.717c0.061-0.229,0.124-0.457,0.19-0.684c0.607,1.938,2.148,6.247,5.094,11.063
		c0.135-0.028,0.273-0.043,0.416-0.047c0.515-1.548,1.134-3.143,1.885-4.758c0.516-1.107,1.112-2.247,1.787-3.399
		c-0.282-0.356-0.459-0.799-0.486-1.283c-3.404-1.244-6.055-2.713-7.901-3.915C36.456,45.679,36.128,46.687,35.854,47.717z"/>
	<path d="M68.026,34.514c-0.301-0.187-0.564-0.426-0.778-0.708c-4.562,1.646-8.564,3.87-12.003,6.664
		c0.062,0.208,0.097,0.428,0.097,0.656c0,0.628-0.255,1.196-0.666,1.608c0.475,1.099,0.928,2.258,1.34,3.478
		c0.204,0.604,0.399,1.233,0.585,1.881c0.959,0.036,1.766,0.665,2.064,1.532c2.163,0.047,4.489-0.055,6.975-0.371
		c0.17-0.635,0.606-1.159,1.184-1.446C66.349,43.013,67.021,38.387,68.026,34.514z"/>
	<path d="M78.896,30.202c-2.284-1.363-4.771-2.421-7.405-3.12c0.253,0.067,0.504,0.138,0.753,0.211
		c-0.31,0.697-0.659,1.534-1.02,2.482c0.348,0.256,0.635,0.586,0.838,0.97c1.818-0.456,3.738-0.844,5.768-1.15
		C78.189,29.789,78.545,29.992,78.896,30.202z"/>
	<path d="M78.402,47.676c-2.9,1.068-5.672,1.856-8.301,2.41c-0.073,0.694-0.457,1.295-1.011,1.662
		c0.214,0.849,0.468,1.695,0.778,2.537c0.704,1.908,1.642,3.697,2.797,5.371c0.222-0.072,0.457-0.112,0.702-0.112
		c0.482,0,0.929,0.15,1.297,0.406c1.801-1.398,3.875-2.671,6.26-3.736c-0.003-0.04-0.006-0.079-0.006-0.118
		c0-0.809,0.422-1.517,1.057-1.921c-0.516-1.982-1.137-3.882-1.863-5.695C79.427,48.472,78.814,48.162,78.402,47.676z"/>
	<path d="M68.394,47.64c0.548,0.138,1.018,0.473,1.327,0.927c2.575-0.54,5.292-1.31,8.14-2.358c0-0.002,0-0.004,0-0.006
		c0-0.56,0.202-1.071,0.537-1.467c-1.716-3.305-3.826-6.27-6.338-8.857c-0.418-0.431-0.839-0.84-1.261-1.234
		c-0.37,0.183-0.783,0.29-1.222,0.297C68.614,38.666,67.963,43.093,68.394,47.64z"/>
	<path d="M78.731,80.369c-0.166,0.001-0.332,0.004-0.497,0.004c-4.485,0-8.525-0.55-12.161-1.491
		c-0.354,0.581-0.957,0.99-1.662,1.078c-0.394,1.808-0.596,3.337-0.697,4.401c-0.526-0.005-1.048-0.024-1.566-0.057
		c0.612,0.039,1.23,0.061,1.853,0.061c5.91,0,11.407-1.762,15.999-4.786C79.584,79.853,79.161,80.116,78.731,80.369z"/>
	<path d="M85.227,75.183c0.971-1.034,1.868-2.138,2.682-3.305c-0.151,0.216-0.305,0.431-0.461,0.642
		c-0.488-0.197-0.966-0.401-1.438-0.608c-0.192,0.158-0.412,0.283-0.649,0.372C85.332,73.233,85.29,74.196,85.227,75.183z"/>
	<path d="M56.055,52.599c-0.87-0.178-1.559-0.852-1.759-1.714c-1.84-0.219-3.533-0.534-5.062-0.908
		c-0.143-0.035-0.279-0.072-0.42-0.108c-0.416,0.54-1.068,0.89-1.804,0.89c-0.158,0-0.313-0.017-0.463-0.048
		c-0.594,1.024-1.151,2.083-1.665,3.185c-0.736,1.575-1.343,3.138-1.844,4.657c0.518,0.417,0.85,1.056,0.85,1.773
		c0,0.474-0.146,0.914-0.394,1.278c0.424,0.575,0.865,1.151,1.331,1.726c2.513,3.102,5.288,5.735,8.313,7.909
		c0.39-0.312,0.884-0.5,1.421-0.5c0.032,0,0.062,0.003,0.094,0.004C56.692,64.829,57.161,58.767,56.055,52.599z"/>
	<path d="M37.452,43.232c-0.107,0.237-0.212,0.477-0.312,0.718C37.24,43.708,37.345,43.469,37.452,43.232z"/>
	<path d="M62.441,76.174c0.396-0.438,0.959-0.719,1.589-0.745c0.521-1.553,1.173-3.188,2.002-4.845
		c1.239-2.48,2.965-5.158,5.344-7.659c-0.181-0.327-0.285-0.703-0.285-1.104c0-0.438,0.127-0.846,0.341-1.194
		c-1.255-1.806-2.271-3.743-3.032-5.813c-0.331-0.899-0.602-1.803-0.83-2.707c-0.796-0.093-1.465-0.597-1.793-1.293
		c-2.148,0.27-4.188,0.391-6.107,0.391c-0.351,0-0.693-0.006-1.034-0.015c-0.198,0.511-0.574,0.933-1.053,1.188
		c0.938,5.442,0.889,11.919-1.515,18.933c0.472,0.417,0.771,1.026,0.771,1.705c0,0.188-0.025,0.369-0.068,0.543
		C58.583,74.579,60.473,75.451,62.441,76.174z"/>
	<path d="M93.099,53.952c-0.01-0.24-0.023-0.48-0.039-0.719C93.075,53.472,93.089,53.711,93.099,53.952z"/>
	<path d="M85.469,56.186c-0.03,0.771-0.442,1.443-1.055,1.832c0.544,3.044,0.89,6.372,0.974,10.014
		c0.85,0.331,1.453,1.154,1.453,2.121c0,0.136-0.014,0.27-0.037,0.399c0.51,0.224,1.029,0.441,1.56,0.653
		c-0.144,0.22-0.291,0.437-0.44,0.652c3.28-4.713,5.206-10.441,5.206-16.62c0-0.164-0.004-0.327-0.006-0.491
		C90.392,54.996,87.844,55.482,85.469,56.186z"/>
	<path d="M49.283,48.377c0.136,0.034,0.27,0.07,0.407,0.103c1.449,0.351,3.052,0.649,4.793,0.856
		c0.152-0.299,0.368-0.56,0.631-0.765c-0.178-0.619-0.368-1.238-0.578-1.859c-0.393-1.161-0.825-2.267-1.279-3.318
		c-0.063,0.005-0.128,0.009-0.193,0.009c-0.304,0-0.594-0.061-0.859-0.168c-1.199,1.222-2.313,2.53-3.34,3.924
		C49.11,47.506,49.263,47.924,49.283,48.377z"/>
	<path d="M57.539,26.829c0.257-0.059,0.516-0.113,0.775-0.165c-4.182,0.828-8.04,2.549-11.37,4.958
		c0.212-0.153,0.426-0.304,0.642-0.452c1.005,1.177,3.123,3.854,5.208,7.695c0.089-0.01,0.178-0.018,0.27-0.018
		c0.487,0,0.938,0.154,1.308,0.415c3.299-2.663,7.344-5.05,12.312-6.872c-0.011-0.103-0.018-0.206-0.018-0.311
		c0-0.242,0.033-0.475,0.09-0.699C62.726,28.584,59.128,27.302,57.539,26.829z"/>
	<path d="M93.122,54.74c-0.004-0.252-0.011-0.504-0.021-0.755C93.11,54.236,93.118,54.488,93.122,54.74z"/>
	<path d="M72.384,32.26c-0.031,0.486-0.182,0.939-0.425,1.33c0.408,0.384,0.815,0.782,1.222,1.2
		c2.247,2.315,4.561,5.326,6.566,9.171c0.127-0.022,0.257-0.036,0.391-0.036c0.644,0,1.225,0.268,1.639,0.698
		c2.422-1.071,4.928-2.341,7.515-3.847c0.259,0.452,0.504,0.911,0.739,1.377c-2.621,1.524-5.162,2.813-7.623,3.901
		c0.004,0.049,0.008,0.098,0.008,0.148c0,0.71-0.324,1.344-0.833,1.762c0.723,1.806,1.372,3.76,1.922,5.876
		c0.605,0.082,1.135,0.401,1.492,0.863c2.417-0.725,5.093-1.252,8.06-1.519c-0.649-9.332-5.694-17.452-13.078-22.305
		C77.316,31.202,74.786,31.665,72.384,32.26z"/>
</g>
</svg>
