<?xml version="1.0" encoding="utf-8"?>
<!-- Generator: Adobe Illustrator 16.0.3, SVG Export Plug-In . SVG Version: 6.00 Build 0)  -->
<!DOCTYPE svg PUBLIC "-//W3C//DTD SVG 1.1//EN" "http://www.w3.org/Graphics/SVG/1.1/DTD/svg11.dtd">
<svg version="1.1" id="Layer_1" xmlns="http://www.w3.org/2000/svg" xmlns:xlink="http://www.w3.org/1999/xlink" x="0px" y="0px"
	 width="128px" height="128px" viewBox="0 0 128 128" style="enable-background:new 0 0 128 128;" xml:space="preserve">
<g>
	<path d="M18.122,60.232l5.233,5.232c22.602-22.009,58.864-21.871,81.292,0.419l5.232-5.233
		C84.565,35.476,43.609,35.338,18.122,60.232z"/>
	<path d="M5.912,48.022l5.232,5.232c29.335-28.74,76.551-28.603,105.711,0.419l5.232-5.233
		C90.042,16.533,38.132,16.396,5.912,48.022z"/>
	<path d="M29.982,72.093l5.24,5.24c16.061-15.469,41.674-15.336,57.561,0.413l5.235-5.234
		C79.245,53.876,48.929,53.738,29.982,72.093z"/>
	<path d="M41.851,83.961l5.233,5.232c9.516-8.932,24.492-8.796,33.838,0.414l5.233-5.232C73.923,72.28,54.253,72.146,41.851,83.961z
		"/>
	<circle cx="64.171" cy="97.218" r="6.377"/>
</g>
</svg>
