<?xml version="1.0" encoding="utf-8"?>
<!-- Generator: Adobe Illustrator 16.0.3, SVG Export Plug-In . SVG Version: 6.00 Build 0)  -->
<!DOCTYPE svg PUBLIC "-//W3C//DTD SVG 1.1//EN" "http://www.w3.org/Graphics/SVG/1.1/DTD/svg11.dtd">
<svg version="1.1" id="Layer_1" xmlns="http://www.w3.org/2000/svg" xmlns:xlink="http://www.w3.org/1999/xlink" x="0px" y="0px"
	 width="128px" height="128px" viewBox="0 0 128 128" style="enable-background:new 0 0 128 128;" xml:space="preserve">
<g>
	<path d="M99.292,41.304h-6.964C85.695,32.924,75.471,27.552,64,27.552c-11.471,0-21.694,5.372-28.327,13.752h-6.964
		c-9.678,0-17.524,7.845-17.524,17.523v11.561c0,9.678,7.846,17.524,17.524,17.524h7.97c6.637,7.68,16.417,12.535,27.322,12.535
		c10.906,0,20.685-4.855,27.322-12.535h7.97c9.679,0,17.523-7.846,17.523-17.524V58.828
		C116.815,49.149,108.971,41.304,99.292,41.304z M42.734,75.744h-5.963l-2.616-14.361l-2.556,14.361h-1.881h-4.021l-5.598-23.305
		h6.693l1.164,8.146l0.783,5.483l2.556-13.629h5.902l2.495,13.629l2.008-13.691h6.572L42.734,75.744z M57.094,75.622H51.07V58.767
		h6.024V75.622z M54.144,57.063c-1.934,0-3.5-1.349-3.5-3.012c0-1.663,1.566-3.012,3.5-3.012c1.932,0,3.498,1.349,3.498,3.012
		C57.642,55.715,56.075,57.063,54.144,57.063z M113.013,70.754c0,12.047-13.301,13.681-13.301,13.681l-5.732,0.005l-35.112,0.029
		c7.91-6.936,7.293-14.202,7.293-14.202V59.558c0-14.117,14.238-14.603,14.238-14.603s4.963,0,14.475,0c1.333,0,2.755,0,4.266,0
		c12.292,0,13.874,13.751,13.874,13.751S113.013,58.706,113.013,70.754z"/>
	<polygon points="98.044,58.767 98.044,75.622 98.324,75.622 104.068,75.622 104.068,58.767 99.832,58.767 	"/>
	<path d="M101.117,51.04c-1.163,0-2.189,0.49-2.825,1.24c-0.421,0.498-0.673,1.108-0.673,1.771c0,1.154,0.754,2.156,1.861,2.661
		c0.489,0.224,1.045,0.351,1.637,0.351c1.932,0,3.499-1.349,3.499-3.012C104.616,52.388,103.049,51.04,101.117,51.04z"/>
	<polygon points="74.313,75.561 80.764,75.561 80.764,68.502 92.994,68.502 92.994,63.087 80.764,63.087 80.764,57.915 
		94.332,57.915 94.332,52.439 74.313,52.439 	"/>
</g>
</svg>
