<?xml version="1.0" encoding="utf-8"?>
<!-- Generator: Adobe Illustrator 16.0.3, SVG Export Plug-In . SVG Version: 6.00 Build 0)  -->
<!DOCTYPE svg PUBLIC "-//W3C//DTD SVG 1.1//EN" "http://www.w3.org/Graphics/SVG/1.1/DTD/svg11.dtd">
<svg version="1.1" id="Layer_1" xmlns="http://www.w3.org/2000/svg" xmlns:xlink="http://www.w3.org/1999/xlink" x="0px" y="0px"
	 width="128px" height="128px" viewBox="0 0 128 128" style="enable-background:new 0 0 128 128;" xml:space="preserve">
<g>
	<path d="M30.259,52.131l0.023,3.384l-2.086,3.647v0.609c0,0.494,0.4,0.379,0.893,0.379h14.205c0.494,0,0.895,0.114,0.895-0.379
		v-0.609l-2.083-3.63l0.021-3.401H30.259z"/>
	<path d="M63.859,15.104c0-1.589-1.292-2.881-2.88-2.881H11.407c-1.588,0-2.88,1.292-2.88,2.881v33.188
		c0,1.588,1.292,2.879,2.88,2.879h49.571c1.588,0,2.88-1.292,2.88-2.879V15.104z"/>
	<path d="M85.874,107.746l0.022,3.385l-2.085,3.646v0.609c0,0.493,0.4,0.38,0.893,0.38h14.205c0.494,0,0.895,0.113,0.895-0.38
		v-0.609l-2.082-3.63l0.021-3.401H85.874z"/>
	<path d="M116.593,67.837H67.021c-1.588,0-2.88,1.292-2.88,2.881v33.188c0,1.588,1.292,2.88,2.88,2.88h49.571
		c1.588,0,2.88-1.292,2.88-2.88V70.718C119.473,69.129,118.181,67.837,116.593,67.837z"/>
	<path d="M76.376,38.199c8.727-6.801,21.412-2.031,24.12,8.054c-1.151-0.352-2.302-0.703-3.454-1.055
		c-0.322-0.099-0.595-0.026-0.798,0.132c-0.308,0.177-0.507,0.512-0.38,0.962c1.142,4.074,2.285,8.147,3.427,12.222
		c0.192,0.685,0.988,0.925,1.53,0.465c3.224-2.739,6.449-5.479,9.673-8.218c0.533-0.453,0.295-1.363-0.35-1.56
		c-1.247-0.381-2.492-0.762-3.738-1.143c-0.865-7.142-4.962-13.371-11.569-16.599c-7.361-3.596-15.872-2.287-22.235,2.672
		C69.776,36.334,73.574,40.383,76.376,38.199z"/>
	<path d="M49.262,89.593c-9.062,6.346-21.487,0.935-23.677-9.275c1.132,0.41,2.263,0.82,3.395,1.23
		c0.316,0.115,0.593,0.056,0.804-0.092c0.316-0.161,0.533-0.485,0.43-0.941c-0.933-4.127-1.866-8.254-2.799-12.381
		c-0.157-0.694-0.939-0.974-1.504-0.542c-3.36,2.571-6.72,5.142-10.08,7.713c-0.556,0.425-0.365,1.346,0.27,1.576
		c1.225,0.444,2.45,0.888,3.674,1.332c0.499,7.177,4.272,13.607,10.706,17.168c7.168,3.968,15.734,3.095,22.342-1.533
		C55.759,91.792,52.172,87.555,49.262,89.593z"/>
</g>
</svg>
