<?xml version="1.0" encoding="utf-8"?>
<!-- Generator: Adobe Illustrator 16.0.3, SVG Export Plug-In . SVG Version: 6.00 Build 0)  -->
<!DOCTYPE svg PUBLIC "-//W3C//DTD SVG 1.1//EN" "http://www.w3.org/Graphics/SVG/1.1/DTD/svg11.dtd">
<svg version="1.1" id="Layer_1" xmlns="http://www.w3.org/2000/svg" xmlns:xlink="http://www.w3.org/1999/xlink" x="0px" y="0px"
	 width="128px" height="128px" viewBox="0 0 128 128" style="enable-background:new 0 0 128 128;" xml:space="preserve">
<g>
	<path d="M29.241,105.133c-10.121,0-18.636-2.389-21.145-5.633v5.614h0.007c0.003,0.047,0.009,0.094,0.015,0.141
		c-0.014,0.106-0.021,0.212-0.021,0.319c0,4.062,9.467,7.354,21.145,7.354c11.677,0,21.144-3.293,21.144-7.354
		c0-0.107-0.008-0.213-0.021-0.319c0.013-0.105,0.021-0.212,0.021-0.319c0-0.106-0.008-0.213-0.021-0.318v-5.09
		C47.829,102.757,39.333,105.133,29.241,105.133z"/>
	<path d="M8.153,84.25c0.016-0.02,0.031-0.039,0.048-0.059c1.057,3.718,10.073,6.622,21.04,6.622c10.966,0,19.982-2.904,21.04-6.622
		c0.016,0.02,0.032,0.04,0.048,0.059c-0.009-0.043-0.02-0.085-0.03-0.127c0.026-0.104,0.048-0.208,0.062-0.312
		c0.016-0.117,0.024-0.234,0.024-0.352c0-0.107-0.008-0.213-0.021-0.319v-8.862c0.013-0.105,0.021-0.211,0.021-0.318
		c0-4.057-9.442-7.346-21.1-7.354l12.816-20.456c-0.003-0.055-0.006-0.109-0.006-0.165c0-0.08,0.005-0.16,0.012-0.24
		c-0.007-0.08-0.012-0.16-0.012-0.24c0-0.703,0.275-1.383,0.788-2.029c-0.009,0.053-0.016,0.106-0.021,0.16h-0.016v0.367
		c0.063-0.081,0.128-0.161,0.198-0.241c1.412,3.585,10.251,6.347,20.946,6.347c10.695,0,19.534-2.762,20.946-6.347
		c0.068,0.078,0.133,0.157,0.195,0.236c0.001-0.031,0.003-0.063,0.003-0.094c0-0.144-0.013-0.287-0.037-0.428
		c0.512,0.646,0.787,1.327,0.787,2.029c0,0.081-0.005,0.161-0.012,0.24c0.007,0.08,0.012,0.16,0.012,0.24
		c0,0.109-0.008,0.218-0.021,0.327l12.628,20.157c-11.296,0.049-20.458,3.179-20.86,7.085h-0.016v9.947h0.006
		c0.011,0.163,0.039,0.325,0.08,0.485c-0.011,0.042-0.021,0.085-0.03,0.127c0.016-0.02,0.032-0.039,0.048-0.059
		c1.057,3.717,10.073,6.622,21.04,6.622c10.966,0,19.982-2.904,21.04-6.622c0.017,0.02,0.032,0.039,0.048,0.059
		c-0.009-0.042-0.02-0.085-0.031-0.127c0.057-0.219,0.087-0.44,0.087-0.664c0-0.107-0.008-0.213-0.021-0.318v-8.862
		c0.013-0.106,0.021-0.212,0.021-0.319c0-3.492-6.997-6.416-16.381-7.167L85.158,37.341c-0.014-0.023-0.031-0.043-0.045-0.065
		v-0.494c-2.535,3.231-11.031,5.606-21.123,5.606c-10.121,0-18.636-2.389-21.145-5.634v0.39c-0.05,0.062-0.097,0.127-0.141,0.197
		L24.24,66.812c-9.023,0.761-15.784,3.535-16.128,6.878H8.096v9.947h0.007c0.004,0.058,0.01,0.116,0.018,0.173
		c0.014,0.104,0.036,0.208,0.062,0.312C8.172,84.166,8.162,84.208,8.153,84.25z M112.037,73.82c0,2.551-5.944,4.618-13.277,4.618
		s-13.277-2.067-13.277-4.618c0-2.55,5.944-4.618,13.277-4.618S112.037,71.27,112.037,73.82z M29.241,69.341
		c7.333,0,13.277,2.067,13.277,4.618c0,2.55-5.944,4.618-13.277,4.618c-7.333,0-13.277-2.068-13.277-4.618
		C15.963,71.409,21.908,69.341,29.241,69.341z"/>
	<path d="M98.76,104.994c-10.121,0-18.636-2.389-21.144-5.634v5.615h0.006c0.003,0.047,0.009,0.094,0.015,0.14
		c-0.013,0.106-0.021,0.212-0.021,0.319c0,4.062,9.466,7.355,21.144,7.355c11.677,0,21.144-3.293,21.144-7.355
		c0-0.107-0.008-0.213-0.021-0.319c0.013-0.106,0.021-0.212,0.021-0.319c0-0.107-0.008-0.213-0.021-0.319v-5.09
		C117.348,102.619,108.852,104.994,98.76,104.994z"/>
	<path d="M77.616,95.029v0.367c0.062-0.081,0.128-0.161,0.198-0.241c1.412,3.585,10.25,6.347,20.946,6.347
		c10.695,0,19.534-2.762,20.946-6.347c0.068,0.078,0.133,0.157,0.195,0.236c0.001-0.031,0.003-0.062,0.003-0.094
		c0-0.144-0.013-0.287-0.037-0.428c-0.008-0.049-0.017-0.098-0.027-0.146c0.042-0.189,0.064-0.381,0.064-0.575
		c0-0.107-0.008-0.213-0.021-0.319v-5.653c-2.535,3.231-11.031,5.606-21.123,5.606c-10.121,0-18.636-2.389-21.144-5.633v0.595
		H50.364v-0.429c-2.535,3.231-11.031,5.606-21.123,5.606c-10.121,0-18.636-2.388-21.145-5.633v6.178h0.007
		c0.009,0.133,0.028,0.265,0.057,0.396c-0.022,0.102-0.038,0.204-0.048,0.307H8.096v0.367c0.062-0.081,0.128-0.161,0.198-0.241
		c1.412,3.585,10.251,6.347,20.946,6.347c10.695,0,19.534-2.762,20.945-6.347c0.069,0.079,0.133,0.157,0.195,0.237
		c0.001-0.032,0.003-0.063,0.003-0.095c0-0.193-0.021-0.385-0.063-0.575c0.042-0.189,0.063-0.381,0.063-0.574
		c0-0.107-0.008-0.213-0.021-0.319v-1.059h27.252v1.417h0.006c0.009,0.133,0.028,0.265,0.057,0.396
		c-0.011,0.049-0.019,0.098-0.027,0.146c-0.009,0.053-0.015,0.106-0.021,0.16H77.616z"/>
	<path d="M63.99,53.6c-10.121,0-18.636-2.389-21.145-5.634v5.615h0.007c0.003,0.047,0.009,0.093,0.015,0.14
		c-0.013,0.106-0.021,0.212-0.021,0.319c0,4.062,9.467,7.354,21.145,7.354c11.677,0,21.144-3.292,21.144-7.354
		c0-0.107-0.008-0.213-0.021-0.319c0.013-0.105,0.021-0.212,0.021-0.319s-0.008-0.213-0.021-0.319v-5.09
		C82.578,51.224,74.082,53.6,63.99,53.6z"/>
	<path d="M63.99,39.28c10.966,0,19.982-2.904,21.04-6.622c0.016,0.02,0.032,0.039,0.048,0.059c-0.009-0.042-0.019-0.085-0.03-0.127
		c0.056-0.219,0.087-0.44,0.087-0.664c0-0.107-0.008-0.213-0.021-0.319v-8.862c0.013-0.106,0.021-0.212,0.021-0.319
		c0-4.062-9.467-7.354-21.144-7.354c-11.419,0-20.723,3.149-21.129,7.086h-0.016v9.947h0.007c0.011,0.163,0.039,0.325,0.08,0.485
		c-0.011,0.042-0.021,0.085-0.03,0.127c0.016-0.02,0.032-0.039,0.048-0.059C44.007,36.376,53.023,39.28,63.99,39.28z M63.99,17.808
		c7.333,0,13.277,2.068,13.277,4.618c0,2.551-5.944,4.618-13.277,4.618s-13.277-2.067-13.277-4.618
		C50.713,19.876,56.657,17.808,63.99,17.808z"/>
</g>
</svg>
