<?xml version="1.0" encoding="utf-8"?>
<!-- Generator: Adobe Illustrator 16.0.3, SVG Export Plug-In . SVG Version: 6.00 Build 0)  -->
<!DOCTYPE svg PUBLIC "-//W3C//DTD SVG 1.1//EN" "http://www.w3.org/Graphics/SVG/1.1/DTD/svg11.dtd">
<svg version="1.1" id="Layer_1" xmlns="http://www.w3.org/2000/svg" xmlns:xlink="http://www.w3.org/1999/xlink" x="0px" y="0px"
	 width="128px" height="128px" viewBox="0 0 128 128" style="enable-background:new 0 0 128 128;" xml:space="preserve">
<g>
	<path d="M73.593,69.664l3.775-7.236l-5.805-5.804l-7.256,3.786c-2.256-1.353-4.725-2.386-7.346-3.038l-2.455-7.812h-8.208
		l-2.455,7.812c-2.62,0.652-5.09,1.686-7.345,3.038l-7.258-3.786l-5.803,5.804l3.775,7.235c-1.369,2.265-2.414,4.746-3.074,7.381
		l-7.767,2.44v8.208l7.736,2.432c0.653,2.66,1.698,5.165,3.072,7.451l-3.743,7.174l5.804,5.804l7.153-3.732
		c2.295,1.39,4.812,2.447,7.486,3.108l2.417,7.69h8.208l2.417-7.69c2.674-0.661,5.191-1.718,7.486-3.108l7.153,3.732l5.805-5.804
		l-3.743-7.174c1.374-2.286,2.419-4.791,3.071-7.451l7.736-2.432v-8.208l-7.766-2.44C76.007,74.41,74.962,71.929,73.593,69.664z
		 M50.403,101.602c-9.917,0-17.955-8.039-17.955-17.956c0-9.917,8.038-17.956,17.955-17.956c9.916,0,17.955,8.039,17.955,17.956
		C68.358,93.563,60.319,101.602,50.403,101.602z"/>
	<path d="M49.044,37.985l-3.501,3.986l2.793,4.6l5.138-1.264c1.244,1.242,2.684,2.307,4.284,3.144l0.343,5.273l5.227,1.277
		l2.736-4.521c1.806-0.005,3.573-0.287,5.251-0.814l3.975,3.49l4.601-2.793l-1.268-5.151c1.23-1.242,2.285-2.675,3.115-4.267
		l5.306-0.345l1.277-5.227l-4.565-2.763c-0.012-1.781-0.29-3.524-0.811-5.179l3.531-4.021l-2.793-4.6l-5.211,1.282
		c-1.226-1.212-2.638-2.255-4.205-3.078l-0.348-5.358l-5.228-1.277l-2.78,4.594c-1.77,0.008-3.503,0.281-5.15,0.792l-4.032-3.541
		l-4.601,2.794l1.28,5.195c-1.225,1.229-2.276,2.646-3.106,4.222l-5.326,0.346l-1.277,5.228l4.549,2.752
		C48.249,34.558,48.524,36.315,49.044,37.985z M54.565,29.934c1.543-6.315,7.913-10.184,14.229-8.641
		c6.315,1.543,10.184,7.914,8.641,14.229s-7.913,10.184-14.229,8.641C56.891,42.62,53.021,36.25,54.565,29.934z"/>
	<path d="M107.772,57.187c-0.145-1.365-0.488-2.718-1.039-4.014l2.485-3.476l-2.577-3.419l-4.025,1.429
		c-1.094-0.888-2.3-1.592-3.571-2.107l-0.7-4.212l-4.239-0.597l-1.829,3.844c-1.375,0.141-2.736,0.483-4.041,1.036l-3.455-2.471
		l-3.42,2.576l1.415,3.987c-0.903,1.106-1.619,2.328-2.141,3.618l-4.164,0.692l-0.597,4.24l3.799,1.809
		c0.143,1.393,0.492,2.773,1.055,4.095l-2.445,3.42l2.576,3.42l3.963-1.406c1.114,0.907,2.346,1.624,3.645,2.145l0.689,4.152
		l4.24,0.597l1.815-3.811c1.382-0.145,2.755-0.496,4.067-1.058l3.441,2.461l3.42-2.577l-1.42-4.001
		c0.891-1.103,1.597-2.316,2.111-3.598l4.199-0.697l0.597-4.24L107.772,57.187z M99.362,66.167
		c-4.133,3.112-10.004,2.285-13.117-1.847s-2.285-10.004,1.847-13.116c4.133-3.112,10.005-2.286,13.117,1.847
		C104.32,57.182,103.493,63.054,99.362,66.167z"/>
</g>
</svg>
