<?xml version="1.0" encoding="utf-8"?>
<!-- Generator: Adobe Illustrator 16.0.3, SVG Export Plug-In . SVG Version: 6.00 Build 0)  -->
<!DOCTYPE svg PUBLIC "-//W3C//DTD SVG 1.1//EN" "http://www.w3.org/Graphics/SVG/1.1/DTD/svg11.dtd">
<svg version="1.1" id="Layer_1" xmlns="http://www.w3.org/2000/svg" xmlns:xlink="http://www.w3.org/1999/xlink" x="0px" y="0px"
	 width="128px" height="128px" viewBox="0 0 128 128" style="enable-background:new 0 0 128 128;" xml:space="preserve">
<g>
	<path d="M84.617,95.984V36.819c0-1.475-1.195-2.67-2.67-2.67h-1.734V20.696v-4.758c0-1.408-0.984-2.583-2.302-2.887
		c-0.215-0.05-0.438-0.083-0.668-0.083l-11.707,0v21.181h-2.591V12.969L50.759,12.97c-1.64,0.001-2.969,1.33-2.97,2.97v13.705
		l0,4.505h-1.735c-1.475,0-2.67,1.195-2.67,2.67v59.165c-0.037,0.431,0,0.866,0,1.304c0,9.799,9.23,17.743,20.617,17.743
		s20.617-7.944,20.617-17.743C84.617,96.85,84.653,96.415,84.617,95.984z M69.803,23.001c-0.001-0.481,0.389-0.871,0.871-0.871
		h5.221c0.481,0,0.872,0.39,0.872,0.871l-0.002,3.59c0.002,0.481-0.388,0.871-0.87,0.87l-5.223,0.001
		c-0.479-0.001-0.869-0.39-0.871-0.87L69.803,23.001z M52.096,22.12l5.224,0c0.481,0,0.871,0.39,0.871,0.871l-0.002,3.59
		c0,0.481-0.389,0.871-0.87,0.87l-5.221,0c-0.481,0-0.87-0.39-0.87-0.871l-0.001-3.59C51.227,22.509,51.617,22.119,52.096,22.12z
		 M63.535,95.11c-2.932,0.001-5.308-2.375-5.308-5.307c0.001-2.505,1.741-4.602,4.076-5.158l0.001-2.51l-8.672-8.671
		c-0.167-0.168-0.267-0.405-0.267-0.643v-4.455c-1.799-0.51-3.121-2.16-3.12-4.126c-0.001-2.367,1.918-4.289,4.287-4.288
		c2.37-0.001,4.288,1.92,4.288,4.288c0.001,2.146-1.575,3.916-3.63,4.235l0.001,3.966l7.113,7.111l-0.003-27.292l-4.655,0.001
		l5.851-6.823l5.89,6.822l-4.791,0.001l0.001,21.23l7.921-6.908l-0.002-4.691l-2.908,0.001l-0.001-7.319l7.317,0.001v7.317h-2.582
		l-0.001,5.105c-0.001,0.265-0.115,0.514-0.312,0.687l-9.433,8.231l0.001,5.931l0.016,0.016l-0.016,0.017l-0.001,2.724
		c2.422,0.492,4.247,2.633,4.246,5.201C68.842,92.734,66.466,95.11,63.535,95.11z"/>
</g>
</svg>
