<?xml version="1.0" encoding="utf-8"?>
<!-- Generator: Adobe Illustrator 16.0.3, SVG Export Plug-In . SVG Version: 6.00 Build 0)  -->
<!DOCTYPE svg PUBLIC "-//W3C//DTD SVG 1.1//EN" "http://www.w3.org/Graphics/SVG/1.1/DTD/svg11.dtd">
<svg version="1.1" id="Layer_1" xmlns="http://www.w3.org/2000/svg" xmlns:xlink="http://www.w3.org/1999/xlink" x="0px" y="0px"
	 width="128px" height="128px" viewBox="0 0 128 128" style="enable-background:new 0 0 128 128;" xml:space="preserve">
<g>
	<path d="M89.038,16.617l-5.824,11.058c2.838,1.507,5.479,3.336,7.875,5.44c0.465-0.15,0.961-0.231,1.476-0.231
		c2.665,0,4.834,2.169,4.834,4.834c0,0.654-0.131,1.279-0.368,1.848c5.069,6.835,8.072,15.291,8.072,24.435
		c0,22.663-18.438,41.101-41.102,41.101S22.897,86.664,22.897,64.001c0-22.664,18.439-41.103,41.104-41.103
		c3.365,0,6.636,0.41,9.768,1.176l2.98-12.129c-4.086-0.997-8.354-1.53-12.748-1.53c-29.595,0-53.586,23.989-53.586,53.586
		c0,29.592,23.991,53.583,53.586,53.583c29.593,0,53.584-23.991,53.584-53.583C117.585,43.451,106.017,25.607,89.038,16.617z"/>
	<path d="M91.871,64c0,10.418-5.747,19.518-14.235,24.3c0.006,0.097,0.009,0.195,0.009,0.293c0,2.666-2.168,4.834-4.834,4.834
		c-1.603,0-3.025-0.785-3.905-1.989c-1.593,0.284-3.231,0.433-4.904,0.433c-15.369,0-27.872-12.503-27.872-27.871
		c0-15.368,12.503-27.872,27.872-27.872c2.277,0,4.491,0.277,6.611,0.794l2.304-9.378c-2.857-0.697-5.843-1.069-8.915-1.069
		c-20.725,0-37.525,16.799-37.525,37.525c0,20.723,16.801,37.523,37.525,37.523c20.723,0,37.523-16.8,37.523-37.523
		c0-8.155-2.603-15.701-7.02-21.856c-0.595,0.262-1.251,0.408-1.94,0.408c-2.666,0-4.835-2.169-4.835-4.834
		c0-0.832,0.211-1.615,0.582-2.299c-2.07-1.764-4.336-3.306-6.759-4.591l-4.504,8.55C85.858,44.066,91.871,53.344,91.871,64z"/>
	<path d="M72.811,83.759c1.386,0,2.636,0.587,3.519,1.524C83.662,81.026,88.594,73.089,88.594,64c0-9.418-5.295-17.598-13.068-21.73
		l-4.149,7.877c4.947,2.645,8.322,7.861,8.322,13.853c0,8.656-7.042,15.698-15.697,15.698c-8.657,0-15.7-7.042-15.7-15.698
		c0-0.427,0.022-0.849,0.056-1.267c-0.946-0.883-1.54-2.14-1.54-3.534c0-2.655,2.151-4.816,4.802-4.833
		c2.875-3.687,7.355-6.065,12.383-6.065c1.276,0,2.517,0.157,3.706,0.446l2.124-8.644c-1.869-0.454-3.821-0.697-5.83-0.697
		c-13.583,0-24.595,11.01-24.595,24.594c0,13.582,11.012,24.593,24.595,24.593c1.357,0,2.689-0.112,3.987-0.324
		C68.155,85.754,70.253,83.759,72.811,83.759z"/>
	<path d="M56.485,59.2c0,2.666-2.168,4.834-4.834,4.834c-0.146,0-0.289-0.007-0.432-0.02c0.008,7.052,5.727,12.767,12.781,12.767
		c7.058,0,12.779-5.722,12.779-12.78c0-4.883-2.738-9.124-6.762-11.276l-6.164,11.701l3.156-12.846
		c-0.966-0.233-1.973-0.36-3.01-0.36c-3.728,0-7.081,1.596-9.417,4.141C55.739,56.244,56.485,57.636,56.485,59.2z"/>
</g>
</svg>
