<?xml version="1.0" encoding="utf-8"?>
<!-- Generator: Adobe Illustrator 16.0.3, SVG Export Plug-In . SVG Version: 6.00 Build 0)  -->
<!DOCTYPE svg PUBLIC "-//W3C//DTD SVG 1.1//EN" "http://www.w3.org/Graphics/SVG/1.1/DTD/svg11.dtd">
<svg version="1.1" id="Layer_1" xmlns="http://www.w3.org/2000/svg" xmlns:xlink="http://www.w3.org/1999/xlink" x="0px" y="0px"
	 width="128px" height="128px" viewBox="0 0 128 128" style="enable-background:new 0 0 128 128;" xml:space="preserve">
<g>
	<path d="M117.51,102.334c-0.321-0.454-7.989-11.241-18.114-22.203c-0.291-0.315-0.578-0.622-0.867-0.93
		C90.94,90.124,78.307,97.275,64,97.275c-14.341,0-27.001-7.186-34.583-18.151c-0.313,0.337-0.627,0.673-0.944,1.019
		c-10.065,10.963-17.675,21.753-17.994,22.207c-1.221,1.737-1.263,4.042-0.105,5.822c0.971,1.494,2.622,2.366,4.358,2.366
		c0.334,0,0.67-0.033,1.006-0.099c0.253-0.05,25.555-4.98,47.993-4.98c22.449,0,48.293,4.935,48.552,4.985
		c2.086,0.402,4.204-0.504,5.354-2.288C118.787,106.372,118.737,104.067,117.51,102.334z"/>
	<path d="M64,91.753c21.403,0,38.754-17.351,38.754-38.754c0-15.901-9.578-29.563-23.278-35.538
		C78.522,24.998,71.961,30.833,64,30.833s-14.523-5.836-15.476-13.372c-13.701,5.975-23.279,19.637-23.279,35.538
		C25.245,74.402,42.597,91.753,64,91.753z M64,36.458c9.135,0,16.541,7.406,16.541,16.542S73.135,69.541,64,69.541
		c-9.136,0-16.542-7.406-16.542-16.542S54.864,36.458,64,36.458z"/>
	<path d="M64,65.251c6.767,0,12.252-5.485,12.252-12.252c0-6.767-5.485-12.252-12.252-12.252s-12.253,5.486-12.253,12.252
		C51.747,59.766,57.233,65.251,64,65.251z M64,43.862c5.046,0,9.137,4.091,9.137,9.137c0,5.046-4.091,9.137-9.137,9.137
		s-9.138-4.091-9.138-9.137C54.862,47.953,58.954,43.862,64,43.862z"/>
	<path d="M66.852,47.019c-1.784-1.784-5.206-1.255-7.643,1.181c-2.437,2.436-2.965,5.858-1.181,7.643
		C59.812,57.626,68.637,48.802,66.852,47.019z"/>
	<ellipse cx="63.973" cy="21.602" rx="6.005" ry="3.747"/>
</g>
</svg>
