<?xml version="1.0" encoding="utf-8"?>
<!-- Generator: Adobe Illustrator 16.0.3, SVG Export Plug-In . SVG Version: 6.00 Build 0)  -->
<!DOCTYPE svg PUBLIC "-//W3C//DTD SVG 1.1//EN" "http://www.w3.org/Graphics/SVG/1.1/DTD/svg11.dtd">
<svg version="1.1" id="Layer_1" xmlns="http://www.w3.org/2000/svg" xmlns:xlink="http://www.w3.org/1999/xlink" x="0px" y="0px"
	 width="128px" height="128px" viewBox="0 0 128 128" style="enable-background:new 0 0 128 128;" xml:space="preserve">
<g>
	<path d="M75.683,43.778c8.318-6.483,20.411-1.937,22.992,7.678c-1.097-0.335-2.194-0.67-3.291-1.006
		c-0.307-0.094-0.568-0.024-0.762,0.126c-0.293,0.168-0.483,0.488-0.362,0.917c1.089,3.884,2.178,7.767,3.267,11.651
		c0.184,0.653,0.942,0.882,1.459,0.444c3.072-2.611,6.146-5.223,9.221-7.834c0.509-0.432,0.281-1.299-0.334-1.486
		c-1.188-0.363-2.375-0.726-3.563-1.089c-0.823-6.808-4.729-12.746-11.028-15.823c-7.018-3.428-15.13-2.18-21.195,2.547
		C69.391,42.001,73.012,45.861,75.683,43.778z"/>
	<path d="M49.836,92.771c-8.64,6.049-20.483,0.892-22.57-8.842c1.079,0.391,2.157,0.781,3.236,1.173
		c0.302,0.109,0.565,0.053,0.767-0.088c0.301-0.153,0.508-0.462,0.409-0.896c-0.89-3.935-1.778-7.868-2.669-11.803
		c-0.148-0.662-0.895-0.929-1.433-0.518c-3.203,2.451-6.406,4.901-9.609,7.353c-0.53,0.405-0.348,1.283,0.257,1.502
		c1.168,0.423,2.336,0.847,3.503,1.27c0.476,6.841,4.073,12.971,10.206,16.366c6.833,3.782,14.999,2.95,21.298-1.461
		C56.028,94.867,52.61,90.828,49.836,92.771z"/>
	<path d="M64.194,50.455l-0.042-25.418L37.568,42.82L10.58,25.008l-0.003,25.333l-0.001,3.498c0,1.511,1.078,2.737,2.402,2.737
		h48.817c1.328,0,2.404-1.226,2.404-2.737L64.194,50.455z"/>
	<path d="M64.2,20.937c0-1.511-1.076-2.736-2.404-2.736H12.979c-1.324,0-2.402,1.226-2.402,2.736l26.992,16.435L64.2,20.937z"/>
	<path d="M90.793,96.044L63.805,78.233l-0.003,25.332l-0.001,3.499c0,1.511,1.079,2.737,2.401,2.737h48.818
		c1.328,0,2.403-1.226,2.403-2.737l-0.005-3.384l-0.042-25.418L90.793,96.044z"/>
	<path d="M90.793,90.596l26.631-16.436c0-1.51-1.075-2.736-2.403-2.736H66.202c-1.322,0-2.401,1.226-2.401,2.736L90.793,90.596z"/>
</g>
</svg>
