<?xml version="1.0" encoding="utf-8"?>
<!-- Generator: Adobe Illustrator 16.0.3, SVG Export Plug-In . SVG Version: 6.00 Build 0)  -->
<!DOCTYPE svg PUBLIC "-//W3C//DTD SVG 1.1//EN" "http://www.w3.org/Graphics/SVG/1.1/DTD/svg11.dtd">
<svg version="1.1" id="Layer_1" xmlns="http://www.w3.org/2000/svg" xmlns:xlink="http://www.w3.org/1999/xlink" x="0px" y="0px"
	 width="128px" height="128px" viewBox="0 0 128 128" style="enable-background:new 0 0 128 128;" xml:space="preserve">
<g>
	<path d="M59.826,48.126l0.013,1.896l-1.412,2.469v0.413c0,0.333,0.271,0.257,0.605,0.257h9.615c0.334,0,0.605,0.077,0.605-0.257
		v-0.413l-1.409-2.457l0.012-1.908H59.826z"/>
	<path d="M47.063,46.687h33.554c0.857,0,1.554-0.697,1.554-1.555V22.668c0-0.857-0.697-1.555-1.554-1.555H47.063
		c-0.857,0-1.554,0.697-1.554,1.555v22.464C45.509,45.99,46.206,46.687,47.063,46.687z"/>
	<path d="M94.787,101.845l0.013,1.896l-1.412,2.468v0.413c0,0.334,0.271,0.257,0.604,0.257h9.615c0.334,0,0.606,0.077,0.606-0.257
		v-0.413l-1.41-2.457l0.012-1.907H94.787z"/>
	<path d="M115.577,74.832H82.023c-0.857,0-1.555,0.698-1.555,1.555v22.464c0,0.857,0.698,1.554,1.555,1.554h33.554
		c0.857,0,1.555-0.697,1.555-1.554V76.387C117.131,75.53,116.434,74.832,115.577,74.832z"/>
	<path d="M25.187,101.845l0.013,1.896l-1.412,2.468v0.413c0,0.334,0.271,0.257,0.604,0.257h9.615c0.334,0,0.605,0.077,0.605-0.257
		v-0.413l-1.41-2.457l0.012-1.907H25.187z"/>
	<path d="M45.977,74.832H12.423c-0.857,0-1.554,0.698-1.554,1.555v22.464c0,0.857,0.697,1.554,1.554,1.554h33.554
		c0.857,0,1.555-0.697,1.555-1.554V76.387C47.532,75.53,46.834,74.832,45.977,74.832z"/>
	<path d="M73.417,86.625h-7.595V59.273c0-1.004-0.813-1.817-1.817-1.817c-1.003,0-1.817,0.813-1.817,1.817v27.352h-7.595
		c-1.004,0-1.817,0.813-1.817,1.817c0,1.003,0.813,1.817,1.817,1.817h18.825c1.003,0,1.817-0.813,1.817-1.817
		C75.234,87.439,74.42,86.625,73.417,86.625z"/>
</g>
</svg>
