<?xml version="1.0" encoding="utf-8"?>
<!-- Generator: Adobe Illustrator 16.0.3, SVG Export Plug-In . SVG Version: 6.00 Build 0)  -->
<!DOCTYPE svg PUBLIC "-//W3C//DTD SVG 1.1//EN" "http://www.w3.org/Graphics/SVG/1.1/DTD/svg11.dtd">
<svg version="1.1" id="Layer_1" xmlns="http://www.w3.org/2000/svg" xmlns:xlink="http://www.w3.org/1999/xlink" x="0px" y="0px"
	 width="128px" height="128px" viewBox="0 0 128 128" style="enable-background:new 0 0 128 128;" xml:space="preserve">
<g>
	<path d="M104.357,41.8V23.643L89.638,8.74H23.643v26.936h3.586v23.603h-3.586v59.981h80.715V49.283h-3.771V41.8H104.357z
		 M96.499,97.59c0,6.791-5.506,12.295-12.295,12.295H43.222c-6.789,0-12.294-5.504-12.294-12.295V58.514
		c3.003-1.693,18.412-9.256,34.268,3.626c0,0,13.922,15.98,31.304,3.612V97.59z M96.499,47.68H30.928v-8.488
		c0-6.79,5.505-12.294,12.294-12.294h40.982c6.789,0,12.295,5.504,12.295,12.294V47.68z"/>
	<path d="M36.321,95.566v6.103c0,2.247,1.821,4.068,4.068,4.068h47.589c2.246,0,4.067-1.821,4.067-4.068v-6.103
		c0-2.247-1.821-4.068-4.067-4.068H40.39C38.143,91.499,36.321,93.32,36.321,95.566z M42.615,99.043
		c0-0.512,1.421-0.926,3.173-0.926h37.123c1.752,0,3.174,0.415,3.174,0.926v1.39c0,0.511-1.422,0.926-3.174,0.926H45.788
		c-1.752,0-3.173-0.415-3.173-0.926V99.043z"/>
	<path d="M42.829,37.452c-0.325-0.231-0.72-0.427-1.185-0.589c-0.464-0.162-0.982-0.31-1.555-0.443
		c-0.457-0.116-0.785-0.203-0.983-0.263c-0.199-0.061-0.396-0.144-0.589-0.25c-0.194-0.106-0.347-0.233-0.458-0.381
		c-0.11-0.148-0.166-0.324-0.166-0.526c0-0.328,0.162-0.609,0.488-0.842c0.325-0.233,0.754-0.35,1.285-0.35
		c0.572,0,0.988,0.107,1.247,0.322c0.259,0.215,0.479,0.514,0.665,0.897c0.144,0.268,0.275,0.461,0.398,0.578
		c0.122,0.118,0.301,0.177,0.537,0.177c0.259,0,0.474-0.098,0.647-0.294c0.173-0.196,0.26-0.417,0.26-0.662
		c0-0.268-0.069-0.543-0.208-0.824c-0.139-0.282-0.357-0.551-0.658-0.807c-0.3-0.257-0.678-0.462-1.133-0.617
		s-0.994-0.232-1.617-0.232c-0.781,0-1.46,0.117-2.037,0.35s-1.018,0.567-1.322,1.001s-0.458,0.931-0.458,1.489
		c0,0.587,0.145,1.078,0.434,1.472c0.288,0.395,0.679,0.707,1.171,0.936c0.491,0.229,1.103,0.428,1.832,0.599
		c0.545,0.125,0.98,0.242,1.306,0.353c0.326,0.111,0.591,0.271,0.797,0.481c0.205,0.21,0.308,0.484,0.308,0.821
		c0,0.425-0.19,0.78-0.571,1.063c-0.382,0.284-0.876,0.426-1.485,0.426c-0.443,0-0.801-0.07-1.074-0.211
		c-0.272-0.141-0.484-0.32-0.635-0.537c-0.149-0.217-0.289-0.487-0.418-0.811c-0.106-0.272-0.235-0.478-0.385-0.617
		c-0.15-0.139-0.334-0.208-0.551-0.208c-0.268,0-0.488,0.089-0.661,0.267c-0.174,0.177-0.26,0.391-0.26,0.641
		c0,0.43,0.144,0.872,0.433,1.327s0.664,0.818,1.125,1.091c0.652,0.379,1.479,0.568,2.48,0.568c0.836,0,1.559-0.139,2.169-0.416
		c0.609-0.277,1.071-0.66,1.388-1.149c0.316-0.49,0.476-1.042,0.476-1.656c0-0.512-0.092-0.945-0.273-1.299
		C43.409,37.975,43.155,37.683,42.829,37.452z"/>
	<path d="M51.977,40.223c0.005-0.379,0.009-0.723,0.011-1.032c0.003-0.31,0.004-0.686,0.004-1.129c0-0.702-0.099-1.266-0.294-1.69
		c-0.197-0.425-0.532-0.735-1.009-0.932c-0.476-0.196-1.129-0.294-1.96-0.294c-0.744,0-1.365,0.102-1.863,0.305
		c-0.499,0.204-0.866,0.462-1.102,0.776c-0.235,0.314-0.354,0.638-0.354,0.97c0,0.212,0.077,0.387,0.232,0.523
		c0.154,0.136,0.338,0.204,0.55,0.204c0.235,0,0.39-0.042,0.461-0.128s0.194-0.262,0.367-0.53c0.174-0.268,0.381-0.469,0.623-0.603
		c0.243-0.134,0.604-0.201,1.085-0.201c0.559,0,0.927,0.117,1.104,0.35c0.178,0.233,0.278,0.599,0.301,1.098
		c-0.396,0.116-0.765,0.214-1.104,0.294c-0.339,0.081-0.747,0.17-1.223,0.267c-0.476,0.097-0.773,0.16-0.894,0.187
		c-0.572,0.125-1.022,0.37-1.351,0.734c-0.327,0.365-0.492,0.806-0.492,1.323c0,0.383,0.1,0.739,0.298,1.067
		c0.199,0.328,0.482,0.588,0.849,0.779c0.368,0.192,0.794,0.288,1.278,0.288c0.531,0,1.01-0.089,1.438-0.267
		c0.428-0.177,0.869-0.444,1.326-0.8c0.213,0.346,0.414,0.61,0.604,0.793c0.189,0.182,0.381,0.273,0.574,0.273
		c0.231,0,0.438-0.08,0.621-0.239c0.182-0.159,0.273-0.336,0.273-0.53c0-0.111-0.06-0.359-0.177-0.745
		C52.036,40.949,51.977,40.579,51.977,40.223z M50.134,39.315c0,0.656-0.084,1.127-0.256,1.414c-0.147,0.258-0.38,0.47-0.696,0.633
		c-0.316,0.164-0.661,0.246-1.035,0.246c-0.351,0-0.635-0.101-0.853-0.301c-0.217-0.201-0.325-0.444-0.325-0.731
		c0-0.277,0.092-0.493,0.277-0.647c0.185-0.155,0.378-0.259,0.581-0.312s0.569-0.136,1.099-0.249
		c0.528-0.113,0.932-0.221,1.208-0.322V39.315z"/>
	<path d="M60.297,36.406c-0.193-0.397-0.487-0.705-0.88-0.921c-0.392-0.217-0.838-0.326-1.337-0.326
		c-0.512,0-0.966,0.103-1.36,0.309s-0.759,0.527-1.092,0.966v-0.229c0-0.226-0.041-0.418-0.121-0.575
		c-0.081-0.157-0.188-0.274-0.322-0.353c-0.134-0.079-0.284-0.118-0.45-0.118c-0.272,0-0.487,0.089-0.645,0.267
		c-0.157,0.178-0.235,0.447-0.235,0.807v5.466c0,0.369,0.088,0.653,0.264,0.852c0.176,0.198,0.399,0.298,0.672,0.298
		c0.281,0,0.512-0.096,0.689-0.288c0.178-0.191,0.267-0.479,0.267-0.862v-2.37c0-0.771,0.046-1.297,0.138-1.579
		c0.13-0.351,0.333-0.627,0.611-0.828c0.276-0.201,0.583-0.301,0.921-0.301c0.517,0,0.862,0.165,1.034,0.496
		c0.174,0.33,0.261,0.807,0.261,1.43v3.152c0,0.369,0.088,0.653,0.264,0.852c0.175,0.198,0.403,0.298,0.686,0.298
		c0.276,0,0.502-0.097,0.675-0.291c0.174-0.194,0.261-0.48,0.261-0.859v-3.52c0-0.416-0.019-0.757-0.056-1.025
		C60.503,36.886,60.423,36.637,60.297,36.406z"/>
	<path d="M69.718,33.441c-0.406-0.355-0.857-0.598-1.356-0.727c-0.499-0.129-1.098-0.194-1.794-0.194h-2.682
		c-0.443,0-0.765,0.1-0.963,0.298c-0.199,0.199-0.298,0.52-0.298,0.963v7.447c0,0.328,0.028,0.595,0.087,0.8
		c0.058,0.206,0.182,0.365,0.37,0.479c0.189,0.113,0.471,0.169,0.845,0.169h2.682c0.467,0,0.885-0.03,1.258-0.09
		c0.371-0.06,0.719-0.164,1.042-0.312c0.323-0.147,0.621-0.344,0.894-0.588c0.347-0.319,0.631-0.68,0.853-1.084
		c0.222-0.404,0.386-0.858,0.491-1.361c0.106-0.503,0.16-1.06,0.16-1.669C71.306,35.723,70.776,34.346,69.718,33.441z
		 M68.188,40.562c-0.152,0.134-0.332,0.238-0.54,0.312c-0.208,0.074-0.408,0.12-0.603,0.139s-0.462,0.028-0.804,0.028h-1.559v-6.893
		h1.358c0.628,0,1.163,0.068,1.606,0.205s0.816,0.454,1.119,0.953c0.302,0.499,0.453,1.249,0.453,2.251
		C69.22,38.979,68.876,39.98,68.188,40.562z"/>
	<path d="M73.938,32.43c-0.254,0-0.477,0.086-0.668,0.26c-0.192,0.173-0.288,0.394-0.288,0.661c0,0.296,0.094,0.524,0.28,0.686
		c0.188,0.162,0.413,0.243,0.676,0.243c0.254,0,0.474-0.082,0.658-0.246s0.276-0.392,0.276-0.683c0-0.3-0.094-0.528-0.283-0.686
		S74.183,32.43,73.938,32.43z"/>
	<path d="M73.917,35.159c-0.277,0-0.503,0.095-0.676,0.284c-0.173,0.189-0.26,0.471-0.26,0.845v5.411
		c0,0.369,0.087,0.653,0.26,0.852c0.173,0.198,0.398,0.298,0.676,0.298s0.506-0.097,0.686-0.291s0.27-0.48,0.27-0.859v-5.466
		c0-0.337-0.09-0.601-0.27-0.79C74.423,35.254,74.194,35.159,73.917,35.159z"/>
	<path d="M81.783,38.748c-0.372-0.199-0.851-0.37-1.438-0.513c-0.494-0.12-0.882-0.222-1.164-0.305
		c-0.281-0.083-0.506-0.188-0.671-0.315c-0.167-0.127-0.25-0.29-0.25-0.488c0-0.217,0.113-0.398,0.339-0.544
		c0.227-0.146,0.511-0.218,0.853-0.218c0.332,0,0.596,0.056,0.789,0.167c0.194,0.11,0.363,0.258,0.507,0.443
		c0.175,0.222,0.331,0.388,0.467,0.499c0.137,0.111,0.302,0.167,0.495,0.167c0.269,0,0.475-0.069,0.621-0.208
		c0.145-0.139,0.217-0.317,0.217-0.534c0-0.198-0.067-0.401-0.203-0.609c-0.137-0.208-0.336-0.397-0.596-0.568
		c-0.262-0.171-0.588-0.307-0.978-0.409s-0.83-0.153-1.319-0.153c-0.624,0-1.156,0.101-1.597,0.302
		c-0.441,0.201-0.774,0.47-1.001,0.807c-0.227,0.337-0.34,0.695-0.34,1.074c0,0.425,0.123,0.783,0.367,1.073
		c0.245,0.291,0.572,0.526,0.979,0.704c0.41,0.178,0.939,0.347,1.591,0.509c0.577,0.139,0.992,0.284,1.244,0.437
		c0.25,0.152,0.377,0.395,0.377,0.727c0,0.217-0.121,0.41-0.363,0.579c-0.243,0.168-0.554,0.253-0.933,0.253
		c-0.467,0-0.835-0.083-1.104-0.25c-0.271-0.166-0.502-0.418-0.696-0.755c-0.098-0.175-0.198-0.312-0.305-0.409
		c-0.106-0.097-0.259-0.145-0.458-0.145c-0.226,0-0.413,0.074-0.561,0.222c-0.147,0.147-0.222,0.325-0.222,0.533
		c0,0.314,0.115,0.627,0.347,0.939c0.23,0.312,0.588,0.571,1.073,0.779c0.484,0.208,1.067,0.312,1.745,0.312
		c0.712,0,1.315-0.096,1.812-0.288c0.496-0.191,0.871-0.474,1.126-0.845c0.254-0.372,0.381-0.818,0.381-1.34
		c0-0.346-0.096-0.655-0.288-0.925C82.437,39.181,82.155,38.946,81.783,38.748z"/>
	<path d="M90.758,41.026l-1.94-3.048l1.006-0.921c0.512-0.462,0.769-0.832,0.769-1.108c0-0.226-0.079-0.415-0.235-0.565
		c-0.157-0.15-0.354-0.225-0.59-0.225c-0.197,0-0.366,0.051-0.505,0.153c-0.14,0.102-0.339,0.291-0.603,0.568l-2.127,2.23v-4.586
		c0-0.388-0.086-0.681-0.257-0.879c-0.171-0.199-0.401-0.298-0.692-0.298c-0.3,0-0.531,0.11-0.692,0.329
		c-0.162,0.22-0.243,0.54-0.243,0.959v8.064c0,0.378,0.083,0.665,0.25,0.859c0.166,0.194,0.395,0.291,0.686,0.291
		c0.249,0,0.47-0.098,0.661-0.294c0.192-0.196,0.288-0.477,0.288-0.842v-1.503l1.025-0.97l1.669,2.744
		c0.213,0.328,0.381,0.554,0.506,0.679s0.303,0.187,0.533,0.187c0.269,0,0.483-0.087,0.647-0.26c0.164-0.173,0.246-0.41,0.246-0.71
		c0-0.106-0.03-0.219-0.094-0.336C91.004,41.425,90.901,41.253,90.758,41.026z"/>
</g>
</svg>
