<?xml version="1.0" encoding="utf-8"?>
<!-- Generator: Adobe Illustrator 16.0.3, SVG Export Plug-In . SVG Version: 6.00 Build 0)  -->
<!DOCTYPE svg PUBLIC "-//W3C//DTD SVG 1.1//EN" "http://www.w3.org/Graphics/SVG/1.1/DTD/svg11.dtd">
<svg version="1.1" id="Layer_1" xmlns="http://www.w3.org/2000/svg" xmlns:xlink="http://www.w3.org/1999/xlink" x="0px" y="0px"
	 width="60px" height="60px" viewBox="0 0 60 60" enable-background="new 0 0 60 60" xml:space="preserve">
<g>
	<path  d="M47.996,17.117l1.206-1.206l0.223,0.222c0.308,0.308,0.712,0.462,1.114,0.462
		c0.404,0,0.809-0.154,1.115-0.462c0.616-0.616,0.616-1.615,0-2.23l-2.46-2.46c-0.616-0.615-1.614-0.615-2.229,0
		c-0.616,0.616-0.616,1.615,0,2.23l0.008,0.008l-1.246,1.245c-4.521-3.911-10.304-6.4-16.65-6.756V3.154h4.849
		c0.871,0,1.577-0.706,1.577-1.577S34.796,0,33.925,0H21.074c-0.871,0-1.576,0.706-1.576,1.577s0.705,1.577,1.576,1.577h4.848v6.531
		c0,0.003,0.002,0.005,0.002,0.007c0,0.003-0.002,0.005-0.002,0.008v26.324c0,0.871,0.707,1.577,1.578,1.577h26.324
		c0.872,0,1.578-0.706,1.578-1.577C55.402,28.735,52.589,22.093,47.996,17.117z M29.076,34.447v-23.12
		c12.393,0.782,22.339,10.728,23.121,23.12H29.076z"/>
	<path  d="M27.5,51.9c-0.871,0-1.578,0.706-1.578,1.578v4.944c0,0.871,0.707,1.577,1.578,1.577
		s1.576-0.706,1.576-1.577v-4.944C29.076,52.606,28.371,51.9,27.5,51.9z"/>
	<path  d="M12.696,36.024c0-0.872-0.706-1.577-1.577-1.577H6.174c-0.871,0-1.576,0.705-1.576,1.577
		c0,0.871,0.705,1.577,1.576,1.577h4.945C11.99,37.602,12.696,36.896,12.696,36.024z"/>
	<path  d="M41.48,19.418l-3.496,3.496c-0.617,0.616-0.617,1.615,0,2.23c0.308,0.308,0.711,0.462,1.115,0.462
		c0.402,0,0.807-0.154,1.114-0.462l3.496-3.496c0.616-0.615,0.616-1.615,0-2.23C43.094,18.802,42.096,18.802,41.48,19.418z"/>
	<path  d="M14.027,46.872l-3.496,3.496c-0.616,0.616-0.616,1.614,0,2.229c0.309,0.309,0.711,0.463,1.115,0.463
		c0.403,0,0.808-0.154,1.115-0.463l3.495-3.496c0.616-0.615,0.616-1.614,0-2.229C15.641,46.256,14.643,46.256,14.027,46.872z"/>
	<path  d="M40.973,46.903c-0.616-0.616-1.613-0.616-2.23,0c-0.615,0.616-0.615,1.615,0,2.23l3.496,3.496
		c0.309,0.308,0.712,0.462,1.115,0.462c0.404,0,0.808-0.154,1.115-0.462c0.616-0.615,0.616-1.614,0-2.23L40.973,46.903z"/>
	<path  d="M13.521,19.45c-0.616-0.616-1.614-0.616-2.23-0.001c-0.616,0.616-0.616,1.615-0.001,2.23l3.496,3.497
		c0.309,0.308,0.712,0.462,1.115,0.462c0.404,0,0.808-0.154,1.115-0.461c0.616-0.616,0.616-1.615,0.001-2.231L13.521,19.45z"/>
</g>
</svg>
