<?xml version="1.0" encoding="utf-8"?>
<!-- Generator: Adobe Illustrator 16.0.3, SVG Export Plug-In . SVG Version: 6.00 Build 0)  -->
<!DOCTYPE svg PUBLIC "-//W3C//DTD SVG 1.1//EN" "http://www.w3.org/Graphics/SVG/1.1/DTD/svg11.dtd">
<svg version="1.1" id="Layer_1" xmlns="http://www.w3.org/2000/svg" xmlns:xlink="http://www.w3.org/1999/xlink" x="0px" y="0px"
	 width="60px" height="60px" viewBox="0 0 60 60" enable-background="new 0 0 60 60" xml:space="preserve">
<g>
	<path  d="M53.358,45.013c-0.832-0.431-1.771-1.07-2.018-1.372c-1.412-3.296-2.162-14.396-2.336-18.478
		c-0.005-2.393-0.407-4.085-1.009-5.887c-0.327-0.98-1.389-1.512-2.373-1.183c-0.982,0.328-1.512,1.39-1.185,2.373
		c0.504,1.506,0.816,2.823,0.816,4.738c0,0.025,0,0.052,0.001,0.078c0.064,1.526,0.667,14.669,2.512,19.521H19.931
		c-1.035,0-1.875,0.84-1.875,1.875c0,1.036,0.84,1.875,1.875,1.875h5.53c0.825,2.999,3.569,5.211,6.826,5.211
		s6.001-2.212,6.825-5.211h13.387c0.865,0,1.617-0.592,1.821-1.432C54.524,46.281,54.127,45.409,53.358,45.013z M32.287,50.015
		c-1.144,0-2.155-0.58-2.755-1.461h5.51C34.441,49.435,33.431,50.015,32.287,50.015z"/>
	<path  d="M59.45,0.549c-0.732-0.732-1.92-0.732-2.652,0L17.997,39.351c0.173-0.242,0.297-0.526,0.337-0.844
		c0.747-5.812,0.975-12.944,0.985-13.303c0-6.59,3.629-11.854,9.248-13.409c0.904-0.25,1.484-1.131,1.357-2.061
		c-0.015-0.105-0.025-0.212-0.025-0.322c0-1.316,1.07-2.388,2.388-2.388s2.388,1.071,2.388,2.388c0,0.109-0.012,0.217-0.025,0.322
		c-0.127,0.93,0.453,1.81,1.357,2.061c2.207,0.611,3.305,1.168,4.52,2.293c0.762,0.704,1.947,0.658,2.65-0.102
		c0.703-0.76,0.658-1.946-0.102-2.65c-1.511-1.398-2.982-2.161-4.704-2.742c-0.401-3-2.977-5.32-6.084-5.32
		c-3.117,0-5.7,2.336-6.087,5.35c-6.506,2.436-10.631,8.785-10.631,16.521c-0.002,0.071-0.231,7.249-0.955,12.883
		c-0.132,1.027,0.594,1.968,1.62,2.1c0.081,0.011,0.162,0.016,0.242,0.016c0.401,0,0.774-0.135,1.085-0.357L0.55,56.799
		c-0.732,0.732-0.732,1.92,0,2.651C0.915,59.816,1.396,60,1.875,60s0.96-0.184,1.325-0.55l56.25-56.25
		C60.183,2.469,60.183,1.281,59.45,0.549z"/>
</g>
</svg>
