<?xml version="1.0" encoding="utf-8"?>
<!-- Generator: Adobe Illustrator 16.0.3, SVG Export Plug-In . SVG Version: 6.00 Build 0)  -->
<!DOCTYPE svg PUBLIC "-//W3C//DTD SVG 1.1//EN" "http://www.w3.org/Graphics/SVG/1.1/DTD/svg11.dtd">
<svg version="1.1" id="Layer_1" xmlns="http://www.w3.org/2000/svg" xmlns:xlink="http://www.w3.org/1999/xlink" x="0px" y="0px"
	 width="60px" height="60px" viewBox="0 0 60 60" enable-background="new 0 0 60 60" xml:space="preserve">
<g>
	<path  d="M30,0c-0.937,0-1.695,0.759-1.695,1.695v26.608H1.695C0.759,28.304,0,29.062,0,29.999
		C0,46.542,13.458,60,30,60s30-13.458,30-30.001C60,13.458,46.542,0,30,0z M30,56.608c-14.103,0-25.678-11.028-26.555-24.913H30
		c0.937,0,1.695-0.759,1.695-1.696V3.445c13.886,0.877,24.913,12.452,24.913,26.554C56.608,44.672,44.672,56.608,30,56.608z"/>
	<path  d="M30,47.07c-0.937,0-1.695,0.759-1.695,1.695v5.317c0,0.937,0.759,1.695,1.695,1.695
		s1.695-0.759,1.695-1.695v-5.317C31.695,47.829,30.937,47.07,30,47.07z"/>
	<path  d="M54.132,28.304h-5.316c-0.938,0-1.696,0.759-1.696,1.695c0,0.938,0.759,1.696,1.696,1.696h5.316
		c0.937,0,1.695-0.759,1.695-1.696C55.827,29.062,55.068,28.304,54.132,28.304z"/>
	<path  d="M43.671,18.302l3.759-3.759c0.662-0.662,0.662-1.736,0-2.398s-1.735-0.662-2.398,0l-3.759,3.76
		c-0.662,0.661-0.662,1.735,0,2.397c0.331,0.331,0.766,0.497,1.199,0.497S43.34,18.633,43.671,18.302z"/>
	<path  d="M15.514,41.663l-3.759,3.759c-0.663,0.662-0.663,1.735,0,2.397c0.33,0.332,0.765,0.497,1.198,0.497
		c0.435,0,0.868-0.165,1.199-0.497l3.76-3.759c0.662-0.661,0.662-1.735,0-2.397C17.251,41.001,16.177,41.001,15.514,41.663z"/>
	<path  d="M44.486,41.697c-0.662-0.662-1.735-0.662-2.397,0c-0.663,0.662-0.663,1.736,0,2.397l3.759,3.76
		c0.331,0.331,0.765,0.496,1.199,0.496c0.434,0,0.867-0.165,1.198-0.496c0.663-0.662,0.663-1.736,0-2.398L44.486,41.697z"/>
	<path  d="M16.33,18.337c0.331,0.331,0.765,0.496,1.199,0.496c0.434,0,0.867-0.165,1.198-0.496
		c0.663-0.662,0.663-1.736,0-2.398l-3.759-3.76c-0.663-0.662-1.736-0.662-2.398,0s-0.662,1.736,0,2.398L16.33,18.337z"/>
</g>
</svg>
