<?xml version="1.0" encoding="utf-8"?>
<!-- Generator: Adobe Illustrator 16.0.3, SVG Export Plug-In . SVG Version: 6.00 Build 0)  -->
<!DOCTYPE svg PUBLIC "-//W3C//DTD SVG 1.1//EN" "http://www.w3.org/Graphics/SVG/1.1/DTD/svg11.dtd">
<svg version="1.1" id="Layer_1" xmlns="http://www.w3.org/2000/svg" xmlns:xlink="http://www.w3.org/1999/xlink" x="0px" y="0px"
	 width="60px" height="60px" viewBox="0 0 60 60" enable-background="new 0 0 60 60" xml:space="preserve">
<g>
	<path  d="M49.683,16.205l1.451-1.451l0.22,0.22c0.305,0.306,0.705,0.458,1.105,0.458s0.801-0.152,1.105-0.458
		c0.61-0.61,0.61-1.601,0-2.211l-2.438-2.438c-0.611-0.61-1.602-0.61-2.211,0c-0.611,0.611-0.611,1.601,0,2.212l0.007,0.007
		l-1.451,1.451c-3.681-3.275-8.134-5.413-12.931-6.243V3.128h1.831c0.863,0,1.563-0.7,1.563-1.564C37.935,0.7,37.234,0,36.371,0
		h-3.395h-5.952H23.63c-0.864,0-1.563,0.7-1.563,1.563c0,0.864,0.699,1.564,1.563,1.564h1.831v4.624
		c-5.303,0.917-10.188,3.43-14.071,7.314c-4.973,4.971-7.711,11.581-7.712,18.612c0,7.03,2.737,13.64,7.709,18.611S22.969,60,30,60
		c7.03,0,13.641-2.737,18.611-7.709c4.973-4.972,7.711-11.582,7.711-18.612C56.322,27.171,53.973,21.027,49.683,16.205z
		 M28.588,3.128h2.824v4.268c-0.468-0.025-0.938-0.04-1.41-0.04c-0.474,0-0.944,0.016-1.414,0.04V3.128z M46.4,50.08
		c-4.381,4.381-10.205,6.793-16.4,6.793s-12.021-2.412-16.401-6.794c-4.382-4.381-6.794-10.205-6.794-16.4
		c0.001-6.196,2.414-12.021,6.797-16.401c4.38-4.382,10.204-6.794,16.4-6.794c6.194,0,12.019,2.412,16.398,6.792
		c4.382,4.382,6.795,10.207,6.795,16.403C53.195,39.874,50.782,45.699,46.4,50.08z"/>
	<path  d="M18.075,19.158c-0.288-0.321-0.781-0.35-1.104-0.061c-0.322,0.288-0.35,0.782-0.062,1.104l12.665,14.154
		c0.155,0.173,0.369,0.261,0.584,0.261c0.185,0,0.371-0.065,0.521-0.199c0.321-0.288,0.349-0.782,0.062-1.104L18.075,19.158z"/>
</g>
</svg>
