<?xml version="1.0" encoding="utf-8"?>
<!-- Generator: Adobe Illustrator 16.0.3, SVG Export Plug-In . SVG Version: 6.00 Build 0)  -->
<!DOCTYPE svg PUBLIC "-//W3C//DTD SVG 1.1//EN" "http://www.w3.org/Graphics/SVG/1.1/DTD/svg11.dtd">
<svg version="1.1" id="Layer_1" xmlns="http://www.w3.org/2000/svg" xmlns:xlink="http://www.w3.org/1999/xlink" x="0px" y="0px"
	 width="60px" height="60px" viewBox="0 0 60 60" enable-background="new 0 0 60 60" xml:space="preserve">
<g>
	<path  d="M48.543,29.895c0-4.953-1.928-9.61-5.432-13.113c-1.223-1.223-2.588-2.249-4.055-3.073V1.789
		C39.057,0.801,38.256,0,37.268,0H22.946c-0.987,0-1.788,0.801-1.788,1.789v11.8c-1.55,0.843-2.986,1.912-4.269,3.194
		c-3.503,3.501-5.433,8.159-5.433,13.112s1.929,9.609,5.43,13.11c1.283,1.283,2.722,2.353,4.271,3.195v12.012
		c0,0.987,0.801,1.788,1.788,1.788h14.321c0.988,0,1.789-0.801,1.789-1.788V46.079c1.467-0.824,2.832-1.851,4.055-3.073
		C46.615,39.505,48.543,34.848,48.543,29.895z M24.734,3.577h10.745v8.594c-1.752-0.539-3.593-0.82-5.479-0.82
		c-1.81,0-3.578,0.26-5.267,0.758V3.577z M35.479,56.423H24.734V47.68c1.688,0.498,3.457,0.758,5.266,0.758
		c1.886,0,3.727-0.281,5.479-0.821V56.423z M36.58,43.341c-0.018,0.008-0.034,0.019-0.052,0.026C34.519,44.343,32.3,44.86,30,44.86
		c-2.23,0-4.386-0.486-6.348-1.405c-0.006-0.003-0.012-0.005-0.018-0.008c-1.547-0.728-2.973-1.727-4.218-2.972
		c-2.827-2.826-4.384-6.583-4.384-10.581s1.558-7.756,4.386-10.583c1.243-1.243,2.666-2.24,4.211-2.968
		c0.011-0.004,0.02-0.009,0.029-0.013c1.96-0.918,4.113-1.403,6.342-1.403c2.298,0,4.515,0.517,6.521,1.49
		c0.021,0.009,0.038,0.021,0.06,0.03c1.463,0.717,2.814,1.677,4.001,2.863c2.827,2.827,4.384,6.586,4.384,10.584
		s-1.557,7.757-4.384,10.583C39.396,41.664,38.044,42.623,36.58,43.341z"/>
	<path  d="M38.037,29.106h-7.036V17.248c0-0.494-0.4-0.894-0.894-0.894c-0.494,0-0.895,0.4-0.895,0.894v12.753
		c0,0.493,0.4,0.894,0.895,0.894h7.93c0.494,0,0.895-0.4,0.895-0.894C38.932,29.507,38.531,29.106,38.037,29.106z"/>
</g>
</svg>
