<?xml version="1.0" encoding="utf-8"?>
<!-- Generator: Adobe Illustrator 16.0.3, SVG Export Plug-In . SVG Version: 6.00 Build 0)  -->
<!DOCTYPE svg PUBLIC "-//W3C//DTD SVG 1.1//EN" "http://www.w3.org/Graphics/SVG/1.1/DTD/svg11.dtd">
<svg version="1.1" id="Layer_1" xmlns="http://www.w3.org/2000/svg" xmlns:xlink="http://www.w3.org/1999/xlink" x="0px" y="0px"
	 width="60px" height="60px" viewBox="0 0 60 60" enable-background="new 0 0 60 60" xml:space="preserve">
<g>
	<path  d="M49.24,16.069l1.137-1.136l0.207,0.208c0.289,0.289,0.668,0.434,1.047,0.434s0.758-0.145,1.047-0.434
		c0.578-0.577,0.578-1.515,0-2.093l-2.309-2.309c-0.576-0.578-1.514-0.578-2.092,0c-0.578,0.577-0.578,1.515,0,2.093l0.006,0.007
		l-1.172,1.172c-4.244-3.673-9.674-6.01-15.631-6.344V2.961h4.551c0.816,0,1.48-0.663,1.48-1.48c0-0.818-0.664-1.48-1.48-1.48
		H23.969c-0.816,0-1.479,0.662-1.479,1.48c0,0.817,0.662,1.48,1.479,1.48h4.551v6.13c0,0.003,0.002,0.006,0.002,0.009
		c0,0.002-0.002,0.003-0.002,0.005v23.227H5.293c-0.818,0-1.48,0.663-1.48,1.48C3.812,48.252,15.561,60,30,60
		c14.441,0,26.188-11.748,26.188-26.188C56.188,26.972,53.551,20.738,49.24,16.069z M30,57.039c-12.311,0-22.414-9.627-23.18-21.747
		H30c0.818,0,1.48-0.663,1.48-1.48V10.631c12.121,0.766,21.748,10.87,21.748,23.181C53.229,46.619,42.809,57.039,30,57.039z"/>
	<path  d="M30,48.713c-0.816,0-1.48,0.663-1.48,1.48v4.642c0,0.817,0.664,1.479,1.48,1.479
		c0.818,0,1.48-0.662,1.48-1.479v-4.642C31.48,49.376,30.818,48.713,30,48.713z"/>
	<path  d="M51.066,32.331h-4.643c-0.816,0-1.479,0.663-1.479,1.48s0.662,1.48,1.479,1.48h4.643
		c0.816,0,1.48-0.663,1.48-1.48S51.883,32.331,51.066,32.331z"/>
	<path  d="M41.934,23.6l3.281-3.281c0.578-0.577,0.578-1.516,0-2.093c-0.578-0.578-1.514-0.578-2.092,0l-3.283,3.281
		c-0.578,0.578-0.578,1.516,0,2.093c0.289,0.289,0.668,0.435,1.047,0.435S41.645,23.889,41.934,23.6z"/>
	<path  d="M17.355,43.993l-3.281,3.281c-0.58,0.577-0.58,1.515,0,2.093c0.287,0.289,0.666,0.434,1.045,0.434
		s0.758-0.145,1.047-0.434l3.283-3.281c0.578-0.577,0.578-1.515,0-2.093S17.934,43.415,17.355,43.993z"/>
	<path  d="M42.646,44.022c-0.578-0.578-1.516-0.578-2.094,0s-0.578,1.516,0,2.094l3.281,3.281
		c0.289,0.289,0.668,0.434,1.047,0.434s0.758-0.145,1.047-0.434c0.578-0.578,0.578-1.516,0-2.093L42.646,44.022z"/>
	<path  d="M18.066,23.631c0.291,0.289,0.668,0.434,1.047,0.434s0.758-0.145,1.047-0.434
		c0.578-0.578,0.578-1.516,0-2.094l-3.281-3.281c-0.578-0.579-1.516-0.579-2.094,0c-0.578,0.577-0.578,1.515,0,2.093L18.066,23.631z
		"/>
</g>
</svg>
