<?xml version="1.0" encoding="utf-8"?>
<!-- Generator: Adobe Illustrator 16.0.3, SVG Export Plug-In . SVG Version: 6.00 Build 0)  -->
<!DOCTYPE svg PUBLIC "-//W3C//DTD SVG 1.1//EN" "http://www.w3.org/Graphics/SVG/1.1/DTD/svg11.dtd">
<svg version="1.1" id="Layer_1" xmlns="http://www.w3.org/2000/svg" xmlns:xlink="http://www.w3.org/1999/xlink" x="0px" y="0px"
	 width="60px" height="60px" viewBox="0 0 60 60" enable-background="new 0 0 60 60" xml:space="preserve">
<g>
	<path  d="M57.2,31.403c0-2.665-0.384-5.27-1.119-7.756c2.558-2.654,3.975-6.228,3.909-9.932
		C59.856,6.102,53.619,0,46.035,0c-0.083,0-0.166,0-0.249,0.002c-3.964,0.069-7.648,1.79-10.243,4.748
		c-1.812-0.375-3.673-0.571-5.565-0.571c-1.896,0-3.762,0.197-5.576,0.573C21.8,1.821,18.124,0.124,14.174,0.065
		c-3.74-0.062-7.255,1.346-9.931,3.943c-2.676,2.598-4.179,6.082-4.234,9.81c-0.054,3.667,1.345,7.199,3.86,9.838
		c-0.733,2.482-1.117,5.084-1.117,7.746c0,7.271,2.832,14.106,7.973,19.248c0.166,0.166,0.338,0.323,0.508,0.484l-3.568,6.465
		c-0.432,0.782-0.147,1.766,0.634,2.197C8.548,59.935,8.815,60,9.08,60c0.57,0,1.123-0.303,1.417-0.837l3.253-5.896
		c4.666,3.478,10.301,5.358,16.225,5.358c5.743,0,11.211-1.772,15.789-5.048l3.083,5.585C49.143,59.697,49.695,60,50.265,60
		c0.265,0,0.532-0.065,0.78-0.202c0.782-0.432,1.065-1.415,0.635-2.197l-3.358-6.086c0.306-0.28,0.608-0.566,0.903-0.861
		C54.367,45.511,57.2,38.675,57.2,31.403z M45.843,3.236c5.902-0.094,10.81,4.623,10.913,10.536
		c0.041,2.304-0.664,4.542-1.976,6.393c-1.336-2.945-3.2-5.658-5.556-8.013c-2.9-2.901-6.341-5.065-10.094-6.402
		C40.996,4.177,43.348,3.279,45.843,3.236z M3.243,13.867c0.042-2.865,1.197-5.542,3.253-7.538c2.056-1.996,4.783-3.062,7.629-3.03
		c2.477,0.037,4.814,0.913,6.677,2.458c-3.746,1.337-7.179,3.5-10.075,6.396c-2.354,2.354-4.217,5.065-5.553,8.008
		C3.899,18.332,3.21,16.132,3.243,13.867z M13.013,48.365c-4.531-4.531-7.026-10.555-7.025-16.962
		c0-6.408,2.496-12.432,7.028-16.963c4.531-4.531,10.555-7.026,16.962-7.026c6.407,0,12.43,2.495,16.961,7.024
		c4.531,4.532,7.027,10.557,7.027,16.965c0,6.407-2.496,12.432-7.027,16.963c-0.549,0.548-1.12,1.065-1.71,1.553
		c-0.004,0.003-0.007,0.006-0.01,0.009c-4.284,3.538-9.615,5.464-15.243,5.464C23.568,55.392,17.544,52.896,13.013,48.365z"/>
	<path  d="M42.259,30.757l-11.311-0.001v-18.68c0-0.447-0.362-0.809-0.809-0.809s-0.809,0.362-0.809,0.809v19.488
		c0,0.446,0.362,0.809,0.809,0.809l12.119,0.001c0.446,0,0.809-0.362,0.809-0.809S42.705,30.757,42.259,30.757z"/>
</g>
</svg>
