<?xml version="1.0" encoding="utf-8"?>
<!-- Generator: Adobe Illustrator 16.0.3, SVG Export Plug-In . SVG Version: 6.00 Build 0)  -->
<!DOCTYPE svg PUBLIC "-//W3C//DTD SVG 1.1//EN" "http://www.w3.org/Graphics/SVG/1.1/DTD/svg11.dtd">
<svg version="1.1" id="Layer_1" xmlns="http://www.w3.org/2000/svg" xmlns:xlink="http://www.w3.org/1999/xlink" x="0px" y="0px"
	 width="60px" height="60px" viewBox="0 0 60 60" enable-background="new 0 0 60 60" xml:space="preserve">
<g>
	<path  d="M51.212,8.785C45.547,3.12,38.015,0,30.002,0C21.988,0,14.455,3.121,8.789,8.788
		C3.122,14.453,0.001,21.986,0,30c-0.001,8.013,3.12,15.546,8.786,21.212C14.452,56.879,21.986,60,30,60s15.546-3.12,21.212-8.786
		C56.879,45.547,60,38.014,60,30S56.879,14.452,51.212,8.785z M48.692,48.693C43.699,53.686,37.061,56.436,30,56.436
		c-7.062,0-13.7-2.75-18.694-7.743C6.313,43.699,3.564,37.062,3.564,30s2.751-13.699,7.745-18.692
		c4.992-4.993,11.631-7.743,18.692-7.743c7.061,0,13.698,2.749,18.69,7.741c4.993,4.994,7.743,11.633,7.743,18.694
		S53.686,43.7,48.692,48.693z"/>
	<path  d="M44.907,29.109c-0.003,0-0.007,0-0.011,0l-14.323,0.173L16.409,13.452c-0.329-0.367-0.892-0.399-1.259-0.07
		c-0.366,0.328-0.397,0.892-0.07,1.258l14.436,16.132c0.006,0.006,0.013,0.011,0.02,0.017c0.026,0.028,0.056,0.054,0.086,0.078
		c0.018,0.014,0.034,0.029,0.052,0.042c0.033,0.023,0.07,0.042,0.107,0.061c0.016,0.009,0.031,0.02,0.049,0.027
		c0.047,0.02,0.098,0.035,0.148,0.047c0.008,0.001,0.015,0.005,0.021,0.007c0.059,0.012,0.119,0.019,0.181,0.019
		c0.004,0,0.007,0,0.011,0l14.729-0.178c0.491-0.006,0.886-0.409,0.88-0.902C45.793,29.502,45.395,29.109,44.907,29.109z"/>
</g>
</svg>
