<?xml version="1.0" encoding="utf-8"?>
<!-- Generator: Adobe Illustrator 16.0.3, SVG Export Plug-In . SVG Version: 6.00 Build 0)  -->
<!DOCTYPE svg PUBLIC "-//W3C//DTD SVG 1.1//EN" "http://www.w3.org/Graphics/SVG/1.1/DTD/svg11.dtd">
<svg version="1.1" id="Layer_1" xmlns="http://www.w3.org/2000/svg" xmlns:xlink="http://www.w3.org/1999/xlink" x="0px" y="0px"
	 width="60px" height="60px" viewBox="0 0 60 60" enable-background="new 0 0 60 60" xml:space="preserve">
<g>
	<path  d="M27.312,0c-0.938,0-1.695,0.759-1.695,1.695v56.609c0,0.937,0.758,1.695,1.695,1.695
		c16.543,0,30-13.458,30-30.001C57.312,13.458,43.855,0,27.312,0z M29.008,56.555V3.445c13.885,0.877,24.914,12.452,24.914,26.554
		C53.922,44.103,42.893,55.678,29.008,56.555z"/>
	<path  d="M51.443,28.304h-5.316c-0.938,0-1.695,0.759-1.695,1.695c0,0.938,0.758,1.696,1.695,1.696h5.316
		c0.938,0,1.695-0.759,1.695-1.696C53.139,29.062,52.381,28.304,51.443,28.304z"/>
	<path  d="M11.395,29.999c0-0.937-0.758-1.695-1.695-1.695H4.383c-0.938,0-1.695,0.759-1.695,1.695
		c0,0.938,0.758,1.696,1.695,1.696h5.316C10.637,31.695,11.395,30.937,11.395,29.999z"/>
	<path  d="M40.982,18.302l3.76-3.759c0.662-0.662,0.662-1.736,0-2.398s-1.736-0.662-2.398,0l-3.758,3.76
		c-0.662,0.661-0.662,1.735,0,2.397c0.33,0.331,0.764,0.497,1.199,0.497C40.219,18.799,40.652,18.633,40.982,18.302z"/>
	<path  d="M12.826,41.663l-3.76,3.759c-0.662,0.662-0.662,1.736,0,2.397c0.332,0.332,0.766,0.497,1.199,0.497
		s0.869-0.165,1.199-0.497l3.76-3.759c0.662-0.661,0.662-1.735,0-2.397S13.488,41.001,12.826,41.663z"/>
	<path  d="M41.799,41.697c-0.662-0.662-1.736-0.662-2.398,0s-0.662,1.736,0,2.397l3.76,3.76
		c0.33,0.331,0.764,0.496,1.199,0.496c0.434,0,0.867-0.165,1.197-0.496c0.664-0.662,0.664-1.736,0-2.398L41.799,41.697z"/>
	<path  d="M12.281,12.179c-0.662-0.662-1.736-0.662-2.398,0s-0.662,1.736,0,2.398l3.76,3.76
		c0.33,0.331,0.764,0.496,1.199,0.496c0.434,0,0.867-0.165,1.197-0.496c0.664-0.662,0.664-1.736,0-2.398L12.281,12.179z"/>
</g>
</svg>
