<?xml version="1.0" encoding="utf-8"?>
<!-- Generator: Adobe Illustrator 16.0.3, SVG Export Plug-In . SVG Version: 6.00 Build 0)  -->
<!DOCTYPE svg PUBLIC "-//W3C//DTD SVG 1.1//EN" "http://www.w3.org/Graphics/SVG/1.1/DTD/svg11.dtd">
<svg version="1.1" id="Layer_1" xmlns="http://www.w3.org/2000/svg" xmlns:xlink="http://www.w3.org/1999/xlink" x="0px" y="0px"
	 width="60px" height="60px" viewBox="0 0 60 60" enable-background="new 0 0 60 60" xml:space="preserve">
<g>
	<path  d="M50.667,52.573c-0.726-0.373-1.571-0.952-1.777-1.216c-1.23-2.852-1.883-12.497-2.033-16.037
		c-0.012-6.714-3.58-12.182-9.197-14.263c-0.309-2.593-2.521-4.609-5.197-4.609c-2.675,0-4.888,2.017-5.197,4.609
		c-5.626,2.084-9.196,7.564-9.195,14.248c-0.107,3.445-0.635,12.957-1.777,15.812c-0.228,0.304-1.195,0.995-2.07,1.476
		c-0.618,0.339-0.928,1.054-0.753,1.736c0.175,0.682,0.79,1.16,1.494,1.16h11.651C27.3,58.08,29.657,60,32.462,60
		s5.163-1.92,5.849-4.511h11.65c0.712,0,1.332-0.488,1.5-1.181C51.628,53.616,51.3,52.899,50.667,52.573z M32.462,56.913
		c-1.07,0-2.008-0.571-2.53-1.424h5.062C34.471,56.342,33.533,56.913,32.462,56.913z M19.101,52.402
		c0.008-0.018,0.016-0.035,0.022-0.053c1.58-3.813,1.989-15.615,2.031-16.996c0-5.743,3.166-10.33,8.065-11.687
		c0.742-0.205,1.22-0.927,1.118-1.69c-0.013-0.096-0.023-0.194-0.023-0.294c0-1.185,0.963-2.148,2.147-2.148
		s2.148,0.964,2.148,2.148c0,0.099-0.011,0.195-0.023,0.29c-0.104,0.765,0.373,1.489,1.117,1.694
		c4.899,1.356,8.065,5.943,8.065,11.687c0,0.021,0.001,0.043,0.002,0.064c0.056,1.332,0.585,12.892,2.211,16.984H19.101z"/>
	<path  d="M8.954,24.872c0.05,0.021,0.103,0.032,0.154,0.048c0.044,0.014,0.087,0.03,0.133,0.039
		c0.1,0.021,0.201,0.031,0.303,0.031h6.945c0.853,0,1.543-0.69,1.543-1.544c0-0.852-0.69-1.543-1.543-1.543h-3.22l4.46-4.46l0,0l0,0
		l0,0c0.071-0.072,0.136-0.151,0.192-0.235c0.024-0.037,0.042-0.078,0.063-0.117c0.026-0.05,0.057-0.097,0.078-0.148
		c0.021-0.051,0.033-0.104,0.048-0.156c0.014-0.044,0.03-0.086,0.039-0.132c0.04-0.2,0.04-0.405,0-0.604
		c-0.009-0.045-0.025-0.087-0.038-0.13c-0.016-0.053-0.028-0.106-0.049-0.158c-0.021-0.052-0.052-0.1-0.079-0.149
		c-0.021-0.038-0.038-0.078-0.062-0.115c-0.113-0.17-0.259-0.315-0.429-0.429c-0.037-0.024-0.077-0.042-0.116-0.063
		c-0.049-0.026-0.097-0.057-0.148-0.078c-0.052-0.021-0.104-0.033-0.157-0.049c-0.044-0.013-0.086-0.029-0.131-0.038
		c-0.1-0.021-0.201-0.031-0.303-0.031l0,0H9.544C8.691,14.809,8,15.5,8,16.353c0,0.852,0.691,1.543,1.544,1.543h3.368l-4.46,4.46
		l0,0l0,0l0,0c-0.071,0.072-0.136,0.151-0.192,0.235c-0.024,0.038-0.042,0.078-0.063,0.117c-0.026,0.05-0.056,0.097-0.078,0.148
		c-0.021,0.051-0.033,0.104-0.048,0.156c-0.014,0.044-0.03,0.087-0.039,0.132c-0.04,0.2-0.04,0.405,0,0.604
		c0.009,0.045,0.025,0.087,0.038,0.13c0.016,0.054,0.028,0.106,0.049,0.158c0.022,0.053,0.052,0.1,0.079,0.149
		c0.021,0.038,0.038,0.078,0.062,0.116c0.113,0.169,0.259,0.314,0.429,0.428c0.036,0.024,0.076,0.041,0.114,0.062
		C8.853,24.82,8.9,24.85,8.954,24.872z"/>
	<path  d="M27.712,9.255c-0.024,0.037-0.041,0.076-0.062,0.114c-0.028,0.05-0.058,0.099-0.08,0.151
		c-0.021,0.051-0.032,0.104-0.048,0.154c-0.013,0.045-0.03,0.088-0.039,0.133c-0.04,0.2-0.04,0.406,0,0.605
		c0.009,0.045,0.026,0.088,0.039,0.133c0.016,0.052,0.027,0.104,0.048,0.154c0.022,0.053,0.053,0.102,0.08,0.151
		c0.021,0.038,0.037,0.077,0.062,0.114c0.113,0.169,0.259,0.315,0.429,0.428c0.036,0.025,0.076,0.041,0.114,0.062
		c0.05,0.027,0.098,0.058,0.151,0.079c0.05,0.021,0.102,0.033,0.153,0.049c0.045,0.013,0.088,0.03,0.134,0.039
		c0.1,0.021,0.201,0.03,0.303,0.03h8.388c0.852,0,1.543-0.69,1.543-1.543s-0.691-1.543-1.543-1.543h-4.662l5.931-5.931
		c0.073-0.072,0.138-0.152,0.194-0.238c0.024-0.035,0.04-0.074,0.061-0.11c0.028-0.051,0.059-0.101,0.081-0.155
		c0.021-0.049,0.032-0.101,0.048-0.152c0.013-0.045,0.03-0.089,0.04-0.136c0.039-0.199,0.039-0.404,0-0.604
		c-0.01-0.047-0.027-0.09-0.04-0.135c-0.016-0.052-0.027-0.104-0.048-0.153c-0.022-0.054-0.053-0.104-0.081-0.154
		c-0.021-0.037-0.036-0.075-0.061-0.111c-0.113-0.169-0.259-0.315-0.429-0.429c-0.034-0.022-0.071-0.038-0.106-0.058
		c-0.053-0.029-0.104-0.061-0.158-0.084c-0.05-0.02-0.101-0.03-0.15-0.046c-0.046-0.014-0.09-0.031-0.138-0.041
		c-0.1-0.02-0.2-0.03-0.302-0.03h-8.567c-0.853,0-1.544,0.69-1.544,1.543s0.691,1.544,1.544,1.544h4.842l-5.932,5.931
		C27.834,9.09,27.77,9.169,27.712,9.255z"/>
	<path  d="M51.741,16.623c0.022-0.034,0.037-0.071,0.057-0.105c0.03-0.053,0.062-0.104,0.085-0.16
		c0.02-0.048,0.03-0.099,0.046-0.148c0.014-0.046,0.031-0.091,0.041-0.14c0.02-0.098,0.03-0.198,0.03-0.298c0-0.001,0-0.002,0-0.004
		l0,0c0-0.102-0.011-0.202-0.03-0.302c-0.009-0.046-0.026-0.088-0.039-0.133c-0.016-0.052-0.027-0.104-0.049-0.155
		c-0.021-0.054-0.052-0.103-0.08-0.152c-0.021-0.038-0.037-0.077-0.061-0.113c-0.113-0.17-0.26-0.315-0.429-0.429
		c-0.034-0.021-0.07-0.037-0.104-0.057c-0.053-0.029-0.104-0.061-0.162-0.085c-0.047-0.02-0.097-0.03-0.146-0.045
		c-0.047-0.014-0.093-0.032-0.142-0.042c-0.098-0.02-0.195-0.029-0.294-0.029c-0.003,0-0.005-0.001-0.008-0.001h-5.136
		c-0.853,0-1.543,0.69-1.543,1.543s0.69,1.544,1.543,1.544h1.411l-2.5,2.499c-0.073,0.072-0.138,0.153-0.195,0.238
		C44.015,20.083,44,20.12,43.98,20.154c-0.03,0.053-0.062,0.104-0.085,0.16c-0.02,0.048-0.03,0.099-0.045,0.147
		c-0.015,0.047-0.032,0.092-0.042,0.14c-0.02,0.099-0.03,0.199-0.03,0.299c0,0.001,0,0.002,0,0.004l0,0
		c0,0.101,0.011,0.202,0.03,0.302c0.01,0.046,0.026,0.088,0.039,0.133c0.016,0.052,0.027,0.104,0.049,0.155
		c0.021,0.054,0.052,0.103,0.08,0.152c0.021,0.038,0.037,0.077,0.061,0.113c0.114,0.169,0.26,0.315,0.43,0.428
		c0.034,0.023,0.071,0.038,0.106,0.059c0.052,0.028,0.103,0.061,0.158,0.083c0.049,0.021,0.101,0.031,0.15,0.047
		c0.046,0.014,0.09,0.031,0.138,0.041c0.1,0.02,0.2,0.03,0.302,0.03h5.027c0.853,0,1.544-0.69,1.544-1.543s-0.691-1.544-1.544-1.544
		h-1.302l2.499-2.499C51.619,16.789,51.684,16.708,51.741,16.623z"/>
</g>
</svg>
