<?xml version="1.0" encoding="utf-8"?>
<!-- Generator: Adobe Illustrator 16.0.3, SVG Export Plug-In . SVG Version: 6.00 Build 0)  -->
<!DOCTYPE svg PUBLIC "-//W3C//DTD SVG 1.1//EN" "http://www.w3.org/Graphics/SVG/1.1/DTD/svg11.dtd">
<svg version="1.1" id="Layer_1" xmlns="http://www.w3.org/2000/svg" xmlns:xlink="http://www.w3.org/1999/xlink" x="0px" y="0px"
	 width="60px" height="60px" viewBox="0 0 60 60" enable-background="new 0 0 60 60" xml:space="preserve">
<g>
	<path  d="M30,5.326c-0.937,0-1.695,0.76-1.695,1.696v5.316c0,0.937,0.759,1.696,1.695,1.696s1.695-0.76,1.695-1.696
		V7.022C31.695,6.086,30.937,5.326,30,5.326z"/>
	<path  d="M30,47.07c-0.937,0-1.695,0.76-1.695,1.696v5.316c0,0.937,0.759,1.696,1.695,1.696s1.695-0.76,1.695-1.696
		v-5.316C31.695,47.83,30.937,47.07,30,47.07z"/>
	<path  d="M54.131,28.305h-5.315c-0.937,0-1.695,0.759-1.695,1.695s0.759,1.696,1.695,1.696h5.315
		c0.937,0,1.695-0.76,1.695-1.696S55.067,28.305,54.131,28.305z"/>
	<path  d="M14.083,30c0-0.937-0.759-1.695-1.696-1.695H7.07c-0.937,0-1.695,0.759-1.695,1.695
		s0.759,1.696,1.695,1.696h5.316C13.324,31.696,14.083,30.937,14.083,30z"/>
	<path  d="M43.67,18.303l3.76-3.759c0.662-0.662,0.662-1.736,0-2.398s-1.735-0.662-2.398,0l-3.759,3.759
		c-0.662,0.662-0.662,1.736,0,2.398c0.331,0.331,0.765,0.496,1.199,0.496C42.905,18.799,43.339,18.634,43.67,18.303z"/>
	<path  d="M15.515,41.663l-3.76,3.759c-0.663,0.662-0.663,1.736-0.001,2.398c0.332,0.331,0.766,0.497,1.199,0.497
		c0.435,0,0.868-0.166,1.199-0.496l3.76-3.759c0.663-0.663,0.663-1.736,0.001-2.398C17.251,41.001,16.178,41.002,15.515,41.663z"/>
	<path  d="M44.486,41.698c-0.662-0.663-1.735-0.663-2.398,0c-0.662,0.661-0.662,1.735,0,2.397l3.76,3.759
		c0.331,0.331,0.765,0.497,1.199,0.497c0.434,0,0.867-0.166,1.198-0.497c0.662-0.662,0.662-1.735,0-2.397L44.486,41.698z"/>
	<path  d="M14.969,12.18c-0.662-0.662-1.736-0.662-2.398,0s-0.662,1.735,0,2.398l3.76,3.76
		c0.331,0.331,0.766,0.497,1.199,0.497s0.867-0.166,1.198-0.497c0.663-0.662,0.663-1.735,0-2.397L14.969,12.18z"/>
	<path  d="M30,0C13.458,0,0,13.458,0,30c0,16.543,13.458,30,30,30s30-13.457,30-30C60,13.458,46.542,0,30,0z
		 M30,56.609C15.328,56.609,3.392,44.673,3.392,30C3.392,15.328,15.328,3.392,30,3.392S56.608,15.328,56.608,30
		C56.608,44.673,44.672,56.609,30,56.609z"/>
</g>
</svg>
