<?xml version="1.0" encoding="utf-8"?>
<!-- Generator: Adobe Illustrator 16.0.3, SVG Export Plug-In . SVG Version: 6.00 Build 0)  -->
<!DOCTYPE svg PUBLIC "-//W3C//DTD SVG 1.1//EN" "http://www.w3.org/Graphics/SVG/1.1/DTD/svg11.dtd">
<svg version="1.1" id="Layer_1" xmlns="http://www.w3.org/2000/svg" xmlns:xlink="http://www.w3.org/1999/xlink" x="0px" y="0px"
	 width="60px" height="60px" viewBox="0 0 60 60" enable-background="new 0 0 60 60" xml:space="preserve">
<g>
	<path  d="M49.535,52.031c-0.794-0.41-1.686-1.021-1.908-1.305c-1.319-3.06-2.021-13.41-2.182-17.209
		c-0.013-7.203-3.842-13.07-9.868-15.303c-0.332-2.782-2.706-4.947-5.577-4.947c-2.869,0-5.244,2.165-5.576,4.947
		c-6.037,2.235-9.868,8.115-9.867,15.287c-0.115,3.697-0.682,13.903-1.907,16.967c-0.245,0.326-1.282,1.067-2.222,1.582
		c-0.662,0.364-0.995,1.131-0.808,1.863c0.188,0.732,0.848,1.245,1.604,1.245h12.502C24.461,57.94,26.991,60,30,60
		c3.01,0,5.54-2.06,6.275-4.841h12.502c0.764,0,1.428-0.522,1.608-1.265C50.566,53.151,50.215,52.382,49.535,52.031z M30,56.688
		c-1.148,0-2.154-0.613-2.715-1.528h5.432C32.156,56.074,31.15,56.688,30,56.688z M15.662,51.848
		c0.009-0.02,0.018-0.039,0.025-0.058c1.695-4.091,2.135-16.755,2.18-18.236c0-6.162,3.397-11.085,8.654-12.54
		c0.797-0.221,1.309-0.994,1.199-1.813c-0.014-0.104-0.025-0.208-0.025-0.316c0-1.271,1.034-2.305,2.305-2.305
		c1.271,0,2.306,1.034,2.306,2.305c0,0.106-0.012,0.209-0.025,0.311c-0.112,0.82,0.4,1.597,1.199,1.818
		c5.257,1.455,8.653,6.378,8.653,12.54c0,0.023,0.001,0.046,0.002,0.069c0.06,1.429,0.628,13.832,2.373,18.225H15.662z"/>
	<path  d="M34.801,8.825c-0.889-0.018-1.671,0.707-1.689,1.621c-0.02,0.915,0.705,1.671,1.619,1.691
		c7.172,0.151,13.006,6.11,13.006,13.284c0,0.914,0.74,1.655,1.655,1.655s1.656-0.741,1.656-1.655
		C51.048,16.458,43.76,9.014,34.801,8.825z"/>
	<path  d="M12.265,25.42c0-7.173,5.834-13.132,13.005-13.284c0.914-0.02,1.64-0.776,1.62-1.691
		c-0.019-0.914-0.763-1.643-1.69-1.621C16.241,9.014,8.953,16.459,8.953,25.42c0,0.914,0.741,1.655,1.656,1.655
		C11.523,27.075,12.265,26.334,12.265,25.42z"/>
	<path  d="M34.788,0c-0.007,0-0.015,0-0.022,0c-0.904,0-1.643,0.727-1.655,1.634c-0.012,0.915,0.72,1.666,1.634,1.678
		C46.773,3.472,56.559,13.39,56.559,25.42c0,0.914,0.742,1.655,1.656,1.655c0.915,0,1.656-0.741,1.656-1.655
		C59.871,11.588,48.619,0.185,34.788,0z"/>
	<path  d="M25.257,3.312c0.914-0.012,1.646-0.763,1.634-1.678C26.878,0.72,26.115-0.025,25.213,0
		C11.381,0.185,0.129,11.588,0.129,25.42c0,0.914,0.741,1.655,1.656,1.655c0.914,0,1.656-0.741,1.656-1.655
		C3.441,13.39,13.228,3.472,25.257,3.312z"/>
</g>
</svg>
