<?xml version="1.0" encoding="utf-8"?>
<!-- Generator: Adobe Illustrator 16.0.3, SVG Export Plug-In . SVG Version: 6.00 Build 0)  -->
<!DOCTYPE svg PUBLIC "-//W3C//DTD SVG 1.1//EN" "http://www.w3.org/Graphics/SVG/1.1/DTD/svg11.dtd">
<svg version="1.1" id="Layer_1" xmlns="http://www.w3.org/2000/svg" xmlns:xlink="http://www.w3.org/1999/xlink" x="0px" y="0px"
	 width="60px" height="60px" viewBox="0 0 60 60" enable-background="new 0 0 60 60" xml:space="preserve">
<g>
	<path  d="M38.377,0H26.316c-0.817,0-1.48,0.662-1.48,1.48c0,0.817,0.663,1.48,1.48,1.48h4.551v4.707
		c-5.998,0.336-11.459,2.702-15.716,6.416l-1.245-1.244l0.007-0.007c0.578-0.577,0.578-1.515,0-2.093
		c-0.578-0.578-1.515-0.578-2.094,0l-2.309,2.309c-0.579,0.577-0.579,1.515,0,2.093c0.289,0.289,0.668,0.434,1.047,0.434
		s0.757-0.145,1.046-0.434l0.208-0.208l1.216,1.216c-4.265,4.66-6.872,10.861-6.872,17.662C6.158,48.252,17.906,60,32.346,60
		c0.818,0,1.48-0.662,1.48-1.48V9.104c0-0.001,0-0.001,0-0.001c0-0.005,0.002-0.009,0.002-0.013v-6.13h4.549
		c0.818,0,1.48-0.663,1.48-1.48C39.857,0.662,39.195,0,38.377,0z M30.865,56.993C18.745,56.227,9.118,46.122,9.118,33.812
		s9.627-22.415,21.747-23.181V56.993z"/>
	<path  d="M17.402,33.812c0-0.817-0.663-1.48-1.48-1.48h-4.641c-0.817,0-1.48,0.663-1.48,1.48s0.663,1.48,1.48,1.48
		h4.641C16.74,35.292,17.402,34.629,17.402,33.812z"/>
	<path  d="M52.361,32.331h-4.641c-0.816,0-1.48,0.663-1.48,1.48s0.664,1.48,1.48,1.48h4.641
		c0.818,0,1.48-0.663,1.48-1.48S53.18,32.331,52.361,32.331z"/>
	<path  d="M20.413,23.6c0.289,0.289,0.667,0.434,1.046,0.434s0.758-0.145,1.046-0.434
		c0.579-0.577,0.579-1.515,0-2.093l-3.281-3.281c-0.578-0.578-1.515-0.578-2.093,0c-0.578,0.577-0.578,1.516,0,2.093L20.413,23.6z"
		/>
	<path  d="M44.992,43.993c-0.578-0.578-1.516-0.578-2.094,0c-0.578,0.577-0.578,1.515,0,2.093l3.281,3.281
		c0.289,0.289,0.668,0.434,1.047,0.434s0.758-0.145,1.047-0.434c0.578-0.577,0.578-1.516,0-2.093L44.992,43.993z"/>
	<path  d="M19.701,44.022l-3.282,3.282c-0.578,0.577-0.578,1.515,0,2.093c0.289,0.289,0.668,0.434,1.047,0.434
		s0.758-0.145,1.046-0.434l3.282-3.281c0.578-0.578,0.578-1.515,0-2.094C21.217,43.444,20.279,43.444,19.701,44.022z"/>
	<path  d="M44.279,23.631l3.281-3.282c0.578-0.578,0.578-1.516,0-2.093c-0.578-0.578-1.516-0.578-2.092,0
		l-3.281,3.281c-0.578,0.578-0.578,1.516,0,2.094c0.289,0.289,0.668,0.434,1.045,0.434C43.611,24.064,43.992,23.92,44.279,23.631z"
		/>
</g>
</svg>
