<?xml version="1.0" encoding="utf-8"?>
<!-- Generator: Adobe Illustrator 16.0.3, SVG Export Plug-In . SVG Version: 6.00 Build 0)  -->
<!DOCTYPE svg PUBLIC "-//W3C//DTD SVG 1.1//EN" "http://www.w3.org/Graphics/SVG/1.1/DTD/svg11.dtd">
<svg version="1.1" id="Layer_1" xmlns="http://www.w3.org/2000/svg" xmlns:xlink="http://www.w3.org/1999/xlink" x="0px" y="0px"
	 width="60px" height="60px" viewBox="0 0 60 60" enable-background="new 0 0 60 60" xml:space="preserve">
<g>
	<path  d="M30,12.805c-0.809,0-1.464,0.655-1.464,1.464v4.59c0,0.809,0.655,1.464,1.464,1.464
		s1.464-0.655,1.464-1.464v-4.59C31.464,13.46,30.809,12.805,30,12.805z"/>
	<path  d="M30,48.839c-0.809,0-1.464,0.655-1.464,1.464v4.59c0,0.809,0.655,1.463,1.464,1.463
		s1.464-0.654,1.464-1.463v-4.59C31.464,49.494,30.809,48.839,30,48.839z"/>
	<path  d="M50.83,32.64h-4.589c-0.809,0-1.464,0.655-1.464,1.464s0.655,1.464,1.464,1.464h4.589
		c0.809,0,1.465-0.655,1.465-1.464S51.639,32.64,50.83,32.64z"/>
	<path  d="M16.26,34.104c0-0.809-0.654-1.464-1.463-1.464h-4.59c-0.809,0-1.463,0.655-1.463,1.464
		s0.654,1.464,1.463,1.464h4.59C15.605,35.567,16.26,34.912,16.26,34.104z"/>
	<path  d="M41.8,24.006l3.245-3.245c0.572-0.571,0.572-1.498,0-2.069c-0.57-0.572-1.498-0.572-2.069,0l-3.245,3.245
		c-0.572,0.571-0.572,1.498,0,2.069c0.285,0.286,0.66,0.429,1.035,0.429C41.14,24.435,41.514,24.292,41.8,24.006z"/>
	<path  d="M17.496,44.171l-3.246,3.245c-0.571,0.571-0.571,1.498,0,2.07c0.286,0.285,0.661,0.429,1.035,0.429
		c0.375,0,0.749-0.144,1.035-0.429l3.246-3.244c0.571-0.572,0.571-1.499,0-2.07C18.994,43.6,18.068,43.6,17.496,44.171z"/>
	<path  d="M42.504,44.201c-0.571-0.572-1.499-0.572-2.069,0c-0.572,0.571-0.572,1.498,0,2.069l3.245,3.245
		c0.286,0.286,0.66,0.429,1.035,0.429c0.374,0,0.749-0.143,1.035-0.429c0.571-0.572,0.571-1.498,0-2.07L42.504,44.201z"/>
	<path  d="M17.024,18.721c-0.571-0.571-1.498-0.571-2.069,0c-0.572,0.571-0.572,1.498,0,2.07l3.245,3.245
		c0.285,0.286,0.66,0.429,1.034,0.429c0.375,0,0.75-0.143,1.035-0.429c0.572-0.571,0.572-1.498,0-2.069L17.024,18.721z"/>
	<path  d="M48.732,16.251l1.483-1.484l0.206,0.206c0.286,0.286,0.66,0.429,1.035,0.429s0.749-0.143,1.035-0.429
		c0.572-0.571,0.572-1.498,0-2.069l-2.283-2.283c-0.571-0.571-1.498-0.571-2.069,0s-0.571,1.499,0,2.07l0.007,0.007l-1.549,1.548
		c-4.13-3.458-9.349-5.651-15.061-5.988V2.928h4.5c0.809,0,1.463-0.655,1.463-1.464S36.846,0,36.037,0H24.111
		c-0.809,0-1.465,0.655-1.465,1.464s0.656,1.464,1.465,1.464h4.498v5.317C14.975,8.971,4.104,20.291,4.104,34.104
		C4.104,48.383,15.721,60,30,60s25.896-11.617,25.896-25.896C55.896,27.188,53.166,20.9,48.732,16.251z M30,57.072
		c-12.665,0-22.969-10.304-22.969-22.969S17.335,11.135,30,11.135s22.969,10.304,22.969,22.969S42.665,57.072,30,57.072z"/>
</g>
</svg>
