<?xml version="1.0" encoding="utf-8"?>
<!-- Generator: Adobe Illustrator 16.0.3, SVG Export Plug-In . SVG Version: 6.00 Build 0)  -->
<!DOCTYPE svg PUBLIC "-//W3C//DTD SVG 1.1//EN" "http://www.w3.org/Graphics/SVG/1.1/DTD/svg11.dtd">
<svg version="1.1" id="Layer_1" xmlns="http://www.w3.org/2000/svg" xmlns:xlink="http://www.w3.org/1999/xlink" x="0px" y="0px"
	 width="60px" height="60px" viewBox="0 0 60 60" enable-background="new 0 0 60 60" xml:space="preserve">
<g>
	<path  d="M46.971,16.149l1.217-1.216l0.207,0.208c0.29,0.289,0.668,0.434,1.047,0.434s0.758-0.145,1.047-0.434
		c0.578-0.577,0.578-1.516,0-2.093L48.18,10.74c-0.578-0.578-1.515-0.578-2.093,0c-0.579,0.577-0.579,1.516,0,2.093l0.007,0.007
		l-1.245,1.245c-4.256-3.715-9.718-6.081-15.715-6.417V2.961h4.551c0.817,0,1.479-0.663,1.479-1.48c0-0.818-0.662-1.48-1.479-1.48
		H21.623c-0.817,0-1.479,0.662-1.479,1.48c0,0.817,0.662,1.48,1.479,1.48h4.55v6.13c0,0.003,0.001,0.006,0.001,0.009
		c0,0.002,0,0.003,0,0.005V58.52c0,0.818,0.662,1.48,1.48,1.48c14.439,0,26.188-11.748,26.188-26.188
		C53.842,27.012,51.235,20.81,46.971,16.149z M29.134,56.993V10.631c12.121,0.766,21.748,10.87,21.748,23.181
		S41.255,56.228,29.134,56.993z"/>
	<path  d="M48.72,32.331h-4.642c-0.817,0-1.479,0.663-1.479,1.48s0.662,1.48,1.479,1.48h4.642
		c0.817,0,1.479-0.663,1.479-1.48S49.537,32.331,48.72,32.331z"/>
	<path  d="M13.76,33.812c0-0.817-0.662-1.48-1.48-1.48H7.639c-0.818,0-1.48,0.663-1.48,1.48s0.662,1.48,1.48,1.48
		h4.641C13.098,35.292,13.76,34.629,13.76,33.812z"/>
	<path  d="M39.588,23.6l3.281-3.281c0.578-0.577,0.578-1.515,0-2.093c-0.577-0.578-1.515-0.578-2.093,0l-3.282,3.281
		c-0.578,0.578-0.578,1.515,0,2.093c0.289,0.289,0.668,0.435,1.047,0.435S39.298,23.889,39.588,23.6z"/>
	<path  d="M15.009,43.993l-3.281,3.281c-0.578,0.577-0.578,1.515,0,2.093c0.288,0.289,0.667,0.434,1.046,0.434
		s0.758-0.145,1.047-0.434l3.282-3.281c0.578-0.577,0.578-1.515,0-2.093C16.525,43.415,15.588,43.415,15.009,43.993z"/>
	<path  d="M40.3,44.022c-0.578-0.578-1.515-0.578-2.094,0c-0.578,0.578-0.578,1.516,0,2.094l3.282,3.281
		c0.289,0.289,0.667,0.434,1.046,0.434s0.758-0.145,1.047-0.434c0.578-0.578,0.578-1.516,0-2.093L40.3,44.022z"/>
	<path  d="M14.532,18.256c-0.577-0.579-1.515-0.579-2.093,0c-0.578,0.577-0.578,1.515,0,2.093l3.281,3.282
		c0.289,0.289,0.668,0.434,1.047,0.434s0.758-0.145,1.047-0.434c0.578-0.578,0.578-1.516,0-2.094L14.532,18.256z"/>
</g>
</svg>
