<?xml version="1.0" encoding="utf-8"?>
<!-- Generator: Adobe Illustrator 16.0.3, SVG Export Plug-In . SVG Version: 6.00 Build 0)  -->
<!DOCTYPE svg PUBLIC "-//W3C//DTD SVG 1.1//EN" "http://www.w3.org/Graphics/SVG/1.1/DTD/svg11.dtd">
<svg version="1.1" id="Layer_1" xmlns="http://www.w3.org/2000/svg" xmlns:xlink="http://www.w3.org/1999/xlink" x="0px" y="0px"
	 width="60px" height="60px" viewBox="0 0 60 60" enable-background="new 0 0 60 60" xml:space="preserve">
<g>
	<path  d="M27.108,0c-1.008,0-1.824,0.816-1.824,1.824v30.446c0,1.007,0.816,1.823,1.824,1.823h30.447
		c1.007,0,1.824-0.816,1.824-1.823C59.38,14.476,44.902,0,27.108,0z M28.933,30.446V3.706c14.333,0.905,25.836,12.407,26.741,26.74
		H28.933z"/>
	<path  d="M27.108,50.633c-1.008,0-1.824,0.816-1.824,1.824v5.719c0,1.008,0.816,1.824,1.824,1.824
		s1.824-0.816,1.824-1.824v-5.719C28.933,51.449,28.116,50.633,27.108,50.633z"/>
	<path  d="M9.987,32.271c0-1.008-0.816-1.824-1.824-1.824H2.444c-1.008,0-1.824,0.816-1.824,1.824
		c0,1.007,0.816,1.823,1.824,1.823h5.719C9.171,34.094,9.987,33.277,9.987,32.271z"/>
	<path  d="M43.278,13.064l-4.044,4.043c-0.713,0.712-0.713,1.867,0,2.579c0.355,0.356,0.822,0.535,1.289,0.535
		s0.934-0.179,1.29-0.535l4.044-4.043c0.713-0.712,0.713-1.867,0-2.579C45.146,12.352,43.991,12.352,43.278,13.064z"/>
	<path  d="M11.526,44.816l-4.043,4.043c-0.713,0.712-0.713,1.868,0,2.58c0.356,0.356,0.823,0.534,1.29,0.534
		c0.466,0,0.933-0.178,1.289-0.534l4.044-4.044c0.712-0.712,0.712-1.867,0-2.579C13.394,44.104,12.239,44.104,11.526,44.816z"/>
	<path  d="M42.691,44.853c-0.713-0.712-1.868-0.712-2.58,0c-0.712,0.713-0.712,1.868,0,2.58l4.045,4.043
		c0.355,0.356,0.822,0.535,1.289,0.535s0.935-0.179,1.29-0.535c0.712-0.712,0.712-1.867,0-2.579L42.691,44.853z"/>
	<path  d="M10.939,13.101c-0.713-0.712-1.867-0.712-2.579,0c-0.713,0.712-0.713,1.867,0,2.58l4.044,4.044
		c0.356,0.356,0.823,0.534,1.29,0.534c0.466,0,0.933-0.178,1.289-0.534c0.713-0.712,0.713-1.868,0-2.579L10.939,13.101z"/>
</g>
</svg>
