<?xml version="1.0" encoding="utf-8"?>
<!-- Generator: Adobe Illustrator 16.0.3, SVG Export Plug-In . SVG Version: 6.00 Build 0)  -->
<!DOCTYPE svg PUBLIC "-//W3C//DTD SVG 1.1//EN" "http://www.w3.org/Graphics/SVG/1.1/DTD/svg11.dtd">
<svg version="1.1" id="Layer_1" xmlns="http://www.w3.org/2000/svg" xmlns:xlink="http://www.w3.org/1999/xlink" x="0px" y="0px"
	 width="60px" height="60px" viewBox="0 0 60 60" enable-background="new 0 0 60 60" xml:space="preserve">
<g>
	<path  d="M29.871,7.77c-5.903,0-11.453,2.299-15.627,6.474c-4.175,4.174-6.475,9.725-6.476,15.628
		c0,5.903,2.299,11.453,6.474,15.628c4.174,4.175,9.725,6.475,15.628,6.475s11.453-2.299,15.628-6.474
		c4.175-4.174,6.474-9.725,6.474-15.629c0-5.903-2.299-11.454-6.474-15.629C41.324,10.068,35.774,7.77,29.871,7.77z M42.936,42.938
		c-3.49,3.489-8.13,5.411-13.065,5.411s-9.576-1.922-13.066-5.412c-3.489-3.49-5.411-8.131-5.411-13.066s1.923-9.575,5.414-13.065
		c3.489-3.49,8.129-5.412,13.064-5.412s9.575,1.922,13.064,5.411c3.49,3.49,5.412,8.131,5.412,13.066
		C48.348,34.808,46.426,39.448,42.936,42.938z"/>
	<path  d="M39.604,29.095l-8.697-0.001V14.558c0-0.501-0.406-0.906-0.906-0.906s-0.906,0.405-0.906,0.906v15.441
		c0,0.501,0.405,0.906,0.906,0.906l9.604,0.001c0.5,0,0.905-0.405,0.905-0.905C40.509,29.5,40.104,29.095,39.604,29.095z"/>
	<path  d="M55.769,0H4.23C1.898,0,0.001,1.898,0.001,4.23v51.538C0.001,58.102,1.898,60,4.23,60h51.538
		c2.333,0,4.23-1.898,4.23-4.231V4.23C59.999,1.898,58.102,0,55.769,0z M56.376,55.769c0,0.335-0.272,0.607-0.607,0.607H4.23
		c-0.334,0-0.606-0.272-0.606-0.607V4.23c0-0.334,0.272-0.607,0.606-0.607h51.538c0.335,0,0.607,0.272,0.607,0.607V55.769z"/>
</g>
</svg>
