<?xml version="1.0" encoding="utf-8"?>
<!-- Generator: Adobe Illustrator 16.0.3, SVG Export Plug-In . SVG Version: 6.00 Build 0)  -->
<!DOCTYPE svg PUBLIC "-//W3C//DTD SVG 1.1//EN" "http://www.w3.org/Graphics/SVG/1.1/DTD/svg11.dtd">
<svg version="1.1" id="Layer_1" xmlns="http://www.w3.org/2000/svg" xmlns:xlink="http://www.w3.org/1999/xlink" x="0px" y="0px"
	 width="60px" height="60px" viewBox="0 0 60 60" enable-background="new 0 0 60 60" xml:space="preserve">
<g>
	<path  d="M32.688,0C16.146,0,2.688,13.458,2.688,29.999C2.688,46.542,16.146,60,32.688,60
		c0.937,0,1.695-0.759,1.695-1.695V1.695C34.384,0.759,33.625,0,32.688,0z M30.992,56.555C17.107,55.678,6.079,44.103,6.079,29.999
		c0-14.102,11.028-25.677,24.913-26.554V56.555z"/>
	<path  d="M15.568,29.999c0-0.937-0.759-1.695-1.695-1.695H8.557c-0.938,0-1.696,0.759-1.696,1.695
		c0,0.938,0.759,1.696,1.696,1.696h5.316C14.81,31.695,15.568,30.937,15.568,29.999z"/>
	<path  d="M55.617,28.304h-5.316c-0.937,0-1.695,0.759-1.695,1.695c0,0.938,0.759,1.696,1.695,1.696h5.316
		c0.937,0,1.695-0.759,1.695-1.696C57.312,29.062,56.554,28.304,55.617,28.304z"/>
	<path  d="M19.018,18.302c0.331,0.331,0.766,0.497,1.199,0.497s0.868-0.166,1.199-0.497
		c0.662-0.662,0.662-1.736,0-2.397l-3.76-3.76c-0.663-0.662-1.737-0.662-2.398,0c-0.662,0.663-0.662,1.736,0,2.398L19.018,18.302z"
		/>
	<path  d="M47.174,41.663c-0.663-0.662-1.736-0.662-2.398,0s-0.662,1.736,0,2.397l3.76,3.759
		c0.331,0.332,0.765,0.497,1.198,0.497c0.435,0,0.868-0.165,1.199-0.497c0.662-0.661,0.662-1.735,0-2.397L47.174,41.663z"/>
	<path  d="M18.202,41.697l-3.76,3.759c-0.663,0.662-0.663,1.735,0,2.398c0.33,0.331,0.765,0.496,1.198,0.496
		c0.435,0,0.868-0.165,1.199-0.496l3.76-3.76c0.662-0.661,0.662-1.735,0-2.397C19.938,41.035,18.864,41.035,18.202,41.697z"/>
	<path  d="M46.358,18.337l3.759-3.76c0.662-0.662,0.662-1.736,0-2.398s-1.736-0.662-2.397,0l-3.76,3.76
		c-0.662,0.662-0.662,1.736,0,2.398c0.331,0.331,0.766,0.496,1.199,0.496S46.027,18.668,46.358,18.337z"/>
</g>
</svg>
