<?xml version="1.0" encoding="utf-8"?>
<!-- Generator: Adobe Illustrator 16.0.3, SVG Export Plug-In . SVG Version: 6.00 Build 0)  -->
<!DOCTYPE svg PUBLIC "-//W3C//DTD SVG 1.1//EN" "http://www.w3.org/Graphics/SVG/1.1/DTD/svg11.dtd">
<svg version="1.1" id="Layer_1" xmlns="http://www.w3.org/2000/svg" xmlns:xlink="http://www.w3.org/1999/xlink" x="0px" y="0px"
	 width="60px" height="60px" viewBox="0 0 60 60" enable-background="new 0 0 60 60" xml:space="preserve">
<path  d="M55.262,50.512c-1.159-0.597-2.468-1.518-2.68-1.869c-1.771-3.979-2.703-17.697-2.915-22.697
	C49.654,16.641,44.66,9.086,36.826,6.321C36.557,2.79,33.598,0,29.999,0s-6.558,2.79-6.826,6.321
	c-7.845,2.768-12.841,10.337-12.841,19.608c-0.151,4.876-0.905,18.399-2.536,22.34c-0.245,0.431-1.722,1.509-3.097,2.264
	c-0.673,0.369-1.011,1.147-0.82,1.891s0.859,1.263,1.627,1.263h16.68C22.96,57.289,26.167,60,29.999,60s7.04-2.711,7.814-6.314
	h16.679c0.775,0,1.451-0.53,1.634-1.284C56.308,51.647,55.951,50.866,55.262,50.512z M29.999,56.64c-1.962,0-3.64-1.228-4.314-2.954
	h8.629C33.639,55.412,31.961,56.64,29.999,56.64z M10.447,50.325c0.186-0.243,0.336-0.491,0.438-0.738
	c2.216-5.349,2.782-22.812,2.807-23.605c0-8.26,4.569-14.862,11.642-16.82c0.809-0.224,1.328-1.011,1.217-1.843
	c-0.025-0.19-0.038-0.34-0.038-0.472c0-1.922,1.564-3.486,3.486-3.486c1.923,0,3.486,1.564,3.486,3.486
	c0,0.132-0.012,0.282-0.037,0.472c-0.112,0.832,0.407,1.62,1.217,1.843c7.072,1.958,11.642,8.56,11.642,16.82
	c0,0.023,0,0.047,0.001,0.07c0.032,0.756,0.806,18.571,3.205,23.959c0.048,0.105,0.103,0.211,0.165,0.314H10.447z"/>
</svg>
