<?xml version="1.0" encoding="utf-8"?>
<!-- Generator: Adobe Illustrator 16.0.3, SVG Export Plug-In . SVG Version: 6.00 Build 0)  -->
<!DOCTYPE svg PUBLIC "-//W3C//DTD SVG 1.1//EN" "http://www.w3.org/Graphics/SVG/1.1/DTD/svg11.dtd">
<svg version="1.1" id="Layer_1" xmlns="http://www.w3.org/2000/svg" xmlns:xlink="http://www.w3.org/1999/xlink" x="0px" y="0px"
	 width="60px" height="60px" viewBox="0 0 60 60" enable-background="new 0 0 60 60" xml:space="preserve">
<g>
	<path  d="M33.764,0h-7.527c-3.4,0-6.168,3.176-6.168,7.081v34.744c0,3.904,2.768,7.08,6.168,7.08h1.939v9.271
		C28.176,59.184,28.992,60,30,60s1.824-0.816,1.824-1.824v-9.271h1.939c3.4,0,6.168-3.176,6.168-7.08V7.081
		C39.932,3.176,37.164,0,33.764,0z M36.283,41.825c0,1.86-1.154,3.433-2.52,3.433h-7.527c-1.365,0-2.52-1.572-2.52-3.433V7.081
		c0-1.861,1.154-3.434,2.52-3.434h7.527c1.365,0,2.52,1.572,2.52,3.434V41.825z"/>
	<path  d="M30,19.146c-2.678,0-4.855,2.179-4.855,4.856s2.178,4.856,4.855,4.856s4.855-2.179,4.855-4.856
		S32.678,19.146,30,19.146z M30,27.034c-1.672,0-3.031-1.36-3.031-3.032S28.328,20.97,30,20.97s3.031,1.36,3.031,3.032
		S31.672,27.034,30,27.034z"/>
	<path  d="M30,29.952c-2.678,0-4.855,2.179-4.855,4.856c0,2.677,2.178,4.855,4.855,4.855s4.855-2.179,4.855-4.855
		C34.855,32.131,32.678,29.952,30,29.952z M30,37.84c-1.672,0-3.031-1.36-3.031-3.031c0-1.672,1.359-3.032,3.031-3.032
		s3.031,1.36,3.031,3.032C33.031,36.479,31.672,37.84,30,37.84z"/>
	<path  d="M30,8.357c-2.678,0-4.855,2.179-4.855,4.856S27.322,18.07,30,18.07s4.855-2.179,4.855-4.856
		S32.678,8.357,30,8.357z M30,16.246c-1.672,0-3.031-1.36-3.031-3.032s1.359-3.032,3.031-3.032s3.031,1.36,3.031,3.032
		S31.672,16.246,30,16.246z"/>
</g>
</svg>
