<?xml version="1.0" encoding="utf-8"?>
<!-- Generator: Adobe Illustrator 16.0.3, SVG Export Plug-In . SVG Version: 6.00 Build 0)  -->
<!DOCTYPE svg PUBLIC "-//W3C//DTD SVG 1.1//EN" "http://www.w3.org/Graphics/SVG/1.1/DTD/svg11.dtd">
<svg version="1.1" id="Layer_1" xmlns="http://www.w3.org/2000/svg" xmlns:xlink="http://www.w3.org/1999/xlink" x="0px" y="0px"
	 width="60px" height="60px" viewBox="0 0 60 60" enable-background="new 0 0 60 60" xml:space="preserve">
<g>
	<path  d="M49.955,17.075c-0.011-0.049-0.028-0.094-0.042-0.141c-0.016-0.054-0.028-0.108-0.05-0.16
		c-0.023-0.057-0.056-0.107-0.085-0.161c-0.021-0.038-0.038-0.079-0.062-0.116c-0.119-0.177-0.271-0.329-0.448-0.447
		c-0.036-0.024-0.075-0.04-0.112-0.061c-0.055-0.031-0.107-0.063-0.165-0.088c-0.052-0.021-0.104-0.032-0.157-0.048
		c-0.047-0.015-0.094-0.033-0.144-0.043c-0.104-0.021-0.209-0.031-0.315-0.031h-15.76c-0.891,0-1.612,0.721-1.612,1.611
		s0.722,1.612,1.612,1.612h11.869L27.519,35.966c-0.629,0.63-0.629,1.65,0,2.279c0.315,0.315,0.728,0.473,1.141,0.473
		c0.412,0,0.824-0.157,1.14-0.473l16.964-16.963l-0.001,11.869c0,0.891,0.722,1.612,1.612,1.612c0.89,0,1.611-0.722,1.611-1.612
		l0.001-15.761C49.986,17.285,49.976,17.18,49.955,17.075z"/>
	<path  d="M26.462,42.07H14.593l16.965-16.964c0.629-0.629,0.629-1.65,0-2.279c-0.63-0.63-1.65-0.63-2.279,0
		L12.314,39.791v-11.87c0-0.89-0.722-1.612-1.611-1.612c-0.891,0-1.612,0.722-1.612,1.612L9.09,43.682
		c0,0.106,0.011,0.212,0.032,0.315c0.009,0.05,0.027,0.095,0.042,0.142c0.016,0.054,0.027,0.108,0.049,0.159
		c0.023,0.057,0.056,0.109,0.085,0.162c0.021,0.038,0.038,0.078,0.062,0.116c0.119,0.177,0.271,0.329,0.448,0.447
		c0.036,0.023,0.074,0.04,0.111,0.061c0.055,0.03,0.107,0.063,0.166,0.087c0.051,0.021,0.104,0.033,0.157,0.049
		c0.047,0.014,0.094,0.033,0.144,0.042c0.104,0.021,0.21,0.032,0.315,0.032h15.76c0.891,0,1.612-0.722,1.612-1.612
		C28.074,42.792,27.353,42.07,26.462,42.07z"/>
	<path  d="M30,0C13.458,0,0,13.458,0,30s13.458,30,30,30s30-13.458,30-30S46.542,0,30,0z M30,56.776
		C15.235,56.776,3.224,44.764,3.224,30S15.235,3.224,30,3.224S56.776,15.236,56.776,30S44.765,56.776,30,56.776z"/>
</g>
</svg>
