<?xml version="1.0" encoding="utf-8"?>
<!-- Generator: Adobe Illustrator 16.0.3, SVG Export Plug-In . SVG Version: 6.00 Build 0)  -->
<!DOCTYPE svg PUBLIC "-//W3C//DTD SVG 1.1//EN" "http://www.w3.org/Graphics/SVG/1.1/DTD/svg11.dtd">
<svg version="1.1" id="Layer_1" xmlns="http://www.w3.org/2000/svg" xmlns:xlink="http://www.w3.org/1999/xlink" x="0px" y="0px"
	 width="60px" height="60px" viewBox="0 0 60 60" enable-background="new 0 0 60 60" xml:space="preserve">
<g>
	<path  d="M60,10.715L60,10.715c0-0.004-0.001-0.004-0.001-0.006c0-0.154-0.016-0.307-0.046-0.457
		c-0.015-0.074-0.042-0.143-0.063-0.215c-0.022-0.076-0.04-0.152-0.069-0.227c-0.036-0.086-0.084-0.164-0.13-0.244
		c-0.03-0.055-0.053-0.111-0.088-0.162c-0.173-0.26-0.397-0.484-0.657-0.658c-0.053-0.035-0.109-0.059-0.164-0.09
		c-0.08-0.043-0.157-0.092-0.242-0.127c-0.075-0.031-0.153-0.047-0.23-0.07c-0.07-0.021-0.138-0.049-0.211-0.062
		C57.945,8.365,57.79,8.35,57.635,8.35H34.513c-1.307,0-2.365,1.059-2.365,2.365c0,1.305,1.059,2.363,2.365,2.363h17.413
		L27.038,37.965c-0.924,0.924-0.924,2.422-0.001,3.346c0.463,0.461,1.067,0.691,1.673,0.691c0.604,0,1.21-0.23,1.672-0.691
		L55.27,16.424l-0.001,17.412c0,1.307,1.059,2.365,2.365,2.365c1.306,0,2.364-1.059,2.364-2.365L60,10.715L60,10.715z"/>
	<path  d="M25.487,46.922H8.074l24.888-24.889c0.924-0.922,0.924-2.42,0-3.344s-2.421-0.924-3.345,0L4.73,43.576
		l0.001-17.414c0-1.305-1.059-2.363-2.365-2.363c-1.306,0-2.365,1.057-2.365,2.363L0,49.285c0,0.156,0.016,0.311,0.046,0.463
		c0.001,0.006,0,0.01,0.002,0.014c0.013,0.066,0.04,0.127,0.059,0.191c0.023,0.08,0.042,0.16,0.074,0.238
		c0.034,0.08,0.08,0.154,0.122,0.23c0.032,0.059,0.058,0.119,0.095,0.176c0.174,0.258,0.397,0.482,0.656,0.654
		c0.057,0.039,0.117,0.064,0.175,0.096c0.063,0.035,0.123,0.074,0.188,0.102c0.009,0.006,0.018,0.012,0.027,0.016
		c0.005,0.002,0.011,0.002,0.017,0.006c0.077,0.031,0.157,0.049,0.236,0.072c0.068,0.021,0.134,0.047,0.205,0.061
		c0.153,0.031,0.308,0.047,0.463,0.047h23.123c1.306,0,2.365-1.059,2.365-2.365C27.853,47.98,26.793,46.922,25.487,46.922z"/>
</g>
</svg>
