<?xml version="1.0" encoding="utf-8"?>
<!-- Generator: Adobe Illustrator 16.0.3, SVG Export Plug-In . SVG Version: 6.00 Build 0)  -->
<!DOCTYPE svg PUBLIC "-//W3C//DTD SVG 1.1//EN" "http://www.w3.org/Graphics/SVG/1.1/DTD/svg11.dtd">
<svg version="1.1" id="Layer_1" xmlns="http://www.w3.org/2000/svg" xmlns:xlink="http://www.w3.org/1999/xlink" x="0px" y="0px"
	 width="60px" height="60px" viewBox="0 0 60 60" enable-background="new 0 0 60 60" xml:space="preserve">
<g>
	<path  d="M55.712,29.852c-2.766-2.765-6.44-4.287-10.354-4.287h-0.001c-8.072,0-14.639,6.567-14.639,14.64
		c0,8.073,6.566,14.642,14.64,14.642S60,48.277,60,40.203C60,36.293,58.477,32.617,55.712,29.852z M45.358,51.332
		c-6.136,0-11.128-4.992-11.128-11.128c0-6.135,4.992-11.127,11.129-11.127c0,0,0,0,0.001,0c2.972,0,5.766,1.157,7.867,3.259
		c2.103,2.102,3.26,4.896,3.26,7.867C56.487,46.34,51.494,51.332,45.358,51.332z"/>
	<path  d="M49.197,40.422l-2.082,2.081v-8.468c0-0.971-0.785-1.757-1.756-1.757s-1.756,0.786-1.756,1.757v8.468
		l-2.082-2.081c-0.686-0.687-1.797-0.687-2.483,0c-0.687,0.686-0.687,1.797,0,2.483l5.077,5.078
		c0.082,0.083,0.174,0.156,0.271,0.222c0.039,0.025,0.08,0.043,0.121,0.065c0.059,0.033,0.117,0.069,0.18,0.096
		c0.057,0.022,0.114,0.035,0.172,0.053c0.052,0.016,0.102,0.036,0.156,0.046c0.113,0.023,0.229,0.035,0.344,0.035
		s0.23-0.012,0.344-0.035c0.055-0.01,0.104-0.03,0.156-0.046c0.058-0.018,0.115-0.03,0.172-0.053c0.062-0.026,0.12-0.062,0.18-0.095
		c0.04-0.023,0.083-0.04,0.121-0.066c0.098-0.065,0.189-0.139,0.271-0.222l5.077-5.078c0.687-0.686,0.687-1.798,0-2.483
		S49.883,39.736,49.197,40.422z"/>
	<path  d="M27.592,44.135H12.326c-4.859,0-8.813-3.954-8.813-8.813c0-3.121,1.608-5.947,4.302-7.559
		c0.553-0.33,0.88-0.938,0.853-1.581l-0.012-0.199c-0.003-0.045-0.007-0.088-0.007-0.132c0-4.793,3.898-8.692,8.691-8.692
		c0.53,0,1.081,0.054,1.637,0.16c0.85,0.16,1.685-0.315,1.98-1.125c1.637-4.502,5.955-7.526,10.748-7.526
		c6.146,0,11.163,4.809,11.42,10.948c0.037,0.898,0.746,1.623,1.643,1.68c2.944,0.187,5.669,1.485,7.675,3.66
		c0.658,0.713,1.769,0.759,2.481,0.1c0.714-0.657,0.758-1.769,0.101-2.481c-2.275-2.468-5.262-4.073-8.528-4.612
		C45.46,10.668,39.231,5.154,31.705,5.154c-5.785,0-11.044,3.372-13.5,8.523c-0.291-0.021-0.579-0.032-0.865-0.032
		c-6.55,0-11.911,5.187-12.193,11.668C1.906,27.628,0,31.298,0,35.321c0,6.797,5.529,12.326,12.326,12.326h15.266
		c0.97,0,1.756-0.786,1.756-1.757C29.348,44.921,28.562,44.135,27.592,44.135z"/>
</g>
</svg>
