<?xml version="1.0" encoding="utf-8"?>
<!-- Generator: Adobe Illustrator 16.0.3, SVG Export Plug-In . SVG Version: 6.00 Build 0)  -->
<!DOCTYPE svg PUBLIC "-//W3C//DTD SVG 1.1//EN" "http://www.w3.org/Graphics/SVG/1.1/DTD/svg11.dtd">
<svg version="1.1" id="Layer_1" xmlns="http://www.w3.org/2000/svg" xmlns:xlink="http://www.w3.org/1999/xlink" x="0px" y="0px"
	 width="60px" height="60px" viewBox="0 0 60 60" enable-background="new 0 0 60 60" xml:space="preserve">
<g>
	<path  d="M11.007,3.695C9.888,3.497,8.81,4.246,8.611,5.371L0.032,53.909c-0.199,1.124,0.551,2.196,1.675,2.396
		c0.122,0.021,0.243,0.032,0.362,0.032c0.984,0,1.855-0.705,2.033-1.708l8.579-48.538C12.88,4.967,12.13,3.895,11.007,3.695z"/>
	<path  d="M59.968,53.909L51.389,5.371c-0.198-1.125-1.272-1.874-2.396-1.676c-1.123,0.199-1.873,1.271-1.675,2.396
		l8.579,48.538c0.178,1.003,1.049,1.708,2.033,1.708c0.119,0,0.24-0.011,0.362-0.032C59.417,56.105,60.167,55.033,59.968,53.909z"/>
	<path  d="M30.093,43.247c-1.142,0-2.066,0.925-2.066,2.066v8.956c0,1.142,0.925,2.066,2.066,2.066
		s2.066-0.925,2.066-2.066v-8.956C32.159,44.172,31.234,43.247,30.093,43.247z"/>
	<path  d="M30.093,25.335c-1.142,0-2.066,0.925-2.066,2.067v8.955c0,1.142,0.925,2.067,2.066,2.067
		s2.066-0.926,2.066-2.067v-8.955C32.159,26.26,31.234,25.335,30.093,25.335z"/>
	<path  d="M30.093,7.424c-1.142,0-2.066,0.925-2.066,2.066v8.956c0,1.142,0.925,2.066,2.066,2.066
		s2.066-0.925,2.066-2.066V9.49C32.159,8.349,31.234,7.424,30.093,7.424z"/>
</g>
</svg>
