<?xml version="1.0" encoding="utf-8"?>
<!-- Generator: Adobe Illustrator 16.0.3, SVG Export Plug-In . SVG Version: 6.00 Build 0)  -->
<!DOCTYPE svg PUBLIC "-//W3C//DTD SVG 1.1//EN" "http://www.w3.org/Graphics/SVG/1.1/DTD/svg11.dtd">
<svg version="1.1" id="Layer_1" xmlns="http://www.w3.org/2000/svg" xmlns:xlink="http://www.w3.org/1999/xlink" x="0px" y="0px"
	 width="60px" height="60px" viewBox="0 0 60 60" enable-background="new 0 0 60 60" xml:space="preserve">
<g>
	<path  d="M28.645,12.09l-10.67,10.67c-0.603,0.602-0.603,1.58,0,2.182c0.302,0.302,0.696,0.452,1.091,0.452
		c0.396,0,0.79-0.15,1.092-0.452l8.035-8.035v26.86l-8.035-8.037c-0.603-0.603-1.58-0.603-2.183,0s-0.603,1.58,0,2.183l10.668,10.67
		c0.072,0.072,0.152,0.138,0.237,0.194c0.036,0.024,0.076,0.041,0.113,0.062c0.051,0.027,0.099,0.058,0.152,0.08
		c0.05,0.021,0.102,0.032,0.153,0.048c0.045,0.013,0.088,0.03,0.135,0.039c0.1,0.021,0.201,0.031,0.302,0.031
		c0.102,0,0.203-0.011,0.303-0.031c0.047-0.009,0.091-0.026,0.137-0.04c0.051-0.016,0.102-0.026,0.15-0.047
		c0.056-0.022,0.106-0.054,0.158-0.083c0.036-0.021,0.073-0.035,0.107-0.059c0.086-0.057,0.166-0.122,0.238-0.194l10.668-10.668
		c0.603-0.603,0.603-1.58,0-2.183c-0.604-0.603-1.58-0.603-2.183,0l-8.035,8.035v-26.86l8.036,8.036
		c0.301,0.302,0.696,0.452,1.091,0.452s0.79-0.15,1.091-0.452c0.604-0.602,0.604-1.579,0-2.182L30.827,12.09
		C30.224,11.486,29.247,11.486,28.645,12.09z"/>
	<path  d="M59.548,28.908L31.091,0.452c-0.603-0.603-1.579-0.603-2.182,0L0.452,28.908
		c-0.603,0.603-0.603,1.58,0,2.183l28.457,28.457C29.21,59.85,29.605,60,30,60s0.79-0.15,1.091-0.452l28.457-28.457
		C60.15,30.488,60.15,29.511,59.548,28.908z M30,56.274L3.726,30L30,3.726L56.274,30L30,56.274z"/>
</g>
</svg>
