<?xml version="1.0" encoding="utf-8"?>
<!-- Generator: Adobe Illustrator 16.0.3, SVG Export Plug-In . SVG Version: 6.00 Build 0)  -->
<!DOCTYPE svg PUBLIC "-//W3C//DTD SVG 1.1//EN" "http://www.w3.org/Graphics/SVG/1.1/DTD/svg11.dtd">
<svg version="1.1" id="Layer_1" xmlns="http://www.w3.org/2000/svg" xmlns:xlink="http://www.w3.org/1999/xlink" x="0px" y="0px"
	 width="60px" height="60px" viewBox="0 0 60 60" enable-background="new 0 0 60 60" xml:space="preserve">
<g>
	<path  d="M35.226,40.366l-8.393,8.392V24.769c0-0.891-0.721-1.612-1.611-1.612s-1.612,0.722-1.612,1.612v23.988
		l-8.392-8.392c-0.629-0.63-1.649-0.63-2.279,0c-0.63,0.629-0.63,1.649,0,2.279l11.141,11.143c0.076,0.075,0.159,0.144,0.248,0.203
		c0.038,0.025,0.08,0.043,0.119,0.064c0.053,0.028,0.104,0.06,0.158,0.083c0.053,0.021,0.107,0.034,0.16,0.05
		c0.047,0.014,0.093,0.032,0.142,0.042c0.104,0.021,0.209,0.031,0.315,0.031c0.105,0,0.211-0.011,0.314-0.031
		c0.051-0.01,0.097-0.028,0.145-0.043c0.053-0.016,0.105-0.027,0.156-0.048c0.059-0.024,0.111-0.057,0.166-0.087
		c0.037-0.021,0.076-0.037,0.111-0.062c0.09-0.06,0.174-0.127,0.249-0.203l11.142-11.142c0.63-0.629,0.63-1.649,0-2.279
		C36.876,39.736,35.855,39.736,35.226,40.366z"/>
	<path  d="M35.461,6.284c-0.075-0.076-0.159-0.144-0.249-0.204c-0.035-0.023-0.074-0.04-0.111-0.061
		c-0.055-0.03-0.107-0.063-0.166-0.087c-0.051-0.021-0.104-0.033-0.156-0.049c-0.048-0.015-0.094-0.033-0.145-0.042
		c-0.208-0.042-0.422-0.042-0.63,0c-0.05,0.009-0.097,0.028-0.145,0.042c-0.053,0.016-0.105,0.027-0.156,0.049
		c-0.059,0.023-0.111,0.057-0.166,0.088c-0.036,0.02-0.075,0.036-0.111,0.06c-0.089,0.061-0.173,0.128-0.249,0.204L22.034,17.426
		c-0.629,0.629-0.629,1.65,0,2.279c0.315,0.314,0.728,0.472,1.141,0.472c0.412,0,0.824-0.157,1.139-0.472l8.394-8.392v23.989
		c0,0.891,0.722,1.612,1.612,1.612s1.611-0.722,1.611-1.612V11.313l8.393,8.393c0.314,0.314,0.729,0.472,1.141,0.472
		s0.824-0.157,1.139-0.472c0.631-0.629,0.631-1.649,0-2.279L35.461,6.284z"/>
	<path  d="M30.001,0.001C13.459,0.001,0,13.459,0,30s13.459,29.999,30.001,29.999C46.542,59.999,60,46.541,60,30
		S46.542,0.001,30.001,0.001z M30.001,56.775C15.235,56.775,3.225,44.764,3.225,30S15.235,3.225,30.001,3.225
		c14.764,0,26.774,12.012,26.774,26.775S44.765,56.775,30.001,56.775z"/>
</g>
</svg>
