<?xml version="1.0" encoding="utf-8"?>
<!-- Generator: Adobe Illustrator 16.0.3, SVG Export Plug-In . SVG Version: 6.00 Build 0)  -->
<!DOCTYPE svg PUBLIC "-//W3C//DTD SVG 1.1//EN" "http://www.w3.org/Graphics/SVG/1.1/DTD/svg11.dtd">
<svg version="1.1" id="Layer_1" xmlns="http://www.w3.org/2000/svg" xmlns:xlink="http://www.w3.org/1999/xlink" x="0px" y="0px"
	 width="60px" height="60px" viewBox="0 0 60 60" enable-background="new 0 0 60 60" xml:space="preserve">
<g>
	<path  d="M32.615,19.003h11.868L27.52,35.966c-0.63,0.63-0.63,1.65,0,2.279c0.314,0.315,0.728,0.473,1.14,0.473
		c0.413,0,0.825-0.157,1.14-0.473l16.964-16.963l-0.001,11.869c0,0.89,0.722,1.612,1.612,1.612c0.89,0,1.611-0.722,1.611-1.612
		l0.001-15.761c0-0.105-0.011-0.211-0.031-0.315c-0.01-0.049-0.028-0.094-0.042-0.141c-0.016-0.054-0.028-0.108-0.05-0.16
		c-0.023-0.057-0.055-0.107-0.084-0.161c-0.021-0.038-0.039-0.079-0.063-0.116c-0.118-0.177-0.271-0.329-0.448-0.447
		c-0.035-0.024-0.074-0.04-0.111-0.061c-0.055-0.031-0.107-0.063-0.166-0.088c-0.051-0.021-0.104-0.032-0.156-0.048
		c-0.048-0.015-0.094-0.033-0.144-0.043c-0.104-0.021-0.21-0.031-0.315-0.031h-15.76c-0.891,0-1.612,0.721-1.612,1.611
		S31.725,19.003,32.615,19.003z"/>
	<path  d="M9.164,44.139c0.016,0.054,0.028,0.108,0.05,0.159c0.022,0.057,0.055,0.109,0.085,0.162
		c0.021,0.038,0.037,0.078,0.062,0.116c0.118,0.177,0.271,0.329,0.448,0.447c0.035,0.023,0.074,0.04,0.11,0.061
		c0.055,0.03,0.108,0.063,0.166,0.087c0.051,0.021,0.104,0.033,0.157,0.049c0.048,0.014,0.094,0.033,0.144,0.042
		c0.104,0.021,0.21,0.032,0.315,0.032h15.761c0.89,0,1.611-0.722,1.611-1.612c0-0.89-0.722-1.611-1.611-1.611H14.594l16.964-16.964
		c0.63-0.629,0.63-1.65,0-2.279c-0.63-0.63-1.649-0.63-2.279,0L12.314,39.79l0.001-11.869c0-0.89-0.722-1.612-1.612-1.612
		c-0.89,0-1.611,0.722-1.611,1.612L9.09,43.682c0,0.106,0.012,0.212,0.032,0.315C9.132,44.047,9.15,44.092,9.164,44.139z"/>
	<path  d="M58.388,0H1.612C0.722,0,0,0.722,0,1.612v56.775C0,59.278,0.722,60,1.612,60h56.775
		C59.278,60,60,59.278,60,58.388V1.612C60,0.722,59.278,0,58.388,0z M56.776,56.776H3.224V3.224h53.553V56.776z"/>
</g>
</svg>
