<?xml version="1.0" encoding="utf-8"?>
<!-- Generator: Adobe Illustrator 16.0.3, SVG Export Plug-In . SVG Version: 6.00 Build 0)  -->
<!DOCTYPE svg PUBLIC "-//W3C//DTD SVG 1.1//EN" "http://www.w3.org/Graphics/SVG/1.1/DTD/svg11.dtd">
<svg version="1.1" id="Layer_1" xmlns="http://www.w3.org/2000/svg" xmlns:xlink="http://www.w3.org/1999/xlink" x="0px" y="0px"
	 width="60px" height="60px" viewBox="0 0 60 60" enable-background="new 0 0 60 60" xml:space="preserve">
<g>
	<path  d="M16.821,36.261h25.821c1.223,0,2.217-0.994,2.217-2.216V12.562c0-3.521-3.443-7.488-4.135-8.251
		c-0.401-0.439-0.977-0.687-1.562-0.711V3.491c0-0.349-0.137-0.677-0.391-0.926C38.501,2.303,35.945,0,29.731,0
		c-6.213,0-8.769,2.303-9.045,2.569c-0.249,0.245-0.386,0.572-0.386,0.922v0.111c-0.568,0.042-1.121,0.294-1.505,0.726
		c-0.7,0.783-4.191,4.866-4.191,8.306v21.411C14.604,35.267,15.599,36.261,16.821,36.261z M29.731,1.576
		c5.075,0,7.401,1.672,7.855,2.044v0.563C37.144,4.596,36.87,5.18,36.87,5.805v13.624H22.665V5.805c0-0.658-0.301-1.271-0.788-1.687
		V3.62C22.344,3.239,24.67,1.576,29.731,1.576z M17.757,12.634c0-1.104,0.82-2.691,1.757-4.083v12.454
		c0,0.87,0.705,1.576,1.575,1.576h17.356c0.871,0,1.576-0.706,1.576-1.576V8.537c0.865,1.284,1.686,2.834,1.686,4.025v20.547h-23.95
		V12.634z"/>
	<path  d="M22.923,24.379c-1.984,0-3.598,1.614-3.598,3.599c0,1.983,1.613,3.598,3.598,3.598s3.598-1.614,3.598-3.598
		C26.521,25.993,24.907,24.379,22.923,24.379z M22.923,29.999c-1.115,0-2.022-0.907-2.022-2.021c0-1.115,0.907-2.022,2.022-2.022
		s2.022,0.907,2.022,2.022C24.945,29.092,24.038,29.999,22.923,29.999z"/>
	<path  d="M37.066,24.379c-1.984,0-3.598,1.614-3.598,3.598c0,1.984,1.613,3.599,3.598,3.599
		c1.983,0,3.598-1.614,3.598-3.599C40.664,25.993,39.05,24.379,37.066,24.379z M37.066,29.999c-1.115,0-2.021-0.907-2.021-2.022
		c0-1.114,0.906-2.021,2.021-2.021s2.021,0.907,2.021,2.021C39.088,29.092,38.182,29.999,37.066,29.999z"/>
	<path  d="M15.667,41.404h28.667c0.004,0.001,0.008,0.001,0.01,0c0.436,0,0.788-0.353,0.788-0.787
		c0-0.128-0.03-0.248-0.083-0.354l-0.816-2.587c-0.104-0.327-0.408-0.551-0.752-0.551h-26.96c-0.344,0-0.648,0.224-0.752,0.551
		l-0.853,2.704c-0.076,0.239-0.033,0.5,0.115,0.703C15.18,41.285,15.416,41.404,15.667,41.404z M17.098,38.701h25.806l0.355,1.128
		H16.742L17.098,38.701z"/>
	<path  d="M19.889,46.933l-0.832,2.941c-0.066,0.237-0.019,0.493,0.13,0.69c0.149,0.196,0.382,0.312,0.629,0.312
		h20.713c0.247,0,0.479-0.116,0.628-0.312c0.149-0.197,0.197-0.453,0.13-0.69l-0.832-2.941c-0.096-0.339-0.405-0.573-0.758-0.573
		h-19.05C20.295,46.359,19.984,46.594,19.889,46.933z M21.243,47.936H39.1l0.387,1.365H20.857L21.243,47.936z"/>
	<path  d="M18.188,52.946l-0.842,2.976c-0.067,0.237-0.019,0.492,0.13,0.689c0.148,0.196,0.382,0.312,0.628,0.312
		h24.134c0.246,0,0.479-0.116,0.628-0.312c0.149-0.197,0.197-0.452,0.13-0.689l-0.841-2.976c-0.096-0.339-0.405-0.574-0.758-0.574
		h-22.45C18.594,52.372,18.284,52.607,18.188,52.946z M19.543,53.948h21.258l0.396,1.399h-22.05L19.543,53.948z"/>
	<path  d="M45.333,57.911l-4.37-15.452c-0.096-0.339-0.405-0.573-0.758-0.573h-1.774
		c-0.246,0-0.479,0.116-0.628,0.312s-0.197,0.452-0.13,0.689l0.113,0.4H22.557l0.113-0.4c0.067-0.237,0.02-0.493-0.13-0.689
		c-0.148-0.196-0.382-0.312-0.628-0.312h-1.773c-0.353,0-0.662,0.234-0.759,0.573L15.011,57.91c-0.12,0.423-0.068,0.867,0.146,1.25
		c0.214,0.382,0.564,0.659,0.983,0.776c0.116,0.034,0.218,0.045,0.307,0.051c0.076,0.013,0.152,0.015,0.229,0.008h26.99
		c0.03,0.003,0.06,0.005,0.087,0.005c0.025,0,0.056-0.002,0.086-0.005c0.053-0.001,0.105-0.007,0.154-0.018
		c0.061-0.006,0.131-0.018,0.206-0.04c0.422-0.118,0.772-0.396,0.986-0.777C45.4,58.777,45.453,58.333,45.333,57.911z
		 M43.775,58.415c-0.002,0-0.004,0-0.007,0c-0.012,0.001-0.024,0.002-0.036,0.004c-0.003,0-0.006,0-0.009,0H16.619
		c-0.016,0-0.031,0.001-0.047,0.001c-0.008-0.013-0.045-0.08-0.045-0.08l4.207-14.879h0.137l-0.114,0.4
		c-0.067,0.238-0.019,0.493,0.13,0.69c0.148,0.196,0.382,0.312,0.629,0.312h17.312c0.246,0,0.479-0.116,0.628-0.312
		c0.148-0.197,0.197-0.452,0.13-0.69l-0.113-0.4h0.136l4.202,14.93C43.811,58.391,43.79,58.405,43.775,58.415z"/>
</g>
</svg>
