<?xml version="1.0" encoding="utf-8"?>
<!-- Generator: Adobe Illustrator 16.0.3, SVG Export Plug-In . SVG Version: 6.00 Build 0)  -->
<!DOCTYPE svg PUBLIC "-//W3C//DTD SVG 1.1//EN" "http://www.w3.org/Graphics/SVG/1.1/DTD/svg11.dtd">
<svg version="1.1" id="Layer_1" xmlns="http://www.w3.org/2000/svg" xmlns:xlink="http://www.w3.org/1999/xlink" x="0px" y="0px"
	 width="60px" height="60px" viewBox="0 0 60 60" enable-background="new 0 0 60 60" xml:space="preserve">
<g>
	<path  d="M59.848,36.138c0.027-0.065,0.043-0.134,0.062-0.201c0.017-0.058,0.039-0.112,0.051-0.171
		C59.986,35.636,60,35.505,60,35.374l0,0c0-0.002,0-0.003,0-0.005c0-0.129-0.014-0.258-0.039-0.386
		c-0.013-0.062-0.035-0.12-0.054-0.181c-0.02-0.064-0.033-0.129-0.059-0.19c-0.03-0.073-0.071-0.14-0.109-0.207
		c-0.025-0.046-0.045-0.094-0.074-0.137c-0.074-0.111-0.157-0.215-0.252-0.309L45.616,20.162c-0.78-0.779-2.043-0.779-2.823,0
		c-0.779,0.779-0.779,2.043,0,2.823l10.393,10.393H23.479c-1.103,0-1.996,0.894-1.996,1.996s0.894,1.996,1.996,1.996h29.707
		L42.791,47.763c-0.779,0.779-0.779,2.043,0,2.822c0.39,0.39,0.901,0.585,1.412,0.585s1.021-0.195,1.411-0.585l13.799-13.797
		c0.095-0.094,0.178-0.197,0.252-0.308c0.03-0.047,0.052-0.098,0.079-0.146C59.78,36.27,59.819,36.206,59.848,36.138z"/>
	<path  d="M6.815,26.621h29.707c1.103,0,1.996-0.894,1.996-1.996s-0.894-1.996-1.996-1.996H6.816L17.21,12.236
		c0.779-0.779,0.779-2.043,0-2.822s-2.043-0.779-2.823,0L0.588,23.211c-0.094,0.094-0.178,0.197-0.252,0.308
		c-0.031,0.047-0.052,0.098-0.079,0.146c-0.036,0.064-0.075,0.128-0.104,0.196c-0.027,0.065-0.043,0.134-0.062,0.201
		c-0.017,0.058-0.039,0.112-0.051,0.171C0.014,24.363,0,24.494,0,24.625l0,0l0,0c0,0.131,0.014,0.262,0.04,0.391
		c0.012,0.06,0.034,0.114,0.051,0.172c0.02,0.067,0.035,0.136,0.062,0.201c0.028,0.068,0.067,0.132,0.104,0.196
		c0.027,0.049,0.048,0.1,0.079,0.146c0.074,0.11,0.158,0.214,0.252,0.308l13.798,13.797c0.39,0.39,0.9,0.585,1.411,0.585
		s1.021-0.195,1.411-0.585c0.78-0.779,0.78-2.043,0-2.822L6.815,26.621z"/>
</g>
</svg>
