<?xml version="1.0" encoding="utf-8"?>
<!-- Generator: Adobe Illustrator 16.0.3, SVG Export Plug-In . SVG Version: 6.00 Build 0)  -->
<!DOCTYPE svg PUBLIC "-//W3C//DTD SVG 1.1//EN" "http://www.w3.org/Graphics/SVG/1.1/DTD/svg11.dtd">
<svg version="1.1" id="Layer_1" xmlns="http://www.w3.org/2000/svg" xmlns:xlink="http://www.w3.org/1999/xlink" x="0px" y="0px"
	 width="60px" height="60px" viewBox="0 0 60 60" enable-background="new 0 0 60 60" xml:space="preserve">
<path  d="M47.299,21.415c-1.054-7.419-7.39-13.028-15.047-13.028c-5.885,0-11.234,3.431-13.731,8.671
	c-7.071-0.517-12.985,4.956-13.284,11.837C1.939,31.249,0,34.982,0,39.074c0,6.914,5.625,12.539,12.54,12.539h33.129
	c0.156,0,0.308-0.021,0.453-0.06C53.932,50.877,60,44.29,60,36.41C60,28.928,54.534,22.615,47.299,21.415z M45.554,48.013
	c-0.073,0.005-0.146,0.014-0.217,0.027H12.54c-4.944,0-8.966-4.022-8.966-8.966c0-3.175,1.636-6.049,4.375-7.688
	c0.562-0.336,0.896-0.953,0.868-1.607l-0.012-0.205c-0.003-0.044-0.007-0.088-0.007-0.133c0-4.875,3.966-8.843,8.842-8.843
	c0.539,0,1.1,0.055,1.665,0.163c0.86,0.163,1.714-0.321,2.014-1.145c1.665-4.579,6.059-7.656,10.934-7.656
	c6.254,0,11.357,4.892,11.617,11.138c0.038,0.913,0.76,1.651,1.672,1.709c6.104,0.386,10.886,5.482,10.886,11.604
	C56.427,42.524,51.65,47.62,45.554,48.013z"/>
</svg>
