<?xml version="1.0" encoding="utf-8"?>
<!-- Generator: Adobe Illustrator 16.0.3, SVG Export Plug-In . SVG Version: 6.00 Build 0)  -->
<!DOCTYPE svg PUBLIC "-//W3C//DTD SVG 1.1//EN" "http://www.w3.org/Graphics/SVG/1.1/DTD/svg11.dtd">
<svg version="1.1" id="Layer_1" xmlns="http://www.w3.org/2000/svg" xmlns:xlink="http://www.w3.org/1999/xlink" x="0px" y="0px"
	 width="60px" height="60px" viewBox="0 0 60 60" enable-background="new 0 0 60 60" xml:space="preserve">
<g>
	<path  d="M27.406,44.119H12.244c-4.827,0-8.755-3.928-8.755-8.755c0-3.1,1.597-5.906,4.272-7.507
		c0.549-0.329,0.874-0.932,0.847-1.571l-0.011-0.198c-0.003-0.044-0.008-0.087-0.008-0.131c0-4.761,3.873-8.634,8.634-8.634
		c0.526,0,1.073,0.054,1.626,0.159c0.842,0.159,1.674-0.313,1.967-1.118c1.625-4.471,5.916-7.476,10.676-7.476
		c6.106,0,11.089,4.777,11.343,10.875c0.037,0.893,0.742,1.612,1.633,1.669c2.924,0.185,5.631,1.476,7.623,3.636
		c0.653,0.708,1.757,0.753,2.466,0.099c0.708-0.652,0.752-1.757,0.1-2.465c-2.261-2.451-5.227-4.046-8.472-4.582
		c-1.029-7.243-7.216-12.721-14.692-12.721c-5.746,0-10.969,3.35-13.408,8.467c-0.289-0.021-0.576-0.032-0.86-0.032
		c-6.506,0-11.831,5.152-12.111,11.59C1.893,27.724,0,31.369,0,35.364c0,6.752,5.492,12.244,12.244,12.244h15.162
		c0.964,0,1.744-0.781,1.744-1.745S28.37,44.119,27.406,44.119z"/>
	<path  d="M49.812,26.858c-0.614-0.183-1.262,0.172-1.442,0.789c-0.182,0.616,0.172,1.262,0.788,1.442
		c5.002,1.468,8.504,6.134,8.517,11.349c0.014,5.238-3.463,9.923-8.455,11.392c-1.807,0.533-4.268,0.59-6.271,0.147
		c-5.365-1.184-8.979-5.615-8.993-11.026c-0.011-4.237,2.243-8.32,5.709-10.554l-2.421,10.541l2.27,0.519l3.124-13.616
		l-13.808-2.127l-0.356,2.301l8.676,1.336c-3.396,2.771-5.531,7.12-5.52,11.605c0.017,6.527,4.364,11.869,10.818,13.294
		c1.064,0.234,2.219,0.351,3.364,0.351c1.431,0,2.849-0.182,4.063-0.538c5.978-1.76,10.142-7.364,10.125-13.63
		C59.985,34.195,55.796,28.613,49.812,26.858z"/>
</g>
</svg>
