<?xml version="1.0" encoding="utf-8"?>
<!-- Generator: Adobe Illustrator 16.0.3, SVG Export Plug-In . SVG Version: 6.00 Build 0)  -->
<!DOCTYPE svg PUBLIC "-//W3C//DTD SVG 1.1//EN" "http://www.w3.org/Graphics/SVG/1.1/DTD/svg11.dtd">
<svg version="1.1" id="Layer_1" xmlns="http://www.w3.org/2000/svg" xmlns:xlink="http://www.w3.org/1999/xlink" x="0px" y="0px"
	 width="60px" height="60px" viewBox="0 0 60 60" enable-background="new 0 0 60 60" xml:space="preserve">
<path  d="M48.05,24.012c-1.595,0-3.116,0.317-4.509,0.887l-3.386-6.583c-0.159-0.31-0.466-0.507-0.808-0.544
	l0.603-1.812h2.922c0.951,0,1.726-0.774,1.726-1.726s-0.773-1.726-1.76-1.726c-0.001,0-0.002,0-0.002,0l-8.356,0.395
	c-0.813,0-1.477,0.662-1.477,1.477c0,0.802,0.644,1.457,1.441,1.476l1.288,0.103c0.02,0.001,0.041,0.002,0.061,0.002h2.528
	l-0.598,1.797H18.31l1.047-3.609h4.331c0.569,0,1.031-0.461,1.031-1.03c0-0.57-0.462-1.031-1.031-1.031h-4.812
	c-0.161,0-0.319,0.037-0.462,0.109l-0.344,0.172c-0.257,0.129-0.448,0.359-0.528,0.635l-3.262,11.24
	c-0.753-0.15-1.532-0.23-2.328-0.23C5.362,24.012,0,29.373,0,35.963s5.362,11.951,11.952,11.951s11.951-5.361,11.951-11.951
	c0-5.071-3.177-9.412-7.644-11.145l0.663-2.284l14.53,15.014c0.193,0.2,0.461,0.313,0.74,0.313h4.057
	c0.912,5.691,5.855,10.053,11.8,10.053c6.59,0,11.95-5.361,11.95-11.951S54.64,24.012,48.05,24.012z M35.615,14.396l7.257-0.342
	c0.099,0,0.179,0.08,0.179,0.18c0,0.099-0.08,0.18-0.179,0.18h-7.048L35.615,14.396z M20.811,35.963
	c0,4.885-3.975,8.858-8.858,8.858c-4.885,0-8.858-3.974-8.858-8.858c0-4.884,3.974-8.857,8.858-8.857
	c0.498,0,0.983,0.051,1.459,0.131l-2.449,8.439c-0.159,0.547,0.156,1.119,0.702,1.277c0.097,0.028,0.193,0.042,0.289,0.042
	c0.446-0.001,0.858-0.294,0.989-0.744l2.452-8.449C18.574,29.147,20.811,32.299,20.811,35.963z M41.707,25.841
	c-3.322,2.09-5.549,5.766-5.605,9.959h-2.75l5.293-15.913L41.707,25.841z M43.128,28.604l3.7,7.196h-7.629
	C39.254,32.804,40.799,30.166,43.128,28.604z M18.004,19.818h19.033l-5.082,15.282L17.8,20.476L18.004,19.818z M48.05,44.821
	c-4.232,0-7.776-2.985-8.649-6.96h9.117c0.005,0,0.008,0,0.011,0c0.569,0,1.031-0.461,1.031-1.031c0-0.219-0.069-0.422-0.186-0.59
	l-4.407-8.57c0.961-0.358,1.997-0.564,3.083-0.564c4.884,0,8.857,3.974,8.857,8.857C56.907,40.848,52.934,44.821,48.05,44.821z"/>
</svg>
