<?xml version="1.0" encoding="utf-8"?>
<!-- Generator: Adobe Illustrator 16.0.3, SVG Export Plug-In . SVG Version: 6.00 Build 0)  -->
<!DOCTYPE svg PUBLIC "-//W3C//DTD SVG 1.1//EN" "http://www.w3.org/Graphics/SVG/1.1/DTD/svg11.dtd">
<svg version="1.1" id="Layer_1" xmlns="http://www.w3.org/2000/svg" xmlns:xlink="http://www.w3.org/1999/xlink" x="0px" y="0px"
	 width="60px" height="60px" viewBox="0 0 60 60" enable-background="new 0 0 60 60" xml:space="preserve">
<g>
	<path  d="M55.712,29.853c-2.766-2.765-6.441-4.287-10.353-4.287c0,0-0.001,0-0.002,0
		c-8.072,0-14.639,6.567-14.639,14.64c0,8.073,6.566,14.641,14.64,14.641S60,48.277,60,40.204
		C60,36.294,58.478,32.618,55.712,29.853z M45.358,51.333c-6.136,0-11.127-4.992-11.127-11.128c0-6.135,4.991-11.127,11.129-11.127
		h0.001c2.971,0,5.765,1.157,7.867,3.259c2.102,2.102,3.259,4.896,3.259,7.867C56.487,46.341,51.495,51.333,45.358,51.333z"/>
	<path  d="M46.604,32.796c-0.083-0.083-0.174-0.157-0.271-0.223c-0.039-0.025-0.081-0.043-0.122-0.066
		c-0.059-0.032-0.117-0.068-0.18-0.095c-0.056-0.022-0.113-0.035-0.171-0.052c-0.052-0.017-0.103-0.036-0.157-0.047
		c-0.112-0.022-0.229-0.035-0.343-0.035c-0.116,0-0.231,0.013-0.345,0.035c-0.05,0.01-0.097,0.028-0.146,0.043
		c-0.062,0.018-0.123,0.032-0.183,0.057c-0.059,0.024-0.111,0.058-0.166,0.088c-0.045,0.024-0.092,0.044-0.136,0.073
		c-0.098,0.064-0.188,0.139-0.27,0.222l-5.078,5.078c-0.687,0.686-0.687,1.798,0,2.483c0.343,0.343,0.792,0.515,1.242,0.515
		c0.449,0,0.899-0.172,1.241-0.515l2.082-2.081v8.468c0,0.971,0.786,1.757,1.757,1.757c0.97,0,1.756-0.786,1.756-1.757v-8.469
		l2.081,2.081c0.344,0.343,0.793,0.515,1.242,0.515s0.898-0.172,1.242-0.515c0.686-0.686,0.686-1.798,0-2.483L46.604,32.796z"/>
	<path  d="M27.592,44.136H12.327c-4.86,0-8.813-3.954-8.813-8.813c0-3.121,1.607-5.946,4.301-7.559
		c0.556-0.332,0.883-0.942,0.854-1.588l-0.012-0.19c-0.003-0.044-0.008-0.089-0.008-0.134c0-4.793,3.899-8.692,8.692-8.692
		c0.529,0,1.08,0.054,1.636,0.16c0.849,0.16,1.686-0.315,1.98-1.126c1.637-4.501,5.956-7.525,10.748-7.525
		c6.147,0,11.164,4.809,11.419,10.948c0.037,0.898,0.747,1.623,1.645,1.68c2.943,0.187,5.669,1.486,7.675,3.66
		c0.658,0.713,1.769,0.758,2.481,0.1c0.713-0.657,0.758-1.769,0.101-2.481c-2.276-2.468-5.263-4.073-8.529-4.612
		C45.46,10.669,39.231,5.154,31.705,5.154c-5.785,0-11.043,3.373-13.499,8.524c-0.291-0.021-0.579-0.032-0.865-0.032
		c-6.551,0-11.913,5.187-12.194,11.669C1.906,27.629,0,31.299,0,35.322c0,6.796,5.53,12.326,12.327,12.326h15.265
		c0.97,0,1.756-0.786,1.756-1.757C29.348,44.922,28.562,44.136,27.592,44.136z"/>
</g>
</svg>
