<?xml version="1.0" encoding="utf-8"?>
<!-- Generator: Adobe Illustrator 16.0.3, SVG Export Plug-In . SVG Version: 6.00 Build 0)  -->
<!DOCTYPE svg PUBLIC "-//W3C//DTD SVG 1.1//EN" "http://www.w3.org/Graphics/SVG/1.1/DTD/svg11.dtd">
<svg version="1.1" id="Layer_1" xmlns="http://www.w3.org/2000/svg" xmlns:xlink="http://www.w3.org/1999/xlink" x="0px" y="0px"
	 width="60px" height="60px" viewBox="0 0 60 60" enable-background="new 0 0 60 60" xml:space="preserve">
<g>
	<path  d="M30,0C13.458,0,0,13.458,0,30s13.458,30,30,30s30-13.458,30-30S46.542,0,30,0z M30,55
		C16.215,55,5,43.785,5,30S16.215,5,30,5s25,11.215,25,25S43.785,55,30,55z"/>
	<path  d="M30,9.306C18.589,9.306,9.306,18.589,9.306,30S18.589,50.694,30,50.694S50.694,41.411,50.694,30
		S41.411,9.306,30,9.306z M30,47.361c-9.573,0-17.361-7.788-17.361-17.361S20.427,12.639,30,12.639S47.361,20.427,47.361,30
		S39.573,47.361,30,47.361z"/>
	<path  d="M23.918,32.146c-2.171,0-3.938,1.766-3.938,3.937s1.767,3.938,3.938,3.938c2.172,0,3.938-1.767,3.938-3.938
		S26.09,32.146,23.918,32.146z M23.918,37.52c-0.793,0-1.438-0.645-1.438-1.438c0-0.792,0.645-1.437,1.438-1.437
		s1.438,0.645,1.438,1.437C25.355,36.875,24.711,37.52,23.918,37.52z"/>
	<path  d="M36.217,32.279c-2.171,0-3.938,1.767-3.938,3.938c0,2.172,1.767,3.938,3.938,3.938
		c2.172,0,3.938-1.766,3.938-3.938C40.154,34.046,38.389,32.279,36.217,32.279z M36.217,37.654c-0.793,0-1.438-0.645-1.438-1.438
		s0.645-1.438,1.438-1.438s1.438,0.645,1.438,1.438S37.01,37.654,36.217,37.654z"/>
	<path  d="M23.521,27.458c2.172,0,3.938-1.766,3.938-3.937c0-2.17-1.766-3.937-3.938-3.937
		c-2.171,0-3.938,1.767-3.938,3.937C19.584,25.692,21.351,27.458,23.521,27.458z M23.521,22.085c0.793,0,1.438,0.645,1.438,1.437
		s-0.645,1.437-1.438,1.437c-0.792,0-1.437-0.645-1.437-1.437S22.729,22.085,23.521,22.085z"/>
	<path  d="M36.748,19.315c-2.171,0-3.938,1.766-3.938,3.937c0,2.17,1.767,3.937,3.938,3.937
		c2.172,0,3.938-1.767,3.938-3.937C40.686,21.081,38.92,19.315,36.748,19.315z M36.748,24.688c-0.792,0-1.437-0.645-1.437-1.437
		s0.645-1.437,1.437-1.437c0.793,0,1.438,0.645,1.438,1.437S37.541,24.688,36.748,24.688z"/>
</g>
</svg>
