<?xml version="1.0" encoding="utf-8"?>
<!-- Generator: Adobe Illustrator 16.0.3, SVG Export Plug-In . SVG Version: 6.00 Build 0)  -->
<!DOCTYPE svg PUBLIC "-//W3C//DTD SVG 1.1//EN" "http://www.w3.org/Graphics/SVG/1.1/DTD/svg11.dtd">
<svg version="1.1" id="Layer_1" xmlns="http://www.w3.org/2000/svg" xmlns:xlink="http://www.w3.org/1999/xlink" x="0px" y="0px"
	 width="60px" height="60px" viewBox="0 0 60 60" enable-background="new 0 0 60 60" xml:space="preserve">
<g>
	<path  d="M22.725,34.128c0.713,0,1.29-0.578,1.29-1.291V27.03c0-0.713-0.577-1.291-1.29-1.291
		s-1.291,0.578-1.291,1.291v5.807C21.434,33.55,22.012,34.128,22.725,34.128z"/>
	<path  d="M37.274,34.128c0.713,0,1.291-0.578,1.291-1.291V27.03c0-0.713-0.578-1.291-1.291-1.291
		s-1.291,0.578-1.291,1.291v5.807C35.983,33.55,36.562,34.128,37.274,34.128z"/>
	<path  d="M22.725,23.467c0.713,0,1.29-0.578,1.29-1.291v-4.575c0-0.713-0.577-1.291-1.29-1.291
		s-1.291,0.578-1.291,1.291v4.575C21.434,22.889,22.012,23.467,22.725,23.467z"/>
	<path  d="M37.274,23.467c0.713,0,1.291-0.578,1.291-1.291v-4.575c0-0.713-0.578-1.291-1.291-1.291
		s-1.291,0.578-1.291,1.291v4.575C35.983,22.889,36.562,23.467,37.274,23.467z"/>
	<path  d="M22.725,13.15c0.713,0,1.29-0.577,1.29-1.29V9.24c0-0.712-0.577-1.29-1.29-1.29s-1.291,0.578-1.291,1.29
		v2.62C21.434,12.573,22.012,13.15,22.725,13.15z"/>
	<path  d="M37.274,13.15c0.713,0,1.291-0.577,1.291-1.29V9.24c0-0.712-0.578-1.29-1.291-1.29s-1.291,0.578-1.291,1.29
		v2.62C35.983,12.573,36.562,13.15,37.274,13.15z"/>
	<path  d="M22.725,3.977c0.713,0,1.29-0.578,1.29-1.29V1.291c0-0.713-0.577-1.291-1.29-1.291
		s-1.291,0.578-1.291,1.291v1.396C21.434,3.398,22.012,3.977,22.725,3.977z"/>
	<path  d="M37.274,3.977c0.713,0,1.291-0.578,1.291-1.29V1.291C38.565,0.578,37.987,0,37.274,0
		s-1.291,0.578-1.291,1.291v1.396C35.983,3.398,36.562,3.977,37.274,3.977z"/>
	<path  d="M45.537,44.962c0.02-0.03,0.034-0.063,0.052-0.097c0.022-0.041,0.048-0.081,0.066-0.125
		c0.017-0.043,0.027-0.086,0.04-0.13c0.011-0.037,0.025-0.073,0.033-0.111c0.033-0.167,0.033-0.339,0-0.506
		c-0.008-0.038-0.022-0.074-0.033-0.111c-0.013-0.043-0.023-0.087-0.04-0.129c-0.019-0.044-0.044-0.085-0.066-0.126
		c-0.018-0.032-0.032-0.065-0.052-0.096c-0.096-0.143-0.217-0.264-0.359-0.359c-0.029-0.02-0.063-0.033-0.096-0.051
		c-0.041-0.023-0.082-0.049-0.126-0.067c-0.042-0.017-0.085-0.027-0.129-0.04c-0.037-0.01-0.073-0.024-0.111-0.033
		c-0.083-0.016-0.169-0.025-0.253-0.025h-5.897v-6.001c0-0.713-0.578-1.291-1.291-1.291s-1.291,0.578-1.291,1.291v7.231
		c0,0.01,0.003,0.021,0.003,0.03c0,0.011-0.003,0.021-0.003,0.03c0,0.713,0.578,1.291,1.291,1.291h4.072L30,56.884L18.652,45.537
		h4.072c0.713,0,1.29-0.578,1.29-1.291c0-0.01-0.002-0.02-0.003-0.03c0.001-0.01,0.003-0.021,0.003-0.03v-7.231
		c0-0.713-0.577-1.291-1.29-1.291s-1.291,0.578-1.291,1.291v6.001h-5.897c-0.085,0-0.169,0.01-0.253,0.025
		c-0.038,0.009-0.074,0.023-0.111,0.033c-0.043,0.013-0.087,0.023-0.129,0.04c-0.044,0.019-0.085,0.044-0.126,0.067
		c-0.032,0.018-0.065,0.031-0.096,0.051c-0.143,0.096-0.264,0.217-0.358,0.359c-0.021,0.03-0.035,0.063-0.053,0.096
		c-0.022,0.041-0.048,0.082-0.065,0.126c-0.018,0.042-0.028,0.086-0.041,0.129c-0.011,0.037-0.024,0.073-0.032,0.111
		c-0.033,0.167-0.033,0.339,0,0.506c0.008,0.038,0.021,0.074,0.032,0.111c0.013,0.044,0.023,0.087,0.041,0.13
		c0.018,0.044,0.043,0.084,0.065,0.125c0.018,0.033,0.032,0.066,0.053,0.097c0.047,0.071,0.101,0.138,0.161,0.197l14.463,14.463
		C29.34,59.874,29.67,60,30,60s0.66-0.126,0.912-0.378l14.463-14.463C45.435,45.1,45.489,45.033,45.537,44.962z"/>
</g>
</svg>
