<?xml version="1.0" encoding="utf-8"?>
<!-- Generator: Adobe Illustrator 16.0.3, SVG Export Plug-In . SVG Version: 6.00 Build 0)  -->
<!DOCTYPE svg PUBLIC "-//W3C//DTD SVG 1.1//EN" "http://www.w3.org/Graphics/SVG/1.1/DTD/svg11.dtd">
<svg version="1.1" id="Layer_1" xmlns="http://www.w3.org/2000/svg" xmlns:xlink="http://www.w3.org/1999/xlink" x="0px" y="0px"
	 width="60px" height="60px" viewBox="0 0 60 60" enable-background="new 0 0 60 60" xml:space="preserve">
<g>
	<path  d="M40.077,34.519l-7.849,7.848V13.293c0-1.231-0.997-2.229-2.229-2.229s-2.229,0.998-2.229,2.229v29.073
		l-7.847-7.848c-0.871-0.87-2.282-0.871-3.152,0c-0.871,0.87-0.871,2.281,0,3.152l11.653,11.653
		c0.418,0.418,0.984,0.652,1.576,0.652c0.591,0,1.158-0.234,1.576-0.652l11.652-11.653c0.871-0.871,0.871-2.282,0-3.152
		C42.358,33.648,40.947,33.648,40.077,34.519z"/>
	<path  d="M30,0C13.458,0,0,13.457,0,29.999S13.458,60,30,60s30-13.459,30-30.001S46.542,0,30,0z M30,55.541
		c-14.084,0-25.542-11.458-25.542-25.542C4.458,15.916,15.916,4.457,30,4.457c14.083,0,25.542,11.459,25.542,25.542
		C55.542,44.083,44.083,55.541,30,55.541z"/>
</g>
</svg>
