<?xml version="1.0" encoding="utf-8"?>
<!-- Generator: Adobe Illustrator 16.0.3, SVG Export Plug-In . SVG Version: 6.00 Build 0)  -->
<!DOCTYPE svg PUBLIC "-//W3C//DTD SVG 1.1//EN" "http://www.w3.org/Graphics/SVG/1.1/DTD/svg11.dtd">
<svg version="1.1" id="Layer_1" xmlns="http://www.w3.org/2000/svg" xmlns:xlink="http://www.w3.org/1999/xlink" x="0px" y="0px"
	 width="60px" height="60px" viewBox="0 0 60 60" enable-background="new 0 0 60 60" xml:space="preserve">
<g>
	<path  d="M55.712,29.852c-2.766-2.765-6.441-4.287-10.354-4.287c0,0,0,0-0.001,0c-8.072,0-14.64,6.567-14.64,14.64
		c0,8.073,6.567,14.642,14.641,14.642S60,48.277,60,40.203C60,36.293,58.477,32.617,55.712,29.852z M45.358,51.332
		c-6.136,0-11.127-4.992-11.127-11.128c0-6.135,4.991-11.127,11.129-11.127h0.001c2.972,0,5.765,1.157,7.866,3.259
		c2.103,2.102,3.26,4.896,3.26,7.867C56.487,46.34,51.494,51.332,45.358,51.332z"/>
	<path  d="M47.016,40.32l4.251-4.251c0.457-0.457,0.457-1.198,0-1.655c-0.458-0.458-1.199-0.458-1.656,0l-4.25,4.25
		l-4.252-4.251c-0.457-0.458-1.198-0.458-1.656,0c-0.457,0.457-0.457,1.198,0,1.655l4.252,4.252l-4.252,4.253
		c-0.458,0.457-0.458,1.198,0,1.655c0.229,0.229,0.528,0.344,0.828,0.344c0.299,0,0.599-0.115,0.827-0.344l4.253-4.252l4.251,4.251
		c0.229,0.229,0.528,0.343,0.827,0.343c0.3,0,0.6-0.114,0.828-0.343c0.458-0.457,0.458-1.198,0-1.655L47.016,40.32z"/>
	<path  d="M27.591,44.135H12.327c-4.86,0-8.814-3.954-8.814-8.813c0-3.121,1.608-5.947,4.302-7.559
		c0.555-0.332,0.883-0.942,0.853-1.588l-0.012-0.19c-0.003-0.044-0.008-0.089-0.008-0.134c0-4.793,3.9-8.692,8.693-8.692
		c0.529,0,1.08,0.054,1.636,0.16c0.849,0.16,1.686-0.315,1.979-1.125c1.638-4.502,5.956-7.526,10.748-7.526
		c6.148,0,11.165,4.809,11.42,10.948c0.037,0.898,0.747,1.623,1.645,1.68c2.943,0.187,5.668,1.485,7.674,3.66
		c0.658,0.713,1.769,0.759,2.482,0.1c0.713-0.657,0.757-1.769,0.1-2.481c-2.275-2.468-5.262-4.073-8.528-4.612
		C45.46,10.668,39.231,5.154,31.704,5.154c-5.785,0-11.043,3.372-13.498,8.523c-0.291-0.021-0.58-0.032-0.865-0.032
		c-6.551,0-11.912,5.187-12.194,11.669C1.905,27.628,0,31.298,0,35.321c0,6.797,5.529,12.326,12.327,12.326h15.264
		c0.971,0,1.757-0.786,1.757-1.757C29.348,44.921,28.562,44.135,27.591,44.135z"/>
</g>
</svg>
