<?xml version="1.0" encoding="utf-8"?>
<!-- Generator: Adobe Illustrator 16.0.3, SVG Export Plug-In . SVG Version: 6.00 Build 0)  -->
<!DOCTYPE svg PUBLIC "-//W3C//DTD SVG 1.1//EN" "http://www.w3.org/Graphics/SVG/1.1/DTD/svg11.dtd">
<svg version="1.1" id="Layer_1" xmlns="http://www.w3.org/2000/svg" xmlns:xlink="http://www.w3.org/1999/xlink" x="0px" y="0px"
	 width="60px" height="60px" viewBox="0 0 60 60" enable-background="new 0 0 60 60" xml:space="preserve">
<g>
	<path  d="M40.215,27.953c0.438,0.438,1.011,0.656,1.584,0.656s1.146-0.219,1.584-0.656
		c0.876-0.875,0.876-2.295,0-3.169L31.588,12.988c-0.105-0.105-0.222-0.2-0.346-0.283c-0.05-0.033-0.104-0.056-0.156-0.084
		c-0.075-0.043-0.149-0.088-0.229-0.121c-0.071-0.029-0.146-0.046-0.218-0.067c-0.066-0.021-0.131-0.046-0.2-0.06
		c-0.29-0.058-0.587-0.058-0.877,0c-0.069,0.014-0.134,0.039-0.2,0.06c-0.073,0.021-0.146,0.038-0.218,0.067
		c-0.081,0.033-0.154,0.079-0.23,0.121c-0.051,0.028-0.104,0.051-0.154,0.084c-0.124,0.083-0.241,0.178-0.347,0.283L16.617,24.784
		c-0.876,0.874-0.876,2.294,0,3.169c0.875,0.875,2.293,0.875,3.168,0l7.975-7.974v25.774c0,1.237,1.002,2.24,2.24,2.24
		s2.241-1.003,2.241-2.24V19.979L40.215,27.953z"/>
	<path  d="M57.76,51.035c-1.238,0-2.241,1.004-2.241,2.241v2.241h-2.241c-1.238,0-2.24,1.003-2.24,2.241
		c0,1.237,1.002,2.241,2.24,2.241h4.482c1.238,0,2.24-1.004,2.24-2.241v-4.482C60,52.039,58.998,51.035,57.76,51.035z"/>
	<path  d="M43.967,55.518h-9.311c-1.238,0-2.24,1.003-2.24,2.241c0,1.237,1.002,2.241,2.24,2.241h9.311
		c1.238,0,2.241-1.004,2.241-2.241C46.208,56.521,45.205,55.518,43.967,55.518z"/>
	<path  d="M25.346,55.518h-9.311c-1.238,0-2.241,1.003-2.241,2.241c0,1.237,1.003,2.241,2.241,2.241h9.311
		c1.237,0,2.24-1.004,2.24-2.241C27.586,56.521,26.583,55.518,25.346,55.518z"/>
	<path  d="M6.724,55.518H4.482v-2.241c0-1.237-1.003-2.241-2.241-2.241C1.004,51.035,0,52.039,0,53.276v4.482
		C0,58.996,1.004,60,2.241,60h4.482c1.237,0,2.241-1.004,2.241-2.241C8.965,56.521,7.961,55.518,6.724,55.518z"/>
	<path  d="M2.241,27.586c1.238,0,2.241-1.003,2.241-2.241v-9.311c0-1.238-1.003-2.241-2.241-2.241
		C1.004,13.793,0,14.796,0,16.034v9.311C0,26.583,1.004,27.586,2.241,27.586z"/>
	<path  d="M2.241,46.207c1.238,0,2.241-1.003,2.241-2.241v-9.311c0-1.237-1.003-2.241-2.241-2.241
		C1.004,32.414,0,33.418,0,34.655v9.311C0,45.204,1.004,46.207,2.241,46.207z"/>
	<path  d="M6.724,0H2.241C1.004,0,0,1.004,0,2.241v4.482c0,1.237,1.004,2.241,2.241,2.241
		c1.238,0,2.241-1.004,2.241-2.241V4.482h2.241c1.237,0,2.241-1.003,2.241-2.241C8.965,1.004,7.961,0,6.724,0z"/>
	<path  d="M16.035,4.482h9.311c1.237,0,2.24-1.003,2.24-2.241c0-1.237-1.003-2.241-2.24-2.241h-9.311
		c-1.238,0-2.241,1.004-2.241,2.241C13.794,3.479,14.797,4.482,16.035,4.482z"/>
	<path  d="M43.967,0h-9.311c-1.238,0-2.24,1.004-2.24,2.241c0,1.238,1.002,2.241,2.24,2.241h9.311
		c1.238,0,2.241-1.003,2.241-2.241C46.208,1.004,45.205,0,43.967,0z"/>
	<path  d="M57.76,0h-4.482c-1.238,0-2.24,1.004-2.24,2.241c0,1.238,1.002,2.241,2.24,2.241h2.241v2.241
		c0,1.237,1.003,2.241,2.241,2.241S60,7.961,60,6.724V2.241C60,1.004,58.998,0,57.76,0z"/>
	<path  d="M57.76,13.793c-1.238,0-2.241,1.003-2.241,2.241v9.311c0,1.237,1.003,2.241,2.241,2.241
		S60,26.582,60,25.345v-9.311C60,14.796,58.998,13.793,57.76,13.793z"/>
	<path  d="M57.76,32.414c-1.238,0-2.241,1.003-2.241,2.24v9.312c0,1.238,1.003,2.241,2.241,2.241S60,45.204,60,43.966
		v-9.312C60,33.417,58.998,32.414,57.76,32.414z"/>
</g>
</svg>
