<?xml version="1.0" encoding="utf-8"?>
<!-- Generator: Adobe Illustrator 16.0.3, SVG Export Plug-In . SVG Version: 6.00 Build 0)  -->
<!DOCTYPE svg PUBLIC "-//W3C//DTD SVG 1.1//EN" "http://www.w3.org/Graphics/SVG/1.1/DTD/svg11.dtd">
<svg version="1.1" id="Layer_1" xmlns="http://www.w3.org/2000/svg" xmlns:xlink="http://www.w3.org/1999/xlink" x="0px" y="0px"
	 width="60px" height="60px" viewBox="0 0 60 60" enable-background="new 0 0 60 60" xml:space="preserve">
<g>
	<path  d="M57.156,43.637c-1.26,0-2.279,1.02-2.279,2.278c0,5.254-4.273,9.528-9.527,9.528H14.652
		c-5.256,0-9.529-4.274-9.529-9.528c0-1.259-1.02-2.278-2.279-2.278c-1.258,0-2.277,1.02-2.277,2.278
		C0.566,53.682,6.885,60,14.652,60H45.35c7.766,0,14.084-6.318,14.084-14.085C59.434,44.656,58.414,43.637,57.156,43.637z"/>
	<path  d="M28.389,47.197c0.445,0.445,1.027,0.668,1.611,0.668c0.582,0,1.166-0.223,1.611-0.668L48.629,30.18
		c0.652-0.651,0.848-1.632,0.494-2.483c-0.352-0.851-1.182-1.405-2.104-1.405h-6.182V2.278C40.838,1.02,39.818,0,38.561,0
		c-1.26,0-2.279,1.02-2.279,2.278v26.29c0,1.259,1.02,2.278,2.279,2.278h2.957L30,42.365L18.48,30.847h2.959
		c1.26,0,2.279-1.091,2.279-2.349V2.278C23.719,1.02,22.699,0,21.439,0c-1.258,0-2.277,1.02-2.277,2.278v24.013h-6.18
		c-0.922,0-1.754,0.555-2.105,1.405c-0.354,0.852-0.158,1.832,0.494,2.483L28.389,47.197z"/>
</g>
</svg>
