<?xml version="1.0" encoding="utf-8"?>
<!-- Generator: Adobe Illustrator 16.0.3, SVG Export Plug-In . SVG Version: 6.00 Build 0)  -->
<!DOCTYPE svg PUBLIC "-//W3C//DTD SVG 1.1//EN" "http://www.w3.org/Graphics/SVG/1.1/DTD/svg11.dtd">
<svg version="1.1" id="Layer_1" xmlns="http://www.w3.org/2000/svg" xmlns:xlink="http://www.w3.org/1999/xlink" x="0px" y="0px"
	 width="60px" height="60px" viewBox="0 0 60 60" enable-background="new 0 0 60 60" xml:space="preserve">
<g>
	<path  d="M12.654,23.436c0.595,0,1.188-0.227,1.642-0.681L27.678,9.373v40.238c0,1.283,1.039,2.322,2.322,2.322
		s2.322-1.039,2.322-2.322V9.373l13.382,13.382c0.907,0.907,2.377,0.907,3.284,0c0.906-0.906,0.906-2.377,0-3.283L31.645,2.129
		c-0.108-0.109-0.229-0.207-0.358-0.293c-0.051-0.035-0.106-0.058-0.161-0.088c-0.078-0.044-0.154-0.091-0.237-0.125
		c-0.074-0.03-0.15-0.047-0.227-0.069c-0.068-0.021-0.135-0.048-0.207-0.062c-0.3-0.06-0.608-0.06-0.908,0
		c-0.072,0.014-0.139,0.04-0.208,0.062c-0.075,0.022-0.152,0.039-0.226,0.069c-0.084,0.034-0.16,0.082-0.238,0.126
		c-0.054,0.029-0.109,0.053-0.16,0.087c-0.129,0.086-0.25,0.184-0.358,0.293L11.013,19.472c-0.907,0.906-0.907,2.377,0,3.283
		C11.467,23.209,12.061,23.436,12.654,23.436z"/>
	<path  d="M57.678,41.874c-1.282,0-2.322,1.039-2.322,2.322c0,5.355-4.356,9.712-9.711,9.712H14.355
		c-5.354,0-9.711-4.356-9.711-9.712c0-1.283-1.04-2.322-2.322-2.322C1.039,41.874,0,42.913,0,44.196
		c0,7.916,6.439,14.356,14.355,14.356h31.289c7.916,0,14.355-6.44,14.355-14.356C60,42.913,58.961,41.874,57.678,41.874z"/>
</g>
</svg>
