<?xml version="1.0" encoding="utf-8"?>
<!-- Generator: Adobe Illustrator 16.0.3, SVG Export Plug-In . SVG Version: 6.00 Build 0)  -->
<!DOCTYPE svg PUBLIC "-//W3C//DTD SVG 1.1//EN" "http://www.w3.org/Graphics/SVG/1.1/DTD/svg11.dtd">
<svg version="1.1" id="Layer_1" xmlns="http://www.w3.org/2000/svg" xmlns:xlink="http://www.w3.org/1999/xlink" x="0px" y="0px"
	 width="60px" height="60px" viewBox="0 0 60 60" enable-background="new 0 0 60 60" xml:space="preserve">
<g>
	<path  d="M38.015,37.994c-0.825,0-1.494,0.668-1.494,1.493v6.722c0,0.824,0.669,1.493,1.494,1.493
		s1.494-0.669,1.494-1.493v-6.722C39.509,38.662,38.84,37.994,38.015,37.994z"/>
	<path  d="M21.175,37.994c-0.825,0-1.494,0.668-1.494,1.493v6.722c0,0.824,0.669,1.493,1.494,1.493
		s1.493-0.669,1.493-1.493v-6.722C22.668,38.662,22,37.994,21.175,37.994z"/>
	<path  d="M39.509,27.775h6.826c0.604,0,1.148-0.364,1.38-0.923s0.104-1.2-0.324-1.628L30.65,8.484
		c-0.583-0.584-1.529-0.584-2.112,0l-16.74,16.74c-0.428,0.428-0.556,1.069-0.324,1.628s0.776,0.923,1.38,0.923h6.827v6.945
		c0,0.825,0.669,1.494,1.494,1.494s1.493-0.669,1.493-1.494v-8.439c0-0.825-0.668-1.494-1.493-1.494h-4.714l13.134-13.134
		l13.134,13.134h-4.714c-0.825,0-1.494,0.738-1.494,1.563v8.37c0,0.825,0.669,1.494,1.494,1.494s1.494-0.669,1.494-1.494V27.775z"/>
	<path  d="M57.759,0H2.24C1.003,0,0,1.003,0,2.24v14.169c0,1.238,1.003,2.241,2.24,2.241
		c1.238,0,2.241-1.003,2.241-2.241V4.481h51.036v11.928c0,1.238,1.003,2.241,2.241,2.241c1.237,0,2.241-1.003,2.241-2.241V2.24
		C60,1.003,58.996,0,57.759,0z"/>
	<path  d="M57.759,40.483c-1.238,0-2.241,1.003-2.241,2.241v12.793H39.509v-3.691c0-0.825-0.669-1.494-1.494-1.494
		s-1.494,0.669-1.494,1.494v3.691H22.668v-3.691c0-0.825-0.668-1.494-1.493-1.494s-1.494,0.669-1.494,1.494v3.691H4.481V42.725
		c0-1.238-1.003-2.241-2.241-2.241c-1.237,0-2.24,1.003-2.24,2.241v15.034C0,58.996,1.003,60,2.24,60h55.519
		C58.996,60,60,58.996,60,57.759V42.725C60,41.486,58.996,40.483,57.759,40.483z"/>
</g>
</svg>
