<?xml version="1.0" encoding="utf-8"?>
<!-- Generator: Adobe Illustrator 16.0.3, SVG Export Plug-In . SVG Version: 6.00 Build 0)  -->
<!DOCTYPE svg PUBLIC "-//W3C//DTD SVG 1.1//EN" "http://www.w3.org/Graphics/SVG/1.1/DTD/svg11.dtd">
<svg version="1.1" id="Layer_1" xmlns="http://www.w3.org/2000/svg" xmlns:xlink="http://www.w3.org/1999/xlink" x="0px" y="0px"
	 width="60px" height="60px" viewBox="0 0 60 60" enable-background="new 0 0 60 60" xml:space="preserve">
<g>
	<path  d="M31.901,23.754c-0.41-0.412-0.979-0.668-1.607-0.668s-1.197,0.256-1.607,0.668L16.44,36.001
		c-0.887,0.887-0.887,2.323,0,3.209c0.887,0.887,2.322,0.887,3.209,0l8.375-8.374V57.73c0,1.253,1.016,2.27,2.27,2.27
		s2.27-1.017,2.27-2.27V30.836l8.375,8.374c0.443,0.443,1.023,0.665,1.604,0.665s1.161-0.222,1.604-0.665
		c0.887-0.886,0.887-2.322,0-3.209L31.901,23.754z"/>
	<path  d="M57.739,17.188H2.261c-0.835,0-1.513,0.678-1.513,1.514s0.678,1.513,1.513,1.513h55.479
		c0.835,0,1.513-0.677,1.513-1.513S58.574,17.188,57.739,17.188z"/>
	<path  d="M57.739,8.417H2.261c-0.835,0-1.513,0.678-1.513,1.513c0,0.836,0.678,1.514,1.513,1.514h55.479
		c0.835,0,1.513-0.678,1.513-1.514C59.252,9.095,58.574,8.417,57.739,8.417z"/>
	<path  d="M2.261,3.025h55.479c0.835,0,1.513-0.678,1.513-1.513C59.252,0.677,58.574,0,57.739,0H2.261
		C1.426,0,0.748,0.677,0.748,1.513C0.748,2.348,1.426,3.025,2.261,3.025z"/>
</g>
</svg>
