<?xml version="1.0" encoding="utf-8"?>
<!-- Generator: Adobe Illustrator 16.0.3, SVG Export Plug-In . SVG Version: 6.00 Build 0)  -->
<!DOCTYPE svg PUBLIC "-//W3C//DTD SVG 1.1//EN" "http://www.w3.org/Graphics/SVG/1.1/DTD/svg11.dtd">
<svg version="1.1" id="Layer_1" xmlns="http://www.w3.org/2000/svg" xmlns:xlink="http://www.w3.org/1999/xlink" x="0px" y="0px"
	 width="60px" height="60px" viewBox="0 0 60 60" enable-background="new 0 0 60 60" xml:space="preserve">
<g>
	<path  d="M48.617,33.277h-23.99c-0.891,0-1.611,0.721-1.611,1.611s0.721,1.612,1.611,1.612h23.99l-8.395,8.393
		c-0.629,0.629-0.629,1.649,0,2.279c0.314,0.314,0.728,0.472,1.141,0.472c0.412,0,0.824-0.157,1.14-0.472L53.646,36.03
		c0.075-0.075,0.144-0.158,0.203-0.248c0.025-0.038,0.042-0.078,0.064-0.118c0.028-0.052,0.061-0.104,0.083-0.158
		c0.022-0.054,0.034-0.108,0.051-0.163c0.014-0.046,0.031-0.091,0.04-0.138c0.021-0.104,0.032-0.21,0.032-0.316l0,0
		c0,0,0-0.002,0-0.004c0-0.104-0.011-0.208-0.031-0.312c-0.011-0.05-0.028-0.097-0.044-0.146c-0.016-0.052-0.027-0.104-0.047-0.154
		c-0.025-0.059-0.058-0.112-0.089-0.167c-0.021-0.037-0.036-0.075-0.06-0.11c-0.06-0.09-0.127-0.174-0.203-0.249L42.505,22.604
		c-0.63-0.63-1.649-0.63-2.279,0c-0.63,0.629-0.63,1.649,0,2.279L48.617,33.277z"/>
	<path  d="M5.699,26.524c0.01,0.048,0.027,0.092,0.041,0.138c0.016,0.055,0.028,0.109,0.05,0.163
		c0.023,0.056,0.055,0.106,0.084,0.159c0.021,0.039,0.039,0.08,0.064,0.117c0.06,0.09,0.127,0.173,0.203,0.248l11.143,11.143
		c0.314,0.314,0.727,0.473,1.14,0.473c0.412,0,0.824-0.158,1.14-0.473c0.63-0.63,0.63-1.65,0-2.279L11.17,27.82h23.99
		c0.891,0,1.612-0.722,1.612-1.612c0-0.89-0.722-1.611-1.612-1.611H11.171l8.394-8.393c0.63-0.629,0.63-1.649,0-2.279
		c-0.629-0.63-1.65-0.63-2.279,0L6.142,25.066c-0.076,0.076-0.144,0.159-0.203,0.248c-0.025,0.038-0.043,0.079-0.064,0.118
		c-0.029,0.053-0.061,0.104-0.084,0.159c-0.021,0.053-0.034,0.108-0.05,0.163c-0.014,0.046-0.031,0.09-0.041,0.138
		c-0.021,0.104-0.032,0.21-0.032,0.315l0,0l0,0C5.667,26.314,5.678,26.42,5.699,26.524z"/>
	<path  d="M58.388,0H1.612C0.722,0,0,0.722,0,1.612v56.775C0,59.278,0.722,60,1.612,60h56.775
		C59.278,60,60,59.278,60,58.388V1.612C60,0.722,59.278,0,58.388,0z M56.776,56.776H3.224V3.224h53.553V56.776z"/>
</g>
</svg>
