<?xml version="1.0" encoding="utf-8"?>
<!-- Generator: Adobe Illustrator 16.0.3, SVG Export Plug-In . SVG Version: 6.00 Build 0)  -->
<!DOCTYPE svg PUBLIC "-//W3C//DTD SVG 1.1//EN" "http://www.w3.org/Graphics/SVG/1.1/DTD/svg11.dtd">
<svg version="1.1" id="Layer_1" xmlns="http://www.w3.org/2000/svg" xmlns:xlink="http://www.w3.org/1999/xlink" x="0px" y="0px"
	 width="60px" height="60px" viewBox="0 0 60 60" enable-background="new 0 0 60 60" xml:space="preserve">
<g>
	<path  d="M28.605,35.656c0.093,0.093,0.195,0.176,0.305,0.249c0.043,0.028,0.091,0.049,0.136,0.073
		c0.066,0.037,0.131,0.078,0.202,0.107c0.062,0.025,0.127,0.039,0.191,0.059c0.059,0.018,0.115,0.041,0.176,0.053
		c0.127,0.025,0.256,0.038,0.385,0.038c0.13,0,0.258-0.013,0.385-0.038c0.062-0.012,0.117-0.035,0.176-0.053
		c0.064-0.02,0.129-0.033,0.191-0.059c0.071-0.029,0.136-0.069,0.202-0.106c0.046-0.025,0.093-0.045,0.137-0.074
		c0.109-0.073,0.211-0.156,0.304-0.249l14.701-14.7c0.769-0.769,0.769-2.015,0-2.783c-0.769-0.77-2.015-0.77-2.783,0L31.969,29.516
		V1.969C31.969,0.882,31.088,0,30,0c-1.087,0-1.968,0.882-1.968,1.969v27.547L16.688,18.173c-0.769-0.77-2.015-0.77-2.783,0
		c-0.769,0.768-0.769,2.015,0,2.783L28.605,35.656z"/>
	<path  d="M50.912,38.162H9.089c-2.491,0-4.519,2.027-4.519,4.519v12.802C4.57,57.974,6.598,60,9.089,60h41.823
		c2.491,0,4.518-2.026,4.518-4.518V42.681C55.43,40.189,53.403,38.162,50.912,38.162z M51.494,55.482
		c0,0.32-0.262,0.582-0.582,0.582H9.089c-0.321,0-0.581-0.262-0.581-0.582V42.681c0-0.321,0.26-0.582,0.581-0.582h41.823
		c0.32,0,0.582,0.261,0.582,0.582V55.482z"/>
	<path  d="M47.402,51.53H11.92c-0.543,0-0.984,0.44-0.984,0.984c0,0.543,0.441,0.983,0.984,0.983h35.482
		c0.543,0,0.984-0.44,0.984-0.983C48.387,51.971,47.945,51.53,47.402,51.53z"/>
	<path  d="M11.92,50.23h3.111c0.544,0,0.984-0.441,0.984-0.984v-3.112c0-0.543-0.44-0.983-0.984-0.983H11.92
		c-0.543,0-0.984,0.44-0.984,0.983v3.112C10.936,49.789,11.377,50.23,11.92,50.23z M12.904,47.118h1.144v1.144h-1.144V47.118z"/>
	<path  d="M18.612,50.23h3.111c0.544,0,0.984-0.441,0.984-0.984v-3.112c0-0.543-0.44-0.983-0.984-0.983h-3.111
		c-0.544,0-0.984,0.44-0.984,0.983v3.112C17.628,49.789,18.068,50.23,18.612,50.23z M19.596,47.118h1.145v1.144h-1.145V47.118z"/>
</g>
</svg>
