<?xml version="1.0" encoding="utf-8"?>
<!-- Generator: Adobe Illustrator 16.0.3, SVG Export Plug-In . SVG Version: 6.00 Build 0)  -->
<!DOCTYPE svg PUBLIC "-//W3C//DTD SVG 1.1//EN" "http://www.w3.org/Graphics/SVG/1.1/DTD/svg11.dtd">
<svg version="1.1" id="Layer_1" xmlns="http://www.w3.org/2000/svg" xmlns:xlink="http://www.w3.org/1999/xlink" x="0px" y="0px"
	 width="60px" height="60px" viewBox="0 0 60 60" enable-background="new 0 0 60 60" xml:space="preserve">
<g>
	<path  d="M30.162,9.534c-1.238,0-2.241,1.002-2.241,2.24V43.14L15.005,30.224c-0.875-0.875-2.293-0.875-3.169,0
		c-0.875,0.875-0.875,2.295,0,3.17L28.574,50.13c0.105,0.105,0.222,0.201,0.346,0.283c0.05,0.033,0.104,0.057,0.155,0.084
		c0.075,0.043,0.149,0.088,0.23,0.121c0.07,0.029,0.146,0.047,0.218,0.068c0.066,0.02,0.131,0.045,0.2,0.059
		c0.145,0.029,0.291,0.045,0.438,0.045s0.294-0.016,0.438-0.045c0.069-0.014,0.134-0.039,0.2-0.059
		c0.072-0.021,0.146-0.039,0.218-0.068c0.08-0.033,0.153-0.078,0.229-0.121c0.052-0.027,0.105-0.051,0.155-0.084
		c0.125-0.082,0.241-0.178,0.346-0.283l16.738-16.736c0.875-0.875,0.875-2.295,0-3.17c-0.876-0.875-2.294-0.875-3.169,0
		L32.403,43.14V11.774C32.403,10.536,31.4,9.534,30.162,9.534z"/>
	<path  d="M57.759-0.001H2.241C1.003-0.001,0,1.003,0,2.241v14.168c0,1.238,1.003,2.242,2.241,2.242
		c1.237,0,2.241-1.004,2.241-2.242V4.481h51.035v11.928c0,1.238,1.004,2.242,2.241,2.242c1.238,0,2.241-1.004,2.241-2.242V2.241
		C60,1.003,58.997-0.001,57.759-0.001z"/>
	<path  d="M57.759,40.483c-1.237,0-2.241,1.004-2.241,2.242v12.793H4.482V42.726c0-1.238-1.004-2.242-2.241-2.242
		C1.003,40.483,0,41.487,0,42.726v15.033c0,1.238,1.003,2.242,2.241,2.242h55.518c1.238,0,2.241-1.004,2.241-2.242V42.726
		C60,41.487,58.997,40.483,57.759,40.483z"/>
</g>
</svg>
