<?xml version="1.0" encoding="utf-8"?>
<!-- Generator: Adobe Illustrator 16.0.3, SVG Export Plug-In . SVG Version: 6.00 Build 0)  -->
<!DOCTYPE svg PUBLIC "-//W3C//DTD SVG 1.1//EN" "http://www.w3.org/Graphics/SVG/1.1/DTD/svg11.dtd">
<svg version="1.1" id="Layer_1" xmlns="http://www.w3.org/2000/svg" xmlns:xlink="http://www.w3.org/1999/xlink" x="0px" y="0px"
	 width="60px" height="60px" viewBox="0 0 60 60" enable-background="new 0 0 60 60" xml:space="preserve">
<g>
	<path  d="M27.467,42.458H12.271c-4.839,0-8.774-3.936-8.774-8.773c0-3.107,1.601-5.92,4.282-7.524
		c0.553-0.331,0.879-0.938,0.849-1.581L8.616,24.39c-0.003-0.044-0.007-0.089-0.007-0.134c0-4.771,3.882-8.653,8.653-8.653
		c0.526,0,1.075,0.054,1.628,0.159c0.846,0.16,1.679-0.313,1.972-1.12c1.63-4.481,5.93-7.493,10.7-7.493
		c6.12,0,11.114,4.788,11.369,10.9c0.036,0.894,0.743,1.616,1.636,1.672c2.931,0.186,5.644,1.479,7.641,3.644
		c0.655,0.71,1.761,0.755,2.471,0.101c0.71-0.655,0.755-1.762,0.1-2.472c-2.266-2.456-5.238-4.055-8.49-4.592
		c-1.032-7.26-7.232-12.75-14.726-12.75c-5.76,0-10.994,3.357-13.438,8.486c-6.911-0.51-12.709,4.85-13.001,11.585
		C1.896,26.025,0,29.68,0,33.685c0,6.767,5.504,12.271,12.271,12.271h15.195c0.967,0,1.749-0.782,1.749-1.748
		S28.434,42.458,27.467,42.458z"/>
	<path  d="M45.751,24.748c-0.012,0-0.024,0-0.036,0c-6.252,0.016-11.847,4.216-13.605,10.212
		c-0.182,0.618,0.172,1.266,0.791,1.446c0.109,0.032,0.219,0.048,0.328,0.048c0.504,0,0.969-0.33,1.117-0.838
		c1.471-5.013,6.148-8.523,11.375-8.536c0.011,0,0.02,0,0.03,0c3.985,0,7.646,1.979,9.844,5.236l-10.612-2.127l-0.456,2.288
		l13.728,2.749L60,21.334l-2.315-0.293L56.59,29.77C53.922,26.618,49.989,24.748,45.751,24.748z"/>
	<path  d="M58.703,40.958c-0.622-0.152-1.257,0.229-1.411,0.854c-1.305,5.31-6.038,9.026-11.512,9.041
		c-0.009,0-0.019,0-0.027,0c-4.14,0-7.98-2.19-10.126-5.674l10.502,2.6l0.558-2.267l-13.591-3.36L30.73,55.953l2.299,0.396
		l1.486-8.679c2.662,3.421,6.809,5.514,11.237,5.514c0.011,0,0.022,0,0.033,0c6.547-0.017,12.21-4.465,13.771-10.815
		C59.71,41.743,59.328,41.111,58.703,40.958z"/>
</g>
</svg>
