<?xml version="1.0" encoding="utf-8"?>
<!-- Generator: Adobe Illustrator 16.0.3, SVG Export Plug-In . SVG Version: 6.00 Build 0)  -->
<!DOCTYPE svg PUBLIC "-//W3C//DTD SVG 1.1//EN" "http://www.w3.org/Graphics/SVG/1.1/DTD/svg11.dtd">
<svg version="1.1" id="Layer_1" xmlns="http://www.w3.org/2000/svg" xmlns:xlink="http://www.w3.org/1999/xlink" x="0px" y="0px"
	 width="60px" height="60px" viewBox="0 0 60 60" enable-background="new 0 0 60 60" xml:space="preserve">
<path  d="M59.914,17.282c-0.641-2.525-4.612-3.056-7.833-3.056c-1.42,0-2.703,0.119-3.521,0.328L38.37,17.145
	l-11.625-2.306c-0.156-0.031-0.319-0.025-0.474,0.016l-6.595,1.772c-0.306,0.082-0.558,0.298-0.686,0.588
	c-0.127,0.289-0.115,0.621,0.03,0.901l1.813,3.487l-7.478,1.902L7.88,18.644c-0.389-0.346-0.924-0.476-1.425-0.347L1.18,19.638
	c-0.476,0.121-0.867,0.459-1.058,0.911c-0.189,0.453-0.157,0.969,0.09,1.395c0.113,0.195,0.393,0.898,0.641,1.52
	C2.36,27.258,5.169,34.32,10.033,34.32c0.052-0.004,0.138,0,0.206-0.004c0.063-0.002,0.126-0.008,0.188-0.02l10.995-1.799
	l-1.157,11.555c-0.051,0.512,0.152,1.016,0.543,1.348c0.287,0.244,0.647,0.373,1.016,0.373c0.134,0,0.27-0.018,0.402-0.053
	c1.321-0.352,2.126-0.572,2.935-0.793c0.792-0.219,1.587-0.436,2.882-0.781c0.265-0.07,0.507-0.209,0.701-0.402
	c6.14-6.117,10.27-11.203,13.688-16.879l8.73-1.746c0.026-0.006,0.053-0.012,0.079-0.018c1.314-0.336,3.519-1.43,5.24-2.605
	C59.212,20.633,60.334,18.926,59.914,17.282z M21.473,18.306l5.105-1.371l7.09,1.406l-10.755,2.735L21.473,18.306z M50.505,22.057
	l-6.045,1.209c0.011-0.02,0.021-0.039,0.031-0.059c0.084-0.158,0.139-0.33,0.164-0.508l0.06-0.418
	c0.107-0.764-0.355-1.492-1.093-1.717c-0.736-0.227-1.527,0.117-1.865,0.811c-0.391,0.801-1.354,2.621-1.75,3.367
	c-0.045,0.084-0.081,0.172-0.109,0.26c-3.256,5.455-7.194,10.346-13.068,16.229c-1.071,0.285-1.785,0.482-2.497,0.676
	c-0.237,0.066-0.475,0.131-0.725,0.199l1.134-11.328c0.049-0.484-0.131-0.963-0.485-1.297c-0.293-0.273-0.677-0.424-1.072-0.424
	c-0.084,0-0.169,0.006-0.253,0.02l-12.902,2.113c-2.737-0.008-5.301-6.455-6.267-8.885c-0.011-0.027-0.022-0.055-0.033-0.082
	l2.693-0.686l5.479,4.861c0.388,0.344,0.923,0.475,1.425,0.346l36.007-9.156c0.419-0.106,1.39-0.231,2.749-0.231
	c2.452,0,4.116,0.396,4.697,0.728C56.104,19.25,52.322,21.576,50.505,22.057z"/>
</svg>
