<?xml version="1.0" encoding="utf-8"?>
<!-- Generator: Adobe Illustrator 16.0.3, SVG Export Plug-In . SVG Version: 6.00 Build 0)  -->
<!DOCTYPE svg PUBLIC "-//W3C//DTD SVG 1.1//EN" "http://www.w3.org/Graphics/SVG/1.1/DTD/svg11.dtd">
<svg version="1.1" id="Layer_1" xmlns="http://www.w3.org/2000/svg" xmlns:xlink="http://www.w3.org/1999/xlink" x="0px" y="0px"
	 width="60px" height="60px" viewBox="0 0 60 60" enable-background="new 0 0 60 60" xml:space="preserve">
<g>
	<path  d="M27.594,44.136H12.328c-4.86,0-8.815-3.954-8.815-8.813c0-3.122,1.608-5.947,4.303-7.56
		c0.555-0.332,0.883-0.942,0.853-1.589l-0.012-0.189c-0.003-0.045-0.008-0.089-0.008-0.135c0-4.793,3.9-8.693,8.694-8.693
		c0.529,0,1.08,0.055,1.636,0.16c0.848,0.161,1.685-0.315,1.98-1.125c1.637-4.502,5.956-7.527,10.749-7.527
		c6.148,0,11.166,4.81,11.422,10.95c0.037,0.898,0.747,1.623,1.644,1.68c2.944,0.187,5.67,1.485,7.676,3.66
		c0.658,0.714,1.769,0.759,2.482,0.101c0.713-0.658,0.757-1.77,0.1-2.482c-2.275-2.468-5.262-4.073-8.529-4.613
		c-1.036-7.294-7.267-12.808-14.794-12.808c-5.786,0-11.045,3.372-13.501,8.524C11.26,13.164,5.44,18.547,5.146,25.313
		C1.905,27.628,0,31.299,0,35.322c0,6.797,5.53,12.327,12.328,12.327h15.266c0.971,0,1.757-0.786,1.757-1.757
		C29.351,44.923,28.564,44.136,27.594,44.136z"/>
	<path  d="M55.718,29.852c-2.765-2.766-6.441-4.288-10.353-4.288s-7.589,1.522-10.354,4.289
		c-2.766,2.765-4.289,6.442-4.289,10.354s1.522,7.588,4.289,10.354c2.765,2.766,6.442,4.289,10.354,4.289s7.588-1.523,10.354-4.289
		C61.427,44.851,61.427,35.561,55.718,29.852z M53.233,48.075c-2.102,2.103-4.896,3.26-7.869,3.26s-5.768-1.157-7.87-3.26
		c-2.102-2.102-3.259-4.896-3.259-7.869s1.157-5.768,3.26-7.87c2.102-2.102,4.896-3.259,7.87-3.259c2.973,0,5.767,1.157,7.868,3.259
		c2.103,2.102,3.26,4.897,3.26,7.87S55.336,45.974,53.233,48.075z"/>
	<path  d="M53.853,34.675c-0.457-0.458-1.198-0.458-1.656,0l-9.345,9.344l-4.333-4.195
		c-0.465-0.45-1.205-0.439-1.655,0.026c-0.45,0.465-0.438,1.206,0.026,1.656l5.146,4.984h0.001c0,0,0,0.001,0.001,0.001l0.013,0.013
		c0.025,0.024,0.054,0.043,0.081,0.064c0.032,0.025,0.062,0.054,0.097,0.076c0.029,0.02,0.062,0.032,0.093,0.049
		c0.036,0.019,0.071,0.041,0.109,0.056c0.036,0.015,0.073,0.022,0.11,0.033c0.034,0.01,0.068,0.023,0.104,0.03
		c0.063,0.012,0.128,0.017,0.192,0.019c0.01,0,0.019,0.003,0.028,0.003l0,0l0,0c0.01,0,0.02-0.003,0.03-0.003
		c0.064-0.002,0.13-0.007,0.194-0.02c0.039-0.008,0.076-0.022,0.113-0.033c0.035-0.011,0.071-0.018,0.104-0.032
		c0.043-0.018,0.082-0.042,0.123-0.064c0.027-0.016,0.056-0.026,0.082-0.044c0.039-0.026,0.074-0.06,0.111-0.091
		c0.022-0.02,0.047-0.035,0.069-0.057l0.01-0.01c0.001-0.002,0.002-0.002,0.004-0.003c0-0.001,0.001-0.002,0.002-0.003L53.853,36.33
		C54.311,35.873,54.311,35.132,53.853,34.675z"/>
</g>
</svg>
