<?xml version="1.0" encoding="utf-8"?>
<!-- Generator: Adobe Illustrator 16.0.3, SVG Export Plug-In . SVG Version: 6.00 Build 0)  -->
<!DOCTYPE svg PUBLIC "-//W3C//DTD SVG 1.1//EN" "http://www.w3.org/Graphics/SVG/1.1/DTD/svg11.dtd">
<svg version="1.1" id="Layer_1" xmlns="http://www.w3.org/2000/svg" xmlns:xlink="http://www.w3.org/1999/xlink" x="0px" y="0px"
	 width="60px" height="60px" viewBox="0 0 60 60" enable-background="new 0 0 60 60" xml:space="preserve">
<g>
	<path  d="M54.74,24.547c-0.905-3.31-2.546-7.084-4.606-10.541c-3.771-6.326-5.55-6.326-6.219-6.326
		c-0.158-0.001-0.873-0.051-1.563-0.099C39.775,7.402,34.98,7.07,30.075,7.07c-5.047,0-10.15,0.352-12.604,0.521
		c-0.724,0.05-1.211,0.085-1.386,0.088c-0.63,0-2.303,0-6.125,6.315c-2.12,3.503-3.8,7.281-4.705,10.549
		c-6.145,2.345-5.27,12.227-5.141,13.417c0.105,0.933,0.71,1.692,1.527,2.039c-0.022,0.106-0.036,0.216-0.036,0.329v4.041
		c0,0.869,0.707,1.576,1.576,1.576h1.549v3.034c0,2.178,1.771,3.949,3.949,3.949h1.998c2.178,0,3.948-1.771,3.948-3.949v-3.034
		h32.477v3.034c0,2.178,1.771,3.949,3.948,3.949h1.998c2.178,0,3.948-1.771,3.948-3.949v-3.035c0.854-0.017,1.543-0.717,1.543-1.575
		v-4.041c0-0.137-0.022-0.267-0.056-0.393c0.753-0.37,1.302-1.097,1.4-1.983C60.014,36.77,60.886,26.893,54.74,24.547z
		 M7.188,27.927c0.736-0.143,1.32-0.706,1.488-1.438c1.5-6.518,6.377-13.781,7.855-15.031c0.264-0.016,0.641-0.041,1.201-0.08
		c2.41-0.166,7.426-0.513,12.342-0.513c4.773,0,9.483,0.327,12.014,0.502c0.703,0.05,1.155,0.08,1.457,0.096
		c1.598,1.194,6.266,8.461,7.776,15.026c0.01,0.044,0.029,0.083,0.042,0.125c0.021,0.072,0.043,0.146,0.072,0.215
		c0.025,0.056,0.058,0.106,0.088,0.16c0.029,0.054,0.058,0.108,0.093,0.159c0.034,0.05,0.076,0.094,0.115,0.14
		c0.04,0.048,0.079,0.097,0.124,0.141c0.04,0.038,0.084,0.069,0.127,0.104c0.053,0.043,0.104,0.088,0.162,0.125
		c0.046,0.029,0.095,0.051,0.142,0.076c0.061,0.032,0.12,0.066,0.185,0.092c0.063,0.025,0.131,0.041,0.197,0.06
		c0.048,0.013,0.093,0.032,0.143,0.042c3.444,0.667,3.447,6.83,3.348,8.922c-0.418,0.349-0.683,0.873-0.683,1.458
		c0,0.154,0.023,0.303,0.058,0.445H4.466c0.034-0.143,0.058-0.291,0.058-0.445c0-0.585-0.265-1.109-0.683-1.457
		C3.741,34.753,3.744,28.593,7.188,27.927z M3.505,40.65h53.139v3.397h-0.178H56.05h-7.998h-0.83H14.263h-0.584H5.681H5.019H3.505
		V40.65z M10.679,51.031H8.681c-1.131,0-2.051-0.92-2.051-2.051v-3.034h6.1v3.034C12.729,50.111,11.81,51.031,10.679,51.031z
		 M53.05,51.031h-1.998c-1.131,0-2.051-0.92-2.051-2.051v-3.034h6.1v3.034C55.101,50.111,54.181,51.031,53.05,51.031z"/>
	<path  d="M10.944,36.26c2.061,0,3.736-1.676,3.736-3.736s-1.676-3.736-3.736-3.736s-3.736,1.676-3.736,3.736
		S8.884,36.26,10.944,36.26z M10.944,30.685c1.015,0,1.84,0.825,1.84,1.839s-0.825,1.839-1.84,1.839
		c-1.014,0-1.839-0.825-1.839-1.839S9.931,30.685,10.944,30.685z"/>
	<path  d="M14.439,26.87h31.845c0.361,0,0.703-0.176,0.912-0.468c0.208-0.289,0.267-0.664,0.152-1.018
		c-0.034-0.103-3.647-10.335-5.277-11.5c-0.34-0.242-1.371-0.978-9.938-0.978c-0.62,0-1.143,0.004-1.511,0.007
		c-0.181,0.002-0.379,0.004-0.571,0.026v-0.02c-0.898,0.005-8.84,0.068-10.989,0.815c-2.321,0.808-4.762,8.448-5.702,11.692
		c-0.1,0.339-0.033,0.709,0.184,0.997C13.755,26.704,14.089,26.87,14.439,26.87z M19.687,15.529
		c1.403-0.488,6.973-0.692,10.387-0.71c0.023-0.001,0.854-0.015,2.061-0.015c6.146,0,8.475,0.414,8.82,0.613
		c0.803,0.706,3.193,6.721,4.233,9.554H15.477C16.968,20.094,18.835,15.876,19.687,15.529z"/>
	<path  d="M45.319,32.523c0,2.061,1.676,3.736,3.736,3.736s3.736-1.676,3.736-3.736s-1.676-3.736-3.736-3.736
		S45.319,30.463,45.319,32.523z M49.056,30.685c1.014,0,1.839,0.825,1.839,1.839s-0.825,1.839-1.839,1.839s-1.839-0.825-1.839-1.839
		S48.042,30.685,49.056,30.685z"/>
</g>
</svg>
