<?xml version="1.0" encoding="utf-8"?>
<!-- Generator: Adobe Illustrator 16.0.3, SVG Export Plug-In . SVG Version: 6.00 Build 0)  -->
<!DOCTYPE svg PUBLIC "-//W3C//DTD SVG 1.1//EN" "http://www.w3.org/Graphics/SVG/1.1/DTD/svg11.dtd">
<svg version="1.1" id="Layer_1" xmlns="http://www.w3.org/2000/svg" xmlns:xlink="http://www.w3.org/1999/xlink" x="0px" y="0px"
	 width="60px" height="60px" viewBox="0 0 60 60" enable-background="new 0 0 60 60" xml:space="preserve">
<path  d="M59.416,36.261L37.648,23.335c-0.004-0.001-0.006-0.001-0.008-0.003c0.131-2.021,0.254-4.024,0.361-5.979
	c0.207-3.708,0.754-13.556-7.635-15.299c-0.24-0.05-0.488-0.05-0.729,0c-8.502,1.76-7.885,11.956-7.684,15.306
	c0.119,1.978,0.252,3.979,0.387,5.983L0.586,36.261c-0.531,0.315-0.734,0.981-0.471,1.539l2.131,4.503
	c0.199,0.422,0.623,0.684,1.08,0.684c0.066,0,0.133-0.005,0.199-0.017l19.969-3.382c0.154,2.223,0.307,4.453,0.447,6.664
	l-7.115,2.688c-0.818,0.31-1.295,1.165-1.127,2.023l0.947,4.814c0.176,0.895,0.994,1.517,1.904,1.441l6.094-0.497
	c0.227,0.735,0.912,1.263,1.713,1.263h7.291c0.801,0,1.484-0.527,1.713-1.263l6.09,0.497c0.922,0.079,1.729-0.547,1.904-1.441
	l0.947-4.814c0.17-0.858-0.307-1.714-1.125-2.023l-7.117-2.688c0.139-2.183,0.291-4.422,0.449-6.662l19.965,3.38
	c0.068,0.012,0.135,0.017,0.201,0.017c0.455,0,0.881-0.262,1.08-0.684l2.129-4.503C60.148,37.242,59.945,36.576,59.416,36.261z
	 M4.02,40.462l-1.277-2.701l19.203-11.402l0.705,10.947L4.02,40.462z M40.492,51.759l-0.346,1.755l-6.268-0.511
	c-0.482-0.04-0.955,0.117-1.32,0.433c-0.291,0.253-0.492,0.591-0.574,0.963h-3.963c-0.084-0.372-0.285-0.711-0.576-0.963
	c-0.365-0.315-0.842-0.473-1.318-0.433l-6.271,0.511l-0.344-1.755l6.938-2.62c0.734-0.279,1.203-1.004,1.154-1.789
	c-0.301-4.844-0.658-9.794-1.002-14.582c-0.371-5.146-0.756-10.467-1.066-15.625c-0.422-6.989,0.957-10.558,4.467-11.492
	c3.49,0.928,4.814,4.403,4.42,11.503c-0.307,5.528-0.727,11.437-1.135,17.152c-0.309,4.333-0.627,8.813-0.889,13.044
	c-0.051,0.785,0.42,1.511,1.156,1.789L40.492,51.759z M55.982,40.462l-18.604-3.149l0.723-10.927L57.26,37.761L55.982,40.462z"/>
</svg>
