<?xml version="1.0" encoding="utf-8"?>
<!-- Generator: Adobe Illustrator 16.0.3, SVG Export Plug-In . SVG Version: 6.00 Build 0)  -->
<!DOCTYPE svg PUBLIC "-//W3C//DTD SVG 1.1//EN" "http://www.w3.org/Graphics/SVG/1.1/DTD/svg11.dtd">
<svg version="1.1" id="Layer_1" xmlns="http://www.w3.org/2000/svg" xmlns:xlink="http://www.w3.org/1999/xlink" x="0px" y="0px"
	 width="60px" height="60px" viewBox="0 0 60 60" enable-background="new 0 0 60 60" xml:space="preserve">
<g>
	<path  d="M8.086,0C7.021,0,6.157,0.863,6.157,1.928v56.144C6.157,59.137,7.021,60,8.086,60
		c1.064,0,1.928-0.863,1.928-1.928V1.928C10.014,0.863,9.15,0,8.086,0z"/>
	<path  d="M52.538,14.042L14.319,0.974C13.73,0.773,13.08,0.868,12.573,1.23c-0.506,0.361-0.806,0.946-0.806,1.568
		v26.134c0,0.623,0.3,1.207,0.806,1.569c0.331,0.236,0.725,0.359,1.122,0.359c0.209,0,0.42-0.034,0.624-0.104l38.219-13.067
		c0.78-0.267,1.305-1,1.305-1.825S53.318,14.309,52.538,14.042z M15.623,26.236V5.496l30.331,10.37L15.623,26.236z"/>
</g>
</svg>
