<?xml version="1.0" encoding="utf-8"?>
<!-- Generator: Adobe Illustrator 16.0.3, SVG Export Plug-In . SVG Version: 6.00 Build 0)  -->
<!DOCTYPE svg PUBLIC "-//W3C//DTD SVG 1.1//EN" "http://www.w3.org/Graphics/SVG/1.1/DTD/svg11.dtd">
<svg version="1.1" id="Layer_1" xmlns="http://www.w3.org/2000/svg" xmlns:xlink="http://www.w3.org/1999/xlink" x="0px" y="0px"
	 width="60px" height="60px" viewBox="0 0 60 60" enable-background="new 0 0 60 60" xml:space="preserve">
<g>
	<path  d="M19.682,32.224h-6.827c-0.099,0-0.196,0.01-0.293,0.029c-0.044,0.01-0.086,0.027-0.13,0.039
		c-0.05,0.014-0.1,0.025-0.148,0.045c-0.052,0.023-0.098,0.053-0.146,0.078c-0.037,0.02-0.075,0.037-0.11,0.061
		c-0.164,0.109-0.305,0.25-0.414,0.414c-0.024,0.035-0.041,0.074-0.061,0.111c-0.027,0.049-0.056,0.094-0.077,0.146
		c-0.021,0.049-0.032,0.098-0.047,0.148c-0.013,0.043-0.028,0.086-0.038,0.129c-0.038,0.193-0.038,0.393,0,0.586
		c0.01,0.045,0.025,0.086,0.038,0.129c0.015,0.051,0.026,0.1,0.047,0.15c0.021,0.051,0.05,0.098,0.077,0.145
		c0.02,0.037,0.036,0.076,0.061,0.111c0.055,0.082,0.116,0.16,0.187,0.229l16.739,16.742c0.28,0.279,0.66,0.438,1.057,0.438
		c0.396,0,0.775-0.158,1.056-0.438l16.74-16.742c0.069-0.068,0.132-0.146,0.188-0.229c0.023-0.035,0.04-0.074,0.06-0.111
		c0.026-0.047,0.056-0.094,0.078-0.145c0.02-0.051,0.031-0.1,0.046-0.15c0.012-0.043,0.029-0.084,0.038-0.129
		c0.038-0.193,0.038-0.393,0-0.586c-0.009-0.043-0.026-0.086-0.038-0.129c-0.015-0.051-0.026-0.1-0.046-0.148
		c-0.022-0.053-0.052-0.098-0.078-0.146c-0.02-0.037-0.036-0.076-0.06-0.111c-0.11-0.164-0.251-0.305-0.415-0.414
		c-0.035-0.023-0.073-0.041-0.11-0.061c-0.049-0.025-0.095-0.055-0.146-0.078c-0.049-0.02-0.099-0.031-0.149-0.045
		c-0.043-0.012-0.084-0.029-0.129-0.039c-0.097-0.02-0.195-0.029-0.293-0.029h-6.826v-6.945c0-0.824-0.669-1.494-1.494-1.494
		s-1.494,0.67-1.494,1.494v8.371c0,0.012,0.003,0.021,0.004,0.033c-0.001,0.012-0.004,0.023-0.004,0.035
		c0,0.824,0.669,1.494,1.494,1.494h4.714L29.595,48.347L16.461,35.212h4.715c0.825,0,1.493-0.67,1.493-1.494
		c0-0.012-0.002-0.023-0.003-0.035c0.001-0.012,0.003-0.021,0.003-0.033v-8.371c0-0.824-0.668-1.494-1.493-1.494
		s-1.494,0.67-1.494,1.494V32.224z"/>
	<path  d="M38.015,22.007c0.825,0,1.494-0.67,1.494-1.494v-6.721c0-0.826-0.669-1.494-1.494-1.494
		s-1.494,0.668-1.494,1.494v6.721C36.521,21.337,37.189,22.007,38.015,22.007z"/>
	<path  d="M21.176,22.007c0.825,0,1.493-0.67,1.493-1.494v-6.721c0-0.826-0.668-1.494-1.493-1.494
		s-1.494,0.668-1.494,1.494v6.721C19.682,21.337,20.351,22.007,21.176,22.007z"/>
	<path  d="M57.759,41.351c-1.237,0-2.24,1.002-2.24,2.24v11.928H4.481V43.591c0-1.238-1.003-2.24-2.24-2.24
		C1.003,41.351,0,42.353,0,43.591v14.168c0,1.238,1.003,2.24,2.241,2.24h55.518c1.238,0,2.241-1.002,2.241-2.24V43.591
		C60,42.353,58.997,41.351,57.759,41.351z"/>
	<path  d="M57.759,0.001H2.241C1.003,0.001,0,1.003,0,2.241v15.033c0,1.238,1.003,2.242,2.241,2.242
		c1.237,0,2.24-1.004,2.24-2.242V4.481h15.2v3.691c0,0.826,0.669,1.494,1.494,1.494s1.493-0.668,1.493-1.494V4.481h13.852v3.691
		c0,0.826,0.669,1.494,1.494,1.494s1.494-0.668,1.494-1.494V4.481h16.01v12.793c0,1.238,1.003,2.242,2.24,2.242
		c1.238,0,2.241-1.004,2.241-2.242V2.241C60,1.003,58.997,0.001,57.759,0.001z"/>
</g>
</svg>
