<?xml version="1.0" encoding="utf-8"?>
<!-- Generator: Adobe Illustrator 16.0.3, SVG Export Plug-In . SVG Version: 6.00 Build 0)  -->
<!DOCTYPE svg PUBLIC "-//W3C//DTD SVG 1.1//EN" "http://www.w3.org/Graphics/SVG/1.1/DTD/svg11.dtd">
<svg version="1.1" id="Layer_1" xmlns="http://www.w3.org/2000/svg" xmlns:xlink="http://www.w3.org/1999/xlink" x="0px" y="0px"
	 width="60px" height="60px" viewBox="0 0 60 60" enable-background="new 0 0 60 60" xml:space="preserve">
<g>
	<path  d="M57.155,43.637c-1.258,0-2.277,1.02-2.277,2.278c0,5.255-4.275,9.529-9.529,9.529H14.651
		c-5.254,0-9.529-4.274-9.529-9.529c0-1.259-1.02-2.278-2.277-2.278c-1.259,0-2.278,1.02-2.278,2.278
		C0.566,53.682,6.885,60,14.651,60h30.697c7.767,0,14.085-6.318,14.085-14.085C59.434,44.656,58.414,43.637,57.155,43.637z"/>
	<path  d="M12.981,21.575h6.182v24.013c0,1.258,1.02,2.277,2.278,2.277s2.278-1.02,2.278-2.277V19.297
		c0-1.258-1.02-2.277-2.278-2.277h-2.96L30,5.5l11.519,11.52h-2.958c-1.259,0-2.278,1.09-2.278,2.349v26.22
		c0,1.258,1.02,2.277,2.278,2.277s2.278-1.02,2.278-2.277V21.575h6.181c0.921,0,1.752-0.555,2.104-1.405
		c0.354-0.852,0.158-1.832-0.494-2.483L31.61,0.668c-0.89-0.89-2.331-0.89-3.221,0L11.371,17.687
		c-0.652,0.651-0.847,1.632-0.494,2.483C11.229,21.021,12.06,21.575,12.981,21.575z"/>
</g>
</svg>
