<?xml version="1.0" encoding="utf-8"?>
<!-- Generator: Adobe Illustrator 16.0.3, SVG Export Plug-In . SVG Version: 6.00 Build 0)  -->
<!DOCTYPE svg PUBLIC "-//W3C//DTD SVG 1.1//EN" "http://www.w3.org/Graphics/SVG/1.1/DTD/svg11.dtd">
<svg version="1.1" id="Layer_1" xmlns="http://www.w3.org/2000/svg" xmlns:xlink="http://www.w3.org/1999/xlink" x="0px" y="0px"
	 width="60px" height="60px" viewBox="0 0 60 60" enable-background="new 0 0 60 60" xml:space="preserve">
<g>
	<path  d="M30,52.283c1.238,0,2.241-1.003,2.241-2.241V14.943l12.916,12.915c0.438,0.438,1.012,0.656,1.585,0.656
		s1.147-0.219,1.584-0.656c0.876-0.876,0.876-2.295,0-3.169L31.588,7.951c-0.105-0.105-0.222-0.199-0.346-0.282
		c-0.05-0.034-0.104-0.056-0.156-0.085c-0.075-0.042-0.149-0.088-0.229-0.121c-0.071-0.029-0.146-0.045-0.218-0.067
		c-0.066-0.021-0.131-0.046-0.2-0.06c-0.29-0.057-0.587-0.057-0.877,0c-0.069,0.014-0.134,0.039-0.2,0.06
		c-0.072,0.022-0.146,0.038-0.218,0.067c-0.081,0.033-0.154,0.08-0.23,0.122c-0.051,0.028-0.104,0.051-0.154,0.084
		c-0.124,0.083-0.241,0.177-0.346,0.282L11.676,24.689c-0.876,0.874-0.876,2.294,0,3.169c0.875,0.875,2.293,0.875,3.168,0
		l12.915-12.915v35.099C27.759,51.28,28.762,52.283,30,52.283z"/>
	<path  d="M57.76,0H2.241C1.004,0,0,1.003,0,2.24v14.169c0,1.238,1.004,2.241,2.241,2.241
		c1.238,0,2.241-1.003,2.241-2.241V4.481h51.036v11.928c0,1.238,1.003,2.241,2.241,2.241c1.237,0,2.24-1.003,2.24-2.241V2.24
		C60,1.003,58.997,0,57.76,0z"/>
	<path  d="M57.76,40.483c-1.238,0-2.241,1.003-2.241,2.241v12.793H4.482V42.725c0-1.238-1.003-2.241-2.241-2.241
		C1.004,40.483,0,41.486,0,42.725v15.034C0,58.996,1.004,60,2.241,60H57.76c1.237,0,2.24-1.004,2.24-2.241V42.725
		C60,41.486,58.997,40.483,57.76,40.483z"/>
</g>
</svg>
