<?xml version="1.0" encoding="utf-8"?>
<!-- Generator: Adobe Illustrator 16.0.3, SVG Export Plug-In . SVG Version: 6.00 Build 0)  -->
<!DOCTYPE svg PUBLIC "-//W3C//DTD SVG 1.1//EN" "http://www.w3.org/Graphics/SVG/1.1/DTD/svg11.dtd">
<svg version="1.1" id="Layer_1" xmlns="http://www.w3.org/2000/svg" xmlns:xlink="http://www.w3.org/1999/xlink" x="0px" y="0px"
	 width="60px" height="60px" viewBox="0 0 60 60" enable-background="new 0 0 60 60" xml:space="preserve">
<g>
	<path  d="M31.969,11.717c-0.418-0.418-0.984-0.653-1.575-0.653c-0.592,0-1.158,0.235-1.576,0.653L17.164,23.37
		c-0.871,0.87-0.871,2.282,0,3.152c0.87,0.87,2.281,0.87,3.151,0l7.849-7.849v29.074c0,1.231,0.998,2.229,2.229,2.229
		s2.229-0.998,2.229-2.229V18.674l7.848,7.849c0.436,0.436,1.006,0.653,1.576,0.653s1.141-0.218,1.576-0.653
		c0.871-0.87,0.871-2.281,0-3.152L31.969,11.717z"/>
	<path  d="M30,0C13.458,0,0,13.458,0,30s13.458,30,30,30s30-13.458,30-30S46.542,0,30,0z M30,55.542
		C15.916,55.542,4.458,44.084,4.458,30S15.916,4.458,30,4.458S55.542,15.916,55.542,30S44.084,55.542,30,55.542z"/>
</g>
</svg>
