<?xml version="1.0" encoding="utf-8"?>
<!-- Generator: Adobe Illustrator 16.0.3, SVG Export Plug-In . SVG Version: 6.00 Build 0)  -->
<!DOCTYPE svg PUBLIC "-//W3C//DTD SVG 1.1//EN" "http://www.w3.org/Graphics/SVG/1.1/DTD/svg11.dtd">
<svg version="1.1" id="Layer_1" xmlns="http://www.w3.org/2000/svg" xmlns:xlink="http://www.w3.org/1999/xlink" x="0px" y="0px"
	 width="60px" height="60px" viewBox="0 0 60 60" enable-background="new 0 0 60 60" xml:space="preserve">
<g>
	<path  d="M55.71,29.853c-2.765-2.765-6.44-4.287-10.351-4.287c-3.911,0-7.588,1.522-10.352,4.288
		c-2.766,2.765-4.289,6.441-4.29,10.353c0,3.91,1.522,7.587,4.288,10.352c2.766,2.766,6.441,4.288,10.352,4.288
		c3.911,0,7.588-1.522,10.353-4.288C58.476,47.793,60,44.116,60,40.206C60,36.295,58.476,32.618,55.71,29.853z M53.227,48.074
		c-2.102,2.102-4.896,3.259-7.869,3.259c-2.972,0-5.766-1.157-7.867-3.259c-2.103-2.102-3.26-4.896-3.26-7.868
		c0-2.973,1.158-5.768,3.261-7.869c2.102-2.102,4.896-3.259,7.868-3.259c2.972,0,5.766,1.157,7.867,3.259
		c2.103,2.102,3.26,4.896,3.26,7.869C56.486,43.178,55.329,45.973,53.227,48.074z"/>
	<path  d="M52.624,39.116H38.257c-0.646,0-1.171,0.523-1.171,1.171c0,0.646,0.524,1.171,1.171,1.171h14.367
		c0.647,0,1.171-0.524,1.171-1.171S53.271,39.116,52.624,39.116z"/>
	<path  d="M27.591,44.136H12.326c-4.86,0-8.813-3.954-8.813-8.813c0-3.121,1.607-5.946,4.301-7.559
		c0.554-0.33,0.881-0.938,0.854-1.581l-0.013-0.205c-0.002-0.042-0.007-0.084-0.007-0.126c0-4.793,3.899-8.692,8.692-8.692
		c0.53,0,1.08,0.054,1.637,0.16c0.848,0.16,1.685-0.315,1.979-1.126c1.637-4.501,5.956-7.525,10.747-7.525
		c6.148,0,11.165,4.809,11.421,10.948c0.037,0.898,0.747,1.623,1.644,1.68c2.943,0.187,5.669,1.486,7.674,3.66
		c0.658,0.713,1.77,0.759,2.482,0.1c0.713-0.657,0.758-1.769,0.101-2.481c-2.276-2.467-5.263-4.073-8.528-4.612
		C45.46,10.669,39.23,5.154,31.703,5.154c-5.784,0-11.043,3.373-13.498,8.524c-0.291-0.021-0.579-0.032-0.865-0.032
		c-6.551,0-11.912,5.187-12.193,11.669C1.905,27.629,0,31.299,0,35.322c0,6.796,5.529,12.326,12.326,12.326h15.265
		c0.971,0,1.757-0.786,1.757-1.757C29.348,44.922,28.562,44.136,27.591,44.136z"/>
</g>
</svg>
