<?xml version="1.0" encoding="utf-8"?>
<!-- Generator: Adobe Illustrator 16.0.3, SVG Export Plug-In . SVG Version: 6.00 Build 0)  -->
<!DOCTYPE svg PUBLIC "-//W3C//DTD SVG 1.1//EN" "http://www.w3.org/Graphics/SVG/1.1/DTD/svg11.dtd">
<svg version="1.1" id="Layer_1" xmlns="http://www.w3.org/2000/svg" xmlns:xlink="http://www.w3.org/1999/xlink" x="0px" y="0px"
	 width="60px" height="60px" viewBox="0 0 60 60" enable-background="new 0 0 60 60" xml:space="preserve">
<g>
	<path  d="M45.087,17.078c0.045-0.02,0.085-0.045,0.127-0.066c0.033-0.018,0.066-0.033,0.097-0.053
		c0.144-0.096,0.266-0.219,0.362-0.361c0.02-0.031,0.034-0.064,0.052-0.098c0.022-0.041,0.048-0.082,0.067-0.127
		c0.018-0.043,0.027-0.086,0.04-0.129c0.011-0.039,0.025-0.074,0.034-0.113c0.032-0.168,0.032-0.342,0-0.51
		c-0.009-0.039-0.023-0.076-0.034-0.113c-0.013-0.043-0.022-0.088-0.04-0.129c-0.02-0.045-0.045-0.086-0.067-0.129
		c-0.018-0.031-0.032-0.064-0.052-0.096c-0.049-0.072-0.104-0.139-0.164-0.199L30.92,0.365c-0.488-0.488-1.353-0.488-1.841,0
		l-14.588,14.59c-0.061,0.061-0.115,0.127-0.164,0.199c-0.02,0.031-0.034,0.064-0.052,0.096c-0.022,0.043-0.048,0.084-0.067,0.129
		c-0.018,0.041-0.027,0.086-0.04,0.129c-0.011,0.037-0.025,0.074-0.034,0.113c-0.032,0.168-0.032,0.342,0,0.51
		c0.009,0.039,0.023,0.074,0.034,0.113c0.013,0.043,0.022,0.086,0.04,0.129c0.02,0.045,0.045,0.086,0.067,0.127
		c0.018,0.033,0.032,0.066,0.052,0.098c0.097,0.143,0.219,0.266,0.362,0.361c0.03,0.02,0.063,0.035,0.097,0.053
		c0.042,0.021,0.082,0.047,0.127,0.066c0.043,0.018,0.086,0.027,0.13,0.041c0.038,0.01,0.074,0.025,0.113,0.033
		c0.084,0.016,0.169,0.025,0.255,0.025h5.949v6.053c0,0.719,0.582,1.303,1.302,1.303c0.719,0,1.302-0.584,1.302-1.303v-7.293
		c0-0.012-0.003-0.021-0.003-0.031s0.003-0.02,0.003-0.031c0-0.719-0.583-1.301-1.302-1.301h-4.108L29.999,3.127l11.447,11.447
		h-4.108c-0.719,0-1.302,0.582-1.302,1.301c0,0.012,0.003,0.021,0.003,0.031s-0.003,0.02-0.003,0.031v7.293
		c0,0.719,0.583,1.303,1.302,1.303c0.72,0,1.302-0.584,1.302-1.303v-6.053h5.949c0.086,0,0.172-0.01,0.255-0.025
		c0.039-0.008,0.075-0.023,0.113-0.033C45.001,17.105,45.044,17.096,45.087,17.078z"/>
	<path  d="M37.338,26.082c-0.719,0-1.302,0.584-1.302,1.303v5.855c0,0.721,0.583,1.303,1.302,1.303
		c0.72,0,1.302-0.582,1.302-1.303v-5.855C38.64,26.666,38.058,26.082,37.338,26.082z"/>
	<path  d="M22.662,26.082c-0.72,0-1.302,0.584-1.302,1.303v5.855c0,0.721,0.582,1.303,1.302,1.303
		c0.719,0,1.302-0.582,1.302-1.303v-5.855C23.964,26.666,23.381,26.082,22.662,26.082z"/>
	<path  d="M37.338,36.836c-0.719,0-1.302,0.582-1.302,1.301v4.615c0,0.721,0.583,1.303,1.302,1.303
		c0.72,0,1.302-0.582,1.302-1.303v-4.615C38.64,37.418,38.058,36.836,37.338,36.836z"/>
	<path  d="M22.662,36.836c-0.72,0-1.302,0.582-1.302,1.301v4.615c0,0.721,0.582,1.303,1.302,1.303
		c0.719,0,1.302-0.582,1.302-1.303v-4.615C23.964,37.418,23.381,36.836,22.662,36.836z"/>
	<path  d="M37.338,46.734c-0.719,0-1.302,0.584-1.302,1.303v2.643c0,0.719,0.583,1.301,1.302,1.301
		c0.72,0,1.302-0.582,1.302-1.301v-2.643C38.64,47.318,38.058,46.734,37.338,46.734z"/>
	<path  d="M22.662,46.734c-0.72,0-1.302,0.584-1.302,1.303v2.643c0,0.719,0.582,1.301,1.302,1.301
		c0.719,0,1.302-0.582,1.302-1.301v-2.643C23.964,47.318,23.381,46.734,22.662,46.734z"/>
	<path  d="M37.338,55.988c-0.719,0-1.302,0.584-1.302,1.303v1.406c0,0.721,0.583,1.303,1.302,1.303
		c0.72,0,1.302-0.582,1.302-1.303v-1.406C38.64,56.572,38.058,55.988,37.338,55.988z"/>
	<path  d="M22.662,55.988c-0.72,0-1.302,0.584-1.302,1.303v1.406c0,0.721,0.582,1.303,1.302,1.303
		c0.719,0,1.302-0.582,1.302-1.303v-1.406C23.964,56.572,23.381,55.988,22.662,55.988z"/>
</g>
</svg>
