<?xml version="1.0" encoding="utf-8"?>
<!-- Generator: Adobe Illustrator 16.0.3, SVG Export Plug-In . SVG Version: 6.00 Build 0)  -->
<!DOCTYPE svg PUBLIC "-//W3C//DTD SVG 1.1//EN" "http://www.w3.org/Graphics/SVG/1.1/DTD/svg11.dtd">
<svg version="1.1" id="Layer_1" xmlns="http://www.w3.org/2000/svg" xmlns:xlink="http://www.w3.org/1999/xlink" x="0px" y="0px"
	 width="60px" height="60px" viewBox="0 0 60 60" enable-background="new 0 0 60 60" xml:space="preserve">
<g>
	<path  d="M55.711,29.853c-2.765-2.765-6.44-4.287-10.351-4.287c-3.911,0-7.588,1.522-10.353,4.287
		c-2.766,2.766-4.289,6.442-4.289,10.354c0,3.91,1.522,7.587,4.288,10.352c2.765,2.766,6.441,4.288,10.352,4.288
		c3.911,0,7.588-1.522,10.353-4.288C58.477,47.793,60,44.116,60,40.206C60,36.295,58.477,32.618,55.711,29.853z M53.228,48.074
		c-2.102,2.102-4.896,3.259-7.869,3.259c-2.972,0-5.767-1.157-7.868-3.259s-3.259-4.896-3.259-7.868
		c0-2.973,1.158-5.768,3.261-7.869c2.102-2.102,4.896-3.259,7.868-3.259c2.972,0,5.766,1.157,7.867,3.259
		c2.103,2.102,3.26,4.896,3.26,7.869C56.487,43.178,55.33,45.973,53.228,48.074z"/>
	<path  d="M52.625,39.116h-6.013v-6.012c0-0.646-0.524-1.171-1.171-1.171s-1.171,0.524-1.171,1.171v6.012h-6.013
		c-0.646,0-1.171,0.523-1.171,1.171c0,0.646,0.524,1.171,1.171,1.171h6.013v6.014c0,0.646,0.524,1.171,1.171,1.171
		s1.171-0.524,1.171-1.171v-6.014h6.013c0.646,0,1.171-0.524,1.171-1.171S53.271,39.116,52.625,39.116z"/>
	<path  d="M27.592,44.136H12.327c-4.86,0-8.813-3.954-8.813-8.813c0-3.121,1.607-5.946,4.301-7.559
		c0.556-0.332,0.883-0.942,0.854-1.588l-0.012-0.19c-0.003-0.044-0.008-0.089-0.008-0.134c0-4.793,3.899-8.692,8.692-8.692
		c0.529,0,1.08,0.054,1.636,0.16c0.848,0.16,1.686-0.315,1.98-1.126c1.637-4.501,5.956-7.525,10.748-7.525
		c6.147,0,11.164,4.809,11.419,10.948c0.037,0.898,0.747,1.623,1.645,1.68c2.943,0.187,5.669,1.486,7.675,3.66
		c0.658,0.713,1.769,0.758,2.481,0.1c0.713-0.657,0.758-1.769,0.101-2.481c-2.276-2.468-5.263-4.073-8.529-4.612
		C45.46,10.669,39.231,5.154,31.705,5.154c-5.785,0-11.043,3.373-13.499,8.524C11.258,13.167,5.44,18.55,5.146,25.315
		C1.906,27.629,0,31.299,0,35.322c0,6.796,5.53,12.326,12.327,12.326h15.265c0.97,0,1.756-0.786,1.756-1.757
		C29.348,44.922,28.562,44.136,27.592,44.136z"/>
</g>
</svg>
