<?xml version="1.0" encoding="utf-8"?>
<!-- Generator: Adobe Illustrator 16.0.3, SVG Export Plug-In . SVG Version: 6.00 Build 0)  -->
<!DOCTYPE svg PUBLIC "-//W3C//DTD SVG 1.1//EN" "http://www.w3.org/Graphics/SVG/1.1/DTD/svg11.dtd">
<svg version="1.1" id="Layer_1" xmlns="http://www.w3.org/2000/svg" xmlns:xlink="http://www.w3.org/1999/xlink" x="0px" y="0px"
	 width="60px" height="60px" viewBox="0 0 60 60" enable-background="new 0 0 60 60" xml:space="preserve">
<g>
	<path  d="M59.921,42.275c-0.035-0.097-3.533-9.798-7.078-19.353C45.341,2.708,45.12,2.708,43.893,2.708
		c-0.671,0-1.384,0.509-1.384,1.454v38.57c0,0.742,0.604,1.346,1.346,1.346h14.801c0.436,0,0.848-0.213,1.102-0.573
		C60.006,43.149,60.068,42.692,59.921,42.275z M44.528,42.06V6.88c1.557,3.703,4.275,10.96,6.422,16.745
		c2.916,7.859,5.8,15.817,6.746,18.435H44.528z"/>
	<path  d="M37.917,42.732V4.162c0-0.843-0.739-1.454-1.758-1.454c-1.333,0-2.003,0-16.824,19.965
		c-6.262,8.437-12.377,16.882-14.103,19.27l-0.068,0.094c-0.397,0.563-0.257,1.3,0.325,1.713c0.3,0.212,0.703,0.329,1.135,0.329
		h29.611C37.21,44.078,37.917,43.512,37.917,42.732z M35.898,42.06L7.642,42.055c2.375-3.28,7.787-10.733,13.313-18.179
		c5.607-7.554,13.093-17.513,14.943-18.982V42.06z"/>
	<path  d="M54.842,45.872H41.729V1.346C41.729,0.603,41.127,0,40.384,0s-1.346,0.603-1.346,1.346v44.526H13.58
		c-2.253,0-2.895,1.526-3.038,1.999c-0.402,1.325-1.008,3.328,11.609,11.74C22.537,59.866,22.985,60,23.448,60h24.891
		c0.601,0,1.173-0.226,1.616-0.642c9.024-8.515,8.209-10.568,7.771-11.671C57.274,46.551,56.196,45.872,54.842,45.872z
		 M47.667,55.963H23.959c-3.976-2.671-6.572-4.712-8.048-6.054h37.273C52.223,51.263,50.328,53.413,47.667,55.963z"/>
</g>
</svg>
