<?xml version="1.0" encoding="utf-8"?>
<!-- Generator: Adobe Illustrator 16.0.3, SVG Export Plug-In . SVG Version: 6.00 Build 0)  -->
<!DOCTYPE svg PUBLIC "-//W3C//DTD SVG 1.1//EN" "http://www.w3.org/Graphics/SVG/1.1/DTD/svg11.dtd">
<svg version="1.1" id="Layer_1" xmlns="http://www.w3.org/2000/svg" xmlns:xlink="http://www.w3.org/1999/xlink" x="0px" y="0px"
	 width="60px" height="60px" viewBox="0 0 60 60" enable-background="new 0 0 60 60" xml:space="preserve">
<g>
	<path  d="M28.355,51.251c0.108,0.108,0.227,0.206,0.354,0.291c0.024,0.017,0.053,0.027,0.078,0.042
		c0.104,0.064,0.207,0.125,0.32,0.172c0.042,0.018,0.088,0.025,0.131,0.041c0.1,0.034,0.197,0.07,0.302,0.092
		c0.15,0.03,0.304,0.046,0.459,0.046c0.156,0,0.31-0.016,0.459-0.046c0.104-0.021,0.202-0.058,0.302-0.092
		c0.044-0.016,0.089-0.023,0.131-0.041c0.113-0.047,0.218-0.107,0.32-0.172c0.025-0.015,0.054-0.025,0.078-0.042
		c0.128-0.085,0.247-0.183,0.354-0.291l17.344-17.343c0.907-0.906,0.907-2.378,0-3.284c-0.907-0.907-2.377-0.907-3.283,0
		L32.322,44.006V3.769c0-1.283-1.039-2.322-2.322-2.322c-1.282,0-2.322,1.039-2.322,2.322v40.237L14.296,30.624
		c-0.907-0.907-2.376-0.907-3.283,0c-0.907,0.906-0.907,2.377,0,3.284L28.355,51.251z"/>
	<path  d="M57.679,41.875c-1.283,0-2.322,1.039-2.322,2.322c0,5.355-4.356,9.713-9.712,9.713H14.356
		c-5.355,0-9.712-4.357-9.712-9.713c0-1.283-1.039-2.322-2.322-2.322C1.04,41.875,0,42.914,0,44.197
		c0,7.916,6.44,14.356,14.356,14.356h31.288c7.916,0,14.355-6.44,14.355-14.356C60,42.914,58.961,41.875,57.679,41.875z"/>
</g>
</svg>
