<?xml version="1.0" encoding="utf-8"?>
<!-- Generator: Adobe Illustrator 16.0.3, SVG Export Plug-In . SVG Version: 6.00 Build 0)  -->
<!DOCTYPE svg PUBLIC "-//W3C//DTD SVG 1.1//EN" "http://www.w3.org/Graphics/SVG/1.1/DTD/svg11.dtd">
<svg version="1.1" id="Layer_1" xmlns="http://www.w3.org/2000/svg" xmlns:xlink="http://www.w3.org/1999/xlink" x="0px" y="0px"
	 width="60px" height="60px" viewBox="0 0 60 60" enable-background="new 0 0 60 60" xml:space="preserve">
<g>
	<path  d="M24.08,53.788c0.074,0.076,0.158,0.144,0.248,0.203c0.035,0.023,0.074,0.04,0.111,0.061
		c0.055,0.03,0.107,0.063,0.166,0.088c0.051,0.021,0.104,0.032,0.156,0.048c0.049,0.015,0.094,0.033,0.145,0.043
		c0.104,0.021,0.209,0.031,0.314,0.031s0.213-0.011,0.316-0.031c0.049-0.01,0.096-0.028,0.143-0.043
		c0.053-0.016,0.107-0.027,0.158-0.048c0.057-0.024,0.109-0.057,0.164-0.087c0.037-0.021,0.076-0.037,0.113-0.062
		c0.088-0.06,0.172-0.127,0.248-0.203l11.143-11.143c0.629-0.629,0.629-1.649,0-2.279c-0.631-0.63-1.65-0.63-2.281,0l-8.391,8.393
		v-23.99c0-0.891-0.723-1.612-1.613-1.612s-1.611,0.722-1.611,1.612v23.989l-8.393-8.393c-0.629-0.63-1.648-0.63-2.279,0
		c-0.629,0.629-0.629,1.649,0,2.279L24.08,53.788z"/>
	<path  d="M23.174,20.177c0.414,0,0.826-0.157,1.141-0.472l8.393-8.393v23.99c0,0.891,0.721,1.612,1.611,1.612
		s1.613-0.722,1.613-1.612v-23.99l8.391,8.394c0.314,0.314,0.729,0.472,1.141,0.472s0.824-0.157,1.141-0.472
		c0.629-0.629,0.629-1.649,0-2.279L35.461,6.283c-0.076-0.076-0.158-0.144-0.248-0.203c-0.039-0.027-0.084-0.045-0.125-0.067
		c-0.051-0.028-0.098-0.059-0.152-0.081s-0.111-0.035-0.168-0.052c-0.045-0.013-0.086-0.03-0.133-0.039
		c-0.104-0.021-0.209-0.032-0.316-0.032c-0.105,0-0.211,0.011-0.314,0.032c-0.051,0.009-0.096,0.028-0.145,0.042
		c-0.053,0.016-0.105,0.027-0.156,0.049c-0.059,0.023-0.111,0.057-0.166,0.088c-0.037,0.02-0.076,0.036-0.111,0.06
		c-0.09,0.061-0.174,0.128-0.248,0.204L22.035,17.426c-0.629,0.629-0.629,1.65,0,2.279C22.35,20.02,22.762,20.177,23.174,20.177z"/>
	<path  d="M58.389,0H1.613C0.723,0,0,0.722,0,1.612v56.775C0,59.278,0.723,60,1.613,60h56.775
		C59.279,60,60,59.278,60,58.388V1.612C60,0.722,59.279,0,58.389,0z M56.775,56.776H3.225V3.224h53.551V56.776z"/>
</g>
</svg>
