<?xml version="1.0" encoding="utf-8"?>
<!-- Generator: Adobe Illustrator 16.0.3, SVG Export Plug-In . SVG Version: 6.00 Build 0)  -->
<!DOCTYPE svg PUBLIC "-//W3C//DTD SVG 1.1//EN" "http://www.w3.org/Graphics/SVG/1.1/DTD/svg11.dtd">
<svg version="1.1" id="Layer_1" xmlns="http://www.w3.org/2000/svg" xmlns:xlink="http://www.w3.org/1999/xlink" x="0px" y="0px"
	 width="60px" height="60px" viewBox="0 0 60 60" enable-background="new 0 0 60 60" xml:space="preserve">
<path  d="M30,0C13.458,0,0,13.458,0,30s13.458,30,30,30s30-13.458,30-30S46.542,0,30,0z M30,55
	c-1.896,0-3.739-0.219-5.515-0.62c0.892-2.231,1.359-4.613,1.359-7.019c0-10.489-8.533-19.022-19.021-19.022
	c-0.584,0-1.175,0.041-1.77,0.1c0.134-2.154,0.541-4.233,1.188-6.207h47.516c0.641,1.953,1.046,4.011,1.184,6.142
	c-0.259-0.011-0.519-0.034-0.774-0.034c-10.488,0-19.021,8.533-19.021,19.022c0,2.324,0.436,4.632,1.27,6.8
	C34.366,54.706,32.218,55,30,55z M30,5c9.799,0,18.294,5.67,22.391,13.897H7.609C11.706,10.67,20.201,5,30,5z M5.071,31.783
	c0.591-0.071,1.177-0.11,1.752-0.11c8.65,0,15.688,7.038,15.688,15.688c0,2.082-0.425,4.144-1.236,6.064
	C12.312,50.076,5.776,41.724,5.071,31.783z M39.576,53.089c-0.718-1.823-1.098-3.769-1.098-5.728c0-8.65,7.038-15.688,15.688-15.688
	c0.253,0,0.512,0.024,0.768,0.038C54.278,41.365,48.122,49.531,39.576,53.089z"/>
</svg>
