<?xml version="1.0" encoding="utf-8"?>
<!-- Generator: Adobe Illustrator 16.0.3, SVG Export Plug-In . SVG Version: 6.00 Build 0)  -->
<!DOCTYPE svg PUBLIC "-//W3C//DTD SVG 1.1//EN" "http://www.w3.org/Graphics/SVG/1.1/DTD/svg11.dtd">
<svg version="1.1" id="Layer_1" xmlns="http://www.w3.org/2000/svg" xmlns:xlink="http://www.w3.org/1999/xlink" x="0px" y="0px"
	 width="60px" height="60px" viewBox="0 0 60 60" enable-background="new 0 0 60 60" xml:space="preserve">
<g>
	<path  d="M21.902,12.038c0.505,0,1.01-0.192,1.396-0.578l4.72-4.72v16.615c0,1.091,0.884,1.975,1.974,1.975
		c1.091,0,1.975-0.884,1.975-1.975V6.74l4.721,4.72c0.771,0.771,2.02,0.771,2.791,0c0.771-0.771,0.771-2.021,0-2.792L31.39,0.58
		C31.033,0.222,30.538,0,29.991,0c-0.546,0-1.041,0.222-1.398,0.58l-8.087,8.088c-0.771,0.771-0.771,2.021,0,2.792
		C20.892,11.846,21.397,12.038,21.902,12.038z"/>
	<path  d="M55.409,17.507H39.55c-1.091,0-1.975,0.884-1.975,1.974c0,1.091,0.884,1.975,1.975,1.975h15.859
		c0.322,0,0.585,0.263,0.585,0.584V48.76c0,0.322-0.263,0.584-0.585,0.584H4.59c-0.322,0-0.583-0.262-0.583-0.584V22.039
		c0-0.321,0.261-0.584,0.583-0.584h15.349c1.091,0,1.975-0.884,1.975-1.975c0-1.09-0.884-1.974-1.975-1.974H4.59
		c-2.499,0-4.532,2.033-4.532,4.532V48.76c0,2.499,2.033,4.532,4.532,4.532h23.428v2.759h-6.115c-1.091,0-1.975,0.884-1.975,1.975
		S20.812,60,21.902,60h16.18c1.091,0,1.975-0.884,1.975-1.975s-0.884-1.975-1.975-1.975h-6.116v-2.759h23.443
		c2.5,0,4.533-2.033,4.533-4.532V22.039C59.942,19.54,57.909,17.507,55.409,17.507z"/>
</g>
</svg>
