<?xml version="1.0" encoding="utf-8"?>
<!-- Generator: Adobe Illustrator 16.0.3, SVG Export Plug-In . SVG Version: 6.00 Build 0)  -->
<!DOCTYPE svg PUBLIC "-//W3C//DTD SVG 1.1//EN" "http://www.w3.org/Graphics/SVG/1.1/DTD/svg11.dtd">
<svg version="1.1" id="Layer_1" xmlns="http://www.w3.org/2000/svg" xmlns:xlink="http://www.w3.org/1999/xlink" x="0px" y="0px"
	 width="60px" height="60px" viewBox="0 0 60 60" enable-background="new 0 0 60 60" xml:space="preserve">
<path  d="M35.528,18.333c-7.843,0-16.213,1.326-22.337,3.503l-2.113-6.475c-0.209-0.643-0.809-1.077-1.484-1.077
	H5.227c-0.863,0-1.562,0.699-1.562,1.562v11.188l0.002,0.389c-0.703,0.082-1.457,0.182-2.313,0.297C0.579,27.822,0,28.484,0,29.266
	v1.828c0,0.793,0.594,1.459,1.38,1.553c1.047,0.121,1.967,0.217,2.831,0.293c0.465,0.814,1.139,1.574,1.979,2.287v4.094
	c0,0.236,0.107,0.461,0.293,0.609c0.14,0.111,0.312,0.172,0.487,0.172c0.058,0,0.115-0.006,0.172-0.02l5.709-1.279
	c4.351,1.582,9.765,2.635,15.262,3.125v0.635c0,0.43,0.351,0.781,0.781,0.781h0.234v1.592c0,0.432,0.35,0.781,0.78,0.781h7.252
	c0.299,0,0.571-0.17,0.702-0.438l0.944-1.936h0.22c0.431,0,0.781-0.352,0.781-0.781v-0.469c3.911-0.262,8.324-0.914,12.098-2.377
	C58.596,37.123,60,33.182,60,30.332C60,23.043,50.395,18.333,35.528,18.333z M7.751,38.346v-1.975
	c0.775,0.494,1.635,0.963,2.572,1.398L7.751,38.346z M37.617,42.219l-0.944,1.936h-5.983v-1.592c0-0.17-0.056-0.328-0.149-0.455
	c1.55,0.09,3.095,0.139,4.612,0.139c0,0,0,0,0.001,0c0.773,0,1.605-0.014,2.476-0.045C37.625,42.209,37.62,42.213,37.617,42.219z
	 M50.776,36.805c-3.853,1.494-9.401,2.316-15.624,2.316c-13.594,0-26.884-3.826-28.442-8.189c-0.086-0.238-0.225-0.447-0.401-0.613
	c0.332-0.018,0.666-0.029,1.014-0.037c0.249,0,0.499-0.004,0.736-0.008c0.835,0,1.786,0.025,3.12,0.084
	c0.175,0.066,0.362,0.102,0.553,0.102c0.633,0,1.573-0.459,1.573-1.719c0-0.414-0.164-0.811-0.458-1.104
	c-0.293-0.293-0.689-0.457-1.104-0.457c-0.09,0-0.187,0.01-0.286,0.029c-0.707-0.076-1.357-0.086-1.816-0.086
	c-0.398,0-0.796,0.01-1.194,0.018L8.04,27.15c-0.271,0-0.533,0.002-0.753,0.008c-0.175,0-0.341-0.004-0.498-0.008l-0.001-9.744H8.46
	l2.271,6.955c0.134,0.412,0.435,0.75,0.827,0.934c0.394,0.182,0.845,0.193,1.246,0.029c5.86-2.387,14.568-3.869,22.725-3.869
	c14.668,0,21.348,4.602,21.348,8.877C56.876,33.057,54.824,35.234,50.776,36.805z"/>
</svg>
