<?xml version="1.0" encoding="utf-8"?>
<!-- Generator: Adobe Illustrator 16.0.3, SVG Export Plug-In . SVG Version: 6.00 Build 0)  -->
<!DOCTYPE svg PUBLIC "-//W3C//DTD SVG 1.1//EN" "http://www.w3.org/Graphics/SVG/1.1/DTD/svg11.dtd">
<svg version="1.1" id="Layer_1" xmlns="http://www.w3.org/2000/svg" xmlns:xlink="http://www.w3.org/1999/xlink" x="0px" y="0px"
	 width="60px" height="60px" viewBox="0 0 60 60" enable-background="new 0 0 60 60" xml:space="preserve">
<g>
	<path  d="M36.755,42.792L26.362,53.185V23.477c0-1.103-0.894-1.996-1.996-1.996s-1.996,0.894-1.996,1.996v29.708
		L11.978,42.791c-0.78-0.78-2.043-0.78-2.822,0c-0.78,0.779-0.78,2.043,0,2.822l13.797,13.799c0.094,0.095,0.197,0.179,0.309,0.253
		c0.044,0.029,0.092,0.049,0.138,0.074c0.067,0.038,0.133,0.079,0.205,0.108c0.062,0.026,0.129,0.04,0.194,0.06
		c0.059,0.019,0.116,0.041,0.178,0.053c0.129,0.026,0.26,0.04,0.391,0.04s0.262-0.014,0.391-0.04
		c0.062-0.012,0.118-0.034,0.178-0.053c0.065-0.02,0.132-0.033,0.194-0.06c0.071-0.029,0.138-0.07,0.205-0.107
		c0.046-0.026,0.094-0.046,0.138-0.075c0.111-0.074,0.215-0.158,0.309-0.253l13.798-13.797c0.779-0.779,0.779-2.044,0-2.823
		C38.798,42.013,37.535,42.013,36.755,42.792z"/>
	<path  d="M50.845,14.385L37.046,0.586c-0.094-0.094-0.196-0.178-0.308-0.252c-0.044-0.03-0.093-0.05-0.139-0.075
		c-0.067-0.038-0.133-0.078-0.204-0.108c-0.063-0.025-0.13-0.04-0.194-0.06c-0.061-0.018-0.116-0.041-0.179-0.053
		c-0.258-0.051-0.522-0.051-0.781,0c-0.062,0.012-0.118,0.035-0.178,0.053c-0.064,0.02-0.131,0.034-0.194,0.06
		c-0.072,0.03-0.138,0.071-0.205,0.109c-0.046,0.024-0.094,0.045-0.138,0.074c-0.111,0.074-0.215,0.158-0.309,0.252L20.421,14.384
		c-0.78,0.779-0.78,2.043,0,2.822c0.39,0.391,0.9,0.585,1.411,0.585s1.021-0.194,1.411-0.585L33.636,6.813v29.708
		c0,1.103,0.894,1.996,1.996,1.996c1.104,0,1.996-0.894,1.996-1.996V6.813l10.394,10.395c0.39,0.39,0.9,0.584,1.411,0.584
		s1.021-0.194,1.412-0.584C51.624,16.429,51.624,15.165,50.845,14.385z"/>
</g>
</svg>
