<?xml version="1.0" encoding="utf-8"?>
<!-- Generator: Adobe Illustrator 16.0.3, SVG Export Plug-In . SVG Version: 6.00 Build 0)  -->
<!DOCTYPE svg PUBLIC "-//W3C//DTD SVG 1.1//EN" "http://www.w3.org/Graphics/SVG/1.1/DTD/svg11.dtd">
<svg version="1.1" id="Layer_1" xmlns="http://www.w3.org/2000/svg" xmlns:xlink="http://www.w3.org/1999/xlink" x="0px" y="0px"
	 width="60px" height="60px" viewBox="0 0 60 60" enable-background="new 0 0 60 60" xml:space="preserve">
<g>
	<path  d="M30.308,25.905c0.936,0,1.816-0.364,2.479-1.026c1.365-1.366,1.365-3.59,0-4.956
		c-0.662-0.66-1.542-1.024-2.478-1.024s-1.815,0.363-2.479,1.025c-1.365,1.367-1.364,3.59,0.001,4.955
		C28.492,25.541,29.372,25.905,30.308,25.905z M29.535,21.63c0.206-0.207,0.481-0.319,0.773-0.319s0.566,0.112,0.771,0.318
		c0.426,0.426,0.426,1.119,0,1.544c-0.412,0.413-1.132,0.413-1.543,0.001C29.111,22.748,29.111,22.055,29.535,21.63z"/>
	<path  d="M22.789,26.254c-0.936,0-1.815,0.364-2.478,1.025c-0.661,0.662-1.025,1.542-1.025,2.479
		c0,0.936,0.364,1.815,1.025,2.479c0.662,0.66,1.542,1.024,2.477,1.024c0.938,0,1.818-0.365,2.479-1.026
		c0.663-0.663,1.027-1.543,1.026-2.479c0-0.936-0.364-1.816-1.026-2.476C24.605,26.618,23.726,26.254,22.789,26.254z M23.562,30.529
		c-0.412,0.412-1.134,0.414-1.543,0.002c-0.207-0.207-0.32-0.481-0.32-0.773s0.112-0.565,0.319-0.772
		c0.206-0.205,0.48-0.319,0.771-0.319c0.292,0,0.565,0.113,0.772,0.321c0.207,0.205,0.32,0.479,0.32,0.77
		C23.882,30.049,23.769,30.323,23.562,30.529z"/>
	<path  d="M40.619,32.235c0.663-0.662,1.027-1.542,1.028-2.479c0-0.937-0.364-1.815-1.025-2.477
		c-0.662-0.662-1.542-1.026-2.479-1.026c-0.936,0-1.816,0.364-2.479,1.026c-1.365,1.365-1.365,3.589,0,4.957
		c0.662,0.66,1.541,1.023,2.477,1.023C39.079,33.261,39.959,32.896,40.619,32.235z M37.371,28.985
		c0.206-0.206,0.481-0.32,0.772-0.32c0.292,0,0.566,0.114,0.772,0.321c0.206,0.205,0.319,0.479,0.319,0.771
		s-0.113,0.566-0.321,0.772c-0.411,0.412-1.132,0.412-1.542,0.002C36.945,30.104,36.945,29.411,37.371,28.985z"/>
	<path  d="M30.309,34.416c-0.936,0-1.816,0.364-2.478,1.026c-0.661,0.661-1.025,1.541-1.026,2.477
		c0,0.937,0.364,1.817,1.025,2.478c0.661,0.662,1.542,1.026,2.478,1.026s1.816-0.364,2.479-1.025
		c0.661-0.661,1.025-1.542,1.026-2.478c0-0.937-0.365-1.816-1.026-2.478C32.125,34.78,31.244,34.416,30.309,34.416z M31.08,38.691
		c-0.412,0.412-1.131,0.415-1.544-0.001c-0.207-0.205-0.319-0.479-0.319-0.771c0-0.291,0.113-0.566,0.32-0.772
		c0.206-0.207,0.48-0.319,0.771-0.319s0.565,0.112,0.771,0.32c0.207,0.205,0.32,0.479,0.32,0.771
		C31.4,38.211,31.287,38.485,31.08,38.691z"/>
	<path  d="M51.213,8.787C45.547,3.121,38.013,0,30,0S14.453,3.121,8.787,8.787
		C-2.909,20.484-2.909,39.517,8.788,51.213C14.454,56.88,21.987,60,30.001,60c8.012,0,15.546-3.12,21.212-8.787
		C62.909,39.516,62.909,20.484,51.213,8.787z M54.21,23.132c-0.027,0.005-0.056,0.004-0.083,0.01
		c-1.157,0.262-2.346,0.395-3.532,0.395c-4.234,0-8.211-1.645-11.196-4.631c-3.501-3.501-5.139-8.342-4.493-13.281
		c0.014-0.107,0.016-0.216,0.008-0.322c4.853,0.955,9.313,3.321,12.89,6.896C50.948,15.345,53.081,19.125,54.21,23.132z
		 M32.481,53.353c-1.97,0.197-3.957,0.144-5.904-0.156c0.814-5.908-1.143-11.815-5.399-16.071
		c-3.788-3.789-8.924-5.785-14.312-5.553c-0.079-1.299-0.05-2.604,0.088-3.899c0.579,0.054,1.161,0.079,1.742,0.079
		c5.094,0,9.88-1.98,13.478-5.578c4.015-4.016,6.009-9.604,5.5-15.22c1.294-0.138,2.596-0.167,3.896-0.088
		c-0.242,5.352,1.735,10.494,5.554,14.312c3.593,3.595,8.378,5.573,13.471,5.573c0.869,0,1.74-0.06,2.603-0.177
		c0.303,1.957,0.355,3.935,0.156,5.907c-0.63-0.063-1.263-0.095-1.895-0.095c-5.096,0-9.885,1.983-13.485,5.585
		C33.908,42.036,31.918,47.684,32.481,53.353z M12.197,12.197c3.373-3.372,7.537-5.664,12.071-6.714
		c-0.009,0.127-0.007,0.256,0.017,0.384c0.919,5.121-0.72,10.367-4.386,14.033c-2.989,2.989-6.969,4.636-11.203,4.636
		c-0.946,0-1.898-0.085-2.83-0.252c-0.123-0.021-0.246-0.023-0.368-0.018C6.524,19.841,8.756,15.641,12.197,12.197z M5.319,34.914
		c0.1,0.006,0.201,0.004,0.304-0.009c0.687-0.09,1.386-0.136,2.078-0.136c4.239,0,8.218,1.645,11.203,4.63
		c3.864,3.864,5.449,9.369,4.237,14.727c-0.008,0.033-0.007,0.066-0.013,0.099c-4.091-1.154-7.842-3.334-10.931-6.422
		C8.544,44.147,6.253,39.64,5.319,34.914z M47.803,47.803c-3.335,3.334-7.441,5.612-11.915,6.681
		c-0.003-0.019-0.002-0.035-0.005-0.053c-0.979-5.169,0.651-10.473,4.364-14.185c2.994-2.993,6.975-4.643,11.212-4.643
		c0.995,0,1.995,0.095,2.973,0.279c0.013,0.002,0.024,0.001,0.037,0.003C53.426,40.256,51.205,44.398,47.803,47.803z"/>
</g>
</svg>
