<?xml version="1.0" encoding="utf-8"?>
<!-- Generator: Adobe Illustrator 16.0.3, SVG Export Plug-In . SVG Version: 6.00 Build 0)  -->
<!DOCTYPE svg PUBLIC "-//W3C//DTD SVG 1.1//EN" "http://www.w3.org/Graphics/SVG/1.1/DTD/svg11.dtd">
<svg version="1.1" id="Layer_1" xmlns="http://www.w3.org/2000/svg" xmlns:xlink="http://www.w3.org/1999/xlink" x="0px" y="0px"
	 width="60px" height="60px" viewBox="0 0 60 60" enable-background="new 0 0 60 60" xml:space="preserve">
<g>
	<path  d="M15.297,18.64c0.504,0,1.006-0.192,1.391-0.577L28.031,6.72v27.547c0,1.088,0.881,1.969,1.969,1.969
		s1.969-0.881,1.969-1.969V6.72l11.344,11.343c0.77,0.769,2.014,0.769,2.783,0s0.77-2.015,0-2.783L31.395,0.578
		c-0.094-0.093-0.195-0.175-0.305-0.248C31.047,0.301,31,0.281,30.953,0.256c-0.066-0.037-0.131-0.077-0.201-0.106
		c-0.062-0.025-0.127-0.04-0.191-0.06c-0.059-0.018-0.115-0.04-0.176-0.052c-0.254-0.051-0.516-0.051-0.77,0
		c-0.061,0.012-0.117,0.034-0.178,0.052c-0.062,0.02-0.127,0.034-0.189,0.06c-0.072,0.029-0.137,0.069-0.203,0.106
		C29,0.281,28.953,0.301,28.91,0.33c-0.109,0.073-0.213,0.155-0.305,0.248L13.904,15.279c-0.77,0.769-0.77,2.015,0,2.783
		C14.289,18.447,14.793,18.64,15.297,18.64z"/>
	<path  d="M50.912,38.162H9.088c-2.49,0-4.518,2.026-4.518,4.519v12.801C4.57,57.974,6.598,60,9.088,60h41.824
		c2.49,0,4.518-2.026,4.518-4.519V42.681C55.43,40.188,53.402,38.162,50.912,38.162z M51.494,55.481
		c0,0.321-0.262,0.582-0.582,0.582H9.088c-0.32,0-0.582-0.261-0.582-0.582V42.681c0-0.321,0.262-0.582,0.582-0.582h41.824
		c0.32,0,0.582,0.261,0.582,0.582V55.481z"/>
	<path  d="M47.402,51.53H11.92c-0.545,0-0.984,0.44-0.984,0.984c0,0.543,0.439,0.983,0.984,0.983h35.482
		c0.543,0,0.984-0.44,0.984-0.983C48.387,51.971,47.945,51.53,47.402,51.53z"/>
	<path  d="M11.92,50.229h3.111c0.543,0,0.984-0.44,0.984-0.983v-3.112c0-0.543-0.441-0.984-0.984-0.984H11.92
		c-0.545,0-0.984,0.441-0.984,0.984v3.112C10.936,49.789,11.375,50.229,11.92,50.229z M12.902,47.118h1.145v1.144h-1.145V47.118z"/>
	<path  d="M18.611,50.229h3.111c0.545,0,0.984-0.44,0.984-0.983v-3.112c0-0.543-0.439-0.984-0.984-0.984h-3.111
		c-0.543,0-0.984,0.441-0.984,0.984v3.112C17.627,49.789,18.068,50.229,18.611,50.229z M19.596,47.118h1.145v1.144h-1.145V47.118z"
		/>
</g>
</svg>
