<?xml version="1.0" encoding="utf-8"?>
<!-- Generator: Adobe Illustrator 16.0.3, SVG Export Plug-In . SVG Version: 6.00 Build 0)  -->
<!DOCTYPE svg PUBLIC "-//W3C//DTD SVG 1.1//EN" "http://www.w3.org/Graphics/SVG/1.1/DTD/svg11.dtd">
<svg version="1.1" id="Layer_1" xmlns="http://www.w3.org/2000/svg" xmlns:xlink="http://www.w3.org/1999/xlink" x="0px" y="0px"
	 width="60px" height="60px" viewBox="0 0 60 60" enable-background="new 0 0 60 60" xml:space="preserve">
<g>
	<path  d="M53.998,35.506c0.021-0.054,0.035-0.108,0.051-0.163c0.014-0.046,0.031-0.091,0.041-0.138
		c0.02-0.104,0.031-0.21,0.031-0.316l0,0c0,0,0-0.002,0-0.004c0-0.104-0.012-0.208-0.031-0.312c-0.01-0.05-0.029-0.097-0.045-0.146
		c-0.016-0.052-0.025-0.104-0.047-0.154c-0.025-0.059-0.057-0.112-0.088-0.167c-0.021-0.037-0.037-0.075-0.061-0.11
		c-0.059-0.09-0.127-0.174-0.203-0.249L42.504,22.604c-0.629-0.63-1.648-0.63-2.279,0c-0.629,0.629-0.629,1.649,0,2.279l8.393,8.394
		h-23.99c-0.891,0-1.611,0.721-1.611,1.611s0.721,1.612,1.611,1.612h23.99l-8.395,8.393c-0.629,0.629-0.629,1.649,0,2.279
		c0.314,0.314,0.729,0.472,1.141,0.472s0.824-0.157,1.141-0.472L53.646,36.03c0.076-0.075,0.145-0.158,0.203-0.248
		c0.025-0.038,0.043-0.078,0.064-0.118C53.943,35.612,53.975,35.561,53.998,35.506z"/>
	<path  d="M11.17,27.82h23.992c0.891,0,1.611-0.722,1.611-1.612c0-0.89-0.721-1.611-1.611-1.611H11.17l8.395-8.393
		c0.631-0.629,0.631-1.649,0-2.279c-0.629-0.63-1.65-0.63-2.279,0L6.141,25.066c-0.076,0.076-0.143,0.159-0.203,0.248
		c-0.025,0.038-0.041,0.079-0.062,0.118c-0.029,0.053-0.062,0.104-0.084,0.159C5.768,25.645,5.756,25.7,5.74,25.755
		c-0.014,0.046-0.031,0.09-0.041,0.138c-0.021,0.104-0.033,0.21-0.033,0.315s0.012,0.212,0.033,0.315
		c0.01,0.049,0.027,0.095,0.041,0.142c0.016,0.054,0.029,0.108,0.051,0.159c0.021,0.057,0.055,0.108,0.084,0.162
		c0.021,0.038,0.037,0.078,0.062,0.115c0.061,0.09,0.127,0.173,0.203,0.248l11.143,11.143c0.314,0.314,0.727,0.473,1.141,0.473
		c0.412,0,0.824-0.158,1.139-0.473c0.629-0.629,0.629-1.65,0-2.279L11.17,27.82z"/>
	<path  d="M30,0C13.459,0,0,13.458,0,30s13.459,30,30,30c16.543,0,30-13.458,30-30S46.543,0,30,0z M30,56.776
		C15.236,56.776,3.225,44.764,3.225,30S15.236,3.224,30,3.224S56.777,15.236,56.777,30S44.764,56.776,30,56.776z"/>
</g>
</svg>
