<?xml version="1.0" encoding="utf-8"?>
<!-- Generator: Adobe Illustrator 16.0.3, SVG Export Plug-In . SVG Version: 6.00 Build 0)  -->
<!DOCTYPE svg PUBLIC "-//W3C//DTD SVG 1.1//EN" "http://www.w3.org/Graphics/SVG/1.1/DTD/svg11.dtd">
<svg version="1.1" id="Layer_1" xmlns="http://www.w3.org/2000/svg" xmlns:xlink="http://www.w3.org/1999/xlink" x="0px" y="0px"
	 width="60px" height="60px" viewBox="0 0 60 60" enable-background="new 0 0 60 60" xml:space="preserve">
<g>
	<path  d="M28.687,36.245c0.106,0.107,0.225,0.202,0.351,0.286c0.05,0.034,0.104,0.057,0.156,0.085
		c0.077,0.043,0.151,0.09,0.233,0.124c0.071,0.029,0.147,0.046,0.221,0.067c0.067,0.021,0.133,0.047,0.202,0.061
		c0.146,0.029,0.295,0.045,0.444,0.045s0.298-0.016,0.444-0.045c0.07-0.014,0.135-0.039,0.202-0.061
		c0.074-0.021,0.148-0.038,0.221-0.067c0.081-0.034,0.156-0.08,0.233-0.123c0.052-0.029,0.106-0.052,0.157-0.086
		c0.126-0.084,0.243-0.179,0.35-0.286l12.246-12.246c0.887-0.886,0.887-2.324,0-3.209c-0.886-0.887-2.322-0.887-3.209,0
		l-8.375,8.374V2.27c0-1.254-1.016-2.27-2.27-2.27s-2.27,1.016-2.27,2.27v26.895l-8.375-8.374c-0.886-0.887-2.323-0.887-3.209,0
		c-0.887,0.885-0.887,2.323,0,3.209L28.687,36.245z"/>
	<path  d="M2.261,42.812h55.478c0.836,0,1.514-0.677,1.514-1.513c0-0.835-0.678-1.513-1.514-1.513H2.261
		c-0.835,0-1.513,0.678-1.513,1.513C0.748,42.135,1.426,42.812,2.261,42.812z"/>
	<path  d="M57.738,48.557H2.261c-0.835,0-1.513,0.678-1.513,1.514c0,0.835,0.678,1.513,1.513,1.513h55.478
		c0.836,0,1.514-0.678,1.514-1.513C59.252,49.234,58.574,48.557,57.738,48.557z"/>
	<path  d="M57.738,56.974H2.261c-0.835,0-1.513,0.678-1.513,1.514C0.748,59.322,1.426,60,2.261,60h55.478
		c0.836,0,1.514-0.678,1.514-1.513C59.252,57.651,58.574,56.974,57.738,56.974z"/>
</g>
</svg>
