<?xml version="1.0" encoding="utf-8"?>
<!-- Generator: Adobe Illustrator 16.0.3, SVG Export Plug-In . SVG Version: 6.00 Build 0)  -->
<!DOCTYPE svg PUBLIC "-//W3C//DTD SVG 1.1//EN" "http://www.w3.org/Graphics/SVG/1.1/DTD/svg11.dtd">
<svg version="1.1" id="Layer_1" xmlns="http://www.w3.org/2000/svg" xmlns:xlink="http://www.w3.org/1999/xlink" x="0px" y="0px"
	 width="60px" height="60px" viewBox="0 0 60 60" enable-background="new 0 0 60 60" xml:space="preserve">
<g>
	<path  d="M14.058,37.568c-1.019,0-1.979,0.396-2.705,1.119c-0.72,0.723-1.117,1.682-1.117,2.703
		c0,1.021,0.397,1.98,1.12,2.705c0.723,0.721,1.683,1.117,2.702,1.117c1.021,0,1.981-0.397,2.704-1.119
		c0.721-0.723,1.117-1.683,1.117-2.703s-0.396-1.98-1.119-2.704C16.038,37.966,15.078,37.568,14.058,37.568z M15.355,42.688
		c-0.693,0.693-1.902,0.691-2.596,0.001c-0.346-0.347-0.537-0.808-0.537-1.299s0.191-0.952,0.535-1.296
		c0.349-0.348,0.811-0.539,1.3-0.539c0.49,0,0.951,0.191,1.297,0.536c0.347,0.348,0.537,0.809,0.537,1.299
		S15.701,42.342,15.355,42.688z"/>
	<path  d="M50.041,37.568c-1.021,0-1.98,0.396-2.705,1.119c-0.721,0.723-1.117,1.683-1.117,2.703
		s0.396,1.98,1.119,2.704c0.723,0.721,1.683,1.118,2.703,1.118s1.98-0.397,2.703-1.119c0.721-0.723,1.117-1.683,1.117-2.703
		s-0.396-1.98-1.118-2.704C52.021,37.966,51.062,37.568,50.041,37.568z M51.338,42.688c-0.692,0.693-1.902,0.691-2.595,0.001
		c-0.347-0.348-0.537-0.809-0.537-1.299s0.19-0.951,0.535-1.297c0.348-0.347,0.81-0.538,1.3-0.538s0.951,0.191,1.296,0.536
		c0.347,0.348,0.537,0.809,0.537,1.299S51.684,42.342,51.338,42.688z"/>
	<path  d="M50.014,20.761h-6.128c-0.412,0-0.745,0.334-0.745,0.745v7.971c0,0.411,0.333,0.745,0.745,0.745H54.4
		c0.004,0,0.008,0,0.01,0c0.412,0,0.745-0.334,0.745-0.745c0-0.055-0.006-0.108-0.017-0.159
		C54.949,26.11,52.402,20.761,50.014,20.761z M44.631,28.73v-6.479h5.383c0.967,0,3.128,3.495,3.567,6.479H44.631z"/>
	<path  d="M9.142,38.017c-0.299-0.12-0.622-0.084-0.879,0.068H4.709v-1.73c0.129-0.159,0.206-0.359,0.217-0.577H36.58
		c0.67,0,1.216-0.545,1.216-1.215V17.498c0-0.67-0.546-1.215-1.216-1.215h-6.243c-0.069-0.609-0.517-1.051-1.095-1.051H28.01
		c-0.184-0.271-0.489-0.445-0.842-0.445h-1.721c-0.344,0-0.65,0.176-0.836,0.445h-1.311c-0.568,0-1.023,0.449-1.095,1.051H17.55
		c-0.071-0.602-0.526-1.051-1.096-1.051h-1.231c-0.185-0.271-0.49-0.445-0.842-0.445H12.66c-0.345,0-0.65,0.176-0.836,0.445h-1.311
		c-0.568,0-1.023,0.449-1.095,1.051H5.16c-0.793,0-1.953,0.271-2.976,1.565c-2.25,2.85-2.644,9.194-1.72,13.439
		c0.009,0.038,0.02,0.076,0.032,0.113l0.816,2.361c0.019,0.052,0.04,0.102,0.066,0.15c0.448,0.823,0.954,1.297,1.439,1.562
		c-0.062,0.146-0.098,0.308-0.098,0.477v2.906c0,0.67,0.545,1.215,1.215,1.215h4.629c0.499,0,0.941-0.3,1.128-0.763
		C9.897,38.801,9.651,38.222,9.142,38.017z M3.744,19.08c0.431-0.545,0.894-0.81,1.416-0.81h5.242c0.549,0,0.994-0.445,0.994-0.994
		V17.22h1.23c0.346,0,0.65-0.177,0.828-0.444h0.13c0.179,0.268,0.482,0.444,0.828,0.444h1.158v0.057
		c0,0.549,0.445,0.994,0.994,0.994h6.625c0.549,0,0.993-0.445,0.993-0.994V17.22h1.23c0.346,0,0.65-0.177,0.828-0.444h0.13
		c0.179,0.268,0.482,0.444,0.829,0.444h1.157v0.057c0,0.549,0.445,0.994,0.994,0.994h6.456v15.52H3.988
		c-0.334,0-0.647-0.448-0.824-0.759l-0.77-2.223C1.596,27.066,1.949,21.353,3.744,19.08z"/>
	<path  d="M59.549,35.014c0.104-0.22,0.165-0.463,0.165-0.723v-4.206c0-2.563-4.084-13.501-8.852-13.501h-8.136
		c-2.312,0-3.926,1.387-3.926,3.372v14.335c0,0.944,0.768,1.713,1.712,1.713h17.32c0.037,0.129,0.097,0.25,0.18,0.352v4.635h-1.716
		c-0.144-0.127-0.324-0.213-0.528-0.239c-0.545-0.067-1.043,0.312-1.114,0.856c-0.045,0.348,0.062,0.698,0.289,0.953
		c0.229,0.266,0.563,0.417,0.916,0.417h2.926c0.67,0,1.215-0.545,1.215-1.215v-5.812C60,35.572,59.821,35.237,59.549,35.014z
		 M56.732,33.022h-14.95V19.956c0-0.38,0.848-0.391,0.944-0.391h8.136c1.883,0,5.87,8.243,5.87,10.52V33.022z"/>
	<path  d="M45.141,41.043c0-0.411-0.334-0.745-0.746-0.745c-0.411,0-0.745,0.334-0.745,0.745
		c0,0.134,0.006,0.271,0.017,0.418h-23.28c0.012-0.148,0.017-0.286,0.017-0.418c0-0.411-0.334-0.745-0.745-0.745
		s-0.745,0.334-0.745,0.745c0,0.168-0.014,0.356-0.039,0.578c-0.041,0.336,0.065,0.675,0.291,0.93c0.225,0.255,0.549,0.4,0.889,0.4
		H44c0.338,0,0.661-0.146,0.889-0.399c0.224-0.253,0.33-0.591,0.291-0.932C45.152,41.403,45.141,41.215,45.141,41.043z"/>
</g>
</svg>
