<?xml version="1.0" encoding="utf-8"?>
<!-- Generator: Adobe Illustrator 16.0.3, SVG Export Plug-In . SVG Version: 6.00 Build 0)  -->
<!DOCTYPE svg PUBLIC "-//W3C//DTD SVG 1.1//EN" "http://www.w3.org/Graphics/SVG/1.1/DTD/svg11.dtd">
<svg version="1.1" id="Layer_1" xmlns="http://www.w3.org/2000/svg" xmlns:xlink="http://www.w3.org/1999/xlink" x="0px" y="0px"
	 width="60px" height="60px" viewBox="0 0 60 60" enable-background="new 0 0 60 60" xml:space="preserve">
<g>
	<path  d="M59.555,31.242c-0.507-0.809-1.353-1.273-2.32-1.273h-5.211c0.012-0.074,0.022-0.15,0.022-0.227V18.381
		c0-0.797-0.647-1.445-1.444-1.445h-7.208V7.072c0-0.645-0.523-1.166-1.166-1.166H32.007c-0.644,0-1.167,0.521-1.167,1.166v9.863
		H18.086c-0.797,0-1.445,0.648-1.445,1.445v11.361c0,0.076,0.011,0.152,0.023,0.227H2.862c-1.115,0-2.035,0.537-2.523,1.473
		c-0.72,1.385-0.704,3.809,4.244,12.098c2.688,4.504,5.734,8.873,6.312,9.695c0.374,0.537,0.989,0.859,1.646,0.859h38.604
		c0.767,0,1.476-0.447,1.801-1.127C58.814,40.924,61.038,33.613,59.555,31.242z M32.519,7.584h9.196v9.352h-9.196V7.584z
		 M18.879,19.174h30.93v9.775h-30.93V19.174z M50.296,50.738H13.245c-5.429-7.793-9.531-15.055-9.87-17.414h53.349
		C56.794,35.512,54.121,42.779,50.296,50.738z"/>
	<path  d="M12.976,42.529c1.902,0,3.449-1.547,3.449-3.449c0-1.9-1.547-3.447-3.449-3.447
		c-1.902,0-3.449,1.547-3.449,3.447C9.527,40.982,11.074,42.529,12.976,42.529z M12.976,37.311c0.977,0,1.771,0.793,1.771,1.77
		s-0.795,1.771-1.771,1.771c-0.976,0-1.771-0.795-1.771-1.771S12,37.311,12.976,37.311z"/>
</g>
</svg>
