<?xml version="1.0" encoding="utf-8"?>
<!-- Generator: Adobe Illustrator 16.0.3, SVG Export Plug-In . SVG Version: 6.00 Build 0)  -->
<!DOCTYPE svg PUBLIC "-//W3C//DTD SVG 1.1//EN" "http://www.w3.org/Graphics/SVG/1.1/DTD/svg11.dtd">
<svg version="1.1" id="Layer_1" xmlns="http://www.w3.org/2000/svg" xmlns:xlink="http://www.w3.org/1999/xlink" x="0px" y="0px"
	 width="60px" height="60px" viewBox="0 0 60 60" enable-background="new 0 0 60 60" xml:space="preserve">
<g>
	<path  d="M31.311,35.522c-0.775-0.752-1.795-1.165-2.878-1.165c-1.107,0-2.146,0.431-2.928,1.214
		c-0.777,0.779-1.205,1.818-1.205,2.925c0,1.072,0.401,2.077,1.132,2.846c0.023,0.028,0.048,0.056,0.074,0.081
		c0.78,0.78,1.819,1.209,2.927,1.209c1.104,0,2.144-0.43,2.928-1.211c0.781-0.78,1.211-1.819,1.211-2.925
		c0-1.104-0.43-2.144-1.21-2.926C31.346,35.554,31.328,35.538,31.311,35.522z M29.785,39.842c-0.707,0.704-1.925,0.723-2.646,0.058
		c-0.018-0.02-0.036-0.039-0.055-0.058c-0.357-0.356-0.555-0.834-0.555-1.346c0-0.513,0.197-0.992,0.554-1.351
		c0.717-0.719,1.977-0.719,2.698,0.003c0.012,0.011,0.022,0.021,0.033,0.031c0.339,0.356,0.525,0.822,0.525,1.316
		C30.341,39.006,30.143,39.484,29.785,39.842z"/>
	<path  d="M46.459,35.493c-0.77-0.733-1.774-1.136-2.843-1.136c-1.107,0-2.146,0.431-2.929,1.214
		c-0.779,0.783-1.209,1.821-1.209,2.925c0,1.082,0.412,2.102,1.164,2.878c0.016,0.017,0.03,0.033,0.047,0.049
		c0.779,0.78,1.819,1.209,2.927,1.209c1.104,0,2.143-0.43,2.921-1.209c0.782-0.779,1.213-1.818,1.213-2.927
		c0-1.106-0.428-2.146-1.205-2.925C46.518,35.543,46.489,35.517,46.459,35.493z M44.961,39.845c-0.71,0.71-1.944,0.717-2.661,0.033
		c-0.011-0.012-0.021-0.022-0.032-0.033c-0.36-0.361-0.559-0.84-0.559-1.349s0.199-0.989,0.559-1.351
		c0.717-0.717,1.976-0.719,2.692,0.001c0.019,0.02,0.039,0.038,0.06,0.056c0.323,0.353,0.5,0.809,0.5,1.294
		C45.52,39.007,45.322,39.484,44.961,39.845z"/>
	<path  d="M44.17,25.096c-0.066-0.015-0.135-0.016-0.203-0.022v-3.141c0-0.616-0.499-1.116-1.115-1.116h-4.928v-6.353
		c0.169,0.4,0.565,0.683,1.028,0.683h2.842c0.615,0,1.115-0.5,1.115-1.116V7.21c0-0.616-0.5-1.115-1.115-1.115h-2.842
		c-0.588,0-1.07,0.455-1.112,1.032c-0.923,0.048-1.768,0.203-2.522,0.465c-2.597,0.897-4.083,2.824-4.302,5.598l-0.01,0.185
		c-0.001,0.02-0.002,0.039-0.002,0.06v7.383h-4.376c-0.616,0-1.115,0.5-1.115,1.116v3.332c-3.398,0.849-6.412,2.123-8.847,3.749
		l-1.942-4.111c-0.276-0.585-0.866-0.959-1.513-0.959H7.433c-0.481,0-0.938,0.207-1.256,0.568c-0.317,0.361-0.464,0.842-0.403,1.318
		l1.284,9.976H4.86c0.532-1.335,1.031-3.037,0.934-4.584c-0.159-2.619-1.668-4.032-3.007-4.032c-0.669,0-1.284,0.327-1.729,0.922
		c-1.106,1.477-1.092,4.419,0.04,8.284c0.013,0.046,0.04,0.084,0.06,0.126c-0.19,0.271-0.304,0.601-0.304,0.958v1.653
		c0,0.409,0.153,0.78,0.397,1.071c-0.004,0.007-0.009,0.012-0.013,0.02c-0.62,1.398-1.337,3.45-1.227,5.277
		c0.162,2.618,1.671,4.031,3.01,4.031c0.67,0,1.285-0.328,1.73-0.924c1.059-1.413,1.087-4.174,0.092-7.803h2.273L5.773,51.244
		c-0.061,0.477,0.086,0.957,0.403,1.318c0.318,0.361,0.775,0.568,1.256,0.568h5.778c0.647,0,1.236-0.373,1.513-0.959l1.607-3.401
		c4.661,3.242,11.519,5.135,18.849,5.135c13.918,0,24.82-6.544,24.82-14.898C60,32.763,53.786,27.302,44.17,25.096z M2.396,29.115
		c0.125-0.167,0.257-0.253,0.39-0.253c0.485,0,1.241,0.877,1.337,2.462c0.066,1.053-0.242,2.458-0.872,4H2.534
		C1.608,31.866,1.841,29.855,2.396,29.115z M3.413,47.606c-0.125,0.168-0.257,0.252-0.391,0.252c-0.486,0-1.243-0.876-1.34-2.459
		c-0.063-1.051,0.246-2.457,0.875-4h0.717C4.2,44.856,3.967,46.865,3.413,47.606z M32.12,23.048c0.615,0,1.115-0.5,1.115-1.115
		v-8.471l0.007-0.125c0.147-1.87,1.038-3.026,2.805-3.637c0.797-0.276,1.763-0.395,2.86-0.349c0.306,0.011,0.599-0.101,0.817-0.311
		c0.197-0.189,0.317-0.444,0.34-0.716h0.613v4.59h-0.61c-0.002-0.583-0.453-1.067-1.036-1.109c-0.908-0.065-1.623,0-2.194,0.197
		c-0.617,0.213-1.029,0.71-1.131,1.363c-0.009,0.057-0.014,0.114-0.014,0.172v8.395c0,0.615,0.5,1.115,1.116,1.115h4.928v2.006
		H27.743v-2.006H32.12z M35.18,50.56c-7.504,0-14.367-2.111-18.358-5.647c-0.309-0.274-0.705-0.421-1.11-0.421
		c-0.112,0-0.225,0.011-0.336,0.034c-0.516,0.105-0.952,0.447-1.177,0.924l-2.048,4.335H9.335l1.344-10.438
		c0.049-0.384-0.036-0.77-0.237-1.094c0.157-0.301,0.22-0.645,0.176-0.987L9.335,27.29h2.815l2.363,5.002
		c0.222,0.47,0.648,0.81,1.155,0.92c0.506,0.111,1.036-0.02,1.434-0.353c2.371-1.99,5.704-3.53,9.648-4.46h16.853
		c7.814,1.84,13.05,6.089,13.05,10.607C56.653,45.269,46.819,50.56,35.18,50.56z"/>
</g>
</svg>
