<?xml version="1.0" encoding="utf-8"?>
<!-- Generator: Adobe Illustrator 16.0.3, SVG Export Plug-In . SVG Version: 6.00 Build 0)  -->
<!DOCTYPE svg PUBLIC "-//W3C//DTD SVG 1.1//EN" "http://www.w3.org/Graphics/SVG/1.1/DTD/svg11.dtd">
<svg version="1.1" id="Layer_1" xmlns="http://www.w3.org/2000/svg" xmlns:xlink="http://www.w3.org/1999/xlink" x="0px" y="0px"
	 width="60px" height="60px" viewBox="0 0 60 60" enable-background="new 0 0 60 60" xml:space="preserve">
<g>
	<path  d="M30.856,47.823c0.08-0.033,0.153-0.078,0.229-0.12c0.052-0.029,0.105-0.053,0.155-0.085
		c0.125-0.083,0.241-0.178,0.346-0.283l11.796-11.796c0.876-0.875,0.876-2.294,0-3.169c-0.875-0.876-2.293-0.876-3.168,0
		l-7.975,7.974V14.57c0-1.238-1.002-2.241-2.24-2.241s-2.241,1.003-2.241,2.241v25.773l-7.974-7.974
		c-0.876-0.876-2.294-0.876-3.17,0c-0.875,0.875-0.875,2.294,0,3.169l11.797,11.796c0.105,0.105,0.223,0.2,0.346,0.283
		c0.05,0.032,0.104,0.056,0.155,0.084c0.075,0.042,0.149,0.087,0.23,0.121c0.071,0.029,0.145,0.046,0.218,0.067
		c0.066,0.02,0.131,0.046,0.2,0.06c0.145,0.028,0.291,0.044,0.438,0.044s0.294-0.016,0.438-0.044c0.069-0.014,0.134-0.04,0.2-0.06
		C30.711,47.869,30.785,47.853,30.856,47.823z"/>
	<path  d="M57.758,51.035c-1.237,0-2.24,1.004-2.24,2.241v2.241h-2.241c-1.237,0-2.241,1.003-2.241,2.241
		c0,1.237,1.004,2.241,2.241,2.241h4.481C58.996,60,60,58.996,60,57.759v-4.482C60,52.039,58.996,51.035,57.758,51.035z"/>
	<path  d="M25.344,55.518h-9.311c-1.238,0-2.241,1.003-2.241,2.241c0,1.237,1.003,2.241,2.241,2.241h9.311
		c1.238,0,2.24-1.004,2.24-2.241C27.584,56.521,26.582,55.518,25.344,55.518z"/>
	<path  d="M43.965,55.518h-9.311c-1.237,0-2.24,1.003-2.24,2.241c0,1.237,1.003,2.241,2.24,2.241h9.311
		c1.238,0,2.241-1.004,2.241-2.241C46.206,56.521,45.203,55.518,43.965,55.518z"/>
	<path  d="M6.723,55.518H4.481v-2.241c0-1.237-1.003-2.241-2.241-2.241S0,52.039,0,53.276v4.482
		C0,58.996,1.002,60,2.24,60h4.482c1.238,0,2.24-1.004,2.24-2.241C8.963,56.521,7.961,55.518,6.723,55.518z"/>
	<path  d="M2.24,46.207c1.238,0,2.241-1.003,2.241-2.241v-9.311c0-1.237-1.003-2.241-2.241-2.241S0,33.418,0,34.655
		v9.311C0,45.204,1.002,46.207,2.24,46.207z"/>
	<path  d="M2.24,27.586c1.238,0,2.241-1.003,2.241-2.241v-9.311c0-1.238-1.003-2.241-2.241-2.241S0,14.796,0,16.034
		v9.311C0,26.583,1.002,27.586,2.24,27.586z"/>
	<path  d="M6.723,0H2.24C1.002,0,0,1.004,0,2.241v4.482c0,1.237,1.002,2.241,2.24,2.241s2.241-1.004,2.241-2.241
		V4.482h2.241c1.238,0,2.24-1.003,2.24-2.241C8.963,1.004,7.961,0,6.723,0z"/>
	<path  d="M16.033,4.482h9.311c1.238,0,2.24-1.003,2.24-2.241c0-1.237-1.002-2.241-2.24-2.241h-9.311
		c-1.238,0-2.241,1.004-2.241,2.241C13.792,3.479,14.795,4.482,16.033,4.482z"/>
	<path  d="M43.965,0h-9.311c-1.237,0-2.24,1.004-2.24,2.241c0,1.238,1.003,2.241,2.24,2.241h9.311
		c1.238,0,2.241-1.003,2.241-2.241C46.206,1.004,45.203,0,43.965,0z"/>
	<path  d="M57.758,0h-4.481c-1.237,0-2.241,1.004-2.241,2.241c0,1.238,1.004,2.241,2.241,2.241h2.241v2.241
		c0,1.237,1.003,2.241,2.24,2.241C58.996,8.965,60,7.961,60,6.724V2.241C60,1.004,58.996,0,57.758,0z"/>
	<path  d="M57.758,32.414c-1.237,0-2.24,1.003-2.24,2.24v9.312c0,1.238,1.003,2.241,2.24,2.241
		c1.238,0,2.242-1.003,2.242-2.241v-9.312C60,33.417,58.996,32.414,57.758,32.414z"/>
	<path  d="M57.758,13.793c-1.237,0-2.24,1.003-2.24,2.241v9.311c0,1.237,1.003,2.241,2.24,2.241
		c1.238,0,2.242-1.004,2.242-2.241v-9.311C60,14.796,58.996,13.793,57.758,13.793z"/>
</g>
</svg>
