<?xml version="1.0" encoding="utf-8"?>
<!-- Generator: Adobe Illustrator 16.0.3, SVG Export Plug-In . SVG Version: 6.00 Build 0)  -->
<!DOCTYPE svg PUBLIC "-//W3C//DTD SVG 1.1//EN" "http://www.w3.org/Graphics/SVG/1.1/DTD/svg11.dtd">
<svg version="1.1" id="Layer_1" xmlns="http://www.w3.org/2000/svg" xmlns:xlink="http://www.w3.org/1999/xlink" x="0px" y="0px"
	 width="512px" height="512px" viewBox="0 0 512 512" enable-background="new 0 0 512 512" xml:space="preserve">
<g>
	<g>
		<g>
			<path fill-rule="evenodd" clip-rule="evenodd" fill="#F05622" d="M256.006,1C115.156,1,1,115.158,1,256s114.156,255,255.006,255
				C396.833,511,511,396.842,511,256S396.833,1,256.006,1z"/>
		</g>
	</g>
	<g>
		<g>
			<rect x="152.979" y="108.818" fill-rule="evenodd" clip-rule="evenodd" fill="#8D0C0F" width="206.064" height="294.364"/>
		</g>
	</g>
	<g>
		<g>
			<rect x="118.383" y="146.984" fill-rule="evenodd" clip-rule="evenodd" fill="#8D0C0F" width="275.234" height="29.432"/>
		</g>
	</g>
	<g>
		<g>
			<rect x="118.383" y="194.125" fill-rule="evenodd" clip-rule="evenodd" fill="#8D0C0F" width="275.234" height="29.455"/>
		</g>
	</g>
	<g>
		<g>
			<rect x="118.383" y="241.278" fill-rule="evenodd" clip-rule="evenodd" fill="#8D0C0F" width="275.234" height="29.443"/>
		</g>
	</g>
	<g>
		<g>
			<rect x="118.383" y="288.419" fill-rule="evenodd" clip-rule="evenodd" fill="#8D0C0F" width="275.234" height="29.443"/>
		</g>
	</g>
	<g>
		<g>
			<rect x="118.383" y="335.561" fill-rule="evenodd" clip-rule="evenodd" fill="#8D0C0F" width="275.234" height="29.443"/>
		</g>
	</g>
	<g>
		<g>
			<rect x="182.422" y="138.238" fill-rule="evenodd" clip-rule="evenodd" fill="#FFD18B" width="147.167" height="235.5"/>
		</g>
	</g>
	<g>
		<g>
			<polygon fill-rule="evenodd" clip-rule="evenodd" fill="#FBF182" points="182.411,138.238 182.411,327.784 329.589,180.602 
				329.589,138.238 			"/>
		</g>
	</g>
</g>
</svg>
