<?xml version="1.0" encoding="utf-8"?>
<!-- Generator: Adobe Illustrator 16.0.3, SVG Export Plug-In . SVG Version: 6.00 Build 0)  -->
<!DOCTYPE svg PUBLIC "-//W3C//DTD SVG 1.1//EN" "http://www.w3.org/Graphics/SVG/1.1/DTD/svg11.dtd">
<svg version="1.1" id="Layer_1" xmlns="http://www.w3.org/2000/svg" xmlns:xlink="http://www.w3.org/1999/xlink" x="0px" y="0px"
	 width="512px" height="512px" viewBox="0 0 512 512" enable-background="new 0 0 512 512" xml:space="preserve">
<g>
	<g>
		<g>
			<circle fill-rule="evenodd" clip-rule="evenodd" fill="#FFEBAA" cx="256" cy="256" r="255"/>
		</g>
	</g>
	<g>
		<g>
			<path fill-rule="evenodd" clip-rule="evenodd" fill="#848484" d="M327.932,112.091c-39.649,0-71.954,32.271-71.954,71.932
				l0.045,54.028h-143.92v161.858h215.829V238.051h-35.966v-54.028c0-19.818,16.124-35.966,35.966-35.966
				c19.888,0,35.966,16.124,35.966,35.966l0.023,72.206h35.966v-72.206C399.887,144.385,367.604,112.091,327.932,112.091z
				 M237.938,321.09v24.836c0,9.967-8.028,17.995-17.995,17.995c-9.92,0.022-17.971-8.051-17.971-17.995v-24.995
				c-5.383-4.949-8.895-11.997-8.895-19.91c0.045-14.848,12.064-26.958,26.979-26.958c14.938,0,26.98,12.088,26.98,26.958
				C247.049,309.071,243.49,316.164,237.938,321.09z"/>
		</g>
	</g>
	<g>
		<g>
			<path fill-rule="evenodd" clip-rule="evenodd" fill="#383838" d="M291.966,220.012l-57.939,57.951
				c7.811,4.721,13.011,13.273,13.011,23.058c0.022,8.051-3.558,15.144-9.1,20.069v24.836c0,9.967-8.028,17.995-17.983,17.995
				c-9.932,0.022-17.982-8.051-17.982-17.995v-24.995c-1.894-1.757-3.581-3.764-4.938-5.976l-84.942,84.932v0.022h215.841V238.051
				h-35.966V220.012z M378.79,133.21l-25.406,25.406c6.5,6.5,10.514,15.485,10.514,25.406l0.012,72.206h35.978v-72.206
				C399.887,164.204,391.812,146.232,378.79,133.21z"/>
		</g>
	</g>
</g>
</svg>
