<?xml version="1.0" encoding="utf-8"?>
<!-- Generator: Adobe Illustrator 16.0.3, SVG Export Plug-In . SVG Version: 6.00 Build 0)  -->
<!DOCTYPE svg PUBLIC "-//W3C//DTD SVG 1.1//EN" "http://www.w3.org/Graphics/SVG/1.1/DTD/svg11.dtd">
<svg version="1.1" id="Layer_1" xmlns="http://www.w3.org/2000/svg" xmlns:xlink="http://www.w3.org/1999/xlink" x="0px" y="0px"
	 width="512px" height="512px" viewBox="0 0 512 512" enable-background="new 0 0 512 512" xml:space="preserve">
<g>
	<g>
		<g>
			<path fill-rule="evenodd" clip-rule="evenodd" fill="#FFE8AF" d="M256,1C115.146,1,1,115.17,1,256s114.146,255,255,255
				c140.83,0,255-114.17,255-255S396.83,1,256,1z"/>
		</g>
	</g>
	<g>
		<g>
			<rect x="122.171" y="173.326" fill-rule="evenodd" clip-rule="evenodd" fill="#E5F1F3" width="267.681" height="165.348"/>
		</g>
	</g>
	<g>
		<g>
			<polygon fill-rule="evenodd" clip-rule="evenodd" fill="#C1E1E6" points="338.696,173.326 173.326,338.674 389.852,338.674 
				389.852,173.326 			"/>
		</g>
	</g>
	<g>
		<g>
			<path fill-rule="evenodd" clip-rule="evenodd" fill="#00B1CD" d="M112.113,164.021v183.957h287.75V164.021H112.113z
				 M381.915,330.03h-251.83V181.993h251.83V330.03z"/>
		</g>
	</g>
	<g>
		<g>
			<polygon fill-rule="evenodd" clip-rule="evenodd" fill="#007383" points="347.979,164.021 330.007,181.993 381.915,181.993 
				381.915,330.03 181.993,330.03 164.021,347.979 399.863,347.979 399.863,164.021 			"/>
		</g>
	</g>
	<g>
		<g>
			<path fill-rule="evenodd" clip-rule="evenodd" fill="#006B7A" d="M156.518,273.903h125.938v-17.972H156.518V273.903z
				 M156.518,309.869h89.927v-17.972h-89.927V309.869z M156.518,237.938h125.938v-17.995H156.518V237.938z M364.217,210.935
				c0-4.927-4.014-9.009-8.963-9.009h-35.988c-4.949,0-8.963,4.082-8.963,9.054l-0.046,35.897c0,4.949,4.082,9.055,9.009,9.055
				l35.966-0.046c4.972,0,9.009-4.036,9.009-9.009L364.217,210.935z"/>
		</g>
	</g>
</g>
</svg>
