<?xml version="1.0" encoding="utf-8"?>
<!-- Generator: Adobe Illustrator 16.0.3, SVG Export Plug-In . SVG Version: 6.00 Build 0)  -->
<!DOCTYPE svg PUBLIC "-//W3C//DTD SVG 1.1//EN" "http://www.w3.org/Graphics/SVG/1.1/DTD/svg11.dtd">
<svg version="1.1" id="Layer_1" xmlns="http://www.w3.org/2000/svg" xmlns:xlink="http://www.w3.org/1999/xlink" x="0px" y="0px"
	 width="512px" height="512px" viewBox="0 0 512 512" enable-background="new 0 0 512 512" xml:space="preserve">
<g>
	<g>
		<g>
			<path fill-rule="evenodd" clip-rule="evenodd" fill="#DE0084" d="M256.005,1C115.155,1,1,115.178,1,256.006
				C1,396.832,115.155,511,256.005,511C396.833,511,511,396.832,511,256.006C511,115.178,396.833,1,256.005,1z"/>
		</g>
	</g>
	<g>
		<g>
			<path fill-rule="evenodd" clip-rule="evenodd" fill="#FDEAED" d="M331.3,287.261H180.711c-17.652,0-32.1,14.448-32.1,32.111
				c0,17.651,14.448,32.11,32.1,32.11H331.3c17.652,0,32.111-14.459,32.111-32.11C363.411,301.709,348.952,287.261,331.3,287.261z"
				/>
		</g>
	</g>
	<g>
		<g>
			<path fill-rule="evenodd" clip-rule="evenodd" fill="#FEF4F5" d="M331.288,287.261H224.727l-59.934,59.957
				c4.675,2.714,10.126,4.265,15.907,4.265h150.588c17.664,0,32.111-14.459,32.111-32.11
				C363.399,301.709,348.952,287.261,331.288,287.261z"/>
		</g>
	</g>
	<g>
		<g>
			<path fill-rule="evenodd" clip-rule="evenodd" fill="#952852" d="M220.029,309.931v0.045c-4.96,0-8.997,3.991-8.997,8.963
				c0.011,4.994,4.037,8.985,8.997,8.985c4.983,0.012,8.974-4.025,8.974-8.985C229.003,313.967,225.001,309.931,220.029,309.931z
				 M184.053,309.976c-4.926,0-8.986,3.991-8.986,8.963c0,4.994,4.014,8.985,8.986,8.985c4.972,0.012,8.985-4.025,8.985-8.985
				C193.095,313.967,189.013,309.931,184.053,309.976z M207.931,240.987l12.703,12.749c21.084-21.005,55.305-21.05,76.332,0
				l12.726-12.726C281.617,212.981,236.005,212.959,207.931,240.987z M347.857,202.856l12.691-12.669
				c-56.103-56.114-147.384-56.138-203.475-0.012l12.726,12.681C218.877,153.823,298.698,153.789,347.857,202.856z M335.154,215.593
				c-42.146-42.065-110.598-42.077-152.664-0.022l12.726,12.737c35.087-35.03,92.113-35.076,127.189-0.022L335.154,215.593z
				 M327.924,309.931l0.034,0.045c-4.983,0-9.02,3.991-9.02,8.963c0.034,4.994,4.014,8.985,8.985,8.985
				c5.006,0.012,8.986-4.025,8.986-8.985C336.933,313.967,332.885,309.931,327.924,309.931z M255.994,309.931l0.023,0.045
				c-5.006,0-9.02,3.991-9.02,8.963c0.034,4.994,4.014,8.985,8.997,8.985c4.983,0.012,8.974-4.025,8.974-8.985
				C264.968,313.967,260.955,309.931,255.994,309.931z M130.093,273.988V363.9h251.79v-89.912H130.093z M327.924,345.896
				l0.034,0.045H184.053c-14.79,0-26.979-12.155-26.979-27.002c0.034-14.847,12.133-26.979,26.979-26.979h143.906
				c14.812,0,26.934,12.133,26.934,26.979C354.927,333.797,342.771,345.896,327.924,345.896z M291.959,309.931l0.011,0.045
				c-4.972,0-9.02,3.991-9.02,8.963c0.045,4.994,4.037,8.985,9.008,8.985c4.994,0.012,8.997-4.025,8.997-8.985
				C300.956,313.967,296.908,309.931,291.959,309.931z"/>
		</g>
	</g>
	<g>
		<g>
			<path fill-rule="evenodd" clip-rule="evenodd" fill="#77005C" d="M309.691,241.011c-6.842-6.842-14.755-11.996-23.194-15.509
				l-14.162,14.175c9.031,2.303,17.583,6.989,24.642,14.06L309.691,241.011z M335.154,215.593
				c-6.693-6.67-14.06-12.304-21.882-16.864l-13.239,13.238c8.073,4.14,15.611,9.567,22.373,16.318L335.154,215.593z
				 M360.548,190.188c-6.614-6.614-13.741-12.464-21.209-17.516l-12.965,12.966c7.606,4.835,14.835,10.57,21.483,17.219
				L360.548,190.188z M220.029,327.924c4.983,0.012,8.974-4.025,8.974-8.985c0-4.972-4.002-9.008-8.974-9.008v0.045
				c-4.96,0-8.997,3.991-8.997,8.963C211.032,323.933,215.069,327.924,220.029,327.924z M318.939,318.938
				c0.034,4.994,4.014,8.985,8.985,8.985c5.006,0.012,8.986-4.025,8.986-8.985c0.022-4.972-4.025-9.008-8.986-9.008l0.034,0.045
				C322.976,309.976,318.939,313.967,318.939,318.938z M193.038,318.973l-8.963,8.951
				C189.036,327.924,193.038,323.898,193.038,318.973z M282.951,318.938c0.045,4.994,4.037,8.985,9.008,8.985
				c5.006,0.012,8.997-4.025,8.997-8.985c0-4.972-4.048-9.008-8.997-9.008l0.011,0.045
				C286.999,309.976,282.951,313.967,282.951,318.938z M246.997,318.938c0.023,4.994,4.014,8.985,8.997,8.985
				c4.983,0.012,8.974-4.025,8.974-8.985c0-4.972-4.002-9.008-8.974-9.008l0.023,0.045
				C251.011,309.976,246.997,313.967,246.997,318.938z M238.012,273.988l-17.96,17.971h107.907
				c14.812,0,26.934,12.133,26.934,26.979c0.034,14.858-12.122,26.957-26.968,26.957l0.034,0.045H184.053
				c-5.131,0-9.921-1.459-14.037-3.968L148.087,363.9h233.808v-89.912H238.012z"/>
		</g>
	</g>
</g>
</svg>
