<?xml version="1.0" encoding="utf-8"?>
<!-- Generator: Adobe Illustrator 16.0.3, SVG Export Plug-In . SVG Version: 6.00 Build 0)  -->
<!DOCTYPE svg PUBLIC "-//W3C//DTD SVG 1.1//EN" "http://www.w3.org/Graphics/SVG/1.1/DTD/svg11.dtd">
<svg version="1.1" id="Layer_1" xmlns="http://www.w3.org/2000/svg" xmlns:xlink="http://www.w3.org/1999/xlink" x="0px" y="0px"
	 width="512px" height="512px" viewBox="0 0 512 512" enable-background="new 0 0 512 512" xml:space="preserve">
<g>
	<g>
		<g>
			<path fill-rule="evenodd" clip-rule="evenodd" fill="#FFEBAA" d="M256.005,1C115.167,1,1,115.188,1,256.011
				C1,396.837,115.167,511,256.005,511S511,396.837,511,256.011C511,115.188,396.844,1,256.005,1z"/>
		</g>
	</g>
	<g>
		<g>
			<path fill-rule="evenodd" clip-rule="evenodd" fill="#848484" d="M327.947,230.286v-54.049c0-39.635-32.293-71.928-71.953-71.928
				c-39.683,0-71.93,32.269-71.93,71.928l0.034,54.049h-36.021v161.83h215.848v-161.83H327.947z M273.931,313.345v24.812
				c0,9.942-8.062,17.97-17.994,17.97c-9.932,0.024-17.983-8.049-17.983-17.97v-25.017c-5.382-4.95-8.871-11.997-8.871-19.887
				c0-14.871,12.087-26.979,26.968-26.979c14.927,0.021,26.968,12.087,26.968,26.979
				C283.019,301.282,279.484,308.395,273.931,313.345z M291.982,230.286h-71.919v-54.049c0-19.817,16.089-35.964,35.931-35.964
				c19.841,0,35.988,16.122,35.988,35.964V230.286z"/>
		</g>
	</g>
	<g>
		<g>
			<path fill-rule="evenodd" clip-rule="evenodd" fill="#383838" d="M327.947,230.286v-54.024l-35.965,35.964v18.061h-18.04
				L148.087,356.127v35.989h215.847v-161.83H327.947z M273.92,313.345v24.812c0,9.942-8.051,17.97-17.994,17.97
				c-9.921,0.024-17.972-8.049-17.972-17.97v-25.017c-5.382-4.95-8.871-11.997-8.871-19.887
				c0.023-14.871,12.076-26.979,26.979-26.979c14.915,0.021,26.968,12.087,26.968,26.979
				C283.03,301.282,279.484,308.395,273.92,313.345z"/>
		</g>
	</g>
</g>
</svg>
