<?xml version="1.0" encoding="utf-8"?>
<!-- Generator: Adobe Illustrator 16.0.3, SVG Export Plug-In . SVG Version: 6.00 Build 0)  -->
<!DOCTYPE svg PUBLIC "-//W3C//DTD SVG 1.1//EN" "http://www.w3.org/Graphics/SVG/1.1/DTD/svg11.dtd">
<svg version="1.1" id="Layer_1" xmlns="http://www.w3.org/2000/svg" xmlns:xlink="http://www.w3.org/1999/xlink" x="0px" y="0px"
	 width="512px" height="512px" viewBox="0 0 512 512" enable-background="new 0 0 512 512" xml:space="preserve">
<g>
	<g>
		<g>
			<path fill-rule="evenodd" clip-rule="evenodd" fill="#FFEDC3" d="M256.005,1C115.166,1,0.999,115.164,0.999,256
				s114.167,255,255.006,255s254.994-114.164,254.994-255S396.844,1,256.005,1z"/>
		</g>
	</g>
	<g>
		<g>
			<polygon fill-rule="evenodd" clip-rule="evenodd" fill="#FFEDC3" points="389.683,161.444 368.45,135.61 148.874,132.845 
				129.512,148.524 121.188,177.124 121.188,288.779 139.66,308.136 193.163,313.684 195.011,396.722 287.272,312.766 
				363.854,313.684 392.454,291.544 			"/>
		</g>
	</g>
	<g>
		<g>
			<polygon fill-rule="evenodd" clip-rule="evenodd" fill="#FCDB9A" points="389.683,161.45 377.983,147.201 193.573,331.626 
				195.011,396.728 287.272,312.754 363.844,313.689 392.465,291.538 			"/>
		</g>
	</g>
	<g>
		<g>
			<path fill-rule="evenodd" clip-rule="evenodd" fill="#00A2AA" d="M282.392,251.621l0.022,0.046H175.796
				c-4.982,0-9.042,3.979-9.042,8.957c0.011,4.995,4.036,8.992,8.985,8.992l106.675,0.011c4.973,0,8.975-4.02,8.975-9.003
				C291.389,255.658,287.352,251.621,282.392,251.621z M336.385,215.667l0.012,0.023H175.796c-4.982,0-9.042,3.979-9.042,8.969
				c0.011,4.983,4.036,8.991,8.985,8.991l160.657,0.012c4.972,0,8.974-4.02,8.974-9.003
				C345.37,219.698,341.356,215.667,336.385,215.667z M336.396,179.712H175.796c-4.982,0-9.042,3.997-9.042,8.969
				c0.011,5,4.036,8.992,8.985,8.992l160.657,0.011c4.972,0,8.974-4.002,8.974-9.003C345.37,183.72,341.356,179.689,336.396,179.712
				z M354.927,125.324h-197.82c-24.812,0-44.996,20.167-44.996,44.952l0.034,107.932c0,24.768,20.149,44.946,44.939,44.946
				l27.002,0.023v80.872c0,3.683,2.167,6.939,5.531,8.318c1.129,0.462,2.28,0.673,3.432,0.673c2.36,0.023,4.642-0.895,6.363-2.651
				l87.278-87.212h68.236c24.778,0,44.95-20.212,44.95-44.992l0.022-107.909C399.899,145.525,379.705,125.313,354.927,125.324z
				 M354.915,305.16h-71.941c-2.384,0-4.676,0.935-6.363,2.628l-74.553,74.566v-68.169c0-4.972-4.037-9.025-9.009-9.025h-35.942
				c-14.892,0-27.014-12.11-27.014-26.975l0.012-107.909c0-14.853,12.087-26.969,26.979-26.969h197.843
				c14.892,0,26.956,12.093,26.956,26.969l0.046,107.932C381.929,293.061,369.773,305.16,354.915,305.16z"/>
		</g>
	</g>
	<g>
		<g>
			<path fill-rule="evenodd" clip-rule="evenodd" fill="#009393" d="M345.37,224.652c0-4.949-4.014-8.991-8.985-8.991l0.012,0.034
				h-26.899l-17.972,17.96h44.871C341.38,233.655,345.37,229.647,345.37,224.652z M345.37,188.675c0-2.452-0.98-4.67-2.554-6.295
				l-15.314,15.297h8.895C341.38,197.678,345.37,193.675,345.37,188.675z M386.672,138.5l-12.68,12.704
				c4.881,4.88,7.891,11.631,7.891,19.066l0.046,107.932c0,14.853-12.145,26.963-27.025,26.963h-71.93
				c-2.395,0-4.676,0.935-6.363,2.617l-74.564,74.578v-59.223l-17.96,17.96v62.946c0,3.695,2.167,6.939,5.542,8.319
				c1.129,0.479,2.258,0.673,3.421,0.673c2.372,0.034,4.642-0.896,6.363-2.651l87.278-87.212h68.236
				c24.767,0,44.95-20.201,44.95-44.992V170.282C399.877,157.897,394.837,146.648,386.672,138.5z M291.389,260.618
				c0-4.955-4.037-8.991-8.997-8.991l0.012,0.034h-8.883l-17.972,17.96l26.854,0.012
				C287.397,269.633,291.389,265.613,291.389,260.618z"/>
		</g>
	</g>
</g>
</svg>
