<?xml version="1.0" encoding="utf-8"?>
<!-- Generator: Adobe Illustrator 16.0.3, SVG Export Plug-In . SVG Version: 6.00 Build 0)  -->
<!DOCTYPE svg PUBLIC "-//W3C//DTD SVG 1.1//EN" "http://www.w3.org/Graphics/SVG/1.1/DTD/svg11.dtd">
<svg version="1.1" id="Layer_1" xmlns="http://www.w3.org/2000/svg" xmlns:xlink="http://www.w3.org/1999/xlink" x="0px" y="0px"
	 width="512px" height="512px" viewBox="0 0 512 512" enable-background="new 0 0 512 512" xml:space="preserve">
<g>
	<g>
		<g>
			<path fill-rule="evenodd" clip-rule="evenodd" fill="#FFDC88" d="M256,1C115.146,1,1,115.167,1,256.006
				C1,396.833,115.146,511,256,511c140.83,0,255-114.167,255-254.994C511,115.167,396.83,1,256,1z"/>
		</g>
	</g>
	<g>
		<g>
			<rect x="126.459" y="200.576" fill-rule="evenodd" clip-rule="evenodd" fill="#DDDDDB" width="261.317" height="186.018"/>
		</g>
	</g>
	<g>
		<g>
			<polygon fill-rule="evenodd" clip-rule="evenodd" fill="#B7B7B7" points="311.42,200.576 126.459,385.51 126.459,386.582 
				387.776,386.582 387.776,200.576 			"/>
		</g>
	</g>
	<g>
		<g>
			<path fill-rule="evenodd" clip-rule="evenodd" fill="#5E5E5E" d="M372.884,148.099h-8.963v-8.986
				c0-14.847-12.156-26.991-27.003-26.991c-14.802,0.011-26.98,12.133-26.98,26.968l0.022,9.009H202.04v-8.986
				c0-14.847-12.134-26.991-26.98-26.991c-14.824,0.011-26.98,12.133-26.98,26.968l0.023,9.009h-8.986
				c-14.893,0-27.003,12.087-27.003,26.957l0.023,197.854c0,14.847,12.087,26.957,26.957,26.957l233.79,0.023
				c14.893,0,26.979-12.133,26.979-27.014l0.023-197.774C399.887,160.198,387.776,148.087,372.884,148.099z M327.932,139.113
				c0-4.926,4.037-9.02,8.986-9.02c4.972,0.034,9.008,4.048,9.008,8.997l0.023,36.011c0,4.926-4.105,8.94-9.031,8.94
				c-4.927,0.023-8.986-4.037-8.986-8.985V139.113z M166.074,139.113c0-4.926,4.036-9.02,8.985-9.02
				c4.972,0.034,8.985,4.048,8.985,8.997l0.023,36.011c0,4.926-4.06,8.94-9.009,8.94c-4.949,0.023-8.985-4.037-8.985-8.985V139.113z
				 M381.915,372.91c0,4.938-4.06,8.962-9.031,8.962l-233.768,0.023c-4.972,0-9.009-4.048-9.009-9.02v-170.84h251.808V372.91z"/>
		</g>
	</g>
	<g>
		<g>
			<path fill-rule="evenodd" clip-rule="evenodd" fill="#383838" d="M372.884,148.099h-8.986v-0.023l-17.972,17.971l0.023,9.054
				c0,4.926-4.105,8.94-9.031,8.94c-2.464,0.012-4.698-0.992-6.341-2.623l-20.617,20.617h71.955V372.91
				c0,4.949-4.06,8.962-9.031,8.962l-233.79,0.023c-2.463,0-4.721-1.003-6.363-2.657l-12.703,12.714
				c4.903,4.88,11.608,7.914,19.066,7.914h233.79c14.893,0,26.979-12.11,26.979-26.991l0.023-197.774
				C399.887,160.198,387.754,148.087,372.884,148.099z"/>
		</g>
	</g>
</g>
</svg>
