<?xml version="1.0" encoding="utf-8"?>
<!-- Generator: Adobe Illustrator 16.0.3, SVG Export Plug-In . SVG Version: 6.00 Build 0)  -->
<!DOCTYPE svg PUBLIC "-//W3C//DTD SVG 1.1//EN" "http://www.w3.org/Graphics/SVG/1.1/DTD/svg11.dtd">
<svg version="1.1" id="Layer_1" xmlns="http://www.w3.org/2000/svg" xmlns:xlink="http://www.w3.org/1999/xlink" x="0px" y="0px"
	 width="512px" height="512px" viewBox="0 0 512 512" enable-background="new 0 0 512 512" xml:space="preserve">
<g>
	<g>
		<g>
			<path fill-rule="evenodd" clip-rule="evenodd" fill="#F2DDA1" d="M256.012,1C115.165,1,1,115.168,1,256s114.165,255,255.012,255
				C396.836,511,511,396.832,511,256S396.836,1,256.012,1z"/>
		</g>
	</g>
	<g>
		<g>
			<polygon fill-rule="evenodd" clip-rule="evenodd" fill="#D1D1D1" points="138.838,133.256 138.838,389.761 319.754,389.761 
				373.187,333.476 373.187,133.256 			"/>
		</g>
	</g>
	<g>
		<g>
			<polygon fill-rule="evenodd" clip-rule="evenodd" fill="#939393" points="138.838,373.156 138.838,389.761 319.754,389.761 
				373.187,333.476 373.187,138.82 			"/>
		</g>
	</g>
	<g>
		<g>
			<path fill-rule="evenodd" clip-rule="evenodd" fill="#565555" d="M175.075,291.965h161.828v-17.971H175.075V291.965z
				 M175.075,327.933h98.885v-18.019h-98.885V327.933z M175.075,255.976h161.828v-17.925H175.075V255.976z M175.075,202.062v17.949
				h161.828v-17.949H175.075z"/>
		</g>
	</g>
</g>
</svg>
