<?xml version="1.0" encoding="utf-8"?>
<!-- Generator: Adobe Illustrator 16.0.3, SVG Export Plug-In . SVG Version: 6.00 Build 0)  -->
<!DOCTYPE svg PUBLIC "-//W3C//DTD SVG 1.1//EN" "http://www.w3.org/Graphics/SVG/1.1/DTD/svg11.dtd">
<svg version="1.1" id="Layer_1" xmlns="http://www.w3.org/2000/svg" xmlns:xlink="http://www.w3.org/1999/xlink" x="0px" y="0px"
	 width="512px" height="512px" viewBox="0 0 512 512" enable-background="new 0 0 512 512" xml:space="preserve">
<g>
	<g>
		<g>
			<path fill-rule="evenodd" clip-rule="evenodd" fill="#FFD773" d="M256,1C115.17,1,1,115.179,1,256.006S115.17,511,256,511
				s255-114.167,255-254.994S396.83,1,256,1z"/>
		</g>
	</g>
	<g>
		<g>
			<polygon fill-rule="evenodd" clip-rule="evenodd" fill="#353535" points="174.375,359.739 174.375,135.579 140.006,135.579 
				140.006,359.739 133.46,359.739 133.46,394.108 336.358,394.108 336.358,359.739 			"/>
		</g>
	</g>
	<g>
		<g>
			<polygon fill-rule="evenodd" clip-rule="evenodd" fill="#848484" points="329.802,106.364 174.375,106.364 174.375,368.154 
				378.904,368.154 378.904,153.812 			"/>
		</g>
	</g>
	<g>
		<g>
			<polygon fill-rule="evenodd" clip-rule="evenodd" fill="#4C4C4C" points="368.345,143.606 174.375,337.583 174.375,368.154 
				378.904,368.154 378.904,153.812 			"/>
		</g>
	</g>
	<g>
		<g>
			<path fill-rule="evenodd" clip-rule="evenodd" fill="#FFFFFF" d="M205.039,337.628h102.048v-20.457H205.039V337.628z
				 M205.039,296.794h143.054v-20.377H205.039V296.794z M205.039,255.96h143.054v-20.4H205.039V255.96z M205.039,194.726v20.4
				h143.054v-20.4H205.039z"/>
		</g>
	</g>
</g>
</svg>
