<?xml version="1.0" encoding="utf-8"?>
<!-- Generator: Adobe Illustrator 16.0.3, SVG Export Plug-In . SVG Version: 6.00 Build 0)  -->
<!DOCTYPE svg PUBLIC "-//W3C//DTD SVG 1.1//EN" "http://www.w3.org/Graphics/SVG/1.1/DTD/svg11.dtd">
<svg version="1.1" id="Layer_1" xmlns="http://www.w3.org/2000/svg" xmlns:xlink="http://www.w3.org/1999/xlink" x="0px" y="0px"
	 width="512px" height="512px" viewBox="0 0 512 512" enable-background="new 0 0 512 512" xml:space="preserve">
<g>
	<g>
		<g>
			<path fill-rule="evenodd" clip-rule="evenodd" fill="#00A664" d="M256.011,1C115.164,1,1,115.188,1,256.011
				C1,396.837,115.164,511,256.011,511C396.836,511,511,396.837,511,256.011C511,115.188,396.836,1,256.011,1z"/>
		</g>
	</g>
	<g>
		<g>
			<rect x="122.484" y="168.893" fill-rule="evenodd" clip-rule="evenodd" fill="#D4ECE1" width="267.029" height="158.661"/>
		</g>
	</g>
	<g>
		<g>
			<polygon fill-rule="evenodd" clip-rule="evenodd" fill="#EBF6F1" points="335.328,168.893 176.648,327.554 389.514,327.554 
				389.514,168.893 			"/>
		</g>
	</g>
	<g>
		<g>
			<path fill-rule="evenodd" clip-rule="evenodd" fill="#007847" d="M112.131,156.236v183.949h287.738V156.236H112.131z
				 M366.846,174.206l-110.857,96.63l-110.857-96.63H366.846z M130.102,184.973l65.816,57.425l-65.816,66.843V184.973z
				 M142.6,322.239l66.957-68.028l46.432,40.457l46.455-40.457l66.911,68.028H142.6z M381.897,309.24l-65.907-66.843l65.907-57.425
				V309.24z"/>
		</g>
	</g>
	<g>
		<g>
			<path fill-rule="evenodd" clip-rule="evenodd" fill="#258464" d="M347.963,156.236l-17.971,17.97h36.854l-110.857,96.63
				l-12.087-10.514l-12.725,12.701l24.812,21.645l46.455-40.48l66.911,68.052h-187.37l-17.971,17.946h235.855V156.236H347.963z
				 M381.897,309.24l-65.907-66.843l65.907-57.425V309.24z"/>
		</g>
	</g>
</g>
</svg>
