<?xml version="1.0" encoding="utf-8"?>
<!-- Generator: Adobe Illustrator 16.0.3, SVG Export Plug-In . SVG Version: 6.00 Build 0)  -->
<!DOCTYPE svg PUBLIC "-//W3C//DTD SVG 1.1//EN" "http://www.w3.org/Graphics/SVG/1.1/DTD/svg11.dtd">
<svg version="1.1" id="Layer_1" xmlns="http://www.w3.org/2000/svg" xmlns:xlink="http://www.w3.org/1999/xlink" x="0px" y="0px"
	 width="512px" height="512px" viewBox="0 0 512 512" enable-background="new 0 0 512 512" xml:space="preserve">
<g>
	<g>
		<g>
			<path fill-rule="evenodd" clip-rule="evenodd" fill="#E4EFF9" d="M256.006,1C115.156,1,1,115.164,1,256
				c0,140.836,114.156,255,255.006,255C396.833,511,511,396.836,511,256C511,115.164,396.833,1,256.006,1z"/>
		</g>
	</g>
	<g>
		<g>
			<path fill-rule="evenodd" clip-rule="evenodd" fill="#0097D6" d="M339.201,156.375c-23.558,0-44.311,11.837-56.843,29.911
				c-13.729-23.833-39.261-39.9-68.566-39.9c-38.896,0-71.188,28.223-77.951,65.426c-6.75-3.5-14.436-5.53-22.589-5.53
				c-65.545,0-65.545,99.437,0,99.437c8.153,0,15.839-2.03,22.589-5.531c3.501,19.186,13.764,35.972,28.234,47.746l189.951-189.961
				C349.26,156.922,344.288,156.375,339.201,156.375z"/>
		</g>
	</g>
	<g>
		<g>
			<path fill-rule="evenodd" clip-rule="evenodd" fill="#004D80" d="M408.59,216.265c-0.262,0-0.536,0.034-0.787,0.034
				c-4.104-28.936-25.748-52.159-53.776-58.328L164.087,347.933c13.569,11.05,30.867,17.681,49.694,17.681
				c29.316,0,54.848-16.079,68.565-39.9c12.544,18.063,33.297,29.917,56.867,29.917c34.95,0,63.777-26.062,68.589-59.953
				c0.251,0.011,0.525,0.051,0.787,0.051C461.01,295.729,461.01,216.265,408.59,216.265z"/>
		</g>
	</g>
</g>
</svg>
