<?xml version="1.0" encoding="utf-8"?>
<!-- Generator: Adobe Illustrator 16.0.3, SVG Export Plug-In . SVG Version: 6.00 Build 0)  -->
<!DOCTYPE svg PUBLIC "-//W3C//DTD SVG 1.1//EN" "http://www.w3.org/Graphics/SVG/1.1/DTD/svg11.dtd">
<svg version="1.1" id="Layer_1" xmlns="http://www.w3.org/2000/svg" xmlns:xlink="http://www.w3.org/1999/xlink" x="0px" y="0px"
	 width="512px" height="512px" viewBox="0 0 512 512" enable-background="new 0 0 512 512" xml:space="preserve">
<g>
	<g>
		<g>
			<path fill-rule="evenodd" clip-rule="evenodd" fill="#FFEBAA" d="M256.012,1C115.164,1,1,115.169,1,256
				C1,396.83,115.164,511,256.012,511C396.836,511,511,396.83,511,256C511,115.169,396.836,1,256.012,1z"/>
		</g>
	</g>
	<g>
		<g>
			<path fill-rule="evenodd" clip-rule="evenodd" fill="#777676" d="M399.846,256.091l-53.935-27.003v17.903h-91.086l41.643-54.074
				h51.039c3.695,10.514,13.615,18.131,25.383,18.131c14.892,0.046,26.979-12.064,26.979-26.98
				c-0.022-14.893-12.063-26.98-26.979-26.98c-11.699,0.023-21.506,7.435-25.291,17.812l-59.956,0.045l-55.555,72.046h-30.992
				c-4.15-20.572-22.281-36.08-44.015-36.08c-24.858,0.023-44.973,20.138-44.973,45.02c0,24.836,20.114,44.952,44.973,44.952
				c21.665,0.046,39.818-15.439,44.015-35.92l32.315,0.022l54.141,71.955h58.359v17.971h53.935v-53.982h-53.935v17.994h-49.375
				l-40.594-53.938h89.969v18.108L399.846,256.091z"/>
		</g>
	</g>
	<g>
		<g>
			<path fill-rule="evenodd" clip-rule="evenodd" fill="#303030" d="M296.536,318.923l-40.594-53.938h9.055l-26.432-26.433
				l-6.478,8.438h-31.016c-4.127-20.572-22.258-36.057-44.015-36.057c-24.835,0-44.949,20.115-44.949,44.975
				c0,24.859,20.114,44.974,44.949,44.974c21.688,0.023,39.842-15.439,44.038-35.92l32.315,0.022l54.141,71.955h49.396
				l-18.017-18.018H296.536z M345.888,345.903v8.985h9.009L345.888,345.903z"/>
		</g>
	</g>
</g>
</svg>
