<?xml version="1.0" encoding="utf-8"?>
<!-- Generator: Adobe Illustrator 16.0.3, SVG Export Plug-In . SVG Version: 6.00 Build 0)  -->
<!DOCTYPE svg PUBLIC "-//W3C//DTD SVG 1.1//EN" "http://www.w3.org/Graphics/SVG/1.1/DTD/svg11.dtd">
<svg version="1.1" id="Layer_1" xmlns="http://www.w3.org/2000/svg" xmlns:xlink="http://www.w3.org/1999/xlink" x="0px" y="0px"
	 width="512px" height="512px" viewBox="0 0 512 512" enable-background="new 0 0 512 512" xml:space="preserve">
<g>
	<g>
		<g>
			<circle fill-rule="evenodd" clip-rule="evenodd" fill="#9DDAE7" cx="256" cy="256" r="255"/>
		</g>
	</g>
	<g>
		<g>
			<rect x="345.972" y="238.028" fill-rule="evenodd" clip-rule="evenodd" fill="#FBF182" width="17.972" height="161.835"/>
		</g>
	</g>
	<g>
		<g>
			<rect x="247.014" y="309.96" fill-rule="evenodd" clip-rule="evenodd" fill="#FBF182" width="18.006" height="89.903"/>
		</g>
	</g>
	<g>
		<g>
			<path fill-rule="evenodd" clip-rule="evenodd" fill="#008F9B" d="M381.893,184.022h-53.961c-9.853,0-17.994,8.096-17.994,17.972
				c0.045,9.921,8.097,17.994,17.994,17.994h53.961c9.908,0,17.971-8.096,17.971-17.994
				C399.887,192.119,391.778,184.022,381.893,184.022z"/>
		</g>
	</g>
	<g>
		<g>
			<rect x="345.949" y="112.113" fill-rule="evenodd" clip-rule="evenodd" fill="#008F9B" width="17.972" height="53.938"/>
		</g>
	</g>
	<g>
		<g>
			<path fill-rule="evenodd" clip-rule="evenodd" fill="#008F9B" d="M282.991,256h-53.948c-9.91,0-18.018,8.073-18.018,17.926
				c0.012,9.943,8.107,17.994,17.994,17.994l53.972,0.023c9.887,0,17.972-8.097,17.972-18.018
				C300.963,264.073,292.878,255.977,282.991,256z"/>
		</g>
	</g>
	<g>
		<g>
			<path fill-rule="evenodd" clip-rule="evenodd" fill="#008F9B" d="M184.068,201.994l0.022,0.045h-53.983
				c-9.875,0-17.994,8.051-17.994,17.949c0.023,9.921,8.097,17.972,17.973,17.972l54.005,0.068c9.874,0,17.949-8.165,17.949-18.04
				C202.062,210.113,193.943,201.994,184.068,201.994z"/>
		</g>
	</g>
	<g>
		<g>
			<rect x="247.014" y="112.113" fill-rule="evenodd" clip-rule="evenodd" fill="#008F9B" width="18.006" height="125.915"/>
		</g>
	</g>
	<g>
		<g>
			<rect x="148.113" y="112.113" fill-rule="evenodd" clip-rule="evenodd" fill="#008F9B" width="17.961" height="71.909"/>
		</g>
	</g>
	<g>
		<g>
			<rect x="148.113" y="256" fill-rule="evenodd" clip-rule="evenodd" fill="#008F9B" width="17.961" height="143.863"/>
		</g>
	</g>
	<g>
		<g>
			<rect x="345.972" y="238.028" fill-rule="evenodd" clip-rule="evenodd" fill="#00767F" width="17.972" height="161.835"/>
		</g>
	</g>
	<g>
		<g>
			<rect x="247.014" y="309.96" fill-rule="evenodd" clip-rule="evenodd" fill="#00767F" width="18.006" height="89.903"/>
		</g>
	</g>
	<g>
		<g>
			<path fill-rule="evenodd" clip-rule="evenodd" fill="#00767F" d="M282.991,256H256l-34.358,34.347
				c2.247,1.026,4.756,1.573,7.378,1.573l53.972,0.023c9.887,0,17.972-8.097,17.972-18.018
				C300.963,264.073,292.878,255.977,282.991,256z"/>
		</g>
	</g>
	<g>
		<g>
			<path fill-rule="evenodd" clip-rule="evenodd" fill="#00767F" d="M381.893,184.022h-53.938l-18.018,18.017
				c0.068,9.875,8.119,17.949,17.994,17.949h53.961c9.908,0,17.971-8.096,17.971-17.994
				C399.887,192.119,391.778,184.022,381.893,184.022z"/>
		</g>
	</g>
	<g>
		<g>
			<polygon fill-rule="evenodd" clip-rule="evenodd" fill="#00767F" points="148.113,363.875 148.113,399.863 166.086,399.863 
				166.086,345.903 			"/>
		</g>
	</g>
</g>
</svg>
