<?xml version="1.0" encoding="utf-8"?>
<!-- Generator: Adobe Illustrator 16.0.3, SVG Export Plug-In . SVG Version: 6.00 Build 0)  -->
<!DOCTYPE svg PUBLIC "-//W3C//DTD SVG 1.1//EN" "http://www.w3.org/Graphics/SVG/1.1/DTD/svg11.dtd">
<svg version="1.1" id="Layer_1" xmlns="http://www.w3.org/2000/svg" xmlns:xlink="http://www.w3.org/1999/xlink" x="0px" y="0px"
	 width="512px" height="512px" viewBox="0 0 512 512" enable-background="new 0 0 512 512" xml:space="preserve">
<g>
	<g>
		<g>
			<path fill-rule="evenodd" clip-rule="evenodd" fill="#1072B4" d="M256.006,1C115.156,1,1,115.17,1,256s114.156,255,255.006,255
				C396.833,511,511,396.83,511,256S396.833,1,256.006,1z"/>
		</g>
	</g>
	<g>
		<g>
			<polygon fill-rule="evenodd" clip-rule="evenodd" fill="#FBF182" points="281.561,131.521 177.279,131.521 177.279,271.28 
				255.972,336.233 334.744,276.207 334.744,179.758 			"/>
		</g>
	</g>
	<g>
		<g>
			<polygon fill-rule="evenodd" clip-rule="evenodd" fill="#FFD18B" points="333.433,178.572 212.036,299.971 255.972,336.233 
				334.744,276.207 334.744,179.758 			"/>
		</g>
	</g>
	<g>
		<g>
			<path fill-rule="evenodd" clip-rule="evenodd" fill="#004282" d="M210.759,265.533h90.13V247.63h-90.13V265.533z
				 M210.759,211.778v17.926h90.13v-17.926H210.759z"/>
		</g>
	</g>
	<g>
		<g>
			<polygon fill-rule="evenodd" clip-rule="evenodd" fill="#FFD18B" points="257.124,338.856 212.823,309.823 143.447,381.186 
				152.296,383.648 373.252,383.648 373.252,240.925 			"/>
		</g>
	</g>
	<g>
		<g>
			<path fill-rule="evenodd" clip-rule="evenodd" fill="#FBF182" d="M141.965,251.758l-0.49,116.131l17.229-10.81l54.119-52.661
				C212.823,304.418,142.455,250.275,141.965,251.758z"/>
		</g>
	</g>
	<g>
		<g>
			<path fill-rule="evenodd" clip-rule="evenodd" fill="#004282" d="M346.158,201.812v-21.027l-59.193-59.64H166.128v80.621
				l-36.022,33.275v155.814h251.79V235.087L346.158,201.812z M346.158,225.439l13.844,12.908l-13.844,12.042V225.439z
				 M292.177,151.911l23.398,23.559h-23.398V151.911z M184.133,139.048h90.062v54.349h53.913v72.593l-72.09,62.535l-71.885-62.284
				V139.048z M166.128,225.371v25.247l-14.071-12.225L166.128,225.371z M147.483,258.235l57.141,49.535l-57.141,53.687V258.235z
				 M160.803,373.591l57.448-53.983l37.767,32.659l37.698-32.659l57.426,53.983H160.803z M364.528,361.526l-57.175-53.756
				l57.175-49.535V361.526z"/>
		</g>
	</g>
</g>
</svg>
