<?xml version="1.0" encoding="utf-8"?>
<!-- Generator: Adobe Illustrator 16.0.3, SVG Export Plug-In . SVG Version: 6.00 Build 0)  -->
<!DOCTYPE svg PUBLIC "-//W3C//DTD SVG 1.1//EN" "http://www.w3.org/Graphics/SVG/1.1/DTD/svg11.dtd">
<svg version="1.1" id="Layer_1" xmlns="http://www.w3.org/2000/svg" xmlns:xlink="http://www.w3.org/1999/xlink" x="0px" y="0px"
	 width="512px" height="512px" viewBox="0 0 512 512" enable-background="new 0 0 512 512" xml:space="preserve">
<g>
	<g>
		<g>
			<circle fill-rule="evenodd" clip-rule="evenodd" fill="#00A651" cx="256" cy="256" r="255"/>
		</g>
	</g>
	<g>
		<g>
			<path fill-rule="evenodd" clip-rule="evenodd" fill="#007847" d="M261.701,118.431c-79.139,0-143.293,64.155-143.293,143.294
				s64.154,143.293,143.293,143.293c79.162,0,143.316-64.154,143.316-143.293S340.863,118.431,261.701,118.431z"/>
		</g>
	</g>
	<g>
		<g>
			<path fill-rule="evenodd" clip-rule="evenodd" fill="#9AD4B9" d="M250.846,118.431c-73.141,0-132.438,59.297-132.438,132.438
				c0,73.14,59.297,132.438,132.438,132.438s132.438-59.298,132.438-132.438C383.283,177.728,323.986,118.431,250.846,118.431z"/>
		</g>
	</g>
	<g>
		<g>
			<path fill-rule="evenodd" clip-rule="evenodd" fill="#3FBA8D" d="M344.489,157.202l-187.31,187.31
				c23.992,23.947,57.107,38.795,93.666,38.795c73.141,0,132.438-59.298,132.438-132.438
				C383.283,214.287,368.481,181.172,344.489,157.202z"/>
		</g>
	</g>
	<g>
		<g>
			<path fill="#007431" d="M174.694,188.15c-6.477-3.717-14.71-1.551-18.45,4.926c-3.718,6.432-1.528,14.688,4.926,18.428
				c6.5,3.717,14.733,1.482,18.428-4.949C183.361,200.147,181.126,191.868,174.694,188.15z"/>
		</g>
	</g>
	<g>
		<g>
			<path fill="#007431" d="M179.621,296.481c-3.74-6.432-11.996-8.666-18.428-4.949c-6.432,3.74-8.667,11.997-4.927,18.451
				c3.718,6.454,11.951,8.666,18.428,4.926C181.148,311.237,183.338,302.936,179.621,296.481z"/>
		</g>
	</g>
	<g>
		<g>
			<path fill="#007431" d="M154.077,238.028c-7.412,0-13.501,6.044-13.501,13.501c0,7.413,6.044,13.456,13.501,13.456
				c7.458,0.046,13.479-6.043,13.502-13.456C167.579,244.072,161.513,238.028,154.077,238.028z"/>
		</g>
	</g>
	<g>
		<g>
			<path fill="#007431" d="M341.98,297.439c-6.408-3.718-14.688-1.505-18.428,4.949c-3.694,6.454-1.505,14.71,4.927,18.404
				c6.477,3.764,14.71,1.528,18.45-4.926C350.67,309.436,348.435,301.157,341.98,297.439z"/>
		</g>
	</g>
	<g>
		<g>
			<path fill="#007431" d="M346.907,198.983c-3.718-6.431-11.951-8.666-18.428-4.949c-6.432,3.74-8.644,11.973-4.927,18.428
				c3.764,6.477,11.974,8.667,18.428,4.949C348.435,213.694,350.647,205.438,346.907,198.983z"/>
		</g>
	</g>
	<g>
		<g>
			<path fill="#007431" d="M304.167,156.176c-6.477-3.717-14.732-1.505-18.473,4.949c-3.695,6.454-1.528,14.687,4.949,18.427
				c6.477,3.741,14.71,1.505,18.404-4.949C312.812,168.149,310.576,159.893,304.167,156.176z"/>
		</g>
	</g>
	<g>
		<g>
			<path fill="#007431" d="M245.669,140.53c-7.436,0.023-13.479,6.021-13.479,13.479c0.022,7.458,6.043,13.479,13.501,13.501
				c7.458,0,13.479-6.067,13.479-13.501C259.193,146.574,253.126,140.53,245.669,140.53z"/>
		</g>
	</g>
	<g>
		<g>
			<path fill="#007431" d="M349.097,243.936c-7.436,0.022-13.502,6.043-13.502,13.501c0,7.436,6.044,13.456,13.502,13.456
				c7.457,0.022,13.479-6.021,13.479-13.456C362.575,249.979,356.554,243.958,349.097,243.936z"/>
		</g>
	</g>
	<g>
		<g>
			<path fill-rule="evenodd" clip-rule="evenodd" fill="#007431" d="M297.576,223.888c-10.012-17.401-28.303-27.071-47.004-27.003
				l-62.649-48.464l15.075,77.611c-8.188,15.782-8.416,35.259,1.117,51.794c14.915,25.816,47.894,34.643,73.688,19.75
				C303.62,282.706,312.469,249.683,297.576,223.888z M268.863,281.999c-17.196,9.944-39.228,4.037-49.171-13.182
				c-9.921-17.173-4.037-39.182,13.159-49.125c17.241-9.921,39.204-4.037,49.125,13.182
				C291.92,250.07,286.036,272.056,268.863,281.999z"/>
		</g>
	</g>
</g>
</svg>
