<?xml version="1.0" encoding="utf-8"?>
<!-- Generator: Adobe Illustrator 16.0.3, SVG Export Plug-In . SVG Version: 6.00 Build 0)  -->
<!DOCTYPE svg PUBLIC "-//W3C//DTD SVG 1.1//EN" "http://www.w3.org/Graphics/SVG/1.1/DTD/svg11.dtd">
<svg version="1.1" id="Layer_1" xmlns="http://www.w3.org/2000/svg" xmlns:xlink="http://www.w3.org/1999/xlink" x="0px" y="0px"
	 width="512px" height="512px" viewBox="0 0 512 512" enable-background="new 0 0 512 512" xml:space="preserve">
<g>
	<g>
		<g>
			<path fill-rule="evenodd" clip-rule="evenodd" fill="#00ADBB" d="M256,1C115.146,1,1,115.169,1,256c0,140.83,114.146,255,255,255
				c140.83,0,255-114.17,255-255C511,115.169,396.83,1,256,1z"/>
		</g>
	</g>
	<g>
		<g>
			<path fill-rule="evenodd" clip-rule="evenodd" fill="#F4EEEB" d="M345.128,220.878c-3.991-30.88-30.15-54.85-62.148-54.85
				c-26.045,0.022-48.44,15.851-57.974,38.452c-4.425-1.459-9.1-2.44-14.003-2.44c-21.804,0.023-39.957,15.531-44.085,36.103
				c-0.274,0-0.616-0.114-0.936-0.114c-29.763,0.046-53.961,24.175-53.961,53.961c0.046,29.785,24.176,53.96,53.961,53.96h171.072
				c34.757,0,62.923-28.188,62.923-62.946C400.022,251.028,376.03,224.869,345.128,220.878z"/>
		</g>
	</g>
	<g>
		<g>
			<path fill-rule="evenodd" clip-rule="evenodd" fill="#D8D8D8" d="M345.15,220.878c-1.824-14.071-8.256-26.707-17.743-36.285
				L166.028,345.949h171.003c34.78,0,62.946-28.188,62.946-62.946C400.022,251.028,376.03,224.869,345.15,220.878z"/>
		</g>
	</g>
</g>
</svg>
