<?xml version="1.0" encoding="utf-8"?>
<!-- Generator: Adobe Illustrator 16.0.3, SVG Export Plug-In . SVG Version: 6.00 Build 0)  -->
<!DOCTYPE svg PUBLIC "-//W3C//DTD SVG 1.1//EN" "http://www.w3.org/Graphics/SVG/1.1/DTD/svg11.dtd">
<svg version="1.1" id="Layer_1" xmlns="http://www.w3.org/2000/svg" xmlns:xlink="http://www.w3.org/1999/xlink" x="0px" y="0px"
	 width="512px" height="512px" viewBox="0 0 512 512" enable-background="new 0 0 512 512" xml:space="preserve">
<g>
	<g>
		<g>
			<path fill-rule="evenodd" clip-rule="evenodd" fill="#F2D264" d="M256.011,1C115.164,1,1,115.169,1,256
				c0,140.83,114.164,255,255.011,255C396.836,511,511,396.83,511,256C511,115.169,396.836,1,256.011,1z"/>
		</g>
	</g>
	<g>
		<g>
			<rect x="112.131" y="291.943" fill-rule="evenodd" clip-rule="evenodd" fill="#007A68" width="287.738" height="71.954"/>
		</g>
	</g>
	<g>
		<g>
			<polygon fill-rule="evenodd" clip-rule="evenodd" fill="#007A68" points="345.934,148.102 166.066,148.102 112.131,273.972 
				399.869,273.972 			"/>
		</g>
	</g>
	<g>
		<g>
			<polygon fill-rule="evenodd" clip-rule="evenodd" fill="#00836F" points="351.315,160.668 238.04,273.972 399.869,273.972 			"/>
		</g>
	</g>
	<g>
		<g>
			<polygon fill-rule="evenodd" clip-rule="evenodd" fill="#00836F" points="220.07,291.943 148.096,363.897 399.869,363.897 
				399.869,291.943 			"/>
		</g>
	</g>
	<g>
		<g>
			<path fill-rule="evenodd" clip-rule="evenodd" fill="#E4E871" d="M269.513,314.431l-0.023-0.023
				c-7.48,0-13.501,6.067-13.501,13.502s6.066,13.547,13.501,13.479c7.412,0,13.5-6.044,13.478-13.479
				C282.967,320.451,276.946,314.431,269.513,314.431z"/>
		</g>
	</g>
	<g>
		<g>
			<path fill-rule="evenodd" clip-rule="evenodd" fill="#E4E871" d="M314.462,314.431l-0.022-0.023
				c-7.458,0-13.456,6.067-13.479,13.502c0,7.435,6.044,13.547,13.479,13.479c7.434,0,13.5-6.044,13.478-13.479
				C327.917,320.451,321.919,314.431,314.462,314.431z"/>
		</g>
	</g>
	<g>
		<g>
			<path fill-rule="evenodd" clip-rule="evenodd" fill="#E4E871" d="M359.412,314.431l-0.023-0.023
				c-7.435,0-13.455,6.067-13.479,13.502c0,7.435,6.066,13.547,13.479,13.479c7.457,0,13.523-6.044,13.478-13.479
				C372.866,320.451,366.868,314.431,359.412,314.431z"/>
		</g>
	</g>
</g>
</svg>
