<?xml version="1.0" encoding="utf-8"?>
<!-- Generator: Adobe Illustrator 16.0.3, SVG Export Plug-In . SVG Version: 6.00 Build 0)  -->
<!DOCTYPE svg PUBLIC "-//W3C//DTD SVG 1.1//EN" "http://www.w3.org/Graphics/SVG/1.1/DTD/svg11.dtd">
<svg version="1.1" id="Layer_1" xmlns="http://www.w3.org/2000/svg" xmlns:xlink="http://www.w3.org/1999/xlink" x="0px" y="0px"
	 width="512px" height="512px" viewBox="0 0 512 512" enable-background="new 0 0 512 512" xml:space="preserve">
<g>
	<g>
		<g>
			<path fill-rule="evenodd" clip-rule="evenodd" fill="#00ACAF" d="M256.011,1C115.165,1,1,115.167,1,256.006
				C1,396.833,115.165,511,256.011,511C396.835,511,511,396.833,511,256.006C511,115.167,396.835,1,256.011,1z"/>
		</g>
	</g>
	<g>
		<g>
			<path fill-rule="evenodd" clip-rule="evenodd" fill="#00808C" d="M306.822,205.103c-28.028-28.017-73.662-28.017-101.736,0
				c-28.027,28.108-28.05,73.675-0.022,101.727l12.771-12.726c-21.072-21.039-21.072-55.259,0-76.286
				c21.027-21.027,55.235-21.05,76.262,0c21.095,21.05,21.049,55.282,0,76.286l12.726,12.749
				C334.918,278.823,334.873,233.143,306.822,205.103z M357.77,154.211h0.045c-56.169-56.125-147.438-56.125-203.63,0
				c-56.056,56.103-56.102,147.373,0,203.521l12.771-12.76c-49.1-49.079-49.123-128.934-0.023-178.013
				c49.078-49.021,128.965-49.067,178.043,0c49.1,49.079,49.077,128.922,0,178.013l12.839,12.783
				C413.917,301.606,413.894,210.325,357.77,154.211z M332.262,179.697c-42.077-42.066-110.553-42.085-152.625-0.012
				c-42.031,42.077-42.054,110.507,0,152.561l12.771-12.68c-35.075-35.041-35.097-92.136-0.045-127.166
				c35.075-35.007,92.111-35.053,127.164,0c35.097,35.053,35.097,92.125,0,127.144l12.748,12.703
				C374.345,290.242,374.349,221.752,332.262,179.697z"/>
		</g>
	</g>
	<g>
		<g>
			<path fill-rule="evenodd" clip-rule="evenodd" fill="#006B7A" d="M332.273,179.708l-12.703,12.703
				c35.029,35.076,35.006,92.114-0.045,127.132l12.748,12.714C374.372,290.226,374.349,221.785,332.273,179.708z M306.868,205.114
				l-12.726,12.749c21.049,21.05,20.981,55.259-0.045,76.24l12.726,12.749C334.918,278.823,334.873,233.166,306.868,205.114z
				 M357.77,154.211l-12.771,12.794c49.078,49.078,49.055,128.888-0.022,177.967l12.839,12.794
				C413.917,301.618,413.894,210.336,357.77,154.211z M357.792,154.188l-0.023,0.023h0.045L357.792,154.188z"/>
		</g>
	</g>
	<g>
		<g>
			<path fill-rule="evenodd" clip-rule="evenodd" fill="#006B7A" d="M309.513,399.889l-47.686-126.927
				c2.44-0.889,4.675-2.235,6.59-4.185l0.068,0.046c6.979-7.036,6.979-18.45-0.068-25.463c-7.001-7.001-18.404-7.024-25.405,0
				c-7.024,7.059-7.024,18.404,0,25.417c1.961,1.984,4.241,3.318,6.682,4.185l-47.618,126.927H309.513z"/>
		</g>
	</g>
</g>
</svg>
