<?xml version="1.0" encoding="utf-8"?>
<!-- Generator: Adobe Illustrator 16.0.3, SVG Export Plug-In . SVG Version: 6.00 Build 0)  -->
<!DOCTYPE svg PUBLIC "-//W3C//DTD SVG 1.1//EN" "http://www.w3.org/Graphics/SVG/1.1/DTD/svg11.dtd">
<svg version="1.1" id="Layer_1" xmlns="http://www.w3.org/2000/svg" xmlns:xlink="http://www.w3.org/1999/xlink" x="0px" y="0px"
	 width="512px" height="512px" viewBox="0 0 512 512" enable-background="new 0 0 512 512" xml:space="preserve">
<g>
	<g>
		<g>
			<path fill-rule="evenodd" clip-rule="evenodd" fill="#0090A6" d="M256,1C115.158,1,1,115.164,1,256s114.158,255,255,255
				c140.831,0,255-114.164,255-255S396.831,1,256,1z"/>
		</g>
	</g>
	<g>
		<g>
			<polygon fill-rule="evenodd" clip-rule="evenodd" fill="#0090A6" points="236.136,261.667 216.203,246.803 214.241,186.993 
				117.143,188.84 106.731,206.669 106.731,304.766 124.064,322.601 142.902,326.546 148.342,374.605 209.292,325.565 
				281.612,320.109 294.977,294.851 295.479,261.645 			"/>
		</g>
	</g>
	<g>
		<g>
			<polygon fill-rule="evenodd" clip-rule="evenodd" fill="#008391" points="250.321,261.662 147.235,364.759 148.342,374.605 
				209.27,325.56 281.601,320.121 294.977,294.851 295.479,261.65 			"/>
		</g>
	</g>
	<g>
		<g>
			<polygon fill-rule="evenodd" clip-rule="evenodd" fill="#0090A6" points="392.109,127.765 294.999,125.917 225.303,127.667 
				216.271,154.038 214.287,191.007 292.992,191.509 293.494,254.951 299.972,264.49 360.899,313.529 366.35,265.482 
				385.177,261.519 402.51,243.679 402.51,145.593 			"/>
		</g>
	</g>
	<g>
		<g>
			<polygon fill-rule="evenodd" clip-rule="evenodd" fill="#008391" points="392.109,127.765 384.378,127.61 293.197,218.797 
				293.494,254.951 299.972,264.49 360.899,313.529 366.35,265.482 385.177,261.519 402.51,243.679 402.51,145.593 			"/>
		</g>
	</g>
	<g>
		<g>
			<polygon fill-rule="evenodd" clip-rule="evenodd" fill="#0090A6" points="272.33,185.602 234.243,185.602 215.484,191.041 
				215.484,246.672 242.704,261.804 295.308,261.804 296.505,197.091 			"/>
		</g>
	</g>
	<g>
		<g>
			<polygon fill-rule="evenodd" clip-rule="evenodd" fill="#008391" points="250.196,261.798 295.318,261.798 296.162,215.815 			
				"/>
		</g>
	</g>
	<g>
		<g>
			<path fill-rule="evenodd" clip-rule="evenodd" fill="#B3C2E3" d="M395.884,116.104l-16.934,16.934h1.426
				c9.67,0,17.481,7.845,17.481,17.487l0.034,82.93c0,9.659-7.869,17.481-17.527,17.481l-13.798,0.023
				c-5.588,0-10.16,4.521-10.16,10.126v40.903l-48.076-48.064c-0.217-0.229-0.548-0.314-0.787-0.513l0.022-40.203
				c0-2.719-0.296-5.371-0.844-7.942l-19.431,19.432l0.022,26.262h-26.284l-20.218,20.224l1.379,0.04l45.123,0.035v24.859
				c0,9.67-7.891,17.481-17.526,17.481l0.022,0.022H210.82c-2.668,0-5.269,1.049-7.161,2.942l-48.099,48.087v-8.222l-20.229,20.235
				v12.47c0,4.065,2.417,7.766,6.203,9.322c1.312,0.582,2.6,0.781,3.877,0.781c2.669,0.023,5.234-1.026,7.185-2.965l62.444-62.404
				h54.77c20.834,0,37.733-16.957,37.733-37.762l0.022-14.271l51.84,51.799c1.916,1.961,4.516,2.954,7.139,2.954
				c1.346,0.011,2.611-0.256,3.854-0.758c3.832-1.551,6.272-5.263,6.272-9.374l0.022-55.197h3.684
				c20.811,0,37.733-16.979,37.733-37.825l0.034-82.879C418.144,135.279,408.998,122.046,395.884,116.104z"/>
		</g>
	</g>
	<g>
		<g>
			<path fill-rule="evenodd" clip-rule="evenodd" fill="#F4EEEB" d="M380.364,112.758l0.012,0.034H242.214
				c-20.846,0-37.802,16.922-37.802,37.728l0.045,24.934h-72.832c-20.834,0-37.791,16.928-37.791,37.75l0.034,82.907
				c0,20.828,16.923,37.762,37.745,37.762h3.718v55.266c0,4.065,2.44,7.766,6.203,9.317c1.312,0.576,2.6,0.787,3.877,0.787
				c2.669,0.023,5.234-1.043,7.195-2.982l62.434-62.387h54.77c20.834,0,37.733-16.957,37.733-37.762l0.022-14.271l51.852,51.799
				c1.904,1.961,4.492,2.954,7.127,2.954c1.346,0.011,2.622-0.257,3.854-0.758c3.832-1.551,6.272-5.28,6.272-9.391l0.022-55.198
				h3.684c20.811,0,37.733-16.974,37.733-37.819l0.022-82.885C418.132,129.749,401.187,112.758,380.364,112.758z M287.325,296.111
				c0,9.665-7.902,17.476-17.55,17.476l0.034,0.04H210.82c-2.668,0-5.269,1.049-7.161,2.942l-48.099,48.071v-40.904
				c0-5.593-4.539-10.149-10.149-10.149l-13.786,0.04c-9.625,0-17.516-7.874-17.516-17.516v-82.896
				c0-9.636,7.868-17.504,17.504-17.504l72.844,0.034v37.705c0,20.845,16.911,37.762,37.745,37.762l45.123,0.034V296.111z
				 M242.214,250.965c-9.613,0-17.527-7.868-17.527-17.538l0.012-37.682h45.111c9.613,0,17.458,7.8,17.458,17.458l0.058,37.762
				H242.214z M380.364,250.954l-13.798,0.011c-5.599,0-10.16,4.521-10.16,10.115v40.915l-48.065-48.065
				c-0.228-0.234-0.559-0.313-0.798-0.513l0.022-40.202c0-20.811-16.968-37.762-37.79-37.762h-45.077v-24.911
				c0-9.664,7.856-17.516,17.504-17.516l138.174,0.012c9.682,0,17.492,7.84,17.492,17.481l0.023,82.931
				C397.892,243.12,390.022,250.954,380.364,250.954z"/>
		</g>
	</g>
</g>
</svg>
