<?xml version="1.0" encoding="utf-8"?>
<!-- Generator: Adobe Illustrator 16.0.3, SVG Export Plug-In . SVG Version: 6.00 Build 0)  -->
<!DOCTYPE svg PUBLIC "-//W3C//DTD SVG 1.1//EN" "http://www.w3.org/Graphics/SVG/1.1/DTD/svg11.dtd">
<svg version="1.1" id="Layer_1" xmlns="http://www.w3.org/2000/svg" xmlns:xlink="http://www.w3.org/1999/xlink" x="0px" y="0px"
	 width="512px" height="512px" viewBox="0 0 512 512" enable-background="new 0 0 512 512" xml:space="preserve">
<g>
	<g>
		<g>
			<path fill-rule="evenodd" clip-rule="evenodd" fill="#00ADBB" d="M256.006,1C115.156,1,1,115.164,1,256s114.156,255,255.006,255
				C396.833,511,511,396.836,511,256S396.833,1,256.006,1z"/>
		</g>
	</g>
	<g>
		<g>
			<path fill-rule="evenodd" clip-rule="evenodd" fill="#C9E9ED" d="M408.27,256c0-22.253-16.5-42.773-46.467-57.763
				c-1.038-0.502-2.109-0.992-3.158-1.494c0.08-1.157,0.193-2.337,0.285-3.483c1.984-33.452-7.526-57.997-26.797-69.138
				c-7.036-4.077-15.098-6.129-23.901-6.129c-16.261,0-34.289,6.985-52.249,19.409c-17.937-12.424-35.965-19.409-52.214-19.409
				c-8.814,0-16.854,2.053-23.924,6.129c-19.259,11.141-28.77,35.687-26.74,69.138c0.057,1.1,0.148,2.229,0.251,3.341
				C122.705,211.105,103.73,232.167,103.73,256c0,23.821,18.975,44.9,49.626,59.388c-0.103,1.124-0.194,2.241-0.251,3.353
				c-2.03,33.458,7.48,58.003,26.74,69.127c7.07,4.088,15.109,6.141,23.924,6.141c16.249,0,34.277-6.968,52.214-19.403
				c17.96,12.424,35.988,19.391,52.249,19.391c8.803,0,16.865-2.041,23.901-6.129c19.271-11.124,28.781-35.669,26.797-69.127
				c-0.091-1.112-0.205-2.229-0.273-3.353C389.284,300.9,408.27,279.821,408.27,256z M308.231,132.497
				c6.226,0,11.836,1.408,16.66,4.179c13.992,8.079,20.914,27.288,19.602,54.12c-13.513-4.995-28.485-8.78-44.346-11.221
				c-10.194-12.692-20.993-23.776-31.974-32.916C282.232,137.571,296.019,132.497,308.231,132.497z M176.219,275.551
				c3.25,6.819,6.819,13.616,10.708,20.327c3.877,6.705,7.937,13.136,12.144,19.3c-10.798-2.377-20.924-5.428-30.058-9.026
				C170.472,296.276,172.9,286.014,176.219,275.551z M169.012,205.837c9.134-3.586,19.26-6.631,30.058-9.025
				c-4.208,6.163-8.267,12.612-12.144,19.311c-3.889,6.717-7.458,13.524-10.708,20.321
				C172.9,225.992,170.472,215.718,169.012,205.837z M183.357,256c4.516-10.907,9.898-21.86,16.113-32.625
				c6.237-10.787,13.034-20.914,20.194-30.196c11.62-1.579,23.81-2.44,36.319-2.44c12.452,0,24.585,0.804,36.307,2.349
				c7.161,9.328,13.98,19.466,20.229,30.287c6.203,10.765,11.608,21.718,16.124,32.625c-4.516,10.896-9.921,21.849-16.124,32.625
				c-6.226,10.793-13.022,20.914-20.183,30.213c-11.608,1.573-23.81,2.423-36.353,2.423c-12.509,0-24.699-0.85-36.33-2.423
				c-7.149-9.299-13.946-19.42-20.183-30.213C193.255,277.849,187.873,266.896,183.357,256z M325.085,295.877
				c3.877-6.711,7.424-13.507,10.696-20.327c3.307,10.463,5.747,20.726,7.207,30.601c-9.134,3.598-19.26,6.648-30.081,9.026
				C317.126,309.014,321.22,302.583,325.085,295.877z M335.781,236.443c-3.272-6.796-6.819-13.604-10.696-20.321
				c-3.888-6.756-8.027-13.239-12.258-19.442c10.753,2.36,20.867,5.399,30.184,9.088
				C341.551,215.667,339.111,225.958,335.781,236.443z M278.937,177.124c-7.526-0.582-15.188-0.89-22.954-0.89
				c-7.8,0-15.451,0.308-22.909,0.867c7.492-8.21,15.2-15.497,22.909-21.66C263.749,161.615,271.445,168.891,278.937,177.124z
				 M187.12,136.676c4.801-2.771,10.411-4.179,16.648-4.179c12.212,0,25.987,5.074,40.059,14.163
				c-10.97,9.128-21.757,20.201-31.94,32.87c-16.146,2.463-31.084,6.283-44.392,11.187
				C166.207,163.93,173.151,144.755,187.12,136.676z M118.211,256c0-16.769,14.208-32.3,37.083-44.011
				c2.44,14.214,6.636,29.067,12.44,44.011c-5.804,14.95-10,29.802-12.44,44.011C132.42,288.3,118.211,272.769,118.211,256z
				 M203.769,379.509c-6.237,0-11.848-1.414-16.648-4.19c-13.969-8.074-20.913-27.243-19.625-54.029
				c13.307,4.903,28.245,8.718,44.392,11.187c10.183,12.669,20.959,23.736,31.94,32.87
				C229.756,374.429,215.981,379.509,203.769,379.509z M233.063,334.894c7.469,0.559,15.132,0.873,22.92,0.873
				c7.834,0,15.474-0.314,22.954-0.873c-7.503,8.216-15.188,15.491-22.954,21.672C248.274,350.385,240.566,343.109,233.063,334.894z
				 M324.891,375.318c-4.823,2.776-10.434,4.19-16.66,4.19c-12.212,0-25.999-5.08-40.059-14.163
				c10.97-9.146,21.768-20.201,31.94-32.87c16.135-2.469,31.096-6.283,44.38-11.187C345.771,348.076,338.86,367.245,324.891,375.318
				z M356.706,300.011c-2.452-14.208-6.648-29.061-12.452-44.011c5.827-14.978,10.023-29.819,12.463-44.057
				c23.9,12.31,37.037,27.898,37.037,44.057C393.754,272.769,379.58,288.3,356.706,300.011z"/>
		</g>
	</g>
	<g>
		<g>
			<path fill-rule="evenodd" clip-rule="evenodd" fill="#C9E9ED" d="M255.983,212.491c-24.003,0-43.479,19.477-43.479,43.509
				s19.476,43.509,43.479,43.509c24.049,0,43.514-19.477,43.514-43.509S280.032,212.491,255.983,212.491z"/>
		</g>
	</g>
	<g>
		<g>
			<path fill-rule="evenodd" clip-rule="evenodd" fill="#92E2E8" d="M255.983,212.491c-24.003,0-43.479,19.477-43.479,43.509
				c0,12.447,5.222,23.645,13.604,31.587l61.462-61.492C279.656,217.725,268.435,212.491,255.983,212.491z"/>
		</g>
	</g>
</g>
</svg>
