<?xml version="1.0" encoding="utf-8"?>
<!-- Generator: Adobe Illustrator 16.0.3, SVG Export Plug-In . SVG Version: 6.00 Build 0)  -->
<!DOCTYPE svg PUBLIC "-//W3C//DTD SVG 1.1//EN" "http://www.w3.org/Graphics/SVG/1.1/DTD/svg11.dtd">
<svg version="1.1" id="Layer_1" xmlns="http://www.w3.org/2000/svg" xmlns:xlink="http://www.w3.org/1999/xlink" x="0px" y="0px"
	 width="512px" height="512px" viewBox="0 0 512 512" enable-background="new 0 0 512 512" xml:space="preserve">
<g>
	<g>
		<g>
			<path fill-rule="evenodd" clip-rule="evenodd" fill="#82A53C" d="M256,1C115.17,1,1,115.164,1,256c0,140.836,114.17,255,255,255
				s255-114.164,255-255C511,115.164,396.83,1,256,1z"/>
		</g>
	</g>
	<g>
		<g>
			<path fill-rule="evenodd" clip-rule="evenodd" fill="#F9ED44" d="M367.193,129.737H144.818
				c-18.006,0-32.705,14.647-32.705,32.688v132.46c0,18.006,14.676,32.676,32.693,32.676l21.507,0.034v54.656l76.425-54.656h124.455
				c18.04,0,32.682-14.705,32.682-32.733V162.448C399.875,144.385,385.211,129.714,367.193,129.737z M184,246.684
				c-9.967,0-18.018-8.056-18.018-17.983c0-9.938,8.039-17.983,17.994-17.983c9.979,0,17.972,8.045,17.972,17.983
				C201.948,238.65,193.897,246.684,184,246.684z M255.932,246.684c-9.967,0-18.006-8.056-18.006-17.983
				c0.012-9.938,8.039-17.983,17.983-17.983c9.943,0,17.982,8.045,17.982,17.983C273.903,238.65,265.853,246.684,255.932,246.684z
				 M327.841,246.684c-9.898,0-17.983-8.056-17.983-17.983c0.012-9.938,8.04-17.983,17.983-17.983
				c9.942,0,17.994,8.045,17.994,17.983C345.847,238.65,337.783,246.684,327.841,246.684z"/>
		</g>
	</g>
	<g>
		<g>
			<path fill-rule="evenodd" clip-rule="evenodd" fill="#FAF06F" d="M379.748,132.252l-213.435,213.44v36.559l76.425-54.656h124.455
				c18.04,0,32.682-14.705,32.682-32.733V162.448C399.875,148.844,391.562,137.167,379.748,132.252z M327.841,246.684
				c-9.898,0-17.983-8.056-17.983-17.983c0.012-9.938,8.04-17.983,17.983-17.983c9.942,0,17.994,8.045,17.994,17.983
				C345.847,238.65,337.783,246.684,327.841,246.684z"/>
		</g>
	</g>
</g>
</svg>
