<?xml version="1.0" encoding="utf-8"?>
<!-- Generator: Adobe Illustrator 16.0.3, SVG Export Plug-In . SVG Version: 6.00 Build 0)  -->
<!DOCTYPE svg PUBLIC "-//W3C//DTD SVG 1.1//EN" "http://www.w3.org/Graphics/SVG/1.1/DTD/svg11.dtd">
<svg version="1.1" id="Layer_1" xmlns="http://www.w3.org/2000/svg" xmlns:xlink="http://www.w3.org/1999/xlink" x="0px" y="0px"
	 width="512px" height="512px" viewBox="0 0 512 512" enable-background="new 0 0 512 512" xml:space="preserve">
<g>
	<g>
		<g>
			<path fill-rule="evenodd" clip-rule="evenodd" fill="#72C6A1" d="M256.006,1C115.178,1,1,115.167,1,256.006
				C1,396.833,115.178,511,256.006,511C396.833,511,511,396.833,511,256.006C511,115.167,396.833,1,256.006,1z"/>
		</g>
	</g>
	<g>
		<g>
			<path fill-rule="evenodd" clip-rule="evenodd" fill="#BFE2D1" d="M252.3,135.92c-52.739,0-95.489,42.761-95.489,95.5
				c0,23.091,8.199,44.289,21.836,60.79c-3.375-9.807-5.223-20.309-5.223-31.267c0-52.739,42.75-95.5,95.489-95.5
				c29.636,0,56.125,13.513,73.641,34.699C329.601,162.763,294.092,135.92,252.3,135.92z"/>
		</g>
	</g>
	<g>
		<g>
			<path fill-rule="evenodd" clip-rule="evenodd" fill="#007035" d="M255.983,246.986c4.972,0,8.974-4.014,8.974-9.008
				c0.046-4.926-4.025-8.974-8.997-8.974c-4.926,0.034-8.974,4.048-8.974,8.974C246.997,242.983,251.034,246.975,255.983,246.986z
				 M148.099,112.134v287.732h215.802V112.134H148.099z M175.044,130.105c4.972,0,8.997,4.014,8.997,8.985
				c0,4.972-4.048,8.975-8.997,8.975c-4.972,0.034-9.008-4.025-9.008-8.975C166.059,134.142,170.073,130.094,175.044,130.105z
				 M175.044,381.872v0.023c-4.972,0-9.008-4.037-9.008-9.008c0.022-4.926,4.037-9.008,9.008-9.008
				c4.972,0.022,8.997,4.014,8.997,9.008C184.041,377.858,179.993,381.872,175.044,381.872z M297.9,317.627l-26.911,42.305
				c0,0-2.372,2.965-2.646,3.216c-6.637,6.294-15.371,9.738-24.608,9.738c-9.556,0-18.632-3.74-25.417-10.537
				c-6.762-6.796-10.548-15.85-10.548-25.463c0.023-7.013,2.041-13.809,5.815-19.567c-25.839-13.821-44.449-40.07-47.186-71.463
				c-4.311-49.489,32.259-93.083,81.714-97.438c49.512-4.276,93.094,32.282,97.427,81.737c3.262,37.196-16.625,71.063-47.676,87.427
				L297.9,317.627z M336.899,381.872l0.011,0.023c-5.006,0-9.02-4.037-9.02-9.008c0.023-4.926,4.014-9.008,9.009-9.008
				c4.983,0.022,9.008,4.014,9.008,9.008C345.907,377.858,341.871,381.872,336.899,381.872z M336.899,148.065l0.011,0.034
				c-5.006,0-9.02-4.06-9.02-9.009c0.023-4.949,4.014-8.997,9.009-8.997c4.983,0.011,9.008,4.025,9.008,8.997
				C345.907,144.062,341.871,148.065,336.899,148.065z M255.983,273.988c19.818,0,35.942-16.146,35.942-36.011
				c0.023-19.796-16.124-35.954-35.965-35.954c-19.807,0.022-35.965,16.146-35.965,35.954
				C219.995,257.842,236.119,273.965,255.983,273.988z M255.983,211.021c14.881,0,26.957,12.11,26.957,26.957
				c0.023,14.938-12.11,26.991-26.979,26.991c-14.835,0.035-26.968-12.076-26.968-26.991
				C229.026,223.131,241.09,211.021,255.983,211.021z M296.521,271.958c-0.57,0.365-60.413,38.554-70.437,44.962
				c-0.889,0.604-1.414,0.901-1.414,0.901c-0.411,0.422-0.821,0.833-1.198,1.289c-9.293,10.594-8.928,26.751,1.198,36.854
				c10.263,10.286,26.717,10.548,37.311,0.821c0.296-0.228,1.642-2.053,3.01-4.208c9.042-14.106,43.195-67.643,43.491-68.076
				c2.303-3.421,1.87-8.119-1.174-11.152C304.377,270.431,299.919,269.952,296.521,271.958z"/>
		</g>
	</g>
	<g>
		<g>
			<path fill-rule="evenodd" clip-rule="evenodd" fill="#007847" d="M291.925,237.978c0-5.246-1.118-10.24-3.159-14.755
				l-6.967,6.956c0.752,2.498,1.14,5.109,1.14,7.8c0.023,14.915-12.11,26.979-26.979,26.979c-2.691,0.011-5.313-0.365-7.799-1.14
				l-6.956,6.979c4.493,2.03,9.499,3.193,14.778,3.193C275.801,273.988,291.925,257.842,291.925,237.978z M327.913,184.076
				c9.738,12.965,16.101,28.735,17.606,46.08c3.284,37.196-16.603,71.063-47.653,87.427l0.034,0.045l-26.911,42.305
				c0,0-2.372,2.965-2.646,3.216c-6.637,6.294-15.371,9.738-24.608,9.738c-9.567,0-18.632-3.74-25.417-10.537
				c-6.762-6.796-10.548-15.85-10.548-25.463c0.023-7.013,2.041-13.809,5.815-19.567c-4.037-2.178-7.891-4.63-11.54-7.355
				l-53.947,53.936v35.965h215.802V148.087L327.913,184.076z M175.044,381.872v0.023c-4.972,0-9.008-4.037-9.008-9.008
				c0.022-4.926,4.037-9.008,9.008-9.008c4.972,0.022,8.985,4.014,8.985,9.008C184.03,377.858,180.016,381.872,175.044,381.872z
				 M336.899,381.872v0.023c-4.96,0-9.009-4.037-9.009-9.008c0.023-4.926,4.048-9.008,9.009-9.008
				c4.983,0.022,9.008,4.014,9.008,9.008C345.907,377.858,341.859,381.872,336.899,381.872z M261.981,356.786
				c0.296-0.251,1.642-2.053,3.01-4.208c9.042-14.106,43.195-67.643,43.468-68.076c2.326-3.421,1.893-8.119-1.151-11.152
				c-2.931-2.919-7.389-3.398-10.776-1.391c-0.582,0.365-60.425,38.554-70.448,44.962c-0.889,0.604-1.414,0.901-1.414,0.901
				c-0.411,0.422-0.821,0.833-1.198,1.266c-9.293,10.616-8.928,26.774,1.198,36.877C234.933,366.25,251.388,366.512,261.981,356.786
				z"/>
		</g>
	</g>
</g>
</svg>
