<?xml version="1.0" encoding="utf-8"?>
<!-- Generator: Adobe Illustrator 16.0.3, SVG Export Plug-In . SVG Version: 6.00 Build 0)  -->
<!DOCTYPE svg PUBLIC "-//W3C//DTD SVG 1.1//EN" "http://www.w3.org/Graphics/SVG/1.1/DTD/svg11.dtd">
<svg version="1.1" id="Layer_1" xmlns="http://www.w3.org/2000/svg" xmlns:xlink="http://www.w3.org/1999/xlink" x="0px" y="0px"
	 width="512px" height="512px" viewBox="0 0 512 512" enable-background="new 0 0 512 512" xml:space="preserve">
<g>
	<g>
		<g>
			<path fill-rule="evenodd" clip-rule="evenodd" fill="#FFDC88" d="M256,1C115.146,1,1,115.17,1,256s114.146,255,255,255
				c140.83,0,255-114.17,255-255S396.83,1,256,1z"/>
		</g>
	</g>
	<g>
		<g>
			<path fill-rule="evenodd" clip-rule="evenodd" fill="#FFEDC3" d="M283.915,147.646c-3.079-3.125-157.365,151.161-157.365,151.161
				l66.55,66.572h67.074l120.761-120.737L283.915,147.646z"/>
		</g>
	</g>
	<g>
		<g>
			<polygon fill-rule="evenodd" clip-rule="evenodd" fill="#FFF7EB" points="324.146,187.877 169.859,342.141 193.1,365.38 
				260.174,365.38 380.935,244.643 			"/>
		</g>
	</g>
	<g>
		<g>
			<path fill-rule="evenodd" clip-rule="evenodd" fill="#444444" d="M395.781,239.922L283.71,127.805L116.196,295.25l52.979,52.979
				h-43.173v35.966h251.83v-35.966h-90.451L395.781,239.922z M272.717,164.181l-9.624,110.498l-110.498,9.602L272.717,164.181z
				 M195.016,348.229l-45.979-45.567l130.659-11.335l11.38-130.704l79.253,79.299L261.952,348.229H195.016z"/>
		</g>
	</g>
	<g>
		<g>
			<path fill-rule="evenodd" clip-rule="evenodd" fill="#232323" d="M285.329,226.671l-19.773,19.773l-2.463,28.257l-28.234,2.463
				l-19.796,19.773l64.634-5.61L285.329,226.671z M395.804,239.922l-61.851-61.852l-12.727,12.703l49.103,49.148L261.952,348.229
				h-66.937l-15.691-15.554l-12.84,12.862l2.691,2.691h-5.383l-36.012,35.966h250.052v-35.966h-90.451L395.804,239.922z"/>
		</g>
	</g>
</g>
</svg>
