<?xml version="1.0" encoding="utf-8"?>
<!-- Generator: Adobe Illustrator 16.0.3, SVG Export Plug-In . SVG Version: 6.00 Build 0)  -->
<!DOCTYPE svg PUBLIC "-//W3C//DTD SVG 1.1//EN" "http://www.w3.org/Graphics/SVG/1.1/DTD/svg11.dtd">
<svg version="1.1" id="Layer_1" xmlns="http://www.w3.org/2000/svg" xmlns:xlink="http://www.w3.org/1999/xlink" x="0px" y="0px"
	 width="512px" height="512px" viewBox="0 0 512 512" enable-background="new 0 0 512 512" xml:space="preserve">
<g>
	<g>
		<g>
			<path fill-rule="evenodd" clip-rule="evenodd" fill="#F05622" d="M256.006,1C115.178,1,1,115.188,1,256.012
				S115.178,511,256.006,511C396.833,511,511,396.836,511,256.012S396.833,1,256.006,1z"/>
		</g>
	</g>
	<g>
		<g>
			<path fill-rule="evenodd" clip-rule="evenodd" fill="#FFE06A" d="M255.983,98.722L119.124,144.31V259.82
				c0,55.052,32.772,96.057,52.317,115.601c31.746,31.7,66.023,46.09,84.542,46.09c18.542,0,52.807-14.413,84.497-46.09
				c19.567-19.544,52.362-60.571,52.362-115.646l0.034-115.465L255.983,98.722z M330.673,185.132H206.254v49.762h124.418v74.665
				l-74.69,49.739l-74.644-49.739v-31.061l74.644,49.738l49.774-33.205V259.82H181.339v-99.547h149.334V185.132z"/>
		</g>
	</g>
	<g>
		<g>
			<path fill-rule="evenodd" clip-rule="evenodd" fill="#FFE896" d="M305.757,295.031V259.82H255.96l-41.028,41.05l41.051,27.366
				L305.757,295.031z M376.821,138.974l-46.148,46.136v0.022l-49.786,49.762h49.786v74.665l-74.69,49.739l-59.695-39.773
				l-39.523,39.5c5.188,6.477,10.297,11.949,14.687,16.396c31.735,31.7,66.023,46.09,84.531,46.09
				c18.542,0,52.819-14.413,84.497-46.09c19.579-19.544,52.362-60.571,52.362-115.646l0.023-115.465L376.821,138.974z"/>
		</g>
	</g>
</g>
</svg>
