<?xml version="1.0" encoding="utf-8"?>
<!-- Generator: Adobe Illustrator 16.0.3, SVG Export Plug-In . SVG Version: 6.00 Build 0)  -->
<!DOCTYPE svg PUBLIC "-//W3C//DTD SVG 1.1//EN" "http://www.w3.org/Graphics/SVG/1.1/DTD/svg11.dtd">
<svg version="1.1" id="Layer_1" xmlns="http://www.w3.org/2000/svg" xmlns:xlink="http://www.w3.org/1999/xlink" x="0px" y="0px"
	 width="512px" height="512px" viewBox="0 0 512 512" enable-background="new 0 0 512 512" xml:space="preserve">
<g>
	<g>
		<g>
			<path fill-rule="evenodd" clip-rule="evenodd" fill="#FFE09A" d="M256,1C115.181,1,1,115.167,1,256.006
				C1,396.833,115.181,511,256,511c140.842,0,255-114.167,255-254.994C511,115.167,396.842,1,256,1z"/>
		</g>
	</g>
	<g>
		<g>
			<rect x="143.416" y="142.523" fill-rule="evenodd" clip-rule="evenodd" fill="#EDEDEB" width="227.723" height="175.721"/>
		</g>
	</g>
	<g>
		<g>
			<path fill-rule="evenodd" clip-rule="evenodd" fill="#848383" d="M399.875,345.805V112.134H112.136v233.671h89.949v36.09h-53.938
				v17.971h215.784v-17.971h-53.926v-36.09H399.875z M148.102,309.965V148.087h71.909v71.874h-35.943l71.955,71.953l71.943-71.953
				H292v-71.874h71.886v161.877H148.102z"/>
		</g>
	</g>
	<g>
		<g>
			<path fill-rule="evenodd" clip-rule="evenodd" fill="#3F3F3F" d="M327.978,219.961h-35.943l-53.983,53.97l17.972,17.971
				L327.978,219.961z M399.875,345.793V112.134l-35.989,35.965v161.866H202.04l-35.84,35.828h35.886v36.102h-53.938v17.971h215.795
				v-17.971h-53.938v-36.102H399.875z"/>
		</g>
	</g>
</g>
</svg>
