<?xml version="1.0" encoding="utf-8"?>
<!-- Generator: Adobe Illustrator 16.0.3, SVG Export Plug-In . SVG Version: 6.00 Build 0)  -->
<!DOCTYPE svg PUBLIC "-//W3C//DTD SVG 1.1//EN" "http://www.w3.org/Graphics/SVG/1.1/DTD/svg11.dtd">
<svg version="1.1" id="Layer_1" xmlns="http://www.w3.org/2000/svg" xmlns:xlink="http://www.w3.org/1999/xlink" x="0px" y="0px"
	 width="59.999px" height="60px" viewBox="0 0 59.999 60" enable-background="new 0 0 59.999 60" xml:space="preserve">
<g>
	<path  d="M58.394,8.314H5.236C2.35,8.314,0,10.664,0,13.552v32.896c0,2.888,2.35,5.237,5.236,5.237h49.527
		c2.887,0,5.236-2.35,5.236-5.237V9.921C60,9.034,59.281,8.314,58.394,8.314z M5.236,11.528h51.551v8.979H3.213v-6.956
		C3.213,12.436,4.121,11.528,5.236,11.528z M54.764,48.472H5.236c-1.115,0-2.023-0.907-2.023-2.023V22.114h53.574v24.334
		C56.787,47.564,55.879,48.472,54.764,48.472z"/>
	<path  d="M20.061,35.583l-7.371-7.372c-0.313-0.313-0.822-0.313-1.136,0s-0.313,0.822,0,1.136l6.831,6.832
		l-6.831,6.832c-0.313,0.313-0.313,0.822,0,1.136c0.157,0.157,0.362,0.235,0.567,0.235c0.206,0,0.411-0.078,0.568-0.235l7.371-7.372
		c0.164-0.164,0.237-0.381,0.229-0.596C20.298,35.964,20.225,35.747,20.061,35.583z"/>
	<path  d="M39.455,35.347h-13.09c-0.443,0-0.803,0.36-0.803,0.804s0.359,0.804,0.803,0.804h13.09
		c0.443,0,0.804-0.36,0.804-0.804S39.898,35.347,39.455,35.347z"/>
	<path  d="M51.519,18.178c1.318,0,2.392-1.072,2.392-2.392c0-1.32-1.073-2.394-2.392-2.394
		c-1.319,0-2.393,1.073-2.393,2.394C49.126,17.105,50.199,18.178,51.519,18.178z M51.519,14.999c0.433,0,0.785,0.354,0.785,0.787
		s-0.353,0.785-0.785,0.785c-0.434,0-0.786-0.352-0.786-0.785S51.085,14.999,51.519,14.999z"/>
	<path  d="M46.281,18.178c1.319,0,2.393-1.072,2.393-2.392c0-1.32-1.073-2.394-2.393-2.394s-2.393,1.073-2.393,2.394
		C43.889,17.105,44.962,18.178,46.281,18.178z M46.281,14.999c0.434,0,0.786,0.354,0.786,0.787s-0.353,0.785-0.786,0.785
		s-0.786-0.352-0.786-0.785S45.848,14.999,46.281,14.999z"/>
	<path  d="M41.043,18.178c1.319,0,2.393-1.072,2.393-2.392c0-1.32-1.073-2.394-2.393-2.394
		c-1.318,0-2.391,1.073-2.391,2.394C38.652,17.105,39.725,18.178,41.043,18.178z M41.043,14.999c0.434,0,0.786,0.354,0.786,0.787
		s-0.353,0.785-0.786,0.785c-0.433,0-0.784-0.352-0.784-0.785S40.61,14.999,41.043,14.999z"/>
</g>
</svg>
