<?xml version="1.0" encoding="utf-8"?>
<!-- Generator: Adobe Illustrator 16.0.3, SVG Export Plug-In . SVG Version: 6.00 Build 0)  -->
<!DOCTYPE svg PUBLIC "-//W3C//DTD SVG 1.1//EN" "http://www.w3.org/Graphics/SVG/1.1/DTD/svg11.dtd">
<svg version="1.1" id="Layer_1" xmlns="http://www.w3.org/2000/svg" xmlns:xlink="http://www.w3.org/1999/xlink" x="0px" y="0px"
	 width="60px" height="60px" viewBox="0 0 60 60" enable-background="new 0 0 60 60" xml:space="preserve">
<g>
	<path  d="M33.537,44.135H4.742c-1.01,0-1.832-0.822-1.832-1.832V19.561h48.529v6.716c0,0.803,0.65,1.455,1.455,1.455
		c0.803,0,1.455-0.652,1.455-1.455V9.215c0-0.804-0.652-1.456-1.455-1.456H4.742C2.127,7.759,0,9.888,0,12.503v29.799
		c0,2.615,2.127,4.742,4.742,4.742h28.795c0.805,0,1.455-0.65,1.455-1.455C34.992,44.787,34.342,44.135,33.537,44.135z M4.742,10.67
		h46.697v7.436H2.91v-5.603C2.91,11.493,3.732,10.67,4.742,10.67z"/>
	<path  d="M47.549,27.344c-6.863,0-12.447,5.584-12.447,12.447c0,6.865,5.584,12.449,12.447,12.449h0.002
		C54.416,52.24,60,46.656,60,39.791C60,32.928,54.414,27.344,47.549,27.344z M47.551,49.33h-0.002c-5.258,0-9.537-4.279-9.537-9.539
		s4.277-9.537,9.539-9.537c5.26,0,9.539,4.277,9.539,9.537S52.811,49.33,47.551,49.33z"/>
	<path  d="M54.943,34.834c-0.568-0.568-1.49-0.568-2.059,0l-7.689,7.689l-3.391-3.285
		c-0.576-0.559-1.498-0.543-2.059,0.033c-0.559,0.576-0.545,1.498,0.033,2.059l4.42,4.279c0.041,0.041,0.086,0.07,0.129,0.104
		c0.031,0.023,0.059,0.051,0.09,0.07c0.049,0.033,0.104,0.057,0.156,0.082c0.031,0.016,0.062,0.037,0.096,0.049
		c0.059,0.023,0.119,0.039,0.18,0.055c0.029,0.008,0.057,0.02,0.086,0.025c0.092,0.018,0.184,0.025,0.275,0.025
		c0.096,0,0.189-0.01,0.281-0.027c0.029-0.006,0.057-0.018,0.084-0.025c0.062-0.016,0.127-0.031,0.188-0.057
		c0.035-0.014,0.068-0.035,0.102-0.053c0.053-0.027,0.105-0.051,0.154-0.082c0.035-0.025,0.068-0.059,0.104-0.086
		c0.039-0.033,0.08-0.059,0.117-0.096l8.703-8.701C55.512,36.324,55.512,35.402,54.943,34.834z"/>
	<path  d="M47.746,16.693c1.193,0,2.166-0.972,2.166-2.166c0-1.195-0.973-2.168-2.166-2.168
		c-1.195,0-2.168,0.973-2.168,2.168C45.578,15.722,46.551,16.693,47.746,16.693z M47.746,13.814c0.393,0,0.711,0.32,0.711,0.713
		c0,0.392-0.318,0.711-0.711,0.711s-0.713-0.319-0.713-0.711C47.033,14.134,47.354,13.814,47.746,13.814z"/>
	<path  d="M43.002,16.693c1.195,0,2.168-0.972,2.168-2.166c0-1.195-0.973-2.168-2.168-2.168s-2.168,0.973-2.168,2.168
		C40.834,15.722,41.807,16.693,43.002,16.693z M43.002,13.814c0.393,0,0.713,0.32,0.713,0.713c0,0.392-0.32,0.711-0.713,0.711
		s-0.713-0.319-0.713-0.711C42.289,14.134,42.609,13.814,43.002,13.814z"/>
	<path  d="M38.256,16.693c1.195,0,2.168-0.972,2.168-2.166c0-1.195-0.973-2.168-2.168-2.168
		c-1.193,0-2.164,0.973-2.164,2.168C36.092,15.722,37.062,16.693,38.256,16.693z M38.256,13.814c0.393,0,0.713,0.32,0.713,0.713
		c0,0.392-0.32,0.711-0.713,0.711c-0.391,0-0.709-0.319-0.709-0.711C37.547,14.134,37.865,13.814,38.256,13.814z"/>
</g>
</svg>
