<?xml version="1.0" encoding="utf-8"?>
<!-- Generator: Adobe Illustrator 16.0.3, SVG Export Plug-In . SVG Version: 6.00 Build 0)  -->
<!DOCTYPE svg PUBLIC "-//W3C//DTD SVG 1.1//EN" "http://www.w3.org/Graphics/SVG/1.1/DTD/svg11.dtd">
<svg version="1.1" id="Layer_1" xmlns="http://www.w3.org/2000/svg" xmlns:xlink="http://www.w3.org/1999/xlink" x="0px" y="0px"
	 width="60px" height="60px" viewBox="0 0 60 60" enable-background="new 0 0 60 60" xml:space="preserve">
<g>
	<path  d="M58.504,14.555h-1.79v-1.79c0-0.827-0.67-1.496-1.496-1.496h-2.49v-2.49c0-0.826-0.669-1.495-1.495-1.495
		H4.676C2.098,7.283,0,9.38,0,11.959V40.77c0,2.36,1.76,4.312,4.035,4.626c0.258,1.868,1.619,3.384,3.404,3.868
		c0.539,1.986,2.354,3.453,4.509,3.453h43.376c2.578,0,4.676-2.097,4.676-4.675V16.051C60,15.225,59.33,14.555,58.504,14.555z
		 M53.722,14.26v30.496c0,0.928-0.755,1.684-1.684,1.684H8.662c-0.683,0-1.269-0.409-1.532-0.994h40.922
		c2.578,0,4.676-2.098,4.676-4.676V14.26H53.722z M4.676,10.274h45.061v7.312H2.992v-5.628C2.992,11.03,3.747,10.274,4.676,10.274z
		 M2.992,40.77V19.082h46.744V40.77c0,0.929-0.756,1.684-1.685,1.684H4.676C3.747,42.453,2.992,41.698,2.992,40.77z M57.008,48.042
		c0,0.928-0.755,1.684-1.684,1.684H11.948c-0.352,0-0.679-0.109-0.949-0.294h41.039c2.578,0,4.676-2.098,4.676-4.676V17.547h0.294
		V48.042z"/>
	<path  d="M45.892,16.16c1.229,0,2.229-1,2.229-2.228c0-1.229-0.999-2.229-2.229-2.229c-1.228,0-2.227,1-2.227,2.229
		C43.665,15.16,44.664,16.16,45.892,16.16z M45.892,13.2c0.404,0,0.732,0.329,0.732,0.732s-0.328,0.731-0.732,0.731
		c-0.402,0-0.73-0.328-0.73-0.731S45.489,13.2,45.892,13.2z"/>
	<path  d="M41.016,16.16c1.229,0,2.228-1,2.228-2.228c0-1.229-0.999-2.229-2.228-2.229s-2.228,1-2.228,2.229
		C38.788,15.16,39.787,16.16,41.016,16.16z M41.016,13.2c0.403,0,0.731,0.329,0.731,0.732s-0.328,0.731-0.731,0.731
		s-0.731-0.328-0.731-0.731S40.612,13.2,41.016,13.2z"/>
	<path  d="M36.138,16.16c1.229,0,2.229-1,2.229-2.228c0-1.229-1-2.229-2.229-2.229c-1.228,0-2.226,1-2.226,2.229
		C33.912,15.16,34.91,16.16,36.138,16.16z M36.138,13.2c0.404,0,0.733,0.329,0.733,0.732s-0.329,0.731-0.733,0.731
		c-0.402,0-0.73-0.328-0.73-0.731S35.735,13.2,36.138,13.2z"/>
</g>
</svg>
