<?xml version="1.0" encoding="utf-8"?>
<!-- Generator: Adobe Illustrator 16.0.3, SVG Export Plug-In . SVG Version: 6.00 Build 0)  -->
<!DOCTYPE svg PUBLIC "-//W3C//DTD SVG 1.1//EN" "http://www.w3.org/Graphics/SVG/1.1/DTD/svg11.dtd">
<svg version="1.1" id="Layer_1" xmlns="http://www.w3.org/2000/svg" xmlns:xlink="http://www.w3.org/1999/xlink" x="0px" y="0px"
	 width="60px" height="60px" viewBox="0 0 60 60" enable-background="new 0 0 60 60" xml:space="preserve">
<g>
	<path  d="M51.688,18.7c1.171,0,2.124-0.952,2.124-2.123c0-1.173-0.953-2.126-2.124-2.126
		c-1.172,0-2.126,0.953-2.126,2.126C49.562,17.748,50.516,18.7,51.688,18.7z M51.688,15.521c0.581,0,1.053,0.474,1.053,1.056
		c0,0.58-0.472,1.052-1.053,1.052c-0.582,0-1.055-0.472-1.055-1.052C50.633,15.995,51.105,15.521,51.688,15.521z"/>
	<path  d="M46.45,18.7c1.171,0,2.124-0.952,2.124-2.123c0-1.173-0.953-2.126-2.124-2.126
		c-1.172,0-2.125,0.953-2.125,2.126C44.325,17.748,45.278,18.7,46.45,18.7z M46.45,15.521c0.581,0,1.053,0.474,1.053,1.056
		c0,0.58-0.472,1.052-1.053,1.052s-1.054-0.472-1.054-1.052C45.396,15.995,45.869,15.521,46.45,15.521z"/>
	<path  d="M41.212,18.7c1.172,0,2.125-0.952,2.125-2.123c0-1.173-0.953-2.126-2.125-2.126
		c-1.171,0-2.124,0.953-2.124,2.126C39.088,17.748,40.041,18.7,41.212,18.7z M41.212,15.521c0.581,0,1.054,0.474,1.054,1.056
		c0,0.58-0.473,1.052-1.054,1.052c-0.58,0-1.053-0.472-1.053-1.052C40.159,15.995,40.632,15.521,41.212,15.521z"/>
	<path  d="M58.394,8.314H5.237C2.349,8.314,0,10.664,0,13.552v32.896c0,2.888,2.349,5.237,5.237,5.237h49.527
		c2.888,0,5.236-2.35,5.236-5.237V9.921C60,9.034,59.281,8.314,58.394,8.314z M5.237,11.527h51.55v8.21H3.213v-6.186
		C3.213,12.436,4.121,11.527,5.237,11.527z M54.764,48.472H5.237c-1.116,0-2.024-0.907-2.024-2.023V21.344h53.574v25.104
		C56.787,47.564,55.879,48.472,54.764,48.472z"/>
</g>
</svg>
