<?xml version="1.0" encoding="utf-8"?>
<!-- Generator: Adobe Illustrator 16.0.3, SVG Export Plug-In . SVG Version: 6.00 Build 0)  -->
<!DOCTYPE svg PUBLIC "-//W3C//DTD SVG 1.1//EN" "http://www.w3.org/Graphics/SVG/1.1/DTD/svg11.dtd">
<svg version="1.1" id="Layer_1" xmlns="http://www.w3.org/2000/svg" xmlns:xlink="http://www.w3.org/1999/xlink" x="0px" y="0px"
	 width="60px" height="60px" viewBox="0 0 60 60" enable-background="new 0 0 60 60" xml:space="preserve">
<g>
	<path  d="M58.438,12.521h-3.352v-3.35c0-0.863-0.699-1.562-1.562-1.562H4.885C2.191,7.609,0,9.799,0,12.494v30.1
		c0,2.693,2.191,4.885,4.885,4.885h0.027v0.029c0,2.693,2.191,4.883,4.885,4.883h45.318c2.693,0,4.885-2.189,4.885-4.883V14.084
		C60,13.221,59.301,12.521,58.438,12.521z M56.873,15.648v5.018h-1.787v-5.018H56.873z M4.885,10.734h47.076v3.346
		c0,0.002,0,0.004,0,0.004c0,0.002,0,0.004,0,0.006v4.283H3.125v-5.879C3.125,11.523,3.914,10.734,4.885,10.734z M3.125,42.594
		V19.936h48.836v22.658c0,0.971-0.789,1.76-1.76,1.76H4.885C3.914,44.354,3.125,43.564,3.125,42.594z M55.115,49.266H9.797
		c-0.969,0-1.758-0.789-1.758-1.758v-0.029h42.162c2.693,0,4.885-2.191,4.885-4.885V22.229h1.787v25.279
		C56.873,48.477,56.084,49.266,55.115,49.266z"/>
	<path  d="M47.188,16.883c1.283,0,2.326-1.045,2.326-2.326c0-1.285-1.043-2.328-2.326-2.328
		c-1.285,0-2.328,1.043-2.328,2.328C44.859,15.838,45.902,16.883,47.188,16.883z M47.188,13.791c0.42,0,0.764,0.344,0.764,0.766
		c0,0.42-0.344,0.764-0.764,0.764c-0.422,0-0.766-0.344-0.766-0.764C46.422,14.135,46.766,13.791,47.188,13.791z"/>
	<path  d="M42.092,16.883c1.283,0,2.328-1.045,2.328-2.326c0-1.285-1.045-2.328-2.328-2.328s-2.326,1.043-2.326,2.328
		C39.766,15.838,40.809,16.883,42.092,16.883z M42.092,13.791c0.422,0,0.764,0.344,0.764,0.766c0,0.42-0.342,0.764-0.764,0.764
		c-0.42,0-0.764-0.344-0.764-0.764C41.328,14.135,41.672,13.791,42.092,13.791z"/>
	<path  d="M36.996,16.883c1.283,0,2.328-1.045,2.328-2.326c0-1.285-1.045-2.328-2.328-2.328s-2.326,1.043-2.326,2.328
		C34.67,15.838,35.713,16.883,36.996,16.883z M36.996,13.791c0.422,0,0.766,0.344,0.766,0.766c0,0.42-0.344,0.764-0.766,0.764
		s-0.764-0.344-0.764-0.764C36.232,14.135,36.574,13.791,36.996,13.791z"/>
</g>
</svg>
