<?xml version="1.0" encoding="utf-8"?>
<!-- Generator: Adobe Illustrator 16.0.3, SVG Export Plug-In . SVG Version: 6.00 Build 0)  -->
<!DOCTYPE svg PUBLIC "-//W3C//DTD SVG 1.1//EN" "http://www.w3.org/Graphics/SVG/1.1/DTD/svg11.dtd">
<svg version="1.1" id="Layer_1" xmlns="http://www.w3.org/2000/svg" xmlns:xlink="http://www.w3.org/1999/xlink" x="0px" y="0px"
	 width="59.999px" height="60px" viewBox="0 0 59.999 60" enable-background="new 0 0 59.999 60" xml:space="preserve">
<g>
	<path  d="M58.395,1.172H5.238C2.35,1.172,0,3.521,0,6.408v32.896c0,2.889,2.35,5.238,5.238,5.238h17.086
		c0.887,0,1.606-0.721,1.606-1.607s-0.72-1.605-1.606-1.605H5.238c-1.116,0-2.025-0.908-2.025-2.025V15.357h53.574v23.947
		c0,1.117-0.908,2.025-2.023,2.025H37.337c-0.888,0-1.606,0.719-1.606,1.605s0.719,1.607,1.606,1.607h17.427
		c2.887,0,5.236-2.35,5.236-5.238V2.779C60,1.891,59.281,1.172,58.395,1.172z M3.213,13.75V6.408c0-1.115,0.909-2.023,2.025-2.023
		h51.549v9.365H3.213z"/>
	<path  d="M31.072,54.529V25.984c0-0.592-0.48-1.072-1.071-1.072c-0.592,0-1.071,0.48-1.071,1.072v28.549l-6.12-6.588
		l-1.569,1.461l8.759,9.422l8.76-9.422l-1.568-1.461L31.072,54.529z"/>
	<path  d="M51.934,6.25c-1.319,0-2.393,1.074-2.393,2.395c0,1.318,1.073,2.391,2.393,2.391s2.393-1.072,2.393-2.391
		C54.326,7.324,53.253,6.25,51.934,6.25z M51.934,9.428c-0.434,0-0.786-0.352-0.786-0.783c0-0.436,0.353-0.787,0.786-0.787
		s0.786,0.352,0.786,0.787C52.72,9.076,52.367,9.428,51.934,9.428z"/>
	<path  d="M46.697,6.25c-1.319,0-2.393,1.074-2.393,2.395c0,1.318,1.073,2.391,2.393,2.391
		c1.318,0,2.392-1.072,2.392-2.391C49.089,7.324,48.016,6.25,46.697,6.25z M46.697,9.428c-0.434,0-0.786-0.352-0.786-0.783
		c0-0.436,0.353-0.787,0.786-0.787s0.785,0.352,0.785,0.787C47.482,9.076,47.131,9.428,46.697,9.428z"/>
	<path  d="M41.459,6.25c-1.319,0-2.392,1.074-2.392,2.395c0,1.318,1.072,2.391,2.392,2.391
		c1.318,0,2.393-1.072,2.393-2.391C43.852,7.324,42.777,6.25,41.459,6.25z M41.459,9.428c-0.434,0-0.785-0.352-0.785-0.783
		c0-0.436,0.352-0.787,0.785-0.787c0.433,0,0.786,0.352,0.786,0.787C42.245,9.076,41.892,9.428,41.459,9.428z"/>
</g>
</svg>
