<?xml version="1.0" encoding="utf-8"?>
<!-- Generator: Adobe Illustrator 16.0.3, SVG Export Plug-In . SVG Version: 6.00 Build 0)  -->
<!DOCTYPE svg PUBLIC "-//W3C//DTD SVG 1.1//EN" "http://www.w3.org/Graphics/SVG/1.1/DTD/svg11.dtd">
<svg version="1.1" id="Layer_1" xmlns="http://www.w3.org/2000/svg" xmlns:xlink="http://www.w3.org/1999/xlink" x="0px" y="0px"
	 width="59.999px" height="60px" viewBox="0 0 59.999 60" enable-background="new 0 0 59.999 60" xml:space="preserve">
<g>
	<path  d="M35.351,44.257H4.706c-1.003,0-1.819-0.816-1.819-1.819V20.222h48.148v8.046
		c0,0.798,0.646,1.444,1.444,1.444c0.797,0,1.443-0.646,1.443-1.444V9.61c0-0.798-0.646-1.444-1.443-1.444H4.706
		c-2.596,0-4.707,2.111-4.707,4.707v29.564c0,2.596,2.111,4.707,4.707,4.707h30.645c0.798,0,1.444-0.646,1.444-1.444
		S36.148,44.257,35.351,44.257z M4.706,11.054h46.329v7.724H2.887v-5.904C2.887,11.87,3.703,11.054,4.706,11.054z"/>
	<path  d="M59.576,49.369l-8.942-8.942c0.771-1.271,1.223-2.756,1.223-4.347c0-4.644-3.777-8.422-8.421-8.422
		s-8.421,3.778-8.421,8.422c0,4.643,3.777,8.42,8.421,8.42c2.009,0,3.854-0.709,5.302-1.887l8.798,8.798
		c0.282,0.281,0.651,0.423,1.021,0.423s0.739-0.142,1.021-0.423C60.141,50.848,60.141,49.933,59.576,49.369z M37.902,36.08
		c0-3.052,2.482-5.534,5.533-5.534c3.052,0,5.533,2.482,5.533,5.534c0,3.051-2.481,5.533-5.533,5.533
		C40.385,41.613,37.902,39.131,37.902,36.08z"/>
	<path  d="M46.324,17.03c1.186,0,2.149-0.964,2.149-2.149c0-1.187-0.964-2.151-2.149-2.151s-2.149,0.965-2.149,2.151
		C44.175,16.066,45.139,17.03,46.324,17.03z M46.324,14.174c0.39,0,0.706,0.317,0.706,0.707s-0.316,0.705-0.706,0.705
		c-0.389,0-0.706-0.315-0.706-0.705S45.936,14.174,46.324,14.174z"/>
	<path  d="M41.617,17.03c1.186,0,2.15-0.964,2.15-2.149c0-1.187-0.965-2.151-2.15-2.151s-2.15,0.965-2.15,2.151
		C39.467,16.066,40.432,17.03,41.617,17.03z M41.617,14.174c0.39,0,0.706,0.317,0.706,0.707s-0.316,0.705-0.706,0.705
		s-0.706-0.315-0.706-0.705S41.228,14.174,41.617,14.174z"/>
	<path  d="M36.91,17.03c1.186,0,2.15-0.964,2.15-2.149c0-1.187-0.965-2.151-2.15-2.151
		c-1.185,0-2.149,0.965-2.149,2.151C34.761,16.066,35.726,17.03,36.91,17.03z M36.91,14.174c0.39,0,0.706,0.317,0.706,0.707
		s-0.316,0.705-0.706,0.705c-0.389,0-0.706-0.315-0.706-0.705S36.521,14.174,36.91,14.174z"/>
</g>
</svg>
