<?xml version="1.0" encoding="utf-8"?>
<!-- Generator: Adobe Illustrator 16.0.3, SVG Export Plug-In . SVG Version: 6.00 Build 0)  -->
<!DOCTYPE svg PUBLIC "-//W3C//DTD SVG 1.1//EN" "http://www.w3.org/Graphics/SVG/1.1/DTD/svg11.dtd">
<svg version="1.1" id="Layer_1" xmlns="http://www.w3.org/2000/svg" xmlns:xlink="http://www.w3.org/1999/xlink" x="0px" y="0px"
	 width="60px" height="60px" viewBox="0 0 60 60" enable-background="new 0 0 60 60" xml:space="preserve">
<g>
	<path  d="M58.394,8.314H5.237C2.349,8.314,0,10.664,0,13.552v32.896c0,2.888,2.349,5.237,5.237,5.237h49.525
		c2.889,0,5.237-2.35,5.237-5.237V9.921C60,9.034,59.28,8.314,58.394,8.314z M3.213,21.344h53.574v14.132h-5.845
		c-0.146,0-0.287,0.039-0.412,0.113l-3.847,2.294l-3.645-6.789c-0.14-0.259-0.408-0.421-0.702-0.423c-0.002,0-0.004,0-0.006,0
		c-0.292,0-0.561,0.159-0.703,0.415l-4.446,8.052l-4.521-9.333c-0.134-0.276-0.415-0.452-0.723-0.452c-0.007,0-0.013,0-0.019,0
		c-0.314,0.007-0.596,0.197-0.72,0.486L26,41.971l-8.798-12.873c-0.146-0.216-0.39-0.347-0.65-0.352
		c-0.275-0.009-0.508,0.119-0.662,0.329l-5.148,7.042H3.213V21.344z M5.237,11.528h51.55v8.209H3.213v-6.186
		C3.213,12.436,4.121,11.528,5.237,11.528z M54.763,48.472H5.237c-1.116,0-2.024-0.907-2.024-2.023v-8.725h7.937
		c0.257,0,0.498-0.122,0.648-0.328l4.718-6.453L25.5,44.083c0.15,0.221,0.399,0.35,0.663,0.35c0.025,0,0.052-0.001,0.078-0.004
		c0.291-0.029,0.544-0.214,0.66-0.483l5.081-11.855l4.43,9.145c0.131,0.27,0.401,0.444,0.702,0.452
		c0.289,0.025,0.579-0.151,0.725-0.414l4.482-8.118l3.345,6.229c0.104,0.192,0.282,0.335,0.493,0.394s0.438,0.027,0.626-0.085
		l4.378-2.61h5.624v9.366C56.787,47.564,55.879,48.472,54.763,48.472z"/>
	<path  d="M53.399,18.178c1.318,0,2.392-1.072,2.392-2.392c0-1.32-1.073-2.394-2.392-2.394
		c-1.32,0-2.394,1.073-2.394,2.394C51.006,17.105,52.079,18.178,53.399,18.178z M53.399,14.999c0.433,0,0.785,0.354,0.785,0.787
		s-0.353,0.785-0.785,0.785c-0.434,0-0.787-0.352-0.787-0.785S52.966,14.999,53.399,14.999z"/>
	<path  d="M48.161,18.178c1.32,0,2.393-1.072,2.393-2.392c0-1.32-1.072-2.394-2.393-2.394
		c-1.318,0-2.392,1.073-2.392,2.394C45.77,17.105,46.843,18.178,48.161,18.178z M48.161,14.999c0.434,0,0.786,0.354,0.786,0.787
		s-0.353,0.785-0.786,0.785c-0.433,0-0.785-0.352-0.785-0.785S47.729,14.999,48.161,14.999z"/>
	<path  d="M42.923,18.178c1.319,0,2.393-1.072,2.393-2.392c0-1.32-1.073-2.394-2.393-2.394
		c-1.318,0-2.391,1.073-2.391,2.394C40.532,17.105,41.604,18.178,42.923,18.178z M42.923,14.999c0.434,0,0.786,0.354,0.786,0.787
		s-0.353,0.785-0.786,0.785c-0.432,0-0.784-0.352-0.784-0.785S42.491,14.999,42.923,14.999z"/>
</g>
</svg>
