<?xml version="1.0" encoding="utf-8"?>
<!-- Generator: Adobe Illustrator 16.0.3, SVG Export Plug-In . SVG Version: 6.00 Build 0)  -->
<!DOCTYPE svg PUBLIC "-//W3C//DTD SVG 1.1//EN" "http://www.w3.org/Graphics/SVG/1.1/DTD/svg11.dtd">
<svg version="1.1" id="Layer_1" xmlns="http://www.w3.org/2000/svg" xmlns:xlink="http://www.w3.org/1999/xlink" x="0px" y="0px"
	 width="60px" height="60px" viewBox="0 0 60 60" enable-background="new 0 0 60 60" xml:space="preserve">
<g>
	<path  d="M33.75,45.156H4.773c-1.017,0-1.845-0.828-1.845-1.845V20.427h48.837v6.758
		c0,0.809,0.654,1.465,1.464,1.465c0.809,0,1.464-0.656,1.464-1.465v-17.17c0-0.809-0.655-1.464-1.464-1.464H4.773
		C2.142,8.55,0,10.692,0,13.324v29.987c0,2.632,2.142,4.773,4.773,4.773H33.75c0.81,0,1.465-0.655,1.465-1.464
		C35.215,45.812,34.56,45.156,33.75,45.156z M4.773,11.479h46.992v7.483H2.929v-5.638C2.929,12.307,3.757,11.479,4.773,11.479z"/>
	<path  d="M59.928,35.736c-0.172-0.529-0.631-0.916-1.182-0.996l-7.348-1.068l-3.286-6.658
		c-0.247-0.499-0.757-0.815-1.313-0.815c-0.558,0-1.066,0.316-1.313,0.816L42.2,33.672l-7.349,1.068
		c-0.551,0.08-1.01,0.467-1.182,0.996c-0.173,0.53-0.029,1.112,0.37,1.501l5.317,5.183l-1.256,7.318
		c-0.094,0.549,0.132,1.104,0.583,1.432c0.45,0.328,1.048,0.371,1.542,0.111l6.572-3.455l6.572,3.455
		c0.214,0.112,0.448,0.168,0.682,0.168c0.303,0,0.605-0.094,0.86-0.279c0.451-0.328,0.677-0.883,0.583-1.432L54.24,42.42
		l5.316-5.183C59.957,36.849,60.1,36.267,59.928,35.736z M51.645,40.859c-0.346,0.337-0.503,0.821-0.422,1.297l0.885,5.151
		l-4.627-2.433c-0.214-0.111-0.447-0.168-0.682-0.168s-0.469,0.057-0.682,0.168l-4.627,2.433l0.885-5.151
		c0.081-0.476-0.076-0.96-0.422-1.297l-3.744-3.647l5.175-0.753c0.477-0.068,0.889-0.369,1.103-0.801l2.312-4.687l2.313,4.687
		c0.214,0.432,0.626,0.732,1.103,0.801l5.173,0.753L51.645,40.859z"/>
	<path  d="M47.373,17.541c1.203,0,2.182-0.978,2.182-2.18c0-1.203-0.979-2.181-2.182-2.181
		c-1.202,0-2.18,0.979-2.18,2.181C45.193,16.563,46.171,17.541,47.373,17.541z M47.373,14.644c0.396,0,0.717,0.322,0.717,0.717
		c0,0.395-0.321,0.716-0.717,0.716c-0.395,0-0.715-0.321-0.715-0.716C46.658,14.966,46.979,14.644,47.373,14.644z"/>
	<path  d="M42.6,17.541c1.203,0,2.181-0.978,2.181-2.18c0-1.203-0.978-2.181-2.181-2.181
		c-1.202,0-2.182,0.979-2.182,2.181C40.418,16.563,41.397,17.541,42.6,17.541z M42.6,14.644c0.395,0,0.717,0.322,0.717,0.717
		c0,0.395-0.322,0.716-0.717,0.716s-0.717-0.321-0.717-0.716C41.883,14.966,42.205,14.644,42.6,14.644z"/>
	<path  d="M37.824,17.541c1.203,0,2.182-0.978,2.182-2.18c0-1.203-0.979-2.181-2.182-2.181
		c-1.201,0-2.18,0.979-2.18,2.181C35.645,16.563,36.623,17.541,37.824,17.541z M37.824,14.644c0.396,0,0.718,0.322,0.718,0.717
		c0,0.395-0.322,0.716-0.718,0.716c-0.395,0-0.715-0.321-0.715-0.716C37.109,14.966,37.43,14.644,37.824,14.644z"/>
</g>
</svg>
