<?xml version="1.0" encoding="utf-8"?>
<!-- Generator: Adobe Illustrator 16.0.3, SVG Export Plug-In . SVG Version: 6.00 Build 0)  -->
<!DOCTYPE svg PUBLIC "-//W3C//DTD SVG 1.1//EN" "http://www.w3.org/Graphics/SVG/1.1/DTD/svg11.dtd">
<svg version="1.1" id="Layer_1" xmlns="http://www.w3.org/2000/svg" xmlns:xlink="http://www.w3.org/1999/xlink" x="0px" y="0px"
	 width="60px" height="60px" viewBox="0 0 60 60" enable-background="new 0 0 60 60" xml:space="preserve">
<g>
	<path  d="M35.201,44.731H4.979c-1.061,0-1.924-0.863-1.924-1.924V18.939h50.935v7.048
		c0,0.844,0.684,1.527,1.527,1.527s1.527-0.684,1.527-1.527V8.079c0-0.844-0.684-1.527-1.527-1.527H4.979
		C2.233,6.552,0,8.785,0,11.531v31.276c0,2.745,2.233,4.979,4.979,4.979h30.223c0.844,0,1.527-0.684,1.527-1.527
		S36.045,44.731,35.201,44.731z M4.979,9.606h49.011v7.806H3.055v-5.881C3.055,10.47,3.917,9.606,4.979,9.606z"/>
	<path  d="M58.473,37.244h-0.832v-1.07c0-4.699-3.822-8.521-8.521-8.521c-4.699,0-8.522,3.822-8.522,8.521v1.07
		h-0.831c-0.844,0-1.527,0.684-1.527,1.527v13.149c0,0.844,0.684,1.527,1.527,1.527h18.706c0.844,0,1.527-0.684,1.527-1.527V38.771
		C60,37.928,59.316,37.244,58.473,37.244z M43.652,36.174c0-3.015,2.453-5.467,5.468-5.467c3.014,0,5.466,2.452,5.466,5.467v1.07
		H43.652V36.174z M56.945,50.394H41.294V40.299h15.651V50.394z"/>
	<path  d="M48.15,45.753v2.88h1.998v-2.825c0.81-0.365,1.377-1.176,1.377-2.12c0-1.283-1.044-2.326-2.326-2.326
		c-1.283,0-2.327,1.043-2.327,2.326C46.872,44.591,47.396,45.368,48.15,45.753z"/>
	<path  d="M48.129,15.929c1.254,0,2.273-1.02,2.273-2.273c0-1.255-1.02-2.275-2.273-2.275
		c-1.255,0-2.275,1.021-2.275,2.275C45.854,14.909,46.874,15.929,48.129,15.929z M48.129,12.907c0.411,0,0.746,0.336,0.746,0.748
		s-0.335,0.746-0.746,0.746c-0.412,0-0.748-0.334-0.748-0.746S47.717,12.907,48.129,12.907z"/>
	<path  d="M43.149,15.929c1.254,0,2.274-1.02,2.274-2.273c0-1.255-1.021-2.275-2.274-2.275s-2.274,1.021-2.274,2.275
		C40.875,14.909,41.896,15.929,43.149,15.929z M43.149,12.907c0.412,0,0.747,0.336,0.747,0.748s-0.335,0.746-0.747,0.746
		s-0.747-0.334-0.747-0.746S42.737,12.907,43.149,12.907z"/>
	<path  d="M38.169,15.929c1.255,0,2.275-1.02,2.275-2.273c0-1.255-1.021-2.275-2.275-2.275
		c-1.254,0-2.273,1.021-2.273,2.275C35.896,14.909,36.915,15.929,38.169,15.929z M38.169,12.907c0.412,0,0.748,0.336,0.748,0.748
		s-0.336,0.746-0.748,0.746c-0.411,0-0.746-0.334-0.746-0.746S37.758,12.907,38.169,12.907z"/>
</g>
</svg>
