<?xml version="1.0" encoding="utf-8"?>
<!-- Generator: Adobe Illustrator 16.0.3, SVG Export Plug-In . SVG Version: 6.00 Build 0)  -->
<!DOCTYPE svg PUBLIC "-//W3C//DTD SVG 1.1//EN" "http://www.w3.org/Graphics/SVG/1.1/DTD/svg11.dtd">
<svg version="1.1" id="Layer_1" xmlns="http://www.w3.org/2000/svg" xmlns:xlink="http://www.w3.org/1999/xlink" x="0px" y="0px"
	 width="59.999px" height="60px" viewBox="0 0 59.999 60" enable-background="new 0 0 59.999 60" xml:space="preserve">
<g>
	<path  d="M34.357,42.738H4.618c-0.944,0-1.714-0.768-1.714-1.713V19.492h46.623v7.783
		c0,0.803,0.65,1.451,1.453,1.451c0.802,0,1.452-0.648,1.452-1.451V9.168c0-0.803-0.65-1.453-1.452-1.453H4.618
		c-2.547,0-4.619,2.072-4.619,4.619v28.691c0,2.547,2.072,4.619,4.619,4.619h29.739c0.803,0,1.453-0.65,1.453-1.453
		S35.16,42.738,34.357,42.738z M4.618,10.621h44.909v7.418H2.904v-5.705C2.904,11.389,3.674,10.621,4.618,10.621z"/>
	<path  d="M48.852,30.359c-0.009,0-0.02,0-0.028,0c-4.691,0.012-8.891,3.162-10.21,7.662
		c-0.113,0.385,0.107,0.789,0.492,0.902c0.068,0.02,0.138,0.029,0.205,0.029c0.314,0,0.604-0.205,0.697-0.521
		c1.14-3.887,4.767-6.609,8.819-6.619c0.008,0,0.017,0,0.023,0c3.212,0,6.203,1.711,7.864,4.424l-6.398-1.703l-0.373,1.406
		l8.432,2.24l1.624-8.572l-1.429-0.271l-1.041,5.504C55.547,32.074,52.31,30.359,48.852,30.359z"/>
	<path  d="M58.678,42.703c-0.391-0.096-0.782,0.143-0.878,0.533c-1.012,4.115-4.683,7-8.927,7.01
		c-0.008,0-0.015,0-0.022,0c-3.389,0-6.463-1.848-8.072-4.775l6.323,1.979l0.434-1.387l-8.327-2.605l-1.994,8.494l1.416,0.334
		l1.276-5.445c1.946,2.998,5.287,4.859,8.944,4.859c0.009,0,0.018,0,0.026,0c4.913-0.012,9.162-3.35,10.334-8.117
		C59.307,43.191,59.067,42.799,58.678,42.703z"/>
	<path  d="M43.877,16.395c1.165,0,2.112-0.947,2.112-2.111c0-1.166-0.947-2.113-2.112-2.113s-2.112,0.947-2.112,2.113
		C41.765,15.447,42.712,16.395,43.877,16.395z M43.877,13.623c0.363,0,0.66,0.297,0.66,0.66s-0.297,0.658-0.66,0.658
		s-0.659-0.295-0.659-0.658S43.514,13.623,43.877,13.623z"/>
	<path  d="M39.311,16.395c1.164,0,2.112-0.947,2.112-2.111c0-1.166-0.948-2.113-2.112-2.113
		c-1.166,0-2.113,0.947-2.113,2.113C37.197,15.447,38.145,16.395,39.311,16.395z M39.311,13.623c0.363,0,0.659,0.297,0.659,0.66
		s-0.296,0.658-0.659,0.658c-0.364,0-0.66-0.295-0.66-0.658S38.946,13.623,39.311,13.623z"/>
	<path  d="M34.742,16.395c1.164,0,2.111-0.947,2.111-2.111c0-1.166-0.947-2.113-2.111-2.113
		c-1.165,0-2.112,0.947-2.112,2.113C32.63,15.447,33.577,16.395,34.742,16.395z M34.742,13.623c0.363,0,0.659,0.297,0.659,0.66
		s-0.296,0.658-0.659,0.658s-0.659-0.295-0.659-0.658S34.379,13.623,34.742,13.623z"/>
</g>
</svg>
