<?xml version="1.0" encoding="utf-8"?>
<!-- Generator: Adobe Illustrator 16.0.3, SVG Export Plug-In . SVG Version: 6.00 Build 0)  -->
<!DOCTYPE svg PUBLIC "-//W3C//DTD SVG 1.1//EN" "http://www.w3.org/Graphics/SVG/1.1/DTD/svg11.dtd">
<svg version="1.1" id="Layer_1" xmlns="http://www.w3.org/2000/svg" xmlns:xlink="http://www.w3.org/1999/xlink" x="0px" y="0px"
	 width="60px" height="60px" viewBox="0 0 60 60" enable-background="new 0 0 60 60" xml:space="preserve">
<g>
	<path  d="M33.539,44.135H4.744c-1.012,0-1.834-0.822-1.834-1.832V19.561h48.529v6.716
		c0,0.803,0.65,1.455,1.455,1.455s1.455-0.652,1.455-1.455V9.214c0-0.804-0.65-1.455-1.455-1.455H4.744
		C2.127,7.759,0,9.887,0,12.503v29.799c0,2.615,2.127,4.742,4.744,4.742h28.795c0.803,0,1.455-0.65,1.455-1.455
		C34.994,44.787,34.342,44.135,33.539,44.135z M4.744,10.67h46.695v7.436H2.91v-5.603C2.91,11.492,3.732,10.67,4.744,10.67z"/>
	<path  d="M56.354,30.988c-2.352-2.352-5.477-3.646-8.803-3.646c-3.324,0-6.451,1.295-8.803,3.646
		s-3.646,5.479-3.646,8.803c0,3.326,1.295,6.453,3.646,8.803c2.352,2.352,5.477,3.646,8.803,3.646c3.324,0,6.451-1.295,8.803-3.646
		C58.705,46.244,60,43.117,60,39.791C60,36.467,58.705,33.34,56.354,30.988z M54.295,46.537c-1.801,1.801-4.197,2.793-6.744,2.793
		c-2.549,0-4.943-0.992-6.746-2.793c-1.801-1.803-2.793-4.197-2.793-6.746c0-2.547,0.992-4.943,2.795-6.744
		c1.801-1.801,4.197-2.795,6.744-2.795c2.549,0,4.943,0.992,6.744,2.795c1.803,1.801,2.795,4.197,2.795,6.744
		C57.09,42.34,56.098,44.736,54.295,46.537z"/>
	<path  d="M53.75,38.406h-4.674v-4.674c0-0.803-0.65-1.455-1.455-1.455s-1.455,0.652-1.455,1.455v4.674H41.49
		c-0.803,0-1.455,0.65-1.455,1.455s0.652,1.455,1.455,1.455h4.676v4.676c0,0.803,0.65,1.455,1.455,1.455s1.455-0.652,1.455-1.455
		v-4.676h4.674c0.805,0,1.455-0.65,1.455-1.455S54.555,38.406,53.75,38.406z"/>
	<path  d="M47.484,17.167c1.061,0,1.924-0.863,1.924-1.923c0-1.062-0.863-1.926-1.924-1.926s-1.924,0.864-1.924,1.926
		C45.561,16.304,46.424,17.167,47.484,17.167z M47.484,14.288c0.525,0,0.953,0.429,0.953,0.956c0,0.525-0.428,0.953-0.953,0.953
		c-0.527,0-0.955-0.428-0.955-0.953C46.529,14.717,46.957,14.288,47.484,14.288z"/>
	<path  d="M42.74,17.167c1.061,0,1.924-0.863,1.924-1.923c0-1.062-0.863-1.926-1.924-1.926
		c-1.062,0-1.926,0.864-1.926,1.926C40.814,16.304,41.678,17.167,42.74,17.167z M42.74,14.288c0.525,0,0.953,0.429,0.953,0.956
		c0,0.525-0.428,0.953-0.953,0.953c-0.527,0-0.955-0.428-0.955-0.953C41.785,14.717,42.213,14.288,42.74,14.288z"/>
	<path  d="M37.994,17.167c1.062,0,1.926-0.863,1.926-1.923c0-1.062-0.863-1.926-1.926-1.926
		c-1.061,0-1.922,0.864-1.922,1.926C36.072,16.304,36.934,17.167,37.994,17.167z M37.994,14.288c0.527,0,0.955,0.429,0.955,0.956
		c0,0.525-0.428,0.953-0.955,0.953c-0.525,0-0.953-0.428-0.953-0.953C37.041,14.717,37.469,14.288,37.994,14.288z"/>
</g>
</svg>
