<?xml version="1.0" encoding="utf-8"?>
<!-- Generator: Adobe Illustrator 16.0.3, SVG Export Plug-In . SVG Version: 6.00 Build 0)  -->
<!DOCTYPE svg PUBLIC "-//W3C//DTD SVG 1.1//EN" "http://www.w3.org/Graphics/SVG/1.1/DTD/svg11.dtd">
<svg version="1.1" id="Layer_1" xmlns="http://www.w3.org/2000/svg" xmlns:xlink="http://www.w3.org/1999/xlink" x="0px" y="0px"
	 width="59.999px" height="60px" viewBox="0 0 59.999 60" enable-background="new 0 0 59.999 60" xml:space="preserve">
<g>
	<path  d="M34.959,44.572H4.654c-0.992,0-1.799-0.807-1.799-1.799V20.805h47.615v7.957
		c0,0.789,0.639,1.428,1.428,1.428c0.787,0,1.428-0.639,1.428-1.428V10.311c0-0.789-0.641-1.428-1.428-1.428H4.654
		C2.088,8.883,0,10.971,0,13.537v29.236c0,2.568,2.088,4.654,4.654,4.654h30.305c0.789,0,1.428-0.639,1.428-1.428
		C36.387,45.213,35.748,44.572,34.959,44.572z M4.654,11.738h45.816v7.639H2.855v-5.84C2.855,12.545,3.662,11.738,4.654,11.738z"/>
	<path  d="M59.744,48.875L49.105,29.291c-0.252-0.463-0.742-0.76-1.264-0.746c-0.527,0.002-1.01,0.297-1.254,0.762
		L36.221,49.025c-0.232,0.443-0.217,0.975,0.041,1.402c0.26,0.428,0.723,0.689,1.223,0.689h21.078c0.004,0,0.008,0,0.01,0
		c0.789,0,1.428-0.639,1.428-1.428C60,49.387,59.906,49.107,59.744,48.875z M39.848,48.262L47.871,33l8.291,15.262H39.848z"/>
	<rect x="46.941" y="37.027"  width="1.832" height="7.141"/>
	<path  d="M47.857,44.959c-0.314,0-0.582,0.111-0.805,0.332c-0.221,0.221-0.332,0.49-0.332,0.803
		c0,0.316,0.111,0.584,0.332,0.805c0.223,0.221,0.49,0.332,0.805,0.332s0.584-0.111,0.807-0.336C48.889,46.672,49,46.404,49,46.094
		c0-0.312-0.111-0.582-0.336-0.803C48.441,45.07,48.172,44.959,47.857,44.959z"/>
	<path  d="M46.611,17.648c1.172,0,2.127-0.953,2.127-2.125c0-1.174-0.955-2.129-2.127-2.129s-2.127,0.955-2.127,2.129
		C44.484,16.695,45.439,17.648,46.611,17.648z M46.611,14.824c0.385,0,0.699,0.312,0.699,0.699c0,0.385-0.314,0.697-0.699,0.697
		s-0.699-0.312-0.699-0.697C45.912,15.137,46.227,14.824,46.611,14.824z"/>
	<path  d="M41.957,17.648c1.172,0,2.127-0.953,2.127-2.125c0-1.174-0.955-2.129-2.127-2.129s-2.127,0.955-2.127,2.129
		C39.83,16.695,40.785,17.648,41.957,17.648z M41.957,14.824c0.385,0,0.699,0.312,0.699,0.699c0,0.385-0.314,0.697-0.699,0.697
		s-0.699-0.312-0.699-0.697C41.258,15.137,41.572,14.824,41.957,14.824z"/>
	<path  d="M37.301,17.648c1.174,0,2.127-0.953,2.127-2.125c0-1.174-0.953-2.129-2.127-2.129
		c-1.172,0-2.125,0.955-2.125,2.129C35.176,16.695,36.129,17.648,37.301,17.648z M37.301,14.824c0.387,0,0.699,0.312,0.699,0.699
		c0,0.385-0.312,0.697-0.699,0.697c-0.385,0-0.697-0.312-0.697-0.697C36.604,15.137,36.916,14.824,37.301,14.824z"/>
</g>
</svg>
