<?xml version="1.0" encoding="utf-8"?>
<!-- Generator: Adobe Illustrator 16.0.3, SVG Export Plug-In . SVG Version: 6.00 Build 0)  -->
<!DOCTYPE svg PUBLIC "-//W3C//DTD SVG 1.1//EN" "http://www.w3.org/Graphics/SVG/1.1/DTD/svg11.dtd">
<svg version="1.1" id="Layer_1" xmlns="http://www.w3.org/2000/svg" xmlns:xlink="http://www.w3.org/1999/xlink" x="0px" y="0px"
	 width="60px" height="60px" viewBox="0 0 60 60" enable-background="new 0 0 60 60" xml:space="preserve">
<g>
	<path  d="M58.394,8.314H5.236C2.35,8.314,0,10.664,0,13.552v32.896c0,2.888,2.35,5.237,5.236,5.237h49.527
		c2.888,0,5.236-2.35,5.236-5.237V9.921C60,9.034,59.281,8.314,58.394,8.314z M5.236,11.527h51.551v9.134H3.213v-7.109
		C3.213,12.436,4.121,11.527,5.236,11.527z M54.764,48.473H5.236c-1.115,0-2.023-0.908-2.023-2.024v-24.18h53.574v24.18
		C56.787,47.564,55.88,48.473,54.764,48.473z"/>
	<path  d="M19.042,25.228h-8.661c-0.444,0-0.804,0.359-0.804,0.803v6.959c0,0.443,0.359,0.804,0.804,0.804h8.661
		c0.443,0,0.804-0.36,0.804-0.804V26.03C19.846,25.587,19.485,25.228,19.042,25.228z M18.239,32.187h-7.056v-5.353h7.056V32.187z"/>
	<path  d="M19.042,35.964h-8.661c-0.444,0-0.804,0.359-0.804,0.803v6.959c0,0.443,0.359,0.803,0.804,0.803h8.661
		c0.443,0,0.804-0.359,0.804-0.803v-6.959C19.846,36.323,19.485,35.964,19.042,35.964z M18.239,42.922h-7.056V37.57h7.056V42.922z"
		/>
	<path  d="M34.057,25.228h-8.662c-0.444,0-0.804,0.359-0.804,0.803v6.959c0,0.443,0.359,0.804,0.804,0.804h8.662
		c0.443,0,0.803-0.36,0.803-0.804V26.03C34.859,25.587,34.5,25.228,34.057,25.228z M33.253,32.187h-7.056v-5.353h7.056V32.187z"/>
	<path  d="M34.057,35.964h-8.662c-0.444,0-0.804,0.359-0.804,0.803v6.959c0,0.443,0.359,0.803,0.804,0.803h8.662
		c0.443,0,0.803-0.359,0.803-0.803v-6.959C34.859,36.323,34.5,35.964,34.057,35.964z M33.253,42.922h-7.056V37.57h7.056V42.922z"/>
	<path  d="M48.94,25.228h-8.662c-0.443,0-0.804,0.359-0.804,0.803v6.959c0,0.443,0.36,0.804,0.804,0.804h8.662
		c0.443,0,0.803-0.36,0.803-0.804V26.03C49.743,25.587,49.384,25.228,48.94,25.228z M48.137,32.187h-7.055v-5.353h7.055V32.187z"/>
	<path  d="M48.94,35.964h-8.662c-0.443,0-0.804,0.359-0.804,0.803v6.959c0,0.443,0.36,0.803,0.804,0.803h8.662
		c0.443,0,0.803-0.359,0.803-0.803v-6.959C49.743,36.323,49.384,35.964,48.94,35.964z M48.137,42.922h-7.055V37.57h7.055V42.922z"/>
	<path  d="M52.58,18.562c1.318,0,2.392-1.072,2.392-2.391c0-1.32-1.073-2.394-2.392-2.394
		c-1.319,0-2.393,1.073-2.393,2.394C50.188,17.49,51.261,18.562,52.58,18.562z M52.58,15.385c0.433,0,0.785,0.353,0.785,0.787
		c0,0.433-0.353,0.784-0.785,0.784c-0.434,0-0.786-0.352-0.786-0.784C51.794,15.737,52.146,15.385,52.58,15.385z"/>
	<path  d="M47.343,18.562c1.319,0,2.393-1.072,2.393-2.391c0-1.32-1.073-2.394-2.393-2.394s-2.393,1.073-2.393,2.394
		C44.95,17.49,46.023,18.562,47.343,18.562z M47.343,15.385c0.434,0,0.786,0.353,0.786,0.787c0,0.433-0.353,0.784-0.786,0.784
		s-0.786-0.352-0.786-0.784C46.557,15.737,46.909,15.385,47.343,15.385z"/>
	<path  d="M42.105,18.562c1.319,0,2.393-1.072,2.393-2.391c0-1.32-1.073-2.394-2.393-2.394s-2.392,1.073-2.392,2.394
		C39.714,17.49,40.786,18.562,42.105,18.562z M42.105,15.385c0.434,0,0.785,0.353,0.785,0.787c0,0.433-0.352,0.784-0.785,0.784
		s-0.785-0.352-0.785-0.784C41.32,15.737,41.672,15.385,42.105,15.385z"/>
</g>
</svg>
