<?xml version="1.0" encoding="utf-8"?>
<!-- Generator: Adobe Illustrator 16.0.3, SVG Export Plug-In . SVG Version: 6.00 Build 0)  -->
<!DOCTYPE svg PUBLIC "-//W3C//DTD SVG 1.1//EN" "http://www.w3.org/Graphics/SVG/1.1/DTD/svg11.dtd">
<svg version="1.1" id="Layer_1" xmlns="http://www.w3.org/2000/svg" xmlns:xlink="http://www.w3.org/1999/xlink" x="0px" y="0px"
	 width="60px" height="60px" viewBox="0 0 60 60" enable-background="new 0 0 60 60" xml:space="preserve">
<g>
	<path  d="M33.539,44.135H4.744c-1.011,0-1.833-0.822-1.833-1.832V19.561H51.44v6.716
		c0,0.803,0.651,1.455,1.455,1.455s1.455-0.652,1.455-1.455V9.214c0-0.804-0.651-1.455-1.455-1.455H4.744
		C2.129,7.759,0,9.887,0,12.503v29.799c0,2.615,2.129,4.742,4.744,4.742h28.795c0.804,0,1.455-0.65,1.455-1.455
		C34.994,44.787,34.343,44.135,33.539,44.135z M4.744,10.67H51.44v7.436H2.911v-5.603C2.911,11.492,3.733,10.67,4.744,10.67z"/>
	<path  d="M56.354,30.99c-2.351-2.352-5.477-3.646-8.804-3.646c-6.863,0-12.449,5.584-12.449,12.449
		c0,6.863,5.584,12.447,12.448,12.447h0.002c3.325,0,6.452-1.295,8.803-3.645c2.352-2.352,3.646-5.479,3.646-8.803
		C60.001,36.467,58.706,33.342,56.354,30.99z M54.297,46.537c-1.802,1.801-4.197,2.793-6.745,2.793l-0.002,1.455V49.33
		c-5.259,0-9.538-4.279-9.538-9.537c0.001-5.26,4.279-9.539,9.541-9.539c2.548,0,4.943,0.992,6.744,2.793
		c1.801,1.803,2.793,4.197,2.793,6.746C57.09,42.34,56.098,44.736,54.297,46.537z"/>
	<path  d="M53.266,37.643l-4.484,4.826l-0.002-8.434c0-0.67-0.542-1.213-1.212-1.213s-1.213,0.543-1.213,1.213
		l0.001,8.438l-4.488-4.83l-1.243,1.158l6.942,7.467l6.943-7.467L53.266,37.643z"/>
	<path  d="M47.484,16.693c1.195,0,2.167-0.972,2.167-2.167c0-1.195-0.972-2.167-2.167-2.167s-2.167,0.972-2.167,2.167
		C45.317,15.722,46.289,16.693,47.484,16.693z M47.484,13.814c0.393,0,0.712,0.32,0.712,0.712c0,0.392-0.319,0.711-0.712,0.711
		s-0.712-0.319-0.712-0.711C46.772,14.134,47.092,13.814,47.484,13.814z"/>
	<path  d="M42.74,16.693c1.195,0,2.167-0.972,2.167-2.167c0-1.195-0.972-2.167-2.167-2.167
		c-1.194,0-2.166,0.972-2.166,2.167C40.574,15.722,41.546,16.693,42.74,16.693z M42.74,13.814c0.393,0,0.712,0.32,0.712,0.712
		c0,0.392-0.319,0.711-0.712,0.711c-0.392,0-0.711-0.319-0.711-0.711C42.029,14.134,42.349,13.814,42.74,13.814z"/>
	<path  d="M37.995,16.693c1.195,0,2.167-0.972,2.167-2.167c0-1.195-0.972-2.167-2.167-2.167
		c-1.194,0-2.166,0.972-2.166,2.167C35.829,15.722,36.801,16.693,37.995,16.693z M37.995,13.814c0.394,0,0.712,0.32,0.712,0.712
		c0,0.392-0.318,0.711-0.712,0.711c-0.392,0-0.711-0.319-0.711-0.711C37.284,14.134,37.604,13.814,37.995,13.814z"/>
</g>
</svg>
