<?xml version="1.0" encoding="utf-8"?>
<!-- Generator: Adobe Illustrator 16.0.3, SVG Export Plug-In . SVG Version: 6.00 Build 0)  -->
<!DOCTYPE svg PUBLIC "-//W3C//DTD SVG 1.1//EN" "http://www.w3.org/Graphics/SVG/1.1/DTD/svg11.dtd">
<svg version="1.1" id="Layer_1" xmlns="http://www.w3.org/2000/svg" xmlns:xlink="http://www.w3.org/1999/xlink" x="0px" y="0px"
	 width="60px" height="60px" viewBox="0 0 60 60" enable-background="new 0 0 60 60" xml:space="preserve">
<g>
	<path  d="M58.394,8.314H5.236C2.35,8.314,0,10.664,0,13.552v32.896c0,2.888,2.35,5.237,5.236,5.237h49.527
		c2.887,0,5.236-2.35,5.236-5.237V9.921C60,9.034,59.281,8.314,58.394,8.314z M5.236,11.528h51.551v8.594H3.213v-6.57
		C3.213,12.436,4.121,11.528,5.236,11.528z M54.764,48.472H5.236c-1.115,0-2.023-0.907-2.023-2.023v-24.72h53.574v24.72
		C56.787,47.564,55.879,48.472,54.764,48.472z"/>
	<path  d="M16.539,30.666H7.878c-0.296,0-0.536,0.239-0.536,0.536c0,0.296,0.24,0.535,0.536,0.535h8.661
		c0.297,0,0.535-0.239,0.535-0.535C17.074,30.905,16.836,30.666,16.539,30.666z"/>
	<path  d="M52.435,30.666H23.275c-0.295,0-0.535,0.239-0.535,0.536c0,0.296,0.24,0.535,0.535,0.535h29.159
		c0.296,0,0.535-0.239,0.535-0.535C52.97,30.905,52.73,30.666,52.435,30.666z"/>
	<path  d="M16.539,38.909H7.878c-0.296,0-0.536,0.24-0.536,0.536s0.24,0.535,0.536,0.535h8.661
		c0.297,0,0.535-0.239,0.535-0.535S16.836,38.909,16.539,38.909z"/>
	<path  d="M52.435,38.909H23.275c-0.295,0-0.535,0.24-0.535,0.536s0.24,0.535,0.535,0.535h29.159
		c0.296,0,0.535-0.239,0.535-0.535S52.73,38.909,52.435,38.909z"/>
	<path  d="M52.297,18.295c1.172,0,2.124-0.952,2.124-2.123c0-1.172-0.952-2.126-2.124-2.126S50.172,15,50.172,16.172
		C50.172,17.343,51.125,18.295,52.297,18.295z M52.297,15.117c0.581,0,1.053,0.473,1.053,1.055c0,0.58-0.472,1.052-1.053,1.052
		c-0.582,0-1.055-0.472-1.055-1.052C51.242,15.59,51.715,15.117,52.297,15.117z"/>
	<path  d="M47.06,18.295c1.171,0,2.124-0.952,2.124-2.123c0-1.172-0.953-2.126-2.124-2.126S44.936,15,44.936,16.172
		C44.936,17.343,45.889,18.295,47.06,18.295z M47.06,15.117c0.581,0,1.054,0.473,1.054,1.055c0,0.58-0.473,1.052-1.054,1.052
		s-1.054-0.472-1.054-1.052C46.006,15.59,46.479,15.117,47.06,15.117z"/>
	<path  d="M41.821,18.295c1.172,0,2.125-0.952,2.125-2.123c0-1.172-0.953-2.126-2.125-2.126
		c-1.171,0-2.124,0.954-2.124,2.126C39.697,17.343,40.65,18.295,41.821,18.295z M41.821,15.117c0.581,0,1.054,0.473,1.054,1.055
		c0,0.58-0.473,1.052-1.054,1.052s-1.053-0.472-1.053-1.052C40.769,15.59,41.24,15.117,41.821,15.117z"/>
</g>
</svg>
