<?xml version="1.0" encoding="utf-8"?>
<!-- Generator: Adobe Illustrator 16.0.3, SVG Export Plug-In . SVG Version: 6.00 Build 0)  -->
<!DOCTYPE svg PUBLIC "-//W3C//DTD SVG 1.1//EN" "http://www.w3.org/Graphics/SVG/1.1/DTD/svg11.dtd">
<svg version="1.1" id="Layer_1" xmlns="http://www.w3.org/2000/svg" xmlns:xlink="http://www.w3.org/1999/xlink" x="0px" y="0px"
	 width="59.999px" height="60px" viewBox="0 0 59.999 60" enable-background="new 0 0 59.999 60" xml:space="preserve">
<g>
	<path  d="M34.863,42.73H4.641c-0.988,0-1.793-0.805-1.793-1.794V19.709h47.484v7.253
		c0,0.786,0.639,1.424,1.426,1.424c0.785,0,1.424-0.638,1.424-1.424V8.561c0-0.787-0.639-1.424-1.424-1.424H4.641
		C2.082,7.137,0,9.219,0,11.778v29.158c0,2.56,2.082,4.642,4.641,4.642h30.223c0.787,0,1.424-0.638,1.424-1.424
		C36.287,43.367,35.65,42.73,34.863,42.73z M4.641,9.984h45.691v8.301H2.848v-6.507C2.848,10.789,3.652,9.984,4.641,9.984z"/>
	<path  d="M59.766,43.033c-0.227-0.344-0.59-0.572-0.998-0.628c-0.695-0.095-1.217-0.693-1.217-1.394
		s0.521-1.3,1.217-1.394c0.406-0.056,0.771-0.285,0.996-0.629c0.227-0.343,0.293-0.769,0.184-1.165
		c-0.535-1.915-1.555-3.68-2.949-5.103c-0.287-0.293-0.684-0.448-1.1-0.425c-0.41,0.023-0.791,0.225-1.043,0.549
		c-0.414,0.535-1.217,0.702-1.814,0.356c-0.605-0.351-0.863-1.104-0.598-1.751c0.156-0.382,0.141-0.812-0.045-1.181
		c-0.184-0.368-0.52-0.638-0.918-0.74c-1.922-0.492-3.971-0.491-5.891-0.002c-0.398,0.102-0.734,0.372-0.92,0.739
		c-0.186,0.368-0.201,0.799-0.045,1.18c0.266,0.649,0.008,1.402-0.6,1.752c-0.598,0.345-1.398,0.18-1.814-0.357
		c-0.25-0.325-0.631-0.525-1.043-0.549c-0.416-0.023-0.811,0.131-1.1,0.424c-1.396,1.427-2.418,3.193-2.951,5.108
		c-0.109,0.396-0.045,0.821,0.182,1.165s0.59,0.572,0.998,0.628c0.693,0.094,1.217,0.693,1.217,1.394s-0.523,1.299-1.217,1.394
		c-0.408,0.056-0.771,0.284-0.998,0.628s-0.293,0.769-0.182,1.165c0.533,1.914,1.553,3.679,2.947,5.103
		c0.287,0.294,0.688,0.444,1.1,0.426c0.41-0.023,0.791-0.225,1.043-0.549c0.416-0.536,1.217-0.701,1.816-0.356
		c0.605,0.351,0.863,1.104,0.598,1.752c-0.158,0.382-0.141,0.812,0.045,1.181c0.184,0.368,0.52,0.638,0.92,0.739
		c0.959,0.246,1.951,0.37,2.945,0.37c0.992,0,1.982-0.124,2.941-0.368c0.4-0.102,0.734-0.371,0.92-0.739
		c0.186-0.369,0.203-0.8,0.047-1.181c-0.268-0.648-0.01-1.401,0.598-1.752c0.598-0.345,1.4-0.179,1.814,0.357
		c0.252,0.325,0.633,0.525,1.043,0.55c0.414,0.019,0.812-0.131,1.1-0.425c1.396-1.424,2.418-3.189,2.953-5.106
		C60.057,43.803,59.992,43.378,59.766,43.033z M56.766,44.654c-0.262,0.589-0.586,1.148-0.967,1.669
		c-1.264-0.699-2.908-0.704-4.186,0.033c-1.32,0.763-2.094,2.156-2.125,3.608c-0.637,0.068-1.281,0.067-1.918,0
		c-0.029-1.453-0.803-2.848-2.123-3.609c-1.279-0.739-2.92-0.734-4.186-0.036c-0.379-0.52-0.703-1.078-0.963-1.665
		c1.242-0.752,2.062-2.118,2.062-3.643c0-1.525-0.82-2.892-2.062-3.644c0.26-0.588,0.584-1.147,0.965-1.668
		c1.266,0.699,2.908,0.703,4.184-0.033c1.322-0.762,2.098-2.155,2.127-3.609c0.637-0.065,1.283-0.066,1.92,0.001
		c0.029,1.453,0.803,2.847,2.123,3.609c1.277,0.738,2.92,0.733,4.186,0.036c0.379,0.519,0.701,1.077,0.963,1.664
		c-1.242,0.752-2.064,2.118-2.064,3.644C54.701,42.536,55.523,43.902,56.766,44.654z"/>
	<path  d="M48.531,36.064c-2.727,0-4.947,2.219-4.947,4.947s2.221,4.947,4.947,4.947c2.729,0,4.947-2.219,4.947-4.947
		S51.26,36.064,48.531,36.064z M48.531,44.535c-1.941,0-3.523-1.58-3.523-3.523s1.582-3.523,3.523-3.523
		c1.943,0,3.523,1.58,3.523,3.523S50.475,44.535,48.531,44.535z"/>
	<path  d="M45.584,15.879c1.17,0,2.119-0.951,2.119-2.12c0-1.17-0.949-2.121-2.119-2.121s-2.121,0.951-2.121,2.121
		C43.463,14.928,44.414,15.879,45.584,15.879z M45.584,13.062c0.385,0,0.695,0.312,0.695,0.697c0,0.384-0.311,0.696-0.695,0.696
		s-0.697-0.312-0.697-0.696C44.887,13.374,45.199,13.062,45.584,13.062z"/>
	<path  d="M40.941,15.879c1.17,0,2.121-0.951,2.121-2.12c0-1.17-0.951-2.121-2.121-2.121
		c-1.168,0-2.119,0.951-2.119,2.121C38.822,14.928,39.773,15.879,40.941,15.879z M40.941,13.062c0.385,0,0.697,0.312,0.697,0.697
		c0,0.384-0.312,0.696-0.697,0.696c-0.383,0-0.695-0.312-0.695-0.696C40.246,13.374,40.559,13.062,40.941,13.062z"/>
	<path  d="M36.299,15.879c1.17,0,2.121-0.951,2.121-2.12c0-1.17-0.951-2.121-2.121-2.121
		c-1.168,0-2.119,0.951-2.119,2.121C34.18,14.928,35.131,15.879,36.299,15.879z M36.299,13.062c0.385,0,0.697,0.312,0.697,0.697
		c0,0.384-0.312,0.696-0.697,0.696c-0.383,0-0.695-0.312-0.695-0.696C35.604,13.374,35.916,13.062,36.299,13.062z"/>
</g>
</svg>
