<?xml version="1.0" encoding="utf-8"?>
<!-- Generator: Adobe Illustrator 16.0.3, SVG Export Plug-In . SVG Version: 6.00 Build 0)  -->
<!DOCTYPE svg PUBLIC "-//W3C//DTD SVG 1.1//EN" "http://www.w3.org/Graphics/SVG/1.1/DTD/svg11.dtd">
<svg version="1.1" id="Layer_1" xmlns="http://www.w3.org/2000/svg" xmlns:xlink="http://www.w3.org/1999/xlink" x="0px" y="0px"
	 width="60px" height="60px" viewBox="0 0 60 60" enable-background="new 0 0 60 60" xml:space="preserve">
<g>
	<path  d="M33.539,44.135H4.744c-1.011,0-1.834-0.822-1.834-1.832V19.561h48.53v6.716
		c0,0.803,0.651,1.455,1.455,1.455s1.455-0.652,1.455-1.455V9.215c0-0.804-0.651-1.456-1.455-1.456H4.744
		C2.128,7.759,0,9.888,0,12.503v29.799c0,2.615,2.128,4.742,4.744,4.742h28.795c0.805,0,1.456-0.65,1.456-1.455
		C34.995,44.787,34.344,44.135,33.539,44.135z M4.744,10.67H51.44v7.436H2.91v-5.603C2.91,11.493,3.733,10.67,4.744,10.67z"/>
	<path  d="M56.353,30.988c-2.35-2.352-5.477-3.646-8.801-3.646c-3.325,0-6.452,1.295-8.803,3.646
		c-2.352,2.352-3.646,5.479-3.646,8.803c0,3.326,1.294,6.451,3.646,8.803s5.478,3.646,8.803,3.646s6.451-1.295,8.802-3.646
		C58.705,46.244,60,43.117,60,39.791C60,36.467,58.705,33.34,56.353,30.988z M54.295,46.537c-1.801,1.801-4.196,2.793-6.744,2.793
		s-4.943-0.992-6.745-2.793c-1.801-1.803-2.793-4.197-2.793-6.746c0-2.547,0.992-4.943,2.794-6.744s4.197-2.795,6.745-2.795
		c2.547,0,4.942,0.992,6.743,2.795c1.802,1.801,2.795,4.197,2.795,6.744C57.09,42.34,56.097,44.734,54.295,46.537z"/>
	<path  d="M53.751,38.406h-12.26c-0.804,0-1.455,0.65-1.455,1.455s0.651,1.455,1.455,1.455h12.26
		c0.804,0,1.455-0.65,1.455-1.455S54.555,38.406,53.751,38.406z"/>
	<path  d="M47.484,16.693c1.194,0,2.167-0.972,2.167-2.166c0-1.195-0.973-2.168-2.167-2.168s-2.167,0.973-2.167,2.168
		C45.317,15.722,46.29,16.693,47.484,16.693z M47.484,13.814c0.393,0,0.712,0.32,0.712,0.713c0,0.392-0.319,0.711-0.712,0.711
		s-0.712-0.319-0.712-0.711C46.772,14.134,47.092,13.814,47.484,13.814z"/>
	<path  d="M42.74,16.693c1.195,0,2.168-0.972,2.168-2.166c0-1.195-0.973-2.168-2.168-2.168
		c-1.194,0-2.167,0.973-2.167,2.168C40.573,15.722,41.546,16.693,42.74,16.693z M42.74,13.814c0.394,0,0.712,0.32,0.712,0.713
		c0,0.392-0.318,0.711-0.712,0.711c-0.393,0-0.712-0.319-0.712-0.711C42.028,14.134,42.348,13.814,42.74,13.814z"/>
	<path  d="M37.995,16.693c1.195,0,2.168-0.972,2.168-2.166c0-1.195-0.973-2.168-2.168-2.168
		c-1.193,0-2.165,0.973-2.165,2.168C35.83,15.722,36.802,16.693,37.995,16.693z M37.995,13.814c0.394,0,0.713,0.32,0.713,0.713
		c0,0.392-0.319,0.711-0.713,0.711c-0.392,0-0.71-0.319-0.71-0.711C37.285,14.134,37.604,13.814,37.995,13.814z"/>
</g>
</svg>
