<?xml version="1.0" encoding="utf-8"?>
<!-- Generator: Adobe Illustrator 16.0.3, SVG Export Plug-In . SVG Version: 6.00 Build 0)  -->
<!DOCTYPE svg PUBLIC "-//W3C//DTD SVG 1.1//EN" "http://www.w3.org/Graphics/SVG/1.1/DTD/svg11.dtd">
<svg version="1.1" id="Layer_1" xmlns="http://www.w3.org/2000/svg" xmlns:xlink="http://www.w3.org/1999/xlink" x="0px" y="0px"
	 width="60px" height="60px" viewBox="0 0 60 60" enable-background="new 0 0 60 60" xml:space="preserve">
<g>
	<path  d="M33.539,44.135H4.742c-1.01,0-1.832-0.822-1.832-1.832V19.561h48.529v6.716c0,0.803,0.65,1.455,1.455,1.455
		s1.455-0.652,1.455-1.455V9.214c0-0.804-0.65-1.455-1.455-1.455H4.742C2.127,7.759,0,9.887,0,12.503v29.8
		c0,2.615,2.127,4.742,4.742,4.742h28.797c0.803,0,1.455-0.65,1.455-1.455C34.994,44.787,34.342,44.135,33.539,44.135z
		 M4.742,10.669h46.697v7.437H2.91v-5.603C2.91,11.492,3.732,10.669,4.742,10.669z"/>
	<path  d="M56.354,30.988c-2.352-2.35-5.477-3.645-8.805-3.645c-6.863,0-12.447,5.584-12.447,12.447
		c0,6.865,5.584,12.449,12.449,12.449h0.002c3.324,0,6.449-1.295,8.801-3.646S60,43.115,60,39.791S58.705,33.34,56.354,30.988z
		 M54.297,46.537c-1.803,1.801-4.197,2.793-6.744,2.793h-0.002c-5.26,0-9.539-4.279-9.539-9.539c0-5.258,4.277-9.537,9.539-9.537
		c2.549,0,4.943,0.992,6.744,2.793c1.803,1.801,2.795,4.197,2.795,6.744C57.09,42.34,56.098,44.734,54.297,46.537z"/>
	<path  d="M49.609,39.891l3.305-3.305c0.568-0.568,0.568-1.488,0-2.057s-1.49-0.568-2.059,0l-3.305,3.305
		l-3.305-3.307c-0.568-0.568-1.49-0.568-2.059,0s-0.568,1.49,0,2.059l3.307,3.305l-3.307,3.307c-0.568,0.566-0.568,1.488,0,2.057
		c0.283,0.285,0.656,0.426,1.029,0.426c0.371,0,0.744-0.141,1.027-0.426l3.307-3.305l3.307,3.305
		c0.283,0.283,0.656,0.426,1.027,0.426c0.373,0,0.746-0.143,1.029-0.426c0.568-0.568,0.568-1.49,0-2.059L49.609,39.891z"/>
	<path  d="M46.111,16.693c1.195,0,2.168-0.972,2.168-2.167c0-1.195-0.973-2.168-2.168-2.168
		c-1.193,0-2.166,0.973-2.166,2.168C43.945,15.721,44.918,16.693,46.111,16.693z M46.111,13.814c0.393,0,0.713,0.32,0.713,0.712
		c0,0.392-0.32,0.711-0.713,0.711S45.4,14.919,45.4,14.527C45.4,14.134,45.719,13.814,46.111,13.814z"/>
	<path  d="M41.367,16.693c1.195,0,2.168-0.972,2.168-2.167c0-1.195-0.973-2.168-2.168-2.168
		c-1.193,0-2.166,0.973-2.166,2.168C39.201,15.721,40.174,16.693,41.367,16.693z M41.367,13.814c0.393,0,0.713,0.32,0.713,0.712
		c0,0.392-0.32,0.711-0.713,0.711s-0.711-0.319-0.711-0.711C40.656,14.134,40.975,13.814,41.367,13.814z"/>
	<path  d="M36.623,16.693c1.195,0,2.168-0.972,2.168-2.167c0-1.195-0.973-2.168-2.168-2.168s-2.166,0.973-2.166,2.168
		C34.457,15.721,35.428,16.693,36.623,16.693z M36.623,13.814c0.393,0,0.713,0.32,0.713,0.712c0,0.392-0.32,0.711-0.713,0.711
		s-0.711-0.319-0.711-0.711C35.912,14.134,36.23,13.814,36.623,13.814z"/>
</g>
</svg>
