<?xml version="1.0" encoding="utf-8"?>
<!-- Generator: Adobe Illustrator 16.0.3, SVG Export Plug-In . SVG Version: 6.00 Build 0)  -->
<!DOCTYPE svg PUBLIC "-//W3C//DTD SVG 1.1//EN" "http://www.w3.org/Graphics/SVG/1.1/DTD/svg11.dtd">
<svg version="1.1" id="Layer_1" xmlns="http://www.w3.org/2000/svg" xmlns:xlink="http://www.w3.org/1999/xlink" x="0px" y="0px"
	 width="60px" height="60px" viewBox="0 0 60 60" enable-background="new 0 0 60 60" xml:space="preserve">
<g>
	<path  d="M59.566,33.085l-4.821-4.82c-0.579-0.579-1.519-0.579-2.098,0L38.652,42.26
		c-0.031,0.032-0.056,0.069-0.084,0.104c-0.025,0.029-0.051,0.058-0.072,0.089c-0.062,0.085-0.112,0.174-0.153,0.268
		c-0.003,0.006-0.008,0.011-0.01,0.018l-0.003,0.007c-0.002,0.004-0.003,0.007-0.004,0.011l-3.44,8.251
		c-0.231,0.555-0.105,1.194,0.32,1.619c0.284,0.284,0.663,0.435,1.049,0.435c0.192,0,0.386-0.037,0.57-0.114l8.263-3.445
		c0.002,0,0.002-0.001,0.004-0.001l0.002-0.001c0.002-0.001,0.003-0.002,0.005-0.003c0.101-0.042,0.193-0.098,0.282-0.161
		c0.03-0.021,0.057-0.045,0.084-0.068c0.035-0.029,0.074-0.055,0.106-0.088l13.995-13.995C59.844,34.904,60,34.527,60,34.134
		S59.844,33.363,59.566,33.085z M53.696,31.41l0.912,0.912L42.711,44.22l-0.912-0.912L53.696,31.41z M39.01,48.821l1.209-2.899
		l0.845,0.846l0.845,0.845L39.01,48.821z M44.522,46.032l-1.113-1.113l11.898-11.897l1.112,1.112L44.522,46.032z"/>
	<path  d="M35.666,45.498c0-0.819-0.664-1.483-1.484-1.483H4.835c-1.03,0-1.868-0.838-1.868-1.868V18.97h49.46v6.844
		c0,0.819,0.663,1.483,1.483,1.483c0.818,0,1.482-0.664,1.482-1.483V8.424c0-0.818-0.664-1.483-1.482-1.483H4.835
		C2.169,6.94,0,9.109,0,11.775v30.371c0,2.666,2.169,4.835,4.835,4.835h29.347C35.002,46.981,35.666,46.317,35.666,45.498z
		 M4.835,9.907h47.592v7.579H2.967v-5.711C2.967,10.745,3.805,9.907,4.835,9.907z"/>
	<path  d="M46.854,16.046c1.218,0,2.209-0.99,2.209-2.207c0-1.219-0.991-2.21-2.209-2.21s-2.208,0.991-2.208,2.21
		C44.646,15.056,45.637,16.046,46.854,16.046z M46.854,13.112c0.4,0,0.726,0.326,0.726,0.727c0,0.399-0.325,0.725-0.726,0.725
		c-0.399,0-0.725-0.325-0.725-0.725C46.13,13.438,46.455,13.112,46.854,13.112z"/>
	<path  d="M42.02,16.046c1.219,0,2.209-0.99,2.209-2.207c0-1.219-0.99-2.21-2.209-2.21
		c-1.217,0-2.208,0.991-2.208,2.21C39.812,15.056,40.803,16.046,42.02,16.046z M42.02,13.112c0.4,0,0.727,0.326,0.727,0.727
		c0,0.399-0.326,0.725-0.727,0.725c-0.399,0-0.725-0.325-0.725-0.725C41.295,13.438,41.62,13.112,42.02,13.112z"/>
	<path  d="M37.184,16.046c1.219,0,2.21-0.99,2.21-2.207c0-1.219-0.991-2.21-2.21-2.21
		c-1.217,0-2.207,0.991-2.207,2.21C34.977,15.056,35.967,16.046,37.184,16.046z M37.184,13.112c0.4,0,0.727,0.326,0.727,0.727
		c0,0.399-0.326,0.725-0.727,0.725c-0.398,0-0.725-0.325-0.725-0.725C36.459,13.438,36.785,13.112,37.184,13.112z"/>
</g>
</svg>
