<?xml version="1.0" encoding="utf-8"?>
<!-- Generator: Adobe Illustrator 16.0.3, SVG Export Plug-In . SVG Version: 6.00 Build 0)  -->
<!DOCTYPE svg PUBLIC "-//W3C//DTD SVG 1.1//EN" "http://www.w3.org/Graphics/SVG/1.1/DTD/svg11.dtd">
<svg version="1.1" id="Layer_1" xmlns="http://www.w3.org/2000/svg" xmlns:xlink="http://www.w3.org/1999/xlink" x="0px" y="0px"
	 width="60px" height="60px" viewBox="0 0 60 60" enable-background="new 0 0 60 60" xml:space="preserve">
<g>
	<path  d="M56.307,30.584c-0.002-0.002-0.006-0.006-0.008-0.008c0,0-0.001-0.002-0.002-0.002
		c-0.001-0.002-0.002-0.002-0.002-0.002c-2.38-2.373-5.539-3.68-8.9-3.68c-3.367,0-6.533,1.311-8.914,3.693
		c-4.916,4.914-4.916,12.91-0.001,17.826c0.04,0.041,0.082,0.078,0.123,0.117c0.01,0.012,0.018,0.023,0.028,0.035
		c0.016,0.014,0.033,0.025,0.049,0.039c2.357,2.258,5.439,3.502,8.714,3.502c3.366,0,6.532-1.312,8.913-3.691
		C58.688,46.031,60,42.865,60,39.498S58.688,32.965,56.307,30.584z M40.533,32.639c1.833-1.834,4.27-2.842,6.861-2.842
		c2.104,0,4.1,0.676,5.76,1.906L39.703,45.398C36.784,41.598,37.055,36.117,40.533,32.639z M54.253,46.359
		c-1.832,1.832-4.269,2.842-6.859,2.842c-2.036,0-3.972-0.631-5.599-1.787L55.204,33.76c1.222,1.656,1.892,3.643,1.892,5.738
		C57.096,42.09,56.086,44.527,54.253,46.359z"/>
	<path  d="M33.466,44.191H4.733c-1.009,0-1.829-0.82-1.829-1.828V19.671h48.424v6.7c0,0.803,0.649,1.453,1.452,1.453
		c0.802,0,1.452-0.65,1.452-1.453V9.347c0-0.802-0.65-1.452-1.452-1.452H4.733C2.123,7.895,0,10.019,0,12.629v29.734
		c0,2.609,2.123,4.732,4.733,4.732h28.732c0.802,0,1.452-0.65,1.452-1.451C34.918,44.842,34.268,44.191,33.466,44.191z
		 M4.733,10.799h46.595v7.42H2.904v-5.59C2.904,11.62,3.725,10.799,4.733,10.799z"/>
	<path  d="M46.028,16.81c1.192,0,2.161-0.97,2.161-2.162c0-1.193-0.969-2.163-2.161-2.163s-2.162,0.97-2.162,2.163
		C43.866,15.84,44.836,16.81,46.028,16.81z M46.028,13.937c0.392,0,0.71,0.319,0.71,0.711c0,0.391-0.318,0.709-0.71,0.709
		s-0.71-0.318-0.71-0.709C45.318,14.256,45.637,13.937,46.028,13.937z"/>
	<path  d="M41.295,16.81c1.191,0,2.162-0.97,2.162-2.162c0-1.193-0.971-2.163-2.162-2.163
		c-1.192,0-2.162,0.97-2.162,2.163C39.133,15.84,40.103,16.81,41.295,16.81z M41.295,13.937c0.391,0,0.709,0.319,0.709,0.711
		c0,0.391-0.318,0.709-0.709,0.709c-0.392,0-0.711-0.318-0.711-0.709C40.584,14.256,40.903,13.937,41.295,13.937z"/>
	<path  d="M36.561,16.81c1.191,0,2.162-0.97,2.162-2.162c0-1.193-0.971-2.163-2.162-2.163
		c-1.192,0-2.162,0.97-2.162,2.163C34.398,15.84,35.368,16.81,36.561,16.81z M36.561,13.937c0.391,0,0.71,0.319,0.71,0.711
		c0,0.391-0.319,0.709-0.71,0.709c-0.392,0-0.71-0.318-0.71-0.709C35.851,14.256,36.169,13.937,36.561,13.937z"/>
</g>
</svg>
