<?xml version="1.0" encoding="utf-8"?>
<!-- Generator: Adobe Illustrator 16.0.3, SVG Export Plug-In . SVG Version: 6.00 Build 0)  -->
<!DOCTYPE svg PUBLIC "-//W3C//DTD SVG 1.1//EN" "http://www.w3.org/Graphics/SVG/1.1/DTD/svg11.dtd">
<svg version="1.1" id="Layer_1" xmlns="http://www.w3.org/2000/svg" xmlns:xlink="http://www.w3.org/1999/xlink" x="0px" y="0px"
	 width="59.999px" height="60px" viewBox="0 0 59.999 60" enable-background="new 0 0 59.999 60" xml:space="preserve">
<g>
	<path  d="M58.393,0.637H5.236C2.349,0.637,0,2.986,0,5.873V38.77c0,2.889,2.349,5.236,5.236,5.236h17.088
		c0.887,0,1.606-0.719,1.606-1.605s-0.72-1.607-1.606-1.607H5.236c-1.116,0-2.023-0.906-2.023-2.023V14.82h53.573V38.77
		c0,1.117-0.907,2.023-2.023,2.023H37.337c-0.888,0-1.606,0.721-1.606,1.607s0.719,1.605,1.606,1.605h17.426
		c2.888,0,5.237-2.348,5.237-5.236V2.244C60,1.355,59.28,0.637,58.393,0.637z M3.213,13.215V5.873c0-1.115,0.907-2.023,2.023-2.023
		h51.55v9.365H3.213z"/>
	<path  d="M37.191,36.33l1.569-1.461l-8.759-9.42l-8.76,9.42l1.568,1.461l6.119-6.582v28.545
		c0,0.59,0.479,1.07,1.07,1.07c0.592,0,1.071-0.48,1.071-1.07V29.744L37.191,36.33z"/>
	<path  d="M52.162,5.715c-1.32,0-2.394,1.074-2.394,2.393c0,1.32,1.073,2.393,2.394,2.393
		c1.318,0,2.391-1.072,2.391-2.393C54.553,6.789,53.48,5.715,52.162,5.715z M52.162,8.893c-0.434,0-0.787-0.352-0.787-0.785
		s0.354-0.787,0.787-0.787c0.433,0,0.784,0.354,0.784,0.787S52.595,8.893,52.162,8.893z"/>
	<path  d="M46.924,5.715c-1.318,0-2.392,1.074-2.392,2.393c0,1.32,1.073,2.393,2.392,2.393
		c1.319,0,2.392-1.072,2.392-2.393C49.315,6.789,48.243,5.715,46.924,5.715z M46.924,8.893c-0.434,0-0.785-0.352-0.785-0.785
		S46.49,7.32,46.924,7.32s0.785,0.354,0.785,0.787S47.357,8.893,46.924,8.893z"/>
	<path  d="M41.686,5.715c-1.318,0-2.391,1.074-2.391,2.393c0,1.32,1.072,2.393,2.391,2.393
		c1.32,0,2.394-1.072,2.394-2.393C44.079,6.789,43.006,5.715,41.686,5.715z M41.686,8.893c-0.433,0-0.784-0.352-0.784-0.785
		s0.352-0.787,0.784-0.787c0.434,0,0.787,0.354,0.787,0.787S42.119,8.893,41.686,8.893z"/>
</g>
</svg>
